<?xml version="1.0" encoding="UTF-8" standalone="no"?>
<!-- Created with Inkscape (http://www.inkscape.org/) -->

<svg
   xmlns:dc="http://purl.org/dc/elements/1.1/"
   xmlns:cc="http://creativecommons.org/ns#"
   xmlns:rdf="http://www.w3.org/1999/02/22-rdf-syntax-ns#"
   xmlns:svg="http://www.w3.org/2000/svg"
   xmlns="http://www.w3.org/2000/svg"
   xmlns:sodipodi="http://sodipodi.sourceforge.net/DTD/sodipodi-0.dtd"
   xmlns:inkscape="http://www.inkscape.org/namespaces/inkscape"
   width="48px"
   height="48px"
   viewBox="0 0 48 48"
   version="1.1"
   id="SVGRoot"
   inkscape:version="0.92.4 (5da689c313, 2019-01-14)"
   sodipodi:docname="extension.svg">
  <defs
     id="defs815" />
  <sodipodi:namedview
     id="base"
     pagecolor="#ffffff"
     bordercolor="#666666"
     borderopacity="1.0"
     inkscape:pageopacity="0.0"
     inkscape:pageshadow="2"
     inkscape:zoom="2.8792038"
     inkscape:cx="38.037637"
     inkscape:cy="20.061182"
     inkscape:document-units="px"
     inkscape:current-layer="layer1"
     showgrid="true"
     inkscape:window-width="725"
     inkscape:window-height="405"
     inkscape:window-x="950"
     inkscape:window-y="110"
     inkscape:window-maximized="0"
     inkscape:grid-bbox="true"
     showguides="true"
     inkscape:guide-bbox="true">
    <inkscape:grid
       type="xygrid"
       id="grid1371" />
  </sodipodi:namedview>
  <metadata
     id="metadata818">
    <rdf:RDF>
      <cc:Work
         rdf:about="">
        <dc:format>image/svg+xml</dc:format>
        <dc:type
           rdf:resource="http://purl.org/dc/dcmitype/StillImage" />
        <dc:title></dc:title>
      </cc:Work>
    </rdf:RDF>
  </metadata>
  <g
     inkscape:label="Layer 1"
     inkscape:groupmode="layer"
     id="layer1">
    <path
       style="opacity:1;vector-effect:none;fill:#96d56b;fill-opacity:1;fill-rule:evenodd;stroke:none;stroke-width:4;stroke-linecap:round;stroke-linejoin:round;stroke-miterlimit:4;stroke-dasharray:none;stroke-dashoffset:0;stroke-opacity:1;paint-order:stroke fill markers"
       d="M 8 8 C 6.892 8 6 8.892 6 10 L 6 20 C 9.324 20 12 22.676 12 26 C 12 29.324 9.324 32 6 32 L 6 44 C 6 45.108 6.892 46 8 46 L 18 46 C 18 42.676 20.676 40 24 40 C 27.324 40 30 42.676 30 46 L 40 46 C 41.108 46 42 45.108 42 44 L 42 10 C 42 8.892 41.108 8 40 8 L 8 8 z "
       id="rect1373" />
    <rect
       style="opacity:1;vector-effect:none;fill:#96d56b;fill-opacity:1;fill-rule:evenodd;stroke:none;stroke-width:2.4000001;stroke-linecap:round;stroke-linejoin:round;stroke-miterlimit:4;stroke-dasharray:none;stroke-opacity:1;paint-order:normal"
       id="rect834"
       width="12"
       height="12"
       x="18"
       y="2"
       ry="6" />
    <path
       style="opacity:0.25;vector-effect:none;fill:#000000;fill-opacity:1;fill-rule:evenodd;stroke:none;stroke-width:2;stroke-linecap:round;stroke-linejoin:round;stroke-miterlimit:4;stroke-dasharray:none;stroke-opacity:1;paint-order:normal"
       d="M 24,2 C 20.676,2 18,4.676 18,8 H 8 C 6.892,8 6,8.892 6,10 v 9 1 c 0.341536,0 0.674346,0.03554 1,0.08984 2.8437738,0.474201 5,2.927696 5,5.91016 0,2.982464 -2.1562262,5.435959 -5,5.910156 C 6.674346,31.964459 6.341536,32 6,32 v 1 11 c 0,1.108 0.892,2 2,2 h 9 1 c 0,-0.341536 0.03554,-0.674346 0.08984,-1 0.474197,-2.843774 2.927692,-5 5.910156,-5 2.982464,0 5.435959,2.156226 5.910156,5 C 29.964459,45.325654 30,45.658464 30,46 h 1 9 c 1.108,0 2,-0.892 2,-2 V 10 C 42,8.892 41.108,8 40,8 H 30 C 30,4.676 27.324,2 24,2 Z m 0,1 c 2.77,0 5,2.23 5,5 0,0.3428315 -0.03449,0.6769159 -0.09961,1 H 29 29.910156 c 0,0 6.726563,0 10.089844,0 1,0 1,1 1,1 v 34 c 0,0 0,1 -1,1 -3.026042,0 -9.078125,0 -9.078125,0 C 30.438059,41.600642 27.537216,39 24,39 c -3.537216,0 -6.438059,2.600642 -6.921875,6 H 7.5 C 7.223,45 7,44.777 7,44.5 V 32.921875 C 10.399358,32.438059 13,29.537216 13,26 13,22.462784 10.399358,19.561941 7,19.078125 V 10 C 7,10 7,9 8,9 H 18.089844 19 19.099609 C 19.034495,8.6769159 19,8.3428315 19,8 19,5.23 21.23,3 24,3 Z"
       id="rect879"
       inkscape:connector-curvature="0"
       sodipodi:nodetypes="scsscccscccsscccscccsssscssscccsccscscsscsccscccss" />
  </g>
</svg>
