<?xml version="1.0" encoding="UTF-8" standalone="no"?>
<!-- Created with Inkscape (http://www.inkscape.org/) -->

<svg
   xmlns:dc="http://purl.org/dc/elements/1.1/"
   xmlns:cc="http://creativecommons.org/ns#"
   xmlns:rdf="http://www.w3.org/1999/02/22-rdf-syntax-ns#"
   xmlns:svg="http://www.w3.org/2000/svg"
   xmlns="http://www.w3.org/2000/svg"
   xmlns:sodipodi="http://sodipodi.sourceforge.net/DTD/sodipodi-0.dtd"
   xmlns:inkscape="http://www.inkscape.org/namespaces/inkscape"
   width="48px"
   height="48px"
   viewBox="0 0 48 48"
   version="1.1"
   id="SVGRoot"
   inkscape:version="0.92.4 (5da689c313, 2019-01-14)"
   sodipodi:docname="icon-pusher-alt1.svg">
  <defs
     id="defs815" />
  <sodipodi:namedview
     id="base"
     pagecolor="#ffffff"
     bordercolor="#666666"
     borderopacity="1.0"
     inkscape:pageopacity="0.0"
     inkscape:pageshadow="2"
     inkscape:zoom="11.555837"
     inkscape:cx="12.952387"
     inkscape:cy="26.846079"
     inkscape:document-units="px"
     inkscape:current-layer="layer1"
     showgrid="true"
     inkscape:window-width="1920"
     inkscape:window-height="1017"
     inkscape:window-x="-8"
     inkscape:window-y="-8"
     inkscape:window-maximized="1"
     inkscape:grid-bbox="true"
     inkscape:snap-global="true">
    <inkscape:grid
       type="xygrid"
       id="grid1371" />
  </sodipodi:namedview>
  <metadata
     id="metadata818">
    <rdf:RDF>
      <cc:Work
         rdf:about="">
        <dc:format>image/svg+xml</dc:format>
        <dc:type
           rdf:resource="http://purl.org/dc/dcmitype/StillImage" />
        <dc:title></dc:title>
      </cc:Work>
    </rdf:RDF>
  </metadata>
  <g
     inkscape:label="Layer 1"
     inkscape:groupmode="layer"
     id="layer1">
    <rect
       style="opacity:1;vector-effect:none;fill:#4e4e4e;fill-opacity:1;fill-rule:evenodd;stroke:none;stroke-width:4;stroke-linecap:round;stroke-linejoin:round;stroke-miterlimit:4;stroke-dasharray:none;stroke-dashoffset:0;stroke-opacity:1;paint-order:stroke fill markers"
       id="rect1373"
       width="40"
       height="40"
       x="4"
       y="4"
       ry="4" />
    <path
       style="opacity:0.25;vector-effect:none;fill:#000000;fill-opacity:1;fill-rule:evenodd;stroke:none;stroke-width:4;stroke-linecap:round;stroke-linejoin:round;stroke-miterlimit:4;stroke-dasharray:none;stroke-dashoffset:0;stroke-opacity:1;paint-order:stroke fill markers"
       d="M 8 4 C 5.784 4 4 5.784 4 8 L 4 40 C 4 42.216 5.784 44 8 44 L 40 44 C 42.216 44 44 42.216 44 40 L 44 8 C 44 5.784 42.216 4 40 4 L 8 4 z M 8 5 L 40 5 C 41.662 5 43 6.338 43 8 L 43 40 C 43 41.662 41.662 43 40 43 L 8 43 C 6.338 43 5 41.662 5 40 L 5 8 C 5 6.338 6.338 5 8 5 z "
       id="rect826" />
    <path
       style="opacity:1;vector-effect:none;fill:#efefef;fill-opacity:1;fill-rule:evenodd;stroke:none;stroke-width:3.20000005;stroke-linecap:round;stroke-linejoin:round;stroke-miterlimit:4;stroke-dasharray:none;stroke-dashoffset:0;stroke-opacity:1;paint-order:stroke fill markers"
       d="M 9 8 C 8.446 8 8 8.446 8 9 L 8 39 C 8 39.554 8.446 40 9 40 L 16.800781 40 C 16.378685 39.798614 16.027344 39.420821 16.027344 39.166016 C 16.027344 38.818378 16.914749 37.545909 17.839844 36.566406 C 18.107101 36.283433 18.480986 35.810591 18.669922 35.515625 C 19.058076 34.909634 19.676208 34.24201 20.160156 33.90625 C 20.719047 33.518495 21.488888 32.847236 21.740234 32.529297 C 21.985493 32.219059 22.097882 32.0319 23.082031 30.298828 C 23.583365 29.415988 23.633616 29.291998 23.566406 29.115234 C 23.425882 28.745629 23.516828 27.480822 23.722656 26.933594 C 23.939158 26.357972 24.459532 25.4233 24.669922 25.232422 C 24.79922 25.115114 25.103906 24.925309 25.345703 24.808594 C 25.782007 24.59799 25.785096 24.59304 25.878906 24.173828 C 25.994913 23.65546 26.083136 23.509188 26.644531 22.912109 C 26.888124 22.653032 27.225228 22.187773 27.394531 21.876953 C 27.563833 21.566134 27.882494 21.100032 28.101562 20.841797 C 28.686384 20.152415 28.842074 19.896079 29.003906 19.363281 C 29.184845 18.767582 29.351363 18.492051 29.673828 18.246094 C 30.056239 17.954415 30.783282 17.623594 31.351562 17.484375 C 31.828371 17.367564 31.864379 17.344966 31.886719 17.146484 C 31.899871 17.029605 31.977697 16.860494 32.060547 16.771484 C 32.168422 16.655575 32.210531 16.519623 32.207031 16.289062 C 32.202471 15.984587 32.212411 15.968429 32.394531 15.980469 C 32.543896 15.990341 32.593298 15.954722 32.611328 15.828125 C 32.664712 15.453394 33.457898 15.081619 34.21875 15.074219 C 34.850171 15.068059 35.27888 15.232924 35.601562 15.605469 L 35.861328 15.904297 L 36.761719 15.607422 C 37.2566 15.443579 37.853186 15.249611 38.089844 15.175781 C 38.488073 15.051538 38.526482 15.01995 38.607422 14.755859 C 38.655526 14.59892 38.767972 13.980681 38.857422 13.382812 C 38.946875 12.784941 39.088021 12.238511 39.113281 12.144531 C 39.375266 11.169879 40 11.199219 40 11.199219 L 40 9 C 40 8.446 39.554 8 39 8 L 9 8 z M 40 16 C 40 16 39.745196 16.378214 39.550781 16.525391 C 38.268573 17.496069 37.010318 18.260643 35.291016 19.113281 C 34.615278 19.448394 33.978747 19.789071 33.876953 19.869141 C 33.775159 19.949213 33.613801 20.013672 33.519531 20.013672 C 33.352856 20.013672 33.347656 20.031145 33.347656 20.625 C 33.347656 21.278666 33.266072 22.016768 33.087891 22.949219 C 32.932773 23.760965 32.928733 23.769766 32.621094 24.103516 C 32.338807 24.40976 31.952992 25.255936 31.857422 25.78125 C 31.771842 26.251667 31.463577 27.053727 31.197266 27.496094 C 30.912942 27.968382 30.784583 28.008938 30.425781 27.740234 C 30.298902 27.645214 30.118368 27.544535 30.023438 27.515625 C 29.856236 27.464713 29.853416 27.471274 29.910156 27.742188 C 29.942376 27.896007 29.972516 28.543913 29.978516 29.181641 C 29.987924 30.181191 30.012313 30.402513 30.150391 30.777344 C 30.35785 31.340503 30.471513 32.635829 30.341797 32.949219 C 30.248961 33.17351 30.148618 33.275951 28.125 35.179688 C 26.115063 37.070553 25.766381 37.706018 26.330078 38.447266 C 26.599358 38.801364 26.900261 39.073715 27.023438 39.074219 C 27.071766 39.074436 27.284241 39.137537 27.496094 39.216797 C 27.905791 39.370086 28.08616 39.775472 28 40 L 39 40 C 39.554 40 40 39.554 40 39 L 40 16 z M 26.535156 31.947266 L 25.673828 32.804688 C 24.724044 33.749118 24.585605 33.849716 24.228516 33.853516 C 24.07322 33.855196 23.889318 33.931628 23.720703 34.064453 C 23.575464 34.178869 23.202488 34.436902 22.892578 34.638672 C 22.582669 34.840443 22.094601 35.215969 21.806641 35.472656 C 21.518681 35.729344 21.08668 36.062753 20.847656 36.214844 C 20.04027 36.728585 18.819323 37.670196 18.720703 37.855469 C 18.647123 37.993712 18.641612 38.078173 18.701172 38.189453 C 18.795573 38.365844 19.799125 39.217699 20.160156 39.435547 C 20.289233 39.513433 20.812956 39.763329 20.853516 39.888672 C 20.878116 39.96471 20.800781 40 20.800781 40 L 24.957031 40 L 24.355469 39.873047 C 24.012669 39.800727 23.661842 39.706006 23.576172 39.660156 C 23.400849 39.566328 23.364537 39.259639 23.517578 39.167969 C 23.570794 39.136097 23.652839 38.917189 23.699219 38.681641 C 23.766987 38.337448 23.865307 38.145203 24.207031 37.703125 C 24.705806 37.057874 25.488466 35.812522 25.941406 34.941406 C 26.117558 34.602614 26.486643 33.991431 26.763672 33.582031 C 27.241887 32.875318 27.307148 32.697266 27.082031 32.697266 C 27.027762 32.697266 26.96267 32.602849 26.9375 32.488281 C 26.912332 32.373712 26.812424 32.204951 26.714844 32.113281 L 26.535156 31.947266 z "
       id="rect1373-4" />
  </g>
</svg>
