<?xml version="1.0" encoding="UTF-8" standalone="no"?>
<!-- Created with Inkscape (http://www.inkscape.org/) -->

<svg
   xmlns:dc="http://purl.org/dc/elements/1.1/"
   xmlns:cc="http://creativecommons.org/ns#"
   xmlns:rdf="http://www.w3.org/1999/02/22-rdf-syntax-ns#"
   xmlns:svg="http://www.w3.org/2000/svg"
   xmlns="http://www.w3.org/2000/svg"
   xmlns:sodipodi="http://sodipodi.sourceforge.net/DTD/sodipodi-0.dtd"
   xmlns:inkscape="http://www.inkscape.org/namespaces/inkscape"
   width="48px"
   height="48px"
   viewBox="0 0 48 48"
   version="1.1"
   id="SVGRoot"
   inkscape:version="0.92.4 (5da689c313, 2019-01-14)"
   sodipodi:docname="rpm-alt.svg">
  <defs
     id="defs815" />
  <sodipodi:namedview
     id="base"
     pagecolor="#ffffff"
     bordercolor="#666666"
     borderopacity="1.0"
     inkscape:pageopacity="0.0"
     inkscape:pageshadow="2"
     inkscape:zoom="8.3031131"
     inkscape:cx="28.202958"
     inkscape:cy="23.918182"
     inkscape:document-units="px"
     inkscape:current-layer="layer1"
     showgrid="true"
     inkscape:window-width="1920"
     inkscape:window-height="1017"
     inkscape:window-x="-8"
     inkscape:window-y="-8"
     inkscape:window-maximized="1"
     inkscape:grid-bbox="true">
    <inkscape:grid
       type="xygrid"
       id="grid1371" />
  </sodipodi:namedview>
  <metadata
     id="metadata818">
    <rdf:RDF>
      <cc:Work
         rdf:about="">
        <dc:format>image/svg+xml</dc:format>
        <dc:type
           rdf:resource="http://purl.org/dc/dcmitype/StillImage" />
        <dc:title></dc:title>
      </cc:Work>
    </rdf:RDF>
  </metadata>
  <g
     inkscape:label="Layer 1"
     inkscape:groupmode="layer"
     id="layer1">
    <rect
       style="opacity:1;vector-effect:none;fill:#f97263;fill-opacity:1;fill-rule:evenodd;stroke:none;stroke-width:1px;stroke-linecap:butt;stroke-linejoin:miter;stroke-miterlimit:4;stroke-dasharray:none;stroke-dashoffset:0;stroke-opacity:1;paint-order:stroke fill markers"
       id="rect820"
       width="36"
       height="44"
       x="6"
       y="2"
       ry="2" />
    <path
       style="opacity:0.25;vector-effect:none;fill:#000000;fill-opacity:1;fill-rule:evenodd;stroke:none;stroke-width:1px;stroke-linecap:butt;stroke-linejoin:miter;stroke-miterlimit:4;stroke-dasharray:none;stroke-dashoffset:0;stroke-opacity:1;paint-order:stroke fill markers"
       d="M 8 2 C 6.892 2 6 2.892 6 4 L 6 44 C 6 45.108 6.892 46 8 46 L 40 46 C 41.108 46 42 45.108 42 44 L 42 4 C 42 2.892 41.108 2 40 2 L 8 2 z M 8 3 L 40 3 C 40.554 3 41 3.446 41 4 L 41 44 C 41 44.554 40.554 45 40 45 L 8 45 C 7.446 45 7 44.554 7 44 L 7 4 C 7 3.446 7.446 3 8 3 z "
       id="rect815" />
    <path
       inkscape:connector-curvature="0"
       style="opacity:1;fill:#ffffff;stroke:none;stroke-width:1px;stroke-linecap:butt;stroke-linejoin:miter;stroke-opacity:1"
       d="m 24,16 c -11,0 -12,8 -12,8 h 4 c 0,0 -1,-7 8,-7 6.883019,0 7.911906,4.073915 8.017578,6 H 25 c 0,-0.554 -0.446,-1 -1,-1 -0.554,0 -1,0.446 -1,1 0,0.554 0.446,1 1,1 h 8 2 2 c 0,0 -1,-8 -12,-8 z"
       id="path834-5" />
    <path
       style="opacity:1;vector-effect:none;fill:#ffffff;fill-opacity:1;fill-rule:evenodd;stroke:none;stroke-width:1.63299322;stroke-linecap:round;stroke-linejoin:round;stroke-miterlimit:4;stroke-dasharray:none;stroke-opacity:1;paint-order:normal"
       d="m 12,26 v 6 h 2 v -4 h 2 l 2,-2 h -4 z m 8,0 v 9 l 2,-1 v -2 h 1 c 0,0 3,0 3,-3 0,-3 -3,-3 -3,-3 h -1 z m 8,0 v 6 h 2 v -4 h 1 v 4 h 2 v -4 h 1 v 3 1 h 2 v -2 -3 c 0,-0.554 -0.446,-1 -1,-1 h -5 z m -6,1 c 0,0 2,0 2,2 0,2 -2,2 -2,2 z"
       id="rect856"
       inkscape:connector-curvature="0" />
  </g>
</svg>
