<?xml version="1.0" encoding="UTF-8" standalone="no"?>
<!-- Created with Inkscape (http://www.inkscape.org/) -->

<svg
   xmlns:dc="http://purl.org/dc/elements/1.1/"
   xmlns:cc="http://creativecommons.org/ns#"
   xmlns:rdf="http://www.w3.org/1999/02/22-rdf-syntax-ns#"
   xmlns:svg="http://www.w3.org/2000/svg"
   xmlns="http://www.w3.org/2000/svg"
   xmlns:sodipodi="http://sodipodi.sourceforge.net/DTD/sodipodi-0.dtd"
   xmlns:inkscape="http://www.inkscape.org/namespaces/inkscape"
   width="48px"
   height="48px"
   viewBox="0 0 48 48"
   version="1.1"
   id="SVGRoot"
   inkscape:version="0.92.4 (5da689c313, 2019-01-14)"
   sodipodi:docname="zim-alt.svg">
  <defs
     id="defs815" />
  <sodipodi:namedview
     id="base"
     pagecolor="#ffffff"
     bordercolor="#666666"
     borderopacity="1.0"
     inkscape:pageopacity="0.0"
     inkscape:pageshadow="2"
     inkscape:zoom="11.555837"
     inkscape:cx="21.332421"
     inkscape:cy="23.258575"
     inkscape:document-units="px"
     inkscape:current-layer="layer1"
     showgrid="true"
     inkscape:window-width="1920"
     inkscape:window-height="1017"
     inkscape:window-x="-8"
     inkscape:window-y="-8"
     inkscape:window-maximized="1"
     inkscape:grid-bbox="true"
     inkscape:snap-global="true">
    <inkscape:grid
       type="xygrid"
       id="grid1371" />
  </sodipodi:namedview>
  <metadata
     id="metadata818">
    <rdf:RDF>
      <cc:Work
         rdf:about="">
        <dc:format>image/svg+xml</dc:format>
        <dc:type
           rdf:resource="http://purl.org/dc/dcmitype/StillImage" />
        <dc:title></dc:title>
      </cc:Work>
    </rdf:RDF>
  </metadata>
  <g
     inkscape:label="Layer 1"
     inkscape:groupmode="layer"
     id="layer1">
    <path
       inkscape:connector-curvature="0"
       style="color:#000000;font-style:normal;font-variant:normal;font-weight:normal;font-stretch:normal;font-size:medium;line-height:normal;font-family:sans-serif;font-variant-ligatures:normal;font-variant-position:normal;font-variant-caps:normal;font-variant-numeric:normal;font-variant-alternates:normal;font-feature-settings:normal;text-indent:0;text-align:start;text-decoration:none;text-decoration-line:none;text-decoration-style:solid;text-decoration-color:#000000;letter-spacing:normal;word-spacing:normal;text-transform:none;writing-mode:lr-tb;direction:ltr;text-orientation:mixed;dominant-baseline:auto;baseline-shift:baseline;text-anchor:start;white-space:normal;shape-padding:0;clip-rule:nonzero;display:inline;overflow:visible;visibility:visible;opacity:1;isolation:auto;mix-blend-mode:normal;color-interpolation:sRGB;color-interpolation-filters:linearRGB;solid-color:#000000;solid-opacity:1;vector-effect:none;fill:#d35244;fill-opacity:1;fill-rule:nonzero;stroke:none;stroke-width:2;stroke-linecap:round;stroke-linejoin:miter;stroke-miterlimit:4;stroke-dasharray:none;stroke-dashoffset:0;stroke-opacity:1;color-rendering:auto;image-rendering:auto;shape-rendering:auto;text-rendering:auto;enable-background:accumulate"
       d="M 8,4 C 5.784,4 4,5.784 4,8 v 4 c 0,2.216 1.784,4 4,4 h 3.220703 l 8.728516,8 -8.728516,8 H 8 c -2.216,0 -4,1.784 -4,4 v 4 c 0,2.216 1.784,4 4,4 h 10 c 2.216,0 4,-1.784 4,-4 v -4 c 0,-2.216 -1.784,-4 -4,-4 h -0.857422 l 5.791016,-5.310547 a 2.0002,2.0002 0 0 0 2.132812,0.002 L 30.857422,32 H 30 c -2.216,0 -4,1.784 -4,4 v 4 c 0,2.216 1.784,4 4,4 h 10 c 2.216,0 4,-1.784 4,-4 v -4 c 0,-2.216 -1.784,-4 -4,-4 h -3.220703 l -8.728516,-8 8.728516,-8 H 40 c 2.216,0 4,-1.784 4,-4 V 8 C 44,5.784 42.216,4 40,4 H 30 c -2.216,0 -4,1.784 -4,4 v 4 c 0,2.216 1.784,4 4,4 h 0.857422 l -5.791016,5.310547 a 2.0002,2.0002 0 0 0 -0.982422,-0.308594 2.0002,2.0002 0 0 0 -1.15039,0.306641 L 17.142578,16 H 18 c 2.216,0 4,-1.784 4,-4 V 8 C 22,5.784 20.216,4 18,4 Z"
       id="path859-7-1" />
    <path
       style="color:#000000;font-style:normal;font-variant:normal;font-weight:normal;font-stretch:normal;font-size:medium;line-height:normal;font-family:sans-serif;font-variant-ligatures:normal;font-variant-position:normal;font-variant-caps:normal;font-variant-numeric:normal;font-variant-alternates:normal;font-feature-settings:normal;text-indent:0;text-align:start;text-decoration:none;text-decoration-line:none;text-decoration-style:solid;text-decoration-color:#000000;letter-spacing:normal;word-spacing:normal;text-transform:none;writing-mode:lr-tb;direction:ltr;text-orientation:mixed;dominant-baseline:auto;baseline-shift:baseline;text-anchor:start;white-space:normal;shape-padding:0;clip-rule:nonzero;display:inline;overflow:visible;visibility:visible;opacity:0.25;isolation:auto;mix-blend-mode:normal;color-interpolation:sRGB;color-interpolation-filters:linearRGB;solid-color:#000000;solid-opacity:1;vector-effect:none;fill:#000000;fill-opacity:1;fill-rule:nonzero;stroke:none;stroke-width:2;stroke-linecap:round;stroke-linejoin:miter;stroke-miterlimit:4;stroke-dasharray:none;stroke-dashoffset:0;stroke-opacity:1;color-rendering:auto;image-rendering:auto;shape-rendering:auto;text-rendering:auto;enable-background:accumulate"
       d="M 8 4 C 5.784 4 4 5.784 4 8 L 4 12 C 4 14.216 5.784 16 8 16 L 11.220703 16 L 19.949219 24 L 11.220703 32 L 8 32 C 5.784 32 4 33.784 4 36 L 4 40 C 4 42.216 5.784 44 8 44 L 18 44 C 20.216 44 22 42.216 22 40 L 22 36 C 22 33.784 20.216 32 18 32 L 17.142578 32 L 22.933594 26.689453 A 2.0002 2.0002 0 0 0 25.066406 26.691406 L 30.857422 32 L 30 32 C 27.784 32 26 33.784 26 36 L 26 40 C 26 42.216 27.784 44 30 44 L 40 44 C 42.216 44 44 42.216 44 40 L 44 36 C 44 33.784 42.216 32 40 32 L 36.779297 32 L 28.050781 24 L 36.779297 16 L 40 16 C 42.216 16 44 14.216 44 12 L 44 8 C 44 5.784 42.216 4 40 4 L 30 4 C 27.784 4 26 5.784 26 8 L 26 12 C 26 14.216 27.784 16 30 16 L 30.857422 16 L 25.066406 21.310547 A 2.0002 2.0002 0 0 0 24.083984 21.001953 A 2.0002 2.0002 0 0 0 22.933594 21.308594 L 17.142578 16 L 18 16 C 20.216 16 22 14.216 22 12 L 22 8 C 22 5.784 20.216 4 18 4 L 8 4 z M 8 5 L 18 5 C 19.679297 5 21 6.3207028 21 8 L 21 12 C 21 13.679297 19.679297 15 18 15 L 14.572266 15 L 22.820312 22.5625 L 23.466797 22.154297 C 23.637538 22.046611 23.837408 21.994319 24.039062 22.001953 C 24.213528 22.009653 24.383729 22.062793 24.53125 22.15625 L 25.177734 22.564453 L 33.427734 15 L 30 15 C 28.320703 15 27 13.679297 27 12 L 27 8 C 27 6.3207028 28.320703 5 30 5 L 40 5 C 41.679297 5 43 6.3207028 43 8 L 43 12 C 43 13.679297 41.679297 15 40 15 L 36.390625 15 L 26.570312 24 L 36.390625 33 L 40 33 C 41.679297 33 43 34.320703 43 36 L 43 40 C 43 41.679297 41.679297 43 40 43 L 30 43 C 28.320703 43 27 41.679297 27 40 L 27 36 C 27 34.320703 28.320703 33 30 33 L 33.427734 33 L 25.179688 25.439453 L 24.533203 25.845703 C 24.205232 26.051966 23.79439 26.050661 23.466797 25.84375 L 22.820312 25.435547 L 14.572266 33 L 18 33 C 19.679297 33 21 34.320703 21 36 L 21 40 C 21 41.679297 19.679297 43 18 43 L 8 43 C 6.3207028 43 5 41.679297 5 40 L 5 36 C 5 34.320703 6.3207028 33 8 33 L 11.609375 33 L 21.429688 24 L 11.609375 15 L 8 15 C 6.3207028 15 5 13.679297 5 12 L 5 8 C 5 6.3207028 6.3207028 5 8 5 z "
       id="path859" />
    <path
       style="fill:#96d56b;stroke:#96d56b;stroke-width:3.38325834;stroke-linecap:round;stroke-linejoin:round;stroke-miterlimit:4;stroke-dasharray:none;stroke-opacity:1"
       d="m 20.021747,31.142738 c 0,0 -4.425692,-6.050111 -2.751392,-8.933995 C 20.275812,17.032008 34.402588,2.9542723 35.927583,3.7458284 37.452581,4.537385 32.81893,22.773421 29.470333,28.541192 c -1.674298,2.883885 -9.448586,2.601546 -9.448586,2.601546 z"
       id="path857"
       inkscape:connector-curvature="0"
       sodipodi:nodetypes="cczcc" />
    <path
       style="color:#000000;font-style:normal;font-variant:normal;font-weight:normal;font-stretch:normal;font-size:medium;line-height:normal;font-family:sans-serif;font-variant-ligatures:normal;font-variant-position:normal;font-variant-caps:normal;font-variant-numeric:normal;font-variant-alternates:normal;font-feature-settings:normal;text-indent:0;text-align:start;text-decoration:none;text-decoration-line:none;text-decoration-style:solid;text-decoration-color:#000000;letter-spacing:normal;word-spacing:normal;text-transform:none;writing-mode:lr-tb;direction:ltr;text-orientation:mixed;dominant-baseline:auto;baseline-shift:baseline;text-anchor:start;white-space:normal;shape-padding:0;clip-rule:nonzero;display:inline;overflow:visible;visibility:visible;opacity:0.25;isolation:auto;mix-blend-mode:normal;color-interpolation:sRGB;color-interpolation-filters:linearRGB;solid-color:#000000;solid-opacity:1;vector-effect:none;fill:#000000;fill-opacity:1;fill-rule:nonzero;stroke:none;stroke-width:2;stroke-linecap:round;stroke-linejoin:round;stroke-miterlimit:4;stroke-dasharray:none;stroke-dashoffset:0;stroke-opacity:1;color-rendering:auto;image-rendering:auto;shape-rendering:auto;text-rendering:auto;enable-background:accumulate"
       d="M 35.691406 2 C 35.405863 2.01351 35.17119 2.093836 34.978516 2.15625 C 34.593168 2.2810779 34.280674 2.4466939 33.947266 2.6445312 C 33.280449 3.0402059 32.55387 3.5816144 31.724609 4.2558594 C 30.066089 5.6043493 28.039555 7.4778134 25.962891 9.5390625 C 21.809563 13.661561 17.552892 18.351553 15.806641 21.359375 C 15.096641 22.582308 15.108543 23.928098 15.330078 25.128906 C 15.551613 26.329714 16.003215 27.467421 16.492188 28.488281 C 17.470129 30.530001 18.65625 32.140625 18.65625 32.140625 A 1.6917983 1.6917983 0 0 0 19.960938 32.833984 C 19.960938 32.833984 22.021447 32.912324 24.34375 32.599609 C 25.504902 32.44325 26.745251 32.194689 27.90625 31.738281 C 29.067249 31.281874 30.223595 30.613559 30.933594 29.390625 C 32.82646 26.130268 34.755674 20.163601 36.164062 14.699219 C 36.868257 11.967028 37.420084 9.3949104 37.707031 7.3808594 C 37.850505 6.3738339 37.932325 5.5174183 37.916016 4.765625 C 37.907861 4.3897283 37.883074 4.041741 37.773438 3.6425781 C 37.663801 3.2434152 37.469384 2.6398429 36.707031 2.2441406 C 36.313427 2.0398382 35.97695 1.9864899 35.691406 2 z M 35.738281 2.9980469 C 35.862645 2.9921669 35.996141 3.0011169 36.246094 3.1308594 C 36.701106 3.3670353 36.710735 3.5519229 36.808594 3.9082031 C 36.889114 4.2013508 36.908524 4.4417624 36.916016 4.7871094 C 36.930396 5.4499351 36.856596 6.2590292 36.716797 7.2402344 C 36.438332 9.1947481 35.893162 11.741646 35.195312 14.449219 C 33.798099 19.870244 31.843373 25.831309 30.068359 28.888672 C 29.515646 29.840691 28.603081 30.389126 27.541016 30.806641 C 26.490662 31.219552 25.326519 31.459152 24.210938 31.609375 C 21.988059 31.908702 19.998047 31.833984 19.998047 31.833984 C 19.785389 31.826184 19.590289 31.722675 19.464844 31.550781 A 1.0001 1.0001 0 0 0 19.460938 31.546875 C 19.460938 31.546875 18.324899 29.999036 17.394531 28.056641 C 16.926976 27.080494 16.512443 26.020452 16.314453 24.947266 C 16.115944 23.871266 16.124255 22.804571 16.671875 21.861328 C 18.290466 19.073393 22.54132 14.344064 26.667969 10.248047 C 28.728791 8.2025216 30.739336 6.345276 32.355469 5.03125 C 33.166198 4.3720724 33.860337 3.8579719 34.457031 3.5039062 C 34.765243 3.3210198 34.99767 3.2011816 35.287109 3.1074219 C 35.492614 3.0408519 35.613814 3.0039358 35.738281 2.9980469 z "
       id="path966" />
    <path
       style="color:#000000;font-style:normal;font-variant:normal;font-weight:normal;font-stretch:normal;font-size:medium;line-height:normal;font-family:sans-serif;font-variant-ligatures:normal;font-variant-position:normal;font-variant-caps:normal;font-variant-numeric:normal;font-variant-alternates:normal;font-feature-settings:normal;text-indent:0;text-align:start;text-decoration:none;text-decoration-line:none;text-decoration-style:solid;text-decoration-color:#000000;letter-spacing:normal;word-spacing:normal;text-transform:none;writing-mode:lr-tb;direction:ltr;text-orientation:mixed;dominant-baseline:auto;baseline-shift:baseline;text-anchor:start;white-space:normal;shape-padding:0;clip-rule:nonzero;display:inline;overflow:visible;visibility:visible;opacity:1;isolation:auto;mix-blend-mode:normal;color-interpolation:sRGB;color-interpolation-filters:linearRGB;solid-color:#000000;solid-opacity:1;vector-effect:none;fill:#ffdd75;fill-opacity:1;fill-rule:nonzero;stroke:none;stroke-width:3.38325834;stroke-linecap:round;stroke-linejoin:round;stroke-miterlimit:4;stroke-dasharray:none;stroke-dashoffset:0;stroke-opacity:1;color-rendering:auto;image-rendering:auto;shape-rendering:auto;text-rendering:auto;enable-background:accumulate"
       d="m 16.748047,27.699219 a 1.6917983,1.6917983 0 0 0 -1.128906,0.46289 c 0,0 -0.928993,0.880627 -1.990235,1.988282 -1.061241,1.107654 -2.232967,2.352891 -2.9375,3.566406 -0.9105494,1.568371 -0.671577,3.207508 -0.40625,4.720703 0.265327,1.513195 0.608446,3.183997 0.509766,5.613281 a 1.6917983,1.6917983 0 0 0 2.615234,1.484375 c 2.126463,-1.390699 3.841508,-2.014762 5.345703,-2.601562 1.504196,-0.5868 3.051525,-1.20442 3.972657,-2.791016 0.716983,-1.234963 1.17651,-2.855338 1.576172,-4.3125 0.399661,-1.457162 0.667968,-2.6875 0.667968,-2.6875 a 1.6917983,1.6917983 0 0 0 -0.875,-1.861328 L 17.5625,27.888672 a 1.6917983,1.6917983 0 0 0 -0.814453,-0.189453 z"
       id="path892" />
    <rect
       style="opacity:1;vector-effect:none;fill:#ffdd75;fill-opacity:1;fill-rule:evenodd;stroke:none;stroke-width:3.38514686;stroke-linecap:round;stroke-linejoin:round;stroke-miterlimit:4;stroke-dasharray:none;stroke-opacity:1;paint-order:normal"
       id="rect855"
       width="13.745522"
       height="3.334677"
       x="26.115551"
       y="16.770418"
       ry="1.6673385"
       transform="matrix(0.88756007,0.460692,-0.50208725,0.86481697,0,0)" />
    <path
       style="opacity:0.25;vector-effect:none;fill:#000000;fill-opacity:1;fill-rule:evenodd;stroke:none;stroke-width:3;stroke-linecap:round;stroke-linejoin:round;stroke-miterlimit:4;stroke-dasharray:none;stroke-opacity:1;paint-order:normal"
       d="M 17 34 C 15.892 34 15 34.892 15 36 C 15 36.582026 15.250249 37.100005 15.644531 37.464844 L 11.375 45.394531 A 1.6917983 1.6917983 0 0 0 12.291016 45.798828 L 16.523438 37.9375 C 16.676722 37.974881 16.834885 38 17 38 C 18.108 38 19 37.108 19 36 C 19 34.892 18.108 34 17 34 z "
       id="rect862" />
    <path
       style="color:#000000;font-style:normal;font-variant:normal;font-weight:normal;font-stretch:normal;font-size:medium;line-height:normal;font-family:sans-serif;font-variant-ligatures:normal;font-variant-position:normal;font-variant-caps:normal;font-variant-numeric:normal;font-variant-alternates:normal;font-feature-settings:normal;text-indent:0;text-align:start;text-decoration:none;text-decoration-line:none;text-decoration-style:solid;text-decoration-color:#000000;letter-spacing:normal;word-spacing:normal;text-transform:none;writing-mode:lr-tb;direction:ltr;text-orientation:mixed;dominant-baseline:auto;baseline-shift:baseline;text-anchor:start;white-space:normal;shape-padding:0;clip-rule:nonzero;display:inline;overflow:visible;visibility:visible;opacity:0.25;isolation:auto;mix-blend-mode:normal;color-interpolation:sRGB;color-interpolation-filters:linearRGB;solid-color:#000000;solid-opacity:1;vector-effect:none;fill:#000000;fill-opacity:1;fill-rule:nonzero;stroke:none;stroke-width:2;stroke-linecap:round;stroke-linejoin:round;stroke-miterlimit:4;stroke-dasharray:none;stroke-dashoffset:0;stroke-opacity:1;color-rendering:auto;image-rendering:auto;shape-rendering:auto;text-rendering:auto;enable-background:accumulate"
       d="M 15.595703 27.115234 C 14.937451 27.057674 14.269711 27.377435 13.921875 27.976562 C 13.581036 28.56364 13.647702 29.249775 14.03125 29.742188 C 13.885734 29.890884 13.782362 29.990224 13.628906 30.150391 C 12.567665 31.258045 11.395939 32.503282 10.691406 33.716797 C 9.7808567 35.285168 10.019829 36.924306 10.285156 38.4375 C 10.550483 39.950695 10.893602 41.621497 10.794922 44.050781 A 1.6917983 1.6917983 0 0 0 13.410156 45.535156 C 15.536619 44.144457 17.251664 43.520394 18.755859 42.933594 C 20.260055 42.346794 21.807384 41.729174 22.728516 40.142578 C 23.445499 38.907615 23.905024 37.287239 24.304688 35.830078 C 24.374488 35.575604 24.413555 35.405216 24.474609 35.169922 C 25.12393 35.216392 25.778089 34.8994 26.121094 34.308594 C 26.584875 33.509758 26.29836 32.525153 25.478516 32.099609 L 24.539062 31.611328 A 1.6917983 1.6917983 0 0 0 24.097656 31.28125 L 17.5625 27.888672 A 1.6917983 1.6917983 0 0 0 17.042969 27.720703 L 16.238281 27.302734 C 16.03332 27.196348 15.81512 27.134421 15.595703 27.115234 z M 15.507812 28.111328 C 15.598522 28.119228 15.68912 28.143653 15.777344 28.189453 L 16.582031 28.607422 A 1.0001 1.0001 0 0 0 16.892578 28.708984 C 16.966648 28.720224 17.038836 28.743094 17.105469 28.777344 L 23.636719 32.167969 A 1.0001 1.0001 0 0 0 23.636719 32.169922 C 23.703859 32.204742 23.765973 32.250132 23.818359 32.304688 A 1.0001 1.0001 0 0 0 24.078125 32.498047 L 25.017578 32.986328 C 25.362176 33.165193 25.450709 33.471023 25.255859 33.806641 C 25.11206 34.054326 24.825521 34.191817 24.546875 34.171875 A 1.0001 1.0001 0 0 0 23.505859 34.917969 C 23.441379 35.166483 23.404701 35.329952 23.339844 35.566406 C 22.94188 37.017372 22.482715 38.573684 21.863281 39.640625 C 21.129719 40.904143 19.891759 41.417109 18.392578 42.001953 C 16.904506 42.582463 15.081186 43.248717 12.863281 44.699219 L 12.863281 44.697266 C 12.343321 45.036692 11.77148 44.711546 11.794922 44.091797 L 11.794922 44.089844 C 11.897826 41.549394 11.531069 39.757208 11.269531 38.265625 C 11.00778 36.772823 10.836136 35.45978 11.556641 34.21875 C 12.168593 33.1647 13.294954 31.944617 14.351562 30.841797 C 14.492714 30.694472 14.590714 30.600183 14.746094 30.441406 A 1.0001 1.0001 0 0 0 14.820312 29.126953 C 14.678982 28.945507 14.644561 28.724042 14.787109 28.478516 C 14.933503 28.226361 15.228194 28.086877 15.507812 28.111328 z "
       id="path892-6-8" />
  </g>
</svg>
