<?xml version="1.0" encoding="UTF-8" standalone="no"?>
<!-- Created with Inkscape (http://www.inkscape.org/) -->

<svg
   xmlns:dc="http://purl.org/dc/elements/1.1/"
   xmlns:cc="http://creativecommons.org/ns#"
   xmlns:rdf="http://www.w3.org/1999/02/22-rdf-syntax-ns#"
   xmlns:svg="http://www.w3.org/2000/svg"
   xmlns="http://www.w3.org/2000/svg"
   xmlns:sodipodi="http://sodipodi.sourceforge.net/DTD/sodipodi-0.dtd"
   xmlns:inkscape="http://www.inkscape.org/namespaces/inkscape"
   width="48px"
   height="48px"
   viewBox="0 0 48 48"
   version="1.1"
   id="SVGRoot"
   inkscape:version="0.92.4 (5da689c313, 2019-01-14)"
   sodipodi:docname="bithack-apparatus.svg">
  <defs
     id="defs815" />
  <sodipodi:namedview
     id="base"
     pagecolor="#ffffff"
     bordercolor="#666666"
     borderopacity="1.0"
     inkscape:pageopacity="0.0"
     inkscape:pageshadow="2"
     inkscape:zoom="11.555837"
     inkscape:cx="23.24196"
     inkscape:cy="22.491365"
     inkscape:document-units="px"
     inkscape:current-layer="layer1"
     showgrid="true"
     inkscape:window-width="1920"
     inkscape:window-height="1017"
     inkscape:window-x="-8"
     inkscape:window-y="-8"
     inkscape:window-maximized="1"
     inkscape:grid-bbox="true"
     inkscape:snap-global="true"
     showguides="true"
     inkscape:guide-bbox="true">
    <inkscape:grid
       type="xygrid"
       id="grid1371" />
  </sodipodi:namedview>
  <metadata
     id="metadata818">
    <rdf:RDF>
      <cc:Work
         rdf:about="">
        <dc:format>image/svg+xml</dc:format>
        <dc:type
           rdf:resource="http://purl.org/dc/dcmitype/StillImage" />
        <dc:title></dc:title>
      </cc:Work>
    </rdf:RDF>
  </metadata>
  <g
     inkscape:label="Layer 1"
     inkscape:groupmode="layer"
     id="layer1">
    <rect
       style="opacity:1;vector-effect:none;fill:#ffdd75;fill-opacity:1;fill-rule:evenodd;stroke:none;stroke-width:4;stroke-linecap:round;stroke-linejoin:round;stroke-miterlimit:4;stroke-dasharray:none;stroke-dashoffset:0;stroke-opacity:1;paint-order:stroke fill markers"
       id="rect1373"
       width="40"
       height="40"
       x="4"
       y="4"
       ry="4" />
    <path
       style="fill:#4e4e4e;stroke:none;stroke-width:1px;stroke-linecap:butt;stroke-linejoin:miter;stroke-opacity:1"
       d="M 8 4 C 5.784 4 4 5.784 4 8 L 4 10 L 10 4 L 8 4 z M 14 4 L 4 14 L 4 18 L 18 4 L 14 4 z M 22 4 L 4 22 L 4 26 L 26 4 L 22 4 z M 30 4 L 4 30 L 4 34 L 34 4 L 30 4 z M 38 4 L 4 38 L 4 40 C 4 40.587494 4.1318349 41.141004 4.3574219 41.642578 L 41.642578 4.3574219 C 41.141004 4.1318349 40.587494 4 40 4 L 38 4 z M 43.642578 6.3574219 L 6.3574219 43.642578 C 6.8589963 43.868165 7.4125057 44 8 44 L 10 44 L 44 10 L 44 8 C 44 7.4125057 43.868165 6.8589963 43.642578 6.3574219 z M 44 14 L 14 44 L 18 44 L 44 18 L 44 14 z M 44 22 L 22 44 L 26 44 L 44 26 L 44 22 z M 44 30 L 30 44 L 34 44 L 44 34 L 44 30 z M 44 38 L 38 44 L 40 44 C 42.216 44 44 42.216 44 40 L 44 38 z "
       id="path839" />
    <path
       style="opacity:0.25;vector-effect:none;fill:#000000;fill-opacity:1;fill-rule:evenodd;stroke:none;stroke-width:4;stroke-linecap:round;stroke-linejoin:round;stroke-miterlimit:4;stroke-dasharray:none;stroke-dashoffset:0;stroke-opacity:1;paint-order:stroke fill markers"
       d="M 8 4 C 5.784 4 4 5.784 4 8 L 4 40 C 4 42.216 5.784 44 8 44 L 40 44 C 42.216 44 44 42.216 44 40 L 44 8 C 44 5.784 42.216 4 40 4 L 8 4 z M 8 5 L 40 5 C 41.662 5 43 6.338 43 8 L 43 40 C 43 41.662 41.662 43 40 43 L 8 43 C 6.338 43 5 41.662 5 40 L 5 8 C 5 6.338 6.338 5 8 5 z "
       id="rect826" />
    <rect
       style="opacity:1;vector-effect:none;fill:#4e4e4e;fill-opacity:1;fill-rule:evenodd;stroke:none;stroke-width:2;stroke-linecap:round;stroke-linejoin:round;stroke-miterlimit:4;stroke-dasharray:none;stroke-opacity:1;paint-order:normal"
       id="rect818"
       width="32"
       height="32"
       x="8"
       y="8"
       ry="1" />
    <path
       style="opacity:0.25;vector-effect:none;fill:#000000;fill-opacity:1;fill-rule:evenodd;stroke:none;stroke-width:2;stroke-linecap:round;stroke-linejoin:round;stroke-miterlimit:4;stroke-dasharray:none;stroke-opacity:1;paint-order:normal"
       d="M 9 8 C 8.446 8 8 8.446 8 9 L 8 39 C 8 39.554 8.446 40 9 40 L 39 40 C 39.554 40 40 39.554 40 39 L 40 9 C 40 8.446 39.554 8 39 8 L 9 8 z M 9.5 9 L 38.5 9 C 38.777 9 39 9.223 39 9.5 L 39 38.5 C 39 38.777 38.777 39 38.5 39 L 9.5 39 C 9.223 39 9 38.777 9 38.5 L 9 9.5 C 9 9.223 9.223 9 9.5 9 z "
       id="rect1009" />
    <path
       style="fill:#ffffff;stroke:none;stroke-width:1px;stroke-linecap:butt;stroke-linejoin:miter;stroke-opacity:1"
       d="m 10,10 v 27 1 h 1 27 c 0,0 0,-12 -4,-15 L 26,34 H 14 V 22 L 25,14 C 22,10 10,10 10,10 Z"
       id="path826"
       inkscape:connector-curvature="0"
       sodipodi:nodetypes="ccccccccccc" />
    <rect
       style="opacity:1;vector-effect:none;fill:#71b9e3;fill-opacity:1;fill-rule:evenodd;stroke:none;stroke-width:2.5;stroke-linecap:round;stroke-linejoin:round;stroke-miterlimit:4;stroke-dasharray:none;stroke-opacity:1;paint-order:normal"
       id="rect847"
       width="10"
       height="10"
       x="16"
       y="22"
       ry="5" />
    <rect
       style="opacity:1;vector-effect:none;fill:#627ad4;fill-opacity:1;fill-rule:evenodd;stroke:none;stroke-width:2;stroke-linecap:round;stroke-linejoin:round;stroke-miterlimit:4;stroke-dasharray:none;stroke-opacity:1;paint-order:normal"
       id="rect879"
       width="6"
       height="5"
       x="18"
       y="26"
       ry="2.5"
       rx="3" />
    <rect
       style="opacity:1;vector-effect:none;fill:#ffffff;fill-opacity:1;fill-rule:evenodd;stroke:none;stroke-width:2;stroke-linecap:round;stroke-linejoin:round;stroke-miterlimit:4;stroke-dasharray:none;stroke-opacity:1;paint-order:normal"
       id="rect881"
       width="3"
       height="3"
       x="18"
       y="24"
       ry="1.5" />
  </g>
</svg>
