<?xml version="1.0" encoding="UTF-8" standalone="no"?>
<!-- Created with Inkscape (http://www.inkscape.org/) -->

<svg
   xmlns:dc="http://purl.org/dc/elements/1.1/"
   xmlns:cc="http://creativecommons.org/ns#"
   xmlns:rdf="http://www.w3.org/1999/02/22-rdf-syntax-ns#"
   xmlns:svg="http://www.w3.org/2000/svg"
   xmlns="http://www.w3.org/2000/svg"
   xmlns:sodipodi="http://sodipodi.sourceforge.net/DTD/sodipodi-0.dtd"
   xmlns:inkscape="http://www.inkscape.org/namespaces/inkscape"
   width="48px"
   height="48px"
   viewBox="0 0 48 48"
   version="1.1"
   id="SVGRoot"
   inkscape:version="0.92.4 (5da689c313, 2019-01-14)"
   sodipodi:docname="icon-pusher.svg">
  <defs
     id="defs815" />
  <sodipodi:namedview
     id="base"
     pagecolor="#ffffff"
     bordercolor="#666666"
     borderopacity="1.0"
     inkscape:pageopacity="0.0"
     inkscape:pageshadow="2"
     inkscape:zoom="13.632692"
     inkscape:cx="18.061789"
     inkscape:cy="16.645606"
     inkscape:document-units="px"
     inkscape:current-layer="layer1"
     showgrid="true"
     inkscape:window-width="1920"
     inkscape:window-height="1017"
     inkscape:window-x="-8"
     inkscape:window-y="-8"
     inkscape:window-maximized="1"
     inkscape:grid-bbox="true"
     inkscape:snap-global="true">
    <inkscape:grid
       type="xygrid"
       id="grid1371" />
  </sodipodi:namedview>
  <metadata
     id="metadata818">
    <rdf:RDF>
      <cc:Work
         rdf:about="">
        <dc:format>image/svg+xml</dc:format>
        <dc:type
           rdf:resource="http://purl.org/dc/dcmitype/StillImage" />
        <dc:title></dc:title>
      </cc:Work>
    </rdf:RDF>
  </metadata>
  <g
     inkscape:label="Layer 1"
     inkscape:groupmode="layer"
     id="layer1">
    <rect
       style="opacity:1;vector-effect:none;fill:#efefef;fill-opacity:1;fill-rule:evenodd;stroke:none;stroke-width:4;stroke-linecap:round;stroke-linejoin:round;stroke-miterlimit:4;stroke-dasharray:none;stroke-dashoffset:0;stroke-opacity:1;paint-order:stroke fill markers"
       id="rect1373"
       width="40"
       height="40"
       x="4"
       y="4"
       ry="4" />
    <path
       style="fill:#4e4e4e;stroke-width:0.09058625"
       d="m 42.892578,9.1816406 c -0.03158,0.1174734 -0.208496,0.7995375 -0.320312,1.5468754 -0.111815,0.747336 -0.25237,1.520623 -0.3125,1.716796 -0.101181,0.330114 -0.148698,0.368134 -0.646485,0.523438 -0.295822,0.09229 -1.043507,0.336213 -1.662109,0.541016 l -1.125,0.371093 -0.324219,-0.375 c -0.403354,-0.465681 -0.939239,-0.669809 -1.728515,-0.662109 -0.951066,0.0093 -1.943036,0.472993 -2.009766,0.941406 -0.02254,0.158247 -0.08282,0.201793 -0.269531,0.189453 -0.22765,-0.01505 -0.240075,0.0061 -0.234375,0.386719 0.0044,0.2882 -0.04875,0.45863 -0.183594,0.603516 -0.103558,0.111269 -0.200357,0.322651 -0.216797,0.46875 -0.02793,0.248102 -0.07391,0.275861 -0.669922,0.421875 -0.710351,0.174024 -1.619642,0.586573 -2.097656,0.951172 -0.403081,0.307446 -0.609764,0.653813 -0.835938,1.398437 -0.20229,0.665997 -0.39788,0.985928 -1.128906,1.847656 -0.273835,0.322793 -0.671184,0.904445 -0.882812,1.292969 -0.211628,0.388525 -0.633009,0.971076 -0.9375,1.294922 -0.701743,0.746349 -0.812024,0.928212 -0.957032,1.576172 -0.117269,0.524015 -0.122588,0.529714 -0.667968,0.792969 -0.302246,0.145894 -0.682127,0.384615 -0.84375,0.53125 -0.262987,0.238598 -0.912966,1.407425 -1.183594,2.126953 -0.257284,0.684035 -0.370968,2.264556 -0.195313,2.726562 0.08401,0.220955 0.0212,0.374967 -0.605468,1.478516 -1.230186,2.166341 -1.371161,2.401264 -1.677735,2.789062 -0.314182,0.397423 -1.277949,1.23601 -1.976562,1.720703 -0.604935,0.4197 -1.376135,1.25423 -1.861328,2.011719 -0.23617,0.368708 -0.703039,0.958784 -1.03711,1.3125 -1.156368,1.224379 -2.265625,2.815453 -2.265625,3.25 0,0.318507 0.437224,0.791236 0.964844,1.042969 h 5 c 0,0 0.09716,-0.04363 0.06641,-0.138672 -0.0507,-0.156679 -0.703887,-0.469048 -0.865234,-0.566406 -0.451289,-0.272309 -1.706217,-1.338106 -1.824219,-1.558594 -0.07445,-0.139101 -0.06854,-0.243212 0.02344,-0.416016 0.123277,-0.231591 1.650923,-1.408605 2.660156,-2.050781 0.298779,-0.190113 0.837315,-0.608827 1.197265,-0.929687 0.35995,-0.320859 0.970036,-0.788803 1.357422,-1.041016 0.387387,-0.252213 0.853609,-0.575731 1.035157,-0.71875 0.210769,-0.166032 0.440645,-0.261572 0.634765,-0.263672 0.446362,-0.0047 0.61941,-0.13001 1.806641,-1.310547 l 1.078125,-1.072265 0.222656,0.207031 c 0.121979,0.114593 0.247837,0.325539 0.279297,0.46875 0.03146,0.14321 0.111857,0.261719 0.179687,0.261719 0.281396,0 0.201284,0.224031 -0.396484,1.107422 -0.346287,0.51175 -0.809107,1.275728 -1.029297,1.699218 -0.566175,1.088895 -1.542546,2.644608 -2.166015,3.451172 -0.427154,0.552598 -0.552009,0.792415 -0.636719,1.222656 -0.05797,0.294436 -0.160043,0.567582 -0.226563,0.607422 -0.191301,0.114587 -0.144929,0.49795 0.07422,0.615235 0.107089,0.05731 0.544156,0.177178 0.972656,0.267578 L 25.195312,44 H 28 29 c 0.1077,-0.28066 -0.118735,-0.786905 -0.630859,-0.978516 -0.264816,-0.09908 -0.529434,-0.179415 -0.589844,-0.179687 -0.153971,-6.3e-4 -0.530588,-0.340581 -0.867188,-0.783203 -0.704621,-0.92656 -0.26828,-1.720403 2.244141,-4.083985 2.529522,-2.37967 2.655439,-2.506745 2.771484,-2.787109 0.162145,-0.391737 0.01909,-2.012849 -0.240234,-2.716797 -0.172597,-0.468539 -0.203084,-0.744703 -0.214844,-1.994141 -0.0075,-0.797159 -0.04566,-1.606553 -0.08594,-1.798828 -0.07093,-0.338642 -0.06642,-0.346843 0.142578,-0.283203 0.118667,0.03614 0.345307,0.162475 0.503906,0.28125 0.448502,0.33588 0.607486,0.285673 0.962891,-0.304687 0.332889,-0.552959 0.719197,-1.55651 0.826172,-2.144532 0.119459,-0.656642 0.60222,-1.714851 0.955078,-2.097656 0.384549,-0.417187 0.388134,-0.428676 0.582031,-1.443359 0.222727,-1.165563 0.326172,-2.087214 0.326172,-2.904297 0,-0.742319 0.0065,-0.763672 0.214844,-0.763672 0.117837,0 0.31807,-0.08155 0.445312,-0.18164 0.127243,-0.100089 0.922905,-0.524469 1.767578,-0.94336 C 40.262407,16.82678 41.83669,15.869598 43.43945,14.65625 43.682469,14.472279 44,14 44,14 V 8 c 0,0 -0.779941,-0.036676 -1.107422,1.1816406 z"
       id="path828"
       inkscape:connector-curvature="0"
       sodipodi:nodetypes="sscccccccccccsccccscscccscsccscccsccsccccccccsccsccccccccccsccccccssccsscscccs" />
    <path
       style="opacity:0.25;vector-effect:none;fill:#000000;fill-opacity:1;fill-rule:evenodd;stroke:none;stroke-width:4;stroke-linecap:round;stroke-linejoin:round;stroke-miterlimit:4;stroke-dasharray:none;stroke-dashoffset:0;stroke-opacity:1;paint-order:stroke fill markers"
       d="M 8 4 C 5.784 4 4 5.784 4 8 L 4 40 C 4 42.216 5.784 44 8 44 L 40 44 C 42.216 44 44 42.216 44 40 L 44 8 C 44 5.784 42.216 4 40 4 L 8 4 z M 8 5 L 40 5 C 41.662 5 43 6.338 43 8 L 43 40 C 43 41.662 41.662 43 40 43 L 8 43 C 6.338 43 5 41.662 5 40 L 5 8 C 5 6.338 6.338 5 8 5 z "
       id="rect826" />
  </g>
</svg>
