<?xml version="1.0" encoding="UTF-8" standalone="no"?>
<!-- Created with Inkscape (http://www.inkscape.org/) -->

<svg
   xmlns:dc="http://purl.org/dc/elements/1.1/"
   xmlns:cc="http://creativecommons.org/ns#"
   xmlns:rdf="http://www.w3.org/1999/02/22-rdf-syntax-ns#"
   xmlns:svg="http://www.w3.org/2000/svg"
   xmlns="http://www.w3.org/2000/svg"
   xmlns:sodipodi="http://sodipodi.sourceforge.net/DTD/sodipodi-0.dtd"
   xmlns:inkscape="http://www.inkscape.org/namespaces/inkscape"
   width="48px"
   height="48px"
   viewBox="0 0 48 48"
   version="1.1"
   id="SVGRoot"
   inkscape:version="0.92.4 (5da689c313, 2019-01-14)"
   sodipodi:docname="menu-button.svg">
  <defs
     id="defs815" />
  <sodipodi:namedview
     id="base"
     pagecolor="#ffffff"
     bordercolor="#666666"
     borderopacity="1.0"
     inkscape:pageopacity="0.0"
     inkscape:pageshadow="2"
     inkscape:zoom="13.632692"
     inkscape:cx="12.524223"
     inkscape:cy="23.459606"
     inkscape:document-units="px"
     inkscape:current-layer="layer1"
     showgrid="true"
     inkscape:window-width="1920"
     inkscape:window-height="1017"
     inkscape:window-x="-8"
     inkscape:window-y="-8"
     inkscape:window-maximized="1"
     inkscape:grid-bbox="true"
     inkscape:snap-global="true"
     showguides="true"
     inkscape:guide-bbox="true">
    <inkscape:grid
       type="xygrid"
       id="grid1371" />
    <sodipodi:guide
       position="24,24"
       orientation="0.70710678,0.70710678"
       id="guide841"
       inkscape:locked="false" />
    <sodipodi:guide
       position="24,24"
       orientation="-0.70710678,0.70710678"
       id="guide843"
       inkscape:locked="false" />
  </sodipodi:namedview>
  <metadata
     id="metadata818">
    <rdf:RDF>
      <cc:Work
         rdf:about="">
        <dc:format>image/svg+xml</dc:format>
        <dc:type
           rdf:resource="http://purl.org/dc/dcmitype/StillImage" />
        <dc:title></dc:title>
      </cc:Work>
    </rdf:RDF>
  </metadata>
  <g
     inkscape:label="Layer 1"
     inkscape:groupmode="layer"
     id="layer1">
    <rect
       style="opacity:1;vector-effect:none;fill:#efefef;fill-opacity:1;fill-rule:evenodd;stroke:none;stroke-width:4;stroke-linecap:round;stroke-linejoin:round;stroke-miterlimit:4;stroke-dasharray:none;stroke-dashoffset:0;stroke-opacity:1;paint-order:stroke fill markers"
       id="rect1373"
       width="40"
       height="40"
       x="4"
       y="4"
       ry="4" />
    <path
       style="opacity:0.25;vector-effect:none;fill:#000000;fill-opacity:1;fill-rule:evenodd;stroke:none;stroke-width:4;stroke-linecap:round;stroke-linejoin:round;stroke-miterlimit:4;stroke-dasharray:none;stroke-dashoffset:0;stroke-opacity:1;paint-order:stroke fill markers"
       d="M 8 4 C 5.784 4 4 5.784 4 8 L 4 40 C 4 42.216 5.784 44 8 44 L 40 44 C 42.216 44 44 42.216 44 40 L 44 8 C 44 5.784 42.216 4 40 4 L 8 4 z M 8 5 L 40 5 C 41.662 5 43 6.338 43 8 L 43 40 C 43 41.662 41.662 43 40 43 L 8 43 C 6.338 43 5 41.662 5 40 L 5 8 C 5 6.338 6.338 5 8 5 z "
       id="rect826" />
    <path
       style="fill:#729dec;stroke:none;stroke-width:1px;stroke-linecap:butt;stroke-linejoin:miter;stroke-opacity:1"
       d="M 13.908203 16 C 12.851 16 12 16.851 12 17.908203 L 12 18.091797 C 12 19.149 12.851 20 13.908203 20 L 20 20 L 19 18 L 16 16 L 13.908203 16 z M 13.908203 22 C 12.851 22 12 22.851 12 23.908203 L 12 24.091797 C 12 25.149 12.851 26 13.908203 26 L 23 26 L 24 24 L 23 22 L 13.908203 22 z M 13.908203 28 C 12.851 28 12 28.851 12 29.908203 L 12 30.091797 C 12 31.149 12.851 32 13.908203 32 L 16 32 L 19 30 L 20 28 L 13.908203 28 z "
       id="path886" />
    <path
       inkscape:connector-curvature="0"
       style="fill:#ffcd4b;stroke:none;stroke-width:1px;stroke-linecap:butt;stroke-linejoin:miter;stroke-opacity:1"
       d="M 34.091797,16 C 35.149,16 36,16.851 36,17.908203 v 0.183594 C 36,19.149 35.149,20 34.091797,20 H 28 l 1,-2 3,-2 z m 0,6 C 35.149,22 36,22.851 36,23.908203 v 0.183594 C 36,25.149 35.149,26 34.091797,26 H 25 l -1,-2 1,-2 z m 0,6 C 35.149,28 36,28.851 36,29.908203 v 0.183594 C 36,31.149 35.149,32 34.091797,32 H 32 l -3,-2 -1,-2 z"
       id="path886-6" />
    <path
       style="fill:#96d56b;stroke:none;stroke-width:1px;stroke-linecap:butt;stroke-linejoin:miter;stroke-opacity:1"
       d="M 16 16 L 20 20 L 28 20 L 32 16 L 16 16 z M 22 22 L 24 24 L 26 22 L 22 22 z "
       id="path866" />
    <path
       inkscape:connector-curvature="0"
       style="fill:#d35244;stroke:none;stroke-width:1px;stroke-linecap:butt;stroke-linejoin:miter;stroke-opacity:1"
       d="m 16,32 4,-4 h 8 l 4,4 z m 6,-6 2,-2 2,2 z"
       id="path866-1" />
  </g>
</svg>
