<?xml version="1.0" encoding="UTF-8" standalone="no"?>
<!-- Created with Inkscape (http://www.inkscape.org/) -->

<svg
   xmlns:dc="http://purl.org/dc/elements/1.1/"
   xmlns:cc="http://creativecommons.org/ns#"
   xmlns:rdf="http://www.w3.org/1999/02/22-rdf-syntax-ns#"
   xmlns:svg="http://www.w3.org/2000/svg"
   xmlns="http://www.w3.org/2000/svg"
   xmlns:sodipodi="http://sodipodi.sourceforge.net/DTD/sodipodi-0.dtd"
   xmlns:inkscape="http://www.inkscape.org/namespaces/inkscape"
   width="48px"
   height="48px"
   viewBox="0 0 48 48"
   version="1.1"
   id="SVGRoot"
   inkscape:version="0.92.4 (5da689c313, 2019-01-14)"
   sodipodi:docname="next-launcher.svg">
  <defs
     id="defs815" />
  <sodipodi:namedview
     id="base"
     pagecolor="#ffffff"
     bordercolor="#666666"
     borderopacity="1.0"
     inkscape:pageopacity="0.0"
     inkscape:pageshadow="2"
     inkscape:zoom="13.202998"
     inkscape:cx="10.822744"
     inkscape:cy="29.749481"
     inkscape:document-units="px"
     inkscape:current-layer="layer1"
     showgrid="true"
     inkscape:window-width="1920"
     inkscape:window-height="1017"
     inkscape:window-x="-8"
     inkscape:window-y="-8"
     inkscape:window-maximized="1"
     inkscape:grid-bbox="true"
     showguides="false"
     inkscape:guide-bbox="true">
    <inkscape:grid
       type="xygrid"
       id="grid1371" />
    <sodipodi:guide
       position="35,35"
       orientation="0.70710678,0.70710678"
       id="guide875"
       inkscape:locked="false" />
  </sodipodi:namedview>
  <metadata
     id="metadata818">
    <rdf:RDF>
      <cc:Work
         rdf:about="">
        <dc:format>image/svg+xml</dc:format>
        <dc:type
           rdf:resource="http://purl.org/dc/dcmitype/StillImage" />
        <dc:title></dc:title>
      </cc:Work>
    </rdf:RDF>
  </metadata>
  <g
     inkscape:label="Layer 1"
     inkscape:groupmode="layer"
     id="layer1">
    <rect
       style="opacity:1;vector-effect:none;fill:#96d56b;fill-opacity:1;fill-rule:evenodd;stroke:none;stroke-width:4;stroke-linecap:round;stroke-linejoin:round;stroke-miterlimit:4;stroke-dasharray:none;stroke-dashoffset:0;stroke-opacity:1;paint-order:stroke fill markers"
       id="rect823"
       width="18"
       height="18"
       x="-22.000565"
       y="4"
       ry="4"
       transform="scale(-1,1)" />
    <rect
       style="opacity:1;vector-effect:none;fill:#c7e45f;fill-opacity:1;fill-rule:evenodd;stroke:none;stroke-width:4;stroke-linecap:round;stroke-linejoin:round;stroke-miterlimit:4;stroke-dasharray:none;stroke-dashoffset:0;stroke-opacity:1;paint-order:stroke fill markers"
       id="rect823-3"
       width="18"
       height="18"
       x="4"
       y="26"
       ry="4" />
    <rect
       style="opacity:1;vector-effect:none;fill:#96d56b;fill-opacity:1;fill-rule:evenodd;stroke:none;stroke-width:4;stroke-linecap:round;stroke-linejoin:round;stroke-miterlimit:4;stroke-dasharray:none;stroke-dashoffset:0;stroke-opacity:1;paint-order:stroke fill markers"
       id="rect823-4"
       width="18"
       height="18"
       x="26"
       y="26"
       ry="4" />
    <path
       style="fill:#4fb47b;stroke:#4fb47b;stroke-width:8;stroke-linecap:round;stroke-linejoin:round;stroke-miterlimit:4;stroke-dasharray:none;stroke-opacity:1"
       d="M 30,8.0005654 40,18.000565 V 8.0005654 Z"
       id="path852"
       inkscape:connector-curvature="0"
       sodipodi:nodetypes="cccc" />
    <path
       style="fill:#4fb47b;stroke:none;stroke-width:1px;stroke-linecap:butt;stroke-linejoin:miter;stroke-opacity:1;fill-opacity:1"
       d="M 5.1699219 5.1699219 C 4.4469219 5.8929219 4 6.892 4 8 L 4 18 C 4 20.216 5.784 22 8 22 L 18 22 C 19.107456 22 20.107161 21.552451 20.830078 20.830078 L 5.1699219 5.1699219 z "
       id="path877" />
    <path
       style="fill:#96d56b;stroke:none;stroke-width:1px;stroke-linecap:butt;stroke-linejoin:miter;stroke-opacity:1"
       d="M 20.830078 27.169922 L 5.1699219 42.830078 C 5.8929219 43.553078 6.892 44 8 44 L 18 44 C 20.216 44 22 42.216 22 40 L 22 30 C 22 28.892 21.553078 27.892922 20.830078 27.169922 z "
       id="path877-8" />
    <path
       style="fill:#4fb47b;stroke:none;stroke-width:1px;stroke-linecap:butt;stroke-linejoin:miter;stroke-opacity:1"
       d="M 27.169922 27.169922 C 26.446922 27.892922 26 28.892 26 30 L 26 40 C 26 42.216 27.784 44 30 44 L 40 44 C 41.108 44 42.107078 43.553078 42.830078 42.830078 L 27.169922 27.169922 z "
       id="path877-3" />
    <path
       style="fill:#52735b;stroke:none;stroke-width:1px;stroke-linecap:butt;stroke-linejoin:miter;stroke-opacity:1"
       d="M 42.826172 5.1738281 L 32.171875 15.828125 L 37.171875 20.828125 A 4.0004 4.0004 0 0 0 44 18 L 44 8 A 4.0004 4.0004 0 0 0 42.826172 5.1738281 z "
       id="path877-0" />
    <path
       style="fill:#4e4e4e;stroke:none;stroke-width:1px;stroke-linecap:butt;stroke-linejoin:miter;stroke-opacity:1"
       d="M 27.173828 5.1738281 A 4.0004 4.0004 0 0 0 27.171875 10.828125 L 37.171875 20.828125 A 4.0004 4.0004 0 0 0 42.824219 20.824219 L 27.173828 5.1738281 z "
       id="path877-0-9" />
    <path
       style="color:#000000;font-style:normal;font-variant:normal;font-weight:normal;font-stretch:normal;font-size:medium;line-height:normal;font-family:sans-serif;font-variant-ligatures:normal;font-variant-position:normal;font-variant-caps:normal;font-variant-numeric:normal;font-variant-alternates:normal;font-feature-settings:normal;text-indent:0;text-align:start;text-decoration:none;text-decoration-line:none;text-decoration-style:solid;text-decoration-color:#000000;letter-spacing:normal;word-spacing:normal;text-transform:none;writing-mode:lr-tb;direction:ltr;text-orientation:mixed;dominant-baseline:auto;baseline-shift:baseline;text-anchor:start;white-space:normal;shape-padding:0;clip-rule:nonzero;display:inline;overflow:visible;visibility:visible;opacity:0.25;isolation:auto;mix-blend-mode:normal;color-interpolation:sRGB;color-interpolation-filters:linearRGB;solid-color:#000000;solid-opacity:1;vector-effect:none;fill:#000000;fill-opacity:1;fill-rule:nonzero;stroke:none;stroke-width:8;stroke-linecap:round;stroke-linejoin:round;stroke-miterlimit:4;stroke-dasharray:none;stroke-dashoffset:0;stroke-opacity:1;color-rendering:auto;image-rendering:auto;shape-rendering:auto;text-rendering:auto;enable-background:accumulate"
       d="M 30 4 A 4.0004 4.0004 0 0 0 27.171875 10.828125 L 37.171875 20.828125 A 4.0004 4.0004 0 0 0 44 18 L 44 8 A 4.0004 4.0004 0 0 0 40 4 L 30 4 z M 30 5 L 40 5 A 3.0003 3.0003 0 0 1 43 8 L 43 18 A 3.0003 3.0003 0 0 1 37.878906 20.121094 L 27.878906 10.121094 A 3.0003 3.0003 0 0 1 30 5 z "
       id="path852-6-5" />
    <path
       style="opacity:0.25;vector-effect:none;fill:#000000;fill-opacity:1;fill-rule:evenodd;stroke:none;stroke-width:8;stroke-linecap:round;stroke-linejoin:round;stroke-miterlimit:4;stroke-dasharray:none;stroke-opacity:1;paint-order:stroke fill markers"
       d="M 8 4 C 5.784 4 4 5.784 4 8 L 4 18 C 4 20.216 5.784 22 8 22 L 18 22 C 20.216 22 22 20.216 22 18 L 22 8 C 22 5.784 20.216 4 18 4 L 8 4 z M 8 5 L 18 5 C 19.662 5 21 6.338 21 8 L 21 18 C 21 19.662 19.662 21 18 21 L 8 21 C 6.338 21 5 19.662 5 18 L 5 8 C 5 6.338 6.338 5 8 5 z "
       id="rect936" />
    <path
       inkscape:connector-curvature="0"
       style="opacity:0.25;vector-effect:none;fill:#000000;fill-opacity:1;fill-rule:evenodd;stroke:none;stroke-width:8;stroke-linecap:round;stroke-linejoin:round;stroke-miterlimit:4;stroke-dasharray:none;stroke-opacity:1;paint-order:stroke fill markers"
       d="m 30,26 c -2.216,0 -4,1.784 -4,4 v 10 c 0,2.216 1.784,4 4,4 h 10 c 2.216,0 4,-1.784 4,-4 V 30 c 0,-2.216 -1.784,-4 -4,-4 z m 0,1 h 10 c 1.662,0 3,1.338 3,3 v 10 c 0,1.662 -1.338,3 -3,3 H 30 c -1.662,0 -3,-1.338 -3,-3 V 30 c 0,-1.662 1.338,-3 3,-3 z"
       id="rect936-2" />
    <path
       inkscape:connector-curvature="0"
       style="opacity:0.25;vector-effect:none;fill:#000000;fill-opacity:1;fill-rule:evenodd;stroke:none;stroke-width:8;stroke-linecap:round;stroke-linejoin:round;stroke-miterlimit:4;stroke-dasharray:none;stroke-opacity:1;paint-order:stroke fill markers"
       d="m 8,26 c -2.216,0 -4,1.784 -4,4 v 10 c 0,2.216 1.784,4 4,4 h 10 c 2.216,0 4,-1.784 4,-4 V 30 c 0,-2.216 -1.784,-4 -4,-4 z m 0,1 h 10 c 1.662,0 3,1.338 3,3 v 10 c 0,1.662 -1.338,3 -3,3 H 8 C 6.338,43 5,41.662 5,40 V 30 c 0,-1.662 1.338,-3 3,-3 z"
       id="rect936-7" />
  </g>
</svg>
