<?xml version="1.0" encoding="UTF-8" standalone="no"?>
<!-- Created with Inkscape (http://www.inkscape.org/) -->

<svg
   xmlns:dc="http://purl.org/dc/elements/1.1/"
   xmlns:cc="http://creativecommons.org/ns#"
   xmlns:rdf="http://www.w3.org/1999/02/22-rdf-syntax-ns#"
   xmlns:svg="http://www.w3.org/2000/svg"
   xmlns="http://www.w3.org/2000/svg"
   xmlns:sodipodi="http://sodipodi.sourceforge.net/DTD/sodipodi-0.dtd"
   xmlns:inkscape="http://www.inkscape.org/namespaces/inkscape"
   width="48px"
   height="48px"
   viewBox="0 0 48 48"
   version="1.1"
   id="SVGRoot"
   inkscape:version="0.92.4 (5da689c313, 2019-01-14)"
   sodipodi:docname="oddbot.svg">
  <defs
     id="defs815">
    <linearGradient
       id="linearGradient1552"
       x1="24"
       x2="24"
       y1="7"
       y2="39"
       gradientUnits="userSpaceOnUse">
      <stop
         stop-color="#92b4da"
         offset="0"
         id="stop823" />
      <stop
         stop-color="#547cb1"
         offset="1"
         id="stop825" />
    </linearGradient>
    <linearGradient
       id="linearGradient857"
       x1="24"
       x2="24"
       y1="11"
       y2="37"
       gradientTransform="translate(0,-1)"
       gradientUnits="userSpaceOnUse">
      <stop
         stop-color="#dbe1e9"
         offset="0"
         id="stop828" />
      <stop
         stop-color="#b9c4d4"
         offset="1"
         id="stop830" />
    </linearGradient>
  </defs>
  <sodipodi:namedview
     id="base"
     pagecolor="#ffffff"
     bordercolor="#666666"
     borderopacity="1.0"
     inkscape:pageopacity="0.0"
     inkscape:pageshadow="2"
     inkscape:zoom="13.632692"
     inkscape:cx="13.289325"
     inkscape:cy="23.459606"
     inkscape:document-units="px"
     inkscape:current-layer="layer1"
     showgrid="true"
     inkscape:window-width="1920"
     inkscape:window-height="1017"
     inkscape:window-x="-8"
     inkscape:window-y="-8"
     inkscape:window-maximized="1"
     inkscape:grid-bbox="true"
     inkscape:snap-global="true">
    <inkscape:grid
       type="xygrid"
       id="grid1371" />
  </sodipodi:namedview>
  <metadata
     id="metadata818">
    <rdf:RDF>
      <cc:Work
         rdf:about="">
        <dc:format>image/svg+xml</dc:format>
        <dc:type
           rdf:resource="http://purl.org/dc/dcmitype/StillImage" />
        <dc:title></dc:title>
      </cc:Work>
    </rdf:RDF>
  </metadata>
  <g
     inkscape:label="Layer 1"
     inkscape:groupmode="layer"
     id="layer1">
    <path
       style="opacity:1;vector-effect:none;fill:#efefef;fill-opacity:1;fill-rule:evenodd;stroke:none;stroke-width:4;stroke-linecap:round;stroke-linejoin:round;stroke-miterlimit:4;stroke-dasharray:none;stroke-dashoffset:0;stroke-opacity:1;paint-order:stroke fill markers"
       d="M 16 4 L 16 44 L 40 44 C 42.216 44 44 42.216 44 40 L 44 8 C 44 5.784 42.216 4 40 4 L 16 4 z "
       id="rect1373" />
    <path
       style="color:#000000;font-style:normal;font-variant:normal;font-weight:normal;font-stretch:normal;font-size:medium;line-height:normal;font-family:sans-serif;font-variant-ligatures:normal;font-variant-position:normal;font-variant-caps:normal;font-variant-numeric:normal;font-variant-alternates:normal;font-feature-settings:normal;text-indent:0;text-align:start;text-decoration:none;text-decoration-line:none;text-decoration-style:solid;text-decoration-color:#000000;letter-spacing:normal;word-spacing:normal;text-transform:none;writing-mode:lr-tb;direction:ltr;text-orientation:mixed;dominant-baseline:auto;baseline-shift:baseline;text-anchor:start;white-space:normal;shape-padding:0;clip-rule:nonzero;display:inline;overflow:visible;visibility:visible;opacity:1;isolation:auto;mix-blend-mode:normal;color-interpolation:sRGB;color-interpolation-filters:linearRGB;solid-color:#000000;solid-opacity:1;vector-effect:none;fill:#979797;fill-opacity:1;fill-rule:nonzero;stroke:none;stroke-width:4;stroke-linecap:round;stroke-linejoin:round;stroke-miterlimit:4;stroke-dasharray:none;stroke-dashoffset:0;stroke-opacity:1;color-rendering:auto;image-rendering:auto;shape-rendering:auto;text-rendering:auto;enable-background:accumulate"
       d="M 25.978516 29.980469 A 2.0002 2.0002 0 0 0 24.585938 33.414062 L 35.171875 44 L 40 44 C 40.258251 44 40.50953 43.9721 40.753906 43.925781 L 27.414062 30.585938 A 2.0002 2.0002 0 0 0 25.978516 29.980469 z "
       id="path874" />
    <path
       style="opacity:0.25;vector-effect:none;fill:#000000;fill-opacity:1;fill-rule:evenodd;stroke:none;stroke-width:0;stroke-linecap:round;stroke-linejoin:round;stroke-miterlimit:4;stroke-dasharray:none;stroke-opacity:1;paint-order:normal"
       d="M 17 4 C 14.784 4 13 5.784 13 8 L 13 40 C 13 42.216 14.784 44 17 44 L 40 44 C 42.216 44 44 42.216 44 40 L 44 8 C 44 5.784 42.216 4 40 4 L 17 4 z M 17 5 L 40 5 C 41.662 5 43 6.338 43 8 L 43 40 C 43 41.662 41.662 43 40 43 L 17 43 C 15.338 43 14 41.662 14 40 L 14 8 C 14 6.338 15.338 5 17 5 z "
       id="rect980" />
    <rect
       style="opacity:1;vector-effect:none;fill:#ffffff;fill-opacity:1;fill-rule:evenodd;stroke:none;stroke-width:2;stroke-linecap:round;stroke-linejoin:round;stroke-miterlimit:4;stroke-dasharray:none;stroke-opacity:1;paint-order:normal"
       id="rect864"
       width="24"
       height="24"
       x="4"
       y="4"
       ry="12" />
    <rect
       style="opacity:1;vector-effect:none;fill:#ffffff;fill-opacity:1;fill-rule:evenodd;stroke:none;stroke-width:2;stroke-linecap:round;stroke-linejoin:round;stroke-miterlimit:4;stroke-dasharray:none;stroke-opacity:1;paint-order:normal"
       id="rect866"
       width="24"
       height="11"
       x="4"
       y="15" />
    <rect
       style="opacity:1;vector-effect:none;fill:#9d91d9;fill-opacity:1;fill-rule:evenodd;stroke:none;stroke-width:2;stroke-linecap:round;stroke-linejoin:round;stroke-miterlimit:4;stroke-dasharray:none;stroke-opacity:1;paint-order:normal"
       id="rect868"
       width="24"
       height="20"
       x="4"
       y="24"
       ry="4" />
    <rect
       style="opacity:1;vector-effect:none;fill:#9d91d9;fill-opacity:1;fill-rule:evenodd;stroke:none;stroke-width:2.19089031;stroke-linecap:round;stroke-linejoin:round;stroke-miterlimit:4;stroke-dasharray:none;stroke-opacity:1;paint-order:normal"
       id="rect870"
       width="24"
       height="6"
       x="4"
       y="24" />
    <rect
       style="opacity:1;vector-effect:none;fill:#4e4e4e;fill-opacity:1;fill-rule:evenodd;stroke:none;stroke-width:2.25;stroke-linecap:round;stroke-linejoin:round;stroke-miterlimit:4;stroke-dasharray:none;stroke-opacity:1;paint-order:normal"
       id="rect872"
       width="12"
       height="12"
       x="10"
       y="10"
       ry="6" />
    <path
       style="opacity:0.25;vector-effect:none;fill:#000000;fill-opacity:1;fill-rule:evenodd;stroke:none;stroke-width:2;stroke-linecap:round;stroke-linejoin:round;stroke-miterlimit:4;stroke-dasharray:none;stroke-opacity:1;paint-order:normal"
       d="M 16 4 C 9.689676 4 4.556927 8.8245786 4.0507812 15 L 4 15 L 4 24 L 4 26 L 4 28 L 4 30 L 4 40 C 4 42.216 5.784 44 8 44 L 24 44 C 26.216 44 28 42.216 28 40 L 28 30 L 28 28 L 28 26 L 28 24 L 28 15 L 27.949219 15 C 27.443073 8.8245786 22.310324 4 16 4 z M 16 5 C 21.800622 5 26.488476 9.4129162 26.953125 15.082031 A 1.0001 1.0001 0 0 0 27 15.310547 L 27 24 L 27 26 L 27 28 L 27 30 L 27 40 C 27 41.679297 25.679297 43 24 43 L 8 43 C 6.3207028 43 5 41.679297 5 40 L 5 30 L 5 28 L 5 26 L 5 24 L 5 15.308594 A 1.0001 1.0001 0 0 0 5.046875 15.082031 C 5.5115233 9.4129165 10.199378 5 16 5 z "
       id="rect864-3" />
  </g>
</svg>
