<?xml version="1.0" encoding="UTF-8" standalone="no"?>
<!-- Created with Inkscape (http://www.inkscape.org/) -->

<svg
   xmlns:dc="http://purl.org/dc/elements/1.1/"
   xmlns:cc="http://creativecommons.org/ns#"
   xmlns:rdf="http://www.w3.org/1999/02/22-rdf-syntax-ns#"
   xmlns:svg="http://www.w3.org/2000/svg"
   xmlns="http://www.w3.org/2000/svg"
   xmlns:xlink="http://www.w3.org/1999/xlink"
   xmlns:sodipodi="http://sodipodi.sourceforge.net/DTD/sodipodi-0.dtd"
   xmlns:inkscape="http://www.inkscape.org/namespaces/inkscape"
   width="48px"
   height="48px"
   viewBox="0 0 48 48"
   version="1.1"
   id="SVGRoot"
   inkscape:version="0.92.4 (5da689c313, 2019-01-14)"
   sodipodi:docname="project-muse.svg">
  <defs
     id="defs815">
    <linearGradient
       inkscape:collect="always"
       id="linearGradient920">
      <stop
         style="stop-color:#d34472;stop-opacity:1;"
         offset="0"
         id="stop916" />
      <stop
         style="stop-color:#84e5f0;stop-opacity:1"
         offset="1"
         id="stop918" />
    </linearGradient>
    <style
       id="style2">.a{fill:none;stroke:#b1b5bd;stroke-linecap:round;stroke-linejoin:round;isolation:isolate;opacity:0.63;}</style>
    <linearGradient
       inkscape:collect="always"
       xlink:href="#linearGradient920"
       id="linearGradient922"
       x1="8"
       y1="16"
       x2="8"
       y2="5"
       gradientUnits="userSpaceOnUse" />
    <style
       id="style819">.cls-1{fill:none;stroke:#fff;stroke-linecap:round;stroke-linejoin:round;}</style>
  </defs>
  <sodipodi:namedview
     id="base"
     pagecolor="#ffffff"
     bordercolor="#666666"
     borderopacity="1.0"
     inkscape:pageopacity="0.0"
     inkscape:pageshadow="2"
     inkscape:zoom="11.555837"
     inkscape:cx="15.267298"
     inkscape:cy="20.00617"
     inkscape:document-units="px"
     inkscape:current-layer="layer1"
     showgrid="true"
     inkscape:window-width="1920"
     inkscape:window-height="1017"
     inkscape:window-x="-8"
     inkscape:window-y="-8"
     inkscape:window-maximized="1"
     inkscape:grid-bbox="true"
     inkscape:snap-global="true">
    <inkscape:grid
       type="xygrid"
       id="grid1371" />
  </sodipodi:namedview>
  <metadata
     id="metadata818">
    <rdf:RDF>
      <cc:Work
         rdf:about="">
        <dc:format>image/svg+xml</dc:format>
        <dc:type
           rdf:resource="http://purl.org/dc/dcmitype/StillImage" />
        <dc:title />
      </cc:Work>
    </rdf:RDF>
  </metadata>
  <g
     inkscape:label="Layer 1"
     inkscape:groupmode="layer"
     id="layer1">
    <rect
       style="opacity:1;vector-effect:none;fill:#f9699a;fill-opacity:1;fill-rule:evenodd;stroke:none;stroke-width:4;stroke-linecap:round;stroke-linejoin:round;stroke-miterlimit:4;stroke-dasharray:none;stroke-dashoffset:0;stroke-opacity:1;paint-order:stroke fill markers"
       id="rect1373"
       width="40"
       height="40"
       x="4"
       y="4"
       ry="4" />
    <path
       style="fill:#4e4e4e;stroke:none;stroke-width:1px;stroke-linecap:butt;stroke-linejoin:miter;stroke-opacity:1"
       d="m 9,44 c 0,0 -0.4272561,-7.488355 5.886249,-10.108222 1.367253,4.556524 -4.771899,9.025113 -4.771899,9.025113 0,0 3.051728,0.117425 6.016742,-1.971002 0.515648,0.698569 -1.504185,2.126607 -1.504185,2.126607 0,0 3.364053,-0.652367 4.564424,-5.861136 0.553585,-2.40217 -1.400448,-7.261585 -1.400448,-7.261585 0,0 1.484597,2.209571 5.601794,2.852765 -3.899204,-2.024831 -8.820115,-5.890746 -8.09148,-11.359193 0.273757,-2.054562 2.492193,-3.80439 2.749029,-5.861136 0.370148,-2.964151 1.089236,-6.120479 1.089236,-6.120479 0,0 2.06136,3.363617 3.371451,4.823767 1.824799,2.033813 4.180501,3.12829 6.172347,5.39432 0.413455,0.470368 0.207474,1.867265 0.207474,1.867265 0,0 0.715949,-0.876136 0.622421,-2.489686 3.303575,3.367709 5.342452,7.41719 5.342452,7.41719 0,0 -1.429455,2.416486 -4.253214,3.838266 -1.243478,0.626099 -4.04574,1.037369 -4.04574,1.037369 0,0 -0.922268,0.350599 -0.933632,1.296712 -0.01214,1.010852 1.452317,1.296712 1.452317,1.296712 0,0 2.192646,0.113658 3.630792,1.244843 0.448658,0.352896 0.985501,1.400448 0.985501,1.400448 0,0 -2.710422,2.99943 -4.564425,3.423319 -0.961893,0.219922 -2.904634,-0.570553 -2.904634,-0.570553 0,0 1.65443,1.451949 3.423318,1.607922 2.092395,0.184497 5.7574,-1.919133 5.7574,-1.919133 L 36,44 Z"
       id="path830"
       inkscape:connector-curvature="0"
       sodipodi:nodetypes="cccccsccsscsscccscscscscsccc" />
    <rect
       style="opacity:1;vector-effect:none;fill:#ffffff;fill-opacity:1;fill-rule:evenodd;stroke:none;stroke-width:2;stroke-linecap:round;stroke-linejoin:round;stroke-miterlimit:4;stroke-dasharray:none;stroke-opacity:1;paint-order:normal"
       id="rect828"
       width="4"
       height="6"
       x="18"
       y="18"
       ry="2" />
    <path
       style="fill:#ffffff;stroke:none;stroke-width:1px;stroke-linecap:butt;stroke-linejoin:miter;stroke-opacity:1"
       d="m 27.749628,22.947532 c 0,0 0.858479,-1.598513 2.334081,-1.296711 1.440859,0.294696 1.763527,1.711659 1.763527,1.711659 0,0 -0.94728,-1.066901 -1.971001,-1.192975 -0.749161,-0.09226 -2.126607,0.778027 -2.126607,0.778027 z"
       id="path832"
       inkscape:connector-curvature="0"
       sodipodi:nodetypes="cscsc" />
    <path
       style="fill:#4e4e4e;stroke:none;stroke-width:1px;stroke-linecap:butt;stroke-linejoin:miter;stroke-opacity:1"
       d="M 8 4 C 5.784 4 4 5.784 4 8 L 4 18 L 10 18 L 41.400391 4.2636719 C 40.963517 4.1006641 40.495073 4 40 4 L 8 4 z "
       id="path834" />
    <path
       style="fill:url(#linearGradient922);stroke:none;stroke-width:1px;stroke-linecap:butt;stroke-linejoin:miter;stroke-opacity:1;fill-opacity:1"
       d="M 14.949219 4 C 8.6290618 9.1173301 6 17 6 17 L 10 17 C 10 17 12.882291 9.8393072 19.828125 4 L 14.949219 4 z "
       id="path863" />
    <path
       style="opacity:0.25;vector-effect:none;fill:#000000;fill-opacity:1;fill-rule:evenodd;stroke:none;stroke-width:4;stroke-linecap:round;stroke-linejoin:round;stroke-miterlimit:4;stroke-dasharray:none;stroke-dashoffset:0;stroke-opacity:1;paint-order:stroke fill markers"
       d="M 8 4 C 5.784 4 4 5.784 4 8 L 4 40 C 4 42.216 5.784 44 8 44 L 40 44 C 42.216 44 44 42.216 44 40 L 44 8 C 44 5.784 42.216 4 40 4 L 8 4 z M 8 5 L 40 5 C 41.662 5 43 6.338 43 8 L 43 40 C 43 41.662 41.662 43 40 43 L 8 43 C 6.338 43 5 41.662 5 40 L 5 8 C 5 6.338 6.338 5 8 5 z "
       id="rect826" />
    <rect
       style="opacity:1;vector-effect:none;fill:#4e4e4e;fill-opacity:1;fill-rule:evenodd;stroke:none;stroke-width:2;stroke-linecap:round;stroke-linejoin:round;stroke-miterlimit:4;stroke-dasharray:none;stroke-opacity:1;paint-order:normal"
       id="rect854"
       width="12"
       height="14"
       x="2"
       y="16"
       ry="6" />
    <rect
       style="opacity:1;vector-effect:none;fill:#84e5f0;fill-opacity:1;fill-rule:evenodd;stroke:none;stroke-width:2;stroke-linecap:round;stroke-linejoin:round;stroke-miterlimit:4;stroke-dasharray:none;stroke-opacity:1;paint-order:normal"
       id="rect856"
       width="8"
       height="10"
       x="4"
       y="18"
       ry="4" />
    <rect
       style="opacity:1;vector-effect:none;fill:#4e4e4e;fill-opacity:1;fill-rule:evenodd;stroke:none;stroke-width:2;stroke-linecap:round;stroke-linejoin:round;stroke-miterlimit:4;stroke-dasharray:none;stroke-opacity:1;paint-order:normal"
       id="rect858"
       width="4"
       height="6"
       x="6"
       y="20"
       ry="2" />
    <path
       style="opacity:0.25;vector-effect:none;fill:#000000;fill-opacity:1;fill-rule:evenodd;stroke:none;stroke-width:2;stroke-linecap:round;stroke-linejoin:round;stroke-miterlimit:4;stroke-dasharray:none;stroke-opacity:1;paint-order:normal"
       d="M 8 16 C 4.676 16 2 18.676 2 22 L 2 24 C 2 27.324 4.676 30 8 30 C 11.324 30 14 27.324 14 24 L 14 22 C 14 18.676 11.324 16 8 16 z M 8 17 C 10.77 17 13 19.23 13 22 L 13 24 C 13 26.77 10.77 29 8 29 C 5.23 29 3 26.77 3 24 L 3 22 C 3 19.23 5.23 17 8 17 z "
       id="rect954" />
  </g>
</svg>
