<?xml version="1.0" encoding="UTF-8" standalone="no"?>
<!-- Created with Inkscape (http://www.inkscape.org/) -->

<svg
   xmlns:dc="http://purl.org/dc/elements/1.1/"
   xmlns:cc="http://creativecommons.org/ns#"
   xmlns:rdf="http://www.w3.org/1999/02/22-rdf-syntax-ns#"
   xmlns:svg="http://www.w3.org/2000/svg"
   xmlns="http://www.w3.org/2000/svg"
   xmlns:sodipodi="http://sodipodi.sourceforge.net/DTD/sodipodi-0.dtd"
   xmlns:inkscape="http://www.inkscape.org/namespaces/inkscape"
   width="48px"
   height="48px"
   viewBox="0 0 48 48"
   version="1.1"
   id="SVGRoot"
   inkscape:version="0.92.4 (5da689c313, 2019-01-14)"
   sodipodi:docname="rar.svg">
  <defs
     id="defs815">
    <linearGradient
       id="linearGradient1552"
       x1="24"
       x2="24"
       y1="7"
       y2="39"
       gradientUnits="userSpaceOnUse">
      <stop
         stop-color="#92b4da"
         offset="0"
         id="stop823" />
      <stop
         stop-color="#547cb1"
         offset="1"
         id="stop825" />
    </linearGradient>
    <linearGradient
       id="linearGradient857"
       x1="24"
       x2="24"
       y1="11"
       y2="37"
       gradientTransform="translate(0,-1)"
       gradientUnits="userSpaceOnUse">
      <stop
         stop-color="#dbe1e9"
         offset="0"
         id="stop828" />
      <stop
         stop-color="#b9c4d4"
         offset="1"
         id="stop830" />
    </linearGradient>
  </defs>
  <sodipodi:namedview
     id="base"
     pagecolor="#ffffff"
     bordercolor="#666666"
     borderopacity="1.0"
     inkscape:pageopacity="0.0"
     inkscape:pageshadow="2"
     inkscape:zoom="16.342421"
     inkscape:cx="22.188948"
     inkscape:cy="24.947005"
     inkscape:document-units="px"
     inkscape:current-layer="layer1"
     showgrid="true"
     inkscape:window-width="1920"
     inkscape:window-height="1017"
     inkscape:window-x="-8"
     inkscape:window-y="-8"
     inkscape:window-maximized="1"
     inkscape:grid-bbox="true"
     inkscape:snap-global="true">
    <inkscape:grid
       type="xygrid"
       id="grid1371" />
  </sodipodi:namedview>
  <metadata
     id="metadata818">
    <rdf:RDF>
      <cc:Work
         rdf:about="">
        <dc:format>image/svg+xml</dc:format>
        <dc:type
           rdf:resource="http://purl.org/dc/dcmitype/StillImage" />
        <dc:title />
      </cc:Work>
    </rdf:RDF>
  </metadata>
  <g
     inkscape:label="Layer 1"
     inkscape:groupmode="layer"
     id="layer1">
    <path
       style="opacity:1;vector-effect:none;fill:#e96b9f;fill-opacity:1;fill-rule:evenodd;stroke:none;stroke-width:5.29150248;stroke-linecap:round;stroke-linejoin:round;stroke-miterlimit:4;stroke-dasharray:none;stroke-opacity:1;paint-order:normal"
       d="M 8 4 C 5.784 4 4 5.784 4 8 L 4 14 L 4 16 C 4 17.108 4.892 18 6 18 L 8 18 L 40 18 L 42 18 C 43.108 18 44 17.108 44 16 L 44 14 L 44 8 C 44 5.784 42.216 4 40 4 L 8 4 z "
       id="rect818" />
    <rect
       style="opacity:1;vector-effect:none;fill:#729dec;fill-opacity:1;fill-rule:evenodd;stroke:none;stroke-width:5.46503973;stroke-linecap:round;stroke-linejoin:round;stroke-miterlimit:4;stroke-dasharray:none;stroke-opacity:1;paint-order:normal"
       id="rect820"
       width="40"
       height="14"
       x="4"
       y="18"
       ry="2" />
    <path
       style="opacity:0.25;vector-effect:none;fill:#000000;fill-opacity:1;fill-rule:evenodd;stroke:none;stroke-width:2;stroke-linecap:round;stroke-linejoin:round;stroke-miterlimit:4;stroke-dasharray:none;stroke-opacity:1;paint-order:normal"
       d="M 6 18 C 4.892 18 4 18.892 4 20 L 4 30 C 4 31.108 4.892 32 6 32 L 42 32 C 43.108 32 44 31.108 44 30 L 44 20 C 44 18.892 43.108 18 42 18 L 6 18 z M 6 19 L 42 19 C 42.554 19 43 19.446 43 20 L 43 30 C 43 30.554 42.554 31 42 31 L 6 31 C 5.446 31 5 30.554 5 30 L 5 20 C 5 19.446 5.446 19 6 19 z "
       id="rect1004" />
    <path
       style="color:#000000;font-style:normal;font-variant:normal;font-weight:normal;font-stretch:normal;font-size:medium;line-height:normal;font-family:sans-serif;font-variant-ligatures:normal;font-variant-position:normal;font-variant-caps:normal;font-variant-numeric:normal;font-variant-alternates:normal;font-feature-settings:normal;text-indent:0;text-align:start;text-decoration:none;text-decoration-line:none;text-decoration-style:solid;text-decoration-color:#000000;letter-spacing:normal;word-spacing:normal;text-transform:none;writing-mode:lr-tb;direction:ltr;text-orientation:mixed;dominant-baseline:auto;baseline-shift:baseline;text-anchor:start;white-space:normal;shape-padding:0;clip-rule:nonzero;display:inline;overflow:visible;visibility:visible;opacity:0.25;isolation:auto;mix-blend-mode:normal;color-interpolation:sRGB;color-interpolation-filters:linearRGB;solid-color:#000000;solid-opacity:1;vector-effect:none;fill:#000000;fill-opacity:1;fill-rule:evenodd;stroke:none;stroke-width:2;stroke-linecap:round;stroke-linejoin:round;stroke-miterlimit:4;stroke-dasharray:none;stroke-dashoffset:0;stroke-opacity:1;paint-order:normal;color-rendering:auto;image-rendering:auto;shape-rendering:auto;text-rendering:auto;enable-background:accumulate"
       d="M 8 4 C 5.784 4 4 5.784 4 8 L 4 14 L 4 16 C 4 17.108 4.892 18 6 18 L 8 18 L 40 18 L 42 18 C 43.108 18 44 17.108 44 16 L 44 14 L 44 8 C 44 5.784 42.216 4 40 4 L 8 4 z M 8 5 L 40 5 C 41.679297 5 43 6.3207028 43 8 L 43 14 L 43 16 C 43 16.571297 42.571297 17 42 17 L 40 17 L 8 17 L 6 17 C 5.4287028 17 5 16.571297 5 16 L 5 14 L 5 8 C 5 6.3207028 6.3207028 5 8 5 z "
       id="rect818-4" />
    <path
       style="opacity:1;vector-effect:none;fill:#96d56b;fill-opacity:1;fill-rule:evenodd;stroke:none;stroke-width:4.70678711;stroke-linecap:round;stroke-linejoin:round;stroke-miterlimit:4;stroke-dasharray:none;stroke-opacity:1;paint-order:normal"
       d="M 6 32 C 4.892 32 4 32.892 4 34 L 4 36 L 4 37 L 4 40 C 4 42.216 5.784 44 8 44 L 40 44 C 42.216 44 44 42.216 44 40 L 44 37 L 44 36 L 44 34 C 44 32.892 43.108 32 42 32 L 40 32 L 8 32 L 6 32 z "
       id="rect823" />
    <path
       style="color:#000000;font-style:normal;font-variant:normal;font-weight:normal;font-stretch:normal;font-size:medium;line-height:normal;font-family:sans-serif;font-variant-ligatures:normal;font-variant-position:normal;font-variant-caps:normal;font-variant-numeric:normal;font-variant-alternates:normal;font-feature-settings:normal;text-indent:0;text-align:start;text-decoration:none;text-decoration-line:none;text-decoration-style:solid;text-decoration-color:#000000;letter-spacing:normal;word-spacing:normal;text-transform:none;writing-mode:lr-tb;direction:ltr;text-orientation:mixed;dominant-baseline:auto;baseline-shift:baseline;text-anchor:start;white-space:normal;shape-padding:0;clip-rule:nonzero;display:inline;overflow:visible;visibility:visible;opacity:0.25;isolation:auto;mix-blend-mode:normal;color-interpolation:sRGB;color-interpolation-filters:linearRGB;solid-color:#000000;solid-opacity:1;vector-effect:none;fill:#000000;fill-opacity:1;fill-rule:evenodd;stroke:none;stroke-width:2;stroke-linecap:round;stroke-linejoin:round;stroke-miterlimit:4;stroke-dasharray:none;stroke-dashoffset:0;stroke-opacity:1;paint-order:normal;color-rendering:auto;image-rendering:auto;shape-rendering:auto;text-rendering:auto;enable-background:accumulate"
       d="M 6 32 C 4.892 32 4 32.892 4 34 L 4 36 L 4 37 L 4 40 C 4 42.216 5.784 44 8 44 L 40 44 C 42.216 44 44 42.216 44 40 L 44 37 L 44 36 L 44 34 C 44 32.892 43.108 32 42 32 L 40 32 L 8 32 L 6 32 z M 6 33 L 8 33 L 40 33 L 42 33 C 42.571297 33 43 33.428703 43 34 L 43 36 L 43 37 L 43 40 C 43 41.679297 41.679297 43 40 43 L 8 43 C 6.3207028 43 5 41.679297 5 40 L 5 37 L 5 36 L 5 34 C 5 33.428703 5.4287028 33 6 33 z "
       id="rect823-5" />
    <rect
       style="opacity:1;vector-effect:none;fill:#de9e3b;fill-opacity:1;fill-rule:evenodd;stroke:none;stroke-width:2;stroke-linecap:round;stroke-linejoin:round;stroke-miterlimit:4;stroke-dasharray:none;stroke-opacity:1;paint-order:normal"
       id="rect840"
       width="12"
       height="28"
       x="18"
       y="18"
       ry="2" />
    <path
       style="opacity:0.25;vector-effect:none;fill:#000000;fill-opacity:1;fill-rule:evenodd;stroke:none;stroke-width:2;stroke-linecap:round;stroke-linejoin:round;stroke-miterlimit:4;stroke-dasharray:none;stroke-opacity:1;paint-order:normal"
       d="M 20 2 C 18.892 2 18 2.892 18 4 L 18 44 C 18 45.108 18.892 46 20 46 L 28 46 C 29.108 46 30 45.108 30 44 L 30 4 C 30 2.892 29.108 2 28 2 L 20 2 z M 20 3 L 28 3 C 28.554 3 29 3.446 29 4 L 29 44 C 29 44.554 28.554 45 28 45 L 20 45 C 19.446 45 19 44.554 19 44 L 19 4 C 19 3.446 19.446 3 20 3 z "
       id="rect853" />
    <rect
       style="opacity:1;vector-effect:none;fill:#efefef;fill-opacity:1;fill-rule:evenodd;stroke:none;stroke-width:2;stroke-linecap:round;stroke-linejoin:round;stroke-miterlimit:4;stroke-dasharray:none;stroke-opacity:1;paint-order:normal"
       id="rect842"
       width="20"
       height="16"
       x="14"
       y="18"
       ry="2" />
    <rect
       style="opacity:1;vector-effect:none;fill:#de9e3b;fill-opacity:1;fill-rule:evenodd;stroke:none;stroke-width:2;stroke-linecap:round;stroke-linejoin:round;stroke-miterlimit:4;stroke-dasharray:none;stroke-opacity:1;paint-order:normal"
       id="rect947"
       width="12"
       height="28"
       x="18"
       y="2"
       ry="2" />
    <path
       style="opacity:0.25;vector-effect:none;fill:#000000;fill-opacity:1;fill-rule:evenodd;stroke:none;stroke-width:2;stroke-linecap:round;stroke-linejoin:round;stroke-miterlimit:4;stroke-dasharray:none;stroke-opacity:1;paint-order:normal"
       d="M 20 2 C 18.892 2 18 2.892 18 4 L 18 28 C 18 29.108 18.892 30 20 30 L 28 30 C 29.108 30 30 29.108 30 28 L 30 4 C 30 2.892 29.108 2 28 2 L 20 2 z M 20 3 L 28 3 C 28.554 3 29 3.446 29 4 L 29 28 C 29 28.554 28.554 29 28 29 L 20 29 C 19.446 29 19 28.554 19 28 L 19 4 C 19 3.446 19.446 3 20 3 z "
       id="rect952" />
    <path
       style="opacity:0.25;vector-effect:none;fill:#000000;fill-opacity:1;fill-rule:evenodd;stroke:none;stroke-width:2;stroke-linecap:round;stroke-linejoin:round;stroke-miterlimit:4;stroke-dasharray:none;stroke-opacity:1;paint-order:normal"
       d="M 16 18 C 14.892 18 14 18.892 14 20 L 14 32 C 14 33.108 14.892 34 16 34 L 32 34 C 33.108 34 34 33.108 34 32 L 34 20 C 34 18.892 33.108 18 32 18 L 30 18 L 30 19 L 32 19 C 32.554 19 33 19.446 33 20 L 33 32 C 33 32.554 32.554 33 32 33 L 16 33 C 15.446 33 15 32.554 15 32 L 15 20 C 15 19.446 15.446 19 16 19 L 18 19 L 18 18 L 16 18 z "
       id="rect848" />
    <rect
       style="opacity:1;vector-effect:none;fill:#efefef;fill-opacity:1;fill-rule:evenodd;stroke:none;stroke-width:2;stroke-linecap:round;stroke-linejoin:round;stroke-miterlimit:4;stroke-dasharray:none;stroke-opacity:1;paint-order:normal"
       id="rect846"
       width="4"
       height="7"
       x="22"
       y="24"
       ry="1" />
    <rect
       style="opacity:1;vector-effect:none;fill:#ffdd75;fill-opacity:1;fill-rule:evenodd;stroke:none;stroke-width:2;stroke-linecap:round;stroke-linejoin:round;stroke-miterlimit:4;stroke-dasharray:none;stroke-opacity:1;paint-order:normal"
       id="rect871"
       width="2"
       height="6"
       x="8"
       y="8" />
    <rect
       style="opacity:1;vector-effect:none;fill:#ffdd75;fill-opacity:1;fill-rule:evenodd;stroke:none;stroke-width:2;stroke-linecap:round;stroke-linejoin:round;stroke-miterlimit:4;stroke-dasharray:none;stroke-opacity:1;paint-order:normal"
       id="rect873"
       width="2"
       height="6"
       x="8"
       y="22" />
    <rect
       style="opacity:1;vector-effect:none;fill:#ffdd75;fill-opacity:1;fill-rule:evenodd;stroke:none;stroke-width:2;stroke-linecap:round;stroke-linejoin:round;stroke-miterlimit:4;stroke-dasharray:none;stroke-opacity:1;paint-order:normal"
       id="rect875"
       width="2"
       height="4"
       x="8"
       y="36" />
    <path
       style="opacity:0.25;vector-effect:none;fill:#000000;fill-opacity:1;fill-rule:evenodd;stroke:none;stroke-width:2;stroke-linecap:round;stroke-linejoin:round;stroke-miterlimit:4;stroke-dasharray:none;stroke-opacity:1;paint-order:normal"
       d="M 23 24 C 22.446 24 22 24.446 22 25 L 22 30 C 22 30.554 22.446 31 23 31 L 25 31 C 25.554 31 26 30.554 26 30 L 26 25 C 26 24.446 25.554 24 25 24 L 23 24 z M 23.5 25 L 24.5 25 C 24.777 25 25 25.223 25 25.5 L 25 29.5 C 25 29.777 24.777 30 24.5 30 L 23.5 30 C 23.223 30 23 29.777 23 29.5 L 23 25.5 C 23 25.223 23.223 25 23.5 25 z "
       id="rect957" />
    <rect
       style="opacity:0.25;vector-effect:none;fill:#000000;fill-opacity:1;fill-rule:evenodd;stroke:none;stroke-width:2;stroke-linecap:round;stroke-linejoin:round;stroke-miterlimit:4;stroke-dasharray:none;stroke-opacity:1;paint-order:normal"
       id="rect962"
       width="4"
       height="4"
       x="22"
       y="18"
       ry="2" />
  </g>
</svg>
