<?xml version="1.0" encoding="UTF-8" standalone="no"?>
<!-- Created with Inkscape (http://www.inkscape.org/) -->

<svg
   xmlns:dc="http://purl.org/dc/elements/1.1/"
   xmlns:cc="http://creativecommons.org/ns#"
   xmlns:rdf="http://www.w3.org/1999/02/22-rdf-syntax-ns#"
   xmlns:svg="http://www.w3.org/2000/svg"
   xmlns="http://www.w3.org/2000/svg"
   xmlns:sodipodi="http://sodipodi.sourceforge.net/DTD/sodipodi-0.dtd"
   xmlns:inkscape="http://www.inkscape.org/namespaces/inkscape"
   width="32"
   height="32"
   viewBox="0 0 32 32"
   version="1.1"
   id="SVGRoot"
   inkscape:version="0.92.4 (5da689c313, 2019-01-14)"
   sodipodi:docname="template-32.svg">
  <defs
     id="defs815" />
  <sodipodi:namedview
     id="base"
     pagecolor="#ffffff"
     bordercolor="#666666"
     borderopacity="1.0"
     inkscape:pageopacity="0.0"
     inkscape:pageshadow="2"
     inkscape:zoom="19.279538"
     inkscape:cx="16.523065"
     inkscape:cy="15.160651"
     inkscape:document-units="px"
     inkscape:current-layer="layer1"
     showgrid="true"
     inkscape:window-width="1920"
     inkscape:window-height="1017"
     inkscape:window-x="-8"
     inkscape:window-y="-8"
     inkscape:window-maximized="1"
     inkscape:grid-bbox="true"
     inkscape:snap-global="true">
    <inkscape:grid
       type="xygrid"
       id="grid1371" />
  </sodipodi:namedview>
  <metadata
     id="metadata818">
    <rdf:RDF>
      <cc:Work
         rdf:about="">
        <dc:format>image/svg+xml</dc:format>
        <dc:type
           rdf:resource="http://purl.org/dc/dcmitype/StillImage" />
        <dc:title></dc:title>
      </cc:Work>
    </rdf:RDF>
  </metadata>
  <g
     inkscape:label="Layer 1"
     inkscape:groupmode="layer"
     id="layer1"
     transform="translate(0,-16)">
    <rect
       style="opacity:1;vector-effect:none;fill:#96d56b;fill-opacity:1;fill-rule:evenodd;stroke:none;stroke-width:2.60000014;stroke-linecap:round;stroke-linejoin:round;stroke-miterlimit:4;stroke-dasharray:none;stroke-dashoffset:0;stroke-opacity:1;paint-order:stroke fill markers"
       id="rect1373"
       width="26"
       height="26"
       x="3"
       y="19"
       ry="2.6000001" />
    <path
       style="opacity:0.25;vector-effect:none;fill:#000000;fill-opacity:1;fill-rule:evenodd;stroke:none;stroke-width:2.60000014;stroke-linecap:round;stroke-linejoin:round;stroke-miterlimit:4;stroke-dasharray:none;stroke-dashoffset:0;stroke-opacity:1;paint-order:stroke fill markers"
       d="M 5.6,19 C 4.1596,19 3,20.1596 3,21.6 V 42.4 C 3,43.8404 4.1596,45 5.6,45 H 26.4 C 27.8404,45 29,43.8404 29,42.4 V 21.6 C 29,20.1596 27.8404,19 26.4,19 Z m 0,0.65 h 20.8 c 1.0803,0 1.95,0.8697 1.95,1.95 v 20.8 c 0,1.0803 -0.8697,1.95 -1.95,1.95 H 5.6 C 4.5197,44.35 3.65,43.4803 3.65,42.4 V 21.6 c 0,-1.0803 0.8697,-1.95 1.95,-1.95 z"
       id="rect826"
       inkscape:connector-curvature="0" />
    <path
       style="opacity:0.25;vector-effect:none;fill:#000000;fill-opacity:1;fill-rule:evenodd;stroke:none;stroke-width:1.30000007;stroke-linecap:round;stroke-linejoin:round;stroke-miterlimit:4;stroke-dasharray:none;stroke-opacity:1;paint-order:stroke fill markers"
       d="M 8,24 V 40 H 24 V 24 Z m 1,1 H 23 V 39 H 9 Z"
       id="rect817"
       inkscape:connector-curvature="0"
       sodipodi:nodetypes="cccccccccc" />
    <path
       style="opacity:0.25;vector-effect:none;fill:#000000;fill-opacity:1;fill-rule:evenodd;stroke:none;stroke-width:1.30000007;stroke-linecap:round;stroke-linejoin:round;stroke-miterlimit:4;stroke-dasharray:none;stroke-opacity:1;paint-order:stroke fill markers"
       d="m 16,22.9 c -5.0414,0 -9.1,4.0586 -9.1,9.1 0,5.0414 4.0586,9.1 9.1,9.1 5.0414,0 9.1,-4.0586 9.1,-9.1 0,-5.0414 -4.0586,-9.1 -9.1,-9.1 z m 0,0.65 c 4.6813,0 8.45,3.7687 8.45,8.45 0,4.6813 -3.7687,8.45 -8.45,8.45 -4.6813,0 -8.45,-3.7687 -8.45,-8.45 0,-4.6813 3.7687,-8.45 8.45,-8.45 z"
       id="rect822"
       inkscape:connector-curvature="0" />
  </g>
</svg>
