<?xml version="1.0" encoding="UTF-8" standalone="no"?>
<!-- Created with Inkscape (http://www.inkscape.org/) -->

<svg
   xmlns:dc="http://purl.org/dc/elements/1.1/"
   xmlns:cc="http://creativecommons.org/ns#"
   xmlns:rdf="http://www.w3.org/1999/02/22-rdf-syntax-ns#"
   xmlns:svg="http://www.w3.org/2000/svg"
   xmlns="http://www.w3.org/2000/svg"
   xmlns:sodipodi="http://sodipodi.sourceforge.net/DTD/sodipodi-0.dtd"
   xmlns:inkscape="http://www.inkscape.org/namespaces/inkscape"
   width="48px"
   height="48px"
   viewBox="0 0 48 48"
   version="1.1"
   id="SVGRoot"
   inkscape:version="0.92.4 (5da689c313, 2019-01-14)"
   sodipodi:docname="newgrounds.svg">
  <defs
     id="defs815">
    <style
       id="style2">.a{fill:none;stroke:#b1b5bd;stroke-linecap:round;stroke-linejoin:round;isolation:isolate;opacity:0.63;}</style>
    <style
       id="style2-6">.a{fill:none;stroke:#b1b5bd;stroke-linecap:round;stroke-linejoin:round;isolation:isolate;opacity:0.63;}</style>
  </defs>
  <sodipodi:namedview
     id="base"
     pagecolor="#ffffff"
     bordercolor="#666666"
     borderopacity="1.0"
     inkscape:pageopacity="0.0"
     inkscape:pageshadow="2"
     inkscape:zoom="16.082807"
     inkscape:cx="10.167846"
     inkscape:cy="23.41383"
     inkscape:document-units="px"
     inkscape:current-layer="layer1"
     showgrid="false"
     inkscape:window-width="1920"
     inkscape:window-height="1017"
     inkscape:window-x="-8"
     inkscape:window-y="-8"
     inkscape:window-maximized="1"
     inkscape:grid-bbox="true"
     inkscape:snap-global="true">
    <inkscape:grid
       type="xygrid"
       id="grid1371" />
  </sodipodi:namedview>
  <metadata
     id="metadata818">
    <rdf:RDF>
      <cc:Work
         rdf:about="">
        <dc:format>image/svg+xml</dc:format>
        <dc:type
           rdf:resource="http://purl.org/dc/dcmitype/StillImage" />
        <dc:title></dc:title>
      </cc:Work>
    </rdf:RDF>
  </metadata>
  <g
     inkscape:label="Layer 1"
     inkscape:groupmode="layer"
     id="layer1">
    <rect
       style="opacity:1;vector-effect:none;fill:#f6a559;fill-opacity:1;fill-rule:evenodd;stroke:none;stroke-width:4;stroke-linecap:round;stroke-linejoin:round;stroke-miterlimit:4;stroke-dasharray:none;stroke-dashoffset:0;stroke-opacity:1;paint-order:stroke fill markers"
       id="rect1373"
       width="40"
       height="40"
       x="4"
       y="4"
       ry="4" />
    <path
       inkscape:connector-curvature="0"
       style="opacity:0.35;fill:#ffffff;stroke:none;stroke-width:1px;stroke-linecap:butt;stroke-linejoin:miter;stroke-opacity:1"
       d="M 8,4 C 5.784,4 4,5.784 4,8 v 3 L 24,24 11.115234,4 Z M 24,24 29,4 H 19 Z m 0,0 20,-13 V 8 C 44,5.784 42.216,4 40,4 h -3.115234 z m 0,0 20,5 V 19 Z m 0,0 12.884766,20 H 40 c 2.216,0 4,-1.784 4,-4 v -3 z m 0,0 -5,20 h 10 z m 0,0 -20,13 v 3 c 0,2.216 1.784,4 4,4 h 3.115234 z m 0,0 -20,-5 v 10 z"
       id="path819" />
    <path
       style="fill:#4e4e4e;stroke-width:0.05394384"
       d="m 37.966797,8.9140625 c -0.385952,0.01991 -0.771181,0.078515 -1.054688,0.1699219 -0.605462,0.195211 -1.088144,0.5251978 -2.732421,1.8671876 -0.780345,0.636881 -1.774114,1.443351 -2.208985,1.792969 -0.943992,0.758931 -1.246205,1.08066 -1.472656,1.566406 l -0.169922,0.365234 -2.792969,1.96875 c -1.535787,1.082751 -2.813777,1.96875 -2.841797,1.96875 -0.02802,0 -0.180817,-0.08516 -0.33789,-0.189453 -0.33143,-0.220057 -0.01562,-0.165581 -7.236328,-1.240234 -2.313476,-0.344314 -4.209444,-0.631119 -4.214844,-0.636719 -0.0054,-0.0057 -0.123125,-0.289664 -0.259766,-0.630859 -0.136642,-0.341195 -0.352011,-0.802873 -0.478515,-1.025391 -0.217463,-0.382508 -0.258934,-0.423023 -0.767578,-0.742187 -0.295902,-0.185673 -0.641477,-0.387469 -0.767579,-0.449219 -0.126091,-0.06175 -0.228515,-0.123049 -0.228515,-0.136719 0,-0.136042 0.187929,-0.334734 0.375,-0.396484 0.121144,-0.03998 0.240105,-0.09867 0.265625,-0.13086 0.05619,-0.07086 0.22282,-0.964503 0.222656,-1.195312 -5e-5,-0.09075 -0.033,-0.208019 -0.07227,-0.261719 -0.05084,-0.06952 -0.05863,-0.16978 -0.0293,-0.347656 0.08326,-0.504766 0.06413,-0.593691 -0.144531,-0.716797 -0.104925,-0.06191 -0.22781,-0.18925 -0.27539,-0.28125 C 10.696571,10.14043 10.525403,9.9276837 10.365234,9.7597656 9.541917,8.8965989 8.0750453,8.8510503 7.1972656,9.6601562 6.896258,9.9376138 6.746539,10.170573 6.6289062,10.550781 6.5618025,10.767658 6.4929368,10.872204 6.3554688,10.964844 6.1256495,11.119722 6.0995032,11.220748 6.09375,11.923828 c -0.00521,0.644386 0.038571,0.776835 0.3144531,0.923828 0.1623287,0.08649 0.3136724,0.293747 0.2558594,0.351563 -0.010527,0.01053 -0.3813707,0.117398 -0.8222656,0.238281 -0.4409028,0.120891 -0.8631091,0.253479 -0.9394531,0.292969 -0.1071487,0.05541 -0.1930061,0.209588 -0.375,0.679687 C 4.3976759,14.745093 4.2345455,15.20356 4.1640625,15.427734 4.1176552,15.575318 4.0574085,15.916247 4,16.214844 v 2.470703 c 0.051811,0.123086 0.094861,0.253999 0.1582031,0.359375 L 4.3359375,19.341797 4,19.568359 V 40 c 0,2.216 1.784,4 4,4 h 29.085938 c 0.343397,-0.705974 0.634876,-1.591968 0.847656,-2.255859 0.520267,-1.840227 0.789062,-3.913683 0.789062,-6.09375 v -1.054688 l 0.785156,-0.552734 c 0.431583,-0.304048 0.822231,-0.612004 0.869141,-0.683594 0.169377,-0.258496 0.0038,-0.798163 -0.619141,-2.015625 -0.798863,-1.561386 -2.051438,-2.832677 -3.259765,-3.310547 -0.833241,-0.329533 -2.979666,-0.642321 -5.408203,-0.787109 -0.504375,-0.03007 -0.931179,-0.05442 -0.949219,-0.05469 -0.01803,-2.89e-4 -0.05138,-0.273642 -0.07227,-0.607422 -0.05436,-0.8695 -0.140738,-0.972513 -0.919921,-1.064453 -0.960261,-0.113305 -0.879762,-0.07445 -0.919922,-0.423828 -0.06741,-0.58632 -0.240582,-1.336507 -0.486328,-2.105469 -0.136073,-0.425786 -0.239869,-0.780009 -0.230469,-0.787109 0.0094,-0.0071 0.539848,-0.286893 1.177734,-0.623047 0.637885,-0.336156 1.894914,-1.007686 2.792969,-1.492187 l 1.632812,-0.88086 h 0.445313 c 0.245389,0 0.59075,-0.03841 0.767578,-0.08398 0.274472,-0.07073 4.814112,-1.968912 5.689453,-2.378906 0.667781,-0.312779 1.48304,-1.053151 1.839844,-1.673829 0.397087,-0.690735 0.59208,-1.705643 0.484375,-2.509765 C 42.210379,11.579372 41.809553,10.79347 41.066406,10.0625 40.486387,9.4919857 39.841563,9.147431 39.029297,8.9746094 38.739424,8.9129349 38.352749,8.894152 37.966797,8.9140625 Z"
       id="path935"
       inkscape:connector-curvature="0"
       sodipodi:nodetypes="sscscccscscccscsccccccccsccccccccccccccssccsccccccccccsccccsccccsss" />
    <path
       style="fill:#ffffff;stroke-width:0.05394384"
       d="M 38.175781 9.7617188 C 37.268249 9.7616847 36.736482 9.9377292 35.998047 10.488281 C 34.653313 11.490875 31.695723 13.999372 31.425781 14.365234 C 31.308482 14.524207 31.164513 14.822015 31.083984 15.074219 C 30.964612 15.44807 30.950438 15.567955 30.980469 15.912109 C 31.021989 16.387988 31.040391 16.430617 31.175781 16.337891 C 31.232471 16.299071 32.04006 15.745307 32.970703 15.107422 L 34.662109 13.947266 L 34.689453 13.595703 C 34.703593 13.402855 34.764897 13.135463 34.826172 13.001953 L 34.9375 12.759766 L 34.941406 12.992188 C 34.948406 13.348661 35.103419 14.024146 35.248047 14.330078 C 35.823565 15.547479 37.194152 16.375356 38.453125 16.267578 C 39.393337 16.187088 39.942652 15.9372 40.587891 15.296875 C 41.289745 14.600376 41.562529 13.884996 41.511719 12.867188 C 41.466979 11.970955 41.157618 11.314691 40.464844 10.644531 C 39.859024 10.058485 39.089746 9.7617527 38.175781 9.7617188 z M 38.351562 10.257812 C 38.5094 10.254872 38.670113 10.265953 38.832031 10.291016 C 39.258556 10.357046 39.815489 10.601671 40.011719 10.810547 L 40.134766 10.943359 L 39.861328 10.863281 C 39.710459 10.819051 39.539037 10.791261 39.480469 10.800781 C 39.3467 10.822551 36.457031 13.478891 36.457031 13.580078 C 36.457031 13.671428 36.654351 14.06594 36.78125 14.228516 L 36.875 14.347656 L 38.835938 13.210938 C 39.915382 12.585819 40.828203 12.063001 40.863281 12.048828 C 40.974559 12.003868 41.103457 12.339221 41.085938 12.628906 L 41.068359 12.896484 L 39.183594 13.787109 C 38.14691 14.276866 37.292153 14.684411 37.283203 14.693359 C 37.274203 14.702359 37.37633 14.765386 37.509766 14.832031 L 37.751953 14.953125 L 39.261719 14.507812 C 40.092409 14.263463 40.788865 14.079882 40.808594 14.099609 C 40.952918 14.243933 40.176734 15.021363 39.607422 15.302734 C 39.203517 15.502354 39.162857 15.511042 38.589844 15.521484 C 38.261893 15.527484 37.904104 15.510162 37.792969 15.482422 C 37.098456 15.309245 36.371447 14.688761 36.033203 13.980469 C 35.849654 13.59611 35.835013 13.528423 35.818359 12.972656 C 35.803399 12.4735 35.820629 12.322749 35.917969 12.033203 C 36.27743 10.966164 37.246705 10.278404 38.351562 10.257812 z M 8.7285156 10.46875 C 8.2667561 10.465493 7.9327584 10.524929 7.8554688 10.646484 C 7.7962777 10.739564 7.8048376 11.270521 7.8691406 11.501953 C 7.9203576 11.686345 7.9448804 11.705644 8.2128906 11.765625 C 8.3717942 11.801185 8.6418556 11.819008 8.8144531 11.804688 C 9.102971 11.780767 9.1439346 11.760108 9.3242188 11.550781 L 9.5214844 11.322266 L 9.8359375 11.367188 C 10.143657 11.410517 10.15056 11.415951 10.232422 11.640625 C 10.306732 11.844579 10.336114 11.869141 10.488281 11.869141 C 10.582361 11.869141 10.683605 11.838421 10.714844 11.800781 C 10.811394 11.684445 10.900639 11.047353 10.841797 10.892578 C 10.796437 10.773285 10.729519 10.742427 10.365234 10.664062 C 9.7784103 10.537825 9.1902751 10.472007 8.7285156 10.46875 z M 9.8085938 11.763672 C 9.7291104 11.753841 9.6438292 11.807939 9.5742188 11.925781 C 9.4572414 12.123808 9.3550342 12.166233 8.9003906 12.21875 C 8.6897966 12.24308 8.5489137 12.287943 8.53125 12.333984 C 8.482 12.462334 8.6252431 12.93184 8.7480469 13.046875 C 9.0461485 13.326121 9.5531179 13.411918 9.9453125 13.248047 C 10.14189 13.165907 10.303319 12.886 10.375 12.503906 C 10.40567 12.34045 10.394486 12.317837 10.236328 12.246094 C 10.115885 12.191454 10.043098 12.109381 10.001953 11.978516 C 9.9605901 11.846948 9.8880771 11.773503 9.8085938 11.763672 z M 7.03125 14.105469 L 6.734375 14.146484 C 6.5711942 14.169524 6.3843778 14.201827 6.3203125 14.216797 L 6.203125 14.242188 L 6.3085938 14.580078 C 6.4617736 15.075779 6.5691859 15.913124 6.5703125 16.609375 L 6.5722656 17.220703 L 6.3925781 17.115234 C 6.2935831 17.056834 6.141134 16.96399 6.0546875 16.908203 L 5.8964844 16.806641 L 5.9824219 16.941406 C 6.0287149 17.015586 6.1979868 17.287319 6.359375 17.546875 C 6.5207643 17.806429 6.6553855 18.019481 6.6582031 18.019531 C 6.6608831 18.019571 7.2794584 17.717718 8.0332031 17.349609 C 8.7869532 16.9815 9.5610587 16.630054 9.7539062 16.568359 C 10.163945 16.437186 10.73004 16.349163 11.175781 16.347656 C 11.454636 16.346739 11.487823 16.335243 11.455078 16.251953 C 11.434658 16.200033 11.393921 15.855238 11.363281 15.484375 C 11.332651 15.113511 11.300749 14.785759 11.292969 14.755859 C 11.285169 14.725959 11.149915 14.65438 10.992188 14.597656 C 10.71745 14.498866 10.703121 14.499317 10.648438 14.591797 C 10.443703 14.938132 10.345478 15.040118 10.105469 15.160156 C 9.8731496 15.276385 9.7678994 15.294971 9.3496094 15.289062 C 9.0027233 15.284113 8.7719038 15.248955 8.5410156 15.166016 C 8.0682641 14.996205 7.5342327 14.659232 7.265625 14.363281 L 7.03125 14.105469 z M 30.496094 15.560547 L 26.234375 18.515625 C 20.818149 22.270596 21.14634 22.030141 21.023438 22.300781 C 20.880436 22.615693 20.894388 23.306641 21.042969 23.306641 C 21.073009 23.306641 23.295714 21.968022 25.984375 20.332031 C 28.673031 18.696039 30.880873 17.351787 30.888672 17.345703 C 30.896472 17.339603 30.843593 17.203292 30.773438 17.042969 C 30.602891 16.653175 30.568977 16.505376 30.529297 15.994141 L 30.496094 15.560547 z M 11.453125 17.318359 C 11.20698 17.318906 10.996094 17.440603 10.996094 17.582031 C 10.996094 17.634371 11.094301 17.937925 11.214844 18.257812 C 11.800321 19.811481 12.34375 22.261609 12.34375 23.345703 C 12.34375 23.482998 12.372309 23.589355 12.412109 23.603516 C 12.544674 23.650666 15.284415 23.987884 15.332031 23.962891 C 15.359931 23.948241 15.367256 23.578783 15.347656 23.095703 C 15.310646 22.182599 15.17835 21.277238 14.957031 20.402344 C 14.879541 20.095998 14.82946 19.809927 14.845703 19.767578 C 14.861943 19.725228 14.990642 19.618222 15.130859 19.529297 C 15.336946 19.398606 15.443349 19.367586 15.685547 19.369141 C 15.850333 19.370141 17.430001 19.572348 19.195312 19.818359 C 21.330167 20.115871 22.43674 20.251001 22.501953 20.21875 C 22.632175 20.15435 23.882209 19.260521 23.914062 19.208984 C 23.927733 19.186834 23.884069 19.142489 23.818359 19.109375 C 23.682154 19.040765 11.785791 17.31764 11.453125 17.318359 z M 12.845703 18.126953 C 12.948442 18.122819 13.053057 18.155704 13.117188 18.226562 C 13.242473 18.365004 13.233306 18.694435 13.099609 18.828125 C 12.961771 18.965963 12.82716 18.96469 12.648438 18.824219 C 12.482875 18.693996 12.456562 18.438331 12.589844 18.248047 C 12.64278 18.172475 12.742964 18.131087 12.845703 18.126953 z M 16.402344 20.201172 C 16.387104 20.216412 16.434758 20.322202 16.509766 20.435547 C 16.748673 20.796558 16.927683 21.190922 17.009766 21.539062 C 17.167614 22.208566 17.078376 23.118798 16.791016 23.779297 C 16.710016 23.965477 16.654394 24.12507 16.666016 24.134766 C 16.677656 24.144566 17.305939 24.226953 18.0625 24.316406 C 18.819062 24.405856 19.45729 24.482368 19.480469 24.486328 C 19.503659 24.490328 19.531629 24.462881 19.542969 24.425781 C 19.841604 23.448658 20.211729 22.326346 20.337891 22.021484 C 20.498001 21.634577 20.51068 21.622677 21.035156 21.259766 C 21.567492 20.89142 21.567615 20.890287 21.392578 20.859375 C 20.814267 20.757235 16.425197 20.178319 16.402344 20.201172 z M 13.517578 20.244141 C 13.655402 20.269413 13.783261 20.391617 13.832031 20.585938 C 13.917641 20.927042 13.383415 21.206321 13.185547 20.923828 C 13.067727 20.755618 13.077286 20.542959 13.210938 20.373047 C 13.259939 20.310749 13.318171 20.270765 13.378906 20.251953 C 13.424458 20.237845 13.471637 20.235717 13.517578 20.244141 z M 13.759766 22.609375 C 13.8702 22.599306 13.976598 22.636258 14.037109 22.722656 C 14.163091 22.902511 14.14577 23.127656 13.992188 23.28125 C 13.84811 23.425328 13.781873 23.437598 13.599609 23.349609 C 13.533789 23.317819 13.451954 23.206489 13.417969 23.103516 C 13.364599 22.941796 13.371431 22.896481 13.462891 22.773438 C 13.536183 22.674845 13.649331 22.619444 13.759766 22.609375 z M 26.693359 22.638672 C 26.666239 22.611442 26.455024 22.69457 26.197266 22.833984 L 25.748047 23.076172 L 25.767578 23.744141 C 25.780028 24.215544 25.757793 24.536821 25.695312 24.835938 C 25.646622 25.068977 25.61574 25.265624 25.625 25.273438 C 25.65052 25.294978 26.960374 25.448479 27.193359 25.457031 L 27.398438 25.462891 L 27.363281 25.179688 C 27.266911 24.379334 26.849119 22.795104 26.693359 22.638672 z M 24.900391 23.574219 C 24.773235 23.602487 24.468896 23.751428 23.814453 24.095703 C 22.804173 24.627161 22.585506 24.773008 22.673828 24.861328 C 22.707168 24.894678 24.357209 25.125571 24.628906 25.134766 C 24.794027 25.140366 24.806294 25.126445 24.880859 24.857422 C 24.979119 24.502857 25.039326 23.681592 24.974609 23.583984 C 24.965094 23.569637 24.942776 23.564796 24.900391 23.574219 z M 12.25 24.439453 C 12.136689 24.438673 12.128906 24.460963 12.128906 24.783203 L 12.128906 25.128906 L 12.492188 25.160156 C 12.692453 25.177496 13.074774 25.206899 13.341797 25.224609 C 15.105745 25.341586 16.634271 25.626268 17.550781 26.007812 C 18.046163 26.214039 18.790726 26.697369 19.228516 27.097656 L 19.535156 27.378906 L 22.992188 27.736328 C 24.893642 27.932901 26.565008 28.09591 26.705078 28.099609 L 26.958984 28.107422 L 27.314453 27.679688 C 27.744095 27.160369 27.842597 27.118556 28.597656 27.144531 L 29.146484 27.162109 L 29.128906 26.839844 C 29.118466 26.661826 29.099711 26.506429 29.087891 26.494141 C 29.063971 26.469201 12.441333 24.440758 12.25 24.439453 z M 9.9785156 25.919922 C 9.484384 25.947257 9.1895586 26.070043 8.421875 26.359375 C 6.9189125 26.925824 5.4651135 27.639142 4 28.494141 L 4 28.972656 C 6.0270187 27.975615 7.8736327 27.193729 9.078125 26.863281 L 9.484375 26.751953 L 9.8535156 26.945312 C 10.689505 27.384609 11.499017 28.48512 11.861328 29.671875 L 11.96875 30.023438 L 16.027344 30.380859 C 20.71245 30.793334 20.328125 30.764074 20.328125 30.699219 C 20.328125 30.594043 20.037508 29.845202 19.857422 29.486328 C 19.259223 28.294256 18.313534 27.292313 17.376953 26.859375 C 16.69093 26.542261 15.526149 26.284025 14.259766 26.167969 C 13.933404 26.138049 12.828547 26.061359 11.806641 25.996094 C 11.269359 25.961781 10.875997 25.934427 10.564453 25.921875 C 10.330795 25.912461 10.143226 25.91081 9.9785156 25.919922 z M 29.498047 28.037109 C 29.498047 28.045009 29.673571 28.140405 29.888672 28.248047 C 31.373776 28.991258 32.261868 30.057686 32.599609 31.505859 L 32.695312 31.912109 L 35.802734 32.214844 C 37.512341 32.381535 39.016433 32.519982 39.144531 32.523438 C 39.361896 32.529337 39.375492 32.521294 39.341797 32.408203 C 39.321927 32.341453 39.17165 32.044737 39.007812 31.748047 C 38.092866 30.091202 37.04237 29.082086 35.871094 28.734375 C 35.067003 28.495668 32.839266 28.211361 30.955078 28.107422 C 30.376529 28.075512 29.812431 28.044409 29.701172 28.037109 C 29.589907 28.029909 29.498047 28.02953 29.498047 28.037109 z M 20.240234 28.337891 C 20.234734 28.343991 20.321877 28.508323 20.431641 28.701172 C 20.851704 29.439165 21.339188 30.79917 21.275391 31.054688 C 21.259651 31.117728 20.930988 31.46501 20.544922 31.828125 L 19.841797 32.488281 L 19.841797 32.833984 C 19.841797 33.023459 19.847979 33.179589 19.855469 33.181641 C 19.979457 33.215961 30.197725 34.136801 30.388672 34.130859 L 30.658203 34.121094 L 30.673828 33.609375 C 30.692368 33.004349 30.625876 32.528549 30.443359 31.953125 C 30.099232 30.86812 29.252874 29.974625 28.021484 29.398438 C 27.221374 29.024051 27.019285 28.990316 23.511719 28.646484 C 21.717925 28.470641 20.245693 28.331759 20.240234 28.337891 z M 9.6464844 30.837891 C 9.6215454 30.812131 9.408716 30.932759 9.1699219 31.105469 L 8.7382812 31.417969 L 8.9003906 31.654297 C 9.2753416 32.199269 9.5773085 33.048768 9.6992188 33.90625 C 9.7777306 34.458432 9.7653033 35.662491 9.6757812 36.251953 C 9.4662352 37.6317 8.909631 38.84572 8.0820312 39.726562 C 7.6345752 40.202801 7.2797866 40.429944 6.7539062 40.574219 C 6.1584684 40.737575 5.6371307 40.702384 5.1660156 40.46875 C 4.9749865 40.374023 4.8664429 40.31318 4.9257812 40.333984 C 5.0973004 40.394104 6.0388206 40.417437 6.2734375 40.367188 L 6.4863281 40.322266 L 6.1914062 40.154297 C 5.6671208 39.856539 5.1442843 39.243519 4.8417969 38.574219 L 4.7246094 38.316406 L 4.3183594 38.283203 C 4.2198771 38.274881 4.1164071 38.273542 4 38.267578 L 4 40 C 4 40.376358 4.0677684 40.733312 4.1640625 41.078125 C 4.7597082 41.614971 5.3483826 41.855813 6.1132812 41.859375 C 6.3802994 41.860575 6.7265007 41.826756 6.8828125 41.785156 C 7.6032514 41.593367 8.3532094 41.086103 8.8964844 40.421875 C 10.148913 38.890615 10.721972 37.179179 10.724609 34.964844 C 10.725809 33.923212 10.618304 33.185733 10.34375 32.349609 C 10.160006 31.790049 9.7880306 30.983899 9.6464844 30.837891 z M 21.285156 31.990234 C 21.40232 31.990234 21.486449 32.033657 21.564453 32.132812 C 21.712762 32.321359 21.704777 32.506155 21.542969 32.667969 C 21.381151 32.829782 21.198314 32.835815 21.009766 32.6875 C 20.718794 32.458622 20.903769 31.990234 21.285156 31.990234 z M 12.447266 32.259766 L 12.251953 32.261719 L 12.214844 33.326172 C 12.132804 35.697482 12.027283 36.769692 11.716797 38.382812 C 11.321774 40.435133 10.689819 42.292633 9.8046875 44 L 17.339844 44 C 17.369121 43.92784 17.414062 43.830156 17.414062 43.804688 C 17.414062 43.782398 16.983659 43.747012 16.457031 43.726562 C 15.930403 43.706103 15.456218 43.676939 15.404297 43.662109 C 15.267872 43.623139 15.288752 43.447337 15.472656 43.058594 L 15.632812 42.71875 L 16.753906 42.736328 L 17.873047 42.753906 L 18.052734 42.240234 C 18.197705 41.827277 18.707397 39.937552 18.708984 39.806641 C 18.709186 39.788331 18.278581 39.756858 17.751953 39.736328 C 17.225325 39.715808 16.75114 39.686965 16.699219 39.671875 C 16.586188 39.639025 16.581442 39.476623 16.679688 39.058594 L 16.75 38.761719 L 17.824219 38.761719 L 18.898438 38.761719 L 18.960938 38.330078 C 19.062421 37.637382 19.218471 35.825893 19.179688 35.787109 C 19.160168 35.767589 18.700454 35.724336 18.158203 35.691406 C 17.615948 35.658476 17.138385 35.610236 17.097656 35.583984 C 17.041746 35.547934 17.029438 35.438856 17.048828 35.136719 C 17.062938 34.916625 17.09783 34.714682 17.125 34.6875 C 17.15492 34.65758 17.566151 34.665354 18.169922 34.708984 C 18.718226 34.748584 19.186731 34.772356 19.208984 34.759766 C 19.231234 34.747196 19.248047 34.278576 19.248047 33.71875 L 19.248047 32.701172 L 18.964844 32.669922 C 18.610993 32.630732 12.711858 32.259427 12.447266 32.259766 z M 24.0625 32.263672 C 24.388534 32.2532 24.614043 32.638607 24.396484 32.949219 C 24.270663 33.12884 23.932339 33.117334 23.783203 32.927734 C 23.721713 32.849564 23.671875 32.750958 23.671875 32.708984 C 23.671875 32.585316 23.823509 32.331169 23.917969 32.294922 C 23.967592 32.27588 24.015924 32.265168 24.0625 32.263672 z M 26.939453 32.583984 C 27.052845 32.593994 27.162274 32.642351 27.228516 32.726562 C 27.290006 32.804744 27.339844 32.911553 27.339844 32.962891 C 27.339844 33.014231 27.290005 33.119091 27.228516 33.197266 C 27.090464 33.372766 26.761874 33.3958 26.621094 33.240234 C 26.500437 33.10692 26.504161 32.786692 26.628906 32.673828 C 26.707803 32.602428 26.826061 32.573975 26.939453 32.583984 z M 29.488281 32.853516 C 29.68136 32.853516 29.721907 32.87626 29.792969 33.013672 C 29.90624 33.232724 29.896717 33.370585 29.757812 33.5 C 29.605953 33.641476 29.279593 33.646028 29.15625 33.509766 C 29.035593 33.376452 29.04127 33.056228 29.166016 32.943359 C 29.224416 32.890509 29.355894 32.853516 29.488281 32.853516 z M 31.953125 33.986328 L 31.970703 34.728516 C 32.024783 36.973274 31.532328 39.96938 30.748047 42.167969 C 30.514689 42.822146 30.262629 43.425803 29.992188 44 L 33.787109 44 C 33.814831 43.930341 33.825766 43.885802 33.880859 43.773438 L 34.056641 43.416016 L 35.208984 43.435547 L 36.361328 43.453125 L 36.544922 43 C 36.72496 42.553908 37.101307 41.436318 37.205078 41.039062 L 37.257812 40.837891 L 37.085938 40.837891 C 36.618088 40.837606 35.128579 40.715265 35.085938 40.673828 C 35.056987 40.645708 35.079445 40.466064 35.140625 40.232422 L 35.244141 39.839844 L 36.357422 39.857422 C 37.622134 39.876862 37.485529 39.931488 37.585938 39.353516 C 37.673476 38.849593 37.804113 37.607446 37.804688 37.271484 L 37.804688 36.966797 L 37.494141 36.935547 C 37.323543 36.917387 36.893138 36.886477 36.537109 36.867188 C 36.181079 36.847907 35.863683 36.809663 35.830078 36.783203 C 35.752968 36.722493 35.795873 36.037261 35.882812 35.945312 C 35.929902 35.895494 36.158649 35.894723 36.876953 35.939453 C 37.389852 35.971443 37.821233 35.985413 37.835938 35.970703 C 37.864998 35.941643 37.776871 34.533257 37.744141 34.503906 C 37.720991 34.483186 32.290125 33.986165 32.087891 33.986328 L 31.953125 33.986328 z M 4 36.792969 L 4 37.763672 L 4.5195312 37.763672 L 4.4746094 37.642578 C 4.4498708 37.575826 4.3985363 37.356517 4.3613281 37.15625 L 4.2949219 36.792969 L 4 36.792969 z "
       id="path907" />
    <path
       style="opacity:0.25;vector-effect:none;fill:#000000;fill-opacity:1;fill-rule:evenodd;stroke:none;stroke-width:4;stroke-linecap:round;stroke-linejoin:round;stroke-miterlimit:4;stroke-dasharray:none;stroke-dashoffset:0;stroke-opacity:1;paint-order:stroke fill markers"
       d="M 8 4 C 5.784 4 4 5.784 4 8 L 4 40 C 4 42.216 5.784 44 8 44 L 40 44 C 42.216 44 44 42.216 44 40 L 44 8 C 44 5.784 42.216 4 40 4 L 8 4 z M 8 5 L 40 5 C 41.662 5 43 6.338 43 8 L 43 40 C 43 41.662 41.662 43 40 43 L 8 43 C 6.338 43 5 41.662 5 40 L 5 8 C 5 6.338 6.338 5 8 5 z "
       id="rect826" />
  </g>
</svg>
