<?xml version="1.0" encoding="UTF-8" standalone="no"?>
<!-- Created with Inkscape (http://www.inkscape.org/) -->

<svg
   xmlns:dc="http://purl.org/dc/elements/1.1/"
   xmlns:cc="http://creativecommons.org/ns#"
   xmlns:rdf="http://www.w3.org/1999/02/22-rdf-syntax-ns#"
   xmlns:svg="http://www.w3.org/2000/svg"
   xmlns="http://www.w3.org/2000/svg"
   xmlns:sodipodi="http://sodipodi.sourceforge.net/DTD/sodipodi-0.dtd"
   xmlns:inkscape="http://www.inkscape.org/namespaces/inkscape"
   width="48px"
   height="48px"
   viewBox="0 0 48 48"
   version="1.1"
   id="SVGRoot"
   inkscape:version="0.92.4 (5da689c313, 2019-01-14)"
   sodipodi:docname="applications-system.svg">
  <defs
     id="defs815">
    <style
       id="style2">.a{fill:none;stroke:#b1b5bd;stroke-linecap:round;stroke-linejoin:round;isolation:isolate;opacity:0.63;}</style>
  </defs>
  <sodipodi:namedview
     id="base"
     pagecolor="#ffffff"
     bordercolor="#666666"
     borderopacity="1.0"
     inkscape:pageopacity="0.0"
     inkscape:pageshadow="2"
     inkscape:zoom="16.342421"
     inkscape:cx="12.700716"
     inkscape:cy="26.294437"
     inkscape:document-units="px"
     inkscape:current-layer="layer1"
     showgrid="true"
     inkscape:window-width="1920"
     inkscape:window-height="1017"
     inkscape:window-x="-8"
     inkscape:window-y="-8"
     inkscape:window-maximized="1"
     inkscape:grid-bbox="true"
     inkscape:snap-global="true">
    <inkscape:grid
       type="xygrid"
       id="grid1371" />
  </sodipodi:namedview>
  <metadata
     id="metadata818">
    <rdf:RDF>
      <cc:Work
         rdf:about="">
        <dc:format>image/svg+xml</dc:format>
        <dc:type
           rdf:resource="http://purl.org/dc/dcmitype/StillImage" />
        <dc:title></dc:title>
      </cc:Work>
    </rdf:RDF>
  </metadata>
  <g
     inkscape:label="Layer 1"
     inkscape:groupmode="layer"
     id="layer1">
    <rect
       style="opacity:1;vector-effect:none;fill:#efefef;fill-opacity:1;fill-rule:evenodd;stroke:none;stroke-width:4;stroke-linecap:round;stroke-linejoin:round;stroke-miterlimit:4;stroke-dasharray:none;stroke-dashoffset:0;stroke-opacity:1;paint-order:stroke fill markers"
       id="rect1373"
       width="40"
       height="40"
       x="4"
       y="4"
       ry="4" />
    <path
       style="opacity:0.25;vector-effect:none;fill:#000000;fill-opacity:1;fill-rule:evenodd;stroke:none;stroke-width:4;stroke-linecap:round;stroke-linejoin:round;stroke-miterlimit:4;stroke-dasharray:none;stroke-dashoffset:0;stroke-opacity:1;paint-order:stroke fill markers"
       d="M 8 4 C 5.784 4 4 5.784 4 8 L 4 40 C 4 42.216 5.784 44 8 44 L 40 44 C 42.216 44 44 42.216 44 40 L 44 8 C 44 5.784 42.216 4 40 4 L 8 4 z M 8 5 L 40 5 C 41.662 5 43 6.338 43 8 L 43 40 C 43 41.662 41.662 43 40 43 L 8 43 C 6.338 43 5 41.662 5 40 L 5 8 C 5 6.338 6.338 5 8 5 z "
       id="rect826" />
    <path
       style="opacity:0.25;vector-effect:none;fill:#000000;fill-opacity:1;fill-rule:evenodd;stroke:none;stroke-width:2;stroke-linecap:round;stroke-linejoin:round;stroke-miterlimit:4;stroke-dasharray:none;stroke-opacity:1;paint-order:stroke fill markers"
       d="M 12 12 L 12 36 L 36 36 L 36 12 L 12 12 z M 13 13 L 35 13 L 35 35 L 13 35 L 13 13 z "
       id="rect817" />
    <path
       style="opacity:0.25;vector-effect:none;fill:#000000;fill-opacity:1;fill-rule:evenodd;stroke:none;stroke-width:2;stroke-linecap:round;stroke-linejoin:round;stroke-miterlimit:4;stroke-dasharray:none;stroke-opacity:1;paint-order:stroke fill markers"
       d="M 24 10 C 16.244 10 10 16.244 10 24 C 10 31.756 16.244 38 24 38 C 31.756 38 38 31.756 38 24 C 38 16.244 31.756 10 24 10 z M 24 11 C 31.202 11 37 16.798 37 24 C 37 31.202 31.202 37 24 37 C 16.798 37 11 31.202 11 24 C 11 16.798 16.798 11 24 11 z "
       id="rect822" />
    <rect
       style="opacity:1;vector-effect:none;fill:#4e4e4e;fill-opacity:1;fill-rule:evenodd;stroke:none;stroke-width:2;stroke-linecap:round;stroke-linejoin:round;stroke-miterlimit:4;stroke-dasharray:none;stroke-opacity:1;paint-order:normal"
       id="rect828"
       width="32"
       height="32"
       x="8"
       y="8"
       ry="1" />
    <path
       style="fill:#efefef;stroke:none;stroke-width:1px;stroke-linecap:butt;stroke-linejoin:miter;stroke-opacity:1"
       d="M 8,18 C 18.726925,17.417582 20.009275,8 20.009275,8 h 4.589284 l -0.122381,1.205258 2.202856,1.223809 -0.183571,1.162618 -2.937142,0.244762 -0.611904,1.040238 2.080475,1.835713 -0.611904,1.223809 -2.63119,-0.734285 -0.734285,0.734285 1.101428,2.508808 -1.101428,1.040238 -1.958094,-1.407381 -1.101428,0.795476 0.795476,2.937142 -1.101428,0.489523 -2.019285,-2.325237 -0.979047,0.673095 0.122381,3.059522 -1.34619,0.244762 -1.468571,-2.264046 -1.40738,0.183571 L 9.9128521,24.502869 8,24.441679 Z"
       id="path902"
       inkscape:connector-curvature="0"
       sodipodi:nodetypes="ccccccccccccccccccccccccccc" />
    <path
       style="fill:#efefef;stroke:none;stroke-width:1px;stroke-linecap:butt;stroke-linejoin:miter;stroke-opacity:1"
       d="m 31.880859,15.140625 -1.041015,0.06055 -0.917969,2.449219 H 29.066406 L 27.658203,15.630862 26.433594,15.93555 26.25,18.568362 l -0.734375,0.304688 -1.773437,-1.712891 -0.978516,0.490235 0.671875,2.447265 -0.855469,0.794922 -2.632812,-1.041016 -0.671875,0.917969 1.285156,1.775391 -0.429688,0.917969 -2.875,-0.367188 -0.427734,0.978516 1.652344,1.529297 0.06055,0.917968 -2.876954,0.246094 -0.24414,1.16211 2.203125,1.224609 v 1.222656 l -2.693359,0.550781 -0.121094,1.46875 2.753906,0.734375 v 0.734375 l -2.326172,1.039063 0.123047,1.347656 3.121094,0.121094 0.06055,1.285156 L 16.337897,40 h 7.708984 c 0,0 -1.583294,-0.884102 -2.324219,-2.585935 l 4.833985,-2.142578 c 1.529646,2.724462 4.283203,2.509766 4.283203,2.509766 L 31.083984,40 h 2.69336 l -0.244141,-2.462891 c 2.702024,-0.422582 3.792969,-3.671875 3.792969,-3.671875 L 40,35.150391 v -3.365235 l -2.367188,-0.673828 c 0,0 0.101939,-2.745837 -2.082031,-4.527344 L 37.9375,22.484375 C 39.389246,22.77661 40,24.074219 40,24.074219 v -6.302735 l -1.082031,-0.794922 -1.835938,1.957032 -0.796875,-0.488282 -0.121094,-2.630859 -0.980468,-0.429687 -1.650391,2.449218 -0.673828,-0.0625 z m 0.220703,5.357422 c 0.954279,0.02365 1.969398,0.141148 3.021485,0.394531 0,0 -2.077541,4.655205 -2.019531,4.40625 -2.980815,-0.08105 -4.710938,0.734375 -4.710938,0.734375 l -3.427734,-3.978515 c 0,-10e-7 3.001517,-1.659127 7.136718,-1.556641 z m -9.33789,4.003906 3.242187,3.367188 c -1.183456,2.06353 -0.857422,5.261718 -0.857421,5.261718 l -4.587891,2.019532 c 0,0 -1.706837,-5.542121 2.203125,-10.648438 z"
       id="path904"
       inkscape:connector-curvature="0"
       sodipodi:nodetypes="ccccccccccccccccccccccccccccccccccccccccccccccccccccccccsccccsccccc" />
    <path
       style="opacity:0.4;vector-effect:none;fill:#000000;fill-opacity:1;fill-rule:evenodd;stroke:none;stroke-width:2;stroke-linecap:round;stroke-linejoin:round;stroke-miterlimit:4;stroke-dasharray:none;stroke-opacity:1;paint-order:normal"
       d="M 9 8 C 8.446 8 8 8.446 8 9 L 8 39 C 8 39.554 8.446 40 9 40 L 39 40 C 39.554 40 40 39.554 40 39 L 40 9 C 40 8.446 39.554 8 39 8 L 9 8 z M 9.5 9 L 38.5 9 C 38.777 9 39 9.223 39 9.5 L 39 38.5 C 39 38.777 38.777 39 38.5 39 L 9.5 39 C 9.223 39 9 38.777 9 38.5 L 9 9.5 C 9 9.223 9.223 9 9.5 9 z "
       id="rect830" />
    <rect
       style="opacity:0.25;vector-effect:none;fill:#000000;fill-opacity:1;fill-rule:evenodd;stroke:none;stroke-width:2;stroke-linecap:round;stroke-linejoin:round;stroke-miterlimit:4;stroke-dasharray:none;paint-order:normal"
       id="rect914"
       width="5"
       height="5"
       x="29"
       y="29"
       ry="2.5" />
  </g>
</svg>
