<?xml version="1.0" encoding="UTF-8" standalone="no"?>
<!-- Created with Inkscape (http://www.inkscape.org/) -->

<svg
   xmlns:dc="http://purl.org/dc/elements/1.1/"
   xmlns:cc="http://creativecommons.org/ns#"
   xmlns:rdf="http://www.w3.org/1999/02/22-rdf-syntax-ns#"
   xmlns:svg="http://www.w3.org/2000/svg"
   xmlns="http://www.w3.org/2000/svg"
   xmlns:sodipodi="http://sodipodi.sourceforge.net/DTD/sodipodi-0.dtd"
   xmlns:inkscape="http://www.inkscape.org/namespaces/inkscape"
   width="48px"
   height="48px"
   viewBox="0 0 48 48"
   version="1.1"
   id="SVGRoot"
   inkscape:version="0.92.4 (5da689c313, 2019-01-14)"
   sodipodi:docname="applications-education.svg">
  <defs
     id="defs815" />
  <sodipodi:namedview
     id="base"
     pagecolor="#ffffff"
     bordercolor="#666666"
     borderopacity="1.0"
     inkscape:pageopacity="0.0"
     inkscape:pageshadow="2"
     inkscape:zoom="6.816346"
     inkscape:cx="24.855969"
     inkscape:cy="24.214599"
     inkscape:document-units="px"
     inkscape:current-layer="layer1"
     showgrid="true"
     inkscape:window-width="1920"
     inkscape:window-height="1017"
     inkscape:window-x="-8"
     inkscape:window-y="-8"
     inkscape:window-maximized="1"
     inkscape:grid-bbox="true"
     inkscape:snap-global="false">
    <inkscape:grid
       type="xygrid"
       id="grid1371" />
  </sodipodi:namedview>
  <metadata
     id="metadata818">
    <rdf:RDF>
      <cc:Work
         rdf:about="">
        <dc:format>image/svg+xml</dc:format>
        <dc:type
           rdf:resource="http://purl.org/dc/dcmitype/StillImage" />
        <dc:title></dc:title>
      </cc:Work>
    </rdf:RDF>
  </metadata>
  <g
     inkscape:label="Layer 1"
     inkscape:groupmode="layer"
     id="layer1">
    <rect
       style="opacity:1;vector-effect:none;fill:#e5a771;fill-opacity:1;fill-rule:evenodd;stroke:none;stroke-width:4;stroke-linecap:round;stroke-linejoin:round;stroke-miterlimit:4;stroke-dasharray:none;stroke-dashoffset:0;stroke-opacity:1;paint-order:stroke fill markers"
       id="rect1373"
       width="40"
       height="40"
       x="4"
       y="4"
       ry="4" />
    <path
       style="opacity:0.25;vector-effect:none;fill:#000000;fill-opacity:1;fill-rule:evenodd;stroke:none;stroke-width:4;stroke-linecap:round;stroke-linejoin:round;stroke-miterlimit:4;stroke-dasharray:none;stroke-dashoffset:0;stroke-opacity:1;paint-order:stroke fill markers"
       d="M 8 4 C 5.784 4 4 5.784 4 8 L 4 40 C 4 42.216 5.784 44 8 44 L 40 44 C 42.216 44 44 42.216 44 40 L 44 8 C 44 5.784 42.216 4 40 4 L 8 4 z M 8 5 L 40 5 C 41.662 5 43 6.338 43 8 L 43 40 C 43 41.662 41.662 43 40 43 L 8 43 C 6.338 43 5 41.662 5 40 L 5 8 C 5 6.338 6.338 5 8 5 z "
       id="rect826" />
    <path
       inkscape:connector-curvature="0"
       style="opacity:0.15;fill:#000000;stroke:none;stroke-width:1px;stroke-linecap:butt;stroke-linejoin:miter;stroke-opacity:1"
       d="M 4,40 26,39 4,38 Z M 4,32 26,31 4,30 Z M 4,25 26,24 4,23 Z M 4,18 26,17 4,16 Z M 4,10 26,9 4,8 Z m 18,33 18.992188,0.863281 c 1.042982,-0.265807 1.911544,-0.934842 2.443359,-1.83789 z m 0,-8 22,1 v -2 z m 0,-8 22,1 v -2 z m 0,-6 22,1 v -2 z m 0,-8 22,1 V 12 Z M 22,5 43.435547,5.974609 C 42.903732,5.071561 42.03517,4.402526 40.992188,4.136719 Z"
       id="path846" />
    <path
       style="opacity:0.25;vector-effect:none;fill:#000000;fill-opacity:1;fill-rule:evenodd;stroke:none;stroke-width:2;stroke-linecap:round;stroke-linejoin:round;stroke-miterlimit:4;stroke-dasharray:none;stroke-opacity:1;paint-order:stroke fill markers"
       d="M 12 12 L 12 36 L 36 36 L 36 12 L 12 12 z M 13 13 L 35 13 L 35 35 L 13 35 L 13 13 z "
       id="rect817" />
    <path
       style="opacity:0.25;vector-effect:none;fill:#000000;fill-opacity:1;fill-rule:evenodd;stroke:none;stroke-width:2;stroke-linecap:round;stroke-linejoin:round;stroke-miterlimit:4;stroke-dasharray:none;stroke-opacity:1;paint-order:stroke fill markers"
       d="M 24 10 C 16.244 10 10 16.244 10 24 C 10 31.756 16.244 38 24 38 C 31.756 38 38 31.756 38 24 C 38 16.244 31.756 10 24 10 z M 24 11 C 31.202 11 37 16.798 37 24 C 37 31.202 31.202 37 24 37 C 16.798 37 11 31.202 11 24 C 11 16.798 16.798 11 24 11 z "
       id="rect822" />
    <rect
       style="opacity:1;vector-effect:none;fill:#69945e;fill-opacity:1;fill-rule:evenodd;stroke:none;stroke-width:2;stroke-linecap:round;stroke-linejoin:round;stroke-miterlimit:4;stroke-dasharray:none;stroke-opacity:1;paint-order:normal"
       id="rect828"
       width="32"
       height="32"
       x="8"
       y="8"
       ry="1" />
    <path
       style="opacity:0.24;vector-effect:none;fill:#000000;fill-opacity:1;fill-rule:evenodd;stroke:none;stroke-width:2;stroke-linecap:round;stroke-linejoin:round;stroke-miterlimit:4;stroke-dasharray:none;stroke-opacity:1;paint-order:normal"
       d="M 9 8 C 8.446 8 8 8.446 8 9 L 8 39 C 8 39.554 8.446 40 9 40 L 39 40 C 39.554 40 40 39.554 40 39 L 40 9 C 40 8.446 39.554 8 39 8 L 9 8 z M 9.5 9 L 38.5 9 C 38.777 9 39 9.223 39 9.5 L 39 38.5 C 39 38.777 38.777 39 38.5 39 L 9.5 39 C 9.223 39 9 38.777 9 38.5 L 9 9.5 C 9 9.223 9.223 9 9.5 9 z "
       id="rect830" />
    <path
       style="fill:#ffffff;stroke:none;stroke-width:1px;stroke-linecap:butt;stroke-linejoin:miter;stroke-opacity:1;opacity:0.3"
       d="m 10.746227,25.957398 c 0.551892,-2.653447 2.684527,-4.820492 4.694597,-6.638454 0.864857,-0.7822 1.878064,-1.716566 3.044153,-1.723797 0.837142,-0.0052 2.200593,1.210326 2.200593,1.210326 0,0 1.74661,-4.577667 3.447595,-6.235012 0.759786,-0.740293 1.816282,-1.798157 2.824093,-1.467062 1.527155,0.501715 2.490172,2.761882 2.12724,4.327832 -0.62935,2.715472 -1.613768,6.67513 -1.613768,6.67513 l 2.897447,-3.410918 c 0,0 0.708433,-1.322829 2.237269,-0.513472 0.720773,0.381573 0.550148,2.383976 0.550148,2.383976 0,0 0.495676,-1.443202 1.503738,-1.393709 2.239577,0.109956 2.090563,3.630978 2.090563,3.630978 l -0.146706,6.124982 c 0,0 -0.128617,1.869677 -1.760474,1.943857 -2.356517,0.107122 -2.604035,-1.943857 -2.604035,-1.943857 l 0.03668,-3.117506 c 0,0 -0.75101,2.766083 -1.503738,3.961067 -1.0717,1.701364 -2.530682,1.650444 -2.530682,1.650444 0,0 -0.230432,3.633904 -3.630977,3.337565 -2.882037,-0.251153 -3.08083,-3.851037 -3.08083,-3.851037 0,0 -0.987221,0.652219 -1.540415,0.623502 -0.4424,-0.02297 -1.173649,-0.623502 -1.173649,-0.623502 0,0 -1.856172,1.850657 -2.824094,1.430386 -2.97762,-1.292882 -1.100296,-5.281422 -1.100296,-5.281422 0,0 -0.658601,1.12133 -1.210326,1.393708 -0.713903,0.352443 -1.751114,0.62978 -2.383975,0.146706 -0.714715,-0.545554 -0.733245,-1.760414 -0.550151,-2.640711 z"
       id="path866"
       inkscape:connector-curvature="0"
       sodipodi:nodetypes="ssscsssccscsccsccscscscscsss" />
    <path
       style="fill:#ffffff;stroke:none;stroke-width:1px;stroke-linecap:butt;stroke-linejoin:miter;stroke-opacity:1;opacity:0.8"
       d="M 35.056641 20.251953 C 34.386073 20.241233 33.611328 20.328125 33.611328 20.328125 L 33.533203 21.417969 C 33.533203 21.417969 34.479979 21.219628 34.958984 21.236328 C 35.79001 21.265302 35.783224 21.629258 35.660156 21.935547 C 35.508639 22.31264 34.839635 21.881831 34.441406 21.962891 C 33.444751 22.165761 33.429688 23.050781 33.429688 23.050781 L 33.402344 24.425781 L 36.462891 24.503906 L 36.462891 23.285156 C 36.462891 23.285156 34.045481 23.874988 34.050781 23.439453 C 34.059043 22.766101 35.141517 22.480148 35.814453 22.455078 C 36.551268 22.427631 36.446191 21.957116 36.462891 21.599609 C 36.486616 21.09159 36.261692 20.417587 35.660156 20.302734 C 35.492439 20.270712 35.280163 20.255526 35.056641 20.251953 z M 16.701172 20.353516 L 12.189453 20.457031 L 11.515625 26.527344 L 16.027344 26.681641 L 16.130859 24.917969 L 12.603516 25.126953 L 12.759766 24.244141 L 15.146484 23.933594 L 14.886719 22.533203 L 13.019531 23.050781 L 13.173828 22.117188 L 16.494141 21.962891 L 16.701172 20.353516 z M 17.947266 21.443359 L 17.894531 22.947266 L 20.228516 22.84375 L 20.384766 21.443359 L 17.947266 21.443359 z M 24.949219 21.753906 C 24.076479 21.702169 23.755859 22.583984 23.755859 22.583984 L 21.265625 22.533203 L 20.851562 26.888672 L 22.044922 27.148438 L 21.681641 25.074219 C 21.681641 25.074219 21.379686 23.763824 22.769531 23.777344 C 23.314527 23.782645 23.236328 24.763672 23.236328 24.763672 L 22.978516 27.201172 L 24.326172 27.201172 L 24.015625 24.554688 C 24.015625 24.554687 23.998607 23.545523 24.845703 23.570312 C 25.518593 23.590002 25.519531 24.710938 25.519531 24.710938 L 25.3125 26.681641 L 26.349609 26.578125 L 26.503906 23.830078 C 26.503906 23.830078 26.554244 21.849056 24.949219 21.753906 z M 29.044922 21.908203 C 28.47642 21.952283 27.317106 22.274372 27.152344 24.140625 C 26.941966 26.523563 28.658203 26.630859 28.658203 26.630859 L 32.210938 26.681641 L 32.236328 25.099609 C 32.236328 25.099609 30.259822 25.051932 29.279297 25.152344 C 28.417723 25.240575 28.088892 24.66613 28.138672 24.166016 C 28.199639 23.553564 29.031651 23.178712 29.746094 23.257812 C 30.698632 23.363274 32.521484 24.011719 32.521484 24.011719 L 32.910156 22.455078 L 29.357422 21.910156 C 29.357422 21.910156 29.234423 21.89351 29.044922 21.908203 z M 17.427734 23.933594 L 17.427734 25.384766 L 20.177734 25.28125 L 20.125 23.933594 L 17.427734 23.933594 z "
       id="path854" />
  </g>
</svg>
