<?xml version="1.0" encoding="UTF-8" standalone="no"?>
<!-- Created with Inkscape (http://www.inkscape.org/) -->

<svg
   xmlns:dc="http://purl.org/dc/elements/1.1/"
   xmlns:cc="http://creativecommons.org/ns#"
   xmlns:rdf="http://www.w3.org/1999/02/22-rdf-syntax-ns#"
   xmlns:svg="http://www.w3.org/2000/svg"
   xmlns="http://www.w3.org/2000/svg"
   xmlns:sodipodi="http://sodipodi.sourceforge.net/DTD/sodipodi-0.dtd"
   xmlns:inkscape="http://www.inkscape.org/namespaces/inkscape"
   width="48px"
   height="48px"
   viewBox="0 0 48 48"
   version="1.1"
   id="SVGRoot"
   inkscape:version="0.92.4 (5da689c313, 2019-01-14)"
   sodipodi:docname="lightwave.svg">
  <defs
     id="defs815" />
  <sodipodi:namedview
     id="base"
     pagecolor="#ffffff"
     bordercolor="#666666"
     borderopacity="1.0"
     inkscape:pageopacity="0.0"
     inkscape:pageshadow="2"
     inkscape:zoom="9.639769"
     inkscape:cx="25.048406"
     inkscape:cy="23.459606"
     inkscape:document-units="px"
     inkscape:current-layer="layer1"
     showgrid="true"
     inkscape:window-width="1920"
     inkscape:window-height="1017"
     inkscape:window-x="-8"
     inkscape:window-y="-8"
     inkscape:window-maximized="1"
     inkscape:grid-bbox="true"
     inkscape:snap-global="false">
    <inkscape:grid
       type="xygrid"
       id="grid1371" />
  </sodipodi:namedview>
  <metadata
     id="metadata818">
    <rdf:RDF>
      <cc:Work
         rdf:about="">
        <dc:format>image/svg+xml</dc:format>
        <dc:type
           rdf:resource="http://purl.org/dc/dcmitype/StillImage" />
        <dc:title></dc:title>
      </cc:Work>
    </rdf:RDF>
  </metadata>
  <g
     inkscape:label="Layer 1"
     inkscape:groupmode="layer"
     id="layer1">
    <rect
       style="opacity:1;vector-effect:none;fill:#943657;fill-opacity:1;fill-rule:evenodd;stroke:none;stroke-width:4;stroke-linecap:round;stroke-linejoin:round;stroke-miterlimit:4;stroke-dasharray:none;stroke-dashoffset:0;stroke-opacity:1;paint-order:stroke fill markers"
       id="rect1373"
       width="40"
       height="40"
       x="4"
       y="4"
       ry="4" />
    <path
       style="fill:#ffffff;stroke-width:0.26626903;opacity:0.75"
       d="M 33.736328 5.9140625 C 33.127042 5.9225203 27.566406 15.503478 27.566406 16.544922 C 27.566406 16.93939 28.366807 16.897957 29.671875 16.4375 C 30.279986 16.222953 31.69935 15.857773 32.826172 15.625 C 33.953001 15.392244 34.912764 15.163407 34.958984 15.117188 C 35.005197 15.070975 34.723173 14.089568 34.333984 12.935547 C 33.70528 11.071325 33.643542 10.563312 33.771484 8.375 C 33.850679 7.020356 33.834438 5.9127025 33.736328 5.9140625 z M 16.884766 10.4375 C 16.266855 10.4375 16.913607 21.872164 17.59375 22.972656 C 17.882491 23.439849 18.315145 23.214189 19.841797 21.800781 C 20.683938 21.021106 21.927205 20.032038 22.605469 19.603516 C 23.283727 19.174994 23.839584 18.685483 23.839844 18.513672 C 23.840105 18.341858 22.997699 17.641078 21.96875 16.957031 C 19.850298 15.548692 18.585016 14.045405 17.716797 11.90625 C 17.388828 11.098188 17.014225 10.4375 16.884766 10.4375 z M 40.460938 16.332031 C 37.365856 16.287752 34.14371 16.550756 31.695312 17.195312 C 23.505465 19.351335 17.446828 24.82313 15.005859 32.269531 C 14.265085 34.529387 14.161744 35.229786 14.054688 38.794922 C 13.975603 41.428382 14.026695 42.767936 14.248047 44 L 23.089844 44 C 21.568363 39.854364 22.155004 34.972284 24.986328 31.375 C 30.153648 24.809771 41.190945 25.479546 43.830078 32.517578 C 43.90058 32.705592 43.942589 32.896347 44 33.085938 L 44 21.4375 C 43.428924 21.934693 42.837089 22.424239 42.578125 22.595703 C 41.817981 23.099008 40.638184 23.386019 39.771484 23.277344 C 38.728535 23.146593 37.685547 22.068471 37.685547 21.121094 C 37.685547 19.468639 40.081578 18.626258 43.246094 19.166016 C 43.571899 19.221587 43.755572 19.274893 44 19.328125 L 44 16.529297 C 42.87417 16.420805 41.682168 16.349502 40.460938 16.332031 z M 4.7597656 23.835938 C 4.3778136 24.217889 8.5350785 29.95695 10.925781 32.347656 C 11.763168 33.18504 12.526557 33.869141 12.623047 33.869141 C 12.805829 33.869141 15.243221 28.06117 15.5 27.013672 C 15.641426 26.436827 15.579092 26.414503 13.818359 26.408203 C 11.355562 26.399434 10.021287 26.06311 7.2636719 24.761719 C 5.9821697 24.156946 4.8555446 23.740137 4.7597656 23.835938 z M 34.689453 29.904297 C 32.334738 29.857131 30.044415 30.826503 28.189453 32.712891 C 26.290447 34.644067 25.610623 36.450565 25.595703 39.59375 C 25.585784 41.677375 25.682108 42.207873 26.341797 43.648438 C 26.395086 43.764805 26.465704 43.882639 26.527344 44 L 40 44 C 42.216 44 44 42.216 44 40 L 44 38.199219 C 43.618879 39.395029 42.977559 40.503035 42.068359 41.427734 C 40.627516 42.893147 39.036422 43.528334 36.486328 43.65625 C 34.557026 43.753043 34.218979 43.691719 32.892578 43.009766 C 30.89047 41.980403 30.176039 40.73655 30.296875 38.494141 C 30.399944 36.581205 31.237765 35.243523 32.841797 34.431641 C 35.045224 33.316382 36.835876 33.498529 38.066406 34.960938 C 39.547657 36.721296 39.188244 38.623748 37.037109 40.421875 C 36.36837 40.980872 35.822266 41.533012 35.822266 41.648438 C 35.822266 42.03024 37.533909 41.854339 38.619141 41.361328 C 40.538009 40.489607 41.943359 38.335949 41.943359 36.265625 C 41.943359 33.801634 39.764735 31.142916 37.052734 30.294922 C 36.267329 30.049339 35.474358 29.920019 34.689453 29.904297 z M 12.019531 37.865234 C 11.85753 37.865861 11.184408 38.231146 10.525391 38.677734 C 8.4819086 40.06252 6.2266696 41.031253 4.265625 41.408203 C 4.834259 42.922872 6.2819027 44 8 44 L 12.839844 44 L 12.832031 43.921875 C 12.74166 43.006575 12.587604 41.268745 12.490234 40.060547 C 12.383695 38.73845 12.196803 37.864433 12.019531 37.865234 z "
       id="path839" />
    <path
       style="opacity:0.4;vector-effect:none;fill:#000000;fill-opacity:1;fill-rule:evenodd;stroke:none;stroke-width:4;stroke-linecap:round;stroke-linejoin:round;stroke-miterlimit:4;stroke-dasharray:none;stroke-dashoffset:0;stroke-opacity:1;paint-order:stroke fill markers"
       d="M 8 4 C 5.784 4 4 5.784 4 8 L 4 40 C 4 42.216 5.784 44 8 44 L 40 44 C 42.216 44 44 42.216 44 40 L 44 8 C 44 5.784 42.216 4 40 4 L 8 4 z M 8 5 L 40 5 C 41.662 5 43 6.338 43 8 L 43 40 C 43 41.662 41.662 43 40 43 L 8 43 C 6.338 43 5 41.662 5 40 L 5 8 C 5 6.338 6.338 5 8 5 z "
       id="rect826" />
  </g>
</svg>
