<?xml version="1.0" encoding="UTF-8" standalone="no"?>
<!-- Created with Inkscape (http://www.inkscape.org/) -->

<svg
   xmlns:dc="http://purl.org/dc/elements/1.1/"
   xmlns:cc="http://creativecommons.org/ns#"
   xmlns:rdf="http://www.w3.org/1999/02/22-rdf-syntax-ns#"
   xmlns:svg="http://www.w3.org/2000/svg"
   xmlns="http://www.w3.org/2000/svg"
   xmlns:sodipodi="http://sodipodi.sourceforge.net/DTD/sodipodi-0.dtd"
   xmlns:inkscape="http://www.inkscape.org/namespaces/inkscape"
   width="48px"
   height="48px"
   viewBox="0 0 48 48"
   version="1.1"
   id="SVGRoot"
   inkscape:version="0.92.4 (5da689c313, 2019-01-14)"
   sodipodi:docname="AndYetItMoves.svg">
  <defs
     id="defs815" />
  <sodipodi:namedview
     id="base"
     pagecolor="#ffffff"
     bordercolor="#666666"
     borderopacity="1.0"
     inkscape:pageopacity="0.0"
     inkscape:pageshadow="2"
     inkscape:zoom="13.632692"
     inkscape:cx="9.659031"
     inkscape:cy="26.186099"
     inkscape:document-units="px"
     inkscape:current-layer="layer1"
     showgrid="true"
     inkscape:window-width="1920"
     inkscape:window-height="1017"
     inkscape:window-x="-8"
     inkscape:window-y="-8"
     inkscape:window-maximized="1"
     inkscape:grid-bbox="true"
     inkscape:snap-global="true">
    <inkscape:grid
       type="xygrid"
       id="grid1371" />
  </sodipodi:namedview>
  <metadata
     id="metadata818">
    <rdf:RDF>
      <cc:Work
         rdf:about="">
        <dc:format>image/svg+xml</dc:format>
        <dc:type
           rdf:resource="http://purl.org/dc/dcmitype/StillImage" />
        <dc:title></dc:title>
      </cc:Work>
    </rdf:RDF>
  </metadata>
  <g
     inkscape:label="Layer 1"
     inkscape:groupmode="layer"
     id="layer1">
    <rect
       style="opacity:1;vector-effect:none;fill:#635547;fill-opacity:1;fill-rule:evenodd;stroke:none;stroke-width:4;stroke-linecap:round;stroke-linejoin:round;stroke-miterlimit:4;stroke-dasharray:none;stroke-dashoffset:0;stroke-opacity:1;paint-order:stroke fill markers"
       id="rect1373"
       width="35"
       height="37"
       x="4"
       y="7"
       ry="4" />
    <path
       style="fill:#846546;stroke:none;stroke-width:1px;stroke-linecap:butt;stroke-linejoin:miter;stroke-opacity:1;fill-opacity:1"
       d="M 40 11 L 29 12 L 26 13 L 21 12 L 20 16 L 24 16 L 30 20 L 32 24 L 42 22 L 40 11 z M 4 17 L 4 36 L 11 37 L 16 35 L 19 30 L 19 24 L 12 18 L 4 17 z "
       id="path892" />
    <path
       style="fill:#a6815d;stroke:none;stroke-width:1px;stroke-linecap:butt;stroke-linejoin:miter;stroke-opacity:1;fill-opacity:1"
       d="M 4.5058594 6.0839844 C 4.1933497 6.6545395 4 7.3010804 4 8 L 4 13 L 6 15 L 19 13 L 22 9 L 4.5058594 6.0839844 z M 27 9 L 31 20 L 32 20 L 33 19 L 35 19 L 39 15 L 27 9 z M 4 19 L 4 35 L 8 35 L 16 30 L 16 25 L 14 22 L 11 19 L 4 19 z "
       id="path885" />
    <path
       style="fill:#caa683;stroke:none;stroke-width:1px;stroke-linecap:butt;stroke-linejoin:miter;stroke-opacity:1;fill-opacity:1"
       d="M 8 4 C 5.784 4 4 5.784 4 8 L 4 10 L 8 11 L 9 13 L 10 13 L 13 17 L 16 17 L 18 10 L 21 11 L 25 10 L 35 15 L 38 15 L 37 18 L 38 21 L 34 21 L 32 23 L 31 22 L 30 22 L 28 24 L 26 28 L 26 32 L 29 35 L 29 37 L 27 41 L 29 44 L 40 44 C 42.216 44 44 42.216 44 40 L 44 8 C 44 5.784 42.216 4 40 4 L 8 4 z M 8 14 L 7 16 L 8 18 L 11 17 L 10 15 L 8 14 z M 19 18 L 16 21 L 18 25 L 20 25 L 23 22 L 24 20 L 22 18 L 19 18 z M 4 22 L 4 31 L 12 31 L 15 29 L 15 25 L 13 23 L 4 22 z M 22 25 L 20 27 L 22 30 L 25 28 L 24 26 L 22 25 z "
       id="path873" />
    <path
       style="opacity:1;vector-effect:none;fill:#ffffff;fill-opacity:1;fill-rule:evenodd;stroke:none;stroke-width:1;stroke-linecap:round;stroke-linejoin:round;stroke-miterlimit:4;stroke-dasharray:none;stroke-dashoffset:0;stroke-opacity:1;paint-order:stroke fill markers"
       d="M 12 28 C 9.784 28 8 29.784 8 32 C 8 34.216 9.784 36 12 36 C 14.216 36 16 34.216 16 32 C 16 29.784 14.216 28 12 28 z M 12 30 C 13.108 30 14 30.892 14 32 C 14 33.108 13.108 34 12 34 C 10.892 34 10 33.108 10 32 C 10 30.892 10.892 30 12 30 z "
       id="rect828" />
    <rect
       style="opacity:1;vector-effect:none;fill:#ffffff;fill-opacity:1;fill-rule:evenodd;stroke:none;stroke-width:1;stroke-linecap:round;stroke-linejoin:round;stroke-miterlimit:4;stroke-dasharray:none;stroke-dashoffset:0;stroke-opacity:1;paint-order:stroke fill markers"
       id="rect830"
       width="8"
       height="2"
       x="8"
       y="28"
       ry="1" />
    <rect
       style="opacity:1;vector-effect:none;fill:#ffffff;fill-opacity:1;fill-rule:evenodd;stroke:none;stroke-width:1;stroke-linecap:round;stroke-linejoin:round;stroke-miterlimit:4;stroke-dasharray:none;stroke-dashoffset:0;stroke-opacity:1;paint-order:stroke fill markers"
       id="rect834"
       width="2"
       height="5"
       x="21"
       y="28"
       ry="1" />
    <path
       style="fill:none;stroke:#ffffff;stroke-width:2;stroke-linecap:round;stroke-linejoin:round;stroke-miterlimit:4;stroke-dasharray:none;stroke-opacity:1"
       d="m 19,35 c 0,0 0,-3 3,-3 3,0 3,3 3,3"
       id="path836"
       inkscape:connector-curvature="0"
       sodipodi:nodetypes="czc" />
    <rect
       style="opacity:1;vector-effect:none;fill:#ffffff;fill-opacity:1;fill-rule:evenodd;stroke:none;stroke-width:2;stroke-linecap:round;stroke-linejoin:round;stroke-miterlimit:4;stroke-dasharray:none;stroke-dashoffset:0;stroke-opacity:1;paint-order:stroke fill markers"
       id="rect838"
       width="2"
       height="8"
       x="28"
       y="28"
       ry="1" />
    <path
       style="fill:none;stroke:#ffffff;stroke-width:2;stroke-linecap:round;stroke-linejoin:round;stroke-miterlimit:4;stroke-dasharray:none;stroke-opacity:1"
       d="m 34,27 h 3 c 0,0 2,0 2,2.5 0,2.5 -2,2.5 -2,2.5 h -3"
       id="path840"
       inkscape:connector-curvature="0"
       sodipodi:nodetypes="cczcc" />
    <path
       style="fill:none;stroke:#ffffff;stroke-width:2;stroke-linecap:round;stroke-linejoin:round;stroke-miterlimit:4;stroke-dasharray:none;stroke-opacity:1"
       d="m 37,32 c 0,0 2,0 2,2.5 0,2.5 -2,2.5 -2,2.5 h -3"
       id="path840-9"
       inkscape:connector-curvature="0"
       sodipodi:nodetypes="czcc" />
    <path
       style="opacity:0.4;vector-effect:none;fill:#000000;fill-opacity:1;fill-rule:evenodd;stroke:none;stroke-width:4;stroke-linecap:round;stroke-linejoin:round;stroke-miterlimit:4;stroke-dasharray:none;stroke-dashoffset:0;stroke-opacity:1;paint-order:stroke fill markers"
       d="M 8 4 C 5.784 4 4 5.784 4 8 L 4 40 C 4 42.216 5.784 44 8 44 L 40 44 C 42.216 44 44 42.216 44 40 L 44 8 C 44 5.784 42.216 4 40 4 L 8 4 z M 8 5 L 40 5 C 41.662 5 43 6.338 43 8 L 43 40 C 43 41.662 41.662 43 40 43 L 8 43 C 6.338 43 5 41.662 5 40 L 5 8 C 5 6.338 6.338 5 8 5 z "
       id="rect826" />
  </g>
</svg>
