<?xml version="1.0" encoding="UTF-8" standalone="no"?>
<!-- Created with Inkscape (http://www.inkscape.org/) -->

<svg
   xmlns:dc="http://purl.org/dc/elements/1.1/"
   xmlns:cc="http://creativecommons.org/ns#"
   xmlns:rdf="http://www.w3.org/1999/02/22-rdf-syntax-ns#"
   xmlns:svg="http://www.w3.org/2000/svg"
   xmlns="http://www.w3.org/2000/svg"
   xmlns:sodipodi="http://sodipodi.sourceforge.net/DTD/sodipodi-0.dtd"
   xmlns:inkscape="http://www.inkscape.org/namespaces/inkscape"
   width="48px"
   height="48px"
   viewBox="0 0 48 48"
   version="1.1"
   id="SVGRoot"
   inkscape:version="0.92.4 (5da689c313, 2019-01-14)"
   sodipodi:docname="assaultcube.svg">
  <defs
     id="defs815" />
  <sodipodi:namedview
     id="base"
     pagecolor="#ffffff"
     bordercolor="#666666"
     borderopacity="1.0"
     inkscape:pageopacity="0.0"
     inkscape:pageshadow="2"
     inkscape:zoom="13.632692"
     inkscape:cx="21.088932"
     inkscape:cy="23.459606"
     inkscape:document-units="px"
     inkscape:current-layer="layer1"
     showgrid="true"
     inkscape:window-width="1920"
     inkscape:window-height="1017"
     inkscape:window-x="-8"
     inkscape:window-y="-8"
     inkscape:window-maximized="1"
     inkscape:grid-bbox="true"
     inkscape:snap-global="true">
    <inkscape:grid
       type="xygrid"
       id="grid1371" />
  </sodipodi:namedview>
  <metadata
     id="metadata818">
    <rdf:RDF>
      <cc:Work
         rdf:about="">
        <dc:format>image/svg+xml</dc:format>
        <dc:type
           rdf:resource="http://purl.org/dc/dcmitype/StillImage" />
        <dc:title></dc:title>
      </cc:Work>
    </rdf:RDF>
  </metadata>
  <g
     inkscape:label="Layer 1"
     inkscape:groupmode="layer"
     id="layer1">
    <rect
       style="opacity:1;vector-effect:none;fill:#efefef;fill-opacity:1;fill-rule:evenodd;stroke:none;stroke-width:4;stroke-linecap:round;stroke-linejoin:round;stroke-miterlimit:4;stroke-dasharray:none;stroke-dashoffset:0;stroke-opacity:1;paint-order:stroke fill markers"
       id="rect1373"
       width="40"
       height="40"
       x="4"
       y="4"
       ry="4" />
    <path
       style="fill:#d35244;stroke:none;stroke-width:1px;stroke-linecap:butt;stroke-linejoin:miter;stroke-opacity:1"
       d="M 8.1816406 4 C 8.0706875 4.31399 8 4.6470826 8 5 C 8 6.662 9.338 8 11 8 C 12.662 8 14 6.662 14 5 C 14 4.6470826 13.929312 4.31399 13.818359 4 L 8.1816406 4 z M 16.830078 4 C 16.677759 6.0029528 17.475516 8.8479521 16 10 C 13.898119 11.641099 9.4019496 7.7315978 8 10 C 7.2162863 11.268075 10.512742 12.600244 10 14 C 9.2691141 15.995277 5.9987447 15.389624 4 16.283203 L 4 27.527344 C 4.3643922 27.647667 4.7100072 27.790985 5 28 C 7.2945394 29.65381 10.465123 31.222608 11 34 C 11.480067 36.492786 7.0897071 38.63023 8 41 C 8.4169797 42.085525 9.1447453 43.103648 10.064453 44 L 22.441406 44 C 22.609467 42.004052 22.447679 39.685344 24 39 C 25.642134 38.275004 27.371566 41.755266 29 41 C 29.95625 40.556493 29.184826 38.668283 30 38 C 32.078295 36.296206 36.567144 39.273575 38 37 C 39.124025 35.216461 35.649624 33.078865 36 31 C 36.623153 27.302678 41.261131 25.128445 44 22.367188 L 44 15.681641 C 43.231203 15.191422 42.433576 14.701542 42 14 C 40.351447 11.332585 41.152979 6.7315657 40.027344 4.0019531 C 40.018017 4.0018898 40.009342 4 40 4 L 33.923828 4 C 32.125358 6.1032268 30.414396 9 28 9 C 25.615907 9 23.901301 6.1086598 22.123047 4 L 16.830078 4 z M 4 10 L 4 14 C 5.108 14 6 13.108 6 12 C 6 10.892 5.108 10 4 10 z M 40 28 C 38.892 28 38 28.892 38 30 C 38 31.108 38.892 32 40 32 C 41.108 32 42 31.108 42 30 C 42 28.892 41.108 28 40 28 z M 33 40 C 32.446 40 32 40.446 32 41 C 32 41.554 32.446 42 33 42 C 33.554 42 34 41.554 34 41 C 34 40.446 33.554 40 33 40 z "
       id="path823" />
    <path
       style="opacity:0.25;vector-effect:none;fill:#000000;fill-opacity:1;fill-rule:evenodd;stroke:none;stroke-width:4;stroke-linecap:round;stroke-linejoin:round;stroke-miterlimit:4;stroke-dasharray:none;stroke-dashoffset:0;stroke-opacity:1;paint-order:stroke fill markers"
       d="M 8 4 C 5.784 4 4 5.784 4 8 L 4 40 C 4 42.216 5.784 44 8 44 L 40 44 C 42.216 44 44 42.216 44 40 L 44 8 C 44 5.784 42.216 4 40 4 L 8 4 z M 8 5 L 40 5 C 41.662 5 43 6.338 43 8 L 43 40 C 43 41.662 41.662 43 40 43 L 8 43 C 6.338 43 5 41.662 5 40 L 5 8 C 5 6.338 6.338 5 8 5 z "
       id="rect826" />
    <path
       style="fill:#ffffff;stroke:#4e4e4e;stroke-width:2;stroke-linecap:round;stroke-linejoin:round;stroke-miterlimit:4;stroke-dasharray:none;stroke-opacity:1"
       d="m 24,13 -9,6 v 10 l 9,6 9,-6 V 19 Z"
       id="path817"
       inkscape:connector-curvature="0"
       sodipodi:nodetypes="ccccccc" />
    <path
       style="fill:none;stroke:#4e4e4e;stroke-width:2;stroke-linecap:round;stroke-linejoin:round;stroke-opacity:1;stroke-miterlimit:4;stroke-dasharray:none"
       d="m 15,19 9,6 9,-6"
       id="path819"
       inkscape:connector-curvature="0" />
    <rect
       style="opacity:1;vector-effect:none;fill:#4e4e4e;fill-opacity:1;fill-rule:evenodd;stroke:none;stroke-width:2;stroke-linecap:round;stroke-linejoin:round;stroke-miterlimit:4;stroke-dasharray:none;paint-order:normal"
       id="rect821"
       width="2"
       height="9"
       x="23"
       y="25" />
  </g>
</svg>
