<?xml version="1.0" encoding="UTF-8" standalone="no"?>
<!-- Created with Inkscape (http://www.inkscape.org/) -->

<svg
   xmlns:dc="http://purl.org/dc/elements/1.1/"
   xmlns:cc="http://creativecommons.org/ns#"
   xmlns:rdf="http://www.w3.org/1999/02/22-rdf-syntax-ns#"
   xmlns:svg="http://www.w3.org/2000/svg"
   xmlns="http://www.w3.org/2000/svg"
   xmlns:sodipodi="http://sodipodi.sourceforge.net/DTD/sodipodi-0.dtd"
   xmlns:inkscape="http://www.inkscape.org/namespaces/inkscape"
   width="48px"
   height="48px"
   viewBox="0 0 48 48"
   version="1.1"
   id="SVGRoot"
   inkscape:version="0.92.4 (5da689c313, 2019-01-14)"
   sodipodi:docname="braid.svg">
  <defs
     id="defs815">
    <linearGradient
       gradientUnits="userSpaceOnUse"
       y2="39"
       y1="7"
       x2="24"
       x1="24"
       id="linearGradient1552">
      <stop
         id="stop823"
         offset="0"
         stop-color="#92b4da" />
      <stop
         id="stop825"
         offset="1"
         stop-color="#547cb1" />
    </linearGradient>
    <linearGradient
       gradientUnits="userSpaceOnUse"
       gradientTransform="translate(0,-1)"
       y2="37"
       y1="11"
       x2="24"
       x1="24"
       id="linearGradient857">
      <stop
         id="stop828"
         offset="0"
         stop-color="#dbe1e9" />
      <stop
         id="stop830"
         offset="1"
         stop-color="#b9c4d4" />
    </linearGradient>
  </defs>
  <sodipodi:namedview
     id="base"
     pagecolor="#ffffff"
     bordercolor="#666666"
     borderopacity="1.0"
     inkscape:pageopacity="0.0"
     inkscape:pageshadow="2"
     inkscape:zoom="19.279538"
     inkscape:cx="36.378024"
     inkscape:cy="21.740836"
     inkscape:document-units="px"
     inkscape:current-layer="layer1"
     showgrid="true"
     inkscape:window-width="1920"
     inkscape:window-height="1017"
     inkscape:window-x="-8"
     inkscape:window-y="-8"
     inkscape:window-maximized="1"
     inkscape:grid-bbox="true"
     inkscape:snap-global="true">
    <inkscape:grid
       type="xygrid"
       id="grid1371" />
  </sodipodi:namedview>
  <metadata
     id="metadata818">
    <rdf:RDF>
      <cc:Work
         rdf:about="">
        <dc:format>image/svg+xml</dc:format>
        <dc:type
           rdf:resource="http://purl.org/dc/dcmitype/StillImage" />
        <dc:title></dc:title>
      </cc:Work>
    </rdf:RDF>
  </metadata>
  <g
     inkscape:label="Layer 1"
     inkscape:groupmode="layer"
     id="layer1">
    <rect
       style="opacity:1;vector-effect:none;fill:#b1f2ed;fill-opacity:1;fill-rule:evenodd;stroke:none;stroke-width:4;stroke-linecap:round;stroke-linejoin:round;stroke-miterlimit:4;stroke-dasharray:none;stroke-dashoffset:0;stroke-opacity:1;paint-order:stroke fill markers"
       id="rect1373"
       width="40"
       height="40"
       x="4"
       y="4"
       ry="4" />
    <path
       style="fill:#ffffff;stroke:none;stroke-width:1px;stroke-linecap:butt;stroke-linejoin:miter;stroke-opacity:1"
       d="M 16.136719 4 C 16.162731 5.9739925 17.301919 8.643858 16 10 C 14.595819 11.462664 11.770992 10.012732 10 11 C 8.2648394 11.967294 5.6217699 13.464467 4 15.097656 L 4 19.380859 C 5.6761805 18.978048 8.1866267 15.00846 10 16 C 11.779008 16.97275 10.019657 20.225165 11 22 C 12.940713 25.513509 16.006319 30.402022 20 30 C 21.658286 29.83307 23.118148 27.662474 23 26 C 22.732661 22.238251 16.779488 21.325003 15 18 C 14.197996 16.501441 13.190438 14.494489 14 13 C 14.854993 11.421644 17.645836 12.17833 19 11 C 21.027351 9.235894 23.959146 6.5104303 23 4 L 16.136719 4 z "
       id="path1016" />
    <path
       style="fill:#b2f4cf;stroke:none;stroke-width:1px;stroke-linecap:butt;stroke-linejoin:miter;stroke-opacity:1"
       d="M 21.787109 4 C 21.913959 7.6547166 32.369907 9.8667819 31 14 C 30.567612 15.30458 27.845803 13.916715 27 15 C 24.538351 18.152822 28.856427 23.456883 27 27 C 24.553943 31.668467 15.902079 31.084731 14 36 C 13.101111 38.322869 12.988205 41.353061 13.712891 44 L 40 44 C 42.216 44 44 42.216 44 40 L 44 8 C 44 5.784 42.216 4 40 4 L 21.787109 4 z "
       id="path1014" />
    <path
       style="fill:#78c58d;stroke:none;stroke-width:1px;stroke-linecap:butt;stroke-linejoin:miter;stroke-opacity:1"
       d="M 36.455078 19.972656 C 36.301237 19.973513 36.149174 19.982211 36 20 C 30.144219 20.698288 24.550064 27.128441 24 33 C 23.706684 36.130951 29.73493 37.942425 29 41 C 28.545755 42.889825 25.940423 44.111966 24 44 L 40 44 C 41.423184 44 42.660461 43.260006 43.369141 42.146484 C 41.896545 41.187493 38.473604 41.783388 38 40 C 37.691524 38.838412 39.92532 38.199528 40 37 C 40.046315 36.256084 38.847391 35.729566 39 35 C 39.365226 33.253999 42.365533 32.732808 44 31.769531 L 44 29.285156 C 42.445431 29.132803 39.643564 30.393634 39 29 C 38.185133 27.235412 42.426414 25.896299 42 24 C 41.505616 21.80143 38.762688 19.959803 36.455078 19.972656 z M 24 44 C 18.542006 43.685063 16.423023 33.307391 11 34 C 7.639334 34.429212 5.6914482 38.38401 4.4335938 41.785156 C 5.0888173 43.096147 6.4293848 44 8 44 L 24 44 z "
       id="path1012" />
    <path
       style="fill:#000000;stroke:none;stroke-width:0.95245969px;stroke-linecap:butt;stroke-linejoin:miter;stroke-opacity:1;opacity:0.25"
       d="m 16.573526,31.178679 -0.172909,1.012755 -1.383273,-0.592832 c 0,0 -0.976629,2.322121 -1.086858,3.556988 -0.06193,0.693762 -0.285778,1.626274 0.247013,2.074911 0.479331,0.403622 1.387122,0.291572 1.8773,-0.0988 0.18756,-0.149372 0.309814,-0.745627 0.543428,-0.691638 0.92302,0.213316 2.612346,0.33135 2.612346,0.33135 l 0.4531,-0.284429 c 0,0 4.471237,-0.07942 6.585019,-0.009 0.805281,0.02683 1.036815,1.435025 1.712138,1.888774 0.633203,0.425447 2.223118,0.543428 2.223118,0.543428 l 0.790442,1.037455 c 0,0 2.276269,-0.976546 2.865352,-1.976105 0.512484,-0.869587 1.085353,-2.383955 0.296416,-3.013559 -0.569836,-0.454753 -2.07491,0.691636 -2.07491,0.691636 l -1.531481,-1.482079 0.741039,-0.864546 v -1.012753 c 0,0 1.803521,0.385003 2.735125,0.473048 1.031811,0.09752 1.886202,0.128947 2.649761,-0.571853 0.380767,-0.34947 0.592831,-1.432677 0.592831,-1.432677 0,0 1.314713,-0.466113 1.580884,-1.037454 0.413172,-0.886879 0.118106,-2.053338 -0.345818,-2.914755 -0.326927,-0.60704 -0.91487,-1.155534 -1.580884,-1.333871 -0.630292,-0.168771 -1.380983,-0.01187 -1.926702,0.345818 -0.397266,0.260388 -0.790443,1.185663 -0.790443,1.185663 l -0.839843,0.296416 0.05942,-0.775458 c 0,0 1.068473,-0.807912 2.015488,-3.473167 0.396137,-1.114876 0.148208,-2.766547 0.148208,-2.766547 l 2.618339,-2.914755 -0.839845,-0.839844 0.296416,-0.345818 c 0,0 -1.76663,-3.172152 -4.199223,-4.051016 -1.288372,-0.465471 -2.628931,0.352333 -3.95221,0.395221 -1.416326,0.04591 -2.521553,-0.829823 -4.248625,-0.148208 -3.683614,1.453796 -5.434288,6.274133 -5.434288,6.274133 l 0.988052,1.333871 -0.19761,2.321923 c 0,0 -2.135634,0.272758 -3.112365,0.691637 -1.166927,0.500447 -3.359379,1.827896 -3.359379,1.827896 l 0.148208,0.345819 c 0,0 -0.870374,0.254643 -1.160961,0.617533 -0.345243,0.431144 -0.682856,1.18796 -0.389228,1.971866 0.431103,1.150923 1.403508,2.510603 2.486357,3.091903 0.508026,0.272719 0.891729,0.247014 0.891729,0.247014 z"
       id="path830-2"
       inkscape:connector-curvature="0"
       sodipodi:nodetypes="cccssssccssccssccccsscsssscccsccccssscccsccssscc" />
    <path
       style="opacity:0.25;vector-effect:none;fill:#000000;fill-opacity:1;fill-rule:evenodd;stroke:none;stroke-width:4;stroke-linecap:round;stroke-linejoin:round;stroke-miterlimit:4;stroke-dasharray:none;stroke-dashoffset:0;stroke-opacity:1;paint-order:stroke fill markers"
       d="M 8 4 C 5.784 4 4 5.784 4 8 L 4 40 C 4 42.216 5.784 44 8 44 L 40 44 C 42.216 44 44 42.216 44 40 L 44 8 C 44 5.784 42.216 4 40 4 L 8 4 z M 8 5 L 40 5 C 41.662 5 43 6.338 43 8 L 43 40 C 43 41.662 41.662 43 40 43 L 8 43 C 6.338 43 5 41.662 5 40 L 5 8 C 5 6.338 6.338 5 8 5 z "
       id="rect826" />
    <path
       style="fill:#4a4a4a;stroke:none;stroke-width:0.95245969px;stroke-linecap:butt;stroke-linejoin:miter;stroke-opacity:1"
       d="M 14.706261,29.207677 14.533352,30.220432 13.150079,29.6276 c 0,0 -0.976629,2.322121 -1.086858,3.556988 -0.06193,0.693762 -0.285778,1.626274 0.247013,2.074911 0.479331,0.403622 1.387122,0.291572 1.8773,-0.0988 0.18756,-0.149372 0.309814,-0.745627 0.543428,-0.691638 0.92302,0.213316 2.612346,0.33135 2.612346,0.33135 l 0.4531,-0.284429 c 0,0 4.471237,-0.07942 6.585019,-0.009 0.805281,0.02683 1.036815,1.435025 1.712138,1.888774 0.633203,0.425447 2.223118,0.543428 2.223118,0.543428 l 0.790442,1.037455 c 0,0 2.276269,-0.976546 2.865352,-1.976105 0.512484,-0.869587 1.085353,-2.383955 0.296416,-3.013559 -0.569836,-0.454753 -2.07491,0.691636 -2.07491,0.691636 l -1.531481,-1.482079 0.741039,-0.864546 v -1.012753 c 0,0 1.803521,0.385003 2.735125,0.473048 1.031811,0.09752 1.886202,0.128947 2.649761,-0.571853 0.380767,-0.34947 0.592831,-1.432677 0.592831,-1.432677 0,0 1.314713,-0.466113 1.580884,-1.037454 0.413172,-0.886879 0.118106,-2.053338 -0.345818,-2.914755 -0.326927,-0.60704 -0.91487,-1.155534 -1.580884,-1.333871 -0.630292,-0.168771 -1.380983,-0.01187 -1.926702,0.345818 -0.397266,0.260388 -0.790443,1.185663 -0.790443,1.185663 l -0.839843,0.296416 0.05942,-0.775458 c 0,0 1.068473,-0.807912 2.015488,-3.473167 0.396137,-1.114876 0.148208,-2.766547 0.148208,-2.766547 l 2.618339,-2.914755 -0.839845,-0.839844 0.296416,-0.345818 c 0,0 -1.76663,-3.172152 -4.199223,-4.051016 -1.288372,-0.465471 -2.628931,0.352333 -3.95221,0.395221 -1.416326,0.04591 -2.521553,-0.8298229 -4.248625,-0.148208 -3.683614,1.453796 -5.434288,6.274133 -5.434288,6.274133 l 0.988052,1.333871 -0.19761,2.321923 c 0,0 -2.135634,0.272758 -3.112365,0.691637 -1.166927,0.500447 -3.359379,1.827896 -3.359379,1.827896 l 0.148208,0.345819 c 0,0 -0.870374,0.254643 -1.160961,0.617533 -0.345243,0.431144 -0.682856,1.18796 -0.389228,1.971866 0.431103,1.150923 1.403508,2.510603 2.486357,3.091903 0.508026,0.272719 0.891729,0.247014 0.891729,0.247014 z"
       id="path830"
       inkscape:connector-curvature="0"
       sodipodi:nodetypes="cccssssccssccssccccsscsssscccsccccssscccsccssscc" />
    <path
       inkscape:connector-curvature="0"
       style="fill:#767676;fill-opacity:1;stroke:none;stroke-width:0.95245969px;stroke-linecap:butt;stroke-linejoin:miter;stroke-opacity:1"
       d="m 17.365804,21.112794 c -2.180904,0.08837 -4.29723,2.096528 -4.29723,2.096528 l 1.29289,1.536585 c 0,0 0.06331,-0.843924 0.27904,-1.188715 0.215109,-0.3438 0.5407,-0.718317 0.943159,-0.768293 0.382556,-0.0475 1.047333,0.489252 1.047333,0.489252 l 0.838983,-1.43241 2.200703,2.236048 h 0.593427 l 0.838983,-2.304878 c 0,0 -1.814549,-0.742027 -3.737288,-0.664117 z m 4.924142,1.257544 -1.047333,1.957007 0.524597,1.676106 -1.29289,0.243696 0.349732,2.025837 c 0,0 -1.970177,1.432728 -4.401406,1.886317 -0.380509,0.07099 -1.118024,-0.314386 -1.118024,-0.314386 v 0.595287 l 1.990492,0.768292 2.446258,-0.245555 c 0,0 -0.263128,-0.867332 -0.106035,-1.257545 0.406112,-1.00877 2.025837,-1.780281 2.025837,-1.780281 l -0.13952,-0.943159 1.5031,-0.838982 -0.420422,-0.139521 -0.522736,-1.43241 z m -5.588259,2.375569 c -0.649375,0.102429 -1.503101,0.697602 -1.503101,0.697602 l 1.049194,1.43241 1.326374,-0.943158 1.397065,-0.907813 c 0,0 -1.620158,-0.381471 -2.269532,-0.279041 z m 13.146548,0.509714 -0.865027,0.07442 0.07442,1.653782 -1.43241,0.173006 1.038031,1.951426 -1.112442,1.705871 1.655643,-1.235221 c 0,0 2.369876,0.576932 3.581025,0.665978 1.647467,0.121119 2.174659,-1.309634 2.174659,-1.309633 0,-1e-6 -0.416816,0.0068 -0.593427,0.05022 -0.501831,0.123605 -0.900226,0.775178 -1.384043,0.593427 -0.885899,-0.332797 -1.220507,-1.599307 -1.259405,-2.544854 -0.02112,-0.513303 0.569244,-1.43241 0.569243,-1.432409 l -1.754236,1.629598 0.716205,2.050021 -2.025837,-0.319967 -0.641795,-1.08826 1.235221,-0.863166 z m -1.011989,5.087847 -1.088259,1.408227 0.519016,0.173004 z m -15.637454,0.148821 c 0,0 -0.336137,0.714743 -0.468788,1.0864 -0.427385,1.19743 -0.221372,1.655642 -0.221372,1.655642 l 0.863166,-0.173004 c 0,0 0.01819,-0.713097 0.124638,-1.136628 0.100525,-0.39999 0.5432,-1.110582 0.5432,-1.110582 z m 14.303638,0.492973 -0.692021,0.223232 0.5432,0.321828 z m 4.209798,2.230467 c -0.29937,0.0036 -0.628107,0.209513 -0.727367,0.636213 -0.12263,0.527167 -0.272028,1.071333 -0.563662,1.527284 -0.410901,0.642421 -1.610997,1.460315 -1.610997,1.460315 0,0 0.821413,0.220522 1.311493,0.02791 0.872462,-0.342907 1.684551,-1.0504 1.943985,-1.996073 0.234871,-0.856135 0.357706,-1.095924 0.09674,-1.449152 -0.102163,-0.138278 -0.270564,-0.208681 -0.450187,-0.20649 z m -18.213931,0.829682 c -0.350303,-0.06236 -0.825019,0.125021 -1.01571,0.398098 -0.08603,0.123191 -0.04566,0.354283 0.07442,0.444606 0.284842,0.214274 0.788581,0.105631 1.062217,-0.122779 0.151965,-0.12685 0.30515,-0.419995 0.173004,-0.567383 -0.07411,-0.08266 -0.177155,-0.131755 -0.293922,-0.152542 z"
       id="path832" />
    <path
       style="fill:#ffffff;stroke:none;stroke-width:0.95245969px;stroke-linecap:butt;stroke-linejoin:miter;stroke-opacity:1"
       d="m 23.757806,23.488026 2.026109,1.082921 -1.222653,1.43225 -0.83839,-0.279463 z"
       id="path838"
       inkscape:connector-curvature="0" />
    <path
       style="fill:#ffffff;stroke:none;stroke-width:0.95245969px;stroke-linecap:butt;stroke-linejoin:miter;stroke-opacity:1"
       d="m 23.653006,26.212796 c 0,0 0.696364,0.123655 1.327452,0.523993 -0.201481,1.07607 -1.467183,1.18772 -1.467183,1.18772 z"
       id="path840"
       inkscape:connector-curvature="0"
       sodipodi:nodetypes="cccc" />
    <path
       style="fill:#ffffff;stroke:none;stroke-width:0.95245969px;stroke-linecap:butt;stroke-linejoin:miter;stroke-opacity:1"
       d="m 26.971635,24.920277 0.06986,1.851445 0.523994,-0.0524 0.436662,-1.676782 z"
       id="path842"
       inkscape:connector-curvature="0"
       sodipodi:nodetypes="ccccc" />
    <path
       inkscape:connector-curvature="0"
       style="fill:#edc5a9;fill-opacity:1;stroke:none;stroke-width:0.95245969px;stroke-linecap:butt;stroke-linejoin:miter;stroke-opacity:1"
       d="m 27.995404,14.659507 c -5.203225,0.529666 -3.60707,4.840431 -3.60707,4.840431 l -1.011989,0.370193 c 0,0 -0.759499,-2.88215 -1.877015,-2.790409 -0.829919,0.06813 -1.188306,1.452355 -1.038032,2.271394 0.181771,0.990711 1.134345,2.177073 2.148615,2.124431 0.326919,1.253485 4.19716,3.583663 6.695123,3.40988 2.476184,-0.172268 3.133036,-2.136261 3.878668,-3.780075 0.446203,-0.983694 0.171146,-3.235014 0.171146,-3.235014 0,0 0.07362,-0.454235 -0.591567,-0.692021 -0.350274,-0.125221 -1.536944,0.168136 -1.689129,-0.06325 -0.264057,-0.401485 0.583748,-0.469979 0.626913,-0.652956 0.05378,-0.227935 -0.692022,-0.124638 -0.692022,-0.124638 0,0 -1.106553,-1.872099 -3.013641,-1.677966 z M 12.878826,23.7488 12.08821,23.996217 c 0,0 -0.539545,0.305034 -0.667838,0.567383 -0.162931,0.333181 -0.209286,0.778285 -0.04837,1.112443 0.145772,0.302704 0.814799,0.591567 0.814799,0.591567 0,0 -0.424559,0.215378 0.05023,0.915254 0.313743,0.462484 0.716205,0.245556 0.716205,0.245556 0,0 -0.06701,0.282812 0,0.396238 0.234297,0.396615 0.778393,0.829147 1.209177,0.665978 0.457871,-0.173428 0.0072,-1.337741 0.494832,-1.382183 0.360044,-0.03281 -0.210464,1.00947 0.5432,0.937578 0.441399,-0.04211 0.346011,-1.283588 0.346011,-1.283588 z m 21.980984,0.03162 c -0.296689,-0.03783 -0.591232,0.01157 -0.786895,0.189748 -0.353093,0.321539 -0.371582,1.134288 0,1.43427 0.334249,0.269843 1.259405,-0.271599 1.259405,-0.271599 0,0 -1.441563,1.07997 -1.038033,1.555187 0.310074,0.365158 1.309632,-0.593426 1.309632,-0.593426 0,0 -0.584342,0.915754 -1.062215,0.989665 -0.171071,0.02646 -0.390278,-0.06896 -0.468789,-0.223233 -0.140619,-0.276332 0.173005,-0.913394 0.173005,-0.913394 0,0 -0.464039,-0.215723 -0.593427,-0.420422 -0.281354,-0.44511 -0.271599,-1.557048 -0.271599,-1.557048 -10e-7,0 -0.733087,0.785372 -0.840844,1.285448 -0.135163,0.627256 0.143583,1.167579 0.148822,1.754238 0.0033,0.371327 -0.07442,1.110583 -0.07442,1.110583 l 1.136626,0.865027 0.593428,-0.2716 c 0,0 -0.974322,-0.586011 -1.235222,-1.062216 -0.08392,-0.153181 -0.169133,-0.372266 -0.07442,-0.519016 0.144136,-0.223265 0.764572,-0.221372 0.764572,-0.221372 0,0 -0.517822,0.317655 -0.492973,0.567383 0.0494,0.496558 1.184994,0.913394 1.184994,0.913394 l 0.321828,0.07441 c 0,0 -0.261868,-0.900091 0.122778,-1.16081 0.619853,-0.420148 1.013848,-0.444605 1.013848,-0.444605 0,0 -0.375884,0.175336 -0.790615,0.814799 -0.12545,0.193427 0,0.692021 0,0.692021 0,0 1.209485,-0.09972 1.50682,-0.543199 0.483796,-0.721581 0.153668,-1.518026 -0.07442,-1.802604 -0.228079,-0.284578 -0.370195,-0.100455 -0.370195,-0.100455 0,0 0.09743,-0.553816 0,-0.716205 C 36.124071,25.043 35.851308,25.0082 35.851308,25.0082 c 0,0 0.02867,-0.688352 -0.19905,-0.88921 -0.198465,-0.175054 -0.495788,-0.300737 -0.792476,-0.33857 z"
       id="path844" />
    <path
       style="fill:#ffffff;stroke-width:0.95245969"
       d="m 22.78359,30.368639 c 0,0 1.532037,-0.369028 2.106332,-0.465087 0.831754,-0.139122 1.475358,-2.177953 1.475358,-2.177953 l 0.666935,-0.56813 0.0741,1.432676 -0.839845,2.519534 -1.8773,-0.123507 z"
       id="path858"
       inkscape:connector-curvature="0"
       sodipodi:nodetypes="cscccccc" />
    <path
       style="fill:#ff837d;stroke:none;stroke-width:0.95245969px;stroke-linecap:butt;stroke-linejoin:miter;stroke-opacity:1"
       d="m 24.907903,26.070611 1.062156,-1.284468 0.666935,0.0741 0.0988,1.827897 -0.444623,0.37052 -1.062156,-0.247013 z"
       id="path860"
       inkscape:connector-curvature="0" />
    <path
       style="fill:#ff837d;stroke:none;stroke-width:0.95245969px;stroke-linecap:butt;stroke-linejoin:miter;stroke-opacity:1"
       d="m 20.101893,30.556532 c -0.374891,-0.884965 0.761977,-1.980406 1.644241,-2.361608 0.763401,-0.329844 1.6585,0.217855 2.424968,-0.104799 0.466879,-0.196538 1.132022,-0.982058 1.132022,-0.982058 l 0.839844,0.197609 c 0,0 -0.649418,1.195119 -1.028466,1.936421 -0.216701,0.423802 -2.274813,-0.09949 -3.146056,0.385503 -0.243436,0.135513 -0.274616,0.61534 -0.574124,0.639237 -0.574596,0.04585 -1.067586,0.820458 -1.292429,0.289695 z"
       id="path862"
       inkscape:connector-curvature="0"
       sodipodi:nodetypes="sssccssss" />
    <path
       inkscape:connector-curvature="0"
       style="fill:#afafaf;fill-opacity:1;stroke:none;stroke-width:0.95245969px;stroke-linecap:butt;stroke-linejoin:miter;stroke-opacity:1"
       d="m 14.409831,30.814117 -0.295784,2.271393 1.16081,0.716205 2.542994,-0.07441 -0.09859,0.444605 2.100248,0.05022 -0.173005,-0.444605 0.88921,-0.05022 -0.346011,0.420422 h 2.79227 l -2.52067,-1.309632 -1.43241,-1.209178 -0.665978,-0.199049 -1.828647,0.07441 z m 6.964861,0.394377 -0.5432,0.567383 0.692022,1.112444 1.828648,1.110583 c 0,0 0.596608,0.05579 1.436131,0.213931 0.406616,0.0766 0.607533,0.637395 0.762711,0.997106 0.246087,0.570445 0.803638,0.943158 0.803638,0.943158 l 0.81666,0.135801 -0.831542,-1.251963 1.478918,1.365439 c 0,0 0.558221,0.03848 0.887349,-0.104175 1.8914,-0.819778 1.640761,-1.971889 1.640761,-1.971889 0,0 -1.669588,-2.191877 -3.755891,-2.753204 -1.662694,-0.447352 -5.216205,-0.364614 -5.216205,-0.364614 z"
       id="path864" />
    <path
       inkscape:connector-curvature="0"
       style="fill:#c56b5b;fill-opacity:1;stroke:none;stroke-width:0.95245969px;stroke-linecap:butt;stroke-linejoin:miter;stroke-opacity:1"
       d="m 30.49747,10.330652 c -0.856155,0.0082 -2.105829,0.524597 -2.105829,0.524597 0,0 -0.455336,0.270182 -0.247416,0.937578 0.115505,0.370754 0.750164,-0.423273 1.160811,-0.0986 -0.834992,0.229833 -1.358,2.52067 -1.358,2.52067 0.666892,0.09058 1.744594,0.178551 1.999794,0.2716 1.29053,0.470542 2.247209,1.778421 2.247209,1.778421 0,0 -0.945688,-1.698486 -1.752377,-2.150475 -0.427974,-0.239796 -1.458454,-0.19719 -1.458454,-0.19719 0,0 0.90272,-0.591571 1.352419,-0.524597 1.182851,0.176162 2.180239,2.500207 2.180239,2.500207 l 0.394378,-0.764572 c 0,0 0.437309,0.478144 0.81666,0.600868 0.5096,0.16486 1.536585,-0.05022 1.536585,-0.05022 l -2.180239,0.658536 1.067796,0.677139 1.77284,-1.597974 c 0,0 -0.347478,-0.05711 -0.485531,-0.156263 -0.397337,-0.285364 -0.403679,-0.675279 -0.403679,-0.675279 0,0 -0.805764,0.0128 -1.16081,-0.148822 -0.811894,-0.369595 -1.999794,-1.77842 -1.999794,-1.77842 0,0 1.218301,1.17592 1.999794,1.408226 0.450236,0.133836 1.408226,-0.05022 1.408226,-0.05022 0,0 -1.658637,-3.034374 -4.446053,-3.655436 -0.101428,-0.0226 -0.216261,-0.03094 -0.338569,-0.02976 z m -5.841257,0.115337 c -1.649132,0.113431 -2.76081,0.954631 -4.193054,2.546713 -0.821413,0.913084 -0.819731,1.815775 -1.63146,3.296404 -0.111109,0.202669 -0.597147,0.351591 -0.597147,0.351591 l 1.097561,1.186855 -0.130219,2.167218 1.852831,1.086399 -1.309632,-1.927243 0.34601,-1.43241 0.519017,-0.814799 -1.235222,-0.569244 3.434064,0.372055 -1.50682,-1.927243 1.802604,1.110583 2.141174,-0.904093 -1.302191,-0.725506 -0.665977,-0.790616 -1.038033,0.5432 1.112443,-1.259405 0.740388,1.408227 3.309426,-0.02418 c 0,0 -0.267251,-1.080103 -0.319967,-1.631459 -0.06585,-0.688765 0.07442,-1.333816 0.07442,-1.333816 0,0 -1.175816,-0.820322 -2.500207,-0.729227 z"
       id="path872" />
    <path
       inkscape:connector-curvature="0"
       style="fill:#4a4a4a;stroke:none;stroke-width:0.95245969px;stroke-linecap:butt;stroke-linejoin:miter;stroke-opacity:1"
       d="m 27.02434,16.344915 c -0.721171,0.03028 -2.025797,0.518384 -1.798883,1.203596 0.148436,0.448233 1.190616,-0.484919 1.413807,-0.06883 -0.582291,0.352805 -1.08431,0.541359 -1.030591,1.397065 0.03588,0.571492 0.685572,1.142957 1.257545,1.170111 0.63045,0.02993 1.3916,-0.532135 1.5031,-1.153368 0.137242,-0.764653 -0.330043,-1.103342 -0.803638,-1.501241 0.238916,-0.393072 1.262294,0.46133 1.380323,0.01675 0.187904,-0.707803 -1.189988,-1.094794 -1.921663,-1.064076 z m 4.611617,1.309632 c -1.186411,-0.09082 -1.415668,0.907812 -1.415668,0.907812 0,1e-6 0.204837,1.280004 0.489252,2.11327 0.08379,0.245491 -0.198701,0.471096 -0.558082,0.54134 -0.349304,0.06824 -1.065936,0.07069 -1.065936,0.07069 l -0.385076,0.295783 c 0,0 1.037433,0.101892 1.555188,0.07069 0.527063,-0.03177 0.926522,-0.254222 0.855725,-0.716205 -0.06108,-0.398592 -0.366474,-1.153369 -0.366474,-1.153369 0,0 0.564213,0.449691 0.891071,0.420422 0.859451,-0.07696 1.216133,-0.786468 1.186854,-1.397065 -0.02642,-0.551091 -0.636739,-1.111262 -1.186854,-1.153369 z m -4.821827,4.401405 c 0,0 0.673705,1.051146 1.97375,1.144068 1.366257,0.09766 2.271393,-0.662257 2.271393,-0.662257 0,0 -1.45341,0.09365 -2.167218,0.01302 -0.719081,-0.08123 -2.077925,-0.494832 -2.077925,-0.494831 z"
       id="path879" />
    <path
       style="fill:#966d51;fill-opacity:1;stroke:none;stroke-width:0.95245969px;stroke-linecap:butt;stroke-linejoin:miter;stroke-opacity:1"
       d="m 27.93229,23.648736 1.72918,0.0524 c 0,0 -0.571765,0.3959 -0.89079,0.384263 -0.319025,-0.01164 -0.83839,-0.436667 -0.83839,-0.436667 z"
       id="path883"
       inkscape:connector-curvature="0"
       sodipodi:nodetypes="cczc" />
    <path
       style="fill:#ffffff;stroke:none;stroke-width:1.02878678px;stroke-linecap:butt;stroke-linejoin:miter;stroke-opacity:1"
       d="m 27.039017,17.59169 c 0,0 -0.650523,0.660353 -0.133405,1.280679 0.374758,0.449552 1.040551,0.293489 1.040551,0.293489 0,0 -0.195568,0.316652 -0.510133,0.501659 -0.314566,0.185007 -0.905547,0.09903 -1.224118,-0.288212 -0.389414,-0.473363 -0.316921,-1.026265 0.02078,-1.328328 0.337701,-0.302063 0.806326,-0.459287 0.806325,-0.459287 z"
       id="path887"
       inkscape:connector-curvature="0"
       sodipodi:nodetypes="cscsssc" />
    <path
       style="fill:#ffffff;stroke:none;stroke-width:1.02878678px;stroke-linecap:butt;stroke-linejoin:miter;stroke-opacity:1"
       d="m 31.644231,17.773135 c 0,0 -0.650523,0.660353 -0.133404,1.280678 0.374757,0.449553 1.04055,0.293489 1.04055,0.293489 0,0 -0.195568,0.316653 -0.510133,0.50166 -0.314566,0.185006 -0.905546,0.09903 -1.224118,-0.288213 -0.389414,-0.473363 -0.316921,-1.026265 0.02078,-1.328328 0.337701,-0.302063 0.806326,-0.459286 0.806325,-0.459286 z"
       id="path887-9"
       inkscape:connector-curvature="0"
       sodipodi:nodetypes="cscsssc" />
  </g>
</svg>
