<?xml version="1.0" encoding="UTF-8" standalone="no"?>
<!-- Created with Inkscape (http://www.inkscape.org/) -->

<svg
   xmlns:dc="http://purl.org/dc/elements/1.1/"
   xmlns:cc="http://creativecommons.org/ns#"
   xmlns:rdf="http://www.w3.org/1999/02/22-rdf-syntax-ns#"
   xmlns:svg="http://www.w3.org/2000/svg"
   xmlns="http://www.w3.org/2000/svg"
   xmlns:sodipodi="http://sodipodi.sourceforge.net/DTD/sodipodi-0.dtd"
   xmlns:inkscape="http://www.inkscape.org/namespaces/inkscape"
   width="48px"
   height="48px"
   viewBox="0 0 48 48"
   version="1.1"
   id="SVGRoot"
   inkscape:version="0.92.4 (5da689c313, 2019-01-14)"
   sodipodi:docname="cave-story.svg">
  <defs
     id="defs815" />
  <sodipodi:namedview
     id="base"
     pagecolor="#ffffff"
     bordercolor="#666666"
     borderopacity="1.0"
     inkscape:pageopacity="0.0"
     inkscape:pageshadow="2"
     inkscape:zoom="16.342421"
     inkscape:cx="22.493705"
     inkscape:cy="23.329576"
     inkscape:document-units="px"
     inkscape:current-layer="layer1"
     showgrid="true"
     inkscape:window-width="1920"
     inkscape:window-height="1017"
     inkscape:window-x="-8"
     inkscape:window-y="-8"
     inkscape:window-maximized="1"
     inkscape:grid-bbox="true"
     inkscape:snap-global="true">
    <inkscape:grid
       type="xygrid"
       id="grid1371" />
  </sodipodi:namedview>
  <metadata
     id="metadata818">
    <rdf:RDF>
      <cc:Work
         rdf:about="">
        <dc:format>image/svg+xml</dc:format>
        <dc:type
           rdf:resource="http://purl.org/dc/dcmitype/StillImage" />
        <dc:title />
      </cc:Work>
    </rdf:RDF>
  </metadata>
  <g
     inkscape:label="Layer 1"
     inkscape:groupmode="layer"
     id="layer1">
    <rect
       style="opacity:1;vector-effect:none;fill:#cde8da;fill-opacity:1;fill-rule:evenodd;stroke:none;stroke-width:4;stroke-linecap:round;stroke-linejoin:round;stroke-miterlimit:4;stroke-dasharray:none;stroke-dashoffset:0;stroke-opacity:1;paint-order:stroke fill markers"
       id="rect1373"
       width="40"
       height="40"
       x="4"
       y="4"
       ry="4" />
    <rect
       style="opacity:1;vector-effect:none;fill:#a8b0ac;fill-opacity:1;fill-rule:evenodd;paint-order:stroke fill markers"
       id="rect818"
       width="32"
       height="32"
       x="8"
       y="8"
       ry="1" />
    <rect
       style="opacity:1;vector-effect:none;fill:#a8b0ac;fill-opacity:1;fill-rule:evenodd;paint-order:stroke fill markers"
       id="rect820"
       width="16"
       height="6"
       x="16"
       y="38" />
    <path
       style="opacity:0.25;vector-effect:none;fill:#000000;fill-opacity:1;fill-rule:evenodd;stroke:none;stroke-width:4;stroke-linecap:round;stroke-linejoin:round;stroke-miterlimit:4;stroke-dasharray:none;stroke-dashoffset:0;stroke-opacity:1;paint-order:stroke fill markers"
       d="M 8 4 C 5.784 4 4 5.784 4 8 L 4 40 C 4 42.216 5.784 44 8 44 L 40 44 C 42.216 44 44 42.216 44 40 L 44 8 C 44 5.784 42.216 4 40 4 L 8 4 z M 8 5 L 40 5 C 41.662 5 43 6.338 43 8 L 43 40 C 43 41.662 41.662 43 40 43 L 8 43 C 6.338 43 5 41.662 5 40 L 5 8 C 5 6.338 6.338 5 8 5 z "
       id="rect826" />
    <rect
       style="opacity:1;vector-effect:none;fill:#d87d46;fill-opacity:1;fill-rule:evenodd;stroke:none;stroke-width:1.15470052;paint-order:stroke fill markers"
       id="rect829"
       width="4"
       height="32"
       x="12"
       y="8" />
    <path
       style="fill:#4e4e4e;stroke:none;stroke-width:1px;stroke-linecap:butt;stroke-linejoin:miter;stroke-opacity:1"
       d="m 17,32 c 0,0 0,4 7,4 7,0 7,-4 7,-4 z"
       id="path833"
       inkscape:connector-curvature="0"
       sodipodi:nodetypes="czcc" />
    <rect
       style="opacity:1;vector-effect:none;fill:#d87d46;fill-opacity:1;fill-rule:evenodd;stroke:none;stroke-width:1.15470052;paint-order:stroke fill markers"
       id="rect829-1"
       width="4"
       height="32"
       x="-36"
       y="8"
       transform="scale(-1,1)" />
    <path
       style="fill:#4e4e4e;stroke:none;stroke-width:0.78446454px;stroke-linecap:butt;stroke-linejoin:miter;stroke-opacity:1"
       d="M 38.230769,26 39,23.6 c 0,0 -1.538462,-3.2 -5.384615,-3.2 C 29,20.4 29,26 29,26 Z"
       id="path824-0"
       inkscape:connector-curvature="0"
       sodipodi:nodetypes="ccscc" />
    <path
       style="fill:#ffffff;stroke:none;stroke-width:0.78446454px;stroke-linecap:butt;stroke-linejoin:miter;stroke-opacity:1"
       d="m 38.230769,26 c 0,0 0,-4 -4.615384,-4 C 29,22 29,26 29,26 c 0,0 0,4 4.615385,4 4.615384,0 4.615384,-4 4.615384,-4 z"
       id="path822-2"
       inkscape:connector-curvature="0"
       sodipodi:nodetypes="czczc" />
    <rect
       style="opacity:1;vector-effect:none;fill:#4e4e4e;fill-opacity:1;fill-rule:evenodd;stroke:none;stroke-width:0.6454972;paint-order:stroke fill markers"
       id="rect827-3"
       width="2"
       height="6"
       x="-34"
       y="23"
       ry="1"
       transform="scale(-1,1)" />
    <path
       style="fill:#4e4e4e;stroke:none;stroke-width:0.78446454px;stroke-linecap:butt;stroke-linejoin:miter;stroke-opacity:1"
       d="M 9.769231,26 9,23.6 c 0,0 1.538462,-3.2 5.384615,-3.2 C 19,20.4 19,26 19,26 Z"
       id="path824-0-1"
       inkscape:connector-curvature="0"
       sodipodi:nodetypes="ccscc" />
    <path
       style="fill:#ffffff;stroke:none;stroke-width:0.78446454px;stroke-linecap:butt;stroke-linejoin:miter;stroke-opacity:1"
       d="m 9.769231,26 c 0,0 0,-4 4.615384,-4 C 19,22 19,26 19,26 c 0,0 0,4 -4.615385,4 -4.615384,0 -4.615384,-4 -4.615384,-4 z"
       id="path822-2-7"
       inkscape:connector-curvature="0"
       sodipodi:nodetypes="czczc" />
    <rect
       style="opacity:1;vector-effect:none;fill:#4e4e4e;fill-opacity:1;fill-rule:evenodd;stroke:none;stroke-width:0.6454972;paint-order:stroke fill markers"
       id="rect827-3-8"
       width="2"
       height="6"
       x="14"
       y="23"
       ry="1" />
    <path
       style="opacity:0.25;vector-effect:none;fill:#000000;fill-opacity:1;fill-rule:evenodd;stroke:none;stroke-width:1;stroke-linecap:round;stroke-linejoin:round;stroke-miterlimit:4;stroke-dasharray:none;stroke-dashoffset:0;stroke-opacity:1;paint-order:stroke fill markers"
       d="M 9 8 C 8.446 8 8 8.446 8 9 L 8 39 C 8 39.554 8.446 40 9 40 L 16 40 L 16 43 L 17 43 L 17 40 L 17 39 L 9.5 39 C 9.223 39 9 38.777 9 38.5 L 9 9.5 C 9 9.223 9.223 9 9.5 9 L 38.5 9 C 38.777 9 39 9.223 39 9.5 L 39 38.5 C 39 38.777 38.777 39 38.5 39 L 31 39 L 31 40 L 31 43 L 32 43 L 32 40 L 39 40 C 39.554 40 40 39.554 40 39 L 40 9 C 40 8.446 39.554 8 39 8 L 9 8 z "
       id="rect827" />
  </g>
</svg>
