<?xml version="1.0" encoding="UTF-8" standalone="no"?>
<!-- Created with Inkscape (http://www.inkscape.org/) -->

<svg
   xmlns:dc="http://purl.org/dc/elements/1.1/"
   xmlns:cc="http://creativecommons.org/ns#"
   xmlns:rdf="http://www.w3.org/1999/02/22-rdf-syntax-ns#"
   xmlns:svg="http://www.w3.org/2000/svg"
   xmlns="http://www.w3.org/2000/svg"
   xmlns:sodipodi="http://sodipodi.sourceforge.net/DTD/sodipodi-0.dtd"
   xmlns:inkscape="http://www.inkscape.org/namespaces/inkscape"
   width="48px"
   height="48px"
   viewBox="0 0 48 48"
   version="1.1"
   id="SVGRoot"
   inkscape:version="0.92.4 (5da689c313, 2019-01-14)"
   sodipodi:docname="clonekeen.svg">
  <defs
     id="defs815" />
  <sodipodi:namedview
     id="base"
     pagecolor="#ffffff"
     bordercolor="#666666"
     borderopacity="1.0"
     inkscape:pageopacity="0.0"
     inkscape:pageshadow="2"
     inkscape:zoom="9.639769"
     inkscape:cx="28.937472"
     inkscape:cy="20.378035"
     inkscape:document-units="px"
     inkscape:current-layer="layer1"
     showgrid="true"
     inkscape:window-width="1920"
     inkscape:window-height="1017"
     inkscape:window-x="-8"
     inkscape:window-y="-8"
     inkscape:window-maximized="1"
     inkscape:grid-bbox="true"
     inkscape:snap-global="true">
    <inkscape:grid
       type="xygrid"
       id="grid1371" />
  </sodipodi:namedview>
  <metadata
     id="metadata818">
    <rdf:RDF>
      <cc:Work
         rdf:about="">
        <dc:format>image/svg+xml</dc:format>
        <dc:type
           rdf:resource="http://purl.org/dc/dcmitype/StillImage" />
        <dc:title></dc:title>
      </cc:Work>
    </rdf:RDF>
  </metadata>
  <g
     inkscape:label="Layer 1"
     inkscape:groupmode="layer"
     id="layer1">
    <path
       style="opacity:1;vector-effect:none;fill:#ffdd75;fill-opacity:1;fill-rule:evenodd;stroke:none;stroke-width:4;stroke-linecap:round;stroke-linejoin:round;stroke-miterlimit:4;stroke-dasharray:none;stroke-dashoffset:0;stroke-opacity:1;paint-order:stroke fill markers"
       d="M 8 4 C 5.784 4 4 5.784 4 8 L 4 40 C 4 42.216 5.784 44 8 44 L 12 44 L 14 36 L 34 36 L 38 44 L 40 44 C 42.216 44 44 42.216 44 40 L 44 8 C 44 5.784 42.216 4 40 4 L 8 4 z "
       id="rect1373" />
    <path
       style="fill:#4e4e4e;stroke:none;stroke-width:1px;stroke-linecap:butt;stroke-linejoin:miter;stroke-opacity:1"
       d="m 38,44 c -4,0 -4,-4 -7,-4 H 13 l 1,-19 6,-2 h 16 l 4,3 1,7 c 0,0 0,8 -3,15 z"
       id="path857"
       inkscape:connector-curvature="0"
       sodipodi:nodetypes="csccccccc" />
    <path
       style="fill:#f68d59;stroke:none;stroke-width:1px;stroke-linecap:butt;stroke-linejoin:miter;stroke-opacity:1"
       d="m 12,44 c 0,0 1,-5 1,-8 0,-3.018462 -1.08223,-5.982659 -1,-9 0.05524,-2.026835 1,-6 1,-6 h 2 c 0,0 -0.979327,4.643068 -1,7 -0.02357,2.687316 1,5 1,8 0,2.848001 -3,8 -3,8 z"
       id="path853"
       inkscape:connector-curvature="0"
       sodipodi:nodetypes="cssccssc" />
    <path
       style="fill:#955d41;stroke:none;stroke-width:1px;stroke-linecap:butt;stroke-linejoin:miter;stroke-opacity:1;fill-opacity:1"
       d="M 39.939453 31.091797 C 40.458276 38.038675 36.009211 42.375486 35.224609 43.083984 C 35.904543 43.614949 36.759257 44 38 44 C 39.387713 40.762004 40.116765 37.339599 40.517578 34.564453 C 40.421246 33.282925 40.24572 32.078199 39.939453 31.091797 z "
       id="path869" />
    <path
       style="fill:#f68d59;stroke:none;stroke-width:1px;stroke-linecap:butt;stroke-linejoin:miter;stroke-opacity:1"
       d="m 39,21 c 0,0 1,3 1,11 0,6 -2,12 -2,12 0,0 4,-4 4,-12 0,-3.681787 -1,-11 -1,-11 z"
       id="path855"
       inkscape:connector-curvature="0"
       sodipodi:nodetypes="cscscc" />
    <path
       style="fill:none;stroke:#ffefbf;stroke-width:2;stroke-linecap:round;stroke-linejoin:round;stroke-miterlimit:4;stroke-dasharray:none;stroke-opacity:1"
       d="m 14,21 c 0,0 2,-2 6,-2 5,0 10,0 15,0 3,0 5,2 5,2"
       id="path830"
       inkscape:connector-curvature="0"
       sodipodi:nodetypes="cssc" />
    <path
       style="fill:#96d56b;stroke:none;stroke-width:1px;stroke-linecap:butt;stroke-linejoin:miter;stroke-opacity:1"
       d="m 20,18 c 0,0 0.180722,-5.58585 -1,-8 C 17.757326,7.4591808 13,4 13,4 h 15 c 0,0 3.963336,3.6118822 5,6 1.070113,2.465174 1,8 1,8 z"
       id="path832"
       inkscape:connector-curvature="0"
       sodipodi:nodetypes="csccscc" />
    <path
       style="fill:#ffffff;stroke:none;stroke-width:1px;stroke-linecap:butt;stroke-linejoin:miter;stroke-opacity:1"
       d="m 24,18 c 0,0 0.180722,-5.58585 -1,-8 C 21.757326,7.4591808 17,4 17,4 h 7 c 0,0 3.963336,3.6118822 5,6 1.070113,2.465174 1,8 1,8 z"
       id="path832-4"
       inkscape:connector-curvature="0"
       sodipodi:nodetypes="csccscc" />
    <rect
       style="opacity:1;vector-effect:none;fill:#f68d59;fill-opacity:1;fill-rule:evenodd;stroke:none;stroke-width:2;stroke-linecap:round;stroke-linejoin:round;stroke-miterlimit:4;stroke-dasharray:none;stroke-opacity:1;paint-order:normal"
       id="rect851"
       width="6"
       height="7"
       x="6"
       y="30"
       rx="2"
       ry="3.5" />
    <rect
       style="opacity:1;vector-effect:none;fill:#4e4e4e;fill-opacity:1;fill-rule:evenodd;stroke:none;stroke-width:2;stroke-linecap:round;stroke-linejoin:round;stroke-miterlimit:4;stroke-dasharray:none;stroke-opacity:1;paint-order:normal"
       id="rect849"
       width="4"
       height="7"
       x="8"
       y="30"
       ry="3.5"
       rx="2" />
    <path
       style="fill:#000000;stroke:none;stroke-width:1px;stroke-linecap:butt;stroke-linejoin:miter;stroke-opacity:1;opacity:0.25"
       d="M 7.5722656 13.404297 L 5.6542969 17.916016 L 4.6171875 17.242188 L 4 19.339844 L 4 24.009766 L 4.875 27.044922 L 5.9648438 24.917969 L 9.9589844 25.177734 L 8.2988281 22.013672 L 11.152344 18.849609 L 9.4921875 17.65625 L 10.269531 14.648438 L 7.625 16.101562 L 7.5722656 13.404297 z "
       id="path859" />
    <path
       style="fill:#000000;stroke:none;stroke-width:1px;stroke-linecap:butt;stroke-linejoin:miter;stroke-opacity:1;opacity:0.25"
       d="m 12.13722,5.8828081 c 0,0 -1.186961,1.5902925 -0.778027,2.2822123 0.607427,1.0277715 3.527056,0.6224216 3.527056,0.6224216 0,0 -1.836375,-0.6598986 -2.385949,-1.4004485 C 12.192917,6.9727952 12.13722,5.8828081 12.13722,5.8828081 Z"
       id="path861"
       inkscape:connector-curvature="0"
       sodipodi:nodetypes="cscsc" />
    <path
       style="fill:#000000;stroke:none;stroke-width:1px;stroke-linecap:butt;stroke-linejoin:miter;stroke-opacity:1;opacity:0.25"
       d="m 16.390434,8.5799681 c 0,0 -1.043631,3.4290639 0.05187,4.4088189 1.295163,1.158322 5.186846,-0.518684 5.186846,-0.518684 0,0 -2.462026,0.364558 -3.890135,-0.726159 -1.199087,-0.915802 -1.348581,-3.1639759 -1.348581,-3.1639759 z"
       id="path863"
       inkscape:connector-curvature="0"
       sodipodi:nodetypes="cscsc" />
    <path
       style="fill:#000000;stroke:none;stroke-width:1px;stroke-linecap:butt;stroke-linejoin:miter;stroke-opacity:1;opacity:0.25"
       d="m 33.507027,8.6837051 c 0,0 0.692293,2.7674399 -0.259342,3.3714499 -1.233547,0.782941 -4.097609,-1.556054 -4.097609,-1.556054 0,0 2.23919,0.808884 3.060239,0.363079 1.009224,-0.547977 1.296712,-2.1784749 1.296712,-2.1784749 z"
       id="path865"
       inkscape:connector-curvature="0"
       sodipodi:nodetypes="cscsc" />
    <path
       style="fill:#955d41;stroke:none;stroke-width:1px;stroke-linecap:butt;stroke-linejoin:miter;stroke-opacity:1;fill-opacity:1"
       d="m 36.307924,30.001643 c 0.245059,2.806075 -0.105053,5.373564 -0.51643,7.239534 -0.411377,1.86597 -0.884019,3.030422 -0.884019,3.030422 0,0 2.127033,-0.912544 2.904635,-4.72003 0.321818,-1.575767 0.155605,-4.927504 0.155605,-4.927504 z"
       id="path867"
       inkscape:connector-curvature="0"
       sodipodi:nodetypes="cscscc" />
    <path
       style="color:#000000;font-style:normal;font-variant:normal;font-weight:normal;font-stretch:normal;font-size:medium;line-height:normal;font-family:sans-serif;font-variant-ligatures:normal;font-variant-position:normal;font-variant-caps:normal;font-variant-numeric:normal;font-variant-alternates:normal;font-feature-settings:normal;text-indent:0;text-align:start;text-decoration:none;text-decoration-line:none;text-decoration-style:solid;text-decoration-color:#000000;letter-spacing:normal;word-spacing:normal;text-transform:none;writing-mode:lr-tb;direction:ltr;text-orientation:mixed;dominant-baseline:auto;baseline-shift:baseline;text-anchor:start;white-space:normal;shape-padding:0;clip-rule:nonzero;display:inline;overflow:visible;visibility:visible;opacity:0.25;isolation:auto;mix-blend-mode:normal;color-interpolation:sRGB;color-interpolation-filters:linearRGB;solid-color:#000000;solid-opacity:1;vector-effect:none;fill:#000000;fill-opacity:1;fill-rule:evenodd;stroke:none;stroke-width:2;stroke-linecap:round;stroke-linejoin:round;stroke-miterlimit:4;stroke-dasharray:none;stroke-dashoffset:0;stroke-opacity:1;paint-order:stroke fill markers;color-rendering:auto;image-rendering:auto;shape-rendering:auto;text-rendering:auto;enable-background:accumulate"
       d="M 8 4 C 5.784 4 4 5.784 4 8 L 4 40 C 4 42.216 5.784 44 8 44 L 12 44 C 12 44 13.090308 42.115645 13.957031 40 L 31 40 C 34 40 34 44 38 44 L 40 44 C 42.216 44 44 42.216 44 40 L 44 8 C 44 5.784 42.216 4 40 4 L 8 4 z M 8 5 L 40 5 C 41.679297 5 43 6.3207028 43 8 L 43 40 C 43 41.679297 41.679297 43 40 43 L 38 43 C 36.333333 43 35.720873 42.306277 34.876953 41.341797 C 34.454993 40.859557 34.018792 40.306698 33.408203 39.833984 C 32.797614 39.36127 31.972222 39 31 39 L 13.957031 39 A 1.0001 1.0001 0 0 0 13.03125 39.621094 C 12.304588 41.394855 11.598899 42.610243 11.378906 43 L 8 43 C 6.3207028 43 5 41.679297 5 40 L 5 8 C 5 6.3207028 6.3207028 5 8 5 z "
       id="rect1373-2" />
  </g>
</svg>
