<?xml version="1.0" encoding="UTF-8" standalone="no"?>
<!-- Created with Inkscape (http://www.inkscape.org/) -->

<svg
   xmlns:dc="http://purl.org/dc/elements/1.1/"
   xmlns:cc="http://creativecommons.org/ns#"
   xmlns:rdf="http://www.w3.org/1999/02/22-rdf-syntax-ns#"
   xmlns:svg="http://www.w3.org/2000/svg"
   xmlns="http://www.w3.org/2000/svg"
   xmlns:sodipodi="http://sodipodi.sourceforge.net/DTD/sodipodi-0.dtd"
   xmlns:inkscape="http://www.inkscape.org/namespaces/inkscape"
   width="48px"
   height="48px"
   viewBox="0 0 48 48"
   version="1.1"
   id="SVGRoot"
   inkscape:version="0.92.4 (5da689c313, 2019-01-14)"
   sodipodi:docname="CortexCommand.svg">
  <defs
     id="defs815" />
  <sodipodi:namedview
     id="base"
     pagecolor="#ffffff"
     bordercolor="#666666"
     borderopacity="1.0"
     inkscape:pageopacity="0.0"
     inkscape:pageshadow="2"
     inkscape:zoom="55.411021"
     inkscape:cx="39.23604"
     inkscape:cy="16.733363"
     inkscape:document-units="px"
     inkscape:current-layer="layer1"
     showgrid="true"
     inkscape:window-width="1920"
     inkscape:window-height="1017"
     inkscape:window-x="-8"
     inkscape:window-y="-8"
     inkscape:window-maximized="1"
     inkscape:grid-bbox="true"
     inkscape:snap-global="true">
    <inkscape:grid
       type="xygrid"
       id="grid1371" />
  </sodipodi:namedview>
  <metadata
     id="metadata818">
    <rdf:RDF>
      <cc:Work
         rdf:about="">
        <dc:format>image/svg+xml</dc:format>
        <dc:type
           rdf:resource="http://purl.org/dc/dcmitype/StillImage" />
        <dc:title />
      </cc:Work>
    </rdf:RDF>
  </metadata>
  <g
     inkscape:label="Layer 1"
     inkscape:groupmode="layer"
     id="layer1">
    <rect
       style="opacity:1;vector-effect:none;fill:#4e4e4e;fill-opacity:1;fill-rule:evenodd;stroke:none;stroke-width:4;stroke-linecap:round;stroke-linejoin:round;stroke-miterlimit:4;stroke-dasharray:none;stroke-dashoffset:0;stroke-opacity:1;paint-order:stroke fill markers"
       id="rect1373"
       width="40"
       height="40"
       x="4"
       y="4"
       ry="4" />
    <path
       style="opacity:0.4;vector-effect:none;fill:#000000;fill-opacity:1;fill-rule:evenodd;stroke:none;stroke-width:4;stroke-linecap:round;stroke-linejoin:round;stroke-miterlimit:4;stroke-dasharray:none;stroke-dashoffset:0;stroke-opacity:1;paint-order:stroke fill markers"
       d="M 8 4 C 5.784 4 4 5.784 4 8 L 4 40 C 4 42.216 5.784 44 8 44 L 40 44 C 42.216 44 44 42.216 44 40 L 44 8 C 44 5.784 42.216 4 40 4 L 8 4 z M 8 5 L 40 5 C 41.662 5 43 6.338 43 8 L 43 40 C 43 41.662 41.662 43 40 43 L 8 43 C 6.338 43 5 41.662 5 40 L 5 8 C 5 6.338 6.338 5 8 5 z "
       id="rect826" />
    <path
       style="opacity:1;vector-effect:none;fill:#c29441;fill-opacity:1;fill-rule:evenodd;stroke:none;stroke-width:2;stroke-linecap:round;stroke-linejoin:round;stroke-miterlimit:4;stroke-dasharray:none;stroke-dashoffset:0;stroke-opacity:1;paint-order:stroke fill markers"
       d="m 20,26 v 2 h 2 v 2 l 2,2 2,-2 v -2 h 2 v -2 z"
       id="rect839"
       inkscape:connector-curvature="0"
       sodipodi:nodetypes="cccccccccc" />
    <path
       style="opacity:1;vector-effect:none;fill:#b0b0b0;fill-opacity:1;fill-rule:evenodd;stroke:none;stroke-width:2.30940127;stroke-linecap:round;stroke-linejoin:round;stroke-miterlimit:4;stroke-dasharray:none;stroke-dashoffset:0;stroke-opacity:1;paint-order:stroke fill markers"
       d="M 16 30 L 16 32 L 14 32 L 14 38 L 34 38 L 34 32 L 32 32 L 32 30 L 28 30 L 28 32 L 26 32 L 26 30 L 22 30 L 22 32 L 20 32 L 20 30 L 16 30 z "
       id="rect831" />
    <rect
       style="opacity:1;vector-effect:none;fill:#df7266;fill-opacity:1;fill-rule:evenodd;stroke:none;stroke-width:2;stroke-linecap:round;stroke-linejoin:round;stroke-miterlimit:4;stroke-dasharray:none;stroke-dashoffset:0;stroke-opacity:1;paint-order:stroke fill markers"
       id="rect844"
       width="12"
       height="6"
       x="18"
       y="20" />
    <rect
       style="opacity:1;vector-effect:none;fill:#df7266;fill-opacity:1;fill-rule:evenodd;stroke:none;stroke-width:2;stroke-linecap:round;stroke-linejoin:round;stroke-miterlimit:4;stroke-dasharray:none;stroke-dashoffset:0;stroke-opacity:1;paint-order:stroke fill markers"
       id="rect846"
       width="8"
       height="5"
       x="20"
       y="18" />
    <path
       style="opacity:1;vector-effect:none;fill:#729dec;fill-opacity:1;fill-rule:evenodd;stroke:none;stroke-width:2.44948983;stroke-linecap:round;stroke-linejoin:round;stroke-miterlimit:4;stroke-dasharray:none;stroke-dashoffset:0;stroke-opacity:1;paint-order:stroke fill markers"
       d="M 18 10 L 18 12 L 14 12 L 14 14 L 12 14 L 12 18 L 10 18 L 10 28 L 12 28 L 12 32 L 16 32 L 16 26 L 14 26 L 14 20 L 16 20 L 16 16 L 20 16 L 20 14 L 28 14 L 28 16 L 32 16 L 32 20 L 34 20 L 34 26 L 32 26 L 32 32 L 36 32 L 36 28 L 38 28 L 38 18 L 36 18 L 36 14 L 34 14 L 34 12 L 30 12 L 30 10 L 18 10 z "
       id="rect848" />
    <path
       style="opacity:1;vector-effect:none;fill:#846937;fill-opacity:1;fill-rule:evenodd;stroke:none;stroke-width:2;stroke-linecap:round;stroke-linejoin:round;stroke-miterlimit:4;stroke-dasharray:none;stroke-dashoffset:0;stroke-opacity:1;paint-order:stroke fill markers"
       d="M 18 34 L 18 36 L 16 36 L 16 38 L 18 38 L 30 38 L 32 38 L 32 36 L 30 36 L 30 34 L 18 34 z "
       id="rect971" />
    <path
       style="opacity:1;vector-effect:none;fill:#e5e7e8;fill-opacity:1;fill-rule:evenodd;stroke:none;stroke-width:2;stroke-linecap:round;stroke-linejoin:round;stroke-miterlimit:4;stroke-dasharray:none;stroke-dashoffset:0;stroke-opacity:1;paint-order:stroke fill markers"
       d="M 20 32 L 20 36 L 18 36 L 18 38 L 20 38 L 28 38 L 30 38 L 30 36 L 28 36 L 28 32 L 20 32 z "
       id="rect914" />
    <rect
       style="opacity:1;vector-effect:none;fill:#ae3e32;fill-opacity:1;fill-rule:evenodd;stroke:none;stroke-width:2;stroke-linecap:round;stroke-linejoin:round;stroke-miterlimit:4;stroke-dasharray:none;stroke-dashoffset:0;stroke-opacity:1;paint-order:stroke fill markers"
       id="rect923"
       width="2"
       height="2"
       x="18"
       y="24" />
    <path
       style="opacity:1;vector-effect:none;fill:#fc9898;fill-opacity:1;fill-rule:evenodd;stroke:none;stroke-width:2;stroke-linecap:round;stroke-linejoin:round;stroke-miterlimit:4;stroke-dasharray:none;stroke-dashoffset:0;stroke-opacity:1;paint-order:stroke fill markers"
       d="M 22 18 L 22 20 L 20 20 L 20 24 L 26 24 L 26 20 L 26 18 L 22 18 z "
       id="rect994" />
    <rect
       style="opacity:1;vector-effect:none;fill:#ae3e32;fill-opacity:1;fill-rule:evenodd;stroke:none;stroke-width:2;stroke-linecap:round;stroke-linejoin:round;stroke-miterlimit:4;stroke-dasharray:none;stroke-dashoffset:0;stroke-opacity:1;paint-order:stroke fill markers"
       id="rect925"
       width="4"
       height="2"
       x="26"
       y="24" />
    <rect
       style="opacity:1;vector-effect:none;fill:#ae3e32;fill-opacity:1;fill-rule:evenodd;stroke:none;stroke-width:2;stroke-linecap:round;stroke-linejoin:round;stroke-miterlimit:4;stroke-dasharray:none;stroke-dashoffset:0;stroke-opacity:1;paint-order:stroke fill markers"
       id="rect927"
       width="2"
       height="6"
       x="28"
       y="20" />
    <path
       style="opacity:1;vector-effect:none;fill:#ffe4e4;fill-opacity:1;fill-rule:evenodd;stroke:none;stroke-width:2;stroke-linecap:round;stroke-linejoin:round;stroke-miterlimit:4;stroke-dasharray:none;stroke-dashoffset:0;stroke-opacity:1;paint-order:stroke fill markers"
       d="M 22 20 L 22 22 L 24 22 L 24 20 L 22 20 z M 22 22 L 20 22 L 20 24 L 22 24 L 22 22 z "
       id="rect929" />
    <path
       style="opacity:1;vector-effect:none;fill:#4976c8;fill-opacity:1;fill-rule:evenodd;stroke:none;stroke-width:2;stroke-linecap:round;stroke-linejoin:round;stroke-miterlimit:4;stroke-dasharray:none;stroke-dashoffset:0;stroke-opacity:1;paint-order:stroke fill markers"
       d="M 20 12 L 20 14 L 28 14 L 28 12 L 20 12 z M 28 14 L 28 16 L 32 16 L 32 14 L 28 14 z M 32 16 L 32 20 L 34 20 L 34 16 L 32 16 z M 34 20 L 34 26 L 36 26 L 36 20 L 34 20 z M 34 26 L 32 26 L 32 30 L 34 30 L 34 26 z M 20 14 L 16 14 L 16 16 L 20 16 L 20 14 z M 16 16 L 14 16 L 14 20 L 16 20 L 16 16 z M 14 20 L 12 20 L 12 26 L 14 26 L 14 20 z M 14 26 L 14 30 L 16 30 L 16 26 L 14 26 z "
       id="rect933" />
    <rect
       style="opacity:1;vector-effect:none;fill:#c0d3f7;fill-opacity:1;fill-rule:evenodd;stroke:none;stroke-width:2;stroke-linecap:round;stroke-linejoin:round;stroke-miterlimit:4;stroke-dasharray:none;stroke-dashoffset:0;stroke-opacity:1;paint-order:stroke fill markers"
       id="rect967"
       width="2"
       height="4"
       x="14"
       y="14" />
    <rect
       style="opacity:1;vector-effect:none;fill:#c0d3f7;fill-opacity:1;fill-rule:evenodd;stroke:none;stroke-width:2;stroke-linecap:round;stroke-linejoin:round;stroke-miterlimit:4;stroke-dasharray:none;stroke-dashoffset:0;stroke-opacity:1;paint-order:stroke fill markers"
       id="rect969"
       width="4"
       height="2"
       x="14"
       y="14" />
    <rect
       style="opacity:0.25;vector-effect:none;fill:#000000;fill-opacity:1;fill-rule:evenodd;stroke:none;stroke-width:2;stroke-linecap:round;stroke-linejoin:round;stroke-miterlimit:4;stroke-dasharray:none;stroke-dashoffset:0;stroke-opacity:1;paint-order:stroke fill markers"
       id="rect1000"
       width="2"
       height="4"
       x="14"
       y="34" />
    <rect
       style="opacity:1;vector-effect:none;fill:#b0b0b0;fill-opacity:1;fill-rule:evenodd;stroke:none;stroke-width:2;stroke-linecap:round;stroke-linejoin:round;stroke-miterlimit:4;stroke-dasharray:none;stroke-dashoffset:0;stroke-opacity:1;paint-order:stroke fill markers"
       id="rect1002"
       width="12"
       height="2"
       x="18"
       y="36" />
    <rect
       style="opacity:0.25;vector-effect:none;fill:#000000;fill-opacity:1;fill-rule:evenodd;stroke:none;stroke-width:2;stroke-linecap:round;stroke-linejoin:round;stroke-miterlimit:4;stroke-dasharray:none;stroke-dashoffset:0;stroke-opacity:1;paint-order:stroke fill markers"
       id="rect1004"
       width="2"
       height="4"
       x="32"
       y="34" />
  </g>
</svg>
