<?xml version="1.0" encoding="UTF-8" standalone="no"?>
<!-- Created with Inkscape (http://www.inkscape.org/) -->

<svg
   xmlns:dc="http://purl.org/dc/elements/1.1/"
   xmlns:cc="http://creativecommons.org/ns#"
   xmlns:rdf="http://www.w3.org/1999/02/22-rdf-syntax-ns#"
   xmlns:svg="http://www.w3.org/2000/svg"
   xmlns="http://www.w3.org/2000/svg"
   xmlns:sodipodi="http://sodipodi.sourceforge.net/DTD/sodipodi-0.dtd"
   xmlns:inkscape="http://www.inkscape.org/namespaces/inkscape"
   width="48px"
   height="48px"
   viewBox="0 0 48 48"
   version="1.1"
   id="SVGRoot"
   inkscape:version="0.92.4 (5da689c313, 2019-01-14)"
   sodipodi:docname="crossniq-plus.svg">
  <defs
     id="defs815" />
  <sodipodi:namedview
     id="base"
     pagecolor="#ffffff"
     bordercolor="#666666"
     borderopacity="1.0"
     inkscape:pageopacity="0.0"
     inkscape:pageshadow="2"
     inkscape:zoom="22.744524"
     inkscape:cx="26.149739"
     inkscape:cy="22.166555"
     inkscape:document-units="px"
     inkscape:current-layer="layer1"
     showgrid="true"
     inkscape:window-width="1920"
     inkscape:window-height="1017"
     inkscape:window-x="-8"
     inkscape:window-y="-8"
     inkscape:window-maximized="1"
     inkscape:grid-bbox="true"
     inkscape:snap-global="true">
    <inkscape:grid
       type="xygrid"
       id="grid1371" />
  </sodipodi:namedview>
  <metadata
     id="metadata818">
    <rdf:RDF>
      <cc:Work
         rdf:about="">
        <dc:format>image/svg+xml</dc:format>
        <dc:type
           rdf:resource="http://purl.org/dc/dcmitype/StillImage" />
        <dc:title></dc:title>
      </cc:Work>
    </rdf:RDF>
  </metadata>
  <g
     inkscape:label="Layer 1"
     inkscape:groupmode="layer"
     id="layer1">
    <rect
       style="opacity:1;vector-effect:none;fill:#71b9e3;fill-opacity:1;fill-rule:evenodd;stroke:none;stroke-width:1.90476191;stroke-linecap:round;stroke-linejoin:round;stroke-miterlimit:4;stroke-dasharray:none;stroke-opacity:1;paint-order:normal"
       id="rect818"
       width="12"
       height="12"
       x="4"
       y="4"
       ry="4" />
    <rect
       style="opacity:1;vector-effect:none;fill:#b7bfc2;fill-opacity:1;fill-rule:evenodd;stroke:none;stroke-width:1.90476191;stroke-linecap:round;stroke-linejoin:round;stroke-miterlimit:4;stroke-dasharray:none;stroke-opacity:1;paint-order:normal"
       id="rect818-4"
       width="12"
       height="12"
       x="18"
       y="4"
       ry="4" />
    <rect
       style="opacity:1;vector-effect:none;fill:#71b9e3;fill-opacity:1;fill-rule:evenodd;stroke:none;stroke-width:1.90476191;stroke-linecap:round;stroke-linejoin:round;stroke-miterlimit:4;stroke-dasharray:none;stroke-opacity:1;paint-order:normal"
       id="rect818-6"
       width="12"
       height="12"
       x="32"
       y="4"
       ry="4" />
    <rect
       style="opacity:1;vector-effect:none;fill:#b7bfc2;fill-opacity:1;fill-rule:evenodd;stroke:none;stroke-width:1.90476191;stroke-linecap:round;stroke-linejoin:round;stroke-miterlimit:4;stroke-dasharray:none;stroke-opacity:1;paint-order:normal"
       id="rect818-3"
       width="12"
       height="12"
       x="4"
       y="18"
       ry="4" />
    <rect
       style="opacity:1;vector-effect:none;fill:#71b9e3;fill-opacity:1;fill-rule:evenodd;stroke:none;stroke-width:1.90476191;stroke-linecap:round;stroke-linejoin:round;stroke-miterlimit:4;stroke-dasharray:none;stroke-opacity:1;paint-order:normal"
       id="rect818-4-7"
       width="12"
       height="12"
       x="18"
       y="18"
       ry="4" />
    <rect
       style="opacity:1;vector-effect:none;fill:#b7bfc2;fill-opacity:1;fill-rule:evenodd;stroke:none;stroke-width:1.90476191;stroke-linecap:round;stroke-linejoin:round;stroke-miterlimit:4;stroke-dasharray:none;stroke-opacity:1;paint-order:normal"
       id="rect818-6-4"
       width="12"
       height="12"
       x="32"
       y="18"
       ry="4" />
    <rect
       style="opacity:1;vector-effect:none;fill:#71b9e3;fill-opacity:1;fill-rule:evenodd;stroke:none;stroke-width:1.90476191;stroke-linecap:round;stroke-linejoin:round;stroke-miterlimit:4;stroke-dasharray:none;stroke-opacity:1;paint-order:normal"
       id="rect818-9"
       width="12"
       height="12"
       x="4"
       y="32"
       ry="4" />
    <rect
       style="opacity:1;vector-effect:none;fill:#b7bfc2;fill-opacity:1;fill-rule:evenodd;stroke:none;stroke-width:1.90476191;stroke-linecap:round;stroke-linejoin:round;stroke-miterlimit:4;stroke-dasharray:none;stroke-opacity:1;paint-order:normal"
       id="rect818-4-4"
       width="12"
       height="12"
       x="18"
       y="32"
       ry="4" />
    <rect
       style="opacity:1;vector-effect:none;fill:#71b9e3;fill-opacity:1;fill-rule:evenodd;stroke:none;stroke-width:2;stroke-linecap:round;stroke-linejoin:round;stroke-miterlimit:4;stroke-dasharray:none;stroke-opacity:1;paint-order:normal"
       id="rect872"
       width="12"
       height="4"
       x="32"
       y="36"
       ry="1" />
    <rect
       style="opacity:1;vector-effect:none;fill:#71b9e3;fill-opacity:1;fill-rule:evenodd;stroke:none;stroke-width:2;stroke-linecap:round;stroke-linejoin:round;stroke-miterlimit:4;stroke-dasharray:none;stroke-opacity:1;paint-order:normal"
       id="rect874"
       width="4"
       height="12"
       x="36"
       y="32"
       ry="1" />
    <path
       style="opacity:0.25;vector-effect:none;fill:#000000;fill-opacity:1;fill-rule:evenodd;stroke:none;stroke-width:2;stroke-linecap:round;stroke-linejoin:round;stroke-miterlimit:4;stroke-dasharray:none;stroke-opacity:1;paint-order:normal"
       d="M 8 4 C 5.784 4 4 5.784 4 8 L 4 12 C 4 14.216 5.784 16 8 16 L 12 16 C 14.216 16 16 14.216 16 12 L 16 8 C 16 5.784 14.216 4 12 4 L 8 4 z M 8 5 L 12 5 C 13.662 5 15 6.338 15 8 L 15 12 C 15 13.662 13.662 15 12 15 L 8 15 C 6.338 15 5 13.662 5 12 L 5 8 C 5 6.338 6.338 5 8 5 z "
       id="rect876" />
    <path
       style="opacity:0.25;vector-effect:none;fill:#000000;fill-opacity:1;fill-rule:evenodd;stroke:none;stroke-width:2;stroke-linecap:round;stroke-linejoin:round;stroke-miterlimit:4;stroke-dasharray:none;stroke-opacity:1;paint-order:normal"
       d="M 37 32 C 36.446 32 36 32.446 36 33 L 36 36 L 33 36 C 32.446 36 32 36.446 32 37 L 32 39 C 32 39.554 32.446 40 33 40 L 36 40 L 36 43 C 36 43.554 36.446 44 37 44 L 39 44 C 39.554 44 40 43.554 40 43 L 40 40 L 43 40 C 43.554 40 44 39.554 44 39 L 44 37 C 44 36.446 43.554 36 43 36 L 40 36 L 40 33 C 40 32.446 39.554 32 39 32 L 37 32 z M 37.5 33 L 38.5 33 C 38.777 33 39 33.223 39 33.5 L 39 35 L 39 36 L 39 37 L 40 37 L 41 37 L 42.5 37 C 42.777 37 43 37.223 43 37.5 L 43 38.5 C 43 38.777 42.777 39 42.5 39 L 41 39 L 40 39 L 39 39 L 39 40 L 39 41 L 39 42.5 C 39 42.777 38.777 43 38.5 43 L 37.5 43 C 37.223 43 37 42.777 37 42.5 L 37 41 L 37 40 L 37 39 L 36 39 L 35 39 L 33.5 39 C 33.223 39 33 38.777 33 38.5 L 33 37.5 C 33 37.223 33.223 37 33.5 37 L 35 37 L 36 37 L 37 37 L 37 36 L 37 35 L 37 33.5 C 37 33.223 37.223 33 37.5 33 z "
       id="rect881" />
    <path
       inkscape:connector-curvature="0"
       style="opacity:0.25;vector-effect:none;fill:#000000;fill-opacity:1;fill-rule:evenodd;stroke:none;stroke-width:2;stroke-linecap:round;stroke-linejoin:round;stroke-miterlimit:4;stroke-dasharray:none;stroke-opacity:1;paint-order:normal"
       d="m 22,4 c -2.216,0 -4,1.784 -4,4 v 4 c 0,2.216 1.784,4 4,4 h 4 c 2.216,0 4,-1.784 4,-4 V 8 C 30,5.784 28.216,4 26,4 Z m 0,1 h 4 c 1.662,0 3,1.338 3,3 v 4 c 0,1.662 -1.338,3 -3,3 h -4 c -1.662,0 -3,-1.338 -3,-3 V 8 c 0,-1.662 1.338,-3 3,-3 z"
       id="rect876-8" />
    <path
       inkscape:connector-curvature="0"
       style="opacity:0.25;vector-effect:none;fill:#000000;fill-opacity:1;fill-rule:evenodd;stroke:none;stroke-width:2;stroke-linecap:round;stroke-linejoin:round;stroke-miterlimit:4;stroke-dasharray:none;stroke-opacity:1;paint-order:normal"
       d="m 36,4 c -2.216,0 -4,1.784 -4,4 v 4 c 0,2.216 1.784,4 4,4 h 4 c 2.216,0 4,-1.784 4,-4 V 8 C 44,5.784 42.216,4 40,4 Z m 0,1 h 4 c 1.662,0 3,1.338 3,3 v 4 c 0,1.662 -1.338,3 -3,3 h -4 c -1.662,0 -3,-1.338 -3,-3 V 8 c 0,-1.662 1.338,-3 3,-3 z"
       id="rect876-2" />
    <path
       inkscape:connector-curvature="0"
       style="opacity:0.25;vector-effect:none;fill:#000000;fill-opacity:1;fill-rule:evenodd;stroke:none;stroke-width:2;stroke-linecap:round;stroke-linejoin:round;stroke-miterlimit:4;stroke-dasharray:none;stroke-opacity:1;paint-order:normal"
       d="m 8,18 c -2.216,0 -4,1.784 -4,4 v 4 c 0,2.216 1.784,4 4,4 h 4 c 2.216,0 4,-1.784 4,-4 v -4 c 0,-2.216 -1.784,-4 -4,-4 z m 0,1 h 4 c 1.662,0 3,1.338 3,3 v 4 c 0,1.662 -1.338,3 -3,3 H 8 C 6.338,29 5,27.662 5,26 v -4 c 0,-1.662 1.338,-3 3,-3 z"
       id="rect876-5" />
    <path
       inkscape:connector-curvature="0"
       style="opacity:0.25;vector-effect:none;fill:#000000;fill-opacity:1;fill-rule:evenodd;stroke:none;stroke-width:2;stroke-linecap:round;stroke-linejoin:round;stroke-miterlimit:4;stroke-dasharray:none;stroke-opacity:1;paint-order:normal"
       d="m 22,18 c -2.216,0 -4,1.784 -4,4 v 4 c 0,2.216 1.784,4 4,4 h 4 c 2.216,0 4,-1.784 4,-4 v -4 c 0,-2.216 -1.784,-4 -4,-4 z m 0,1 h 4 c 1.662,0 3,1.338 3,3 v 4 c 0,1.662 -1.338,3 -3,3 h -4 c -1.662,0 -3,-1.338 -3,-3 v -4 c 0,-1.662 1.338,-3 3,-3 z"
       id="rect876-8-9" />
    <path
       inkscape:connector-curvature="0"
       style="opacity:0.25;vector-effect:none;fill:#000000;fill-opacity:1;fill-rule:evenodd;stroke:none;stroke-width:2;stroke-linecap:round;stroke-linejoin:round;stroke-miterlimit:4;stroke-dasharray:none;stroke-opacity:1;paint-order:normal"
       d="m 36,18 c -2.216,0 -4,1.784 -4,4 v 4 c 0,2.216 1.784,4 4,4 h 4 c 2.216,0 4,-1.784 4,-4 v -4 c 0,-2.216 -1.784,-4 -4,-4 z m 0,1 h 4 c 1.662,0 3,1.338 3,3 v 4 c 0,1.662 -1.338,3 -3,3 h -4 c -1.662,0 -3,-1.338 -3,-3 v -4 c 0,-1.662 1.338,-3 3,-3 z"
       id="rect876-2-1" />
    <path
       inkscape:connector-curvature="0"
       style="opacity:0.25;vector-effect:none;fill:#000000;fill-opacity:1;fill-rule:evenodd;stroke:none;stroke-width:2;stroke-linecap:round;stroke-linejoin:round;stroke-miterlimit:4;stroke-dasharray:none;stroke-opacity:1;paint-order:normal"
       d="m 8,32 c -2.216,0 -4,1.784 -4,4 v 4 c 0,2.216 1.784,4 4,4 h 4 c 2.216,0 4,-1.784 4,-4 v -4 c 0,-2.216 -1.784,-4 -4,-4 z m 0,1 h 4 c 1.662,0 3,1.338 3,3 v 4 c 0,1.662 -1.338,3 -3,3 H 8 C 6.338,43 5,41.662 5,40 v -4 c 0,-1.662 1.338,-3 3,-3 z"
       id="rect876-5-9" />
    <path
       inkscape:connector-curvature="0"
       style="opacity:0.25;vector-effect:none;fill:#000000;fill-opacity:1;fill-rule:evenodd;stroke:none;stroke-width:2;stroke-linecap:round;stroke-linejoin:round;stroke-miterlimit:4;stroke-dasharray:none;stroke-opacity:1;paint-order:normal"
       d="m 22,32 c -2.216,0 -4,1.784 -4,4 v 4 c 0,2.216 1.784,4 4,4 h 4 c 2.216,0 4,-1.784 4,-4 v -4 c 0,-2.216 -1.784,-4 -4,-4 z m 0,1 h 4 c 1.662,0 3,1.338 3,3 v 4 c 0,1.662 -1.338,3 -3,3 h -4 c -1.662,0 -3,-1.338 -3,-3 v -4 c 0,-1.662 1.338,-3 3,-3 z"
       id="rect876-8-9-0" />
    <path
       style="opacity:1;vector-effect:none;fill:#ffffff;fill-opacity:1;fill-rule:evenodd;stroke:none;stroke-width:2;stroke-linecap:round;stroke-linejoin:round;stroke-miterlimit:4;stroke-dasharray:none;stroke-opacity:1;paint-order:normal"
       d="M 8 6 C 6.892 6 6 6.892 6 8 L 6 12 C 6 13.108 6.892 14 8 14 L 12 14 C 13.108 14 14 13.108 14 12 L 9 12 C 8.446 12 8 11.554 8 11 L 8 9 C 8 8.446 8.446 8 9 8 L 14 8 C 14 6.892 13.108 6 12 6 L 8 6 z "
       id="rect1042" />
    <path
       style="opacity:1;vector-effect:none;fill:#ffffff;fill-opacity:1;fill-rule:evenodd;stroke:none;stroke-width:2;stroke-linecap:round;stroke-linejoin:round;stroke-miterlimit:4;stroke-dasharray:none;stroke-opacity:1;paint-order:normal"
       d="M 22 6 C 20.892 6 20 6.892 20 8 L 20 12 C 20 13.108 20.892 14 22 14 L 22 9 C 22 8.446 22.446 8 23 8 L 28 8 C 28 6.892 27.108 6 26 6 L 22 6 z "
       id="rect1049" />
    <path
       style="opacity:1;vector-effect:none;fill:#ffffff;fill-opacity:1;fill-rule:evenodd;stroke:none;stroke-width:2;stroke-linecap:round;stroke-linejoin:round;stroke-miterlimit:4;stroke-dasharray:none;stroke-opacity:1;paint-order:normal"
       d="M 36 6 C 34.892 6 34 6.892 34 8 L 34 12 C 34 13.108 34.892 14 36 14 L 40 14 C 41.108 14 42 13.108 42 12 L 42 8 C 42 6.892 41.108 6 40 6 L 36 6 z M 37 8 L 39 8 C 39.554 8 40 8.446 40 9 L 40 11 C 40 11.554 39.554 12 39 12 L 37 12 C 36.446 12 36 11.554 36 11 L 36 9 C 36 8.446 36.446 8 37 8 z "
       id="rect1054" />
    <path
       style="opacity:1;vector-effect:none;fill:#ffffff;fill-opacity:1;fill-rule:evenodd;stroke:none;stroke-width:2;stroke-linecap:round;stroke-linejoin:round;stroke-miterlimit:4;stroke-dasharray:none;stroke-opacity:1;paint-order:normal"
       d="M 8 20 C 6.892 20 6 20.892 6 22 L 6 24 L 9.0664062 24 C 9.58387 24 10 24.41613 10 24.933594 L 10 25.066406 C 10 25.58387 9.58387 26 9.0664062 26 L 6 26 C 6 27.108 6.892 28 8 28 L 12 28 C 13.108 28 14 27.108 14 26 L 14 24 L 11 24 C 10.446 24 10 23.554 10 23 C 10 22.446 10.446 22 11 22 L 14 22 C 14 20.892 13.108 20 12 20 L 8 20 z "
       id="rect1059" />
    <path
       inkscape:connector-curvature="0"
       style="opacity:1;vector-effect:none;fill:#ffffff;fill-opacity:1;fill-rule:evenodd;stroke:none;stroke-width:2;stroke-linecap:round;stroke-linejoin:round;stroke-miterlimit:4;stroke-dasharray:none;stroke-opacity:1;paint-order:normal"
       d="m 22,20 c -1.108,0 -2,0.892 -2,2 v 2 h 3.066406 C 23.58387,24 24,24.41613 24,24.933594 v 0.132812 C 24,25.58387 23.58387,26 23.066406,26 H 20 c 0,1.108 0.892,2 2,2 h 4 c 1.108,0 2,-0.892 2,-2 v -2 h -3 c -0.554,0 -1,-0.446 -1,-1 0,-0.554 0.446,-1 1,-1 h 3 c 0,-1.108 -0.892,-2 -2,-2 z"
       id="rect1059-7" />
    <path
       style="opacity:1;vector-effect:none;fill:#ffffff;fill-opacity:1;fill-rule:evenodd;stroke:none;stroke-width:2;stroke-linecap:round;stroke-linejoin:round;stroke-miterlimit:4;stroke-dasharray:none;stroke-opacity:1;paint-order:normal"
       d="M 36 20 C 34.892 20 34 20.892 34 22 L 34 26 C 34 27.108 34.892 28 36 28 L 36 23 C 36 22.446 36.446 22 37 22 L 39 22 C 39.554 22 40 22.446 40 23 L 40 28 C 41.108 28 42 27.108 42 26 L 42 22 C 42 20.892 41.108 20 40 20 L 36 20 z "
       id="rect1082" />
    <rect
       style="opacity:1;vector-effect:none;fill:#ffffff;fill-opacity:1;fill-rule:evenodd;stroke:none;stroke-width:2;stroke-linecap:round;stroke-linejoin:round;stroke-miterlimit:4;stroke-dasharray:none;stroke-opacity:1;paint-order:normal"
       id="rect1087"
       width="2"
       height="8"
       x="9"
       y="34" />
    <path
       style="opacity:1;vector-effect:none;fill:#ffffff;fill-opacity:1;fill-rule:evenodd;stroke:none;stroke-width:2;stroke-linecap:round;stroke-linejoin:round;stroke-miterlimit:4;stroke-dasharray:none;stroke-opacity:1;paint-order:normal"
       d="M 22 34 C 20.892 34 20 34.892 20 36 L 20 38 C 20 39.108 20.892 40 22 40 L 24 40 L 24 38 L 23 38 C 22.446 38 22 37.554 22 37 C 22 36.446 22.446 36 23 36 L 25 36 C 25.554 36 26 36.446 26 37 L 26 40 L 26 42 C 27.108 42 28 41.108 28 40 L 28 38 L 28 36 C 28 34.892 27.108 34 26 34 L 22 34 z "
       id="rect1097" />
  </g>
</svg>
