<?xml version="1.0" encoding="UTF-8" standalone="no"?>
<!-- Created with Inkscape (http://www.inkscape.org/) -->

<svg
   xmlns:dc="http://purl.org/dc/elements/1.1/"
   xmlns:cc="http://creativecommons.org/ns#"
   xmlns:rdf="http://www.w3.org/1999/02/22-rdf-syntax-ns#"
   xmlns:svg="http://www.w3.org/2000/svg"
   xmlns="http://www.w3.org/2000/svg"
   xmlns:xlink="http://www.w3.org/1999/xlink"
   xmlns:sodipodi="http://sodipodi.sourceforge.net/DTD/sodipodi-0.dtd"
   xmlns:inkscape="http://www.inkscape.org/namespaces/inkscape"
   width="48px"
   height="48px"
   viewBox="0 0 48 48"
   version="1.1"
   id="SVGRoot"
   inkscape:version="0.92.4 (5da689c313, 2019-01-14)"
   sodipodi:docname="cs2.svg">
  <defs
     id="defs815">
    <linearGradient
       gradientTransform="matrix(0.9965784,0,0,0.9962666,-89.841948,-62.996045)"
       id="IcecapTip-6"
       xlink:href="#WhiteTransparent-4"
       x1="60"
       y1="20"
       x2="90"
       y2="50"
       gradientUnits="userSpaceOnUse" />
    <linearGradient
       id="WhiteTransparent-4"
       gradientUnits="userSpaceOnUse">
      <stop
         style="stop-color:white;stop-opacity:1"
         offset="0"
         id="stop7606-4" />
      <stop
         style="stop-color:white;stop-opacity:0"
         offset="1"
         id="stop7608-7" />
    </linearGradient>
  </defs>
  <sodipodi:namedview
     id="base"
     pagecolor="#ffffff"
     bordercolor="#666666"
     borderopacity="1.0"
     inkscape:pageopacity="0.0"
     inkscape:pageshadow="2"
     inkscape:zoom="13.632692"
     inkscape:cx="24.139251"
     inkscape:cy="26.964662"
     inkscape:document-units="px"
     inkscape:current-layer="layer1"
     showgrid="true"
     inkscape:window-width="1920"
     inkscape:window-height="1017"
     inkscape:window-x="-8"
     inkscape:window-y="-8"
     inkscape:window-maximized="1"
     inkscape:grid-bbox="true"
     inkscape:snap-global="true">
    <inkscape:grid
       type="xygrid"
       id="grid1371" />
  </sodipodi:namedview>
  <metadata
     id="metadata818">
    <rdf:RDF>
      <cc:Work
         rdf:about="">
        <dc:format>image/svg+xml</dc:format>
        <dc:type
           rdf:resource="http://purl.org/dc/dcmitype/StillImage" />
        <dc:title></dc:title>
      </cc:Work>
    </rdf:RDF>
  </metadata>
  <g
     inkscape:label="Layer 1"
     inkscape:groupmode="layer"
     id="layer1">
    <rect
       style="opacity:1;vector-effect:none;fill:#f6a559;fill-opacity:1;fill-rule:evenodd;stroke:none;stroke-width:4;stroke-linecap:round;stroke-linejoin:round;stroke-miterlimit:4;stroke-dasharray:none;stroke-dashoffset:0;stroke-opacity:1;paint-order:stroke fill markers"
       id="rect1373"
       width="40"
       height="40"
       x="4"
       y="4"
       ry="4" />
    <path
       style="fill:#627ad4;stroke:none;stroke-width:1px;stroke-linecap:butt;stroke-linejoin:miter;stroke-opacity:1"
       d="M 24 4 L 24 12 L 25 13 L 21 22 L 26 29 L 22 37 L 22 44 L 40 44 C 42.216 44 44 42.216 44 40 L 44 8 C 44 5.784 42.216 4 40 4 L 24 4 z "
       id="path853" />
    <path
       style="opacity:0.25;vector-effect:none;fill:#000000;fill-opacity:1;fill-rule:evenodd;stroke:none;stroke-width:4;stroke-linecap:round;stroke-linejoin:round;stroke-miterlimit:4;stroke-dasharray:none;stroke-dashoffset:0;stroke-opacity:1;paint-order:stroke fill markers"
       d="M 8 4 C 5.784 4 4 5.784 4 8 L 4 40 C 4 42.216 5.784 44 8 44 L 40 44 C 42.216 44 44 42.216 44 40 L 44 8 C 44 5.784 42.216 4 40 4 L 8 4 z M 8 5 L 40 5 C 41.662 5 43 6.338 43 8 L 43 40 C 43 41.662 41.662 43 40 43 L 8 43 C 6.338 43 5 41.662 5 40 L 5 8 C 5 6.338 6.338 5 8 5 z "
       id="rect826" />
    <path
       style="fill:#ffffff;stroke-width:0.06607073"
       d="m 11.992195,37.814685 c -0.03335,-0.174548 0.07448,-0.417847 0.551337,-1.243679 0.177929,-0.308143 0.189746,-0.372553 0.175777,-0.958029 l -0.01498,-0.62767 0.437928,-0.891957 c 0.240861,-0.490572 0.56371,-1.159539 0.717441,-1.486589 1.188041,-2.527482 1.52243,-3.046566 2.340912,-3.633891 0.280263,-0.201111 0.418845,-0.858736 0.543005,-2.576756 0.113799,-1.574584 0.14614,-1.684806 0.494417,-1.684806 0.140322,0 0.226456,-0.06014 0.353148,-0.246583 0.09217,-0.135638 0.167559,-0.285178 0.167559,-0.332346 0,-0.07875 0.229731,-0.67642 0.412366,-1.072837 0.04185,-0.09085 0.201623,-0.298971 0.355037,-0.462498 0.205421,-0.218951 0.324441,-0.434263 0.451573,-0.816898 0.09494,-0.285768 0.155391,-0.573906 0.134318,-0.640306 -0.02107,-0.0664 -0.185528,-0.226484 -0.36545,-0.355746 -0.179925,-0.12925 -0.327135,-0.279406 -0.327135,-0.333656 0,-0.05425 0.08542,-0.299586 0.189844,-0.545193 0.104429,-0.245609 0.286029,-0.72901 0.40359,-1.074233 0.117575,-0.345219 0.259728,-0.761464 0.315926,-0.924989 0.145943,-0.42467 0.182842,-0.454019 0.598332,-0.475879 l 0.373514,-0.01966 0.281915,-0.561602 c 0.155052,-0.30888 0.350065,-0.725129 0.433361,-0.924992 0.264526,-0.634707 0.695636,-1.300981 1.120803,-1.732168 0.555942,-0.563814 0.881248,-0.732167 1.500126,-0.77634 0.456282,-0.03259 0.500963,-0.04913 0.594635,-0.220639 0.09436,-0.172761 0.09225,-0.19178 -0.03087,-0.278547 -0.07268,-0.0512 -0.164811,-0.120851 -0.204744,-0.15472 -0.03992,-0.03388 -0.09308,-0.332837 -0.118103,-0.664349 -0.03989,-0.528542 -0.02854,-0.641211 0.09221,-0.915194 0.170547,-0.386987 0.68401,-0.920364 0.940164,-0.976622 0.105233,-0.02311 0.207405,-0.08383 0.227006,-0.134901 0.051,-0.1329159 1.378734,-0.1348596 1.429679,-0.0022 0.01914,0.04991 0.148697,0.111827 0.287869,0.13758 0.500636,0.09263 1.227703,0.698158 1.460553,1.216384 0.05934,0.132042 0.196913,0.336798 0.305752,0.45502 l 0.197886,0.214977 -0.08408,0.412722 c -0.10408,0.510971 -0.218146,0.694886 -0.447781,0.72203 -0.194033,0.02293 -0.249894,0.104608 -0.164144,0.239981 0.07346,0.115979 7.412268,0.116562 7.628954,5.95e-4 0.07581,-0.04058 0.186277,-0.133597 0.245489,-0.206719 0.136178,-0.168178 0.261201,-0.09565 0.261201,0.151534 0,0.16649 0.06221,0.297827 0.06221,0.297827 l 0.781049,0.04811 0.907201,0.03354 -0.01567,0.365425 -0.842808,0.04879 -0.858927,0.03302 -0.02049,0.330354 c -0.01125,0.181696 -0.04659,0.356757 -0.07848,0.389029 -0.03193,0.03231 -1.005056,0.0528 -2.164996,0.04558 -1.671335,-0.01041 -2.120649,0.0049 -2.173092,0.07347 -0.03636,0.0476 -0.148988,0.34651 -0.250286,0.664244 -0.198582,0.622877 -0.198262,0.970046 0.0015,1.628209 0.170702,0.562415 0.134721,0.60737 -0.61978,0.774598 -0.925673,0.205161 -0.89828,0.208078 -1.022778,-0.108871 -0.09282,-0.236312 -0.125794,-0.267815 -0.208422,-0.199235 -0.05401,0.04482 -0.117117,0.145678 -0.140285,0.224158 -0.02317,0.07848 -0.113896,0.297757 -0.201627,0.48728 -0.176208,0.38069 -0.474153,0.596665 -1.025027,0.743028 -0.293891,0.07809 -0.322109,0.07247 -0.734238,-0.146243 -0.235733,-0.1251 -0.498756,-0.276587 -0.584499,-0.336644 -0.220244,-0.154263 -0.327544,-0.136901 -0.572477,0.09266 -0.252902,0.237032 -0.262842,0.313789 -0.07203,0.556346 l 0.142686,0.181398 -0.281615,0.537773 c -0.154886,0.295776 -0.426517,0.816335 -0.603619,1.156796 -0.385376,0.740842 -0.416445,0.780863 -0.717606,0.924368 l -0.235193,0.112077 0.01319,0.620254 c 0.01236,0.575755 0.02764,0.64038 0.214731,0.900908 0.110856,0.154361 0.201554,0.30319 0.201554,0.330727 0,0.02753 0.04123,0.09698 0.0916,0.154374 0.05039,0.05737 0.178279,0.267833 0.284219,0.467697 0.105955,0.199865 0.240527,0.43772 0.29908,0.528565 0.05854,0.09085 0.19081,0.31778 0.2939,0.504291 0.103095,0.186514 0.369724,0.662222 0.592517,1.057131 0.829911,1.471056 0.846732,1.513444 0.848594,2.13854 0.0012,0.414906 -0.02953,0.622006 -0.117771,0.792849 -0.06569,0.127182 -0.208712,0.454235 -0.317828,0.726778 -0.109107,0.272539 -0.236485,0.554993 -0.283049,0.627671 -0.04657,0.07268 -0.1059,0.218234 -0.13182,0.323459 -0.02592,0.105206 -0.146241,0.402541 -0.267342,0.660705 -0.121087,0.258165 -0.24235,0.543722 -0.269448,0.634569 -0.02709,0.09085 -0.131791,0.343568 -0.232672,0.561602 -0.100887,0.218034 -0.280702,0.634278 -0.399615,0.924989 -0.162846,0.398111 -0.311081,0.627795 -0.600602,0.930604 -0.211417,0.221117 -0.384396,0.447081 -0.384396,0.502136 0,0.167917 0.373644,0.783051 0.603361,0.89765 0.119129,0.05944 0.404944,0.15174 0.635127,0.20512 0.516625,0.119811 0.809705,0.266239 0.809705,0.404537 0,0.05782 -0.111494,0.216229 -0.247764,0.351956 -0.234466,0.233528 -0.28221,0.251086 -0.889275,0.327021 -0.377474,0.04721 -1.217917,0.07254 -2.04198,0.06151 -1.615784,-0.02158 -1.718172,-0.051 -1.591692,-0.457296 0.03879,-0.124642 0.08934,-0.390142 0.112355,-0.590006 0.03908,-0.339575 0.178127,-1.041485 0.40362,-1.741302 0.05268,-0.163524 0.184995,-0.698697 0.294011,-1.189273 0.109024,-0.490574 0.226757,-0.981153 0.261652,-1.090166 0.03488,-0.109024 0.109467,-0.465798 0.16573,-0.792849 0.09368,-0.544618 0.152107,-0.682149 0.69461,-1.634996 0.32578,-0.5722 0.592328,-1.070258 0.592328,-1.106795 0,-0.03652 -0.147956,-0.172732 -0.328794,-0.302652 -0.356539,-0.256133 -0.841199,-0.882881 -1.735989,-2.244925 -0.311693,-0.474456 -0.612434,-0.900592 -0.668315,-0.946969 -0.179065,-0.148609 -0.369039,-0.01819 -0.550765,0.378117 -0.09442,0.2059 -0.269146,0.582486 -0.388288,0.836859 -0.119143,0.254372 -0.354721,0.774681 -0.523501,1.156237 -0.168778,0.381559 -0.419728,0.931599 -0.557662,1.22231 -0.137941,0.29071 -0.27272,0.599157 -0.29952,0.685435 -0.08514,0.27407 -0.532187,0.86877 -1.496267,1.990429 -0.886852,1.031808 -2.727097,3.20595 -2.985253,3.526894 -0.07107,0.08835 -0.129792,0.293484 -0.145293,0.507546 -0.0708,0.977647 -0.114563,1.368753 -0.175046,1.565054 l -0.06617,0.214726 h -1.209487 -1.209482 z"
       id="path828"
       inkscape:connector-curvature="0"
       sodipodi:nodetypes="csscssssscsscscsscssccsssscsscsccccccccccccsccccccccscssssccsscccsccsscscscsscssscscssscsscssscsccssscsscscccssssccccccc" />
  </g>
</svg>
