<?xml version="1.0" encoding="UTF-8" standalone="no"?>
<!-- Created with Inkscape (http://www.inkscape.org/) -->

<svg
   xmlns:dc="http://purl.org/dc/elements/1.1/"
   xmlns:cc="http://creativecommons.org/ns#"
   xmlns:rdf="http://www.w3.org/1999/02/22-rdf-syntax-ns#"
   xmlns:svg="http://www.w3.org/2000/svg"
   xmlns="http://www.w3.org/2000/svg"
   xmlns:xlink="http://www.w3.org/1999/xlink"
   xmlns:sodipodi="http://sodipodi.sourceforge.net/DTD/sodipodi-0.dtd"
   xmlns:inkscape="http://www.inkscape.org/namespaces/inkscape"
   width="48px"
   height="48px"
   viewBox="0 0 48 48"
   version="1.1"
   id="SVGRoot"
   inkscape:version="0.92.4 (5da689c313, 2019-01-14)"
   sodipodi:docname="cscz.svg">
  <defs
     id="defs815">
    <linearGradient
       gradientUnits="userSpaceOnUse"
       y2="50"
       x2="90"
       y1="20"
       x1="60"
       xlink:href="#WhiteTransparent-4"
       id="IcecapTip-6"
       gradientTransform="matrix(0.9965784,0,0,0.9962666,-89.841948,-62.996045)" />
    <linearGradient
       gradientUnits="userSpaceOnUse"
       id="WhiteTransparent-4">
      <stop
         id="stop7606-4"
         offset="0"
         style="stop-color:white;stop-opacity:1" />
      <stop
         id="stop7608-7"
         offset="1"
         style="stop-color:white;stop-opacity:0" />
    </linearGradient>
  </defs>
  <sodipodi:namedview
     id="base"
     pagecolor="#ffffff"
     bordercolor="#666666"
     borderopacity="1.0"
     inkscape:pageopacity="0.0"
     inkscape:pageshadow="2"
     inkscape:zoom="11.555837"
     inkscape:cx="21.435513"
     inkscape:cy="23.275716"
     inkscape:document-units="px"
     inkscape:current-layer="layer1"
     showgrid="true"
     inkscape:window-width="1920"
     inkscape:window-height="1017"
     inkscape:window-x="-8"
     inkscape:window-y="-8"
     inkscape:window-maximized="1"
     inkscape:grid-bbox="true"
     inkscape:snap-global="false">
    <inkscape:grid
       type="xygrid"
       id="grid1371" />
  </sodipodi:namedview>
  <metadata
     id="metadata818">
    <rdf:RDF>
      <cc:Work
         rdf:about="">
        <dc:format>image/svg+xml</dc:format>
        <dc:type
           rdf:resource="http://purl.org/dc/dcmitype/StillImage" />
        <dc:title></dc:title>
      </cc:Work>
    </rdf:RDF>
  </metadata>
  <g
     inkscape:label="Layer 1"
     inkscape:groupmode="layer"
     id="layer1">
    <rect
       style="opacity:1;vector-effect:none;fill:#ffd34e;fill-opacity:1;fill-rule:evenodd;stroke:none;stroke-width:4;stroke-linecap:round;stroke-linejoin:round;stroke-miterlimit:4;stroke-dasharray:none;stroke-dashoffset:0;stroke-opacity:1;paint-order:stroke fill markers"
       id="rect1373"
       width="40"
       height="40"
       x="4"
       y="4"
       ry="4" />
    <path
       style="opacity:0.25;vector-effect:none;fill:#000000;fill-opacity:1;fill-rule:evenodd;stroke:none;stroke-width:4;stroke-linecap:round;stroke-linejoin:round;stroke-miterlimit:4;stroke-dasharray:none;stroke-dashoffset:0;stroke-opacity:1;paint-order:stroke fill markers"
       d="M 8 4 C 5.784 4 4 5.784 4 8 L 4 40 C 4 42.216 5.784 44 8 44 L 40 44 C 42.216 44 44 42.216 44 40 L 44 8 C 44 5.784 42.216 4 40 4 L 8 4 z M 8 5 L 40 5 C 41.662 5 43 6.338 43 8 L 43 40 C 43 41.662 41.662 43 40 43 L 8 43 C 6.338 43 5 41.662 5 40 L 5 8 C 5 6.338 6.338 5 8 5 z "
       id="rect826" />
    <g
       id="layer1-6"
       inkscape:label="Layer 1"
       transform="translate(6.3848534,0.97390964)">
      <path
         inkscape:connector-curvature="0"
         id="path863"
         d="m 22.561063,36.911101 c -0.393532,-0.172775 -1.021614,-0.727046 -1.142833,-1.008527 -0.06305,-0.146381 -0.173835,-0.250872 -0.265998,-0.250872 -0.142904,0 -0.154249,-0.0639 -0.119107,-0.67116 0.05498,-0.949712 -0.102497,-1.631658 -0.453067,-1.962311 -0.381029,-0.359361 -0.553226,-0.907502 -0.91681,-2.918403 L 19.493591,29.161419 17.75048,27.199921 c -0.958709,-1.078825 -1.769636,-1.937099 -1.802059,-1.90728 -0.100769,0.09269 -1.507156,3.569497 -1.931025,4.77382 -0.485409,1.379157 -0.804802,2.009106 -1.228346,2.422685 -0.422905,0.412953 -1.5791,1.006733 -1.960296,1.006733 -0.348666,0 -0.355332,0.03486 -0.157346,0.823048 0.08001,0.318447 0.186613,0.556675 0.249147,0.556675 0.06012,0 0.195919,0.07013 0.301783,0.155866 0.180821,0.146425 0.183629,0.164684 0.04652,0.301813 -0.207083,0.207082 -1.5112981,0.207879 -1.8612681,0.0011 C 9.1484069,35.18128 8.7216006,34.488416 8.719374,34.217156 8.717144,33.938822 8.5806626,33.792736 8.4355221,33.913197 c -0.1007277,0.08359 -0.1364819,0.0768 -0.1790303,-0.03414 -0.1859513,-0.484594 0.057993,-1.069468 0.764345,-1.832389 0.3742791,-0.40427 0.4759611,-0.574042 0.4759611,-0.794687 0,-0.240241 0.102623,-0.376603 0.7135861,-0.948229 0.687945,-0.643646 0.717577,-0.687376 0.824643,-1.216959 0.179761,-0.889111 0.660754,-2.758864 1.161774,-4.516042 l 0.467158,-1.638425 -0.04219,-1.17264 c -0.03457,-0.960928 -0.0096,-1.34237 0.138767,-2.112712 0.217892,-1.131851 0.336791,-2.16568 0.438372,-3.811606 0.0883,-1.430651 0.219661,-1.789752 0.960526,-2.625808 0.333195,-0.375999 0.496476,-0.495837 0.675584,-0.495837 0.339164,0 1.082848,-0.267018 0.958215,-0.344046 -0.07259,-0.04488 -0.09387,-0.375074 -0.07338,-1.138569 0.02726,-1.01602 0.0418,-1.092347 0.263643,-1.3828648 0.358793,-0.4698742 0.91603,-0.698431 1.806631,-0.7410114 0.643725,-0.030766 0.806304,-0.00878 1.143593,0.1544719 0.502586,0.2432961 0.947514,0.7643003 1.174735,1.3755953 0.09837,0.264619 0.235893,0.569213 0.305626,0.676876 0.122297,0.188777 0.112864,0.20171 -0.264382,0.363425 l -0.391169,0.167668 v 0.563581 0.563577 h 0.290089 c 0.24111,0 0.330449,-0.05824 0.529126,-0.34493 l 0.239037,-0.344933 h 0.591904 c 0.337111,0 0.591904,-0.03712 0.591904,-0.08624 0,-0.04743 0.155223,-0.08624 0.344929,-0.08624 0.310439,0 0.344932,0.02167 0.344932,0.215571 0,0.209426 0.01725,0.215593 0.603633,0.215593 0.344933,0 0.603629,0.03697 0.603629,0.08624 0,0.0503 0.287443,0.08624 0.689863,0.08624 0.402421,0 0.689865,-0.03594 0.689865,-0.08624 0,-0.04743 0.0582,-0.08624 0.129333,-0.08624 0.07186,0 0.129362,-0.07665 0.129362,-0.172466 0,-0.197046 0.03255,-0.207282 0.264367,-0.0832 0.115623,0.06189 0.166806,0.180911 0.166806,0.38805 v 0.298782 h 0.517397 c 0.498334,0 0.5174,-0.0081 0.5174,-0.221906 0,-0.3159 0.292133,-0.248789 0.329484,0.07569 0.02734,0.237283 0.03449,0.240031 0.560515,0.214839 0.509892,-0.02443 0.53402,-0.03573 0.560132,-0.262656 0.02122,-0.184821 0.07268,-0.23714 0.233024,-0.23714 0.192138,0 0.207435,0.03561 0.231411,0.538957 l 0.02567,0.538955 0.409609,0.02628 0.409592,0.02627 v 0.340208 0.340206 h -1.663709 -1.663711 l -0.0825,0.266789 c -0.08214,0.265647 -0.291106,0.429694 -0.760147,0.596794 -0.228451,0.08139 -0.24209,0.111165 -0.186543,0.407195 0.09295,0.4955 0.29318,1.038914 0.657439,1.784309 0.183762,0.37602 0.324848,0.691226 0.313542,0.700451 -0.01129,0.0092 -0.151486,0.08341 -0.311537,0.164861 -0.243013,0.123663 -0.309695,0.129028 -0.404538,0.03252 -0.199941,-0.203456 -0.625418,-1.143815 -0.826024,-1.825676 -0.107026,-0.363704 -0.219462,-0.661278 -0.249928,-0.661278 -0.03046,0 -0.126659,0.132372 -0.21378,0.294131 -0.168597,0.313056 -0.379258,0.395732 -1.008373,0.395732 -0.278558,0 -0.424439,0.06993 -0.786875,0.377306 -0.244701,0.207524 -0.714413,0.55699 -1.043798,0.776604 l -0.598882,0.399301 -0.926929,-0.05629 -0.926931,-0.05629 -0.06213,0.249813 c -0.03416,0.137401 -0.129445,0.346824 -0.211724,0.465395 -0.08228,0.118577 -0.172223,0.429008 -0.199877,0.689864 -0.03057,0.288429 -0.10456,0.51398 -0.18878,0.575593 -0.178718,0.130741 -0.291072,0.623979 -0.293666,1.289195 -0.0019,0.51693 0.0033,0.529266 0.253259,0.579239 0.140434,0.02809 0.418775,0.197864 0.618557,0.377269 0.548033,0.492153 1.58661,1.933909 1.800329,2.499218 0.189199,0.500478 0.188093,0.532025 -0.03768,1.069129 -0.04013,0.09543 0.209271,0.471419 0.811692,1.223748 l 0.869592,1.085991 0.2959,1.26778 c 0.162738,0.697282 0.343244,1.647122 0.401107,2.11076 l 0.1052,0.842978 -0.328825,0.401286 c -0.30554,0.37287 -0.324965,0.429462 -0.274304,0.799077 0.07246,0.528679 0.213978,0.723942 0.825708,1.139363 0.958505,0.650911 1.488019,1.795277 1.038633,2.244664 -0.146824,0.146824 -0.284691,0.171957 -0.927007,0.169083 -0.428106,-0.0018 -0.866457,-0.0525 -1.013236,-0.116947 z M 20.35437,15.363596 c 0.153831,-0.129431 0.3297,-0.23534 0.390831,-0.23534 0.173394,0 1.341581,-0.605899 1.341581,-0.695826 0,-0.04492 -0.440963,-0.08026 -1.001568,-0.08026 -0.920997,0 -1.03543,0.01835 -1.422525,0.229115 -0.411132,0.223767 -0.591915,0.522642 -0.593578,0.981324 -8.65e-4,0.234592 0.943783,0.08834 1.285259,-0.198992 z"
         style="fill:#4e4e4e;stroke-width:0.08623295" />
    </g>
  </g>
</svg>
