<?xml version="1.0" encoding="UTF-8" standalone="no"?>
<!-- Created with Inkscape (http://www.inkscape.org/) -->

<svg
   xmlns:dc="http://purl.org/dc/elements/1.1/"
   xmlns:cc="http://creativecommons.org/ns#"
   xmlns:rdf="http://www.w3.org/1999/02/22-rdf-syntax-ns#"
   xmlns:svg="http://www.w3.org/2000/svg"
   xmlns="http://www.w3.org/2000/svg"
   xmlns:xlink="http://www.w3.org/1999/xlink"
   xmlns:sodipodi="http://sodipodi.sourceforge.net/DTD/sodipodi-0.dtd"
   xmlns:inkscape="http://www.inkscape.org/namespaces/inkscape"
   width="48px"
   height="48px"
   viewBox="0 0 48 48"
   version="1.1"
   id="SVGRoot"
   inkscape:version="0.92.4 (5da689c313, 2019-01-14)"
   sodipodi:docname="descent-3.svg">
  <defs
     id="defs815">
    <linearGradient
       inkscape:collect="always"
       id="linearGradient866">
      <stop
         style="stop-color:#c29656;stop-opacity:1"
         offset="0"
         id="stop862" />
      <stop
         id="stop872"
         offset="0.36842105"
         style="stop-color:#dcbf89;stop-opacity:1" />
      <stop
         id="stop870"
         offset="0.5"
         style="stop-color:#ffffff;stop-opacity:1" />
      <stop
         style="stop-color:#92b4da;stop-opacity:1"
         offset="0.63157892"
         id="stop874" />
      <stop
         style="stop-color:#729dec;stop-opacity:1"
         offset="1"
         id="stop864" />
    </linearGradient>
    <linearGradient
       inkscape:collect="always"
       xlink:href="#linearGradient866"
       id="linearGradient868"
       x1="24"
       y1="5"
       x2="24"
       y2="43"
       gradientUnits="userSpaceOnUse" />
    <linearGradient
       id="linearGradient1552"
       x1="24"
       x2="24"
       y1="7"
       y2="39"
       gradientUnits="userSpaceOnUse">
      <stop
         stop-color="#92b4da"
         offset="0"
         id="stop823" />
      <stop
         stop-color="#547cb1"
         offset="1"
         id="stop825" />
    </linearGradient>
    <linearGradient
       id="linearGradient857"
       x1="24"
       x2="24"
       y1="11"
       y2="37"
       gradientTransform="translate(0,-1)"
       gradientUnits="userSpaceOnUse">
      <stop
         stop-color="#dbe1e9"
         offset="0"
         id="stop828" />
      <stop
         stop-color="#b9c4d4"
         offset="1"
         id="stop830" />
    </linearGradient>
  </defs>
  <sodipodi:namedview
     id="base"
     pagecolor="#ffffff"
     bordercolor="#666666"
     borderopacity="1.0"
     inkscape:pageopacity="0.0"
     inkscape:pageshadow="2"
     inkscape:zoom="13.632692"
     inkscape:cx="36.590365"
     inkscape:cy="24.086471"
     inkscape:document-units="px"
     inkscape:current-layer="layer1"
     showgrid="true"
     inkscape:window-width="1920"
     inkscape:window-height="1017"
     inkscape:window-x="-8"
     inkscape:window-y="-8"
     inkscape:window-maximized="1"
     inkscape:grid-bbox="true"
     inkscape:snap-global="false">
    <inkscape:grid
       type="xygrid"
       id="grid1371" />
  </sodipodi:namedview>
  <metadata
     id="metadata818">
    <rdf:RDF>
      <cc:Work
         rdf:about="">
        <dc:format>image/svg+xml</dc:format>
        <dc:type
           rdf:resource="http://purl.org/dc/dcmitype/StillImage" />
        <dc:title />
      </cc:Work>
    </rdf:RDF>
  </metadata>
  <g
     inkscape:label="Layer 1"
     inkscape:groupmode="layer"
     id="layer1">
    <rect
       style="opacity:1;vector-effect:none;fill:url(#linearGradient868);fill-opacity:1;fill-rule:evenodd;stroke:none;stroke-width:4;stroke-linecap:round;stroke-linejoin:round;stroke-miterlimit:4;stroke-dasharray:none;stroke-dashoffset:0;stroke-opacity:1;paint-order:stroke fill markers"
       id="rect1373"
       width="40"
       height="40"
       x="4"
       y="4"
       ry="4" />
    <path
       style="opacity:0.25;vector-effect:none;fill:#000000;fill-opacity:1;fill-rule:evenodd;stroke:none;stroke-width:4;stroke-linecap:round;stroke-linejoin:round;stroke-miterlimit:4;stroke-dasharray:none;stroke-dashoffset:0;stroke-opacity:1;paint-order:stroke fill markers"
       d="M 8 4 C 5.784 4 4 5.784 4 8 L 4 40 C 4 42.216 5.784 44 8 44 L 40 44 C 42.216 44 44 42.216 44 40 L 44 8 C 44 5.784 42.216 4 40 4 L 8 4 z M 8 5 L 40 5 C 41.662 5 43 6.338 43 8 L 43 40 C 43 41.662 41.662 43 40 43 L 8 43 C 6.338 43 5 41.662 5 40 L 5 8 C 5 6.338 6.338 5 8 5 z "
       id="rect826" />
    <rect
       style="opacity:1;vector-effect:none;fill:#436382;fill-opacity:1;fill-rule:evenodd;stroke:none;stroke-width:8;stroke-linecap:square;stroke-linejoin:miter;stroke-miterlimit:4;stroke-dasharray:none;stroke-opacity:1;paint-order:stroke fill markers"
       id="rect843"
       width="28"
       height="28"
       x="10"
       y="10"
       ry="14" />
    <path
       style="opacity:1;fill:#ffffff;stroke:none;stroke-width:0.99650913px;stroke-linecap:butt;stroke-linejoin:miter;stroke-opacity:1"
       d="M 20.433594 12.341797 C 18.604032 12.382757 16.603615 12.991461 15.509766 14.373047 C 15.008209 15.006541 15.536295 16.029106 15.246094 16.783203 C 14.404649 18.969787 11.615647 20.184782 11.128906 22.476562 C 10.893262 23.586078 11.678512 24.684241 11.828125 25.808594 C 11.96319 26.823622 11.468158 28.766116 12.486328 28.875 C 13.465754 28.979741 12.00901 26.623712 12.792969 26.027344 C 13.118426 25.779765 13.642745 26.190797 14.017578 26.027344 C 14.273335 25.915815 14.349775 25.55754 14.587891 25.412109 C 15.002202 25.159065 15.67039 25.384746 15.990234 25.019531 C 16.330416 24.631091 15.917631 23.912617 16.208984 23.486328 C 16.577982 22.946436 17.436012 22.96348 17.917969 22.521484 C 18.413553 22.066988 18.568007 21.317429 19.056641 20.855469 C 19.502013 20.434409 20.667121 21.613987 21.335938 18.972656 C 21.73713 17.38824 19.927663 17.27577 20.285156 16.431641 C 20.609839 15.664981 21.944931 15.57702 22.607422 15.511719 C 23.148312 15.458409 21.929572 16.924654 22.431641 17.132812 C 23.592558 17.614131 25.058282 15.426518 24.796875 14.197266 C 24.517002 12.881188 22.545645 12.447008 21.203125 12.357422 C 20.951944 12.340662 20.694959 12.335947 20.433594 12.341797 z M 20.314453 12.822266 C 20.528627 12.828266 20.739152 12.848654 20.941406 12.882812 C 21.881741 13.041654 23.394104 13.805494 23.132812 14.722656 C 22.797241 15.900555 20.480202 14.518948 19.496094 15.248047 C 18.640424 15.881988 18.428694 17.116514 18.136719 18.140625 C 17.826297 19.22943 18.468038 20.643138 17.744141 21.513672 C 17.206594 22.160109 15.911965 21.649213 15.333984 22.259766 C 14.837228 22.784517 15.308946 23.839999 14.808594 24.361328 C 14.271006 24.921462 13.243555 25.412904 12.574219 25.019531 C 11.773928 24.549194 11.749152 23.206976 11.958984 22.302734 C 12.264206 20.98743 14.110403 20.208115 14.544922 18.929688 C 15.337276 16.598446 15.71709 17.769154 16.035156 16.783203 C 16.255593 16.099885 15.958781 15.244018 16.341797 14.636719 C 17.107758 13.422247 18.81524 12.780233 20.314453 12.822266 z M 31.382812 13.304688 C 31.306065 13.314844 31.23298 13.335989 31.164062 13.373047 C 30.164229 13.910667 29.26221 15.609504 28.804688 16.648438 C 27.866143 18.779664 26.514615 19.00807 24.759766 22.521484 C 24.016828 24.008934 23.807021 26.356382 22.207031 26.808594 C 21.566958 26.989501 21.096733 25.778858 20.439453 25.880859 C 18.94054 26.113457 17.839544 27.723749 17.240234 29.117188 C 16.544801 30.734122 17.992917 32.896767 17.068359 34.394531 C 16.775571 34.868843 15.956455 34.846608 15.451172 35.083984 C 15.82882 35.375199 16.221842 35.646439 16.628906 35.898438 C 16.933084 35.84986 17.286026 35.913884 17.537109 36.052734 C 17.733247 36.1612 17.836432 36.371521 17.917969 36.603516 C 18.605285 36.934458 19.319575 37.217042 20.064453 37.433594 C 20.161795 37.346357 20.258472 37.257682 20.330078 37.160156 C 20.644859 36.731435 20.875834 35.921416 20.474609 35.572266 C 20.1016 35.247669 19.51951 35.972923 19.029297 35.908203 C 18.523826 35.841456 17.846272 35.67005 17.681641 35.1875 C 17.51693 34.704711 18.162689 34.280396 18.306641 33.791016 C 18.668582 32.560559 18.473502 31.201188 18.884766 29.986328 C 19.184213 29.101772 19.340966 27.80753 20.232422 27.529297 C 20.91765 27.31543 21.507999 28.79409 22.160156 28.494141 C 22.520907 28.328218 22.22379 27.666118 22.447266 27.337891 C 22.680392 26.995489 23.179325 26.920814 23.458984 26.615234 C 24.741363 25.213994 25.320284 23.299516 26.349609 21.703125 C 27.195446 20.391311 28.471583 19.213638 29.259766 17.802734 C 30.047947 16.391832 30.347575 14.747837 31.742188 14.046875 C 32.30169 13.765659 33.192596 14.554162 33.619141 14.095703 C 33.661002 14.050709 33.6928 13.986986 33.728516 13.929688 C 33.514914 13.723345 33.296746 13.522546 33.070312 13.330078 C 33.058848 13.342851 33.05444 13.361981 33.041016 13.373047 C 32.618351 13.721442 31.920046 13.233593 31.382812 13.304688 z M 32.804688 16.986328 C 32.70523 16.987663 32.606302 17.00642 32.507812 17.050781 C 31.487316 17.510435 31.795656 19.205027 31.158203 20.125 C 30.157717 21.5689 27.874108 22.117572 27.384766 23.804688 C 26.93579 25.352631 27.754778 28.3118 27.990234 29.90625 C 28.217456 31.444908 29.259815 31.685496 28.783203 33.166016 C 28.323268 34.594735 25.697234 35.179224 25.941406 36.660156 C 25.999558 37.01285 26.224044 37.401892 26.523438 37.763672 C 26.988486 37.679546 27.444999 37.573888 27.892578 37.445312 C 27.434807 37.191271 27.036257 36.902827 27.011719 36.519531 C 26.912713 34.973098 29.405788 34.323352 29.853516 32.839844 C 30.294246 31.379523 29.271882 30.265926 29.201172 28.742188 C 29.069616 25.906899 27.831145 25.493996 28.222656 24.083984 C 28.628663 22.621769 30.713329 22.271271 31.623047 21.056641 C 32.210059 20.272879 31.996729 18.823271 32.880859 18.402344 C 33.530238 18.09318 34.264702 19.016675 34.976562 18.914062 C 35.527411 18.83466 35.870973 17.997142 36.421875 18.076172 C 36.707356 18.117126 36.819372 18.521026 36.990234 18.783203 C 36.775745 18.246959 36.534209 17.725349 36.257812 17.224609 C 35.820074 17.393003 35.448222 17.816307 34.976562 17.84375 C 34.221712 17.887671 33.500883 16.976985 32.804688 16.986328 z M 37.8125 23.027344 C 37.310037 22.973394 37.482255 24.061413 37.064453 24.345703 C 36.281362 24.87855 35.263989 25.063525 34.556641 24.433594 C 34.24005 24.151651 34.206989 23.364882 33.107422 23.246094 C 32.395241 23.169154 31.530541 23.681733 31.261719 24.345703 C 30.714704 25.696787 30.993401 28.200313 32.404297 28.566406 C 33.929119 28.962059 34.132327 25.763751 35.701172 25.621094 C 36.255986 25.570644 36.808776 25.653467 37.064453 26.148438 C 37.611139 27.20677 36.371256 29.189588 36.576172 30.138672 C 37.479099 28.284908 38 26.208029 38 24 C 38 23.682118 37.973776 23.37107 37.953125 23.058594 C 37.906822 23.047361 37.86239 23.032701 37.8125 23.027344 z M 32.84375 24.039062 C 33.352238 24.138672 33.622517 24.883151 33.591797 25.400391 C 33.554427 26.029641 33.105189 27.086362 32.492188 26.939453 C 31.728275 26.756378 31.857049 25.341947 32.140625 24.609375 C 32.249693 24.327617 32.547253 23.980982 32.84375 24.039062 z "
       id="path828" />
    <path
       style="opacity:0.4;vector-effect:none;fill:#000000;fill-opacity:1;fill-rule:evenodd;stroke:none;stroke-width:8;stroke-linecap:square;stroke-linejoin:miter;stroke-miterlimit:4;stroke-dasharray:none;stroke-opacity:1;paint-order:stroke fill markers"
       d="M 24 10 C 16.244 10 10 16.244 10 24 C 10 31.756 16.244 38 24 38 C 31.756 38 38 31.756 38 24 C 38 16.244 31.756 10 24 10 z M 24 11 C 31.202 11 37 16.798 37 24 C 37 31.202 31.202 37 24 37 C 16.798 37 11 31.202 11 24 C 11 16.798 16.798 11 24 11 z "
       id="rect933" />
    <path
       style="fill:#4e4e4e;stroke:none;stroke-width:0.45061585px;stroke-linecap:butt;stroke-linejoin:miter;stroke-opacity:1"
       d="m 36.325681,7.9872493 c -1.043018,0 -2.290558,0.3818941 -2.290558,0.3818941 v 0.9788665 c 0,0 0.72644,-0.3107664 1.819457,-0.3107664 1.058214,0 1.816385,0.092068 1.811223,0.6266096 0,0.4818099 -2.714091,0.3590329 -2.714091,0.3590329 v 0.476733 0.476733 c 0,0 2.714091,-0.122781 2.714091,0.359028 0.0052,0.534542 -0.753009,0.626614 -1.811223,0.626614 -1.093017,0 -1.819457,-0.310766 -1.819457,-0.310766 v 0.978866 c 0,0 1.24754,0.381894 2.290558,0.381894 2.091019,0 3.676418,-0.311356 3.676418,-1.558905 0,-0.756886 -0.927566,-0.953464 -0.927566,-0.953464 0,0 0.927566,-0.196579 0.927566,-0.9534652 0,-1.2475484 -1.585399,-1.5589045 -3.676418,-1.5589045 z"
       id="path845"
       inkscape:connector-curvature="0" />
    <path
       style="fill:#4e4e4e;stroke:none;stroke-width:0.45061585px;stroke-linecap:butt;stroke-linejoin:miter;stroke-opacity:1"
       d="m 11.674319,34.988012 c 1.043018,0 2.290558,0.381894 2.290558,0.381894 v 0.978867 c 0,0 -0.72644,-0.310767 -1.819457,-0.310767 -1.058214,0 -1.816385,0.09207 -1.811223,0.62661 0,0.48181 2.714091,0.359033 2.714091,0.359033 v 0.476733 0.476733 c 0,0 -2.714091,-0.122781 -2.714091,0.359028 -0.0052,0.534542 0.753009,0.626614 1.811223,0.626614 1.093017,0 1.819457,-0.310766 1.819457,-0.310766 v 0.978866 c 0,0 -1.24754,0.381894 -2.290558,0.381894 -2.091019,0 -3.676418,-0.311356 -3.676418,-1.558905 0,-0.756886 0.927566,-0.953464 0.927566,-0.953464 0,0 -0.927566,-0.196579 -0.927566,-0.953465 0,-1.247549 1.585399,-1.558905 3.676418,-1.558905 z"
       id="path845-6"
       inkscape:connector-curvature="0" />
  </g>
</svg>
