<?xml version="1.0" encoding="UTF-8" standalone="no"?>
<!-- Created with Inkscape (http://www.inkscape.org/) -->

<svg
   xmlns:dc="http://purl.org/dc/elements/1.1/"
   xmlns:cc="http://creativecommons.org/ns#"
   xmlns:rdf="http://www.w3.org/1999/02/22-rdf-syntax-ns#"
   xmlns:svg="http://www.w3.org/2000/svg"
   xmlns="http://www.w3.org/2000/svg"
   xmlns:xlink="http://www.w3.org/1999/xlink"
   xmlns:sodipodi="http://sodipodi.sourceforge.net/DTD/sodipodi-0.dtd"
   xmlns:inkscape="http://www.inkscape.org/namespaces/inkscape"
   width="48px"
   height="48px"
   viewBox="0 0 48 48"
   version="1.1"
   id="SVGRoot"
   inkscape:version="0.92.4 (5da689c313, 2019-01-14)"
   sodipodi:docname="destroy-all-humans.svg">
  <defs
     id="defs815">
    <linearGradient
       inkscape:collect="always"
       id="linearGradient1062">
      <stop
         style="stop-color:#ffffff;stop-opacity:1;"
         offset="0"
         id="stop1058" />
      <stop
         style="stop-color:#c7f7fb;stop-opacity:1"
         offset="1"
         id="stop1060" />
    </linearGradient>
    <linearGradient
       inkscape:collect="always"
       id="linearGradient1006">
      <stop
         style="stop-color:#359b9c;stop-opacity:1"
         offset="0"
         id="stop1000" />
      <stop
         style="stop-color:#256b71;stop-opacity:1"
         offset="1"
         id="stop1004" />
    </linearGradient>
    <linearGradient
       id="linearGradient972"
       inkscape:collect="always">
      <stop
         id="stop966"
         offset="0"
         style="stop-color:#82f0f1;stop-opacity:1" />
      <stop
         style="stop-color:#82f0f1;stop-opacity:1"
         offset="0.2"
         id="stop968" />
      <stop
         id="stop970"
         offset="1"
         style="stop-color:#256b71;stop-opacity:1" />
    </linearGradient>
    <linearGradient
       inkscape:collect="always"
       id="linearGradient962">
      <stop
         style="stop-color:#82f0f1;stop-opacity:1"
         offset="0"
         id="stop958" />
      <stop
         id="stop964"
         offset="0.30000001"
         style="stop-color:#82f0f1;stop-opacity:1" />
      <stop
         style="stop-color:#256b71;stop-opacity:1"
         offset="1"
         id="stop960" />
    </linearGradient>
    <radialGradient
       inkscape:collect="always"
       xlink:href="#linearGradient972"
       id="radialGradient940"
       cx="20"
       cy="28.000814"
       fx="20"
       fy="28.000814"
       r="3.0090346"
       gradientTransform="matrix(1.2212813,-5.3145487e-8,5.3145497e-8,1.2212815,-5.3963765,-5.1895436)"
       gradientUnits="userSpaceOnUse" />
    <radialGradient
       inkscape:collect="always"
       xlink:href="#linearGradient962"
       id="radialGradient950"
       cx="29"
       cy="28.001993"
       fx="29"
       fy="28.001993"
       r="2.5946703"
       gradientTransform="matrix(1.2249592,0,0,1.2642553,-5.4699339,-6.3943367)"
       gradientUnits="userSpaceOnUse" />
    <linearGradient
       inkscape:collect="always"
       xlink:href="#linearGradient1006"
       id="linearGradient998"
       x1="24"
       y1="44"
       x2="24"
       y2="12"
       gradientUnits="userSpaceOnUse" />
    <linearGradient
       inkscape:collect="always"
       xlink:href="#linearGradient1062"
       id="linearGradient1064"
       x1="24"
       y1="11"
       x2="24"
       y2="44"
       gradientUnits="userSpaceOnUse" />
  </defs>
  <sodipodi:namedview
     id="base"
     pagecolor="#ffffff"
     bordercolor="#666666"
     borderopacity="1.0"
     inkscape:pageopacity="0.0"
     inkscape:pageshadow="2"
     inkscape:zoom="9.639769"
     inkscape:cx="16.710323"
     inkscape:cy="22.557034"
     inkscape:document-units="px"
     inkscape:current-layer="layer1"
     showgrid="true"
     inkscape:window-width="1920"
     inkscape:window-height="1017"
     inkscape:window-x="-8"
     inkscape:window-y="-8"
     inkscape:window-maximized="1"
     inkscape:grid-bbox="true"
     inkscape:snap-global="true">
    <inkscape:grid
       type="xygrid"
       id="grid1371" />
  </sodipodi:namedview>
  <metadata
     id="metadata818">
    <rdf:RDF>
      <cc:Work
         rdf:about="">
        <dc:format>image/svg+xml</dc:format>
        <dc:type
           rdf:resource="http://purl.org/dc/dcmitype/StillImage" />
        <dc:title></dc:title>
      </cc:Work>
    </rdf:RDF>
  </metadata>
  <g
     inkscape:label="Layer 1"
     inkscape:groupmode="layer"
     id="layer1">
    <rect
       style="opacity:1;vector-effect:none;fill:url(#linearGradient998);fill-opacity:1;fill-rule:evenodd;stroke:none;stroke-width:4;stroke-linecap:round;stroke-linejoin:round;stroke-miterlimit:4;stroke-dasharray:none;stroke-dashoffset:0;stroke-opacity:1;paint-order:stroke fill markers"
       id="rect1373"
       width="40"
       height="40"
       x="4"
       y="4"
       ry="4" />
    <path
       style="opacity:0.25;vector-effect:none;fill:#000000;fill-opacity:1;fill-rule:evenodd;stroke:none;stroke-width:2;stroke-linecap:round;stroke-linejoin:round;stroke-miterlimit:4;stroke-dasharray:none;stroke-opacity:1;paint-order:stroke fill markers"
       d="M 4.5507812 6 C 4.3711605 6.310109 4.2302286 6.6437756 4.1386719 7 L 43.861328 7 C 43.769771 6.6437756 43.62884 6.310109 43.449219 6 L 4.5507812 6 z M 4 9 L 4 10 L 44 10 L 44 9 L 4 9 z M 4 12 L 4 13 L 44 13 L 44 12 L 4 12 z M 4 15 L 4 16 L 44 16 L 44 15 L 4 15 z M 4 18 L 4 19 L 44 19 L 44 18 L 4 18 z M 4 21 L 4 22 L 44 22 L 44 21 L 4 21 z M 4 24 L 4 25 L 44 25 L 44 24 L 4 24 z M 4 27 L 4 28 L 44 28 L 44 27 L 4 27 z M 4 30 L 4 31 L 44 31 L 44 30 L 4 30 z M 4 33 L 4 34 L 44 34 L 44 33 L 4 33 z M 4 36 L 4 37 L 44 37 L 44 36 L 4 36 z M 4 39 L 4 40 L 44 40 L 44 39 L 4 39 z M 4.5507812 42 C 4.7703421 42.379064 5.0475066 42.713489 5.375 43 L 42.625 43 C 42.952493 42.713489 43.229658 42.379064 43.449219 42 L 4.5507812 42 z "
       id="rect828" />
    <path
       style="fill:url(#linearGradient1064);stroke:none;stroke-width:1.22495925px;stroke-linecap:butt;stroke-linejoin:miter;stroke-opacity:1;fill-opacity:1"
       d="M 24.582031 6.7753906 C 22.362135 6.6939346 20.584507 7.3139458 18.412109 7.5839844 C 18.149394 7.6166414 17.489062 7.5323175 17.244141 7.6328125 C 14.003148 8.9626333 12.863485 13.389127 12.128906 16.814453 C 11.636368 19.111136 12.23365 22.56335 12.509766 23.789062 C 12.771247 24.949818 12.239011 26.221103 12.447266 27.392578 C 12.814649 29.459162 13.230766 31.615013 15.083984 33.111328 C 16.053154 33.89385 17.479425 33.808164 18.197266 34.826172 C 18.77414 35.644262 18.431653 36.775771 18.767578 37.71875 C 19.405914 39.510634 21.121094 39.814453 21.121094 39.814453 C 21.121094 39.814453 21.750939 40.040629 22.740234 39.941406 C 22.306758 40.263282 21.558594 40.355469 21.558594 40.355469 C 21.558594 40.355469 22.48028 42.025144 24.455078 42.039062 C 25.959983 42.049712 26.828124 40.513672 26.828125 40.513672 C 26.828125 40.513672 26.093613 40.49023 25.791016 40.132812 C 26.766114 40.167943 27.251953 40.068359 27.251953 40.068359 C 27.251953 40.068359 29.502974 39.134912 29.728516 37.972656 C 29.980727 36.672962 29.073514 36.280546 29.474609 35.589844 C 30.332734 34.112115 32.602762 34.007387 34.462891 31.777344 C 36.828284 28.941556 35.830078 26.566406 35.830078 26.566406 C 35.830078 26.566406 35.935737 24.375299 36.113281 23.294922 C 36.244061 22.499126 36.737287 21.750121 36.685547 20.945312 C 36.39587 16.439322 37.114452 11.935022 31.826172 8.3007812 C 31.467397 8.0542215 30.928029 8.3657561 30.523438 8.2050781 C 28.376186 7.3523304 26.61742 6.8500762 24.582031 6.7753906 z M 16.449219 9.8574219 C 16.449219 9.8574206 14.953009 13.342886 14.798828 16.400391 C 14.485298 22.617934 14.005859 24.564453 14.005859 24.564453 C 14.005859 24.564453 14.027926 22.496264 13.910156 22.150391 C 13.843876 21.955751 13.304687 22.023438 13.304688 22.023438 C 13.304688 22.023438 13.857331 21.127002 13.939453 20.626953 C 14.211837 18.968316 14.260834 16.614299 14.607422 14.621094 C 15.038903 12.139661 16.449219 9.8574219 16.449219 9.8574219 z M 32.779297 10.652344 C 32.779297 10.652344 34.204334 13.018982 34.240234 15.003906 C 34.277964 17.089931 33.896796 19.22014 34.335938 21.259766 C 34.481687 21.936711 35.162109 23.167969 35.162109 23.167969 L 34.367188 22.214844 L 34.716797 24.40625 C 34.716797 24.40625 34.036833 22.549032 33.890625 21.578125 C 33.568911 19.441731 33.919782 17.203448 33.794922 15.099609 C 33.667467 12.951986 32.779297 10.652344 32.779297 10.652344 z M 16.671875 18.181641 C 17.365894 21.368882 18.042492 21.868237 19.373047 23.136719 C 17.604377 22.487486 16.831013 22.343795 16.384766 22.40625 C 17.107908 20.313931 16.658998 19.34147 16.671875 18.181641 z M 24.158203 20.373047 C 24.158203 20.373047 28.677433 20.692321 30.224609 20.910156 C 30.836808 20.996356 31.998047 20.373047 31.998047 20.373047 C 31.998047 20.373047 30.718086 21.055386 30.673828 21.898438 C 30.672228 21.893238 30.266373 21.256926 29.931641 21.203125 C 28.179763 20.921545 24.158203 20.373047 24.158203 20.373047 z M 23.871094 21.779297 C 24.308267 21.777697 24.726263 21.785647 25.058594 21.810547 C 26.368416 21.908457 28.943359 22.460938 28.943359 22.460938 C 28.943359 22.460938 26.350749 22.488931 25.058594 22.394531 C 23.718242 22.296621 21.060547 21.876952 21.060547 21.876953 C 21.060547 21.876953 22.559573 21.784277 23.871094 21.779297 z M 20.160156 22.191406 C 20.160156 22.191406 20.75756 22.72103 21.689453 22.84375 C 22.570384 22.959754 24.294922 23.404297 24.294922 23.404297 C 24.294922 23.404297 22.436388 23.53223 21.53125 23.361328 C 20.408165 23.149281 20.160156 22.191406 20.160156 22.191406 z M 22.498047 24.955078 C 24.75989 27.406915 24.994502 26.716522 27.505859 24.955078 C 24.549464 27.704798 24.5625 29.917969 24.5625 29.917969 C 24.5625 29.917969 24.396889 31.016159 26.091797 32.480469 C 24.898577 31.98817 24.510967 32.168846 22.744141 32.707031 C 24.286782 31.000917 24.294922 29.917969 24.294922 29.917969 C 24.294922 29.917969 24.654718 27.968278 22.498047 24.955078 z M 32.841797 34.033203 C 32.841797 34.033203 32.37319 39.120454 29.851562 42.349609 C 29.437271 42.880146 29.022664 43.450098 28.583984 44 L 31.091797 44 C 31.869399 43.485239 32.699074 43.026015 33.128906 42.197266 C 35.29078 38.029006 34.527344 34.921875 34.527344 34.921875 C 34.527344 34.921875 34.293713 34.418578 33.605469 34.126953 C 33.369641 34.027023 32.841797 34.033203 32.841797 34.033203 z M 15.6875 34.064453 C 15.6875 34.064453 14.78395 34.09458 14.417969 34.287109 C 13.753979 34.636408 13.623047 35.398437 13.623047 35.398438 C 13.623047 35.398438 14.429456 40.244102 15.751953 42.228516 C 16.277848 43.017624 17.326098 43.339413 17.994141 44 L 19.935547 44 C 19.286049 43.168273 18.692387 42.245495 18.134766 41.371094 C 15.540583 37.303183 15.6875 34.064454 15.6875 34.064453 z M 20.677734 36.951172 L 20.982422 37.525391 L 21.402344 37.271484 C 21.402344 37.271484 22.838945 38.130026 24.294922 38.142578 C 25.428397 38.152378 26.457125 37.422733 27.576172 37.242188 C 28.109391 37.156168 28.763672 38.142578 28.763672 38.142578 C 28.763672 38.142578 28.278193 37.957215 27.775391 38.050781 C 27.392806 38.121981 27.197943 38.538472 26.763672 38.634766 C 26.383746 38.719006 25.938649 38.581681 25.550781 38.613281 C 25.20837 38.641181 24.931419 38.976137 24.587891 38.972656 C 24.241681 38.969156 23.967108 38.604018 23.621094 38.591797 C 23.32289 38.581257 22.765625 38.859375 22.765625 38.859375 L 22.316406 38.298828 L 21.824219 38.679688 L 21.599609 37.939453 L 21.082031 38.455078 L 20.8125 37.625 L 20.048828 38.005859 C 20.048828 38.005859 19.779314 37.805328 19.373047 37.558594 C 20.060941 37.260644 20.677734 36.951172 20.677734 36.951172 z "
       id="path906" />
    <path
       style="fill:#ffffff;stroke:none;stroke-width:1.22495925px;stroke-linecap:butt;stroke-linejoin:miter;stroke-opacity:1"
       d="M 17.466797 34.699219 C 17.466797 34.699219 17.104669 36.127777 18.28125 38.724609 C 19.069247 40.463796 20.548119 42.70421 22.105469 44 L 26.496094 44 C 28.029843 42.680668 29.543882 40.380022 30.246094 38.617188 C 30.939303 36.87696 30.841797 34.763672 30.841797 34.763672 C 30.841797 34.763672 30.134814 35.193758 30.015625 35.556641 C 29.844901 36.076427 30.452541 37.112249 29.888672 38.416016 C 29.383643 39.583738 28.013672 40.037109 28.013672 40.037109 C 28.013672 40.037109 26.299875 43.886609 24.138672 43.849609 C 22.150202 43.815566 20.738281 40.164062 20.738281 40.164062 C 20.738281 40.164063 19.531313 40.177483 18.451172 38.066406 C 18.014901 37.213732 18.219856 36.077302 18.101562 35.207031 C 18.065031 34.938279 17.466797 34.699219 17.466797 34.699219 z "
       id="path908" />
    <path
       style="fill:#82f0f1;stroke:none;stroke-width:1.22495925px;stroke-linecap:butt;stroke-linejoin:miter;stroke-opacity:1"
       d="M 31.953125 34.126953 L 31.222656 34.636719 C 31.222656 34.636719 31.73468 36.666474 30.144531 39.707031 C 29.365948 41.195776 28.30763 42.830847 27.148438 44 L 28.132812 44 C 29.365476 42.671979 30.458038 40.981301 31.103516 39.449219 C 32.564533 35.981409 31.953125 34.126953 31.953125 34.126953 z M 16.679688 34.142578 C 16.679687 34.142578 15.625686 35.304018 17.560547 39.583984 C 18.233141 41.071779 19.247335 42.706221 20.386719 44 L 21.457031 44 C 20.026885 42.61944 18.683787 40.579995 17.984375 38.919922 C 16.819376 36.154762 17.085938 34.414062 17.085938 34.414062 L 16.679688 34.142578 z "
       id="path910" />
    <path
       style="fill:url(#radialGradient940);fill-opacity:1;stroke:none;stroke-width:1.22495925px;stroke-linecap:butt;stroke-linejoin:miter;stroke-opacity:1"
       d="m 14.792264,26.684937 c 0,0 -0.393868,-0.279619 -0.112316,-0.80869 0.308617,-0.579937 3.234396,0.140137 4.672435,1.662309 1.083913,1.147327 2.955652,3.416055 2.538391,4.043453 -0.365188,0.549103 -0.853617,0.247101 -0.853617,0.247101 0,0 -2.175274,1.267115 -4.290555,-0.269564 -2.961641,-2.15153 -1.954337,-4.874609 -1.954338,-4.874609 z"
       id="path930"
       inkscape:connector-curvature="0"
       sodipodi:nodetypes="cssscscc" />
    <path
       style="fill:url(#radialGradient950);fill-opacity:1;stroke:none;stroke-width:1.22495925px;stroke-linecap:butt;stroke-linejoin:miter;stroke-opacity:1"
       d="m 27.43929,31.694326 c -0.451756,-0.381038 -0.215539,-1.026607 0.4942,-1.43767 0.681341,-0.394616 1.400512,-0.746648 1.999264,-1.257965 0.968471,-0.827047 1.583262,-1.829056 2.223899,-2.650708 0.298988,-0.383467 1.564197,-0.916653 1.392745,-0.157248 -0.07104,0.314675 -0.314494,0.336955 -0.314494,0.336955 0,0 1.092253,2.509423 -0.763764,4.425337 -1.694149,1.748822 -3.865622,1.724965 -5.03185,0.741299 z"
       id="path932"
       inkscape:connector-curvature="0"
       sodipodi:nodetypes="ssssscss" />
    <path
       style="opacity:0.4;vector-effect:none;fill:#000000;fill-opacity:1;fill-rule:evenodd;stroke:none;stroke-width:4;stroke-linecap:round;stroke-linejoin:round;stroke-miterlimit:4;stroke-dasharray:none;stroke-dashoffset:0;stroke-opacity:1;paint-order:stroke fill markers"
       d="M 8 4 C 5.784 4 4 5.784 4 8 L 4 40 C 4 42.216 5.784 44 8 44 L 40 44 C 42.216 44 44 42.216 44 40 L 44 8 C 44 5.784 42.216 4 40 4 L 8 4 z M 8 5 L 40 5 C 41.662 5 43 6.338 43 8 L 43 40 C 43 41.662 41.662 43 40 43 L 8 43 C 6.338 43 5 41.662 5 40 L 5 8 C 5 6.338 6.338 5 8 5 z "
       id="rect826" />
  </g>
</svg>
