<?xml version="1.0" encoding="UTF-8" standalone="no"?>
<!-- Created with Inkscape (http://www.inkscape.org/) -->

<svg
   xmlns:dc="http://purl.org/dc/elements/1.1/"
   xmlns:cc="http://creativecommons.org/ns#"
   xmlns:rdf="http://www.w3.org/1999/02/22-rdf-syntax-ns#"
   xmlns:svg="http://www.w3.org/2000/svg"
   xmlns="http://www.w3.org/2000/svg"
   xmlns:sodipodi="http://sodipodi.sourceforge.net/DTD/sodipodi-0.dtd"
   xmlns:inkscape="http://www.inkscape.org/namespaces/inkscape"
   width="48px"
   height="48px"
   viewBox="0 0 48 48"
   version="1.1"
   id="SVGRoot"
   inkscape:version="0.92.4 (5da689c313, 2019-01-14)"
   sodipodi:docname="ET-quakewars.svg">
  <defs
     id="defs815" />
  <sodipodi:namedview
     id="base"
     pagecolor="#ffffff"
     bordercolor="#666666"
     borderopacity="1.0"
     inkscape:pageopacity="0.0"
     inkscape:pageshadow="2"
     inkscape:zoom="13.632692"
     inkscape:cx="49.83159"
     inkscape:cy="19.561836"
     inkscape:document-units="px"
     inkscape:current-layer="layer1"
     showgrid="true"
     inkscape:window-width="1920"
     inkscape:window-height="1017"
     inkscape:window-x="-8"
     inkscape:window-y="-8"
     inkscape:window-maximized="1"
     inkscape:grid-bbox="true"
     inkscape:snap-global="false">
    <inkscape:grid
       type="xygrid"
       id="grid1371" />
  </sodipodi:namedview>
  <metadata
     id="metadata818">
    <rdf:RDF>
      <cc:Work
         rdf:about="">
        <dc:format>image/svg+xml</dc:format>
        <dc:type
           rdf:resource="http://purl.org/dc/dcmitype/StillImage" />
        <dc:title></dc:title>
      </cc:Work>
    </rdf:RDF>
  </metadata>
  <g
     inkscape:label="Layer 1"
     inkscape:groupmode="layer"
     id="layer1">
    <path
       style="opacity:1;vector-effect:none;fill:#634949;fill-opacity:1;fill-rule:evenodd;stroke:none;stroke-width:4;stroke-linecap:round;stroke-linejoin:round;stroke-miterlimit:4;stroke-dasharray:none;stroke-dashoffset:0;stroke-opacity:1;paint-order:stroke fill markers"
       d="M 8 4 C 6.8819583 4 5.8768159 4.4568015 5.1523438 5.1914062 L 13 15 C 13 15 12 18 12 25 C 12 28.349959 13 35 13 35 L 4.1152344 40.923828 C 4.5313422 42.689805 6.1034014 44 8 44 L 40 44 C 41.896599 44 43.468658 42.689805 43.884766 40.923828 L 35 35 C 35 35 36 28.349959 36 25 C 36 18 35 15 35 15 L 42.847656 5.1914062 C 42.123184 4.4568015 41.118042 4 40 4 L 8 4 z M 4 9 L 4 16 L 10 19 L 10.5 16 L 4 9 z M 44 9 L 37.5 16 L 38 19 L 44 16 L 44 9 z M 4 20 L 4 27 L 10 26 L 10 22 L 4 20 z M 44 20 L 38 22 L 38 26 L 44 27 L 44 20 z M 10 29 L 4 30 L 4 38 L 10.5 34 L 10 29 z M 38 29 L 37.5 34 L 44 38 L 44 30 L 38 29 z "
       id="rect1373" />
    <path
       style="fill:#dbcfcf;stroke:none;stroke-width:1.02031326px;stroke-linecap:butt;stroke-linejoin:miter;stroke-opacity:1;fill-opacity:1"
       d="m 24.499223,13.744143 c -3.557431,0.02779 -10.139009,2.933779 -9.842437,9.579385 0.06108,1.36872 0.539203,3.033853 0.695488,3.698636 0.09245,0.393286 -0.904654,-0.168661 -1.14586,0.155439 -0.413979,0.556246 0.565446,2.282427 1.422859,3.068912 0.36631,0.336009 0.216842,0.982998 0.44838,1.422858 0.235944,0.448229 0.454945,1.040909 0.936615,1.197672 0.604469,0.19673 1.194593,0.04596 1.833376,-0.524107 0.557096,-0.497163 0.873621,-1.094735 1.982835,-1.072125 0.513598,0.01046 0.906651,0.02424 0.950565,0.536063 0.05858,0.682849 -0.191063,1.158259 -0.01395,1.733735 0.124646,0.404997 0.5439,1.024887 0.934623,0.860889 0.356741,-0.149734 0.07545,-0.828357 0.275007,-1.159809 0.15562,-0.258469 0.348619,-0.434471 0.575918,-0.370661 0.254479,0.07144 -0.0993,0.520505 0.235151,0.669581 0.483376,0.215456 1.545665,-0.527014 1.570326,-0.225186 0.0151,0.18474 -0.742431,0.3579 -0.823026,0.71143 -0.06954,0.305015 0.07245,0.779968 0.374646,0.860889 0.432417,0.11579 0.45748,-0.06167 0.55599,-0.189316 0.161668,-0.209481 0.380205,0.417237 0.641683,0.376639 0.402445,-0.06248 0.527095,-0.680305 0.561969,-1.086075 0.02128,-0.247629 -0.225187,-0.711431 -0.225187,-0.711431 0,0 0.371801,0.357461 0.464324,0.681538 0.114796,0.402107 0.112018,0.780293 0.358703,0.852918 0.262435,0.07727 0.561122,-0.289156 0.599832,-0.559976 0.0451,-0.315548 -0.194799,-0.50257 -0.275005,-0.811069 -0.125585,-0.483053 -0.01781,-1.036952 -0.175367,-1.510543 -0.165423,-0.497257 -1.264577,-0.501561 -1.092055,-0.9964 0.160365,-0.459965 0.979453,-0.458755 1.42286,-0.257071 0.731373,0.332666 0.745572,1.817953 1.478656,1.82939 0.401641,0.0063 0.221475,-0.839097 0.514143,-0.563962 0.575965,0.541455 0.797356,1.017687 1.406916,0.966508 0.619265,-0.052 1.629856,-0.882767 1.500578,-1.490614 -0.20802,-0.978086 -0.366674,-1.546413 -0.366674,-1.546413 0,0 1.672104,-0.538855 1.498584,-2.132295 -0.04206,-0.386212 -0.565916,-0.622063 -0.637696,-1.084082 -0.200976,-1.293684 0.944594,-3.281354 -0.243121,-6.887115 -1.144081,-3.473305 -6.227059,-6.0412 -8.399645,-6.024232 z m 2.909487,11.741573 c 0.164208,0.02817 0.326679,0.136718 0.496207,0.163409 0.415404,0.06539 0.789034,-0.175053 1.191693,-0.0538 0.938088,0.282474 2.047535,1.03563 2.14226,2.010734 0.05988,0.61641 -0.573917,1.416419 -1.092054,1.755655 -0.49066,0.321242 -1.696928,0.01328 -1.711814,0.123554 -0.03602,0.266855 0.685781,0.219222 0.687516,0.422475 0.0013,0.16084 -0.536388,0.232607 -0.821034,0.239135 -0.263067,0.006 -0.786839,-0.07057 -0.767228,-0.18533 0.03998,-0.23394 0.548399,-0.25013 0.530086,-0.47628 -0.01085,-0.133941 -0.567433,-0.34117 -0.958538,-0.400552 -0.742811,-0.112781 -1.090862,-1.090236 -1.106003,-1.689894 -0.01914,-0.758154 0.509786,-1.713233 1.243507,-1.905117 0.05534,-0.01447 0.110665,-0.01338 0.165402,-0.004 z m -7.044547,0.08369 c 0.652682,0.03351 1.357888,0.864129 1.665981,1.032271 0.280549,0.153108 0.421911,-0.598533 0.741322,-0.609797 0.335082,-0.01182 0.902311,0.256607 0.821033,0.581898 -0.08406,0.336465 -0.813065,-0.135231 -1.03227,0.133517 -0.223628,0.274169 0.14125,0.72331 -0.105618,1.349125 -0.313956,0.795887 -0.695319,1.447268 -1.534456,1.614168 -0.584304,0.116215 -1.018448,-0.761208 -1.614168,-0.767228 -0.493441,-0.005 -0.860208,0.657963 -1.351117,0.607805 -0.433526,-0.0443 -0.941163,-0.347449 -1.058176,-0.767229 -0.182553,-0.654885 0.327036,-1.386165 0.795126,-1.879209 0.681741,-0.718086 1.683487,-1.346102 2.672343,-1.295321 z m 3.280148,1.428838 c 0.594575,-0.0087 1.370744,0.374109 1.50855,0.952558 0.31608,1.326756 0.620761,2.089087 0.18533,2.777962 -0.255097,0.403578 -0.930425,-0.359426 -1.402931,-0.290948 -0.406164,0.05886 -0.76028,0.834057 -1.084083,0.581896 -0.258238,-0.2011 0.389896,-0.663084 0.237143,-0.952556 -0.118522,-0.224606 -0.808459,-0.02954 -0.713421,-0.265043 0.424924,-1.052986 1.027164,-2.800336 1.269412,-2.803869 z m 2.987207,9.198762 c -0.257103,-0.0052 -0.493786,0.158244 -0.749292,0.187323 -0.209803,0.02388 -0.442442,0.03829 -0.410517,0.504178 0.01781,0.260001 0.02118,0.710839 0.280984,0.731357 0.778053,0.06144 0.525363,-1.153722 0.729365,-1.086075 0.511316,0.169543 -0.185363,1.214642 0.336783,1.347132 0.589268,0.149523 0.846703,-0.24183 1.018321,-0.685523 0.09714,-0.25114 -0.08047,-0.64396 -0.318849,-0.733349 -0.352961,-0.132359 -0.50991,-0.257493 -0.886795,-0.265043 z m -2.235921,0.446386 c -0.0332,0.0085 -0.06083,0.0279 -0.08369,0.05979 -0.09095,0.126803 -0.104912,0.5044 0,0.916688 0.06341,0.249213 0.6689,-0.04697 0.709437,-0.300913 0.0433,-0.271226 -0.393306,-0.734521 -0.62574,-0.67556 z m 2.066533,1.799499 c -0.429862,-0.02909 -0.817047,0.172778 -1.197672,0.374645 -0.369532,0.195985 -0.596778,-0.20218 -0.7473,0.01794 -0.133646,0.195434 0.221876,0.786111 1.028285,0.860889 0.305505,0.02833 0.576259,-0.243826 0.880817,-0.280986 0.621819,-0.07587 1.190648,0.427738 1.552391,0.149461 0.30367,-0.233605 0.01656,-1.018215 -1.516521,-1.121947 z"
       id="path894"
       inkscape:connector-curvature="0" />
    <path
       style="color:#000000;font-style:normal;font-variant:normal;font-weight:normal;font-stretch:normal;font-size:medium;line-height:normal;font-family:sans-serif;font-variant-ligatures:normal;font-variant-position:normal;font-variant-caps:normal;font-variant-numeric:normal;font-variant-alternates:normal;font-feature-settings:normal;text-indent:0;text-align:start;text-decoration:none;text-decoration-line:none;text-decoration-style:solid;text-decoration-color:#000000;letter-spacing:normal;word-spacing:normal;text-transform:none;writing-mode:lr-tb;direction:ltr;text-orientation:mixed;dominant-baseline:auto;baseline-shift:baseline;text-anchor:start;white-space:normal;shape-padding:0;clip-rule:nonzero;display:inline;overflow:visible;visibility:visible;opacity:0.4;isolation:auto;mix-blend-mode:normal;color-interpolation:sRGB;color-interpolation-filters:linearRGB;solid-color:#000000;solid-opacity:1;vector-effect:none;fill:#000000;fill-opacity:1;fill-rule:evenodd;stroke:none;stroke-width:2;stroke-linecap:round;stroke-linejoin:round;stroke-miterlimit:4;stroke-dasharray:none;stroke-dashoffset:0;stroke-opacity:1;paint-order:stroke fill markers;color-rendering:auto;image-rendering:auto;shape-rendering:auto;text-rendering:auto;enable-background:accumulate"
       d="M 8 4 C 6.8819583 4 5.8768159 4.4568015 5.1523438 5.1914062 L 13 15 C 13 15 12 18 12 25 C 12 28.349959 13 35 13 35 L 4.1152344 40.923828 C 4.5313422 42.689805 6.1034014 44 8 44 L 40 44 C 41.896599 44 43.468658 42.689805 43.884766 40.923828 L 35 35 C 35 35 36 28.349959 36 25 C 36 18 35 15 35 15 L 42.847656 5.1914062 C 42.123184 4.4568015 41.118042 4 40 4 L 8 4 z M 8 5 L 40 5 C 40.509833 5 40.872239 5.3195602 41.287109 5.5390625 L 34.21875 14.375 A 1.0001 1.0001 0 0 0 34.050781 15.316406 C 34.050781 15.316406 35 18.095238 35 25 C 35 28.150952 34.011719 34.851562 34.011719 34.851562 A 1.0001 1.0001 0 0 0 34.445312 35.832031 L 42.566406 41.246094 C 42.082892 42.239535 41.19618 43 40 43 L 8 43 C 6.8038207 43 5.9171076 42.239535 5.4335938 41.246094 L 13.554688 35.832031 A 1.0001 1.0001 0 0 0 13.988281 34.851562 C 13.988281 34.851562 13 28.150952 13 25 C 13 18.095238 13.949219 15.316406 13.949219 15.316406 A 1.0001 1.0001 0 0 0 13.78125 14.375 L 6.7128906 5.5390625 C 7.1277607 5.3195602 7.4901671 5 8 5 z M 4 9 L 4 16 L 10 19 L 10.5 16 L 4 9 z M 44 9 L 37.5 16 L 38 19 L 44 16 L 44 9 z M 5 11.544922 L 9.4335938 16.320312 L 9.2363281 17.5 L 5 15.382812 L 5 11.544922 z M 43 11.544922 L 43 15.382812 L 38.763672 17.5 L 38.566406 16.320312 L 43 11.544922 z M 4 20 L 4 27 L 10 26 L 10 22 L 4 20 z M 44 20 L 38 22 L 38 26 L 44 27 L 44 20 z M 5 21.388672 L 9 22.720703 L 9 25.152344 L 5 25.820312 L 5 21.388672 z M 43 21.388672 L 43 25.820312 L 39 25.152344 L 39 22.720703 L 43 21.388672 z M 10 29 L 4 30 L 4 38 L 10.5 34 L 10 29 z M 38 29 L 37.5 34 L 44 38 L 44 30 L 38 29 z M 9.1113281 30.162109 L 9.4433594 33.476562 L 5 36.210938 L 5 30.847656 L 9.1113281 30.162109 z M 38.888672 30.162109 L 43 30.847656 L 43 36.210938 L 38.556641 33.476562 L 38.888672 30.162109 z "
       id="rect1373-5" />
  </g>
</svg>
