<?xml version="1.0" encoding="UTF-8" standalone="no"?>
<!-- Created with Inkscape (http://www.inkscape.org/) -->

<svg
   xmlns:dc="http://purl.org/dc/elements/1.1/"
   xmlns:cc="http://creativecommons.org/ns#"
   xmlns:rdf="http://www.w3.org/1999/02/22-rdf-syntax-ns#"
   xmlns:svg="http://www.w3.org/2000/svg"
   xmlns="http://www.w3.org/2000/svg"
   xmlns:xlink="http://www.w3.org/1999/xlink"
   xmlns:sodipodi="http://sodipodi.sourceforge.net/DTD/sodipodi-0.dtd"
   xmlns:inkscape="http://www.inkscape.org/namespaces/inkscape"
   width="48px"
   height="48px"
   viewBox="0 0 48 48"
   version="1.1"
   id="SVGRoot"
   inkscape:version="0.92.4 (5da689c313, 2019-01-14)"
   sodipodi:docname="frozen-synapse.svg">
  <defs
     id="defs815">
    <linearGradient
       gradientUnits="userSpaceOnUse"
       y2="50"
       x2="90"
       y1="20"
       x1="60"
       xlink:href="#WhiteTransparent-4"
       id="IcecapTip-6"
       gradientTransform="matrix(0.9965784,0,0,0.9962666,-89.841948,-62.996045)" />
    <linearGradient
       gradientUnits="userSpaceOnUse"
       id="WhiteTransparent-4">
      <stop
         id="stop7606-4"
         offset="0"
         style="stop-color:white;stop-opacity:1" />
      <stop
         id="stop7608-7"
         offset="1"
         style="stop-color:white;stop-opacity:0" />
    </linearGradient>
    <style
       id="style819">.cls-1{fill:none;stroke:#fff;stroke-linecap:round;stroke-linejoin:round;}</style>
  </defs>
  <sodipodi:namedview
     id="base"
     pagecolor="#ffffff"
     bordercolor="#666666"
     borderopacity="1.0"
     inkscape:pageopacity="0.0"
     inkscape:pageshadow="2"
     inkscape:zoom="16.342421"
     inkscape:cx="25.108494"
     inkscape:cy="25.7268"
     inkscape:document-units="px"
     inkscape:current-layer="layer1"
     showgrid="true"
     inkscape:window-width="1920"
     inkscape:window-height="1017"
     inkscape:window-x="-8"
     inkscape:window-y="-8"
     inkscape:window-maximized="1"
     inkscape:grid-bbox="true"
     inkscape:snap-global="true">
    <inkscape:grid
       type="xygrid"
       id="grid1371" />
  </sodipodi:namedview>
  <metadata
     id="metadata818">
    <rdf:RDF>
      <cc:Work
         rdf:about="">
        <dc:format>image/svg+xml</dc:format>
        <dc:type
           rdf:resource="http://purl.org/dc/dcmitype/StillImage" />
        <dc:title />
      </cc:Work>
    </rdf:RDF>
  </metadata>
  <g
     inkscape:label="Layer 1"
     inkscape:groupmode="layer"
     id="layer1">
    <rect
       style="opacity:1;vector-effect:none;fill:#384181;fill-opacity:1;fill-rule:evenodd;stroke:none;stroke-width:4;stroke-linecap:round;stroke-linejoin:round;stroke-miterlimit:4;stroke-dasharray:none;stroke-dashoffset:0;stroke-opacity:1;paint-order:stroke fill markers"
       id="rect1373"
       width="40"
       height="40"
       x="4"
       y="4"
       ry="4" />
    <path
       style="fill:#4c59b4;fill-opacity:1;stroke:none;stroke-width:1px;stroke-linecap:butt;stroke-linejoin:miter;stroke-opacity:1"
       d="m 8,18 v 7 l 7,4 7,-4 v -7 z"
       id="path851"
       inkscape:connector-curvature="0"
       sodipodi:nodetypes="cccccc" />
    <path
       style="opacity:0.25;fill:#76c4f2;fill-opacity:1;stroke:none;stroke-width:1px;stroke-linecap:butt;stroke-linejoin:miter;stroke-opacity:1"
       d="M 39.400391 24.353516 L 39 25.578125 L 44 28.380859 L 44 27.285156 L 40 25 L 39.400391 24.353516 z M 10.515625 25.564453 L 10 26 L 4 30.5 L 4 32.212891 L 11 26.699219 L 10.515625 25.564453 z M 12.533203 26.810547 L 12 27.267578 L 4.9042969 33.044922 L 7 34.414062 L 7 43.861328 C 7.3209985 43.943831 7.65255 44 8 44 L 8 34 L 6.3300781 33 L 13 27.845703 L 12.533203 26.810547 z M 33.972656 27.03125 L 34 28.464844 L 44 33.910156 L 44 32.785156 L 35 27.886719 L 33.972656 27.03125 z M 14 27.421875 L 14 28.421875 L 8.2050781 32.789062 L 11.886719 34.914062 L 11.886719 44 L 12.791016 44 L 12.791016 34.255859 L 10.037109 32.666016 L 15 29 L 14 27.421875 z M 31 30 L 28.9375 30.001953 L 28 31.732422 L 35.435547 37.037109 L 34 37.916016 L 34 44 L 35 44 L 35 38.107422 L 39.009766 35.552734 L 31 30 z M 22.703125 31.615234 L 21 32.267578 L 14.816406 36.015625 L 20 39.400391 L 20 44 L 21 44 L 21 38.914062 L 16.613281 36.287109 L 18.736328 35.0625 L 23 37.564453 L 23 44 L 24 44 L 24 37.410156 L 20.541016 35.230469 L 22.087891 34.337891 L 29.785156 38.78125 L 27 40.96875 L 27 44 L 28 44 L 28 41.298828 L 31.210938 38.65625 L 24 34 L 22.703125 31.615234 z "
       id="path897" />
    <path
       style="fill:#4c59b4;fill-opacity:1;stroke:none;stroke-width:1px;stroke-linecap:butt;stroke-linejoin:miter;stroke-opacity:1"
       d="m 26,18 v 7 l 7,4 7,-4 v -7 z"
       id="path851-7"
       inkscape:connector-curvature="0"
       sodipodi:nodetypes="cccccc" />
    <path
       style="fill:#4c59b4;fill-opacity:1;stroke:none;stroke-width:1px;stroke-linecap:butt;stroke-linejoin:miter;stroke-opacity:1"
       d="m 17,23 v 7 l 7,4 7,-4 v -7 z"
       id="path851-9"
       inkscape:connector-curvature="0"
       sodipodi:nodetypes="cccccc" />
    <path
       style="fill:#76c4f2;fill-opacity:1;stroke:none;stroke-width:1px;stroke-linecap:butt;stroke-linejoin:miter;stroke-opacity:1"
       d="m 17,23 7,-4 7,4 -7,4 z"
       id="path828-24"
       inkscape:connector-curvature="0"
       sodipodi:nodetypes="ccccc" />
    <path
       style="fill:#4e85be;fill-opacity:1;stroke:none;stroke-width:1px;stroke-linecap:butt;stroke-linejoin:miter;stroke-opacity:1"
       d="M 40,17.845703 38,19 v 2.154297 l -4,2.310547 v 5 l 1,-0.578125 v -4 l 4,-2.308594 v 4 L 40,25 Z M 10,18 v 8.099609 l 1,0.59961 V 19 Z m 7,4.958984 v 2 l 4,2.308594 v 5 L 24,34 v -7 l -3,-1.732422 v 1 l -3,-1.732422 v -1 z M 31,23 29,24.154297 v 3 l -2,-0.845703 v -1 l -1,0.578125 v 2 l 2,0.845703 v 3 L 31,30 Z m -19,2.267578 v 2 l 1,0.578125 v -1 l 1,0.576172 v 1 L 15,29 v -2 z"
       id="path885"
       inkscape:connector-curvature="0"
       sodipodi:nodetypes="ccccccccccccccccccccccccccccccccccccccccccccscc" />
    <path
       style="fill:#ffffff;stroke:none;stroke-width:1px;stroke-linecap:butt;stroke-linejoin:miter;stroke-opacity:1"
       d="m 20,23 3,-1 1,-2 1,2 3,1 -3,1 -1,2 -1,-2 z"
       id="path883"
       inkscape:connector-curvature="0" />
    <path
       style="fill:#76c4f2;fill-opacity:1;stroke:none;stroke-width:1px;stroke-linecap:butt;stroke-linejoin:miter;stroke-opacity:1"
       d="m 8,18 7,-4 7,4 -7,4 z"
       id="path828"
       inkscape:connector-curvature="0"
       sodipodi:nodetypes="ccccc" />
    <path
       style="fill:#76c4f2;fill-opacity:1;stroke:none;stroke-width:1px;stroke-linecap:butt;stroke-linejoin:miter;stroke-opacity:1"
       d="m 26,18 7,-4 7,4 -7,4 z"
       id="path828-2"
       inkscape:connector-curvature="0"
       sodipodi:nodetypes="ccccc" />
    <path
       style="opacity:0.25;vector-effect:none;fill:#000000;fill-opacity:1;fill-rule:evenodd;stroke:none;stroke-width:4;stroke-linecap:round;stroke-linejoin:round;stroke-miterlimit:4;stroke-dasharray:none;stroke-dashoffset:0;stroke-opacity:1;paint-order:stroke fill markers"
       d="M 8 4 C 5.784 4 4 5.784 4 8 L 4 40 C 4 42.216 5.784 44 8 44 L 40 44 C 42.216 44 44 42.216 44 40 L 44 8 C 44 5.784 42.216 4 40 4 L 8 4 z M 8 5 L 40 5 C 41.662 5 43 6.338 43 8 L 43 40 C 43 41.662 41.662 43 40 43 L 8 43 C 6.338 43 5 41.662 5 40 L 5 8 C 5 6.338 6.338 5 8 5 z "
       id="rect826" />
  </g>
</svg>
