<?xml version="1.0" encoding="UTF-8" standalone="no"?>
<!-- Created with Inkscape (http://www.inkscape.org/) -->

<svg
   xmlns:dc="http://purl.org/dc/elements/1.1/"
   xmlns:cc="http://creativecommons.org/ns#"
   xmlns:rdf="http://www.w3.org/1999/02/22-rdf-syntax-ns#"
   xmlns:svg="http://www.w3.org/2000/svg"
   xmlns="http://www.w3.org/2000/svg"
   xmlns:sodipodi="http://sodipodi.sourceforge.net/DTD/sodipodi-0.dtd"
   xmlns:inkscape="http://www.inkscape.org/namespaces/inkscape"
   width="48px"
   height="48px"
   viewBox="0 0 48 48"
   version="1.1"
   id="SVGRoot"
   inkscape:version="0.92.4 (5da689c313, 2019-01-14)"
   sodipodi:docname="funkin.svg">
  <defs
     id="defs815" />
  <sodipodi:namedview
     id="base"
     pagecolor="#ffffff"
     bordercolor="#666666"
     borderopacity="1.0"
     inkscape:pageopacity="0.0"
     inkscape:pageshadow="2"
     inkscape:zoom="13.632692"
     inkscape:cx="25.048406"
     inkscape:cy="23.459606"
     inkscape:document-units="px"
     inkscape:current-layer="layer1"
     showgrid="true"
     inkscape:window-width="1920"
     inkscape:window-height="1017"
     inkscape:window-x="-8"
     inkscape:window-y="-8"
     inkscape:window-maximized="1"
     inkscape:grid-bbox="true"
     inkscape:snap-global="false">
    <inkscape:grid
       type="xygrid"
       id="grid1371" />
  </sodipodi:namedview>
  <metadata
     id="metadata818">
    <rdf:RDF>
      <cc:Work
         rdf:about="">
        <dc:format>image/svg+xml</dc:format>
        <dc:type
           rdf:resource="http://purl.org/dc/dcmitype/StillImage" />
        <dc:title></dc:title>
      </cc:Work>
    </rdf:RDF>
  </metadata>
  <g
     inkscape:label="Layer 1"
     inkscape:groupmode="layer"
     id="layer1">
    <rect
       style="opacity:1;vector-effect:none;fill:#f97263;fill-opacity:1;fill-rule:evenodd;stroke:none;stroke-width:4;stroke-linecap:round;stroke-linejoin:round;stroke-miterlimit:4;stroke-dasharray:none;stroke-dashoffset:0;stroke-opacity:1;paint-order:stroke fill markers"
       id="rect1373"
       width="40"
       height="40"
       x="4"
       y="4"
       ry="4" />
    <path
       style="opacity:0.25;vector-effect:none;fill:#000000;fill-opacity:1;fill-rule:evenodd;stroke:none;stroke-width:4;stroke-linecap:round;stroke-linejoin:round;stroke-miterlimit:4;stroke-dasharray:none;stroke-dashoffset:0;stroke-opacity:1;paint-order:stroke fill markers"
       d="M 8 4 C 5.784 4 4 5.784 4 8 L 4 40 C 4 42.216 5.784 44 8 44 L 40 44 C 42.216 44 44 42.216 44 40 L 44 8 C 44 5.784 42.216 4 40 4 L 8 4 z M 8 5 L 40 5 C 41.662 5 43 6.338 43 8 L 43 40 C 43 41.662 41.662 43 40 43 L 8 43 C 6.338 43 5 41.662 5 40 L 5 8 C 5 6.338 6.338 5 8 5 z "
       id="rect826" />
    <path
       inkscape:connector-curvature="0"
       d="m 11.207099,32.80607 0.970109,1.994105 c 0,0 -0.765599,-0.462457 -1.131798,-0.718606 -0.230998,-0.161589 -0.50178,-0.09663 -0.628768,0.07185 -0.131554,0.17453 -0.05984,0.506502 0.107791,0.646755 0.652527,0.545851 1.437263,1.05575 2.479172,1.724641 0.228773,0.146859 0.629343,0.09673 0.80842,-0.107796 0.09468,-0.108126 0.07655,-0.309512 0,-0.431154 -0.570683,-0.906827 -0.88027,-1.598877 -0.88027,-1.598877 l 1.832416,1.419225 c 0,0 -1.239199,1.570896 -0.819137,2.482495 1.024371,2.223048 7.519585,1.755445 10.442077,1.244895 4.328028,-0.756105 9.576922,-2.729125 11.839368,-5.792521 0.445444,0.388358 0.691175,0.846144 1.219513,1.473563 0.155056,0.184133 0.321254,0.495459 0.558941,0.457311 0.218047,-0.03498 0.315658,-0.341766 0.35568,-0.558941 0.18177,-0.986273 0.304866,-1.676799 0.304866,-1.676799 0,0 1.074662,0.793705 2.743865,1.981689 0.211093,0.150237 0.561814,0.316708 0.762177,0.152435 0.235773,-0.193287 0.07729,-0.619699 0,-0.914621 -0.712711,-2.719632 -1.219513,-5.233655 -1.219513,-5.233655 0,0 2.856788,-2.466082 4.999316,-8.454693 0.08913,-0.249109 0.146365,-0.64086 -0.07186,-0.790457 -0.287678,-0.197195 -0.750884,0.04967 -1.006034,0.287452 -1.589433,1.481258 -3.808634,2.550998 -3.808634,2.550998 0,0 1.479783,-5.374558 1.950735,-7.669732 0.03239,-0.157841 0.331947,-0.298145 0.384711,-0.45039 0.05771,-0.166506 0.04238,-0.404473 -0.08983,-0.520993 C 41.254051,12.56197 31.749354,8.5534986 25.187362,7.3695618 24.933036,7.3236933 24.667744,7.303807 24.412469,7.3441792 18.374366,8.2985237 9.9921238,11.363668 7.161568,13.568654 c -0.1679846,0.13087 -0.2226495,0.399251 -0.1905466,0.609756 0.2885768,1.89235 0.9527456,3.88708 0.9527456,3.88708 0,0 -2.4833692,2.739868 -5.8427368,8.066709 -0.1022697,0.162169 -0.150584,0.436425 -0.017965,0.57488 0.1760615,0.183804 0.5552186,0.155274 0.7635005,0.009 4.6488069,-3.264757 7.0331692,-3.14384 7.0331692,-3.14384 0,0 0.1698511,0.724202 0.2905261,1.075336 0.09953,0.289626 0.356205,0.846918 0.356205,0.846918 0,0 -3.8293701,5.1692 -4.3834895,11.228038 -0.00927,0.10138 0.049449,0.231051 0.1437188,0.269465 0.1574968,0.06416 0.235071,-0.04107 0.3054152,-0.125754 1.853427,-2.232042 4.6350665,-4.060211 4.6350665,-4.060211 z"
       style="fill:#4e4e4e;stroke-width:0.99931359"
       id="path823" />
    <path
       inkscape:connector-curvature="0"
       d="m 25.02236,8.2479385 c 0.208644,6.5872255 1.976193,15.1805725 1.976193,15.1805725 0,0 0.09463,-0.303991 0.323028,-0.395228 -0.104006,-1.283044 -0.315434,-3.277249 -0.556743,-5.281622 -0.03107,-0.258123 0.120068,-0.644008 0.377191,-0.682632 0.238721,-0.03588 0.470952,0.266942 0.521117,0.50308 0.56084,2.640936 2.784587,8.946605 2.784587,8.946605 0,0 1.349274,-0.206266 2.029856,-0.233727 1.351172,-0.05456 3.124854,-0.0631 5.042537,-0.107836 0.277784,-0.007 0.847343,-0.01554 0.868053,0.503079 0.01906,0.477397 -0.629942,0.431079 -0.904154,0.431354 -2.611706,0.003 -3.760916,-0.007 -5.563178,0 -0.436151,0.002 -1.344302,-0.159558 -1.344302,-0.159558 0,0 0.251627,0.55362 0.427931,1.003711 0.08804,0.224775 0.182797,0.578303 -0.07173,0.718756 -0.376991,0.208037 -0.686529,-0.235523 -0.898308,-0.377191 -1.569697,-1.050029 -3.575294,-1.095922 -3.575294,-1.095922 0,0 0.952995,6.642188 -1.04176,7.149839 -1.108488,0.282081 -2.137682,-2.263595 -2.137682,-2.263595 l -0.395228,-0.01806 c 0,0 -1.454401,2.057587 -1.832716,2.120119 -0.187764,0.03108 -0.521117,-0.233727 -0.521117,-0.233727 l -0.341066,0.197617 c 0,0 0.227611,2.195242 -0.449391,2.245532 -1.33988,0.09953 -3.210045,-3.921556 -3.502844,-4.83268 -0.310362,-0.399701 -0.970034,-1.167648 -0.970034,-1.167648 l -1.455051,0.808519 c 0,0 1.149436,2.392132 2.173807,4.293551 0.06477,0.120218 -0.01473,0.295347 -0.107836,0.395229 -0.706889,0.758429 -1.197502,1.416027 -1.024196,2.138181 0.298595,1.24437 5.651868,1.176142 8.425962,0.682631 4.468681,-0.794954 9.14272,-1.897022 12.40448,-5.67735 -0.212397,-0.355206 -0.296746,-0.508001 -0.42206,-0.790482 -0.07301,-0.164577 -0.132799,-0.475024 0.03562,-0.53868 0.123635,-0.04677 0.409594,0.245111 0.574806,0.413291 0.615852,0.626944 1.72489,1.993755 1.72489,1.993755 0,0 0.140151,-1.58641 0.341066,-1.832241 0.111518,-0.136456 0.521117,-0.08978 0.521117,-0.08978 0,0 -0.803573,-2.015191 -1.167648,-3.035915 -0.0781,-0.21895 -0.06062,-0.37909 0.05367,-0.50308 0.870152,-0.944051 1.736307,-2.004273 2.15477,-2.584724 0.176396,-0.244622 0.355555,-0.390832 0.488439,-0.38596 0.195389,0.007 0.360003,0.198101 0.398177,0.389882 0.177962,0.894386 0.533808,2.167461 0.533808,2.167461 0,0 2.200264,-2.230043 3.772409,-6.467307 -1.073638,0.963138 -3.875338,2.490189 -4.509153,2.8383 -0.06904,0.03787 -0.173039,0.01476 -0.233237,-0.03611 -0.130258,-0.109904 -0.120188,-0.213011 -0.161999,-0.485017 0.964662,-3.005685 2.623198,-9.180194 2.623198,-9.180194 0,0 -6.694901,-4.459187 -17.389805,-6.664922 z m -0.915871,0.089294 C 20.837484,8.8161532 11.30853,11.552024 7.7719588,14.101273 c 0.1305853,1.475986 0.5333337,3.430144 0.5333337,3.430144 0,0 1.8353645,-2.021761 3.5488125,-2.403124 4.700521,-1.046282 14.96572,8.678039 14.96572,8.678039 l 0.07612,-0.120522 c 0,0 -2.424085,-7.349202 -2.789584,-15.3489576 z M 12.572411,16.074667 c -0.154066,-6.49e-4 -0.303716,0.0072 -0.448417,0.02489 -2.8098195,0.343289 -8.0482214,8.713265 -8.0482214,8.713265 0,0 2.5487493,-1.791894 5.60515,-2.173807 1.3764544,-0.172002 3.8740894,-0.0159 5.7398074,0.431354 0.248155,0.05946 0.373693,0.289926 0.341565,0.485017 -0.03134,0.190279 -0.275011,0.328849 -0.467453,0.341065 -2.400951,0.152186 -4.014743,2.110851 -4.014743,2.110851 l 2.011793,4.320782 1.257437,-0.610906 c 0,0 -0.905678,-0.826007 -1.263782,-1.259884 -0.127853,-0.154914 -0.2554,-0.616102 -0.09173,-0.499657 0.865531,0.615927 1.907865,1.427245 1.907865,1.427245 0,0 5.302108,-2.906004 10.378621,-3.061398 0.44427,-0.920717 0.927088,-1.677073 0.927088,-1.677073 0,0 -9.058778,-8.551376 -13.834747,-8.571862 z m 15.59329,6.671168 c 0,0 0.238476,1.743628 0.251302,2.838301 0.0027,0.235318 -0.357504,0.400699 -0.682631,0.179564 -0.246006,-0.167335 -0.579202,-0.492337 -0.579202,-0.492337 l -0.610905,1.041759 c 0,0 1.79062,0.17978 3.058399,0.672389 -0.617901,-2.026234 -1.436738,-4.239089 -1.437013,-4.239838 z m -16.904889,0.727051 c -0.342489,0.003 -0.723703,0.02694 -1.202299,0.08002 0.344938,0.441047 0.51752,1.035789 0.800226,1.53702 0.562463,-0.680533 1.32404,-1.105841 2.070352,-1.498971 -0.633115,-0.07006 -1.097271,-0.123 -1.668279,-0.118084 z m -0.389382,3.178567 c 0,0 -2.1387811,2.444795 -4.0904405,8.943107 2.9002579,-3.022424 5.8944515,-4.827185 5.8944515,-4.827185 l -1.803936,-4.115922 z m 28.912641,0.304965 c 0,0 -1.07129,1.304479 -1.880059,2.020088 0,0 0.542153,1.417301 1.219387,3.69671 0.65575,0.454663 2.019613,1.460922 2.019613,1.460922 0,0 -0.838699,-4.391234 -1.409682,-6.351637 -0.0496,-0.170318 0.152241,-0.39378 0.152241,-0.39378 l -0.101493,-0.432328 z m -14.838059,0.30644 c -2.204485,0.05496 -7.051656,1.496097 -9.044537,2.820312 1.33933,1.098996 2.414916,1.927951 4.746739,3.316472 2.135858,-2.159516 2.896761,-3.940793 4.297798,-6.136784 z m 6.112052,2.883269 c 1.079584,-0.004 3.561304,0.559566 3.557057,1.904442 -0.0055,1.743927 -5.533199,3.413156 -5.533199,3.413156 0,0 -1.314572,1.352196 -2.137682,1.778553 -0.759703,0.393505 -1.371058,0.818138 -2.479247,0.664594 -0.10561,-0.01459 -0.238851,-0.15295 -0.197619,-0.251303 0.04194,-0.100011 0.203775,-0.03451 0.323502,-0.03611 1.779128,-0.02258 3.911564,-2.382463 4.239838,-2.874025 1.181339,-1.76996 1.635777,-2.754109 1.868342,-4.1499 0.03151,-0.18911 0.06724,-0.448292 0.359128,-0.449391 z m -18.054099,1.510688 -1.024196,0.664593 2.730624,2.569485 -1.706353,-3.234028 z"
       style="fill:#79b7ea;stroke-width:0.99931359;fill-opacity:1"
       id="path825" />
    <path
       inkscape:connector-curvature="0"
       d="M 25.529512,28.101801 23.47185,31.27737 c 0,0 0.912573,2.36575 1.778079,2.261147 0.61835,-0.0747 0.279583,-5.436766 0.279583,-5.436766 z m -8.66355,3.732687 c 0,0 1.424347,3.078635 2.464133,3.709452 0.202933,0.123115 0.02537,-2.007422 0.02537,-2.007422 l -2.48949,-1.701956 z"
       style="fill:#ffffff;stroke-width:0.99931359"
       id="path827" />
    <path
       inkscape:connector-curvature="0"
       d="m 29.696649,34.6548 c 1.724541,-2.426133 1.714922,-3.874338 1.714922,-3.874338 0,0 0.965937,0.197074 1.664107,0.520817 -0.468428,0.08444 -1.024496,0.376166 -0.952745,0.546225 0.07589,0.179876 1.791145,0.01269 1.791145,0.01269 0,0 0.05755,0.238926 -0.05082,0.457311 -0.170393,0.343414 -0.393804,0.431903 -0.393804,0.431903 0,0 -0.596565,-0.08674 -0.889214,-0.03807 -0.470852,0.07825 -1.375031,0.434102 -1.333834,0.520842 0.06751,0.142123 1.283019,0.114332 1.283019,0.114332 0,0 -0.605185,0.4374 -2.832805,1.308426 z"
       style="fill:#ffffff;stroke-width:0.99931359"
       id="path829" />
  </g>
  <style
     id="style817"
     type="text/css">.st0{fill:#FFFFFF;}</style>
  <style
     id="style819"
     type="text/css">.st0{fill:#FFFFFF;}</style>
</svg>
