<?xml version="1.0" encoding="UTF-8" standalone="no"?>
<!-- Created with Inkscape (http://www.inkscape.org/) -->

<svg
   xmlns:dc="http://purl.org/dc/elements/1.1/"
   xmlns:cc="http://creativecommons.org/ns#"
   xmlns:rdf="http://www.w3.org/1999/02/22-rdf-syntax-ns#"
   xmlns:svg="http://www.w3.org/2000/svg"
   xmlns="http://www.w3.org/2000/svg"
   xmlns:sodipodi="http://sodipodi.sourceforge.net/DTD/sodipodi-0.dtd"
   xmlns:inkscape="http://www.inkscape.org/namespaces/inkscape"
   width="48px"
   height="48px"
   viewBox="0 0 48 48"
   version="1.1"
   id="SVGRoot"
   inkscape:version="0.92.4 (5da689c313, 2019-01-14)"
   sodipodi:docname="gish.svg">
  <defs
     id="defs815" />
  <sodipodi:namedview
     id="base"
     pagecolor="#ffffff"
     bordercolor="#666666"
     borderopacity="1.0"
     inkscape:pageopacity="0.0"
     inkscape:pageshadow="2"
     inkscape:zoom="27.265384"
     inkscape:cx="13.581289"
     inkscape:cy="24.555471"
     inkscape:document-units="px"
     inkscape:current-layer="layer1"
     showgrid="true"
     inkscape:window-width="1920"
     inkscape:window-height="1017"
     inkscape:window-x="-8"
     inkscape:window-y="-8"
     inkscape:window-maximized="1"
     inkscape:grid-bbox="true"
     inkscape:snap-global="false">
    <inkscape:grid
       type="xygrid"
       id="grid1371" />
  </sodipodi:namedview>
  <metadata
     id="metadata818">
    <rdf:RDF>
      <cc:Work
         rdf:about="">
        <dc:format>image/svg+xml</dc:format>
        <dc:type
           rdf:resource="http://purl.org/dc/dcmitype/StillImage" />
        <dc:title />
      </cc:Work>
    </rdf:RDF>
  </metadata>
  <g
     inkscape:label="Layer 1"
     inkscape:groupmode="layer"
     id="layer1">
    <rect
       style="opacity:1;vector-effect:none;fill:#4e4e4e;fill-opacity:1;fill-rule:evenodd;stroke:none;stroke-width:4;stroke-linecap:round;stroke-linejoin:round;stroke-miterlimit:4;stroke-dasharray:none;stroke-dashoffset:0;stroke-opacity:1;paint-order:stroke fill markers"
       id="rect1373"
       width="40"
       height="40"
       x="4"
       y="4"
       ry="4" />
    <path
       inkscape:connector-curvature="0"
       style="opacity:0.4;vector-effect:none;fill:#000000;fill-opacity:1;fill-rule:evenodd;stroke:none;stroke-width:4;stroke-linecap:round;stroke-linejoin:round;stroke-miterlimit:4;stroke-dasharray:none;stroke-dashoffset:0;stroke-opacity:1;paint-order:stroke fill markers"
       d="M 8,4 C 5.784,4 4,5.784 4,8 v 32 c 0,2.216 1.784,4 4,4 h 32 c 2.216,0 4,-1.784 4,-4 V 8 C 44,5.784 42.216,4 40,4 Z m 0,1 h 32 c 1.662,0 3,1.338 3,3 v 32 c 0,1.662 -1.338,3 -3,3 H 8 C 6.338,43 5,41.662 5,40 V 8 C 5,6.338 6.338,5 8,5 Z"
       id="rect822-3" />
    <path
       style="fill:#ffdd75;stroke:none;stroke-width:1px;stroke-linecap:butt;stroke-linejoin:miter;stroke-opacity:1"
       d="m 9,23 c 0.1909529,-1.802457 1.990722,-2.109028 3,-3 1.009278,-0.890972 0.364819,-1.970059 3,-2 2.635181,-0.02994 3.440396,6.880792 6.440396,8.880792 3,2 -5.219389,1.057048 -7.440396,0.119208 -2.221007,-0.937844 -5.1909529,-2.197543 -5,-4 z"
       id="path841"
       inkscape:connector-curvature="0"
       sodipodi:nodetypes="zzzzzz" />
    <rect
       style="opacity:1;vector-effect:none;fill:#ffdd75;fill-opacity:1;fill-rule:evenodd;stroke:none;stroke-width:1.11803401;paint-order:stroke fill markers"
       id="rect843-0"
       width="5"
       height="1"
       x="17"
       y="30"
       ry="0.5"
       rx="2.5" />
    <path
       style="fill:#ffdd75;stroke:none;stroke-width:1px;stroke-linecap:butt;stroke-linejoin:miter;stroke-opacity:1"
       d="m 39,23 c -0.190953,-1.802457 -1.990722,-2.109028 -3,-3 -1.009278,-0.890972 -0.364819,-1.970059 -3,-2 -2.635181,-0.02994 -3.440396,6.880792 -6.440396,8.880792 -3,2 5.219389,1.057048 7.440396,0.119208 2.221007,-0.937844 5.190953,-2.197543 5,-4 z"
       id="path841-3"
       inkscape:connector-curvature="0"
       sodipodi:nodetypes="zzzzzz" />
    <rect
       style="opacity:1;vector-effect:none;fill:#ffdd75;fill-opacity:1;fill-rule:evenodd;stroke:none;stroke-width:1.11803401;paint-order:stroke fill markers"
       id="rect843-0-2"
       width="5"
       height="1"
       x="-31"
       y="30"
       ry="0.5"
       rx="2.5"
       transform="scale(-1,1)" />
    <path
       style="fill:#ffdd75;stroke:none;stroke-width:1px;stroke-linecap:butt;stroke-linejoin:miter;stroke-opacity:1"
       d="m 21.3957,22.824133 c -1,-1 -1.660542,-3.237334 -2,-5 -0.189108,-0.981956 -0.973249,-2.770247 0,-3 1.450834,-0.342495 1.657505,2.549166 2,4 0.306337,1.297665 0.942809,4.942809 0,4 z"
       id="path885"
       inkscape:connector-curvature="0"
       sodipodi:nodetypes="sssss" />
    <path
       style="fill:#ffdd75;stroke:none;stroke-width:1px;stroke-linecap:butt;stroke-linejoin:miter;stroke-opacity:1"
       d="m 26.404395,22.824133 c 1,-1 1.660542,-3.237334 2,-5 0.189108,-0.981956 0.973249,-2.770247 0,-3 -1.450834,-0.342495 -1.657505,2.549166 -2,4 -0.306337,1.297665 -0.942809,4.942809 0,4 z"
       id="path885-7"
       inkscape:connector-curvature="0"
       sodipodi:nodetypes="sssss" />
  </g>
</svg>
