<?xml version="1.0" encoding="UTF-8" standalone="no"?>
<!-- Created with Inkscape (http://www.inkscape.org/) -->

<svg
   xmlns:dc="http://purl.org/dc/elements/1.1/"
   xmlns:cc="http://creativecommons.org/ns#"
   xmlns:rdf="http://www.w3.org/1999/02/22-rdf-syntax-ns#"
   xmlns:svg="http://www.w3.org/2000/svg"
   xmlns="http://www.w3.org/2000/svg"
   xmlns:sodipodi="http://sodipodi.sourceforge.net/DTD/sodipodi-0.dtd"
   xmlns:inkscape="http://www.inkscape.org/namespaces/inkscape"
   width="48px"
   height="48px"
   viewBox="0 0 48 48"
   version="1.1"
   id="SVGRoot"
   inkscape:version="0.92.4 (5da689c313, 2019-01-14)"
   sodipodi:docname="gnome-freecell.svg">
  <defs
     id="defs815" />
  <sodipodi:namedview
     id="base"
     pagecolor="#ffffff"
     bordercolor="#666666"
     borderopacity="1.0"
     inkscape:pageopacity="0.0"
     inkscape:pageshadow="2"
     inkscape:zoom="16.342421"
     inkscape:cx="23.568624"
     inkscape:cy="24.074579"
     inkscape:document-units="px"
     inkscape:current-layer="layer1"
     showgrid="true"
     inkscape:window-width="1920"
     inkscape:window-height="1017"
     inkscape:window-x="-8"
     inkscape:window-y="-8"
     inkscape:window-maximized="1"
     inkscape:grid-bbox="true"
     inkscape:snap-global="true"
     showguides="false">
    <inkscape:grid
       type="xygrid"
       id="grid1371" />
  </sodipodi:namedview>
  <metadata
     id="metadata818">
    <rdf:RDF>
      <cc:Work
         rdf:about="">
        <dc:format>image/svg+xml</dc:format>
        <dc:type
           rdf:resource="http://purl.org/dc/dcmitype/StillImage" />
        <dc:title></dc:title>
      </cc:Work>
    </rdf:RDF>
  </metadata>
  <g
     inkscape:label="Layer 1"
     inkscape:groupmode="layer"
     id="layer1">
    <rect
       style="opacity:1;vector-effect:none;fill:#efefef;fill-opacity:1;fill-rule:evenodd;stroke:none;stroke-width:4;stroke-linecap:round;stroke-linejoin:round;stroke-miterlimit:4;stroke-dasharray:none;stroke-opacity:1;paint-order:stroke fill markers"
       id="rect832-6"
       width="24"
       height="40"
       x="4"
       y="4"
       ry="4" />
    <path
       style="fill:#f97263;stroke:none;stroke-width:1px;stroke-linecap:butt;stroke-linejoin:miter;stroke-opacity:1"
       d="m 11,8 -3,3 3,3 3,-3 z"
       id="path852"
       inkscape:connector-curvature="0" />
    <path
       inkscape:connector-curvature="0"
       style="opacity:0.25;vector-effect:none;fill:#000000;fill-opacity:1;fill-rule:evenodd;stroke:none;stroke-width:4;stroke-linecap:round;stroke-linejoin:round;stroke-miterlimit:4;stroke-dasharray:none;stroke-opacity:1;paint-order:stroke fill markers"
       d="M 8,4 C 5.784,4 4,5.784 4,8 v 32 c 0,2.216 1.784,4 4,4 h 16 c 2.216,0 4,-1.784 4,-4 V 8 C 28,5.784 26.216,4 24,4 Z m 0,1 h 16 c 1.662,0 3,1.338 3,3 v 32 c 0,1.662 -1.338,3 -3,3 H 8 C 6.338,43 5,41.662 5,40 V 8 C 5,6.338 6.338,5 8,5 Z"
       id="rect855-2" />
    <rect
       style="opacity:1;vector-effect:none;fill:#efefef;fill-opacity:1;fill-rule:evenodd;stroke:none;stroke-width:4;stroke-linecap:round;stroke-linejoin:round;stroke-miterlimit:4;stroke-dasharray:none;stroke-opacity:1;paint-order:stroke fill markers"
       id="rect832-4"
       width="25"
       height="40"
       x="11"
       y="4"
       ry="4" />
    <path
       inkscape:connector-curvature="0"
       style="opacity:0.25;vector-effect:none;fill:#000000;fill-opacity:1;fill-rule:evenodd;stroke:none;stroke-width:4;stroke-linecap:round;stroke-linejoin:round;stroke-miterlimit:4;stroke-dasharray:none;stroke-opacity:1;paint-order:stroke fill markers"
       d="m 15.032734,4 c -2.216,0 -4,1.784 -4,4 v 32 c 0,2.216 1.784,4 4,4 H 32 c 2.216,0 4,-1.784 4,-4 V 8 C 36,5.784 34.216,4 32,4 Z m 0,1 H 32 c 1.662,0 3,1.338 3,3 v 32 c 0,1.662 -1.338,3 -3,3 H 15.032734 c -1.662,0 -3,-1.338 -3,-3 V 8 c 0,-1.662 1.338,-3 3,-3 z"
       id="rect855-5"
       sodipodi:nodetypes="ssssssssssssssssss" />
    <path
       inkscape:connector-curvature="0"
       style="fill:#4e4e4e;stroke:none;stroke-width:0.36975509px;stroke-linecap:butt;stroke-linejoin:miter;stroke-opacity:1"
       d="m 17.954362,7.973653 c -1.478598,1.8493021 -2.957197,1.8493021 -2.957197,3.698604 0,0.697417 0.7393,1.479442 1.478599,1.479442 0.7393,0 1.108949,-0.739721 1.108949,-0.739721 l -0.474442,1.479441 h 0.844091 0.846699 l -0.47705,-1.479441 c 0,0 0.369651,0.739721 1.10895,0.739721 0.7393,0 1.478598,-0.782025 1.478598,-1.479442 0,-1.8493019 -1.478598,-1.8493019 -2.957197,-3.698604 z"
       id="path921"
       sodipodi:nodetypes="csscccccssc" />
    <rect
       style="opacity:1;vector-effect:none;fill:#efefef;fill-opacity:1;fill-rule:evenodd;stroke:none;stroke-width:4;stroke-linecap:round;stroke-linejoin:round;stroke-miterlimit:4;stroke-dasharray:none;stroke-opacity:1;paint-order:stroke fill markers"
       id="rect832"
       width="26"
       height="40"
       x="18"
       y="4"
       ry="4" />
    <path
       style="opacity:0.25;vector-effect:none;fill:#000000;fill-opacity:1;fill-rule:evenodd;stroke:none;stroke-width:4;stroke-linecap:round;stroke-linejoin:round;stroke-miterlimit:4;stroke-dasharray:none;stroke-opacity:1;paint-order:stroke fill markers"
       d="m 21.977535,4 c -2.216,0 -4,1.784 -4,4 v 32 c 0,2.216 1.784,4 4,4 H 40 c 2.216,0 4,-1.784 4,-4 V 8 C 44,5.784 42.216,4 40,4 Z m 0,1 H 40 c 1.662,0 3,1.338 3,3 v 32 c 0,1.662 -1.338,3 -3,3 H 21.977535 c -1.662,0 -3,-1.338 -3,-3 V 8 c 0,-1.662 1.338,-3 3,-3 z"
       id="rect855"
       inkscape:connector-curvature="0"
       sodipodi:nodetypes="ssssssssssssssssss" />
    <path
       style="fill:#f97263;stroke:none;stroke-width:0.54919195px;stroke-linecap:butt;stroke-linejoin:miter;stroke-opacity:1"
       d="m 31.039687,31.002124 c 0,0 6.242827,-5.511144 6.932434,-9.259664 0.436654,-2.373536 -1.192827,-4.811669 -3.161654,-4.811669 -2.509397,0 -3.77078,2.629633 -3.77078,2.629633 0,0 -1.615981,-2.629633 -3.422708,-2.629633 -2.788625,0 -4.068575,2.268173 -3.538733,4.979518 0.594561,3.042523 6.961441,9.091815 6.961441,9.091815 z"
       id="path907"
       inkscape:connector-curvature="0"
       sodipodi:nodetypes="csscssc" />
    <path
       style="fill:#f97263;stroke:none;stroke-width:0.23558639px;stroke-linecap:butt;stroke-linejoin:miter;stroke-opacity:1"
       d="m 25.026505,14.045583 c 0,0 2.67798,-2.364112 2.9738,-3.972111 0.187312,-1.0181728 -0.511685,-2.0640567 -1.356252,-2.0640567 -1.076454,0 -1.617548,1.1280315 -1.617548,1.1280315 0,0 -0.693206,-1.1280315 -1.468236,-1.1280315 -1.196235,0 -1.745294,0.9729762 -1.518008,2.1360587 0.255049,1.30515 2.986244,3.900109 2.986244,3.900109 z"
       id="path907-5"
       inkscape:connector-curvature="0"
       sodipodi:nodetypes="csscssc" />
    <path
       style="fill:#f97263;stroke:none;stroke-width:0.23558639px;stroke-linecap:butt;stroke-linejoin:miter;stroke-opacity:1"
       d="m 37.010092,33.947232 c 0,0 2.67798,2.364112 2.9738,3.972111 0.187312,1.018174 -0.511685,2.064057 -1.356252,2.064057 -1.076454,0 -1.617548,-1.128031 -1.617548,-1.128031 0,0 -0.693206,1.128031 -1.468236,1.128031 -1.196235,0 -1.745294,-0.972977 -1.518008,-2.136059 0.255049,-1.30515 2.986244,-3.900109 2.986244,-3.900109 z"
       id="path907-5-8"
       inkscape:connector-curvature="0"
       sodipodi:nodetypes="csscssc" />
  </g>
</svg>
