<?xml version="1.0" encoding="UTF-8" standalone="no"?>
<!-- Created with Inkscape (http://www.inkscape.org/) -->

<svg
   xmlns:dc="http://purl.org/dc/elements/1.1/"
   xmlns:cc="http://creativecommons.org/ns#"
   xmlns:rdf="http://www.w3.org/1999/02/22-rdf-syntax-ns#"
   xmlns:svg="http://www.w3.org/2000/svg"
   xmlns="http://www.w3.org/2000/svg"
   xmlns:sodipodi="http://sodipodi.sourceforge.net/DTD/sodipodi-0.dtd"
   xmlns:inkscape="http://www.inkscape.org/namespaces/inkscape"
   width="48px"
   height="48px"
   viewBox="0 0 48 48"
   version="1.1"
   id="SVGRoot"
   inkscape:version="0.92.4 (5da689c313, 2019-01-14)"
   sodipodi:docname="goat-simulator.svg">
  <defs
     id="defs815">
    <style
       id="style2">.a{fill:none;stroke:#b1b5bd;stroke-linecap:round;stroke-linejoin:round;isolation:isolate;opacity:0.63;}</style>
  </defs>
  <sodipodi:namedview
     id="base"
     pagecolor="#ffffff"
     bordercolor="#666666"
     borderopacity="1.0"
     inkscape:pageopacity="0.0"
     inkscape:pageshadow="2"
     inkscape:zoom="5.5769059"
     inkscape:cx="25.048406"
     inkscape:cy="23.459606"
     inkscape:document-units="px"
     inkscape:current-layer="layer1"
     showgrid="true"
     inkscape:window-width="725"
     inkscape:window-height="405"
     inkscape:window-x="1038"
     inkscape:window-y="195"
     inkscape:window-maximized="0"
     inkscape:grid-bbox="true"
     inkscape:snap-global="false">
    <inkscape:grid
       type="xygrid"
       id="grid1371" />
  </sodipodi:namedview>
  <metadata
     id="metadata818">
    <rdf:RDF>
      <cc:Work
         rdf:about="">
        <dc:format>image/svg+xml</dc:format>
        <dc:type
           rdf:resource="http://purl.org/dc/dcmitype/StillImage" />
        <dc:title></dc:title>
      </cc:Work>
    </rdf:RDF>
  </metadata>
  <g
     inkscape:label="Layer 1"
     inkscape:groupmode="layer"
     id="layer1">
    <rect
       style="opacity:1;vector-effect:none;fill:#4e4e4e;fill-opacity:1;fill-rule:evenodd;stroke:none;stroke-width:4;stroke-linecap:round;stroke-linejoin:round;stroke-miterlimit:4;stroke-dasharray:none;stroke-dashoffset:0;stroke-opacity:1;paint-order:stroke fill markers"
       id="rect1373"
       width="40"
       height="40"
       x="4"
       y="4"
       ry="4" />
    <path
       style="opacity:0.4;vector-effect:none;fill:#000000;fill-opacity:1;fill-rule:evenodd;stroke:none;stroke-width:4;stroke-linecap:round;stroke-linejoin:round;stroke-miterlimit:4;stroke-dasharray:none;stroke-dashoffset:0;stroke-opacity:1;paint-order:stroke fill markers"
       d="M 8 4 C 5.784 4 4 5.784 4 8 L 4 40 C 4 42.216 5.784 44 8 44 L 40 44 C 42.216 44 44 42.216 44 40 L 44 8 C 44 5.784 42.216 4 40 4 L 8 4 z M 8 5 L 40 5 C 41.662 5 43 6.338 43 8 L 43 40 C 43 41.662 41.662 43 40 43 L 8 43 C 6.338 43 5 41.662 5 40 L 5 8 C 5 6.338 6.338 5 8 5 z "
       id="rect826" />
    <path
       inkscape:connector-curvature="0"
       id="path829"
       d="m 14.630821,35.403866 c -0.337913,-0.124242 -0.563148,-0.412481 -0.563148,-0.72066 0,-0.173322 -0.0556,-0.43717 -0.123569,-0.586331 -0.09918,-0.217686 -0.05474,-0.539181 0.22526,-1.629306 0.217496,-0.846795 0.348824,-1.637809 0.348824,-2.101028 0,-0.613229 0.05779,-0.845852 0.331032,-1.332525 0.387548,-0.690262 0.624193,-1.89041 0.537802,-2.727469 -0.03793,-0.367519 -0.232811,-0.929636 -0.52103,-1.502872 -0.253238,-0.503667 -0.460433,-0.983221 -0.460433,-1.065675 0,-0.08245 -0.06336,-0.234655 -0.140788,-0.338224 -0.131504,-0.175888 -0.175634,-0.175662 -0.669338,0.0034 -0.442324,0.16045 -0.590625,0.169285 -0.909034,0.05414 -0.509567,-0.184264 -1.167733,-0.173473 -1.838932,0.03014 -0.30409,0.09224 -0.616245,0.168273 -0.693677,0.168944 -0.4511973,0.0039 0.251503,-0.949448 1.040736,-1.411968 0.492447,-0.288594 1.6094,-0.491484 2.741807,-0.498039 0.593241,-0.0035 0.609336,-0.01269 1.286715,-0.739844 0.823086,-0.883567 2.035046,-1.528198 3.373217,-1.794188 1.090071,-0.216672 1.489892,-0.215624 3.735328,0.0098 1.926943,0.193443 3.346152,0.168589 6.107989,-0.106966 2.124465,-0.211956 2.500443,-0.4609 3.759983,-2.489555 0.900276,-1.450013 1.435894,-2.050826 2.290558,-2.569349 0.382583,-0.232111 0.734871,-0.422173 0.782864,-0.422361 0.04799,-1.91e-4 0.135434,0.126368 0.194315,0.281234 0.152627,0.401443 0.641236,0.347782 2.055491,-0.225743 0.405157,-0.164304 0.190575,0.2674 -0.375198,0.754843 l -0.5723,0.493085 0.275519,0.615213 c 0.151532,0.338369 0.413883,0.741924 0.582999,0.896789 0.428373,0.392273 0.623973,0.812959 0.623973,1.342001 0,0.571774 -0.24292,0.719655 -1.096082,0.66726 -0.661672,-0.04063 -0.657814,-0.04327 -0.926958,0.631662 -0.104948,0.263175 -0.154149,0.298204 -0.237294,0.168945 -0.09135,-0.142013 -0.118648,-0.141676 -0.211395,0.0026 -0.137763,0.214307 -0.259432,0.08529 -0.403936,-0.428319 -0.06393,-0.227228 -0.165298,-0.413143 -0.22526,-0.413143 -0.193619,0 -0.543646,0.876572 -0.594396,1.488539 -0.03451,0.416175 -0.0975,0.595111 -0.209468,0.595111 -0.427637,0 -1.088222,1.271879 -2.003988,3.858453 -0.210339,0.594097 -0.462279,1.04472 -0.787132,1.407871 -0.633463,0.708139 -0.733189,0.917151 -0.920317,1.928821 -0.259951,1.405373 -0.522093,4.270358 -0.440512,4.814384 0.04179,0.278608 0.251024,0.842412 0.464988,1.252903 0.344234,0.660424 0.369744,0.765621 0.221586,0.91378 -0.101822,0.101822 -0.393906,0.170689 -0.745415,0.175749 -0.500652,0.0072 -0.611046,-0.03312 -0.82509,-0.301412 -0.13591,-0.170353 -0.328285,-0.309733 -0.427502,-0.309733 -0.296418,0 -0.614184,-0.36406 -0.753509,-0.863285 -0.103852,-0.372146 -0.09639,-0.674725 0.03612,-1.464186 0.09186,-0.547307 0.172518,-1.299204 0.179232,-1.670881 0.01699,-0.940556 -0.155426,-2.834698 -0.268302,-2.947516 -0.191403,-0.19131 -1.212182,-0.03536 -2.121354,0.324082 l -0.937995,0.370841 h -2.632449 c -3.131873,0 -2.940743,-0.09683 -2.976299,1.507735 -0.01948,0.879289 -0.04996,1.025976 -0.21319,1.026188 -0.104749,1.6e-4 -0.221778,-0.05044 -0.260062,-0.112383 -0.148256,-0.239881 -0.394205,-0.110503 -0.394205,0.207357 0,0.616629 0.316731,1.361676 0.944027,2.220642 0.348033,0.476569 0.632789,0.956007 0.632789,1.065425 0,0.467702 -1.152475,0.379348 -1.404319,-0.107663 -0.08558,-0.165498 -0.284715,-0.359732 -0.442516,-0.431632 -0.157803,-0.07189 -0.311659,-0.246488 -0.341903,-0.387973 -0.03024,-0.141487 -0.109307,-0.5393 -0.17571,-0.88403 -0.139014,-0.721748 -0.660646,-1.886832 -0.95319,-2.128985 -0.179743,-0.148779 -0.226049,-0.134627 -0.463748,0.141711 -0.308078,0.358163 -0.828991,1.914258 -0.912779,2.726688 -0.04849,0.470155 -4.93e-4,0.684037 0.290622,1.29524 0.381022,0.799956 0.418254,1.011866 0.21372,1.2164 -0.136673,0.136673 -0.792984,0.169527 -1.103771,0.05525 z"
       style="fill:#ffffff;stroke-width:0.11262964"
       sodipodi:nodetypes="csccscccscccccccscccscccsccccscccccscsccscccccsccscccscccscsccccccccscc" />
  </g>
</svg>
