<?xml version="1.0" encoding="UTF-8" standalone="no"?>
<!-- Created with Inkscape (http://www.inkscape.org/) -->

<svg
   xmlns:dc="http://purl.org/dc/elements/1.1/"
   xmlns:cc="http://creativecommons.org/ns#"
   xmlns:rdf="http://www.w3.org/1999/02/22-rdf-syntax-ns#"
   xmlns:svg="http://www.w3.org/2000/svg"
   xmlns="http://www.w3.org/2000/svg"
   xmlns:xlink="http://www.w3.org/1999/xlink"
   xmlns:sodipodi="http://sodipodi.sourceforge.net/DTD/sodipodi-0.dtd"
   xmlns:inkscape="http://www.inkscape.org/namespaces/inkscape"
   width="48px"
   height="48px"
   viewBox="0 0 48 48"
   version="1.1"
   id="SVGRoot"
   inkscape:version="0.92.4 (5da689c313, 2019-01-14)"
   sodipodi:docname="hammerfight.svg">
  <defs
     id="defs815">
    <linearGradient
       inkscape:collect="always"
       id="linearGradient1170">
      <stop
         style="stop-color:#f6a559;stop-opacity:1"
         offset="0"
         id="stop1166" />
      <stop
         id="stop1174"
         offset="0.5"
         style="stop-color:#ffdd75;stop-opacity:1" />
      <stop
         style="stop-color:#f6a559;stop-opacity:1"
         offset="1"
         id="stop1168" />
    </linearGradient>
    <linearGradient
       id="linearGradient1552"
       x1="24"
       x2="24"
       y1="7"
       y2="39"
       gradientUnits="userSpaceOnUse">
      <stop
         stop-color="#92b4da"
         offset="0"
         id="stop823" />
      <stop
         stop-color="#547cb1"
         offset="1"
         id="stop825" />
    </linearGradient>
    <linearGradient
       id="linearGradient857"
       x1="24"
       x2="24"
       y1="11"
       y2="37"
       gradientTransform="translate(0,-1)"
       gradientUnits="userSpaceOnUse">
      <stop
         stop-color="#dbe1e9"
         offset="0"
         id="stop828" />
      <stop
         stop-color="#b9c4d4"
         offset="1"
         id="stop830" />
    </linearGradient>
    <linearGradient
       inkscape:collect="always"
       xlink:href="#linearGradient1170"
       id="linearGradient1172"
       x1="24"
       y1="9"
       x2="24"
       y2="39"
       gradientUnits="userSpaceOnUse" />
    <linearGradient
       inkscape:collect="always"
       xlink:href="#linearGradient1170"
       id="linearGradient1182"
       x1="24"
       y1="9"
       x2="24"
       y2="39"
       gradientUnits="userSpaceOnUse" />
    <linearGradient
       inkscape:collect="always"
       xlink:href="#linearGradient1170"
       id="linearGradient1184"
       x1="24"
       y1="9"
       x2="24"
       y2="39"
       gradientUnits="userSpaceOnUse" />
    <linearGradient
       inkscape:collect="always"
       xlink:href="#linearGradient1170"
       id="linearGradient1186"
       x1="24"
       y1="9"
       x2="24"
       y2="39"
       gradientUnits="userSpaceOnUse" />
  </defs>
  <sodipodi:namedview
     id="base"
     pagecolor="#ffffff"
     bordercolor="#666666"
     borderopacity="1.0"
     inkscape:pageopacity="0.0"
     inkscape:pageshadow="2"
     inkscape:zoom="6.816346"
     inkscape:cx="27.1965"
     inkscape:cy="26.744546"
     inkscape:document-units="px"
     inkscape:current-layer="layer1"
     showgrid="true"
     inkscape:window-width="1920"
     inkscape:window-height="1017"
     inkscape:window-x="-8"
     inkscape:window-y="-8"
     inkscape:window-maximized="1"
     inkscape:grid-bbox="true"
     inkscape:snap-global="true">
    <inkscape:grid
       type="xygrid"
       id="grid1371" />
  </sodipodi:namedview>
  <metadata
     id="metadata818">
    <rdf:RDF>
      <cc:Work
         rdf:about="">
        <dc:format>image/svg+xml</dc:format>
        <dc:type
           rdf:resource="http://purl.org/dc/dcmitype/StillImage" />
        <dc:title></dc:title>
      </cc:Work>
    </rdf:RDF>
  </metadata>
  <g
     inkscape:label="Layer 1"
     inkscape:groupmode="layer"
     id="layer1">
    <rect
       style="opacity:1;vector-effect:none;fill:#717171;fill-opacity:1;fill-rule:evenodd;stroke:none;stroke-width:4;stroke-linecap:round;stroke-linejoin:round;stroke-miterlimit:4;stroke-dasharray:none;stroke-dashoffset:0;stroke-opacity:1;paint-order:stroke fill markers"
       id="rect1373"
       width="40"
       height="40"
       x="4"
       y="4"
       ry="4" />
    <path
       style="opacity:0.25;vector-effect:none;fill:#000000;fill-opacity:1;fill-rule:evenodd;stroke:none;stroke-width:4;stroke-linecap:round;stroke-linejoin:round;stroke-miterlimit:4;stroke-dasharray:none;stroke-dashoffset:0;stroke-opacity:1;paint-order:stroke fill markers"
       d="M 8 4 C 5.784 4 4 5.784 4 8 L 4 40 C 4 42.216 5.784 44 8 44 L 40 44 C 42.216 44 44 42.216 44 40 L 44 8 C 44 5.784 42.216 4 40 4 L 8 4 z M 8 5 L 40 5 C 41.662 5 43 6.338 43 8 L 43 40 C 43 41.662 41.662 43 40 43 L 8 43 C 6.338 43 5 41.662 5 40 L 5 8 C 5 6.338 6.338 5 8 5 z "
       id="rect826" />
    <path
       style="fill:#ffffff;stroke:none;stroke-width:1px;stroke-linecap:butt;stroke-linejoin:miter;stroke-opacity:1;opacity:0.25"
       d="m 16.224609,12.607422 c 0,0 -1.596684,0.109125 -2.53125,1.173828 -0.488247,0.556235 -0.660156,2.126953 -0.660156,2.126953 0,0 0.705506,-0.522269 1.541016,-1.357422 0.988208,-0.987787 1.65039,-1.943359 1.65039,-1.943359 z m 15.550782,0 c 0,0 0.662182,0.955572 1.65039,1.943359 0.83551,0.835153 1.541016,1.357422 1.541016,1.357422 0,0 -0.171909,-1.570718 -0.660156,-2.126953 -0.934566,-1.064703 -2.53125,-1.173828 -2.53125,-1.173828 z m -18.81836,1.291016 c 0,0 -2.214338,0.69087 -1.576172,5.013671 1.568807,-1.586422 3.302735,-3.302734 3.302735,-3.302734 0,0 -1.222018,0.510473 -2.332032,1.341797 0.04147,-2.100344 0.605469,-3.052734 0.605469,-3.052734 z m 22.085938,0 c 0,0 0.564003,0.95239 0.605469,3.052734 -1.110014,-0.831324 -2.332032,-1.341797 -2.332032,-1.341797 0,0 1.733928,1.716312 3.302735,3.302734 0.638166,-4.322801 -1.576172,-5.013671 -1.576172,-5.013671 z m -24.22461,2.490234 c 0,0 -2.0190582,2.167919 0.105469,5.986328 0.907008,-2.038437 2.451172,-4.417969 2.451172,-4.417969 0,0 -1.491688,1.070303 -2.236328,2.240235 -0.7034,-1.979493 -0.320313,-3.808594 -0.320313,-3.808594 z m 26.363282,0 c 0,0 0.383087,1.829101 -0.320313,3.808594 C 36.116688,19.027334 34.625,17.957031 34.625,17.957031 c 0,0 1.544164,2.379532 2.451172,4.417969 2.124527,-3.818409 0.105469,-5.986328 0.105469,-5.986328 z M 9.40625,19.644531 c 0,0 -1.1172688,3.543218 2.197266,6.390625 0.14564,-2.226359 0.769531,-4.992187 0.769531,-4.992187 0,0 -0.933132,1.251554 -1.322266,2.873047 C 9.7058899,22.302191 9.40625,19.644531 9.40625,19.644531 Z m 29.1875,0 c 0,0 -0.29964,2.65766 -1.644531,4.271485 -0.389134,-1.621493 -1.322266,-2.873047 -1.322266,-2.873047 0,0 0.623891,2.765828 0.769531,4.992187 3.314535,-2.847407 2.197266,-6.390625 2.197266,-6.390625 z M 8.9707031,23.865234 c 0,0 0.4983244,3.768818 4.5566409,5.388672 -0.583581,-2.153443 -0.705078,-5.113281 -0.705078,-5.113281 0,0 -0.661146,1.62896 -0.503907,3.289063 -1.795235,-1.091006 -3.3476559,-3.564454 -3.3476559,-3.564454 z m 30.0585939,0 c 0,0 -1.552421,2.473448 -3.347656,3.564454 0.157239,-1.660103 -0.503907,-3.289063 -0.503907,-3.289063 0,0 -0.121497,2.959838 -0.705078,5.113281 4.058316,-1.619854 4.556641,-5.388672 4.556641,-5.388672 z m -25.103516,3.560547 c 0,0 -0.09686,1.755816 0.589844,3.275391 -2.051902,-0.450403 -4.322266,-2.28711 -4.322266,-2.28711 0,0 1.6924,3.403716 6.056641,3.621094 -1.249902,-1.848142 -2.324219,-4.609375 -2.324219,-4.609375 z m 20.148438,0 c 0,0 -1.074317,2.761233 -2.324219,4.609375 4.364241,-0.217378 6.056641,-3.621094 6.056641,-3.621094 0,0 -2.270364,1.836707 -4.322266,2.28711 0.686701,-1.519575 0.589844,-3.275391 0.589844,-3.275391 z m -18.142578,2.419922 c 0,0 0.623511,1.641365 1.86914,2.75 -2.057612,0.423548 -4.876953,-0.330078 -4.876953,-0.330078 0,0 2.930839,2.421109 7.00586,0.84375 -1.893794,-1.179588 -3.998047,-3.263672 -3.998047,-3.263672 z m 16.136718,0 c 0,0 -2.104253,2.084084 -3.998047,3.263672 4.075021,1.577359 7.00586,-0.84375 7.00586,-0.84375 0,0 -2.819341,0.753626 -4.876953,0.330078 1.245629,-1.108635 1.86914,-2.75 1.86914,-2.75 z m -10.52539,2.898438 c 0,0 -1.295013,1.446891 -3.228516,1.759765 -1.377353,0.222879 -3.080078,-0.109375 -3.080078,-0.109375 0,0 1.608935,1.453806 3.410156,1.208985 1.631601,-0.221766 3.265625,-1.833985 3.265625,-1.833985 0,0 -0.721633,0.925488 -1.833984,2.164063 -0.190703,0.212344 0.414247,0.852991 0.585937,0.625 1.971647,-2.618189 2.56836,-2.53125 2.56836,-2.53125 h 1.539062 c 0,0 0.596713,-0.08694 2.56836,2.53125 0.17169,0.227991 0.77664,-0.412656 0.585937,-0.625 -1.112351,-1.238575 -1.833984,-2.164063 -1.833984,-2.164063 0,0 1.634024,1.612219 3.265625,1.833985 1.801221,0.244821 3.410156,-1.208985 3.410156,-1.208985 0,0 -1.702725,0.332254 -3.080078,0.109375 C 27.752044,34.191032 26.457031,32.744141 26.457031,32.744141 26.457031,32.744141 26,33 24,33 22,33 21.542969,32.744141 21.542969,32.744141 Z"
       id="path828"
       inkscape:connector-curvature="0"
       sodipodi:nodetypes="cscsccscsccccccccccccccccccccccccccccccccccccccccccccccccccccccccccccccscsccsccsccscsczc" />
    <path
       style="fill:url(#linearGradient1184);stroke:none;stroke-width:1px;stroke-linecap:butt;stroke-linejoin:miter;stroke-opacity:1;fill-opacity:1"
       d="m 15.660156,19.319014 v 0.953125 l -0.585937,0.367832 h -1.578125 l -1.359375,-0.565097 -0.683594,0.683594 H 8.65625 L 8.2714844,20.094405 7.8261719,20.213546 v 1.622392 l 0.4453125,0.11914 0.3847656,-0.666016 h 2.796875 l 0.683594,0.685547 1.359375,-0.565097 h 1.578125 l 0.585937,0.365879 v 0.955078 h 0.660156 v -0.660157 l 21.640645,-0.03711 c 0,0 -1.623597,-2.016923 -3.557625,-2.016923 -6.027686,0 -18.08302,-0.03711 -18.08302,-0.03711 v -0.660157 z"
       id="path961"
       inkscape:connector-curvature="0"
       sodipodi:nodetypes="cccccccccccccccccccccsccc" />
    <path
       style="fill:url(#linearGradient1186);stroke:none;stroke-width:1px;stroke-linecap:butt;stroke-linejoin:miter;stroke-opacity:1;fill-opacity:1"
       d="m 17.311328,17.081675 0.733531,0.733531 v 10.196079 c 0,0 1.980533,-1.714379 1.980533,-3.190859 V 17.6685 l 0.641839,-0.641839 z"
       id="path979"
       inkscape:connector-curvature="0"
       sodipodi:nodetypes="cccsccc" />
    <path
       style="fill:url(#linearGradient1172);stroke:none;stroke-width:1px;stroke-linecap:butt;stroke-linejoin:miter;stroke-opacity:1;fill-opacity:1"
       d="m 26.701172,9.0136719 c -3.546239,2.8384251 -2.861328,8.5449221 -2.861328,8.5449221 h -1.09961 l 0.02344,0.498047 1.042969,0.308593 -0.0039,6.271485 -1.003906,0.230469 v 0.503906 h 1.041016 c 0,0 -0.186541,5.354713 -3.263672,6.125 l 1.613281,2.419922 c 3.546239,-2.838424 2.824219,-8.544922 2.824219,-8.544922 h 1.136719 l -0.02344,-0.498047 -1.042969,-0.308594 0.002,-6.271484 1.005859,-0.230469 v -0.503906 h -1.041016 c 0,0 0.186541,-5.354713 3.263672,-6.125 z"
       id="path981-6"
       inkscape:connector-curvature="0"
       sodipodi:nodetypes="ccccccccccccccccccccc" />
    <path
       style="fill:url(#linearGradient1182);stroke:none;stroke-width:1px;stroke-linecap:butt;stroke-linejoin:miter;stroke-opacity:1;fill-opacity:1"
       d="m 26.929751,17.595147 1.017774,0.366765 v 10.196079 h -0.990267 v 0.513471 l 1.074893,0.288017 c 0,0 -0.312545,4.317455 -3.458005,7.058906 l 1.711659,2.489686 c 3.923393,-2.763564 3.163976,-9.543797 3.163976,-9.543797 l 1.014133,-0.271736 V 28.134379 H 29.449781 V 17.411764 c 0,0 0.237078,-1.985159 2.411884,-1.985159 0.722874,0 0.829895,0.985501 0.829895,0.985501 v 0.933632 c 0,0 -0.01188,0.323247 0.186627,0.323247 0.198505,0 0.188829,-0.327062 0.188829,-0.327062 v -0.929817 c 0,0 -0.07472,-1.556054 -1.231285,-1.556054 -2.546292,0 -3.604859,2.224051 -3.604859,2.224051 l -1.296711,0.02751 z"
       id="path1013"
       inkscape:connector-curvature="0"
       sodipodi:nodetypes="cccccccccccccscczccsccc" />
  </g>
</svg>
