<?xml version="1.0" encoding="UTF-8" standalone="no"?>
<!-- Created with Inkscape (http://www.inkscape.org/) -->

<svg
   xmlns:dc="http://purl.org/dc/elements/1.1/"
   xmlns:cc="http://creativecommons.org/ns#"
   xmlns:rdf="http://www.w3.org/1999/02/22-rdf-syntax-ns#"
   xmlns:svg="http://www.w3.org/2000/svg"
   xmlns="http://www.w3.org/2000/svg"
   xmlns:sodipodi="http://sodipodi.sourceforge.net/DTD/sodipodi-0.dtd"
   xmlns:inkscape="http://www.inkscape.org/namespaces/inkscape"
   width="48px"
   height="48px"
   viewBox="0 0 48 48"
   version="1.1"
   id="SVGRoot"
   inkscape:version="0.92.4 (5da689c313, 2019-01-14)"
   sodipodi:docname="jellycar-worlds.svg">
  <defs
     id="defs815">
    <style
       id="style2">.a{fill:none;stroke:#b1b5bd;stroke-linecap:round;stroke-linejoin:round;isolation:isolate;opacity:0.63;}</style>
    <style
       id="style2-6">.a{fill:none;stroke:#b1b5bd;stroke-linecap:round;stroke-linejoin:round;isolation:isolate;opacity:0.63;}</style>
  </defs>
  <sodipodi:namedview
     id="base"
     pagecolor="#ffffff"
     bordercolor="#666666"
     borderopacity="1.0"
     inkscape:pageopacity="0.0"
     inkscape:pageshadow="2"
     inkscape:zoom="11.372262"
     inkscape:cx="15.31806"
     inkscape:cy="30.177762"
     inkscape:document-units="px"
     inkscape:current-layer="layer1"
     showgrid="true"
     inkscape:window-width="1920"
     inkscape:window-height="1017"
     inkscape:window-x="-8"
     inkscape:window-y="-8"
     inkscape:window-maximized="1"
     inkscape:grid-bbox="true"
     inkscape:snap-global="true">
    <inkscape:grid
       type="xygrid"
       id="grid1371" />
  </sodipodi:namedview>
  <metadata
     id="metadata818">
    <rdf:RDF>
      <cc:Work
         rdf:about="">
        <dc:format>image/svg+xml</dc:format>
        <dc:type
           rdf:resource="http://purl.org/dc/dcmitype/StillImage" />
        <dc:title></dc:title>
      </cc:Work>
    </rdf:RDF>
  </metadata>
  <g
     inkscape:label="Layer 1"
     inkscape:groupmode="layer"
     id="layer1">
    <rect
       style="opacity:1;vector-effect:none;fill:#efefef;fill-opacity:1;fill-rule:evenodd;stroke:none;stroke-width:4;stroke-linecap:round;stroke-linejoin:round;stroke-miterlimit:4;stroke-dasharray:none;stroke-dashoffset:0;stroke-opacity:1;paint-order:stroke fill markers"
       id="rect1373"
       width="40"
       height="40"
       x="4"
       y="4"
       ry="4" />
    <path
       style="fill:#96dfd3;stroke:none;stroke-width:0.25px;stroke-linecap:butt;stroke-linejoin:miter;stroke-opacity:1"
       d="M 34,34 23,44 h 5 z"
       id="path835"
       inkscape:connector-curvature="0"
       sodipodi:nodetypes="cccc" />
    <path
       style="fill:#96dfd3;stroke:none;stroke-width:0.2623935px;stroke-linecap:butt;stroke-linejoin:miter;stroke-opacity:1"
       d="M 11.347018,19.702556 4,26 v 2.099148 l 8.396592,7.347018 7.347018,-7.347018 z"
       id="path833"
       inkscape:connector-curvature="0"
       sodipodi:nodetypes="cccccc" />
    <path
       style="color:#000000;font-style:normal;font-variant:normal;font-weight:normal;font-stretch:normal;font-size:medium;line-height:normal;font-family:sans-serif;font-variant-ligatures:normal;font-variant-position:normal;font-variant-caps:normal;font-variant-numeric:normal;font-variant-alternates:normal;font-feature-settings:normal;text-indent:0;text-align:start;text-decoration:none;text-decoration-line:none;text-decoration-style:solid;text-decoration-color:#000000;letter-spacing:normal;word-spacing:normal;text-transform:none;writing-mode:lr-tb;direction:ltr;text-orientation:mixed;dominant-baseline:auto;baseline-shift:baseline;text-anchor:start;white-space:normal;shape-padding:0;clip-rule:nonzero;display:inline;overflow:visible;visibility:visible;opacity:0.25;isolation:auto;mix-blend-mode:normal;color-interpolation:sRGB;color-interpolation-filters:linearRGB;solid-color:#000000;solid-opacity:1;vector-effect:none;fill:#000000;fill-opacity:1;fill-rule:nonzero;stroke:none;stroke-width:2;stroke-linecap:round;stroke-linejoin:round;stroke-miterlimit:4;stroke-dasharray:none;stroke-dashoffset:0;stroke-opacity:1;color-rendering:auto;image-rendering:auto;shape-rendering:auto;text-rendering:auto;enable-background:accumulate"
       d="M 41.953125 9.9785156 A 1.0001 1.0001 0 0 0 41.785156 10 L 32.509766 11.988281 L 23.748047 10.935547 A 1.0001 1.0001 0 0 0 23.027344 11.128906 L 13.382812 18.371094 A 1.0001 1.0001 0 0 0 12.984375 19.214844 L 13.339844 27.255859 C 11.853843 26.161131 8.9198543 23.816275 7.3144531 21.222656 C 5.5380085 18.352714 5.1094885 15.362403 5.0117188 13.71875 C 5.6012568 13.371623 6 12.736374 6 12 C 6 11.25893 5.5957989 10.620952 5 10.275391 L 5 18.810547 C 5.3485645 19.775915 5.8054618 20.779541 6.421875 21.775391 C 8.170451 24.600317 11.202523 27.014279 12.738281 28.130859 L 9.296875 32.302734 A 1.0001 1.0001 0 0 0 9.2890625 33.566406 L 13.34375 38.591797 A 1.0001 1.0001 0 0 0 14.638672 38.818359 L 16.310547 37.810547 C 17.093852 40.211736 19.344335 41.939453 22.013672 41.939453 C 25.337672 41.939453 28.013672 39.263453 28.013672 35.939453 C 28.013672 34.235505 27.307039 32.705438 26.173828 31.615234 L 35.376953 23.873047 C 36.475679 25.15292 38.102882 25.962891 39.929688 25.962891 C 41.056163 25.962891 42.102684 25.648525 43 25.111328 L 43 10.611328 L 42.751953 10.324219 A 1.0001 1.0001 0 0 0 41.953125 9.9785156 z "
       id="path1021" />
    <path
       style="fill:#c184ed;stroke:none;stroke-width:0.25px;stroke-linecap:butt;stroke-linejoin:miter;stroke-opacity:1"
       d="M 19,4 17,5.9999999 29,12 27,4 Z"
       id="path831"
       inkscape:connector-curvature="0"
       sodipodi:nodetypes="ccccc" />
    <path
       style="opacity:0.25;vector-effect:none;fill:#000000;fill-opacity:1;fill-rule:evenodd;stroke:none;stroke-width:4;stroke-linecap:round;stroke-linejoin:round;stroke-miterlimit:4;stroke-dasharray:none;stroke-dashoffset:0;stroke-opacity:1;paint-order:stroke fill markers"
       d="M 8 4 C 5.784 4 4 5.784 4 8 L 4 40 C 4 42.216 5.784 44 8 44 L 40 44 C 42.216 44 44 42.216 44 40 L 44 8 C 44 5.784 42.216 4 40 4 L 8 4 z M 8 5 L 40 5 C 41.662 5 43 6.338 43 8 L 43 40 C 43 41.662 41.662 43 40 43 L 8 43 C 6.338 43 5 41.662 5 40 L 5 8 C 5 6.338 6.338 5 8 5 z "
       id="rect826" />
    <path
       style="fill:#f6a559;stroke:#4e4e4e;stroke-width:2;stroke-linecap:round;stroke-linejoin:round;stroke-miterlimit:4;stroke-dasharray:none;stroke-opacity:1"
       d="M 10.068049,30.939035 14.122438,35.9628 24.560735,29.66735 45.002588,12.466868 41.994587,8.9780629 32.556621,11.000855 23.628304,9.9284417 l -9.645848,7.2414103 0.378812,8.562519 z"
       id="path845"
       inkscape:connector-curvature="0"
       sodipodi:nodetypes="cccccccccc" />
    <rect
       style="opacity:1;vector-effect:none;fill:#4e4e4e;fill-opacity:1;fill-rule:evenodd;stroke:none;stroke-width:6.00000048;stroke-linecap:round;stroke-linejoin:round;stroke-miterlimit:4;stroke-dasharray:none;paint-order:stroke fill markers"
       id="rect837"
       width="12"
       height="12"
       x="16.013191"
       y="27.939005"
       ry="6" />
    <rect
       style="opacity:1;vector-effect:none;fill:#4e4e4e;fill-opacity:1;fill-rule:evenodd;stroke:none;stroke-width:6;stroke-linecap:round;stroke-linejoin:round;stroke-miterlimit:4;stroke-dasharray:none;paint-order:stroke fill markers"
       id="rect839"
       width="12"
       height="12"
       x="33.929798"
       y="11.963598"
       ry="6" />
    <rect
       style="opacity:1;vector-effect:none;fill:#ffdd75;fill-opacity:1;fill-rule:evenodd;stroke:none;stroke-width:6;stroke-linecap:round;stroke-linejoin:round;stroke-miterlimit:4;stroke-dasharray:none;paint-order:stroke fill markers"
       id="rect841"
       width="7.9999995"
       height="7.9999995"
       x="35.929798"
       y="13.963598"
       ry="3.9999998" />
    <rect
       style="opacity:1;vector-effect:none;fill:#ffdd75;fill-opacity:1;fill-rule:evenodd;stroke:none;stroke-width:6.00000048;stroke-linecap:round;stroke-linejoin:round;stroke-miterlimit:4;stroke-dasharray:none;paint-order:stroke fill markers"
       id="rect843"
       width="8"
       height="8"
       x="18.013191"
       y="29.939005"
       ry="4" />
    <rect
       style="opacity:1;vector-effect:none;fill:#4e4e4e;fill-opacity:1;fill-rule:evenodd;stroke:none;stroke-width:2.09914804;stroke-linecap:round;stroke-linejoin:round;stroke-miterlimit:4;stroke-dasharray:none;paint-order:stroke fill markers"
       id="rect847"
       width="4"
       height="4"
       x="2"
       y="8"
       ry="2" />
    <path
       style="fill:none;stroke:#4e4e4e;stroke-width:1.04957402;stroke-linecap:round;stroke-linejoin:round;stroke-miterlimit:4;stroke-dasharray:none;stroke-opacity:1"
       d="m 4.463586,10.408192 c 0,0 -0.3061397,4.710404 2.4054768,9.091168 2.3026394,3.720048 7.1144432,6.862609 7.1144432,6.862609"
       id="path849"
       inkscape:connector-curvature="0"
       sodipodi:nodetypes="csc" />
    <path
       style="opacity:0.25;fill:#000000;stroke:none;stroke-width:0.2072072px;stroke-linecap:butt;stroke-linejoin:miter;stroke-opacity:1"
       d="m 20.641021,31.430134 0.0994,1.640699 -1.491541,1.441821 2.03844,0.447459 0.546901,1.441831 1.143519,-1.392111 1.78985,-0.0994 -1.193239,-1.49155 0.248589,-1.78985 -1.69041,0.696061 z"
       id="path880"
       inkscape:connector-curvature="0" />
    <path
       style="opacity:0.25;fill:#000000;stroke:none;stroke-width:0.21296294px;stroke-linecap:butt;stroke-linejoin:miter;stroke-opacity:1"
       d="m 37.041337,17.330778 1.890667,-0.511 0.66429,-1.58406 1.073082,1.32857 1.890665,0.2044 -1.277477,1.89067 0.61319,1.379679 -1.890668,-0.562099 -1.430777,1.07308 -0.153298,-1.73737 z"
       id="path882"
       inkscape:connector-curvature="0" />
  </g>
</svg>
