<?xml version="1.0" encoding="UTF-8" standalone="no"?>
<!-- Created with Inkscape (http://www.inkscape.org/) -->

<svg
   xmlns:dc="http://purl.org/dc/elements/1.1/"
   xmlns:cc="http://creativecommons.org/ns#"
   xmlns:rdf="http://www.w3.org/1999/02/22-rdf-syntax-ns#"
   xmlns:svg="http://www.w3.org/2000/svg"
   xmlns="http://www.w3.org/2000/svg"
   xmlns:sodipodi="http://sodipodi.sourceforge.net/DTD/sodipodi-0.dtd"
   xmlns:inkscape="http://www.inkscape.org/namespaces/inkscape"
   width="48px"
   height="48px"
   viewBox="0 0 48 48"
   version="1.1"
   id="SVGRoot"
   inkscape:version="0.92.4 (5da689c313, 2019-01-14)"
   sodipodi:docname="lbreakout.svg">
  <defs
     id="defs815">
    <linearGradient
       gradientUnits="userSpaceOnUse"
       y2="39"
       y1="7"
       x2="24"
       x1="24"
       id="linearGradient1552">
      <stop
         id="stop823"
         offset="0"
         stop-color="#92b4da" />
      <stop
         id="stop825"
         offset="1"
         stop-color="#547cb1" />
    </linearGradient>
    <linearGradient
       gradientUnits="userSpaceOnUse"
       gradientTransform="translate(0,-1)"
       y2="37"
       y1="11"
       x2="24"
       x1="24"
       id="linearGradient857">
      <stop
         id="stop828"
         offset="0"
         stop-color="#dbe1e9" />
      <stop
         id="stop830"
         offset="1"
         stop-color="#b9c4d4" />
    </linearGradient>
  </defs>
  <sodipodi:namedview
     id="base"
     pagecolor="#ffffff"
     bordercolor="#666666"
     borderopacity="1.0"
     inkscape:pageopacity="0.0"
     inkscape:pageshadow="2"
     inkscape:zoom="13.632692"
     inkscape:cx="25.048406"
     inkscape:cy="19.05842"
     inkscape:document-units="px"
     inkscape:current-layer="layer1"
     showgrid="true"
     inkscape:window-width="1920"
     inkscape:window-height="1017"
     inkscape:window-x="-8"
     inkscape:window-y="-8"
     inkscape:window-maximized="1"
     inkscape:grid-bbox="true"
     inkscape:snap-global="true">
    <inkscape:grid
       type="xygrid"
       id="grid1371" />
  </sodipodi:namedview>
  <metadata
     id="metadata818">
    <rdf:RDF>
      <cc:Work
         rdf:about="">
        <dc:format>image/svg+xml</dc:format>
        <dc:type
           rdf:resource="http://purl.org/dc/dcmitype/StillImage" />
        <dc:title></dc:title>
      </cc:Work>
    </rdf:RDF>
  </metadata>
  <g
     inkscape:label="Layer 1"
     inkscape:groupmode="layer"
     id="layer1">
    <path
       style="opacity:1;vector-effect:none;fill:#f6a559;fill-opacity:1;fill-rule:evenodd;stroke:none;stroke-width:4px;stroke-linecap:butt;stroke-linejoin:miter;stroke-miterlimit:4;stroke-dasharray:none;stroke-dashoffset:0;stroke-opacity:1;paint-order:stroke fill markers"
       d="M 8 4 C 5.784 4 4 5.784 4 8 L 4 11 C 4 11.554 4.446 12 5 12 L 8 12 L 11 12 C 11.554 12 12 11.554 12 11 L 12 8 L 12 5 C 12 4.446 11.554 4 11 4 L 8 4 z "
       id="rect845" />
    <rect
       style="opacity:1;vector-effect:none;fill:#f6a559;fill-opacity:1;fill-rule:evenodd;stroke:none;stroke-width:4px;stroke-linecap:butt;stroke-linejoin:miter;stroke-miterlimit:4;stroke-dasharray:none;stroke-dashoffset:0;stroke-opacity:1;paint-order:stroke fill markers"
       id="rect847"
       width="8"
       height="8"
       x="20"
       y="4"
       ry="1" />
    <path
       style="color:#000000;font-style:normal;font-variant:normal;font-weight:normal;font-stretch:normal;font-size:medium;line-height:normal;font-family:sans-serif;font-variant-ligatures:normal;font-variant-position:normal;font-variant-caps:normal;font-variant-numeric:normal;font-variant-alternates:normal;font-feature-settings:normal;text-indent:0;text-align:start;text-decoration:none;text-decoration-line:none;text-decoration-style:solid;text-decoration-color:#000000;letter-spacing:normal;word-spacing:normal;text-transform:none;writing-mode:lr-tb;direction:ltr;text-orientation:mixed;dominant-baseline:auto;baseline-shift:baseline;text-anchor:start;white-space:normal;shape-padding:0;clip-rule:nonzero;display:inline;overflow:visible;visibility:visible;opacity:0.25;isolation:auto;mix-blend-mode:normal;color-interpolation:sRGB;color-interpolation-filters:linearRGB;solid-color:#000000;solid-opacity:1;vector-effect:none;fill:#000000;fill-opacity:1;fill-rule:evenodd;stroke:none;stroke-width:2;stroke-linecap:round;stroke-linejoin:miter;stroke-miterlimit:4;stroke-dasharray:none;stroke-dashoffset:0;stroke-opacity:1;paint-order:stroke fill markers;color-rendering:auto;image-rendering:auto;shape-rendering:auto;text-rendering:auto;enable-background:accumulate"
       d="M 8 4 C 5.784 4 4 5.784 4 8 L 4 11 C 4 11.554 4.446 12 5 12 L 8 12 L 11 12 C 11.554 12 12 11.554 12 11 L 12 8 L 12 5 C 12 4.446 11.554 4 11 4 L 8 4 z M 8 5 L 11 5 L 11 8 L 11 11 L 8 11 L 5 11 L 5 8 C 5 6.3207028 6.3207028 5 8 5 z "
       id="rect845-7" />
    <path
       style="opacity:0.25;vector-effect:none;fill:#000000;fill-opacity:1;fill-rule:evenodd;stroke:none;stroke-width:2;stroke-linecap:round;stroke-linejoin:round;stroke-miterlimit:4;stroke-dasharray:none;stroke-dashoffset:0;stroke-opacity:1;paint-order:stroke fill markers"
       d="M 8 6 C 6.892 6 6 6.892 6 8 L 6 10 L 8 10 L 10 10 L 10 8 L 10 6 L 8 6 z M 8 7 L 9 7 L 9 8 L 9 9 L 8 9 L 7 9 L 7 8 C 7 7.446 7.446 7 8 7 z "
       id="rect918" />
    <path
       style="opacity:0.25;vector-effect:none;fill:#000000;fill-opacity:1;fill-rule:evenodd;stroke:none;stroke-width:2;stroke-linecap:round;stroke-linejoin:round;stroke-miterlimit:4;stroke-dasharray:none;stroke-dashoffset:0;stroke-opacity:1;paint-order:stroke fill markers"
       d="M 21 4 C 20.446 4 20 4.446 20 5 L 20 11 C 20 11.554 20.446 12 21 12 L 27 12 C 27.554 12 28 11.554 28 11 L 28 5 C 28 4.446 27.554 4 27 4 L 21 4 z M 21 5 L 27 5 L 27 11 L 21 11 L 21 5 z "
       id="rect930" />
    <path
       style="opacity:0.25;vector-effect:none;fill:#000000;fill-opacity:1;fill-rule:evenodd;stroke:none;stroke-width:2;stroke-linecap:round;stroke-linejoin:round;stroke-miterlimit:4;stroke-dasharray:none;stroke-dashoffset:0;stroke-opacity:1;paint-order:stroke fill markers"
       d="M 22 6 L 22 10 L 26 10 L 26 6 L 22 6 z M 23 7 L 25 7 L 25 9 L 23 9 L 23 7 z "
       id="rect935" />
    <path
       style="opacity:1;vector-effect:none;fill:#ffdd75;fill-opacity:1;fill-rule:evenodd;stroke:none;stroke-width:2;stroke-linecap:round;stroke-linejoin:round;stroke-miterlimit:4;stroke-dasharray:none;stroke-dashoffset:0;stroke-opacity:1;paint-order:stroke fill markers"
       d="M 6 38 C 4.892 38 4 38.892 4 40 C 4 42.216 5.784 44 8 44 L 19 44 L 22 44 L 24 44 L 26 44 L 29 44 L 40 44 C 42.216 44 44 42.216 44 40 C 44 38.892 43.108 38 42 38 L 26 38 L 24 38 L 22 38 L 6 38 z "
       id="rect939" />
    <rect
       style="opacity:1;vector-effect:none;fill:#efefef;fill-opacity:1;fill-rule:evenodd;stroke:none;stroke-width:3;stroke-linecap:round;stroke-linejoin:round;stroke-miterlimit:4;stroke-dasharray:none;stroke-dashoffset:0;stroke-opacity:1;paint-order:stroke fill markers"
       id="rect944"
       width="6"
       height="6"
       x="20"
       y="32"
       ry="3" />
    <rect
       style="opacity:1;vector-effect:none;fill:#f6a559;fill-opacity:1;fill-rule:evenodd;stroke:none;stroke-width:4px;stroke-linecap:butt;stroke-linejoin:miter;stroke-miterlimit:4;stroke-dasharray:none;stroke-dashoffset:0;stroke-opacity:1;paint-order:stroke fill markers"
       id="rect847-1"
       width="8"
       height="8"
       x="12"
       y="4"
       ry="1" />
    <path
       inkscape:connector-curvature="0"
       style="opacity:0.25;vector-effect:none;fill:#000000;fill-opacity:1;fill-rule:evenodd;stroke:none;stroke-width:2;stroke-linecap:round;stroke-linejoin:round;stroke-miterlimit:4;stroke-dasharray:none;stroke-dashoffset:0;stroke-opacity:1;paint-order:stroke fill markers"
       d="m 13,4 c -0.554,0 -1,0.446 -1,1 v 6 c 0,0.554 0.446,1 1,1 h 6 c 0.554,0 1,-0.446 1,-1 V 5 C 20,4.446 19.554,4 19,4 Z m 0,1 h 6 v 6 h -6 z"
       id="rect930-6" />
    <path
       inkscape:connector-curvature="0"
       style="opacity:0.25;vector-effect:none;fill:#000000;fill-opacity:1;fill-rule:evenodd;stroke:none;stroke-width:2;stroke-linecap:round;stroke-linejoin:round;stroke-miterlimit:4;stroke-dasharray:none;stroke-dashoffset:0;stroke-opacity:1;paint-order:stroke fill markers"
       d="m 14,6 v 4 h 4 V 6 Z m 1,1 h 2 v 2 h -2 z"
       id="rect935-8" />
    <path
       inkscape:connector-curvature="0"
       style="opacity:1;vector-effect:none;fill:#f6a559;fill-opacity:1;fill-rule:evenodd;stroke:none;stroke-width:4px;stroke-linecap:butt;stroke-linejoin:miter;stroke-miterlimit:4;stroke-dasharray:none;stroke-dashoffset:0;stroke-opacity:1;paint-order:stroke fill markers"
       d="m 40,4 c 2.216,0 4,1.784 4,4 v 3 c 0,0.554 -0.446,1 -1,1 h -3 -3 c -0.554,0 -1,-0.446 -1,-1 V 8 5 c 0,-0.554 0.446,-1 1,-1 z"
       id="rect845-3" />
    <path
       inkscape:connector-curvature="0"
       style="color:#000000;font-style:normal;font-variant:normal;font-weight:normal;font-stretch:normal;font-size:medium;line-height:normal;font-family:sans-serif;font-variant-ligatures:normal;font-variant-position:normal;font-variant-caps:normal;font-variant-numeric:normal;font-variant-alternates:normal;font-feature-settings:normal;text-indent:0;text-align:start;text-decoration:none;text-decoration-line:none;text-decoration-style:solid;text-decoration-color:#000000;letter-spacing:normal;word-spacing:normal;text-transform:none;writing-mode:lr-tb;direction:ltr;text-orientation:mixed;dominant-baseline:auto;baseline-shift:baseline;text-anchor:start;white-space:normal;shape-padding:0;clip-rule:nonzero;display:inline;overflow:visible;visibility:visible;opacity:0.25;isolation:auto;mix-blend-mode:normal;color-interpolation:sRGB;color-interpolation-filters:linearRGB;solid-color:#000000;solid-opacity:1;vector-effect:none;fill:#000000;fill-opacity:1;fill-rule:evenodd;stroke:none;stroke-width:2;stroke-linecap:round;stroke-linejoin:miter;stroke-miterlimit:4;stroke-dasharray:none;stroke-dashoffset:0;stroke-opacity:1;paint-order:stroke fill markers;color-rendering:auto;image-rendering:auto;shape-rendering:auto;text-rendering:auto;enable-background:accumulate"
       d="m 40,4 c 2.216,0 4,1.784 4,4 v 3 c 0,0.554 -0.446,1 -1,1 h -3 -3 c -0.554,0 -1,-0.446 -1,-1 V 8 5 c 0,-0.554 0.446,-1 1,-1 z m 0,1 h -3 v 3 3 h 3 3 V 8 C 43,6.320703 41.679297,5 40,5 Z"
       id="rect845-7-7" />
    <path
       inkscape:connector-curvature="0"
       style="opacity:0.25;vector-effect:none;fill:#000000;fill-opacity:1;fill-rule:evenodd;stroke:none;stroke-width:2;stroke-linecap:round;stroke-linejoin:round;stroke-miterlimit:4;stroke-dasharray:none;stroke-dashoffset:0;stroke-opacity:1;paint-order:stroke fill markers"
       d="m 40,6 c 1.108,0 2,0.892 2,2 v 2 H 40 38 V 8 6 Z m 0,1 h -1 v 1 1 h 1 1 V 8 C 41,7.446 40.554,7 40,7 Z"
       id="rect918-1" />
    <rect
       style="opacity:1;vector-effect:none;fill:#f6a559;fill-opacity:1;fill-rule:evenodd;stroke:none;stroke-width:4px;stroke-linecap:butt;stroke-linejoin:miter;stroke-miterlimit:4;stroke-dasharray:none;stroke-dashoffset:0;stroke-opacity:1;paint-order:stroke fill markers"
       id="rect847-1-5"
       width="8"
       height="8"
       x="-36"
       y="4"
       ry="1"
       transform="scale(-1,1)" />
    <path
       inkscape:connector-curvature="0"
       style="opacity:0.25;vector-effect:none;fill:#000000;fill-opacity:1;fill-rule:evenodd;stroke:none;stroke-width:2;stroke-linecap:round;stroke-linejoin:round;stroke-miterlimit:4;stroke-dasharray:none;stroke-dashoffset:0;stroke-opacity:1;paint-order:stroke fill markers"
       d="m 35,4 c 0.554,0 1,0.446 1,1 v 6 c 0,0.554 -0.446,1 -1,1 h -6 c -0.554,0 -1,-0.446 -1,-1 V 5 c 0,-0.554 0.446,-1 1,-1 z m 0,1 h -6 v 6 h 6 z"
       id="rect930-6-0" />
    <path
       inkscape:connector-curvature="0"
       style="opacity:0.25;vector-effect:none;fill:#000000;fill-opacity:1;fill-rule:evenodd;stroke:none;stroke-width:2;stroke-linecap:round;stroke-linejoin:round;stroke-miterlimit:4;stroke-dasharray:none;stroke-dashoffset:0;stroke-opacity:1;paint-order:stroke fill markers"
       d="m 34,6 v 4 H 30 V 6 Z m -1,1 h -2 v 2 h 2 z"
       id="rect935-8-4" />
    <rect
       style="opacity:1;vector-effect:none;fill:#96d56b;fill-opacity:1;fill-rule:evenodd;stroke:none;stroke-width:4px;stroke-linecap:butt;stroke-linejoin:miter;stroke-miterlimit:4;stroke-dasharray:none;stroke-dashoffset:0;stroke-opacity:1;paint-order:stroke fill markers"
       id="rect847-7"
       width="8"
       height="8"
       x="12"
       y="12"
       ry="1" />
    <path
       inkscape:connector-curvature="0"
       style="opacity:0.25;vector-effect:none;fill:#000000;fill-opacity:1;fill-rule:evenodd;stroke:none;stroke-width:2;stroke-linecap:round;stroke-linejoin:round;stroke-miterlimit:4;stroke-dasharray:none;stroke-dashoffset:0;stroke-opacity:1;paint-order:stroke fill markers"
       d="m 13,12 c -0.554,0 -1,0.446 -1,1 v 6 c 0,0.554 0.446,1 1,1 h 6 c 0.554,0 1,-0.446 1,-1 v -6 c 0,-0.554 -0.446,-1 -1,-1 z m 0,1 h 6 v 6 h -6 z"
       id="rect930-7" />
    <path
       inkscape:connector-curvature="0"
       style="opacity:0.25;vector-effect:none;fill:#000000;fill-opacity:1;fill-rule:evenodd;stroke:none;stroke-width:2;stroke-linecap:round;stroke-linejoin:round;stroke-miterlimit:4;stroke-dasharray:none;stroke-dashoffset:0;stroke-opacity:1;paint-order:stroke fill markers"
       d="m 14,14 v 4 h 4 v -4 z m 1,1 h 2 v 2 h -2 z"
       id="rect935-9" />
    <rect
       style="opacity:1;vector-effect:none;fill:#96d56b;fill-opacity:1;fill-rule:evenodd;stroke:none;stroke-width:4px;stroke-linecap:butt;stroke-linejoin:miter;stroke-miterlimit:4;stroke-dasharray:none;stroke-dashoffset:0;stroke-opacity:1;paint-order:stroke fill markers"
       id="rect847-1-7"
       width="8"
       height="8"
       x="4"
       y="12"
       ry="1" />
    <path
       inkscape:connector-curvature="0"
       style="opacity:0.25;vector-effect:none;fill:#000000;fill-opacity:1;fill-rule:evenodd;stroke:none;stroke-width:2;stroke-linecap:round;stroke-linejoin:round;stroke-miterlimit:4;stroke-dasharray:none;stroke-dashoffset:0;stroke-opacity:1;paint-order:stroke fill markers"
       d="m 5,12 c -0.554,0 -1,0.446 -1,1 v 6 c 0,0.554 0.446,1 1,1 h 6 c 0.554,0 1,-0.446 1,-1 v -6 c 0,-0.554 -0.446,-1 -1,-1 z m 0,1 h 6 v 6 H 5 Z"
       id="rect930-6-9" />
    <path
       inkscape:connector-curvature="0"
       style="opacity:0.25;vector-effect:none;fill:#000000;fill-opacity:1;fill-rule:evenodd;stroke:none;stroke-width:2;stroke-linecap:round;stroke-linejoin:round;stroke-miterlimit:4;stroke-dasharray:none;stroke-dashoffset:0;stroke-opacity:1;paint-order:stroke fill markers"
       d="m 6,14 v 4 h 4 v -4 z m 1,1 h 2 v 2 H 7 Z"
       id="rect935-8-1" />
    <rect
       style="opacity:1;vector-effect:none;fill:#96d56b;fill-opacity:1;fill-rule:evenodd;stroke:none;stroke-width:4px;stroke-linecap:butt;stroke-linejoin:miter;stroke-miterlimit:4;stroke-dasharray:none;stroke-dashoffset:0;stroke-opacity:1;paint-order:stroke fill markers"
       id="rect847-1-5-3"
       width="8"
       height="8"
       x="-28"
       y="12"
       ry="1"
       transform="scale(-1,1)" />
    <path
       inkscape:connector-curvature="0"
       style="opacity:0.25;vector-effect:none;fill:#000000;fill-opacity:1;fill-rule:evenodd;stroke:none;stroke-width:2;stroke-linecap:round;stroke-linejoin:round;stroke-miterlimit:4;stroke-dasharray:none;stroke-dashoffset:0;stroke-opacity:1;paint-order:stroke fill markers"
       d="m 27,12 c 0.554,0 1,0.446 1,1 v 6 c 0,0.554 -0.446,1 -1,1 h -6 c -0.554,0 -1,-0.446 -1,-1 v -6 c 0,-0.554 0.446,-1 1,-1 z m 0,1 h -6 v 6 h 6 z"
       id="rect930-6-0-4" />
    <path
       inkscape:connector-curvature="0"
       style="opacity:0.25;vector-effect:none;fill:#000000;fill-opacity:1;fill-rule:evenodd;stroke:none;stroke-width:2;stroke-linecap:round;stroke-linejoin:round;stroke-miterlimit:4;stroke-dasharray:none;stroke-dashoffset:0;stroke-opacity:1;paint-order:stroke fill markers"
       d="m 26,14 v 4 h -4 v -4 z m -1,1 h -2 v 2 h 2 z"
       id="rect935-8-4-3" />
    <rect
       style="opacity:1;vector-effect:none;fill:#c184ed;fill-opacity:1;fill-rule:evenodd;stroke:none;stroke-width:4px;stroke-linecap:butt;stroke-linejoin:miter;stroke-miterlimit:4;stroke-dasharray:none;stroke-dashoffset:0;stroke-opacity:1;paint-order:stroke fill markers"
       id="rect847-9"
       width="8"
       height="8"
       x="28"
       y="20"
       ry="1" />
    <path
       inkscape:connector-curvature="0"
       style="opacity:0.25;vector-effect:none;fill:#000000;fill-opacity:1;fill-rule:evenodd;stroke:none;stroke-width:2;stroke-linecap:round;stroke-linejoin:round;stroke-miterlimit:4;stroke-dasharray:none;stroke-dashoffset:0;stroke-opacity:1;paint-order:stroke fill markers"
       d="m 29,20 c -0.554,0 -1,0.446 -1,1 v 6 c 0,0.554 0.446,1 1,1 h 6 c 0.554,0 1,-0.446 1,-1 v -6 c 0,-0.554 -0.446,-1 -1,-1 z m 0,1 h 6 v 6 h -6 z"
       id="rect930-3" />
    <path
       inkscape:connector-curvature="0"
       style="opacity:0.25;vector-effect:none;fill:#000000;fill-opacity:1;fill-rule:evenodd;stroke:none;stroke-width:2;stroke-linecap:round;stroke-linejoin:round;stroke-miterlimit:4;stroke-dasharray:none;stroke-dashoffset:0;stroke-opacity:1;paint-order:stroke fill markers"
       d="m 30,22 v 4 h 4 v -4 z m 1,1 h 2 v 2 h -2 z"
       id="rect935-94" />
    <rect
       style="opacity:1;vector-effect:none;fill:#c184ed;fill-opacity:1;fill-rule:evenodd;stroke:none;stroke-width:4px;stroke-linecap:butt;stroke-linejoin:miter;stroke-miterlimit:4;stroke-dasharray:none;stroke-dashoffset:0;stroke-opacity:1;paint-order:stroke fill markers"
       id="rect847-1-0"
       width="8"
       height="8"
       x="20"
       y="20"
       ry="1" />
    <path
       inkscape:connector-curvature="0"
       style="opacity:0.25;vector-effect:none;fill:#000000;fill-opacity:1;fill-rule:evenodd;stroke:none;stroke-width:2;stroke-linecap:round;stroke-linejoin:round;stroke-miterlimit:4;stroke-dasharray:none;stroke-dashoffset:0;stroke-opacity:1;paint-order:stroke fill markers"
       d="m 21,20 c -0.554,0 -1,0.446 -1,1 v 6 c 0,0.554 0.446,1 1,1 h 6 c 0.554,0 1,-0.446 1,-1 v -6 c 0,-0.554 -0.446,-1 -1,-1 z m 0,1 h 6 v 6 h -6 z"
       id="rect930-6-2" />
    <path
       inkscape:connector-curvature="0"
       style="opacity:0.25;vector-effect:none;fill:#000000;fill-opacity:1;fill-rule:evenodd;stroke:none;stroke-width:2;stroke-linecap:round;stroke-linejoin:round;stroke-miterlimit:4;stroke-dasharray:none;stroke-dashoffset:0;stroke-opacity:1;paint-order:stroke fill markers"
       d="m 22,22 v 4 h 4 v -4 z m 1,1 h 2 v 2 h -2 z"
       id="rect935-8-8" />
    <rect
       style="opacity:1;vector-effect:none;fill:#c184ed;fill-opacity:1;fill-rule:evenodd;stroke:none;stroke-width:4px;stroke-linecap:butt;stroke-linejoin:miter;stroke-miterlimit:4;stroke-dasharray:none;stroke-dashoffset:0;stroke-opacity:1;paint-order:stroke fill markers"
       id="rect847-1-5-0"
       width="8"
       height="8"
       x="-44"
       y="20"
       ry="1"
       transform="scale(-1,1)" />
    <path
       inkscape:connector-curvature="0"
       style="opacity:0.25;vector-effect:none;fill:#000000;fill-opacity:1;fill-rule:evenodd;stroke:none;stroke-width:2;stroke-linecap:round;stroke-linejoin:round;stroke-miterlimit:4;stroke-dasharray:none;stroke-dashoffset:0;stroke-opacity:1;paint-order:stroke fill markers"
       d="m 43,20 c 0.554,0 1,0.446 1,1 v 6 c 0,0.554 -0.446,1 -1,1 h -6 c -0.554,0 -1,-0.446 -1,-1 v -6 c 0,-0.554 0.446,-1 1,-1 z m 0,1 h -6 v 6 h 6 z"
       id="rect930-6-0-3" />
    <path
       inkscape:connector-curvature="0"
       style="opacity:0.25;vector-effect:none;fill:#000000;fill-opacity:1;fill-rule:evenodd;stroke:none;stroke-width:2;stroke-linecap:round;stroke-linejoin:round;stroke-miterlimit:4;stroke-dasharray:none;stroke-dashoffset:0;stroke-opacity:1;paint-order:stroke fill markers"
       d="m 42,22 v 4 h -4 v -4 z m -1,1 h -2 v 2 h 2 z"
       id="rect935-8-4-1" />
    <rect
       style="opacity:1;vector-effect:none;fill:#c184ed;fill-opacity:1;fill-rule:evenodd;stroke:none;stroke-width:4px;stroke-linecap:butt;stroke-linejoin:miter;stroke-miterlimit:4;stroke-dasharray:none;stroke-dashoffset:0;stroke-opacity:1;paint-order:stroke fill markers"
       id="rect847-9-7"
       width="8"
       height="8"
       x="4"
       y="20"
       ry="1" />
    <path
       inkscape:connector-curvature="0"
       style="opacity:0.25;vector-effect:none;fill:#000000;fill-opacity:1;fill-rule:evenodd;stroke:none;stroke-width:2;stroke-linecap:round;stroke-linejoin:round;stroke-miterlimit:4;stroke-dasharray:none;stroke-dashoffset:0;stroke-opacity:1;paint-order:stroke fill markers"
       d="m 5,20 c -0.554,0 -1,0.446 -1,1 v 6 c 0,0.554 0.446,1 1,1 h 6 c 0.554,0 1,-0.446 1,-1 v -6 c 0,-0.554 -0.446,-1 -1,-1 z m 0,1 h 6 v 6 H 5 Z"
       id="rect930-3-2" />
    <path
       inkscape:connector-curvature="0"
       style="opacity:0.25;vector-effect:none;fill:#000000;fill-opacity:1;fill-rule:evenodd;stroke:none;stroke-width:2;stroke-linecap:round;stroke-linejoin:round;stroke-miterlimit:4;stroke-dasharray:none;stroke-dashoffset:0;stroke-opacity:1;paint-order:stroke fill markers"
       d="m 6,22 v 4 h 4 v -4 z m 1,1 h 2 v 2 H 7 Z"
       id="rect935-94-9" />
    <rect
       style="opacity:1;vector-effect:none;fill:#c184ed;fill-opacity:1;fill-rule:evenodd;stroke:none;stroke-width:4px;stroke-linecap:butt;stroke-linejoin:miter;stroke-miterlimit:4;stroke-dasharray:none;stroke-dashoffset:0;stroke-opacity:1;paint-order:stroke fill markers"
       id="rect847-1-5-0-7"
       width="8"
       height="8"
       x="-20"
       y="20"
       ry="1"
       transform="scale(-1,1)" />
    <path
       inkscape:connector-curvature="0"
       style="opacity:0.25;vector-effect:none;fill:#000000;fill-opacity:1;fill-rule:evenodd;stroke:none;stroke-width:2;stroke-linecap:round;stroke-linejoin:round;stroke-miterlimit:4;stroke-dasharray:none;stroke-dashoffset:0;stroke-opacity:1;paint-order:stroke fill markers"
       d="m 19,20 c 0.554,0 1,0.446 1,1 v 6 c 0,0.554 -0.446,1 -1,1 h -6 c -0.554,0 -1,-0.446 -1,-1 v -6 c 0,-0.554 0.446,-1 1,-1 z m 0,1 h -6 v 6 h 6 z"
       id="rect930-6-0-3-3" />
    <path
       inkscape:connector-curvature="0"
       style="opacity:0.25;vector-effect:none;fill:#000000;fill-opacity:1;fill-rule:evenodd;stroke:none;stroke-width:2;stroke-linecap:round;stroke-linejoin:round;stroke-miterlimit:4;stroke-dasharray:none;stroke-dashoffset:0;stroke-opacity:1;paint-order:stroke fill markers"
       d="m 18,22 v 4 h -4 v -4 z m -1,1 h -2 v 2 h 2 z"
       id="rect935-8-4-1-4" />
    <rect
       style="opacity:1;vector-effect:none;fill:#96d56b;fill-opacity:1;fill-rule:evenodd;stroke:none;stroke-width:4px;stroke-linecap:butt;stroke-linejoin:miter;stroke-miterlimit:4;stroke-dasharray:none;stroke-dashoffset:0;stroke-opacity:1;paint-order:stroke fill markers"
       id="rect847-9-3"
       width="8"
       height="8"
       x="28"
       y="12"
       ry="1" />
    <path
       inkscape:connector-curvature="0"
       style="opacity:0.25;vector-effect:none;fill:#000000;fill-opacity:1;fill-rule:evenodd;stroke:none;stroke-width:2;stroke-linecap:round;stroke-linejoin:round;stroke-miterlimit:4;stroke-dasharray:none;stroke-dashoffset:0;stroke-opacity:1;paint-order:stroke fill markers"
       d="m 29,12 c -0.554,0 -1,0.446 -1,1 v 6 c 0,0.554 0.446,1 1,1 h 6 c 0.554,0 1,-0.446 1,-1 v -6 c 0,-0.554 -0.446,-1 -1,-1 z m 0,1 h 6 v 6 h -6 z"
       id="rect930-3-28" />
    <path
       inkscape:connector-curvature="0"
       style="opacity:0.25;vector-effect:none;fill:#000000;fill-opacity:1;fill-rule:evenodd;stroke:none;stroke-width:2;stroke-linecap:round;stroke-linejoin:round;stroke-miterlimit:4;stroke-dasharray:none;stroke-dashoffset:0;stroke-opacity:1;paint-order:stroke fill markers"
       d="m 30,14 v 4 h 4 v -4 z m 1,1 h 2 v 2 h -2 z"
       id="rect935-94-7" />
    <rect
       style="opacity:1;vector-effect:none;fill:#96d56b;fill-opacity:1;fill-rule:evenodd;stroke:none;stroke-width:4px;stroke-linecap:butt;stroke-linejoin:miter;stroke-miterlimit:4;stroke-dasharray:none;stroke-dashoffset:0;stroke-opacity:1;paint-order:stroke fill markers"
       id="rect847-1-5-0-3"
       width="8"
       height="8"
       x="-44"
       y="12"
       ry="1"
       transform="scale(-1,1)" />
    <path
       inkscape:connector-curvature="0"
       style="opacity:0.25;vector-effect:none;fill:#000000;fill-opacity:1;fill-rule:evenodd;stroke:none;stroke-width:2;stroke-linecap:round;stroke-linejoin:round;stroke-miterlimit:4;stroke-dasharray:none;stroke-dashoffset:0;stroke-opacity:1;paint-order:stroke fill markers"
       d="m 43,12 c 0.554,0 1,0.446 1,1 v 6 c 0,0.554 -0.446,1 -1,1 h -6 c -0.554,0 -1,-0.446 -1,-1 v -6 c 0,-0.554 0.446,-1 1,-1 z m 0,1 h -6 v 6 h 6 z"
       id="rect930-6-0-3-9" />
    <path
       inkscape:connector-curvature="0"
       style="opacity:0.25;vector-effect:none;fill:#000000;fill-opacity:1;fill-rule:evenodd;stroke:none;stroke-width:2;stroke-linecap:round;stroke-linejoin:round;stroke-miterlimit:4;stroke-dasharray:none;stroke-dashoffset:0;stroke-opacity:1;paint-order:stroke fill markers"
       d="m 42,14 v 4 h -4 v -4 z m -1,1 h -2 v 2 h 2 z"
       id="rect935-8-4-1-8" />
    <path
       style="color:#000000;font-style:normal;font-variant:normal;font-weight:normal;font-stretch:normal;font-size:medium;line-height:normal;font-family:sans-serif;font-variant-ligatures:normal;font-variant-position:normal;font-variant-caps:normal;font-variant-numeric:normal;font-variant-alternates:normal;font-feature-settings:normal;text-indent:0;text-align:start;text-decoration:none;text-decoration-line:none;text-decoration-style:solid;text-decoration-color:#000000;letter-spacing:normal;word-spacing:normal;text-transform:none;writing-mode:lr-tb;direction:ltr;text-orientation:mixed;dominant-baseline:auto;baseline-shift:baseline;text-anchor:start;white-space:normal;shape-padding:0;clip-rule:nonzero;display:inline;overflow:visible;visibility:visible;opacity:0.25;isolation:auto;mix-blend-mode:normal;color-interpolation:sRGB;color-interpolation-filters:linearRGB;solid-color:#000000;solid-opacity:1;vector-effect:none;fill:#000000;fill-opacity:1;fill-rule:evenodd;stroke:none;stroke-width:2;stroke-linecap:round;stroke-linejoin:round;stroke-miterlimit:4;stroke-dasharray:none;stroke-dashoffset:0;stroke-opacity:1;paint-order:stroke fill markers;color-rendering:auto;image-rendering:auto;shape-rendering:auto;text-rendering:auto;enable-background:accumulate"
       d="M 6 38 C 4.892 38 4 38.892 4 40 C 4 42.216 5.784 44 8 44 L 19 44 L 22 44 L 24 44 L 26 44 L 29 44 L 40 44 C 42.216 44 44 42.216 44 40 C 44 38.892 43.108 38 42 38 L 26 38 L 24 38 L 22 38 L 6 38 z M 6 39 L 22 39 L 24 39 L 26 39 L 42 39 C 42.571297 39 43 39.428703 43 40 C 43 41.679297 41.679297 43 40 43 L 29 43 L 26 43 L 24 43 L 22 43 L 19 43 L 8 43 C 6.3207028 43 5 41.679297 5 40 C 5 39.428703 5.4287028 39 6 39 z "
       id="rect939-9" />
    <path
       style="color:#000000;font-style:normal;font-variant:normal;font-weight:normal;font-stretch:normal;font-size:medium;line-height:normal;font-family:sans-serif;font-variant-ligatures:normal;font-variant-position:normal;font-variant-caps:normal;font-variant-numeric:normal;font-variant-alternates:normal;font-feature-settings:normal;text-indent:0;text-align:start;text-decoration:none;text-decoration-line:none;text-decoration-style:solid;text-decoration-color:#000000;letter-spacing:normal;word-spacing:normal;text-transform:none;writing-mode:lr-tb;direction:ltr;text-orientation:mixed;dominant-baseline:auto;baseline-shift:baseline;text-anchor:start;white-space:normal;shape-padding:0;clip-rule:nonzero;display:inline;overflow:visible;visibility:visible;opacity:0.25;isolation:auto;mix-blend-mode:normal;color-interpolation:sRGB;color-interpolation-filters:linearRGB;solid-color:#000000;solid-opacity:1;vector-effect:none;fill:#000000;fill-opacity:1;fill-rule:evenodd;stroke:none;stroke-width:2;stroke-linecap:round;stroke-linejoin:round;stroke-miterlimit:4;stroke-dasharray:none;stroke-dashoffset:0;stroke-opacity:1;paint-order:stroke fill markers;color-rendering:auto;image-rendering:auto;shape-rendering:auto;text-rendering:auto;enable-background:accumulate"
       d="M 23 32 C 21.338 32 20 33.338 20 35 C 20 36.662 21.338 38 23 38 C 24.662 38 26 36.662 26 35 C 26 33.338 24.662 32 23 32 z M 23 33 C 24.125297 33 25 33.874703 25 35 C 25 36.125297 24.125297 37 23 37 C 21.874703 37 21 36.125297 21 35 C 21 33.874703 21.874703 33 23 33 z "
       id="rect944-4" />
  </g>
</svg>
