<?xml version="1.0" encoding="UTF-8" standalone="no"?>
<!-- Created with Inkscape (http://www.inkscape.org/) -->

<svg
   xmlns:dc="http://purl.org/dc/elements/1.1/"
   xmlns:cc="http://creativecommons.org/ns#"
   xmlns:rdf="http://www.w3.org/1999/02/22-rdf-syntax-ns#"
   xmlns:svg="http://www.w3.org/2000/svg"
   xmlns="http://www.w3.org/2000/svg"
   xmlns:sodipodi="http://sodipodi.sourceforge.net/DTD/sodipodi-0.dtd"
   xmlns:inkscape="http://www.inkscape.org/namespaces/inkscape"
   width="48px"
   height="48px"
   viewBox="0 0 48 48"
   version="1.1"
   id="SVGRoot"
   inkscape:version="0.92.4 (5da689c313, 2019-01-14)"
   sodipodi:docname="mame.svg">
  <defs
     id="defs815" />
  <sodipodi:namedview
     id="base"
     pagecolor="#ffffff"
     bordercolor="#666666"
     borderopacity="1.0"
     inkscape:pageopacity="0.0"
     inkscape:pageshadow="2"
     inkscape:zoom="32.684842"
     inkscape:cx="19.939004"
     inkscape:cy="23.199547"
     inkscape:document-units="px"
     inkscape:current-layer="layer1"
     showgrid="true"
     inkscape:window-width="1920"
     inkscape:window-height="1017"
     inkscape:window-x="-8"
     inkscape:window-y="-8"
     inkscape:window-maximized="1"
     inkscape:grid-bbox="true"
     inkscape:snap-global="true"
     showguides="true"
     inkscape:guide-bbox="true">
    <inkscape:grid
       type="xygrid"
       id="grid1371" />
  </sodipodi:namedview>
  <metadata
     id="metadata818">
    <rdf:RDF>
      <cc:Work
         rdf:about="">
        <dc:format>image/svg+xml</dc:format>
        <dc:type
           rdf:resource="http://purl.org/dc/dcmitype/StillImage" />
        <dc:title />
      </cc:Work>
    </rdf:RDF>
  </metadata>
  <g
     inkscape:label="Layer 1"
     inkscape:groupmode="layer"
     id="layer1">
    <rect
       style="opacity:1;vector-effect:none;fill:#38516b;fill-opacity:1;fill-rule:evenodd;stroke:none;stroke-width:4;stroke-linecap:round;stroke-linejoin:round;stroke-miterlimit:4;stroke-dasharray:none;stroke-dashoffset:0;stroke-opacity:1;paint-order:stroke fill markers"
       id="rect1373"
       width="40"
       height="40"
       x="4"
       y="4"
       ry="4" />
    <path
       inkscape:connector-curvature="0"
       style="opacity:0.2;vector-effect:none;fill:#8dc9f1;fill-opacity:1;fill-rule:evenodd;stroke:none;stroke-width:2;stroke-linecap:round;stroke-linejoin:round;stroke-miterlimit:4;stroke-dasharray:none;stroke-opacity:1;paint-order:normal"
       d="M 7,5 V 7 H 5 v 1 h 2 v 3 H 5 v 1 h 2 v 3 H 5 v 1 h 2 v 3 H 5 v 1 h 2 v 3 H 5 v 1 h 2 v 3 H 5 v 1 h 2 v 3 H 5 v 1 h 2 v 3 H 5 v 1 h 2 v 3 H 5 v 1 h 2 v 3 h 1 v -3 h 3 v 3 h 1 v -3 h 3 v 3 h 1 v -3 h 3 v 3 h 1 v -3 h 3 v 3 h 1 v -3 h 3 v 3 h 1 v -3 h 3 v 3 h 1 v -3 h 3 v 3 h 1 v -3 h 3 v 3 h 1 v -3 h 3 v -1 h -3 v -3 h 3 v -1 h -3 v -3 h 3 v -1 h -3 v -3 h 3 v -1 h -3 v -3 h 3 v -1 h -3 v -3 h 3 v -1 h -3 v -3 h 3 v -1 h -3 v -3 h 3 V 11 H 40 V 8 h 3 V 7 H 40 V 5 H 39 V 7 H 36 V 5 H 35 V 7 H 32 V 5 H 31 V 7 H 28 V 5 H 27 V 7 H 24 V 5 H 23 V 7 H 20 V 5 H 19 V 7 H 16 V 5 H 15 V 7 H 12 V 5 H 11 V 7 H 8 V 5 Z m 1,3 h 3 v 3 H 8 Z m 4,0 h 3 v 3 h -3 z m 4,0 h 3 v 3 h -3 z m 4,0 h 3 v 3 h -3 z m 4,0 h 3 v 3 h -3 z m 4,0 h 3 v 3 h -3 z m 4,0 h 3 v 3 h -3 z m 4,0 h 3 v 3 H 36 Z M 8,12 h 3 v 3 H 8 Z m 4,0 h 3 v 3 h -3 z m 4,0 h 3 v 3 h -3 z m 4,0 h 3 v 3 h -3 z m 4,0 h 3 v 3 h -3 z m 4,0 h 3 v 3 h -3 z m 4,0 h 3 v 3 h -3 z m 4,0 h 3 v 3 H 36 Z M 8,16 h 3 v 3 H 8 Z m 4,0 h 3 v 3 h -3 z m 4,0 h 3 v 3 h -3 z m 4,0 h 3 v 3 h -3 z m 4,0 h 3 v 3 h -3 z m 4,0 h 3 v 3 h -3 z m 4,0 h 3 v 3 h -3 z m 4,0 h 3 v 3 H 36 Z M 8,20 h 3 v 3 H 8 Z m 4,0 h 3 v 3 h -3 z m 4,0 h 3 v 3 h -3 z m 4,0 h 3 v 3 h -3 z m 4,0 h 3 v 3 h -3 z m 4,0 h 3 v 3 h -3 z m 4,0 h 3 v 3 h -3 z m 4,0 h 3 v 3 H 36 Z M 8,24 h 3 v 3 H 8 Z m 4,0 h 3 v 3 h -3 z m 4,0 h 3 v 3 h -3 z m 4,0 h 3 v 3 h -3 z m 4,0 h 3 v 3 h -3 z m 4,0 h 3 v 3 h -3 z m 4,0 h 3 v 3 h -3 z m 4,0 h 3 v 3 H 36 Z M 8,28 h 3 v 3 H 8 Z m 4,0 h 3 v 3 h -3 z m 4,0 h 3 v 3 h -3 z m 4,0 h 3 v 3 h -3 z m 4,0 h 3 v 3 h -3 z m 4,0 h 3 v 3 h -3 z m 4,0 h 3 v 3 h -3 z m 4,0 h 3 v 3 H 36 Z M 8,32 h 3 v 3 H 8 Z m 4,0 h 3 v 3 h -3 z m 4,0 h 3 v 3 h -3 z m 4,0 h 3 v 3 h -3 z m 4,0 h 3 v 3 h -3 z m 4,0 h 3 v 3 h -3 z m 4,0 h 3 v 3 h -3 z m 4,0 h 3 v 3 H 36 Z M 8,36 h 3 v 3 H 8 Z m 4,0 h 3 v 3 h -3 z m 4,0 h 3 v 3 h -3 z m 4,0 h 3 v 3 h -3 z m 4,0 h 3 v 3 h -3 z m 4,0 h 3 v 3 h -3 z m 4,0 h 3 v 3 h -3 z m 4,0 h 3 v 3 h -3 z"
       id="rect1215" />
    <path
       style="opacity:0.4;vector-effect:none;fill:#000000;fill-opacity:1;fill-rule:evenodd;stroke:none;stroke-width:4;stroke-linecap:round;stroke-linejoin:round;stroke-miterlimit:4;stroke-dasharray:none;stroke-dashoffset:0;stroke-opacity:1;paint-order:stroke fill markers"
       d="M 8 4 C 5.784 4 4 5.784 4 8 L 4 40 C 4 42.216 5.784 44 8 44 L 40 44 C 42.216 44 44 42.216 44 40 L 44 8 C 44 5.784 42.216 4 40 4 L 8 4 z M 8 5 L 40 5 C 41.662 5 43 6.338 43 8 L 43 40 C 43 41.662 41.662 43 40 43 L 8 43 C 6.338 43 5 41.662 5 40 L 5 8 C 5 6.338 6.338 5 8 5 z "
       id="rect826" />
    <path
       style="color:#000000;font-style:normal;font-variant:normal;font-weight:normal;font-stretch:normal;font-size:medium;line-height:normal;font-family:sans-serif;font-variant-ligatures:normal;font-variant-position:normal;font-variant-caps:normal;font-variant-numeric:normal;font-variant-alternates:normal;font-feature-settings:normal;text-indent:0;text-align:start;text-decoration:none;text-decoration-line:none;text-decoration-style:solid;text-decoration-color:#000000;letter-spacing:normal;word-spacing:normal;text-transform:none;writing-mode:lr-tb;direction:ltr;text-orientation:mixed;dominant-baseline:auto;baseline-shift:baseline;text-anchor:start;white-space:normal;shape-padding:0;clip-rule:nonzero;display:inline;overflow:visible;visibility:visible;opacity:0.4;isolation:auto;mix-blend-mode:normal;color-interpolation:sRGB;color-interpolation-filters:linearRGB;solid-color:#000000;solid-opacity:1;vector-effect:none;fill:#000000;fill-opacity:1;fill-rule:nonzero;stroke:none;stroke-width:2;stroke-linecap:round;stroke-linejoin:round;stroke-miterlimit:4;stroke-dasharray:none;stroke-dashoffset:0;stroke-opacity:1;color-rendering:auto;image-rendering:auto;shape-rendering:auto;text-rendering:auto;enable-background:accumulate"
       d="m 29.970703,13 a 1.0001,1.0001 0 0 0 -0.677734,0.292969 l -20.0000002,20 A 1.0001,1.0001 0 0 0 10,35 h 6 a 1.0001,1.0001 0 0 0 0.707031,-0.292969 L 23,28.414062 V 34 a 1.0001,1.0001 0 0 0 1.707031,0.707031 L 31,28.414062 V 34 a 1.0001,1.0001 0 0 0 1,1 h 6 a 1.0001,1.0001 0 0 0 1,-1 V 14 A 1.0001,1.0001 0 0 0 37.292969,13.292969 L 31,19.585938 V 14 a 1.0001,1.0001 0 0 0 -1.029297,-1 z"
       id="path836" />
    <path
       style="fill:#7cbce5;stroke:none;stroke-width:1px;stroke-linecap:butt;stroke-linejoin:miter;stroke-opacity:1;fill-opacity:1"
       d="M 10,34 30,14 v 8 l 8,-8 v 20 h -6 v -8 l -8,8 v -8 l -8,8 z"
       id="path839"
       inkscape:connector-curvature="0"
       sodipodi:nodetypes="ccccccccccc" />
  </g>
</svg>
