<?xml version="1.0" encoding="UTF-8" standalone="no"?>
<!-- Created with Inkscape (http://www.inkscape.org/) -->

<svg
   xmlns:dc="http://purl.org/dc/elements/1.1/"
   xmlns:cc="http://creativecommons.org/ns#"
   xmlns:rdf="http://www.w3.org/1999/02/22-rdf-syntax-ns#"
   xmlns:svg="http://www.w3.org/2000/svg"
   xmlns="http://www.w3.org/2000/svg"
   xmlns:sodipodi="http://sodipodi.sourceforge.net/DTD/sodipodi-0.dtd"
   xmlns:inkscape="http://www.inkscape.org/namespaces/inkscape"
   width="48px"
   height="48px"
   viewBox="0 0 48 48"
   version="1.1"
   id="SVGRoot"
   inkscape:version="0.92.4 (5da689c313, 2019-01-14)"
   sodipodi:docname="marblemarcher.svg">
  <defs
     id="defs815" />
  <sodipodi:namedview
     id="base"
     pagecolor="#ffffff"
     bordercolor="#666666"
     borderopacity="1.0"
     inkscape:pageopacity="0.0"
     inkscape:pageshadow="2"
     inkscape:zoom="9.639769"
     inkscape:cx="24.406985"
     inkscape:cy="19.310128"
     inkscape:document-units="px"
     inkscape:current-layer="layer1"
     showgrid="true"
     inkscape:window-width="1920"
     inkscape:window-height="1017"
     inkscape:window-x="-8"
     inkscape:window-y="-8"
     inkscape:window-maximized="1"
     inkscape:grid-bbox="true"
     inkscape:snap-global="true">
    <inkscape:grid
       type="xygrid"
       id="grid1371" />
  </sodipodi:namedview>
  <metadata
     id="metadata818">
    <rdf:RDF>
      <cc:Work
         rdf:about="">
        <dc:format>image/svg+xml</dc:format>
        <dc:type
           rdf:resource="http://purl.org/dc/dcmitype/StillImage" />
        <dc:title></dc:title>
      </cc:Work>
    </rdf:RDF>
  </metadata>
  <g
     inkscape:label="Layer 1"
     inkscape:groupmode="layer"
     id="layer1">
    <path
       style="opacity:1;vector-effect:none;fill:#729dec;fill-opacity:1;fill-rule:evenodd;stroke:none;stroke-width:4;stroke-linecap:round;stroke-linejoin:round;stroke-miterlimit:4;stroke-dasharray:none;stroke-dashoffset:0;stroke-opacity:1;paint-order:stroke fill markers"
       d="M 8 4 C 5.784 4 4 5.784 4 8 L 4 40 C 4 42.216 5.784 44 8 44 L 40 44 C 42.216 44 44 42.216 44 40 L 44 8 C 44 5.784 42.216 4 40 4 L 8 4 z M 20 20 L 28 20 L 28 28 L 20 28 L 20 20 z "
       id="rect1373" />
    <path
       style="opacity:0.25;vector-effect:none;fill:#000000;fill-opacity:1;fill-rule:evenodd;stroke:none;stroke-width:4;stroke-linecap:round;stroke-linejoin:round;stroke-miterlimit:4;stroke-dasharray:none;stroke-dashoffset:0;stroke-opacity:1;paint-order:stroke fill markers"
       d="M 8 4 C 5.784 4 4 5.784 4 8 L 4 40 C 4 42.216 5.784 44 8 44 L 40 44 C 42.216 44 44 42.216 44 40 L 44 8 C 44 5.784 42.216 4 40 4 L 8 4 z M 8 5 L 40 5 C 41.662 5 43 6.338 43 8 L 43 40 C 43 41.662 41.662 43 40 43 L 8 43 C 6.338 43 5 41.662 5 40 L 5 8 C 5 6.338 6.338 5 8 5 z M 20 19 C 19.446 19 19 19.446 19 20 L 19 28 C 19 28.554 19.446 29 20 29 L 28 29 C 28.554 29 29 28.554 29 28 L 29 20 C 29 19.446 28.554 19 28 19 L 20 19 z M 20 20 L 28 20 L 28 28 L 20 28 L 20 20 z "
       id="rect826" />
    <path
       style="opacity:0.25;vector-effect:none;fill:#000000;fill-opacity:1;fill-rule:evenodd;stroke:none;stroke-width:1.33333337;stroke-linecap:round;stroke-linejoin:round;stroke-miterlimit:4;stroke-dasharray:none;stroke-opacity:1;paint-order:normal"
       d="M 9 6 C 9.6666667 6 10.333333 6 11 6 C 11 5.3333333 11 4.6666667 11 4 C 10.333333 4 9.6666667 4 9 4 C 9 4.6666667 9 5.3333333 9 6 z M 14 6 C 14.666667 6 15.333333 6 16 6 C 16 5.3333333 16 4.6666667 16 4 C 15.333333 4 14.666667 4 14 4 C 14 4.6666667 14 5.3333333 14 6 z M 18 6 C 18.666667 6 19.333333 6 20 6 C 20 5.3333333 20 4.6666667 20 4 C 19.333333 4 18.666667 4 18 4 C 18 4.6666667 18 5.3333333 18 6 z M 23 6 C 23.666667 6 24.333333 6 25 6 C 25 5.3333333 25 4.6666667 25 4 C 24.333333 4 23.666667 4 23 4 C 23 4.6666667 23 5.3333333 23 6 z M 28 6 C 28.666667 6 29.333333 6 30 6 C 30 5.3333333 30 4.6666667 30 4 C 29.333333 4 28.666667 4 28 4 C 28 4.6666667 28 5.3333333 28 6 z M 32 6 C 32.666667 6 33.333333 6 34 6 C 34 5.3333333 34 4.6666667 34 4 C 33.333333 4 32.666667 4 32 4 C 32 4.6666667 32 5.3333333 32 6 z M 37 6 C 37.666667 6 38.333333 6 39 6 C 39 5.3333333 39 4.6666667 39 4 C 38.333333 4 37.666667 4 37 4 C 37 4.6666667 37 5.3333333 37 6 z M 5.5683594 4.8398438 C 5.1713519 5.1705969 4.8246659 5.5614851 4.5507812 6 C 5.0338542 6 5.5169271 6 6 6 C 6 5.5169271 6 5.0338542 6 4.5507812 C 5.8561198 4.6471354 5.7122396 4.7434896 5.5683594 4.8398438 z M 42 6 C 42.483073 6 42.966146 6 43.449219 6 C 43.07364 5.4215602 42.57833 4.9264467 42 4.5507812 C 42 5.0338542 42 5.5169271 42 6 z M 8 12 C 9.3333333 12 10.666667 12 12 12 C 12 10.666667 12 9.3333333 12 8 C 10.666667 8 9.3333333 8 8 8 C 8 9.3333333 8 10.666667 8 12 z M 22 12 C 23.333333 12 24.666667 12 26 12 C 26 10.666667 26 9.3333333 26 8 C 24.666667 8 23.333333 8 22 8 C 22 9.3333333 22 10.666667 22 12 z M 36 12 C 37.333333 12 38.666667 12 40 12 C 40 10.666667 40 9.3333333 40 8 C 38.666667 8 37.333333 8 36 8 C 36 9.3333333 36 10.666667 36 12 z M 4 11 C 4.6666667 11 5.3333333 11 6 11 C 6 10.333333 6 9.6666667 6 9 C 5.3333333 9 4.6666667 9 4 9 C 4 9.6666667 4 10.333333 4 11 z M 14 11 C 14.666667 11 15.333333 11 16 11 C 16 10.333333 16 9.6666667 16 9 C 15.333333 9 14.666667 9 14 9 C 14 9.6666667 14 10.333333 14 11 z M 18 11 C 18.666667 11 19.333333 11 20 11 C 20 10.333333 20 9.6666667 20 9 C 19.333333 9 18.666667 9 18 9 C 18 9.6666667 18 10.333333 18 11 z M 28 11 C 28.666667 11 29.333333 11 30 11 C 30 10.333333 30 9.6666667 30 9 C 29.333333 9 28.666667 9 28 9 C 28 9.6666667 28 10.333333 28 11 z M 32 11 C 32.666667 11 33.333333 11 34 11 C 34 10.333333 34 9.6666667 34 9 C 33.333333 9 32.666667 9 32 9 C 32 9.6666667 32 10.333333 32 11 z M 42 11 C 42.666667 11 43.333333 11 44 11 C 44 10.333333 44 9.6666667 44 9 C 43.333333 9 42.666667 9 42 9 C 42 9.6666667 42 10.333333 42 11 z M 4 16 C 4.6666667 16 5.3333333 16 6 16 C 6 15.333333 6 14.666667 6 14 C 5.3333333 14 4.6666667 14 4 14 C 4 14.666667 4 15.333333 4 16 z M 9 16 C 9.6666667 16 10.333333 16 11 16 C 11 15.333333 11 14.666667 11 14 C 10.333333 14 9.6666667 14 9 14 C 9 14.666667 9 15.333333 9 16 z M 14 16 C 14.666667 16 15.333333 16 16 16 C 16 15.333333 16 14.666667 16 14 C 15.333333 14 14.666667 14 14 14 C 14 14.666667 14 15.333333 14 16 z M 18 16 C 18.666667 16 19.333333 16 20 16 C 20 15.333333 20 14.666667 20 14 C 19.333333 14 18.666667 14 18 14 C 18 14.666667 18 15.333333 18 16 z M 23 16 C 23.666667 16 24.333333 16 25 16 C 25 15.333333 25 14.666667 25 14 C 24.333333 14 23.666667 14 23 14 C 23 14.666667 23 15.333333 23 16 z M 28 16 C 28.666667 16 29.333333 16 30 16 C 30 15.333333 30 14.666667 30 14 C 29.333333 14 28.666667 14 28 14 C 28 14.666667 28 15.333333 28 16 z M 32 16 C 32.666667 16 33.333333 16 34 16 C 34 15.333333 34 14.666667 34 14 C 33.333333 14 32.666667 14 32 14 C 32 14.666667 32 15.333333 32 16 z M 37 16 C 37.666667 16 38.333333 16 39 16 C 39 15.333333 39 14.666667 39 14 C 38.333333 14 37.666667 14 37 14 C 37 14.666667 37 15.333333 37 16 z M 42 16 C 42.666667 16 43.333333 16 44 16 C 44 15.333333 44 14.666667 44 14 C 43.333333 14 42.666667 14 42 14 C 42 14.666667 42 15.333333 42 16 z M 4 20 C 4.6666667 20 5.3333333 20 6 20 C 6 19.333333 6 18.666667 6 18 C 5.3333333 18 4.6666667 18 4 18 C 4 18.666667 4 19.333333 4 20 z M 9 20 C 9.6666667 20 10.333333 20 11 20 C 11 19.333333 11 18.666667 11 18 C 10.333333 18 9.6666667 18 9 18 C 9 18.666667 9 19.333333 9 20 z M 14 20 C 14.666667 20 15.333333 20 16 20 C 16 19.333333 16 18.666667 16 18 C 15.333333 18 14.666667 18 14 18 C 14 18.666667 14 19.333333 14 20 z M 32 20 C 32.666667 20 33.333333 20 34 20 C 34 19.333333 34 18.666667 34 18 C 33.333333 18 32.666667 18 32 18 C 32 18.666667 32 19.333333 32 20 z M 37 20 C 37.666667 20 38.333333 20 39 20 C 39 19.333333 39 18.666667 39 18 C 38.333333 18 37.666667 18 37 18 C 37 18.666667 37 19.333333 37 20 z M 42 20 C 42.666667 20 43.333333 20 44 20 C 44 19.333333 44 18.666667 44 18 C 43.333333 18 42.666667 18 42 18 C 42 18.666667 42 19.333333 42 20 z M 36.333984 25.246094 C 37.620443 25.435547 38.906901 25.625 40.193359 25.814453 C 40.128906 24.542969 40.064453 23.271484 40 22 C 38.672526 21.979818 37.345052 21.959635 36.017578 21.939453 C 36.123047 23.041667 36.228516 24.14388 36.333984 25.246094 z M 8 26 C 9.3333333 26 10.666667 26 12 26 C 12 24.666667 12 23.333333 12 22 C 10.666667 22 9.3333333 22 8 22 C 8 23.333333 8 24.666667 8 26 z M 31.912109 24.296875 C 32.638672 24.297526 33.365234 24.298177 34.091797 24.298828 C 34.070312 23.78125 34.048828 23.263672 34.027344 22.746094 C 33.342448 22.746094 32.657552 22.746094 31.972656 22.746094 C 31.952474 23.263021 31.932292 23.779948 31.912109 24.296875 z M 4 25 C 4.6666667 25 5.3333333 25 6 25 C 6 24.333333 6 23.666667 6 23 C 5.3333333 23 4.6666667 23 4 23 C 4 23.666667 4 24.333333 4 25 z M 14 25 C 14.666667 25 15.333333 25 16 25 C 16 24.333333 16 23.666667 16 23 C 15.333333 23 14.666667 23 14 23 C 14 23.666667 14 24.333333 14 25 z M 42.009766 24.994141 C 42.673177 24.996094 43.336589 24.998047 44 25 C 44 24.333333 44 23.666667 44 23 C 43.333333 23 42.666667 23 42 23 C 42.003255 23.664714 42.00651 24.329427 42.009766 24.994141 z M 31.318359 28.048828 C 32.448568 28.052734 33.578776 28.056641 34.708984 28.060547 C 34.580078 27.533854 34.451172 27.007161 34.322266 26.480469 C 33.444661 26.478516 32.567057 26.476562 31.689453 26.474609 C 31.565755 26.999349 31.442057 27.524089 31.318359 28.048828 z M 38.275391 29.115234 C 38.833333 29.263021 39.391276 29.410807 39.949219 29.558594 C 39.828776 28.883464 39.708333 28.208333 39.587891 27.533203 C 38.973307 27.393229 38.358724 27.253255 37.744141 27.113281 C 37.921224 27.780599 38.098307 28.447917 38.275391 29.115234 z M 42.318359 29.902344 C 42.893229 29.93099 43.468099 29.959635 44.042969 29.988281 C 44.030599 29.323568 44.018229 28.658854 44.005859 27.994141 C 43.39388 27.966146 42.781901 27.938151 42.169922 27.910156 C 42.219401 28.574219 42.26888 29.238281 42.318359 29.902344 z M 4 30 C 4.6666667 30 5.3333333 30 6 30 C 6 29.333333 6 28.666667 6 28 C 5.3333333 28 4.6666667 28 4 28 C 4 28.666667 4 29.333333 4 30 z M 9 30 C 9.6666667 30 10.333333 30 11 30 C 11 29.333333 11 28.666667 11 28 C 10.333333 28 9.6666667 28 9 28 C 9 28.666667 9 29.333333 9 30 z M 14 30 C 14.666667 30 15.333333 30 16 30 C 16 29.333333 16 28.666667 16 28 C 15.333333 28 14.666667 28 14 28 C 14 28.666667 14 29.333333 14 30 z M 30.519531 35.824219 C 32.190755 35.808594 33.861979 35.792969 35.533203 35.777344 C 35.654948 34.028646 35.776693 32.279948 35.898438 30.53125 C 33.982422 30.510417 32.066406 30.489583 30.150391 30.46875 C 30.273438 32.253906 30.396484 34.039062 30.519531 35.824219 z M 26.511719 31.765625 C 26.527995 32.626953 26.544271 33.488281 26.560547 34.349609 C 27.089844 34.483724 27.619141 34.617839 28.148438 34.751953 C 28.110677 33.658203 28.072917 32.564453 28.035156 31.470703 C 27.527344 31.56901 27.019531 31.667318 26.511719 31.765625 z M 38.671875 34.501953 C 39.169271 34.413411 39.666667 34.32487 40.164062 34.236328 C 40.176432 33.438151 40.188802 32.639974 40.201172 31.841797 C 39.714844 31.779948 39.228516 31.718099 38.742188 31.65625 C 38.71875 32.604818 38.695313 33.553385 38.671875 34.501953 z M 22.777344 31.980469 C 22.779948 32.66276 22.782552 33.345052 22.785156 34.027344 C 23.309896 34.050781 23.834635 34.074219 24.359375 34.097656 C 24.352865 33.376953 24.346354 32.65625 24.339844 31.935547 C 23.81901 31.950521 23.298177 31.965495 22.777344 31.980469 z M 42.398438 34.052734 C 42.957031 34.037109 43.515625 34.021484 44.074219 34.005859 C 44.07487 33.335286 44.075521 32.664714 44.076172 31.994141 C 43.521484 31.983724 42.966797 31.973307 42.412109 31.962891 C 42.407552 32.659505 42.402995 33.35612 42.398438 34.052734 z M 4 34 C 4.6666667 34 5.3333333 34 6 34 C 6 33.333333 6 32.666667 6 32 C 5.3333333 32 4.6666667 32 4 32 C 4 32.666667 4 33.333333 4 34 z M 9 34 C 9.6666667 34 10.333333 34 11 34 C 11 33.333333 11 32.666667 11 32 C 10.333333 32 9.6666667 32 9 32 C 9 32.666667 9 33.333333 9 34 z M 14 34 C 14.666667 34 15.333333 34 16 34 C 16 33.333333 16 32.666667 16 32 C 15.333333 32 14.666667 32 14 32 C 14 32.666667 14 33.333333 14 34 z M 18 34 C 18.666667 34 19.333333 34 20 34 C 20 33.333333 20 32.666667 20 32 C 19.333333 32 18.666667 32 18 32 C 18 32.666667 18 33.333333 18 34 z M 8 40 C 9.3333333 40 10.666667 40 12 40 C 12 38.666667 12 37.333333 12 36 C 10.666667 36 9.3333333 36 8 36 C 8 37.333333 8 38.666667 8 40 z M 22 40 C 23.282552 40.052734 24.565104 40.105469 25.847656 40.158203 C 25.671875 38.876302 25.496094 37.594401 25.320312 36.3125 C 24.201172 36.21224 23.082031 36.111979 21.962891 36.011719 C 21.97526 37.341146 21.98763 38.670573 22 40 z M 37.158203 37.226562 C 36.863932 38.370443 36.569661 39.514323 36.275391 40.658203 C 37.566406 40.489583 38.857422 40.320964 40.148438 40.152344 C 40.324219 38.871094 40.5 37.589844 40.675781 36.308594 C 39.503255 36.614583 38.330729 36.920573 37.158203 37.226562 z M 4 39 C 4.6666667 39 5.3333333 39 6 39 C 6 38.333333 6 37.666667 6 37 C 5.3333333 37 4.6666667 37 4 37 C 4 37.666667 4 38.333333 4 39 z M 14 39 C 14.666667 39 15.333333 39 16 39 C 16 38.333333 16 37.666667 16 37 C 15.333333 37 14.666667 37 14 37 C 14 37.666667 14 38.333333 14 39 z M 18 39 C 18.666667 39 19.333333 39 20 39 C 20 38.333333 20 37.666667 20 37 C 19.333333 37 18.666667 37 18 37 C 18 37.666667 18 38.333333 18 39 z M 42.208984 37.099609 C 42.163411 37.749349 42.117839 38.399089 42.072266 39.048828 C 42.714844 39.032552 43.357422 39.016276 44 39 C 44.005859 38.335286 44.011719 37.670573 44.017578 37.005859 C 43.414714 37.037109 42.811849 37.068359 42.208984 37.099609 z M 27.576172 39.527344 C 28.244792 39.643229 28.913411 39.759115 29.582031 39.875 C 29.438151 39.316406 29.294271 38.757812 29.150391 38.199219 C 28.49349 38.03125 27.836589 37.863281 27.179688 37.695312 C 27.311849 38.30599 27.44401 38.916667 27.576172 39.527344 z M 31.615234 38.662109 C 31.684245 39.150391 31.753255 39.638672 31.822266 40.126953 C 32.610026 40.126302 33.397786 40.125651 34.185547 40.125 C 34.257161 39.635417 34.328776 39.145833 34.400391 38.65625 C 33.472005 38.658203 32.54362 38.660156 31.615234 38.662109 z M 4.8398438 42.431641 C 5.1705969 42.828648 5.5614851 43.175334 6 43.449219 C 6 42.966146 6 42.483073 6 42 C 5.5169271 42 5.0338542 42 4.5507812 42 C 4.6471354 42.14388 4.7434896 42.28776 4.8398438 42.431641 z M 9 44 C 9.6666667 44 10.333333 44 11 44 C 11 43.333333 11 42.666667 11 42 C 10.333333 42 9.6666667 42 9 42 C 9 42.666667 9 43.333333 9 44 z M 14 44 C 14.666667 44 15.333333 44 16 44 C 16 43.333333 16 42.666667 16 42 C 15.333333 42 14.666667 42 14 42 C 14 42.666667 14 43.333333 14 44 z M 18 44 C 18.666667 44 19.333333 44 20 44 C 20 43.333333 20 42.666667 20 42 C 19.333333 42 18.666667 42 18 42 C 18 42.666667 18 43.333333 18 44 z M 23 44 C 23.666667 44 24.333333 44 25 44 C 25 43.333984 25 42.667969 25 42.001953 C 24.333333 42.001302 23.666667 42.000651 23 42 C 23 42.666667 23 43.333333 23 44 z M 42 43.449219 C 42.57844 43.07364 43.073553 42.57833 43.449219 42 C 42.966146 42 42.483073 42 42 42 C 42 42.483073 42 42.966146 42 43.449219 z M 37.085938 42.195312 C 37.059245 42.801432 37.032552 43.407552 37.005859 44.013672 C 37.670573 44.009115 38.335286 44.004557 39 44 C 39.014323 43.35612 39.028646 42.71224 39.042969 42.068359 C 38.390625 42.110677 37.738281 42.152995 37.085938 42.195312 z M 28 44 C 28.664062 44.009115 29.328125 44.018229 29.992188 44.027344 C 29.965495 43.440755 29.938802 42.854167 29.912109 42.267578 C 29.251302 42.222005 28.590495 42.176432 27.929688 42.130859 C 27.953125 42.753906 27.976562 43.376953 28 44 z M 31.994141 44.054688 C 32.664714 44.054688 33.335286 44.054688 34.005859 44.054688 C 34.016927 43.490234 34.027995 42.925781 34.039062 42.361328 C 33.346354 42.361328 32.653646 42.361328 31.960938 42.361328 C 31.972005 42.925781 31.983073 43.490234 31.994141 44.054688 z "
       id="rect841" />
    <rect
       style="opacity:0.5;vector-effect:none;fill:#ffffff;fill-opacity:1;fill-rule:evenodd;stroke:none;stroke-width:2;stroke-linecap:round;stroke-linejoin:round;stroke-miterlimit:4;stroke-dasharray:none;stroke-opacity:1;paint-order:normal"
       id="rect982"
       width="26"
       height="26"
       x="20"
       y="20"
       ry="13" />
    <path
       style="opacity:0.25;vector-effect:none;fill:#000000;fill-opacity:1;fill-rule:evenodd;stroke:none;stroke-width:2;stroke-linecap:round;stroke-linejoin:round;stroke-miterlimit:4;stroke-dasharray:none;stroke-opacity:1;paint-order:normal"
       d="M 33 20 C 25.798 20 20 25.798 20 33 C 20 40.202 25.798 46 33 46 C 40.202 46 46 40.202 46 33 C 46 25.798 40.202 20 33 20 z M 33 21 C 39.648 21 45 26.352 45 33 C 45 39.648 39.648 45 33 45 C 26.352 45 21 39.648 21 33 C 21 26.352 26.352 21 33 21 z "
       id="rect986" />
    <rect
       style="opacity:1;vector-effect:none;fill:#ffffff;fill-opacity:1;fill-rule:evenodd;stroke:none;stroke-width:2;stroke-linecap:round;stroke-linejoin:round;stroke-miterlimit:4;stroke-dasharray:none;stroke-opacity:1;paint-order:normal"
       id="rect991"
       width="10"
       height="6"
       x="28"
       y="22"
       ry="3"
       rx="5" />
    <path
       inkscape:connector-curvature="0"
       style="opacity:0.25;vector-effect:none;fill:#000000;fill-opacity:1;fill-rule:evenodd;stroke:none;stroke-width:1.33333337;stroke-linecap:round;stroke-linejoin:round;stroke-miterlimit:4;stroke-dasharray:none;stroke-opacity:1;paint-order:normal"
       d="m -42,4 v 2 h 2 V 4 Z m 5,0 v 2 h 2 V 4 Z m 4,0 v 2 h 2 V 4 Z m 5,0 v 2 h 2 V 4 Z m 5,0 v 2 h 2 V 4 Z m 4,0 v 2 h 2 V 4 Z m 5,0 v 2 h 2 V 4 Z M -45,4.5507812 C -45.603156,4.9001401 -46.09986,5.3968442 -46.449219,6 H -45 Z m 36,0 V 6 h 1.449219 C -7.90014,5.3968442 -8.396844,4.9001401 -9,4.5507812 Z M -43,8 v 4 h 4 V 8 Z m 14,0 v 4 h 4 V 8 Z m 14,0 v 4 h 4 V 8 Z m -32,1 v 2 h 2 V 9 Z m 10,0 v 2 h 2 V 9 Z m 4,0 v 2 h 2 V 9 Z m 10,0 v 2 h 2 V 9 Z m 4,0 v 2 h 2 V 9 Z m 10,0 v 2 h 2 V 9 Z m -38,5 v 2 h 2 v -2 z m 5,0 v 2 h 2 v -2 z m 5,0 v 2 h 2 v -2 z m 4,0 v 2 h 2 v -2 z m 5,0 v 2 h 2 v -2 z m 5,0 v 2 h 2 v -2 z m 4,0 v 2 h 2 v -2 z m 5,0 v 2 h 2 v -2 z m 5,0 v 2 h 2 v -2 z m -38,4 v 2 h 2 v -2 z m 5,0 v 2 h 2 v -2 z m 5,0 v 2 h 2 v -2 z m 18,0 v 2 h 2 v -2 z m 5,0 v 2 h 2 v -2 z m 5,0 v 2 h 2 v -2 z m -34,4 v 4 h 4 v -4 z m 28,0 v 4 h 4 v -4 z m -32,1 v 2 h 2 v -2 z m 10,0 v 2 h 2 v -2 z m 18,0 v 2 h 2 v -2 z m 10,0 v 2 h 2 v -2 z m -38,5 v 2 h 2 v -2 z m 5,0 v 2 h 2 v -2 z m 5,0 v 2 h 2 v -2 z m 18,0 v 2 h 2 v -2 z m 5,0 v 2 h 2 v -2 z m 5,0 v 2 h 2 v -2 z m -38,4 v 2 h 2 v -2 z m 5,0 v 2 h 2 v -2 z m 5,0 v 2 h 2 v -2 z m 4,0 v 2 h 2 v -2 z m 5,0 v 2 h 2 v -2 z m 5,0 v 2 h 2 v -2 z m 4,0 v 2 h 2 v -2 z m 5,0 v 2 h 2 v -2 z m 5,0 v 2 h 2 v -2 z m -34,4 v 4 h 4 v -4 z m 14,0 v 4 h 4 v -4 z m 14,0 v 4 h 4 v -4 z m -32,1 v 2 h 2 v -2 z m 10,0 v 2 h 2 v -2 z m 4,0 v 2 h 2 v -2 z m 10,0 v 2 h 2 v -2 z m 4,0 v 2 h 2 v -2 z m 10,0 v 2 h 2 v -2 z m -37.449219,5 c 0.349359,0.603156 0.846063,1.09986 1.449219,1.449219 V 42 Z M -42,42 v 2 h 2 v -2 z m 5,0 v 2 h 2 v -2 z m 4,0 v 2 h 2 v -2 z m 5,0 v 2 h 2 v -2 z m 5,0 v 2 h 2 v -2 z m 4,0 v 2 h 2 v -2 z m 5,0 v 2 h 2 v -2 z m 5,0 v 1.449219 C -8.396844,43.09986 -7.90014,42.603156 -7.550781,42 Z"
       id="rect841-1" />
  </g>
</svg>
