<?xml version="1.0" encoding="UTF-8" standalone="no"?>
<!-- Created with Inkscape (http://www.inkscape.org/) -->

<svg
   xmlns:dc="http://purl.org/dc/elements/1.1/"
   xmlns:cc="http://creativecommons.org/ns#"
   xmlns:rdf="http://www.w3.org/1999/02/22-rdf-syntax-ns#"
   xmlns:svg="http://www.w3.org/2000/svg"
   xmlns="http://www.w3.org/2000/svg"
   xmlns:sodipodi="http://sodipodi.sourceforge.net/DTD/sodipodi-0.dtd"
   xmlns:inkscape="http://www.inkscape.org/namespaces/inkscape"
   width="48px"
   height="48px"
   viewBox="0 0 48 48"
   version="1.1"
   id="SVGRoot"
   inkscape:version="0.92.4 (5da689c313, 2019-01-14)"
   sodipodi:docname="openarena.svg">
  <defs
     id="defs815" />
  <sodipodi:namedview
     id="base"
     pagecolor="#ffffff"
     bordercolor="#666666"
     borderopacity="1.0"
     inkscape:pageopacity="0.0"
     inkscape:pageshadow="2"
     inkscape:zoom="19.279538"
     inkscape:cx="38.332441"
     inkscape:cy="23.459606"
     inkscape:document-units="px"
     inkscape:current-layer="layer1"
     showgrid="true"
     inkscape:window-width="1920"
     inkscape:window-height="1017"
     inkscape:window-x="-8"
     inkscape:window-y="-8"
     inkscape:window-maximized="1"
     inkscape:grid-bbox="true"
     inkscape:snap-global="true">
    <inkscape:grid
       type="xygrid"
       id="grid1371" />
  </sodipodi:namedview>
  <metadata
     id="metadata818">
    <rdf:RDF>
      <cc:Work
         rdf:about="">
        <dc:format>image/svg+xml</dc:format>
        <dc:type
           rdf:resource="http://purl.org/dc/dcmitype/StillImage" />
        <dc:title></dc:title>
      </cc:Work>
    </rdf:RDF>
  </metadata>
  <g
     inkscape:label="Layer 1"
     inkscape:groupmode="layer"
     id="layer1">
    <rect
       style="opacity:1;vector-effect:none;fill:#5a808c;fill-opacity:1;fill-rule:evenodd;stroke:none;stroke-width:4;stroke-linecap:round;stroke-linejoin:round;stroke-miterlimit:4;stroke-dasharray:none;stroke-dashoffset:0;stroke-opacity:1;paint-order:stroke fill markers"
       id="rect1373"
       width="40"
       height="40"
       x="4"
       y="4"
       ry="4" />
    <path
       style="fill:#274d72;stroke:none;stroke-width:1px;stroke-linecap:butt;stroke-linejoin:miter;stroke-opacity:1;fill-opacity:1"
       d="M 15 10 C 15 10 9.1938166 10.01234 4 12.716797 L 4 16.041016 C 7.1008877 14.22274 11.222245 13.470252 13.408203 13.183594 L 5.5546875 28.890625 C 5.1949638 28.796533 4.6303535 28.611377 4 28.310547 L 4 39.199219 L 6 40 L 15 23 L 24 40 L 29 38 L 29 36 L 26.863281 33.726562 C 28.893677 33.032629 34 30.820328 34 26 C 34 10 15 10 15 10 z M 16.591797 13.183594 C 20.379654 13.680319 30 15.557538 30 22 C 30 27.042867 25.797556 28.536924 24.445312 28.890625 L 16.591797 13.183594 z M 15 28 L 11 33 L 11 35 L 15 41 L 19 35 L 19 33 L 15 28 z "
       id="path852-5" />
    <path
       style="fill:#c1e6ee;stroke:none;stroke-width:1px;stroke-linecap:butt;stroke-linejoin:miter;stroke-opacity:1"
       d="M 15 8 C 15 8 9.1938166 8.01234 4 10.716797 L 4 14.041016 C 7.1008876 12.22274 11.222244 11.470252 13.408203 11.183594 L 5.5546875 26.890625 C 5.1949638 26.796533 4.6303535 26.611377 4 26.310547 L 4 37.199219 L 6 38 L 15 21 L 24 38 L 29 36 L 26.863281 31.726562 C 28.893677 31.032628 34 28.820328 34 24 C 34 8 15 8 15 8 z M 16.591797 11.183594 C 20.379654 11.680319 30 13.557538 30 20 C 30 25.042867 25.797556 26.536924 24.445312 26.890625 L 16.591797 11.183594 z M 15 26 L 11 33 L 15 39 L 19 33 L 15 26 z "
       id="path852" />
    <path
       style="opacity:0.25;vector-effect:none;fill:#000000;fill-opacity:1;fill-rule:evenodd;stroke:none;stroke-width:4;stroke-linecap:round;stroke-linejoin:round;stroke-miterlimit:4;stroke-dasharray:none;stroke-dashoffset:0;stroke-opacity:1;paint-order:stroke fill markers"
       d="M 8 4 C 5.784 4 4 5.784 4 8 L 4 40 C 4 42.216 5.784 44 8 44 L 40 44 C 42.216 44 44 42.216 44 40 L 44 8 C 44 5.784 42.216 4 40 4 L 8 4 z M 8 5 L 40 5 C 41.662 5 43 6.338 43 8 L 43 40 C 43 41.662 41.662 43 40 43 L 8 43 C 6.338 43 5 41.662 5 40 L 5 8 C 5 6.338 6.338 5 8 5 z "
       id="rect826" />
  </g>
</svg>
