<?xml version="1.0" encoding="UTF-8" standalone="no"?>
<!-- Created with Inkscape (http://www.inkscape.org/) -->

<svg
   xmlns:dc="http://purl.org/dc/elements/1.1/"
   xmlns:cc="http://creativecommons.org/ns#"
   xmlns:rdf="http://www.w3.org/1999/02/22-rdf-syntax-ns#"
   xmlns:svg="http://www.w3.org/2000/svg"
   xmlns="http://www.w3.org/2000/svg"
   xmlns:sodipodi="http://sodipodi.sourceforge.net/DTD/sodipodi-0.dtd"
   xmlns:inkscape="http://www.inkscape.org/namespaces/inkscape"
   width="48px"
   height="48px"
   viewBox="0 0 48 48"
   version="1.1"
   id="SVGRoot"
   inkscape:version="0.92.4 (5da689c313, 2019-01-14)"
   sodipodi:docname="osu.svg">
  <defs
     id="defs815" />
  <sodipodi:namedview
     id="base"
     pagecolor="#ffffff"
     bordercolor="#666666"
     borderopacity="1.0"
     inkscape:pageopacity="0.0"
     inkscape:pageshadow="2"
     inkscape:zoom="13.632692"
     inkscape:cx="25.048406"
     inkscape:cy="23.459606"
     inkscape:document-units="px"
     inkscape:current-layer="layer1"
     showgrid="true"
     inkscape:window-width="1920"
     inkscape:window-height="1017"
     inkscape:window-x="-8"
     inkscape:window-y="-8"
     inkscape:window-maximized="1"
     inkscape:grid-bbox="true"
     inkscape:snap-global="false">
    <inkscape:grid
       type="xygrid"
       id="grid1371" />
  </sodipodi:namedview>
  <metadata
     id="metadata818">
    <rdf:RDF>
      <cc:Work
         rdf:about="">
        <dc:format>image/svg+xml</dc:format>
        <dc:type
           rdf:resource="http://purl.org/dc/dcmitype/StillImage" />
        <dc:title></dc:title>
      </cc:Work>
    </rdf:RDF>
  </metadata>
  <g
     inkscape:label="Layer 1"
     inkscape:groupmode="layer"
     id="layer1">
    <rect
       style="opacity:1;vector-effect:none;fill:#d978a4;fill-opacity:1;fill-rule:evenodd;stroke:none;stroke-width:4;stroke-linecap:round;stroke-linejoin:round;stroke-miterlimit:4;stroke-dasharray:none;stroke-dashoffset:0;stroke-opacity:1;paint-order:stroke fill markers"
       id="rect1373"
       width="40"
       height="40"
       x="4"
       y="4"
       ry="4" />
    <path
       style="opacity:0.25;vector-effect:none;fill:#000000;fill-opacity:1;fill-rule:evenodd;stroke:none;stroke-width:4;stroke-linecap:round;stroke-linejoin:round;stroke-miterlimit:4;stroke-dasharray:none;stroke-dashoffset:0;stroke-opacity:1;paint-order:stroke fill markers"
       d="M 8 4 C 5.784 4 4 5.784 4 8 L 4 40 C 4 42.216 5.784 44 8 44 L 40 44 C 42.216 44 44 42.216 44 40 L 44 8 C 44 5.784 42.216 4 40 4 L 8 4 z M 8 5 L 40 5 C 41.662 5 43 6.338 43 8 L 43 40 C 43 41.662 41.662 43 40 43 L 8 43 C 6.338 43 5 41.662 5 40 L 5 8 C 5 6.338 6.338 5 8 5 z "
       id="rect826" />
    <path
       style="opacity:1;vector-effect:none;fill:#f4ecec;fill-opacity:1;fill-rule:evenodd;stroke:none;stroke-width:0.02043771;stroke-opacity:1;paint-order:stroke fill markers"
       d="m 36.884256,16.897635 c -0.299447,0.0015 -0.599949,0.01747 -0.865931,0.04804 -0.168609,0.01935 -0.310075,0.03826 -0.314348,0.042 -0.01517,0.01327 0.159761,7.638421 0.175597,7.654 0.01404,0.01383 0.325209,0.06161 0.567943,0.08723 0.185627,0.0196 0.973254,-0.0052 1.226263,-0.03846 0.14613,-0.01925 0.272567,-0.04135 0.280979,-0.049 0.01166,-0.01064 0.137753,-5.781005 0.160947,-7.369548 l 0.0044,-0.286138 -0.161744,-0.02366 c -0.305667,-0.04473 -0.688896,-0.0664 -1.073897,-0.06437 z m -23.040839,3.054718 c -0.979703,0 -1.662693,0.207863 -2.357123,0.717354 -1.018602,0.747339 -1.5587671,2.091512 -1.5090769,3.75531 0.024377,0.81669 0.1674559,1.425474 0.4850389,2.064208 0.188143,0.378406 0.36273,0.620127 0.672725,0.931273 0.478201,0.479978 1.022137,0.766017 1.726987,0.908239 0.385176,0.07773 0.537002,0.0893 1.083637,0.08268 0.411445,-0.0052 0.558704,-0.01468 0.756196,-0.04985 0.865977,-0.154243 1.591211,-0.55751 2.106199,-1.171135 0.369449,-0.440207 0.59604,-0.888314 0.753962,-1.490955 0.336444,-1.283878 0.216443,-2.75739 -0.310039,-3.807002 -0.346025,-0.689851 -0.869427,-1.205787 -1.579414,-1.556821 -0.541075,-0.267519 -1.0935,-0.383286 -1.829092,-0.383286 z m 8.532623,0.0073 c -0.520799,0.0011 -1.010309,0.07047 -1.43012,0.209247 -0.234758,0.07759 -0.595382,0.257151 -0.777032,0.386838 -0.272481,0.194534 -0.552874,0.514901 -0.694405,0.793397 -0.171253,0.336983 -0.245774,0.689922 -0.245651,1.163436 2.06e-4,0.768044 0.187031,1.242086 0.630016,1.598449 0.423475,0.340667 0.756399,0.484382 1.679367,0.724942 0.790692,0.206085 1.06847,0.317316 1.243864,0.49805 0.192299,0.198149 0.214819,0.620743 0.04614,0.865249 -0.366189,0.530811 -1.551462,0.651869 -2.753062,0.281178 -0.14516,-0.04478 -0.323024,-0.104745 -0.395221,-0.133245 -0.0722,-0.02853 -0.133117,-0.04967 -0.135362,-0.04691 -0.01914,0.02336 -0.08596,0.173516 -0.143462,0.322454 -0.155279,0.40207 -0.315428,1.055367 -0.315426,1.286697 v 0.07747 l 0.342331,0.113832 c 0.554634,0.184483 1.040367,0.286971 1.507278,0.318022 0.371447,0.0247 0.896345,0.02482 1.146069,2.77e-4 0.803105,-0.07896 1.513496,-0.340204 2.047245,-0.75292 0.706725,-0.546468 1.048608,-1.383264 0.946919,-2.317684 -0.07747,-0.712039 -0.365464,-1.217348 -0.886524,-1.55562 -0.335766,-0.21798 -0.52972,-0.294791 -1.415593,-0.56048 -0.337924,-0.10136 -0.68588,-0.212665 -0.773239,-0.247371 -0.166474,-0.06614 -0.345674,-0.171761 -0.404999,-0.238746 -0.127974,-0.144483 -0.165727,-0.472609 -0.07784,-0.676516 0.08073,-0.187252 0.25939,-0.310288 0.562478,-0.38736 0.226536,-0.05759 0.900702,-0.05106 1.219635,0.0118 0.189057,0.03729 0.855141,0.244219 1.020127,0.316905 0.02552,0.01116 0.04824,-0.02017 0.105858,-0.146218 0.166742,-0.364768 0.323566,-0.946618 0.354827,-1.316434 l 0.0127,-0.150928 -0.334748,-0.107051 C 23.766866,20.069339 23.045558,19.958115 22.37596,19.95958 Z m 10.186159,0.102026 c -0.316053,7.53e-4 -0.635963,0.02352 -0.950154,0.06821 l -0.171765,0.02444 v 3.165926 3.165932 l -0.06132,0.01704 c -0.280988,0.07799 -0.896223,0.117411 -1.242589,0.07962 -0.386419,-0.04213 -0.642034,-0.14566 -0.856467,-0.346884 -0.154787,-0.145256 -0.246385,-0.291695 -0.324803,-0.519206 -0.156942,-0.455314 -0.161504,-0.546676 -0.161504,-3.225925 0,-1.84397 -0.0053,-2.330381 -0.02553,-2.337962 -0.09324,-0.03494 -0.52517,-0.07437 -0.924803,-0.08446 -0.402197,-0.0101 -0.525901,-0.0056 -0.856549,0.0323 -0.212547,0.0243 -0.394186,0.04894 -0.403646,0.05481 -0.02476,0.01531 -0.02106,4.443159 0.0042,4.862176 0.05594,0.932482 0.247494,1.594327 0.626104,2.163043 0.395891,0.594676 1.062054,0.993978 1.897955,1.137606 0.201904,0.03469 0.663121,0.0888 0.939335,0.110204 0.23262,0.01804 1.24033,-0.0069 1.50217,-0.0374 0.564228,-0.06537 1.217797,-0.196592 1.803628,-0.362092 l 0.301454,-0.08519 V 24.046836 20.14986 l -0.168634,-0.02444 c -0.298703,-0.04327 -0.610909,-0.06454 -0.926964,-0.06378 z m -18.752075,1.637567 c 0.03914,-7e-6 0.08014,8e-4 0.123435,0.0024 0.415128,0.0151 0.673915,0.110294 0.925924,0.340615 0.445899,0.407526 0.670731,1.339499 0.607623,2.518549 -0.06388,1.193468 -0.408433,1.874442 -1.057732,2.090554 -0.255489,0.08504 -0.528662,0.10891 -0.817508,0.0714 -0.738665,-0.09592 -1.159056,-0.629173 -1.325777,-1.681681 -0.05207,-0.328768 -0.05248,-1.296013 -7.04e-4,-1.623041 0.07024,-0.443347 0.191148,-0.822457 0.346284,-1.085674 0.113679,-0.192892 0.331624,-0.394674 0.528669,-0.489465 0.214487,-0.103185 0.395842,-0.143606 0.669771,-0.143665 z m 23.197635,4.157212 c -0.446002,-0.0012 -0.931066,0.02823 -1.206621,0.08275 -0.05223,0.01038 -0.05474,0.01792 -0.09197,0.280341 -0.05356,0.377361 -0.05062,1.34775 0.0052,1.751453 l 0.03819,0.27591 0.122625,0.01594 c 0.584004,0.07587 1.180245,0.09225 1.645238,0.04522 0.54552,-0.05518 0.527142,-0.05174 0.539241,-0.09994 0.08499,-0.338636 0.109897,-1.349522 0.04609,-1.872124 -0.04415,-0.361646 -0.04937,-0.384191 -0.09177,-0.397257 -0.01857,-0.0059 -0.153289,-0.02604 -0.299419,-0.04519 -0.185743,-0.02435 -0.439296,-0.03628 -0.706897,-0.03705 z"
       id="rect836"
       inkscape:connector-curvature="0" />
  </g>
</svg>
