<?xml version="1.0" encoding="UTF-8" standalone="no"?>
<!-- Created with Inkscape (http://www.inkscape.org/) -->

<svg
   xmlns:dc="http://purl.org/dc/elements/1.1/"
   xmlns:cc="http://creativecommons.org/ns#"
   xmlns:rdf="http://www.w3.org/1999/02/22-rdf-syntax-ns#"
   xmlns:svg="http://www.w3.org/2000/svg"
   xmlns="http://www.w3.org/2000/svg"
   xmlns:sodipodi="http://sodipodi.sourceforge.net/DTD/sodipodi-0.dtd"
   xmlns:inkscape="http://www.inkscape.org/namespaces/inkscape"
   width="48px"
   height="48px"
   viewBox="0 0 48 48"
   version="1.1"
   id="SVGRoot"
   inkscape:version="0.92.4 (5da689c313, 2019-01-14)"
   sodipodi:docname="pc-building-simulator.svg">
  <defs
     id="defs815" />
  <sodipodi:namedview
     id="base"
     pagecolor="#ffffff"
     bordercolor="#666666"
     borderopacity="1.0"
     inkscape:pageopacity="0.0"
     inkscape:pageshadow="2"
     inkscape:zoom="3.943468"
     inkscape:cx="25.048406"
     inkscape:cy="23.459606"
     inkscape:document-units="px"
     inkscape:current-layer="layer1"
     showgrid="true"
     inkscape:window-width="725"
     inkscape:window-height="405"
     inkscape:window-x="892"
     inkscape:window-y="239"
     inkscape:window-maximized="0"
     inkscape:grid-bbox="true"
     inkscape:snap-global="true">
    <inkscape:grid
       type="xygrid"
       id="grid1371" />
  </sodipodi:namedview>
  <metadata
     id="metadata818">
    <rdf:RDF>
      <cc:Work
         rdf:about="">
        <dc:format>image/svg+xml</dc:format>
        <dc:type
           rdf:resource="http://purl.org/dc/dcmitype/StillImage" />
        <dc:title></dc:title>
      </cc:Work>
    </rdf:RDF>
  </metadata>
  <g
     inkscape:label="Layer 1"
     inkscape:groupmode="layer"
     id="layer1">
    <rect
       style="opacity:1;vector-effect:none;fill:#627ad4;fill-opacity:1;fill-rule:evenodd;stroke:none;stroke-width:4;stroke-linecap:round;stroke-linejoin:round;stroke-miterlimit:4;stroke-dasharray:none;stroke-dashoffset:0;stroke-opacity:1;paint-order:stroke fill markers"
       id="rect1373"
       width="40"
       height="40"
       x="4"
       y="4"
       ry="4" />
    <path
       style="opacity:0.25;vector-effect:none;fill:#000000;fill-opacity:1;fill-rule:evenodd;stroke:none;stroke-width:4;stroke-linecap:round;stroke-linejoin:round;stroke-miterlimit:4;stroke-dasharray:none;stroke-dashoffset:0;stroke-opacity:1;paint-order:stroke fill markers"
       d="M 8 4 C 5.784 4 4 5.784 4 8 L 4 40 C 4 42.216 5.784 44 8 44 L 40 44 C 42.216 44 44 42.216 44 40 L 44 8 C 44 5.784 42.216 4 40 4 L 8 4 z M 8 5 L 40 5 C 41.662 5 43 6.338 43 8 L 43 40 C 43 41.662 41.662 43 40 43 L 8 43 C 6.338 43 5 41.662 5 40 L 5 8 C 5 6.338 6.338 5 8 5 z "
       id="rect826" />
    <path
       style="fill:#ffffff;stroke-width:0.06124092"
       d="m 23.999509,9.999993 c -3.082268,0 -6.165138,1.025588 -8.749728,3.075728 -1.878098,1.489739 -3.501531,3.705568 -4.323232,5.90328 -1.5387143,4.115437 -1.1489908,8.520811 1.08011,12.227624 2.472389,4.111383 6.908529,6.656388 11.842137,6.792814 0.170177,0.0048 0.67991,-0.02136 1.133137,-0.05576 6.414131,-0.486905 11.67217,-5.202624 12.796654,-11.480303 0.450737,-2.51634 0.212726,-5.019365 -0.708909,-7.484366 C 36.247977,16.781298 34.627335,14.565469 32.749236,13.07573 30.164647,11.025588 27.081776,10 23.999509,10 Z M 20.39356,12.7411 c 0.320464,-10e-4 0.545396,0.11907 0.879159,0.423854 0.444665,0.406038 0.798101,0.90863 1.18896,1.689838 0.576968,1.153191 1.186179,3.263067 1.456891,5.047207 l 0.10885,0.719436 0.293054,0.0112 c 0.160628,0.006 0.349756,0.01428 0.421438,0.01673 0.149779,0.005 0.34858,-0.440639 0.82613,-1.85436 0.57855,-1.712718 0.874518,-3.138126 0.912651,-4.38633 0.02601,-0.851268 0.06369,-0.980581 0.357247,-1.238098 0.386109,-0.338712 0.693906,-0.333316 1.878331,0.0251 0.603748,0.182697 1.778016,0.696301 2.174173,0.950881 0.612918,0.393876 1.297458,1.050423 1.64668,1.578298 0.279381,0.422306 0.294698,0.745264 0.0614,1.335698 -0.534123,1.351809 -2.209277,3.013709 -4.808863,4.768355 l -0.837293,0.566068 0.100478,0.276061 c 0.06775,0.188249 0.135142,0.278852 0.209325,0.278852 0.172502,0 1.972839,-0.360403 2.64864,-0.529817 1.4481,-0.36302 3.02998,-0.987042 3.798526,-1.500219 0.259417,-0.173219 0.357693,-0.20536 0.655881,-0.203561 0.605281,0.0038 0.846596,0.276517 1.141513,1.29387 0.3164,1.091462 0.393988,1.694845 0.360036,2.774567 -0.03378,1.07434 -0.113652,1.451278 -0.45772,2.141577 -0.197715,0.396662 -0.26696,0.479797 -0.505169,0.596743 -1.235154,0.606388 -4.037524,0.01568 -7.337491,-1.544835 -0.413178,-0.195387 -0.758117,-0.34269 -0.76752,-0.329045 -0.0094,0.01372 -0.09047,0.124656 -0.181414,0.248178 l -0.16746,0.225869 0.499587,0.568856 c 1.561437,1.791147 3.093259,3.121511 4.46278,3.873243 0.571315,0.313597 0.703908,0.442741 0.798221,0.780782 0.10682,0.382888 -0.0031,0.667155 -0.468885,1.218581 -1.268278,1.501574 -3.049757,2.561483 -4.479525,2.665817 -0.455615,0.03325 -0.486626,0.02521 -0.750775,-0.153367 -0.670635,-0.45342 -1.289529,-1.591108 -1.744364,-3.212366 -0.330544,-1.178223 -0.585175,-2.640469 -0.745192,-4.280366 l -0.03907,-0.412701 -0.237234,-0.0084 c -0.13013,-0.005 -0.269431,-0.01344 -0.309799,-0.01673 -0.155043,-0.01302 -0.842713,2.404121 -1.130347,3.970841 -0.129318,0.70442 -0.161762,1.077728 -0.17304,2.055133 -0.01522,1.318637 -0.04885,1.461769 -0.404693,1.714934 -0.272745,0.19404 -0.609891,0.210712 -1.342462,0.06135 -2.046369,-0.417223 -3.738154,-1.370372 -4.485108,-2.529181 -0.17556,-0.272361 -0.186458,-0.32448 -0.156295,-0.699916 0.02617,-0.325665 0.09345,-0.523245 0.34329,-1.020596 0.401734,-0.799725 0.779541,-1.29785 1.722036,-2.26427 0.795638,-0.815835 1.776397,-1.672454 2.779819,-2.426007 l 0.583314,-0.435006 -0.114436,-0.256543 c -0.06287,-0.140303 -0.142771,-0.262265 -0.175833,-0.273275 -0.08967,-0.02986 -1.899388,0.432316 -2.704461,0.691551 -1.455226,0.468586 -2.576591,0.978015 -3.480355,1.581086 -0.281015,0.18752 -0.606483,0.360213 -0.722863,0.382026 -0.276849,0.05188 -0.709335,-0.111524 -0.90428,-0.342987 -0.340123,-0.403857 -0.847077,-2.111407 -0.946142,-3.18448 -0.1295,-1.402656 0.211658,-2.907139 0.731237,-3.226308 0.722349,-0.443726 2.361865,-0.437335 4.253457,0.01673 0.730224,0.175287 2.15696,0.633028 2.938905,0.945305 0.269578,0.10766 0.6215,0.248907 0.781473,0.312313 l 0.290263,0.114324 0.153503,-0.2426 0.156295,-0.24539 -0.125594,-0.167309 c -0.285226,-0.382988 -1.862157,-1.843562 -2.698881,-2.498506 -0.77733,-0.608454 -1.416731,-1.015668 -2.260694,-1.44445 -0.664396,-0.337551 -0.776582,-0.418338 -0.881951,-0.624626 -0.135618,-0.265485 -0.152294,-0.684164 -0.03629,-0.903478 0.141799,-0.268041 0.634551,-0.877229 1.127558,-1.391468 1.074926,-1.121226 2.251283,-1.809349 3.480354,-2.035612 0.13552,-0.02495 0.253216,-0.0387 0.360036,-0.03903 z"
       id="path832"
       inkscape:connector-curvature="0"
       sodipodi:nodetypes="ssssccssssscsccccssccccccccssccssccscccccccccsccccccccscccccccscccccsccccccssccccs" />
    <rect
       style="opacity:1;vector-effect:none;fill:#ffffff;fill-opacity:1;fill-rule:evenodd;stroke:none;stroke-width:4.00000429;stroke-linecap:round;stroke-linejoin:round;stroke-miterlimit:4;stroke-dasharray:none;stroke-opacity:1;paint-order:stroke fill markers"
       id="rect837"
       width="4.0000043"
       height="4.0000043"
       x="21.999998"
       y="22"
       ry="2.0000021" />
  </g>
</svg>
