<?xml version="1.0" encoding="UTF-8" standalone="no"?>
<!-- Created with Inkscape (http://www.inkscape.org/) -->

<svg
   xmlns:dc="http://purl.org/dc/elements/1.1/"
   xmlns:cc="http://creativecommons.org/ns#"
   xmlns:rdf="http://www.w3.org/1999/02/22-rdf-syntax-ns#"
   xmlns:svg="http://www.w3.org/2000/svg"
   xmlns="http://www.w3.org/2000/svg"
   xmlns:sodipodi="http://sodipodi.sourceforge.net/DTD/sodipodi-0.dtd"
   xmlns:inkscape="http://www.inkscape.org/namespaces/inkscape"
   width="48px"
   height="48px"
   viewBox="0 0 48 48"
   version="1.1"
   id="SVGRoot"
   inkscape:version="0.92.4 (5da689c313, 2019-01-14)"
   sodipodi:docname="penumbra-overture.svg">
  <defs
     id="defs815" />
  <sodipodi:namedview
     id="base"
     pagecolor="#ffffff"
     bordercolor="#666666"
     borderopacity="1.0"
     inkscape:pageopacity="0.0"
     inkscape:pageshadow="2"
     inkscape:zoom="19.279538"
     inkscape:cx="9.719099"
     inkscape:cy="22.748129"
     inkscape:document-units="px"
     inkscape:current-layer="layer1"
     showgrid="true"
     inkscape:window-width="1920"
     inkscape:window-height="1017"
     inkscape:window-x="-8"
     inkscape:window-y="-8"
     inkscape:window-maximized="1"
     inkscape:grid-bbox="true"
     inkscape:snap-global="true">
    <inkscape:grid
       type="xygrid"
       id="grid1371" />
  </sodipodi:namedview>
  <metadata
     id="metadata818">
    <rdf:RDF>
      <cc:Work
         rdf:about="">
        <dc:format>image/svg+xml</dc:format>
        <dc:type
           rdf:resource="http://purl.org/dc/dcmitype/StillImage" />
        <dc:title />
      </cc:Work>
    </rdf:RDF>
  </metadata>
  <g
     inkscape:label="Layer 1"
     inkscape:groupmode="layer"
     id="layer1">
    <rect
       style="opacity:1;vector-effect:none;fill:#4e4e4e;fill-opacity:1;fill-rule:evenodd;stroke:none;stroke-width:4;stroke-linecap:round;stroke-linejoin:round;stroke-miterlimit:4;stroke-dasharray:none;stroke-dashoffset:0;stroke-opacity:1;paint-order:stroke fill markers"
       id="rect1373"
       width="40"
       height="40"
       x="4"
       y="4"
       ry="4" />
    <path
       style="fill:#627ad4;stroke:none;stroke-width:1px;stroke-linecap:butt;stroke-linejoin:miter;stroke-opacity:1"
       d="M 8 4 C 5.784 4 4 5.784 4 8 L 4 17 C 4 17 8 17 8 12 L 8 10 C 8 10 8 8 10 8 L 16 8 C 20 8 20 4 20 4 L 8 4 z M 28 4 C 28 4 28 8 32 8 L 38 8 C 40 8 40 10 40 10 L 40 12 C 40 17 44 17 44 17 L 44 8 C 44 5.784 42.216 4 40 4 L 28 4 z "
       id="path870" />
    <path
       style="fill:#627ad4;stroke:none;stroke-width:1px;stroke-linecap:butt;stroke-linejoin:miter;stroke-opacity:1"
       d="M 4 20 L 4 40 C 4 42.216 5.784 44 8 44 L 15 44 L 19 38 L 16 35 L 4 20 z "
       id="path861" />
    <path
       style="fill:#627ad4;stroke:none;stroke-width:1px;stroke-linecap:butt;stroke-linejoin:miter;stroke-opacity:1"
       d="m 8,44 c 0,0 0,-12 2,-21 1.381484,-6.216676 5,-13 14,-13 9,0 12.618516,6.783324 14,13 2,9 2,21 2,21 z"
       id="path817"
       inkscape:connector-curvature="0"
       sodipodi:nodetypes="cszscc" />
    <path
       style="fill:#729dec;stroke:none;stroke-width:1px;stroke-linecap:butt;stroke-linejoin:miter;stroke-opacity:1"
       d="M 24 10 C 16.442202 10 12.687394 14.785501 10.857422 20 L 37.142578 20 C 35.312606 14.785501 31.557798 10 24 10 z "
       id="path817-6" />
    <path
       style="fill:#cfe0f6;stroke:none;stroke-width:1px;stroke-linecap:butt;stroke-linejoin:miter;stroke-opacity:1"
       d="M 9.3183594 26.646484 C 8.0039434 34.93014 8 44 8 44 L 15 44 L 19 38 L 16 35 L 9.3183594 26.646484 z "
       id="path817-3" />
    <path
       style="fill:#4e4e4e;stroke:none;stroke-width:1px;stroke-linecap:butt;stroke-linejoin:miter;stroke-opacity:1"
       d="m 24,15 c 0,0 -6,2 -6,8 0,1.414214 1,3 1,3 0,0 -3,2 -3,8 v 6 c 0,1 2,1 2,1 v 3 h 6 6 v -5 c 0,0 2,0 2,-1 v -4 c 0,-6 -3,-8 -3,-8 0,0 1,-1.585786 1,-3 0,-6 -6,-8 -6,-8 z"
       id="path819"
       inkscape:connector-curvature="0"
       sodipodi:nodetypes="cscsscccccsscsc" />
    <path
       style="fill:#729dec;stroke:none;stroke-width:1px;stroke-linecap:butt;stroke-linejoin:miter;stroke-opacity:1"
       d="M 24 16 C 24 16 19 18 19 23 C 19 24.054093 20 26 20 26 C 20 26 17 29 17 34 L 17 39 C 17 40.054093 19 40 19 40 L 19 44 L 20 44 L 20 43 C 20 43 20 42 21 41 C 22 40 24 40 24 40 L 20 40 L 20 38 C 20 35 18 34 18 34 C 18 30 19 30 20 29 C 20.745356 28.254644 23 29 23 30 C 23 31.374369 24 34 24 34 L 24 30 C 24 30 24 28 25 28 C 28 28 28 25 28 25 L 24 27 L 24 25 L 27 23 C 27 23 27 21 25 19 C 24.254644 18.254644 24 16 24 16 z M 24 40 L 23 44 L 24 44 L 24 40 z "
       id="path847" />
    <path
       style="fill:#4e4e4e;stroke:none;stroke-width:1.33333337px;stroke-linecap:butt;stroke-linejoin:miter;stroke-opacity:1"
       d="m 20,25 c 0,0 1.777777,-5.333333 4,-5.333333 2.222223,0 4,5.333333 4,5.333333 0,0 0,2.666667 -4,2.666667 C 20,27.666667 20,25 20,25 Z"
       id="path837"
       inkscape:connector-curvature="0"
       sodipodi:nodetypes="cscsc" />
    <rect
       style="opacity:1;vector-effect:none;fill:#627ad4;fill-opacity:1;fill-rule:evenodd;stroke:none;stroke-width:2;stroke-linecap:round;stroke-linejoin:round;stroke-miterlimit:4;stroke-dasharray:none;stroke-opacity:1;paint-order:stroke fill markers"
       id="rect839"
       width="5.999999"
       height="5.999999"
       x="13.000001"
       y="35"
       ry="2.9999995" />
    <rect
       style="opacity:1;vector-effect:none;fill:#ffffff;fill-opacity:1;fill-rule:evenodd;stroke:none;stroke-width:2;stroke-linecap:round;stroke-linejoin:round;stroke-miterlimit:4;stroke-dasharray:none;stroke-opacity:1;paint-order:stroke fill markers"
       id="rect841"
       width="4"
       height="4"
       x="14"
       y="36"
       ry="2" />
    <path
       style="opacity:0.4;vector-effect:none;fill:#000000;fill-opacity:1;fill-rule:evenodd;stroke:none;stroke-width:4;stroke-linecap:round;stroke-linejoin:round;stroke-miterlimit:4;stroke-dasharray:none;stroke-dashoffset:0;stroke-opacity:1;paint-order:stroke fill markers"
       d="M 8 4 C 5.784 4 4 5.784 4 8 L 4 40 C 4 42.216 5.784 44 8 44 L 40 44 C 42.216 44 44 42.216 44 40 L 44 8 C 44 5.784 42.216 4 40 4 L 8 4 z M 8 5 L 40 5 C 41.662 5 43 6.338 43 8 L 43 40 C 43 41.662 41.662 43 40 43 L 8 43 C 6.338 43 5 41.662 5 40 L 5 8 C 5 6.338 6.338 5 8 5 z "
       id="rect826" />
  </g>
</svg>
