<?xml version="1.0" encoding="UTF-8" standalone="no"?>
<!-- Created with Inkscape (http://www.inkscape.org/) -->

<svg
   xmlns:dc="http://purl.org/dc/elements/1.1/"
   xmlns:cc="http://creativecommons.org/ns#"
   xmlns:rdf="http://www.w3.org/1999/02/22-rdf-syntax-ns#"
   xmlns:svg="http://www.w3.org/2000/svg"
   xmlns="http://www.w3.org/2000/svg"
   xmlns:sodipodi="http://sodipodi.sourceforge.net/DTD/sodipodi-0.dtd"
   xmlns:inkscape="http://www.inkscape.org/namespaces/inkscape"
   width="48px"
   height="48px"
   viewBox="0 0 48 48"
   version="1.1"
   id="SVGRoot"
   inkscape:version="0.92.4 (5da689c313, 2019-01-14)"
   sodipodi:docname="picmi.svg">
  <defs
     id="defs815">
    <linearGradient
       gradientUnits="userSpaceOnUse"
       y2="39"
       y1="7"
       x2="24"
       x1="24"
       id="linearGradient1552">
      <stop
         id="stop823"
         offset="0"
         stop-color="#92b4da" />
      <stop
         id="stop825"
         offset="1"
         stop-color="#547cb1" />
    </linearGradient>
    <linearGradient
       gradientUnits="userSpaceOnUse"
       gradientTransform="translate(0,-1)"
       y2="37"
       y1="11"
       x2="24"
       x1="24"
       id="linearGradient857">
      <stop
         id="stop828"
         offset="0"
         stop-color="#dbe1e9" />
      <stop
         id="stop830"
         offset="1"
         stop-color="#b9c4d4" />
    </linearGradient>
  </defs>
  <sodipodi:namedview
     id="base"
     pagecolor="#ffffff"
     bordercolor="#666666"
     borderopacity="1.0"
     inkscape:pageopacity="0.0"
     inkscape:pageshadow="2"
     inkscape:zoom="22.744524"
     inkscape:cx="23.980243"
     inkscape:cy="28.544082"
     inkscape:document-units="px"
     inkscape:current-layer="layer1"
     showgrid="true"
     inkscape:window-width="1920"
     inkscape:window-height="1017"
     inkscape:window-x="-8"
     inkscape:window-y="-8"
     inkscape:window-maximized="1"
     inkscape:grid-bbox="true"
     inkscape:snap-global="true">
    <inkscape:grid
       type="xygrid"
       id="grid1371" />
  </sodipodi:namedview>
  <metadata
     id="metadata818">
    <rdf:RDF>
      <cc:Work
         rdf:about="">
        <dc:format>image/svg+xml</dc:format>
        <dc:type
           rdf:resource="http://purl.org/dc/dcmitype/StillImage" />
        <dc:title></dc:title>
      </cc:Work>
    </rdf:RDF>
  </metadata>
  <g
     inkscape:label="Layer 1"
     inkscape:groupmode="layer"
     id="layer1">
    <rect
       style="opacity:1;vector-effect:none;fill:#ffdd75;fill-opacity:1;fill-rule:evenodd;stroke:none;stroke-width:4;stroke-linecap:round;stroke-linejoin:round;stroke-miterlimit:4;stroke-dasharray:none;stroke-dashoffset:0;stroke-opacity:1;paint-order:stroke fill markers"
       id="rect1373"
       width="40"
       height="40"
       x="4"
       y="4"
       ry="4" />
    <path
       style="opacity:0.25;vector-effect:none;fill:#000000;fill-opacity:1;fill-rule:evenodd;stroke:none;stroke-width:4;stroke-linecap:round;stroke-linejoin:round;stroke-miterlimit:4;stroke-dasharray:none;stroke-dashoffset:0;stroke-opacity:1;paint-order:stroke fill markers"
       d="M 8 4 C 5.784 4 4 5.784 4 8 L 4 40 C 4 42.216 5.784 44 8 44 L 40 44 C 42.216 44 44 42.216 44 40 L 44 8 C 44 5.784 42.216 4 40 4 L 8 4 z M 8 5 L 40 5 C 41.662 5 43 6.338 43 8 L 43 40 C 43 41.662 41.662 43 40 43 L 8 43 C 6.338 43 5 41.662 5 40 L 5 8 C 5 6.338 6.338 5 8 5 z "
       id="rect826" />
    <rect
       style="opacity:1;vector-effect:none;fill:#4e4e4e;fill-opacity:1;fill-rule:evenodd;stroke:none;stroke-width:4;stroke-linecap:round;stroke-linejoin:round;stroke-miterlimit:4;stroke-dasharray:none;stroke-opacity:1;paint-order:normal"
       id="rect821"
       width="32"
       height="32"
       x="8"
       y="8"
       ry="2" />
    <rect
       style="opacity:1;vector-effect:none;fill:#689b65;fill-opacity:1;fill-rule:evenodd;stroke:none;stroke-width:4;stroke-linecap:round;stroke-linejoin:round;stroke-miterlimit:4;stroke-dasharray:none;stroke-opacity:1;paint-order:normal"
       id="rect823"
       width="28"
       height="28"
       x="10"
       y="10"
       ry="1" />
    <path
       style="opacity:0.15;vector-effect:none;fill:#000000;fill-opacity:1;fill-rule:evenodd;stroke:none;stroke-width:4;stroke-linecap:round;stroke-linejoin:round;stroke-miterlimit:4;stroke-dasharray:none;stroke-opacity:1;paint-order:normal"
       d="M 10 11 L 10 12 L 38 12 L 38 11 L 10 11 z M 10 13 L 10 14 L 38 14 L 38 13 L 10 13 z M 10 15 L 10 16 L 38 16 L 38 15 L 10 15 z M 10 17 L 10 18 L 38 18 L 38 17 L 10 17 z M 10 19 L 10 20 L 38 20 L 38 19 L 10 19 z M 10 21 L 10 22 L 38 22 L 38 21 L 10 21 z M 10 23 L 10 24 L 38 24 L 38 23 L 10 23 z M 10 25 L 10 26 L 38 26 L 38 25 L 10 25 z M 10 27 L 10 28 L 38 28 L 38 27 L 10 27 z M 10 29 L 10 30 L 38 30 L 38 29 L 10 29 z M 10 31 L 10 32 L 38 32 L 38 31 L 10 31 z M 10 33 L 10 34 L 38 34 L 38 33 L 10 33 z M 10 35 L 10 36 L 38 36 L 38 35 L 10 35 z M 10 37 C 10 37.554 10.446 38 11 38 L 37 38 C 37.554 38 38 37.554 38 37 L 10 37 z "
       id="rect881" />
    <path
       style="fill:#ffffff;stroke:none;stroke-width:1px;stroke-linecap:butt;stroke-linejoin:miter;stroke-opacity:1;opacity:0.25"
       d="M 11 10 C 10.446 10 10 10.446 10 11 L 10 21 C 10 21 12 24 24 24 C 36 24 38 21 38 21 L 38 11 C 38 10.446 37.554 10 37 10 L 11 10 z "
       id="path863" />
    <path
       style="opacity:1;vector-effect:none;fill:#4e4e4e;fill-opacity:1;fill-rule:evenodd;stroke:none;stroke-width:4;stroke-linecap:round;stroke-linejoin:round;stroke-miterlimit:4;stroke-dasharray:none;stroke-opacity:1;paint-order:normal"
       d="M 16 16 L 16 18 L 18 18 L 18 16 L 16 16 z M 18 18 L 18 22 L 16 22 L 16 18 L 14 18 L 14 22 L 14 24 L 20 24 L 20 22 L 20 18 L 18 18 z M 30 16 L 30 18 L 32 18 L 32 16 L 30 16 z M 32 18 L 32 22 L 30 22 L 30 18 L 28 18 L 28 22 L 28 24 L 34 24 L 34 22 L 34 18 L 32 18 z M 18 30 L 18 32 L 20 32 L 20 30 L 18 30 z M 20 32 L 20 34 L 28 34 L 28 32 L 20 32 z M 28 32 L 30 32 L 30 30 L 28 30 L 28 32 z "
       id="rect825" />
  </g>
</svg>
