<?xml version="1.0" encoding="UTF-8" standalone="no"?>
<!-- Created with Inkscape (http://www.inkscape.org/) -->

<svg
   xmlns:dc="http://purl.org/dc/elements/1.1/"
   xmlns:cc="http://creativecommons.org/ns#"
   xmlns:rdf="http://www.w3.org/1999/02/22-rdf-syntax-ns#"
   xmlns:svg="http://www.w3.org/2000/svg"
   xmlns="http://www.w3.org/2000/svg"
   xmlns:xlink="http://www.w3.org/1999/xlink"
   xmlns:sodipodi="http://sodipodi.sourceforge.net/DTD/sodipodi-0.dtd"
   xmlns:inkscape="http://www.inkscape.org/namespaces/inkscape"
   width="48px"
   height="48px"
   viewBox="0 0 48 48"
   version="1.1"
   id="SVGRoot"
   inkscape:version="0.92.4 (5da689c313, 2019-01-14)"
   sodipodi:docname="pingus.svg">
  <defs
     id="defs815">
    <linearGradient
       inkscape:collect="always"
       id="linearGradient918">
      <stop
         style="stop-color:#1c7360;stop-opacity:1"
         offset="0"
         id="stop914" />
      <stop
         style="stop-color:#4e4e4e;stop-opacity:1"
         offset="1"
         id="stop916" />
    </linearGradient>
    <linearGradient
       id="linearGradient3878">
      <stop
         id="stop3880"
         offset="0"
         style="stop-color:#666666;stop-opacity:1;" />
      <stop
         id="stop3882"
         offset="1"
         style="stop-color:#ffffff;stop-opacity:1" />
    </linearGradient>
    <style
       id="style2">.a{fill:none;stroke:#b1b5bd;stroke-linecap:round;stroke-linejoin:round;isolation:isolate;opacity:0.63;}</style>
    <linearGradient
       inkscape:collect="always"
       xlink:href="#linearGradient918"
       id="linearGradient920"
       x1="25"
       y1="40"
       x2="25"
       y2="8"
       gradientUnits="userSpaceOnUse" />
    <style
       id="style819">.cls-1{fill:none;stroke:#fff;stroke-linecap:round;stroke-linejoin:round;}</style>
  </defs>
  <sodipodi:namedview
     id="base"
     pagecolor="#ffffff"
     bordercolor="#666666"
     borderopacity="1.0"
     inkscape:pageopacity="0.0"
     inkscape:pageshadow="2"
     inkscape:zoom="16.342421"
     inkscape:cx="12.447065"
     inkscape:cy="29.143962"
     inkscape:document-units="px"
     inkscape:current-layer="layer1"
     showgrid="true"
     inkscape:window-width="1920"
     inkscape:window-height="1017"
     inkscape:window-x="-8"
     inkscape:window-y="-8"
     inkscape:window-maximized="1"
     inkscape:grid-bbox="true"
     inkscape:snap-global="true">
    <inkscape:grid
       type="xygrid"
       id="grid1371" />
  </sodipodi:namedview>
  <metadata
     id="metadata818">
    <rdf:RDF>
      <cc:Work
         rdf:about="">
        <dc:format>image/svg+xml</dc:format>
        <dc:type
           rdf:resource="http://purl.org/dc/dcmitype/StillImage" />
        <dc:title />
      </cc:Work>
    </rdf:RDF>
  </metadata>
  <g
     inkscape:label="Layer 1"
     inkscape:groupmode="layer"
     id="layer1">
    <rect
       style="opacity:1;vector-effect:none;fill:url(#linearGradient920);fill-opacity:1;fill-rule:evenodd;stroke:none;stroke-width:4;stroke-linecap:round;stroke-linejoin:round;stroke-miterlimit:4;stroke-dasharray:none;stroke-dashoffset:0;stroke-opacity:1;paint-order:stroke fill markers"
       id="rect1373"
       width="40"
       height="40"
       x="4"
       y="4"
       ry="4" />
    <path
       style="color:#000000;font-style:normal;font-variant:normal;font-weight:normal;font-stretch:normal;font-size:medium;line-height:normal;font-family:sans-serif;font-variant-ligatures:normal;font-variant-position:normal;font-variant-caps:normal;font-variant-numeric:normal;font-variant-alternates:normal;font-feature-settings:normal;text-indent:0;text-align:start;text-decoration:none;text-decoration-line:none;text-decoration-style:solid;text-decoration-color:#000000;letter-spacing:normal;word-spacing:normal;text-transform:none;writing-mode:lr-tb;direction:ltr;text-orientation:mixed;dominant-baseline:auto;baseline-shift:baseline;text-anchor:start;white-space:normal;shape-padding:0;clip-rule:nonzero;display:inline;overflow:visible;visibility:visible;opacity:1;isolation:auto;mix-blend-mode:normal;color-interpolation:sRGB;color-interpolation-filters:linearRGB;solid-color:#000000;solid-opacity:1;vector-effect:none;fill:#27a086;fill-opacity:1;fill-rule:nonzero;stroke:none;stroke-width:2;stroke-linecap:round;stroke-linejoin:round;stroke-miterlimit:4;stroke-dasharray:none;stroke-dashoffset:0;stroke-opacity:1;color-rendering:auto;image-rendering:auto;shape-rendering:auto;text-rendering:auto;enable-background:accumulate"
       d="m 24.25,8.0195312 c -0.415891,-0.019648 -0.832258,-0.010167 -1.244141,0.023438 -1.787867,0.1454159 -3.225886,0.9713846 -4.125,2.1171868 -0.884798,1.127563 -1.250593,2.456879 -1.349609,3.671875 -0.111212,1.364584 0.282423,2.44698 0.449219,3.046875 0.08985,0.323148 0.125553,0.510308 0.126953,0.564453 0.0014,0.05415 0.02325,0.0046 -0.04297,0.115235 -1.538389,2.569003 -4.231205,3.891566 -6.173828,5.71875 -0.461321,0.433911 -0.903657,1.047676 -0.966797,1.835937 -0.07042,0.879119 0.348299,1.579418 0.91211,2.023438 0.924768,0.728282 2.071721,0.811784 3.126953,0.697265 0.267982,-0.02909 0.531838,-0.111191 0.800781,-0.162109 -0.03098,0.407779 -0.06566,0.803791 -0.09766,1.166016 -0.300615,-0.05245 -0.576362,-0.228566 -0.888672,-0.197266 -0.864384,0.08664 -1.654651,0.556948 -2.09961,1.345703 -0.629052,1.115085 -0.344738,2.373067 0.212891,3.595703 -0.625659,0.657229 -0.697542,1.794945 0.03516,2.457031 a 1.0001,1.0001 0 0 0 0,0.002 c 1.655256,1.492412 3.653762,2.895023 6.142578,3.541015 2.469687,0.641025 5.360747,0.46183 8.574219,-0.898437 1.026938,0.551263 2.183425,0.593164 3.125,0.253906 1.052221,-0.379125 1.961192,-1.034467 2.765625,-1.726562 0.809,-0.696028 1.518873,-1.454482 2.068359,-2.121094 0.274262,-0.332721 0.510006,-0.643874 0.703126,-0.927735 0.169841,-0.249649 0.363489,-0.533313 0.496093,-0.921875 0.331663,-0.971852 -0.117929,-1.858339 -0.445312,-2.328125 -0.354032,-0.507996 -0.807619,-0.931746 -1.306641,-1.294921 -0.427995,-0.311488 -1.027425,-0.484593 -1.583984,-0.697266 -0.06941,-0.756859 -0.32471,-1.414203 -0.533203,-2.09961 0.07249,-0.0076 0.09224,0.0046 0.167968,-0.0059 0.371298,-0.05122 1.058867,-0.150937 1.650391,-0.660156 0.394617,-0.339707 0.692931,-0.805552 0.728516,-1.460938 0.03174,-0.585216 -0.192514,-1.075265 -0.414063,-1.408203 -0.535902,-0.805282 -1.266689,-1.16963 -1.941406,-1.574218 -0.723726,-0.433978 -1.548668,-0.884993 -2.3125,-1.345704 -0.660811,-0.398572 -1.210385,-0.796117 -1.626953,-1.142578 0.477845,-0.09631 0.948912,-0.181021 1.451172,-0.324218 0.749167,-0.213591 1.491696,-0.468859 2.144531,-0.78711 0.32216,-0.157047 0.644754,-0.337004 0.951172,-0.585937 0.267412,-0.217245 0.753435,-0.691221 0.880859,-1.396485 C 34.7444,15.392729 34.467576,14.799139 34.152344,14.402344 33.881574,14.061451 33.565593,13.834011 33.300781,13.667969 32.751528,13.323583 32.160019,13.089911 31.599609,12.892578 31.114045,12.721598 30.672378,12.596592 30.28125,12.490234 29.874234,11.007995 29.036116,9.7667462 27.847656,9.0507812 26.750423,8.3897755 25.499906,8.0808811 24.253906,8.0214844 A 1.0001,1.0001 0 0 0 24.25,8.0195312 Z"
       id="path945" />
    <path
       style="opacity:0.4;vector-effect:none;fill:#000000;fill-opacity:1;fill-rule:evenodd;stroke:none;stroke-width:4;stroke-linecap:round;stroke-linejoin:round;stroke-miterlimit:4;stroke-dasharray:none;stroke-dashoffset:0;stroke-opacity:1;paint-order:stroke fill markers"
       d="M 8 4 C 5.784 4 4 5.784 4 8 L 4 40 C 4 42.216 5.784 44 8 44 L 40 44 C 42.216 44 44 42.216 44 40 L 44 8 C 44 5.784 42.216 4 40 4 L 8 4 z M 8 5 L 40 5 C 41.662 5 43 6.338 43 8 L 43 40 C 43 41.662 41.662 43 40 43 L 8 43 C 6.338 43 5 41.662 5 40 L 5 8 C 5 6.338 6.338 5 8 5 z "
       id="rect826" />
    <path
       style="color:#000000;font-style:normal;font-variant:normal;font-weight:normal;font-stretch:normal;font-size:medium;line-height:normal;font-family:sans-serif;font-variant-ligatures:normal;font-variant-position:normal;font-variant-caps:normal;font-variant-numeric:normal;font-variant-alternates:normal;font-feature-settings:normal;text-indent:0;text-align:start;text-decoration:none;text-decoration-line:none;text-decoration-style:solid;text-decoration-color:#000000;letter-spacing:normal;word-spacing:normal;text-transform:none;writing-mode:lr-tb;direction:ltr;text-orientation:mixed;dominant-baseline:auto;baseline-shift:baseline;text-anchor:start;white-space:normal;shape-padding:0;clip-rule:nonzero;display:inline;overflow:visible;visibility:visible;opacity:1;isolation:auto;mix-blend-mode:normal;color-interpolation:sRGB;color-interpolation-filters:linearRGB;solid-color:#000000;solid-opacity:1;vector-effect:none;fill:#4a4a4a;fill-opacity:1;fill-rule:nonzero;stroke:none;stroke-width:1.40706193;stroke-linecap:round;stroke-linejoin:round;stroke-miterlimit:4;stroke-dasharray:none;stroke-dashoffset:0;stroke-opacity:1;color-rendering:auto;image-rendering:auto;shape-rendering:auto;text-rendering:auto;enable-background:accumulate"
       d="m 24.202547,9.0193834 c -0.370852,-0.01752 -0.74412,-0.010016 -1.115176,0.020258 -1.534531,0.1248109 -2.689987,0.8077149 -3.419301,1.7371306 -0.729313,0.929417 -1.052304,2.064041 -1.139765,3.137252 -0.09239,1.133633 0.231234,2.029544 0.416564,2.696097 0.185331,0.666555 0.254857,0.998068 -0.02315,1.462314 -1.716615,2.866629 -4.591893,4.283867 -6.345374,5.933148 -0.360918,0.339474 -0.619487,0.72332 -0.656668,1.187501 -0.03718,0.464179 0.218957,0.908095 0.53517,1.157123 0.632427,0.498055 1.47629,0.590688 2.401031,0.490331 0.636275,-0.06906 1.334306,-0.230806 2.017734,-0.410779 a 0.70360129,0.70360129 0 0 0 -0.0072,0.06218 c -0.106063,1.363981 -0.180967,2.534584 -0.297961,3.536457 -0.588804,-0.299461 -1.150997,-0.447523 -1.690847,-0.393419 -0.544762,0.0546 -1.063221,0.371686 -1.329244,0.843251 -0.532049,0.943133 -0.249533,2.160473 0.571329,3.504637 a 0.70360129,0.70360129 0 0 0 0.02171,0.03328 c -0.0846,0.02657 -0.162731,0.0551 -0.254567,0.07955 a 0.70360129,0.70360129 0 0 0 -0.290727,1.201961 c 1.589231,1.432883 3.450197,2.726574 5.723421,3.316607 2.273223,0.590031 4.936035,0.451283 8.018864,-0.873629 a 0.70366191,0.70366191 0 0 0 0.264692,-0.199604 c 0.03566,0.04377 0.06545,0.08945 0.109923,0.130181 a 0.70360129,0.70360129 0 0 0 0.03616,0.03039 c 0.785928,0.62625 1.80786,0.609372 2.680187,0.295065 0.872326,-0.314307 1.697173,-0.894193 2.451655,-1.543313 0.754482,-0.649122 1.430999,-1.372806 1.948306,-2.000379 0.258653,-0.313786 0.477634,-0.602976 0.64799,-0.853377 0.170352,-0.2504 0.289495,-0.424795 0.377511,-0.682703 0.195325,-0.57235 -0.04832,-1.044025 -0.319658,-1.433387 -0.271353,-0.389361 -0.643799,-0.743739 -1.074678,-1.057322 -0.584983,-0.425741 -1.280184,-0.798099 -2.014839,-0.902558 a 0.70360129,0.70360129 0 0 0 0.06365,-0.364493 c -0.08999,-1.195435 -0.391101,-2.306856 -0.834574,-3.292015 0.239658,0.01482 0.716534,0.0355 1.288746,-0.04338 0.372395,-0.05137 0.757256,-0.103829 1.133983,-0.428138 0.188363,-0.162153 0.365112,-0.448187 0.38185,-0.756466 0.01672,-0.308279 -0.09746,-0.574635 -0.247336,-0.799864 C 33.860172,23.280601 33.307257,22.987979 32.609091,22.56933 31.910929,22.150682 31.08277,21.696523 30.294845,21.221281 29.506922,20.74604 28.760506,20.246074 28.258311,19.783555 27.756114,19.321039 27.575916,18.93641 27.585731,18.76384 a 0.70360129,0.70360129 0 0 0 -0.0405,-0.287833 c 0.232673,-0.01167 0.48458,-0.03752 0.766594,-0.081 0.612995,-0.09448 1.336428,-0.255194 2.049555,-0.458511 0.713125,-0.203315 1.410372,-0.445452 1.980124,-0.723201 0.284881,-0.138874 0.537195,-0.283806 0.759364,-0.464296 0.222169,-0.180489 0.454822,-0.401742 0.526491,-0.798415 0.06598,-0.365014 -0.08519,-0.708511 -0.258885,-0.927148 -0.173657,-0.21863 -0.377911,-0.370644 -0.598773,-0.509129 C 32.327972,14.23734 31.798933,14.02278 31.268334,13.835944 30.737738,13.649107 30.210189,13.497636 29.807468,13.391898 29.70505,13.365018 29.639817,13.350488 29.555794,13.329708 29.341299,11.775614 28.478777,10.598809 27.331275,9.9075177 26.404193,9.349016 25.315257,9.0719962 24.202691,9.0194203 Z"
       id="path882" />
    <path
       style="color:#000000;font-style:normal;font-variant:normal;font-weight:normal;font-stretch:normal;font-size:medium;line-height:normal;font-family:sans-serif;font-variant-ligatures:normal;font-variant-position:normal;font-variant-caps:normal;font-variant-numeric:normal;font-variant-alternates:normal;font-feature-settings:normal;text-indent:0;text-align:start;text-decoration:none;text-decoration-line:none;text-decoration-style:solid;text-decoration-color:#000000;letter-spacing:normal;word-spacing:normal;text-transform:none;writing-mode:lr-tb;direction:ltr;text-orientation:mixed;dominant-baseline:auto;baseline-shift:baseline;text-anchor:start;white-space:normal;shape-padding:0;clip-rule:nonzero;display:inline;overflow:visible;visibility:visible;opacity:1;isolation:auto;mix-blend-mode:normal;color-interpolation:sRGB;color-interpolation-filters:linearRGB;solid-color:#000000;solid-opacity:1;vector-effect:none;fill:#ffffff;fill-opacity:1;fill-rule:nonzero;stroke:none;stroke-width:1.40706193;stroke-linecap:round;stroke-linejoin:round;stroke-miterlimit:4;stroke-dasharray:none;stroke-dashoffset:0;stroke-opacity:1;color-rendering:auto;image-rendering:auto;shape-rendering:auto;text-rendering:auto;enable-background:accumulate"
       d="m 24.131697,10.428182 c 0.92034,0.04617 1.793946,0.274855 2.473352,0.684149 0.803069,0.483794 1.360509,1.176856 1.540419,2.247712 -0.227565,0.07141 -0.442276,0.171761 -0.64799,0.287833 10e-4,-0.02541 0.0072,-0.04948 0.0072,-0.07522 2.72e-4,-0.818753 -0.572288,-1.482564 -1.277175,-1.482564 -0.704887,0 -1.276007,0.663811 -1.275729,1.482564 -2.43e-4,0.741852 0.470907,1.35194 1.083359,1.460868 -0.129883,0.186634 -0.257447,0.375557 -0.364496,0.574224 -0.402053,0.74613 -0.256106,1.556917 0.08245,2.01918 0.212403,0.290058 0.435001,0.454992 0.642178,0.578561 a 0.70360129,0.70360129 0 0 0 -0.215464,0.477307 c -0.04952,0.870553 0.490956,1.550665 1.125302,2.134892 0.634349,0.584226 1.440767,1.11296 2.262179,1.608401 0.821407,0.495441 1.657711,0.953207 2.318583,1.349494 0.508778,0.305087 0.734254,0.507813 0.904004,0.649437 -0.01167,0.0019 -0.007,0.0027 -0.01881,0.0043 -0.515979,0.07115 -1.204856,0.0246 -1.204854,0.0246 a 0.70371267,0.70371267 0 0 0 -0.551086,0.202458 c -0.187889,-0.288168 -0.385751,-0.565376 -0.59881,-0.817218 -1.127707,-1.332965 -2.619785,-2.172663 -4.151182,-1.990249 -1.554537,0.185172 -2.692129,1.434691 -3.352761,2.950661 -0.660635,1.515974 -0.897293,3.37053 -0.578565,5.118825 0.288368,1.581742 0.659023,3.101745 1.282964,4.363802 0.536922,1.086052 1.3023,2.005394 2.361977,2.480582 -2.479985,0.913813 -4.527282,0.952094 -6.306324,0.490332 -1.64299,-0.42645 -3.042946,-1.341336 -4.342103,-2.399585 1.08423,-0.609147 1.898511,-1.448484 2.250605,-2.594848 0.468971,-1.526902 0.51182,-3.386265 0.688486,-5.658334 A 0.70360129,0.70360129 0 0 0 18.104477,26.07965 c 0.696572,-0.218713 1.314022,-0.431299 1.65324,-0.549632 a 0.70360129,0.70360129 0 1 0 -0.462851,-1.3278 c -0.83259,0.290443 -3.150135,1.083204 -4.590885,1.239567 -0.657286,0.07134 -1.201967,-0.10136 -1.337922,-0.192369 0.0084,-0.01788 0.0077,-0.061 0.175014,-0.218408 1.450367,-1.364183 4.626498,-2.960707 6.58837,-6.236896 0.534711,-0.892945 0.376407,-1.821653 0.170677,-2.561579 -0.205731,-0.73993 -0.436106,-1.396586 -0.370281,-2.204321 0.07076,-0.868151 0.340085,-1.737316 0.846146,-2.382226 0.506063,-0.644912 1.228268,-1.106027 2.425621,-1.20341 0.311913,-0.02537 0.623258,-0.02985 0.930037,-0.01452 z"
       id="path880" />
    <path
       style="color:#000000;font-style:normal;font-variant:normal;font-weight:normal;font-stretch:normal;font-size:medium;line-height:normal;font-family:sans-serif;font-variant-ligatures:normal;font-variant-position:normal;font-variant-caps:normal;font-variant-numeric:normal;font-variant-alternates:normal;font-feature-settings:normal;text-indent:0;text-align:start;text-decoration:none;text-decoration-line:none;text-decoration-style:solid;text-decoration-color:#000000;letter-spacing:normal;word-spacing:normal;text-transform:none;writing-mode:lr-tb;direction:ltr;text-orientation:mixed;dominant-baseline:auto;baseline-shift:baseline;text-anchor:start;white-space:normal;shape-padding:0;clip-rule:nonzero;display:inline;overflow:visible;visibility:visible;opacity:1;isolation:auto;mix-blend-mode:normal;color-interpolation:sRGB;color-interpolation-filters:linearRGB;solid-color:#000000;solid-opacity:1;vector-effect:none;fill:#ffffff;fill-opacity:1;fill-rule:nonzero;stroke:none;stroke-width:1.40706193;stroke-linecap:round;stroke-linejoin:round;stroke-miterlimit:4;stroke-dasharray:none;stroke-dashoffset:0;stroke-opacity:1;color-rendering:auto;image-rendering:auto;shape-rendering:auto;text-rendering:auto;enable-background:accumulate"
       d="m 28.955454,14.63143 c 0.01482,0.0033 0.02165,0.0045 0.03905,0.0087 0.109626,0.02538 0.267765,0.06348 0.455616,0.112827 0.375698,0.09864 0.872538,0.240872 1.350943,0.409332 0.478403,0.168458 0.944074,0.370899 1.222208,0.545293 0.02643,0.01657 0.02368,0.0203 0.04628,0.03616 -0.09684,0.06445 -0.187842,0.128432 -0.34569,0.205388 -0.448131,0.218458 -1.089818,0.445673 -1.748701,0.633526 -0.658889,0.187852 -1.340499,0.339365 -1.878882,0.42235 -0.26919,0.0415 -0.503472,0.06492 -0.668238,0.07086 -0.164765,0.006 -0.286932,-0.04073 -0.161996,0.01012 -0.02514,-0.01012 -0.280219,-0.157881 -0.377512,-0.29073 -0.09728,-0.132845 -0.171007,-0.165766 0.02024,-0.520706 0.510173,-0.946804 1.271148,-1.58524 2.046665,-1.643116 z"
       id="path878" />
    <path
       style="color:#000000;font-style:normal;font-variant:normal;font-weight:normal;font-stretch:normal;font-size:medium;line-height:normal;font-family:sans-serif;font-variant-ligatures:normal;font-variant-position:normal;font-variant-caps:normal;font-variant-numeric:normal;font-variant-alternates:normal;font-feature-settings:normal;text-indent:0;text-align:start;text-decoration:none;text-decoration-line:none;text-decoration-style:solid;text-decoration-color:#000000;letter-spacing:normal;word-spacing:normal;text-transform:none;writing-mode:lr-tb;direction:ltr;text-orientation:mixed;dominant-baseline:auto;baseline-shift:baseline;text-anchor:start;white-space:normal;shape-padding:0;clip-rule:nonzero;display:inline;overflow:visible;visibility:visible;opacity:1;isolation:auto;mix-blend-mode:normal;color-interpolation:sRGB;color-interpolation-filters:linearRGB;solid-color:#000000;solid-opacity:1;vector-effect:none;fill:#ffffff;fill-opacity:1;fill-rule:nonzero;stroke:none;stroke-width:1.40706193;stroke-linecap:round;stroke-linejoin:round;stroke-miterlimit:4;stroke-dasharray:none;stroke-dashoffset:0;stroke-opacity:1;color-rendering:auto;image-rendering:auto;shape-rendering:auto;text-rendering:auto;enable-background:accumulate"
       d="m 26.77717,23.234643 c 0.824863,0.04289 1.760186,0.562259 2.564473,1.512939 0.919187,1.086493 1.6274,2.69444 1.764616,4.517119 a 0.70360129,0.70360129 0 0 0 0.134507,0.373172 c -0.62738,0.225748 -1.053489,0.71508 -1.515831,1.314781 -0.498789,0.646978 -0.981373,1.445483 -1.388549,2.263622 -0.407173,0.818144 -0.736676,1.648642 -0.912679,2.385121 -0.0326,0.136496 -0.054,0.267179 -0.07521,0.397763 a 0.70363244,0.70363244 0 0 0 -0.454175,-0.39487 c -0.869355,-0.242695 -1.496248,-0.893505 -2.016289,-1.945413 -0.520044,-1.051906 -0.881956,-2.468311 -1.160015,-3.99352 -0.263748,-1.446704 -0.05354,-3.069715 0.484542,-4.3045 0.5381,-1.234785 1.350904,-2.010057 2.228912,-2.114643 0.112648,-0.01346 0.227851,-0.0177 0.34569,-0.01167 z"
       id="path876" />
    <path
       style="color:#000000;font-style:normal;font-variant:normal;font-weight:normal;font-stretch:normal;font-size:medium;line-height:normal;font-family:sans-serif;font-variant-ligatures:normal;font-variant-position:normal;font-variant-caps:normal;font-variant-numeric:normal;font-variant-alternates:normal;font-feature-settings:normal;text-indent:0;text-align:start;text-decoration:none;text-decoration-line:none;text-decoration-style:solid;text-decoration-color:#000000;letter-spacing:normal;word-spacing:normal;text-transform:none;writing-mode:lr-tb;direction:ltr;text-orientation:mixed;dominant-baseline:auto;baseline-shift:baseline;text-anchor:start;white-space:normal;shape-padding:0;clip-rule:nonzero;display:inline;overflow:visible;visibility:visible;opacity:1;isolation:auto;mix-blend-mode:normal;color-interpolation:sRGB;color-interpolation-filters:linearRGB;solid-color:#000000;solid-opacity:1;vector-effect:none;fill:#ffffff;fill-opacity:1;fill-rule:nonzero;stroke:none;stroke-width:1.40706193;stroke-linecap:round;stroke-linejoin:round;stroke-miterlimit:4;stroke-dasharray:none;stroke-dashoffset:0;stroke-opacity:1;color-rendering:auto;image-rendering:auto;shape-rendering:auto;text-rendering:auto;enable-background:accumulate"
       d="m 32.112955,30.923727 c 0.42711,0.05176 1.031795,0.283883 1.520171,0.639311 0.325583,0.236951 0.598678,0.512768 0.746344,0.724647 0.08661,0.124274 0.10461,0.202047 0.114264,0.224195 -0.01108,0.01586 -0.06036,0.121609 -0.179353,0.29651 -0.138575,0.203705 -0.334424,0.465039 -0.569885,0.750685 -0.470913,0.571294 -1.10366,1.245913 -1.780522,1.828253 -0.676861,0.582345 -1.405131,1.067738 -2.010501,1.285855 -0.566877,0.204252 -0.930742,0.183167 -1.255478,-0.04196 0.0027,-0.0052 0.0056,-0.0063 0.0043,-0.03907 -0.0056,-0.136198 0.021,-0.376566 0.08969,-0.663899 0.137334,-0.574668 0.432664,-1.339177 0.804198,-2.085714 0.371542,-0.74654 0.821222,-1.482486 1.243911,-2.030753 0.422685,-0.548267 0.888302,-0.87051 0.915573,-0.877966 0.09192,-0.02514 0.214891,-0.02737 0.357261,-0.01012 z"
       id="path874" />
    <path
       style="color:#000000;font-style:normal;font-variant:normal;font-weight:normal;font-stretch:normal;font-size:medium;line-height:normal;font-family:sans-serif;font-variant-ligatures:normal;font-variant-position:normal;font-variant-caps:normal;font-variant-numeric:normal;font-variant-alternates:normal;font-feature-settings:normal;text-indent:0;text-align:start;text-decoration:none;text-decoration-line:none;text-decoration-style:solid;text-decoration-color:#000000;letter-spacing:normal;word-spacing:normal;text-transform:none;writing-mode:lr-tb;direction:ltr;text-orientation:mixed;dominant-baseline:auto;baseline-shift:baseline;text-anchor:start;white-space:normal;shape-padding:0;clip-rule:nonzero;display:inline;overflow:visible;visibility:visible;opacity:1;isolation:auto;mix-blend-mode:normal;color-interpolation:sRGB;color-interpolation-filters:linearRGB;solid-color:#000000;solid-opacity:1;vector-effect:none;fill:#ffffff;fill-opacity:1;fill-rule:nonzero;stroke:none;stroke-width:1.40706193;stroke-linecap:round;stroke-linejoin:round;stroke-miterlimit:4;stroke-dasharray:none;stroke-dashoffset:0;stroke-opacity:1;color-rendering:auto;image-rendering:auto;shape-rendering:auto;text-rendering:auto;enable-background:accumulate"
       d="m 15.017899,31.035102 c 0.170842,-0.01714 0.4958,0.03192 0.924253,0.251674 a 0.70360129,0.70360129 0 0 0 0.400653,0.08678 c -0.0358,0.155784 -0.06394,0.331193 -0.107036,0.471528 -0.201817,0.657082 -0.45152,1.141716 -0.85772,1.512939 A 0.70360129,0.70360129 0 0 0 15.3202,33.249541 c -0.680178,-1.113792 -0.649691,-1.897433 -0.54674,-2.079929 0.05148,-0.09125 0.0736,-0.117389 0.244442,-0.13452 z"
       id="path2396-0" />
    <path
       style="color:#000000;font-style:normal;font-variant:normal;font-weight:normal;font-stretch:normal;font-size:medium;line-height:normal;font-family:sans-serif;font-variant-ligatures:normal;font-variant-position:normal;font-variant-caps:normal;font-variant-numeric:normal;font-variant-alternates:normal;font-feature-settings:normal;text-indent:0;text-align:start;text-decoration:none;text-decoration-line:none;text-decoration-style:solid;text-decoration-color:#000000;letter-spacing:normal;word-spacing:normal;text-transform:none;writing-mode:lr-tb;direction:ltr;text-orientation:mixed;dominant-baseline:auto;baseline-shift:baseline;text-anchor:start;white-space:normal;shape-padding:0;clip-rule:nonzero;display:inline;overflow:visible;visibility:visible;opacity:1;isolation:auto;mix-blend-mode:normal;color-interpolation:sRGB;color-interpolation-filters:linearRGB;solid-color:#000000;solid-opacity:1;vector-effect:none;fill:#4e4e4e;fill-opacity:1;fill-rule:nonzero;stroke:none;stroke-width:2;stroke-linecap:round;stroke-linejoin:round;stroke-miterlimit:4;stroke-dasharray:none;stroke-dashoffset:0;stroke-opacity:1;color-rendering:auto;image-rendering:auto;shape-rendering:auto;text-rendering:auto;enable-background:accumulate"
       d="m 24.2539,8.0214812 0.197266,0.029297 A 1.0001,1.0001 0 0 0 24.2539,8.0214812 Z"
       id="path943" />
    <path
       style="color:#000000;font-style:normal;font-variant:normal;font-weight:normal;font-stretch:normal;font-size:medium;line-height:normal;font-family:sans-serif;font-variant-ligatures:normal;font-variant-position:normal;font-variant-caps:normal;font-variant-numeric:normal;font-variant-alternates:normal;font-feature-settings:normal;text-indent:0;text-align:start;text-decoration:none;text-decoration-line:none;text-decoration-style:solid;text-decoration-color:#000000;letter-spacing:normal;word-spacing:normal;text-transform:none;writing-mode:lr-tb;direction:ltr;text-orientation:mixed;dominant-baseline:auto;baseline-shift:baseline;text-anchor:start;white-space:normal;shape-padding:0;clip-rule:nonzero;display:inline;overflow:visible;visibility:visible;opacity:1;isolation:auto;mix-blend-mode:normal;color-interpolation:sRGB;color-interpolation-filters:linearRGB;solid-color:#000000;solid-opacity:1;vector-effect:none;fill:#4e4e4e;fill-opacity:1;fill-rule:nonzero;stroke:none;stroke-width:2;stroke-linecap:round;stroke-linejoin:round;stroke-miterlimit:4;stroke-dasharray:none;stroke-dashoffset:0;stroke-opacity:1;color-rendering:auto;image-rendering:auto;shape-rendering:auto;text-rendering:auto;enable-background:accumulate"
       d="m 33.505853,29.066403 v 0.01758 c -2.13e-4,-0.0028 -0.0017,-0.005 -0.002,-0.0078 -2.94e-4,-0.0034 0.0023,-0.0064 0.002,-0.0098 z"
       id="path882-8" />
  </g>
</svg>
