<?xml version="1.0" encoding="UTF-8" standalone="no"?>
<!-- Created with Inkscape (http://www.inkscape.org/) -->

<svg
   xmlns:dc="http://purl.org/dc/elements/1.1/"
   xmlns:cc="http://creativecommons.org/ns#"
   xmlns:rdf="http://www.w3.org/1999/02/22-rdf-syntax-ns#"
   xmlns:svg="http://www.w3.org/2000/svg"
   xmlns="http://www.w3.org/2000/svg"
   xmlns:sodipodi="http://sodipodi.sourceforge.net/DTD/sodipodi-0.dtd"
   xmlns:inkscape="http://www.inkscape.org/namespaces/inkscape"
   width="48px"
   height="48px"
   viewBox="0 0 48 48"
   version="1.1"
   id="SVGRoot"
   inkscape:version="0.92.4 (5da689c313, 2019-01-14)"
   sodipodi:docname="polymc.svg">
  <defs
     id="defs815">
    <linearGradient
       gradientTransform="matrix(2.565212,0,0,2.5678694,-46.009155,4.7004749)"
       id="a"
       x1="4.498"
       x2="12.435"
       y1="3.801"
       y2="9.568"
       gradientUnits="userSpaceOnUse">
      <stop
         stop-color="#88b858"
         offset="0"
         id="stop822" />
      <stop
         stop-color="#72b147"
         offset=".5"
         id="stop824" />
      <stop
         stop-color="#5a9a30"
         offset="1"
         id="stop826" />
    </linearGradient>
  </defs>
  <sodipodi:namedview
     id="base"
     pagecolor="#ffffff"
     bordercolor="#666666"
     borderopacity="1.0"
     inkscape:pageopacity="0.0"
     inkscape:pageshadow="2"
     inkscape:zoom="16.342421"
     inkscape:cx="19.939004"
     inkscape:cy="23.199547"
     inkscape:document-units="px"
     inkscape:current-layer="layer1"
     showgrid="true"
     inkscape:window-width="1920"
     inkscape:window-height="1017"
     inkscape:window-x="-8"
     inkscape:window-y="-8"
     inkscape:window-maximized="1"
     inkscape:grid-bbox="true"
     inkscape:snap-global="true"
     showguides="true"
     inkscape:guide-bbox="true">
    <inkscape:grid
       type="xygrid"
       id="grid1371" />
  </sodipodi:namedview>
  <metadata
     id="metadata818">
    <rdf:RDF>
      <cc:Work
         rdf:about="">
        <dc:format>image/svg+xml</dc:format>
        <dc:type
           rdf:resource="http://purl.org/dc/dcmitype/StillImage" />
        <dc:title></dc:title>
      </cc:Work>
    </rdf:RDF>
  </metadata>
  <g
     inkscape:label="Layer 1"
     inkscape:groupmode="layer"
     id="layer1">
    <rect
       style="opacity:1;vector-effect:none;fill:#cf953e;fill-opacity:1;fill-rule:evenodd;stroke:none;stroke-width:4;stroke-linecap:round;stroke-linejoin:round;stroke-miterlimit:4;stroke-dasharray:none;stroke-dashoffset:0;stroke-opacity:1;paint-order:stroke fill markers"
       id="rect1373"
       width="40"
       height="20"
       x="4"
       y="24"
       ry="4" />
    <path
       inkscape:connector-curvature="0"
       style="fill:#90e065;stroke:none;stroke-width:1px;stroke-linecap:butt;stroke-linejoin:miter;stroke-opacity:1"
       d="M 41.794922,9.068359 36,16 24,24 12,16 5.580078,10.044922 C 7.643303,6.431115 11.524394,4 16,4 h 16 c 4.058975,0 7.625342,2.001293 9.794922,5.068359 z"
       id="path825"
       sodipodi:nodetypes="cccccssc" />
    <path
       inkscape:connector-curvature="0"
       style="fill:#b3f095;stroke:none;stroke-width:1px;stroke-linecap:butt;stroke-linejoin:miter;stroke-opacity:1"
       d="M 7.5078125,7.5078125 C 6.7686648,8.2469602 6.1334978,9.0879089 5.6074219,10 H 6 v 4 h 4 v 4 h 4 v 4 h 4 v 4 h 4 2 v -2 z"
       id="path895" />
    <path
       inkscape:connector-curvature="0"
       style="fill:#74ba68;stroke:none;stroke-width:1px;stroke-linecap:butt;stroke-linejoin:miter;stroke-opacity:1"
       d="M 40.492188,7.5078125 24,24 v 2 h 2 4 v -4 h 4 v -4 h 4 v -4 h 4 v -4 h 0.392578 C 41.866502,9.0879089 41.231335,8.2469602 40.492188,7.5078125 Z"
       id="path895-2" />
    <path
       style="fill:#90e065"
       d="m 22,26 2,2 2,-2 -2,-2 -1,1 z"
       id="path893"
       inkscape:connector-curvature="0"
       sodipodi:nodetypes="cccccc" />
    <path
       style="fill:#96d56b;stroke:none;stroke-width:1px;stroke-linecap:butt;stroke-linejoin:miter;stroke-opacity:1"
       d="M 8 4 C 6.892 4 5.8929219 4.4469219 5.1699219 5.1699219 L 24 24 L 42.830078 5.1699219 C 42.107078 4.4469219 41.108 4 40 4 L 8 4 z "
       id="path863" />
    <path
       style="fill:#96d56b;stroke:none;stroke-width:1px;stroke-linecap:butt;stroke-linejoin:miter;stroke-opacity:1"
       d="m 24,28 -4,-4 4,-4 4,4 z"
       id="path919"
       inkscape:connector-curvature="0" />
    <path
       style="fill:#e9bf73;stroke:none;stroke-width:1px;stroke-linecap:butt;stroke-linejoin:miter;stroke-opacity:1"
       d="M 12,14 C 11.277,14.723 4,6.892 4,8 v 32 c 0,1.108 0.4469219,2.107078 1.1699219,2.830078 L 24,24 Z"
       id="path936-4"
       inkscape:connector-curvature="0"
       sodipodi:nodetypes="cssccc" />
    <path
       style="fill:#9d632b;stroke:none;stroke-width:1px;stroke-linecap:butt;stroke-linejoin:miter;stroke-opacity:1;fill-opacity:1"
       d="M 37,13 24,24 42.830078,42.830078 C 43.553078,42.107078 44,41.108 44,40 V 8 c 0,-1.108 -6.277,5.723 -7,5 z"
       id="path936"
       inkscape:connector-curvature="0"
       sodipodi:nodetypes="cccssc" />
    <path
       style="fill:#bfea83;stroke:none;stroke-width:1px;stroke-linecap:butt;stroke-linejoin:miter;stroke-opacity:1"
       d="M 5.1699219 5.1699219 C 4.4469219 5.8929219 4 6.892 4 8 L 4 10 L 6 10 L 6 14 L 10 14 L 10 18 L 14 18 L 14 22 L 18 22 L 18 26 L 22 26 L 24 24 L 20 20 L 16 16 L 12 12 L 8 8 L 6 6 L 5.1699219 5.1699219 z "
       id="path874" />
    <path
       style="fill:#4fb47b;stroke:none;stroke-width:1px;stroke-linecap:butt;stroke-linejoin:miter;stroke-opacity:1"
       d="M 42.830078 5.1699219 L 42 6 L 40 8 L 36 12 L 32 16 L 28 20 L 24 24 L 26 26 L 30 26 L 30 22 L 34 22 L 34 18 L 38 18 L 38 14 L 42 14 L 42 10 L 44 10 L 44 8 C 44 6.892 43.553078 5.8929219 42.830078 5.1699219 z "
       id="path874-0" />
    <path
       style="opacity:0.25;vector-effect:none;fill:#000000;fill-opacity:1;fill-rule:evenodd;stroke:none;stroke-width:4;stroke-linecap:round;stroke-linejoin:round;stroke-miterlimit:4;stroke-dasharray:none;stroke-dashoffset:0;stroke-opacity:1;paint-order:stroke fill markers"
       d="M 8 4 C 5.784 4 4 5.784 4 8 L 4 40 C 4 42.216 5.784 44 8 44 L 40 44 C 42.216 44 44 42.216 44 40 L 44 8 C 44 5.784 42.216 4 40 4 L 8 4 z M 8 5 L 40 5 C 41.662 5 43 6.338 43 8 L 43 40 C 43 41.662 41.662 43 40 43 L 8 43 C 6.338 43 5 41.662 5 40 L 5 8 C 5 6.338 6.338 5 8 5 z "
       id="rect826" />
  </g>
</svg>
