<?xml version="1.0" encoding="UTF-8" standalone="no"?>
<!-- Created with Inkscape (http://www.inkscape.org/) -->

<svg
   xmlns:dc="http://purl.org/dc/elements/1.1/"
   xmlns:cc="http://creativecommons.org/ns#"
   xmlns:rdf="http://www.w3.org/1999/02/22-rdf-syntax-ns#"
   xmlns:svg="http://www.w3.org/2000/svg"
   xmlns="http://www.w3.org/2000/svg"
   xmlns:xlink="http://www.w3.org/1999/xlink"
   xmlns:sodipodi="http://sodipodi.sourceforge.net/DTD/sodipodi-0.dtd"
   xmlns:inkscape="http://www.inkscape.org/namespaces/inkscape"
   width="48px"
   height="48px"
   viewBox="0 0 48 48"
   version="1.1"
   id="SVGRoot"
   inkscape:version="0.92.4 (5da689c313, 2019-01-14)"
   sodipodi:docname="redeclipse.svg">
  <defs
     id="defs815">
    <linearGradient
       inkscape:collect="always"
       id="linearGradient910">
      <stop
         style="stop-color:#943657;stop-opacity:1"
         offset="0"
         id="stop906" />
      <stop
         style="stop-color:#4e4e4e;stop-opacity:1"
         offset="1"
         id="stop908" />
    </linearGradient>
    <linearGradient
       inkscape:collect="always"
       xlink:href="#linearGradient910"
       id="linearGradient912"
       x1="20"
       y1="20"
       x2="23"
       y2="27"
       gradientUnits="userSpaceOnUse"
       gradientTransform="translate(1,0.99999924)" />
  </defs>
  <sodipodi:namedview
     id="base"
     pagecolor="#ffffff"
     bordercolor="#666666"
     borderopacity="1.0"
     inkscape:pageopacity="0.0"
     inkscape:pageshadow="2"
     inkscape:zoom="13.632692"
     inkscape:cx="27.078327"
     inkscape:cy="23.459606"
     inkscape:document-units="px"
     inkscape:current-layer="layer1"
     showgrid="true"
     inkscape:window-width="1920"
     inkscape:window-height="1017"
     inkscape:window-x="-8"
     inkscape:window-y="-8"
     inkscape:window-maximized="1"
     inkscape:grid-bbox="true"
     inkscape:snap-global="true">
    <inkscape:grid
       type="xygrid"
       id="grid1371" />
  </sodipodi:namedview>
  <metadata
     id="metadata818">
    <rdf:RDF>
      <cc:Work
         rdf:about="">
        <dc:format>image/svg+xml</dc:format>
        <dc:type
           rdf:resource="http://purl.org/dc/dcmitype/StillImage" />
        <dc:title></dc:title>
      </cc:Work>
    </rdf:RDF>
  </metadata>
  <g
     inkscape:label="Layer 1"
     inkscape:groupmode="layer"
     id="layer1">
    <rect
       style="opacity:1;vector-effect:none;fill:#4e4e4e;fill-opacity:1;fill-rule:evenodd;stroke:none;stroke-width:4;stroke-linecap:round;stroke-linejoin:round;stroke-miterlimit:4;stroke-dasharray:none;stroke-dashoffset:0;stroke-opacity:1;paint-order:stroke fill markers"
       id="rect1373"
       width="40"
       height="40"
       x="4"
       y="4"
       ry="4" />
    <path
       style="opacity:0.4;vector-effect:none;fill:#000000;fill-opacity:1;fill-rule:evenodd;stroke:none;stroke-width:4;stroke-linecap:round;stroke-linejoin:round;stroke-miterlimit:4;stroke-dasharray:none;stroke-dashoffset:0;stroke-opacity:1;paint-order:stroke fill markers"
       d="M 8 4 C 5.784 4 4 5.784 4 8 L 4 40 C 4 42.216 5.784 44 8 44 L 40 44 C 42.216 44 44 42.216 44 40 L 44 8 C 44 5.784 42.216 4 40 4 L 8 4 z M 8 5 L 40 5 C 41.662 5 43 6.338 43 8 L 43 40 C 43 41.662 41.662 43 40 43 L 8 43 C 6.338 43 5 41.662 5 40 L 5 8 C 5 6.338 6.338 5 8 5 z "
       id="rect826" />
    <path
       style="fill:#d35244;stroke:none;stroke-width:1px;stroke-linecap:butt;stroke-linejoin:miter;stroke-opacity:1"
       d="M 19.192975,11.32571 C 19.54253,13.727105 25,10 25,10 c 0,0 0,1 -0.807025,1.948132 C 23.029478,13.315062 29.269296,12.730704 28,14 c -1,1 0.760863,1.544203 1.192975,2.051868 C 30,17 35,15 35,15 l -2,2 c -1,1 2.333333,3 4,3 3,0 5,1 5,1 0,0 -4,0 -4,2 0,1.699673 -1,5 -1,5 0,0 -14.466176,7.533824 -19,3 -1,-1 -3,-1 -3,-1 0,0 1.316228,-0.894591 1,-1 -3,-1 -4,-2 -4,-2 0,0 2.5547,0.3698 2,0 -3,-2 -5,-2 -5,-2 l 2,-2 C 12.374369,21.625631 8,18 8,18 8,18 9.8886397,17.517937 11.221973,18.184604 13.221973,19.184604 11,12 11,12 c 0,0 2.207474,-0.192975 3.207474,0.807025 C 15.716705,14.316256 18,9 18,9 c 0,0 1,1 1.192975,2.32571 z"
       id="path822"
       inkscape:connector-curvature="0"
       sodipodi:nodetypes="scssscsscscscscscscscscs" />
    <rect
       style="opacity:1;vector-effect:none;fill:#f97263;fill-opacity:1;fill-rule:evenodd;stroke:none;stroke-width:5.33333349;stroke-linecap:round;stroke-linejoin:round;stroke-miterlimit:4;stroke-dasharray:none;stroke-opacity:1;paint-order:normal"
       id="rect818"
       width="16"
       height="16"
       x="13"
       y="13"
       ry="8" />
    <rect
       style="opacity:1;vector-effect:none;fill:#ffffff;fill-opacity:1;fill-rule:evenodd;stroke:none;stroke-width:4;stroke-linecap:round;stroke-linejoin:round;stroke-miterlimit:4;stroke-dasharray:none;stroke-opacity:1;paint-order:normal"
       id="rect929"
       width="14"
       height="14"
       x="14"
       y="14"
       ry="7" />
    <rect
       style="opacity:1;vector-effect:none;fill:url(#linearGradient912);fill-opacity:1;fill-rule:evenodd;stroke:none;stroke-width:4;stroke-linecap:round;stroke-linejoin:round;stroke-miterlimit:4;stroke-dasharray:none;stroke-opacity:1;paint-order:normal"
       id="rect820"
       width="20"
       height="20"
       x="18"
       y="18"
       ry="10" />
    <path
       style="opacity:1;vector-effect:none;fill:#943657;fill-opacity:1;fill-rule:evenodd;stroke:none;stroke-width:4;stroke-linecap:round;stroke-linejoin:round;stroke-miterlimit:4;stroke-dasharray:none;stroke-opacity:1;paint-order:normal"
       d="M 34.552734,20.447266 C 36.074318,22.200757 37,24.485469 37,27 37,32.54 32.54,37 27,37 24.485469,37 22.200757,36.074318 20.447266,34.552734 22.278026,36.662525 24.974531,38 28,38 c 5.54,0 10,-4.46 10,-10 0,-3.025469 -1.337475,-5.721974 -3.447266,-7.552734 z"
       id="rect820-72"
       inkscape:connector-curvature="0" />
  </g>
</svg>
