<?xml version="1.0" encoding="UTF-8" standalone="no"?>
<!-- Created with Inkscape (http://www.inkscape.org/) -->

<svg
   xmlns:dc="http://purl.org/dc/elements/1.1/"
   xmlns:cc="http://creativecommons.org/ns#"
   xmlns:rdf="http://www.w3.org/1999/02/22-rdf-syntax-ns#"
   xmlns:svg="http://www.w3.org/2000/svg"
   xmlns="http://www.w3.org/2000/svg"
   xmlns:xlink="http://www.w3.org/1999/xlink"
   xmlns:sodipodi="http://sodipodi.sourceforge.net/DTD/sodipodi-0.dtd"
   xmlns:inkscape="http://www.inkscape.org/namespaces/inkscape"
   width="48px"
   height="48px"
   viewBox="0 0 48 48"
   version="1.1"
   id="SVGRoot"
   inkscape:version="0.92.4 (5da689c313, 2019-01-14)"
   sodipodi:docname="revenge.svg">
  <defs
     id="defs815">
    <linearGradient
       id="linearGradient1174"
       inkscape:collect="always">
      <stop
         id="stop1170"
         offset="0"
         style="stop-color:#2a4429;stop-opacity:1" />
      <stop
         id="stop1172"
         offset="1"
         style="stop-color:#245a44;stop-opacity:1" />
    </linearGradient>
    <linearGradient
       id="linearGradient1128"
       inkscape:collect="always">
      <stop
         id="stop1124"
         offset="0"
         style="stop-color:#43ac8f;stop-opacity:1;" />
      <stop
         id="stop1126"
         offset="1"
         style="stop-color:#43ac8f;stop-opacity:0;" />
    </linearGradient>
    <linearGradient
       id="linearGradient1120"
       inkscape:collect="always">
      <stop
         id="stop1116"
         offset="0"
         style="stop-color:#73a683;stop-opacity:1" />
      <stop
         id="stop1118"
         offset="1"
         style="stop-color:#41624d;stop-opacity:1" />
    </linearGradient>
    <linearGradient
       id="linearGradient1550"
       inkscape:collect="always">
      <stop
         id="stop1546"
         offset="0"
         style="stop-color:#2e3841;stop-opacity:1" />
      <stop
         style="stop-color:#213439;stop-opacity:1"
         offset="0.625"
         id="stop916" />
      <stop
         id="stop1548"
         offset="1"
         style="stop-color:#1c9f86;stop-opacity:1" />
    </linearGradient>
    <linearGradient
       gradientUnits="userSpaceOnUse"
       y2="39"
       x2="24"
       y1="7"
       x1="24"
       id="linearGradient1552"
       xlink:href="#linearGradient1550"
       inkscape:collect="always"
       gradientTransform="translate(0,1)" />
    <linearGradient
       gradientUnits="userSpaceOnUse"
       y2="22"
       x2="24"
       y1="26"
       x1="24"
       id="linearGradient1122"
       xlink:href="#linearGradient1120"
       inkscape:collect="always"
       gradientTransform="translate(0,2)" />
    <linearGradient
       gradientUnits="userSpaceOnUse"
       y2="20"
       x2="24"
       y1="15"
       x1="24"
       id="linearGradient1130"
       xlink:href="#linearGradient1128"
       inkscape:collect="always"
       gradientTransform="translate(0,1)" />
    <linearGradient
       gradientUnits="userSpaceOnUse"
       y2="39"
       x2="24"
       y1="30"
       x1="24"
       id="linearGradient1176"
       xlink:href="#linearGradient1174"
       inkscape:collect="always"
       gradientTransform="translate(0,1)" />
  </defs>
  <sodipodi:namedview
     id="base"
     pagecolor="#ffffff"
     bordercolor="#666666"
     borderopacity="1.0"
     inkscape:pageopacity="0.0"
     inkscape:pageshadow="2"
     inkscape:zoom="23.484749"
     inkscape:cx="16.965747"
     inkscape:cy="23.791224"
     inkscape:document-units="px"
     inkscape:current-layer="layer1"
     showgrid="true"
     inkscape:window-width="1920"
     inkscape:window-height="1017"
     inkscape:window-x="-8"
     inkscape:window-y="-8"
     inkscape:window-maximized="1"
     inkscape:grid-bbox="true"
     inkscape:snap-global="true">
    <inkscape:grid
       type="xygrid"
       id="grid1371" />
  </sodipodi:namedview>
  <metadata
     id="metadata818">
    <rdf:RDF>
      <cc:Work
         rdf:about="">
        <dc:format>image/svg+xml</dc:format>
        <dc:type
           rdf:resource="http://purl.org/dc/dcmitype/StillImage" />
        <dc:title />
      </cc:Work>
    </rdf:RDF>
  </metadata>
  <g
     inkscape:label="Layer 1"
     inkscape:groupmode="layer"
     id="layer1">
    <path
       inkscape:connector-curvature="0"
       style="opacity:1;vector-effect:none;fill:url(#linearGradient1552);fill-opacity:1;fill-rule:evenodd;stroke:none;stroke-width:5.78174448;stroke-linecap:round;stroke-linejoin:round;stroke-miterlimit:4;stroke-dasharray:none;paint-order:normal"
       d="M 8,4 4,8 v 32 l 4,4 h 32 l 4,-4 V 8 L 40,4 Z"
       id="rect1473-6"
       sodipodi:nodetypes="ccccccccc" />
    <path
       inkscape:connector-curvature="0"
       style="opacity:0.1;vector-effect:none;fill:#000000;fill-opacity:1;fill-rule:evenodd;stroke:none;stroke-width:2;stroke-linecap:round;stroke-linejoin:round;stroke-miterlimit:4;stroke-dasharray:none;stroke-opacity:1;paint-order:normal"
       d="m 4,31 v 1 h 40 v -1 z m 0,2 v 1 h 40 v -1 z m 0,2 v 1 h 40 v -1 z m 0,2 v 1 h 40 v -1 z m 0,2 v 1 h 40 v -1 z m 1,2 1,1 h 36 l 1,-1 z"
       id="rect984"
       sodipodi:nodetypes="cccccccccccccccccccccccccccccc" />
    <rect
       style="opacity:0.25;vector-effect:none;fill:#000000;fill-opacity:1;fill-rule:evenodd;stroke:none;stroke-width:2;stroke-linecap:round;stroke-linejoin:round;stroke-miterlimit:4;stroke-dasharray:none;stroke-opacity:1;paint-order:normal"
       id="rect1137"
       width="32"
       height="3"
       x="8"
       y="38"
       ry="1.5"
       rx="16" />
    <path
       style="fill:url(#linearGradient1176);fill-opacity:1;stroke:none;stroke-width:1px;stroke-linecap:butt;stroke-linejoin:miter;stroke-opacity:1"
       d="m 14,13 5,-5 h 10 l 5,5 v 27 h -5 v -3 h -2 v 3 h -6 v -3 h -2 v 3 h -5 z"
       id="path1055"
       inkscape:connector-curvature="0"
       sodipodi:nodetypes="ccccccccccccccc" />
    <rect
       style="opacity:1;vector-effect:none;fill:#000000;fill-opacity:1;fill-rule:evenodd;stroke:none;stroke-width:2;stroke-linecap:round;stroke-linejoin:round;stroke-miterlimit:4;stroke-dasharray:none;stroke-opacity:1;paint-order:normal"
       id="rect1057"
       width="20"
       height="8"
       x="14"
       y="24" />
    <path
       inkscape:connector-curvature="0"
       style="fill:url(#linearGradient1122);fill-opacity:1;stroke:none;stroke-width:1px;stroke-linecap:butt;stroke-linejoin:miter;stroke-opacity:1"
       d="m 14,24 4,4 4,-4 z m 12,0 4,4 4,-4 z"
       id="path1059" />
    <path
       inkscape:connector-curvature="0"
       style="color:#000000;font-style:normal;font-variant:normal;font-weight:normal;font-stretch:normal;font-size:medium;line-height:normal;font-family:sans-serif;font-variant-ligatures:normal;font-variant-position:normal;font-variant-caps:normal;font-variant-numeric:normal;font-variant-alternates:normal;font-feature-settings:normal;text-indent:0;text-align:start;text-decoration:none;text-decoration-line:none;text-decoration-style:solid;text-decoration-color:#000000;letter-spacing:normal;word-spacing:normal;text-transform:none;writing-mode:lr-tb;direction:ltr;text-orientation:mixed;dominant-baseline:auto;baseline-shift:baseline;text-anchor:start;white-space:normal;shape-padding:0;clip-rule:nonzero;display:inline;overflow:visible;visibility:visible;opacity:1;isolation:auto;mix-blend-mode:normal;color-interpolation:sRGB;color-interpolation-filters:linearRGB;solid-color:#000000;solid-opacity:1;vector-effect:none;fill:url(#linearGradient1130);fill-opacity:1;fill-rule:nonzero;stroke:none;stroke-width:2;stroke-linecap:round;stroke-linejoin:round;stroke-miterlimit:4;stroke-dasharray:none;stroke-dashoffset:0;stroke-opacity:1;color-rendering:auto;image-rendering:auto;shape-rendering:auto;text-rendering:auto;enable-background:accumulate"
       d="M 16.984375,14 C 16.438225,14.008588 15.999987,14.453782 16,15 v 3 c 5.1e-5,0.265199 0.105433,0.519519 0.292969,0.707031 l 2,2 C 18.480481,20.894567 18.734801,20.999949 19,21 h 3 c 0.890637,-3.5e-4 1.336587,-1.077036 0.707031,-1.707031 l -5,-5 C 17.515708,14.101557 17.254978,13.995856 16.984375,14 Z m 14.03125,0 c -0.270603,-0.0041 -0.531333,0.101557 -0.722656,0.292969 l -5,5 C 24.663413,19.922964 25.109363,20.99965 26,21 h 3 c 0.265199,-5.1e-5 0.519519,-0.105433 0.707031,-0.292969 l 2,-2 C 31.894567,18.519519 31.999949,18.265199 32,18 v -3 c 1.3e-5,-0.546218 -0.438225,-0.9914 -0.984375,-1 z"
       id="path1061-2" />
    <path
       style="color:#000000;font-style:normal;font-variant:normal;font-weight:normal;font-stretch:normal;font-size:medium;line-height:normal;font-family:sans-serif;font-variant-ligatures:normal;font-variant-position:normal;font-variant-caps:normal;font-variant-numeric:normal;font-variant-alternates:normal;font-feature-settings:normal;text-indent:0;text-align:start;text-decoration:none;text-decoration-line:none;text-decoration-style:solid;text-decoration-color:#000000;letter-spacing:normal;word-spacing:normal;text-transform:none;writing-mode:lr-tb;direction:ltr;text-orientation:mixed;dominant-baseline:auto;baseline-shift:baseline;text-anchor:start;white-space:normal;shape-padding:0;clip-rule:nonzero;display:inline;overflow:visible;visibility:visible;opacity:1;isolation:auto;mix-blend-mode:normal;color-interpolation:sRGB;color-interpolation-filters:linearRGB;solid-color:#000000;solid-opacity:1;vector-effect:none;fill:#9ae6d1;fill-opacity:1;fill-rule:nonzero;stroke:none;stroke-width:1px;stroke-linecap:round;stroke-linejoin:round;stroke-miterlimit:4;stroke-dasharray:none;stroke-dashoffset:0;stroke-opacity:1;color-rendering:auto;image-rendering:auto;shape-rendering:auto;text-rendering:auto;enable-background:accumulate"
       d="M 16.992188,14.5 C 16.719113,14.504294 16.499994,14.726891 16.5,15 v 3 c 2.5e-5,0.1326 0.05272,0.25976 0.146484,0.353516 l 2,2 C 18.74024,20.447284 18.8674,20.499975 19,20.5 h 3 c 0.445319,-1.74e-4 0.668295,-0.538519 0.353516,-0.853516 l -5,-5 C 17.257854,14.550778 17.127489,14.497928 16.992188,14.5 Z m 13.992187,0 c -0.127164,0.0041 -0.247997,0.05645 -0.337891,0.146484 l -5,5 C 25.331705,19.961481 25.554681,20.499826 26,20.5 h 3 c 0.1326,-2.5e-5 0.25976,-0.05272 0.353516,-0.146484 l 2,-2 C 31.447284,18.25976 31.499975,18.1326 31.5,18 v -3 c 1.09e-4,-0.282349 -0.233413,-0.508794 -0.515625,-0.5 z"
       id="path1061-7"
       inkscape:connector-curvature="0"
       sodipodi:nodetypes="cccccccccccccccccccc" />
    <path
       style="fill:#ffffff;stroke:none;stroke-width:1px;stroke-linecap:butt;stroke-linejoin:miter;stroke-opacity:1"
       d="m 17,15 5,5 h -3 l -2,-2 z"
       id="path1061"
       inkscape:connector-curvature="0" />
    <path
       style="fill:#ffffff;stroke:none;stroke-width:1px;stroke-linecap:butt;stroke-linejoin:miter;stroke-opacity:1"
       d="m 31,15 -5,5 h 3 l 2,-2 z"
       id="path1061-1"
       inkscape:connector-curvature="0" />
    <rect
       style="opacity:0.25;vector-effect:none;fill:#000000;fill-opacity:1;fill-rule:evenodd;stroke:none;stroke-width:2;stroke-linecap:round;stroke-linejoin:round;stroke-miterlimit:4;stroke-dasharray:none;stroke-opacity:1;paint-order:normal"
       id="rect1135"
       width="20"
       height="1"
       x="14"
       y="24" />
    <path
       inkscape:connector-curvature="0"
       style="opacity:0.35;fill:#8aead8;fill-opacity:1;stroke:none;stroke-width:1px;stroke-linecap:butt;stroke-linejoin:miter;stroke-opacity:1"
       d="m 19,8 -5,5 v 1 l 5,-5 h 10 l 5,5 V 13 L 29,8 Z"
       id="path1055-4" />
    <path
       style="color:#000000;font-style:normal;font-variant:normal;font-weight:normal;font-stretch:normal;font-size:medium;line-height:normal;font-family:sans-serif;font-variant-ligatures:normal;font-variant-position:normal;font-variant-caps:normal;font-variant-numeric:normal;font-variant-alternates:normal;font-feature-settings:normal;text-indent:0;text-align:start;text-decoration:none;text-decoration-line:none;text-decoration-style:solid;text-decoration-color:#000000;letter-spacing:normal;word-spacing:normal;text-transform:none;writing-mode:lr-tb;direction:ltr;text-orientation:mixed;dominant-baseline:auto;baseline-shift:baseline;text-anchor:start;white-space:normal;shape-padding:0;clip-rule:nonzero;display:inline;overflow:visible;visibility:visible;opacity:0.4;isolation:auto;mix-blend-mode:normal;color-interpolation:sRGB;color-interpolation-filters:linearRGB;solid-color:#000000;solid-opacity:1;vector-effect:none;fill:#000000;fill-opacity:1;fill-rule:evenodd;stroke:none;stroke-width:2;stroke-linecap:round;stroke-linejoin:round;stroke-miterlimit:4;stroke-dasharray:none;stroke-dashoffset:0;stroke-opacity:1;paint-order:normal;color-rendering:auto;image-rendering:auto;shape-rendering:auto;text-rendering:auto;enable-background:accumulate"
       d="M 8 4 L 4 8 L 4 40 L 8 44 L 40 44 L 44 40 L 44 8 L 40 4 L 8 4 z M 8.4140625 5 L 39.585938 5 L 43 8.4140625 L 43 39.585938 L 39.585938 43 L 8.4140625 43 L 5 39.585938 L 5 8.4140625 L 8.4140625 5 z "
       id="rect1473-6-3" />
  </g>
</svg>
