<?xml version="1.0" encoding="UTF-8" standalone="no"?>
<!-- Created with Inkscape (http://www.inkscape.org/) -->

<svg
   xmlns:dc="http://purl.org/dc/elements/1.1/"
   xmlns:cc="http://creativecommons.org/ns#"
   xmlns:rdf="http://www.w3.org/1999/02/22-rdf-syntax-ns#"
   xmlns:svg="http://www.w3.org/2000/svg"
   xmlns="http://www.w3.org/2000/svg"
   xmlns:sodipodi="http://sodipodi.sourceforge.net/DTD/sodipodi-0.dtd"
   xmlns:inkscape="http://www.inkscape.org/namespaces/inkscape"
   width="48px"
   height="48px"
   viewBox="0 0 48 48"
   version="1.1"
   id="SVGRoot"
   inkscape:version="0.92.4 (5da689c313, 2019-01-14)"
   sodipodi:docname="rivals-of-aether.svg">
  <defs
     id="defs815" />
  <sodipodi:namedview
     id="base"
     pagecolor="#ffffff"
     bordercolor="#666666"
     borderopacity="1.0"
     inkscape:pageopacity="0.0"
     inkscape:pageshadow="2"
     inkscape:zoom="19.279538"
     inkscape:cx="25.048406"
     inkscape:cy="23.459606"
     inkscape:document-units="px"
     inkscape:current-layer="layer1"
     showgrid="true"
     inkscape:window-width="1920"
     inkscape:window-height="1017"
     inkscape:window-x="-8"
     inkscape:window-y="-8"
     inkscape:window-maximized="1"
     inkscape:grid-bbox="true"
     inkscape:snap-global="false">
    <inkscape:grid
       type="xygrid"
       id="grid1371" />
  </sodipodi:namedview>
  <metadata
     id="metadata818">
    <rdf:RDF>
      <cc:Work
         rdf:about="">
        <dc:format>image/svg+xml</dc:format>
        <dc:type
           rdf:resource="http://purl.org/dc/dcmitype/StillImage" />
        <dc:title></dc:title>
      </cc:Work>
    </rdf:RDF>
  </metadata>
  <g
     inkscape:label="Layer 1"
     inkscape:groupmode="layer"
     id="layer1">
    <rect
       style="opacity:1;vector-effect:none;fill:#6956b4;fill-opacity:1;fill-rule:evenodd;stroke:none;stroke-width:4;stroke-linecap:round;stroke-linejoin:round;stroke-miterlimit:4;stroke-dasharray:none;stroke-dashoffset:0;stroke-opacity:1;paint-order:stroke fill markers"
       id="rect1373"
       width="40"
       height="40"
       x="4"
       y="4"
       ry="4" />
    <path
       style="opacity:0.25;vector-effect:none;fill:#000000;fill-opacity:1;fill-rule:evenodd;stroke:none;stroke-width:4;stroke-linecap:round;stroke-linejoin:round;stroke-miterlimit:4;stroke-dasharray:none;stroke-dashoffset:0;stroke-opacity:1;paint-order:stroke fill markers"
       d="M 8 4 C 5.784 4 4 5.784 4 8 L 4 40 C 4 42.216 5.784 44 8 44 L 40 44 C 42.216 44 44 42.216 44 40 L 44 8 C 44 5.784 42.216 4 40 4 L 8 4 z M 8 5 L 40 5 C 41.662 5 43 6.338 43 8 L 43 40 C 43 41.662 41.662 43 40 43 L 8 43 C 6.338 43 5 41.662 5 40 L 5 8 C 5 6.338 6.338 5 8 5 z "
       id="rect826" />
    <g
       id="layer1-4"
       inkscape:label="Layer 1"
       transform="matrix(1.2594968,0,0,1.2594968,-6.4889059,-4.4680012)">
      <path
         inkscape:connector-curvature="0"
         id="path839"
         d="m 15.279898,32.785871 c -0.06535,-0.07876 -0.170864,-0.143195 -0.234444,-0.143195 -0.06358,0 -0.283218,-0.144891 -0.48808,-0.32198 L 14.1849,31.998718 13.77985,32.195505 c -0.222776,0.108233 -0.43557,0.166267 -0.472874,0.128963 -0.0373,-0.03731 -0.07045,-0.27094 -0.07369,-0.519191 -0.0049,-0.379528 0.02832,-0.466367 0.208927,-0.545605 0.118136,-0.05184 0.216292,-0.137745 0.218124,-0.190927 0.0019,-0.05317 0.06264,-0.429352 0.135134,-0.835931 0.144913,-0.81278 0.902897,-2.363348 1.155302,-2.363348 0.185929,0 0.170859,-0.252977 -0.04313,-0.724169 -0.151242,-0.333016 -0.241667,-0.40811 -0.618441,-0.513601 -0.242716,-0.06795 -0.634605,-0.101768 -0.870866,-0.07514 -0.236261,0.02663 -0.429567,0.01456 -0.429567,-0.02683 0,-0.143123 0.569298,-0.553608 0.854746,-0.616302 0.563623,-0.123791 1.054538,0.183413 1.054538,0.65991 0,0.233369 0.227112,0.699027 0.530751,1.08823 0.077,0.0987 0.941454,-0.627364 2.237713,-1.8795 l 1.479694,-1.429333 -0.239812,-0.245364 C 18.774501,23.972418 18.306831,23.712544 17.867133,23.52987 17.427433,23.347195 16.991579,23.128866 16.89857,23.044693 16.80556,22.960523 16.597077,22.61451 16.435276,22.275785 16.186204,21.754357 16.095486,21.6508 15.843649,21.600433 l -0.297445,-0.05951 0.307403,-0.129254 c 0.16907,-0.0711 0.388388,-0.129253 0.487371,-0.129253 0.204078,0 0.226611,-0.116324 0.07677,-0.396309 -0.05675,-0.106055 -0.0833,-0.212719 -0.05899,-0.23703 0.08994,-0.08995 0.543459,0.08679 1.034512,0.403144 0.37208,0.239719 0.612155,0.325661 0.90972,0.325661 0.40899,0 1.368282,-0.173045 1.368282,-0.246822 0,-0.02202 -0.166817,-0.190778 -0.370702,-0.374976 -0.349964,-0.316171 -0.66606,-0.85533 -0.562298,-0.959094 0.02603,-0.02603 0.163496,-0.0032 0.305457,0.0508 0.318457,0.121077 0.788908,0.127739 0.860325,0.01218 0.02921,-0.04728 -0.129343,-0.180001 -0.352357,-0.294948 -0.516043,-0.265983 -0.901044,-0.626674 -1.121885,-1.051061 -0.09562,-0.183767 -0.2717,-0.437756 -0.391269,-0.564417 l -0.2174,-0.230292 0.59094,0.06177 c 0.325019,0.03398 0.590944,0.03956 0.590944,0.01243 0,-0.02713 -0.05988,-0.192646 -0.133067,-0.367806 -0.174429,-0.417445 -0.615337,-0.737892 -1.469181,-1.067774 -0.491963,-0.190072 -0.76561,-0.360789 -0.935633,-0.583701 l -0.240305,-0.315056 h 0.625374 c 0.3714,0 0.625376,-0.04054 0.625376,-0.0998 0,-0.165176 -0.445305,-0.557734 -0.683895,-0.602886 -0.122659,-0.02321 -0.562823,-0.116163 -0.978142,-0.206556 l -0.755136,-0.164353 0.321313,-0.135103 c 0.176723,-0.07431 0.473572,-0.251596 0.659664,-0.393978 0.489532,-0.374547 1.153121,-0.356305 1.806174,0.04966 0.452244,0.281131 0.483984,0.287867 0.539032,0.114423 0.03216,-0.101357 0.03123,-0.270213 -0.0021,-0.375223 -0.03333,-0.105013 -0.03409,-0.190927 -0.0017,-0.190927 0.110072,0 0.668738,0.313774 0.9802,0.550532 l 0.31026,0.235843 v -0.253058 c 0,-0.401765 -0.229269,-0.845241 -0.60962,-1.179193 -0.193416,-0.169823 -0.29353,-0.308767 -0.222476,-0.308767 0.28069,0 1.192105,0.316571 1.656715,0.575445 0.509794,0.28405 0.607343,0.280033 0.607343,-0.025 0,-0.144161 0.04415,-0.167835 0.214795,-0.115193 0.345811,0.106674 0.755581,0.329303 1.241255,0.674376 0.515076,0.365962 0.548698,0.37694 0.548698,0.179142 0,-0.07875 0.03221,-0.14211 0.07161,-0.140781 0.19013,0.0064 1.154558,0.774519 1.408097,1.121454 0.337596,0.461958 0.404164,0.482862 0.525053,0.164897 0.0499,-0.131263 0.130941,-0.23866 0.180079,-0.23866 0.145079,0 0.586116,0.57512 0.744401,0.970713 0.15009,0.375114 0.61483,0.843106 0.837243,0.843106 0.29549,0 0.332956,-0.241671 0.111723,-0.720661 -0.2486,-0.538242 -0.364639,-1.029018 -0.289562,-1.224666 0.03569,-0.09299 0.187216,0.01214 0.498593,0.345962 0.246029,0.263761 0.635637,0.560616 0.865794,0.659679 0.23016,0.09906 0.651442,0.393036 0.936178,0.653272 0.756808,0.691676 1.585783,0.913827 2.298622,0.615982 1.354947,-0.566133 1.59494,-2.465259 0.412256,-3.26227 -0.554077,-0.373391 -1.405168,-0.238456 -1.768589,0.2804 -0.177965,0.25408 -0.195069,1.104684 -0.02663,1.324076 0.32397,0.421959 0.985644,0.45258 1.261747,0.05839 0.07883,-0.112534 0.143314,-0.368272 0.143314,-0.568301 0,-0.289465 -0.04383,-0.38026 -0.214794,-0.44487 -0.118139,-0.04466 -0.257753,-0.05501 -0.310259,-0.02303 -0.05251,0.03198 -0.0096,0.07488 0.09547,0.0953 0.396099,0.07707 0.44516,0.485491 0.0998,0.830848 -0.295511,0.295511 -0.47688,0.295511 -0.772389,0 -0.563047,-0.563045 -0.04806,-1.484034 0.829822,-1.484034 0.65542,0 1.246716,1.031528 1.037236,1.809479 -0.37406,1.38915 -2.18404,1.537018 -2.939915,0.240177 -0.187585,-0.321838 -0.215292,-0.479872 -0.183607,-1.047283 0.04459,-0.798514 0.289112,-1.33328 0.804575,-1.759595 0.912413,-0.754613 2.322724,-0.7507 3.31349,0.0093 0.969354,0.743471 1.418117,1.777147 1.204326,2.774028 -0.161273,0.751984 -0.557733,1.562146 -0.82377,1.68336 -0.595449,0.271306 -0.795171,1.214029 -0.365408,1.724774 0.292969,0.348172 0.660159,0.385791 1.018018,0.104296 0.432189,-0.339958 0.416936,-1.054824 -0.02551,-1.195249 -0.223017,-0.07078 -0.608345,0.19757 -0.510652,0.355638 0.03454,0.05588 0.09633,0.05094 0.160036,-0.01275 0.198696,-0.198695 0.447455,-0.120222 0.447455,0.141155 0,0.421638 -0.164638,0.614242 -0.525054,0.614242 -0.382808,0 -0.525055,-0.193446 -0.525055,-0.714045 0,-0.499568 0.341336,-0.813382 0.884711,-0.813382 1.372552,0 1.431108,2.401934 0.06752,2.769113 l -0.370382,0.09968 0.231593,0.34127 c 0.50206,0.739831 0.387648,1.538684 -0.319346,2.22971 -1.01168,0.988831 -1.1368,1.300917 -0.82283,2.052352 0.283963,0.679626 -0.01434,1.238938 -0.864592,1.621175 -0.635366,0.28563 -0.829939,0.524785 -0.883905,1.086437 -0.06657,0.692755 0.04923,0.826307 0.956363,1.103 1.173652,0.357987 1.700502,0.965321 1.708279,1.96924 0.0061,0.773185 -0.450009,1.488176 -1.133287,1.776956 -0.640982,0.270903 -1.59985,0.100243 -2.112023,-0.375913 -0.124378,-0.115632 -0.351801,-0.474909 -0.505386,-0.798396 -0.378438,-0.797097 -0.911084,-1.273394 -1.424035,-1.273394 -0.713591,0 -1.354416,0.537257 -1.667569,1.398062 -0.203755,0.560087 -0.449838,0.797615 -0.826338,0.797615 -0.393467,0 -0.605167,-0.135239 -0.746747,-0.477045 -0.103568,-0.250047 -0.09705,-0.34768 0.04404,-0.660601 0.133531,-0.296119 0.143792,-0.407901 0.053,-0.57753 -0.148149,-0.276818 -0.811144,-0.57124 -1.292274,-0.573869 l -0.383661,-0.0021 -0.277024,-0.725576 -0.277025,-0.725576 0.21866,-0.730254 c 0.120261,-0.40164 0.240004,-0.805433 0.266096,-0.897314 0.0428,-0.15072 -0.04135,-0.167065 -0.860106,-0.167065 h -0.907519 l -0.876376,0.950512 c -0.65969,0.715497 -0.86882,1.004647 -0.845813,1.169437 0.02554,0.182919 -0.01798,0.223653 -0.264653,0.24771 -0.200473,0.01955 -0.428973,0.165079 -0.711993,0.453454 l -0.416757,0.424604 h -1.55733 -1.55733 l -0.10874,-0.238672 c -0.138158,-0.303224 -0.269023,-0.306787 -0.269023,-0.0074 0,0.127237 -0.107397,0.358972 -0.238661,0.514969 -0.131262,0.155998 -0.23866,0.389156 -0.23866,0.518132 0,0.362192 0.19462,0.835777 0.343464,0.835777 0.07362,0 0.133857,0.06293 0.133857,0.139837 0,0.0769 0.08308,0.184308 0.184654,0.238662 0.322046,0.172354 0.628702,0.109366 0.913186,-0.187571 0.150909,-0.157516 0.32219,-0.286392 0.380622,-0.286392 0.223725,0 0.32474,-0.205251 0.217188,-0.441299 -0.05688,-0.124823 -0.139469,-0.226953 -0.183545,-0.226953 -0.04407,0 -0.08015,-0.07733 -0.08015,-0.171834 0,-0.09452 -0.05156,-0.223387 -0.114557,-0.286392 -0.164302,-0.164302 0.127425,-0.151629 0.547211,0.02378 0.343227,0.143411 0.438857,0.399086 0.185615,0.496265 -0.10733,0.04118 -0.130132,0.137427 -0.08701,0.367264 0.115701,0.616742 -0.369498,1.173212 -1.244825,1.427676 -0.618116,0.17969 -0.573501,0.179393 -0.718393,0.0049 z m 4.48403,-5.775584 1.549901,-1.622892 h 1.792133 1.792135 l -0.51321,1.590115 c -0.282267,0.874563 -0.513212,1.604865 -0.513212,1.622891 0,0.01803 1.217542,0.03279 2.705648,0.03279 h 2.705649 l 0.253742,-0.646743 c 0.139559,-0.355712 0.25374,-0.699382 0.25374,-0.763714 0,-0.08811 -0.435893,-0.116968 -1.766086,-0.116968 -0.971347,0 -1.766087,-0.02966 -1.766087,-0.06591 0,-0.03625 0.116251,-0.422884 0.258336,-0.859178 l 0.258338,-0.793266 h 1.683597 1.683597 l 0.253742,-0.646745 c 0.13956,-0.355711 0.253743,-0.699383 0.253743,-0.763716 0,-0.08785 -0.415773,-0.116966 -1.670625,-0.116966 -0.918841,0 -1.670622,-0.03207 -1.670622,-0.07127 0,-0.0392 0.110924,-0.404352 0.246501,-0.811446 l 0.246498,-0.740174 h 1.981829 1.981826 l 0.253741,-0.646747 c 0.139561,-0.355709 0.253744,-0.699382 0.253744,-0.763713 0,-0.08859 -0.483944,-0.116966 -1.994049,-0.116966 h -1.994048 l 0.560638,-1.742227 c 0.308351,-0.958222 0.56129,-1.795921 0.562086,-1.861552 0.0011,-0.08719 -0.242744,-0.11933 -0.905146,-0.11933 h -0.906594 l -5.847501,5.731543 c -3.216123,3.152349 -5.861818,5.772842 -5.87932,5.823318 -0.01925,0.05551 0.437832,0.09177 1.156809,0.09177 h 1.188627 z m 4.928014,-4.99309 c 0.992749,-1.013526 1.820106,-1.832538 1.838569,-1.820029 0.01847,0.01252 -0.229793,0.841758 -0.551681,1.842774 l -0.585246,1.820026 h -1.25332 -1.253319 z m 9.155744,6.062181 c -0.105013,-0.02308 -0.275666,-0.101211 -0.379234,-0.173656 -0.247813,-0.173349 -0.830097,-0.167474 -1.261383,0.01273 -0.190143,0.07944 -0.361076,0.129089 -0.37985,0.110313 -0.07999,-0.07999 1.049992,-1.042309 1.422334,-1.211313 0.818445,-0.371487 1.509151,-0.126333 1.502007,0.533115 -0.0052,0.477469 -0.442554,0.830139 -0.903874,0.728811 z M 14.927646,21.01636 C 14.865176,20.97664 14.70537,20.783979 14.57253,20.588233 l -0.241522,-0.355904 h 0.407986 c 0.340123,0 0.461291,0.055 0.728461,0.330648 l 0.320478,0.330648 -0.260232,0.09893 c -0.306699,0.116606 -0.445429,0.122108 -0.600055,0.0238 z m 2.131948,-1.07957 C 16.695378,19.836266 16.452559,19.604 16.170916,19.086759 16.042265,18.850484 15.78594,18.443446 15.601305,18.18223 c -0.193969,-0.274427 -0.290861,-0.489885 -0.229498,-0.51034 0.05842,-0.01946 0.330118,0.117887 0.603796,0.305237 0.282147,0.193147 0.721351,0.387986 1.014378,0.449997 0.639165,0.135257 0.962914,0.430847 0.962914,0.879159 0,0.491737 -0.392468,0.768745 -0.893301,0.630507 z m 7.389653,-5.982026 C 24.275238,13.81386 24.246717,13.70596 24.27161,13.282788 l 0.02966,-0.504119 0.316709,0.266253 c 0.238207,0.200255 0.330061,0.36682 0.37056,0.671975 0.04795,0.361241 0.03269,0.405722 -0.139071,0.405722 -0.106107,0 -0.286205,-0.07553 -0.400216,-0.167855 z"
         style="fill:#ffffff;stroke-width:0.09546421" />
    </g>
  </g>
</svg>
