<?xml version="1.0" encoding="UTF-8" standalone="no"?>
<!-- Created with Inkscape (http://www.inkscape.org/) -->

<svg
   xmlns:dc="http://purl.org/dc/elements/1.1/"
   xmlns:cc="http://creativecommons.org/ns#"
   xmlns:rdf="http://www.w3.org/1999/02/22-rdf-syntax-ns#"
   xmlns:svg="http://www.w3.org/2000/svg"
   xmlns="http://www.w3.org/2000/svg"
   xmlns:sodipodi="http://sodipodi.sourceforge.net/DTD/sodipodi-0.dtd"
   xmlns:inkscape="http://www.inkscape.org/namespaces/inkscape"
   width="48px"
   height="48px"
   viewBox="0 0 48 48"
   version="1.1"
   id="SVGRoot"
   inkscape:version="0.92.4 (5da689c313, 2019-01-14)"
   sodipodi:docname="rolisteam.svg">
  <defs
     id="defs815" />
  <sodipodi:namedview
     id="base"
     pagecolor="#ffffff"
     bordercolor="#666666"
     borderopacity="1.0"
     inkscape:pageopacity="0.0"
     inkscape:pageshadow="2"
     inkscape:zoom="27.265384"
     inkscape:cx="4.0428636"
     inkscape:cy="17.98208"
     inkscape:document-units="px"
     inkscape:current-layer="layer1"
     showgrid="true"
     inkscape:window-width="1920"
     inkscape:window-height="1017"
     inkscape:window-x="-8"
     inkscape:window-y="-8"
     inkscape:window-maximized="1"
     inkscape:grid-bbox="true"
     inkscape:snap-global="false">
    <inkscape:grid
       type="xygrid"
       id="grid1371" />
  </sodipodi:namedview>
  <metadata
     id="metadata818">
    <rdf:RDF>
      <cc:Work
         rdf:about="">
        <dc:format>image/svg+xml</dc:format>
        <dc:type
           rdf:resource="http://purl.org/dc/dcmitype/StillImage" />
        <dc:title />
      </cc:Work>
    </rdf:RDF>
  </metadata>
  <g
     inkscape:label="Layer 1"
     inkscape:groupmode="layer"
     id="layer1">
    <rect
       style="opacity:1;vector-effect:none;fill:#46589d;fill-opacity:1;fill-rule:evenodd;stroke:none;stroke-width:4;stroke-linecap:round;stroke-linejoin:round;stroke-miterlimit:4;stroke-dasharray:none;stroke-dashoffset:0;stroke-opacity:1;paint-order:stroke fill markers"
       id="rect1373"
       width="40"
       height="40"
       x="4"
       y="4"
       ry="4" />
    <path
       style="color:#000000;font-style:normal;font-variant:normal;font-weight:normal;font-stretch:normal;font-size:medium;line-height:normal;font-family:sans-serif;font-variant-ligatures:normal;font-variant-position:normal;font-variant-caps:normal;font-variant-numeric:normal;font-variant-alternates:normal;font-feature-settings:normal;text-indent:0;text-align:start;text-decoration:none;text-decoration-line:none;text-decoration-style:solid;text-decoration-color:#000000;letter-spacing:normal;word-spacing:normal;text-transform:none;writing-mode:lr-tb;direction:ltr;text-orientation:mixed;dominant-baseline:auto;baseline-shift:baseline;text-anchor:start;white-space:normal;shape-padding:0;clip-rule:nonzero;display:inline;overflow:visible;visibility:visible;opacity:1;isolation:auto;mix-blend-mode:normal;color-interpolation:sRGB;color-interpolation-filters:linearRGB;solid-color:#000000;solid-opacity:1;vector-effect:none;fill:#729dec;fill-opacity:1;fill-rule:nonzero;stroke:none;stroke-width:8;stroke-linecap:round;stroke-linejoin:round;stroke-miterlimit:4;stroke-dasharray:none;stroke-dashoffset:0;stroke-opacity:1;color-rendering:auto;image-rendering:auto;shape-rendering:auto;text-rendering:auto;enable-background:accumulate"
       d="m 23.929688,4 c -1.312405,0.023315 -2.529872,0.6889806 -3.257813,1.78125 l -16,24 C 2.9005074,32.439465 4.8056534,35.999315 8,36 h 32 c 3.194347,-6.85e-4 5.099493,-3.560535 3.328125,-6.21875 l -16,-24 C 26.572546,4.6475295 25.291914,3.9763013 23.929688,4 Z"
       id="path817"
       inkscape:connector-curvature="0"
       sodipodi:nodetypes="cccccccc" />
    <path
       style="font-style:normal;font-variant:normal;font-weight:normal;font-stretch:normal;font-size:40px;line-height:1.25;font-family:sans-serif;-inkscape-font-specification:sans-serif;letter-spacing:0px;word-spacing:0px;fill:#ffffff;fill-opacity:1;stroke:none;stroke-width:0.30235928"
       d="m 34.722394,7.4575129 c -0.314836,0.5045169 -0.492108,1.0800379 -0.531815,1.7265633 -0.04278,0.6423457 0.03472,1.3196278 0.23252,2.0318408 0.20774,0.750924 0.510314,1.504714 0.907719,2.261367 0.399108,0.753928 0.903156,1.544614 1.512147,2.372057 0.593613,0.806549 1.140249,1.433359 1.639904,1.880437 0.501358,0.444351 0.952857,0.722689 1.354497,0.835014 0.323499,0.09182 0.614116,0.08606 0.871855,-0.0173 0.257732,-0.10336 0.480206,-0.305022 0.667407,-0.605004 0.369294,-0.591784 0.460813,-1.389646 0.274557,-2.393584 -0.187631,-1.010845 -0.630539,-1.990586 -1.328726,-2.93922 -0.40907,-0.555808 -0.794916,-0.966675 -1.157539,-1.232603 -0.360921,-0.268656 -0.71007,-0.410449 -1.047449,-0.425384 -0.292351,-0.01422 -0.526786,0.04268 -0.703306,0.170716 -0.177893,0.121134 -0.347676,0.311234 -0.509349,0.570309 -0.182095,0.291803 -0.301394,0.605932 -0.357899,0.942388 -0.05788,0.329551 -0.07986,0.715429 -0.06596,1.157637 -0.668593,-1.014265 -1.100052,-1.975923 -1.294364,-2.884981 -0.197389,-0.9132368 -0.113137,-1.6630207 0.252753,-2.2493505 0.100407,-0.1609 0.219792,-0.2884559 0.358153,-0.3826677 0.136988,-0.1011186 0.252376,-0.158515 0.346163,-0.1721884 l 0.02553,-0.04091 L 35.288,6.8653623 c -0.109762,0.057484 -0.206365,0.1303239 -0.289817,0.2185142 -0.08345,0.088189 -0.17538,0.2127342 -0.275788,0.373634 z m 2.819068,5.4555101 c 0.103811,-0.166355 0.218749,-0.304992 0.344807,-0.415923 0.12606,-0.110926 0.27744,-0.162253 0.454148,-0.15397 0.245622,0.01625 0.485216,0.115014 0.718783,0.296302 0.235268,0.178562 0.495925,0.462164 0.781966,0.850812 0.510569,0.693715 0.832097,1.339714 0.964584,1.937997 0.129412,0.594103 0.07074,1.08887 -0.176028,1.484302 -0.107214,0.171808 -0.237527,0.289555 -0.39094,0.353239 -0.154782,0.05678 -0.338985,0.05596 -0.552602,-0.0025 -0.260016,-0.06604 -0.558049,-0.244212 -0.894099,-0.534506 -0.337423,-0.297201 -0.749116,-0.775944 -1.235079,-1.436227 -0.09535,-0.129549 -0.172926,-0.237481 -0.232735,-0.323791 -0.06289,-0.09049 -0.126457,-0.184437 -0.190724,-0.28182 0.0019,-0.385515 0.03415,-0.71959 0.09687,-1.002249 0.06272,-0.282657 0.166404,-0.539893 0.311059,-0.771698 z m 2.693982,7.783075 0.742784,1.009231 2.87539,-4.607735 -0.742784,-1.009231 z"
       id="path827"
       inkscape:connector-curvature="0" />
    <path
       inkscape:connector-curvature="0"
       id="path823"
       style="font-style:normal;font-variant:normal;font-weight:normal;font-stretch:normal;font-size:40px;line-height:1.25;font-family:sans-serif;-inkscape-font-specification:sans-serif;letter-spacing:0px;word-spacing:0px;fill:#ffffff;fill-opacity:1;stroke:none;stroke-width:0.62872052"
       d="M 30,30 H 20 v -2 h 4 V 16 h -4 v -2 c 2,0 3,0 4,-2 h 2 l 0.09942,16 H 30 Z"
       sodipodi:nodetypes="cccccccccccc" />
    <path
       inkscape:connector-curvature="0"
       id="path829"
       style="font-style:normal;font-variant:normal;font-weight:normal;font-stretch:normal;font-size:40px;line-height:1.25;font-family:sans-serif;-inkscape-font-specification:sans-serif;letter-spacing:0px;word-spacing:0px;fill:#ffffff;fill-opacity:1;stroke:none;stroke-width:0.28342295"
       d="m 20.064188,39.594095 q 0,-0.346687 0.34931,-0.663371 0.349311,-0.316685 0.956004,-0.533364 0.661849,-0.233348 1.581085,-0.360021 0.910041,-0.123341 2.114236,-0.123341 1.12147,0 2.160204,0.08667 1.038734,0.08334 1.755739,0.203345 v 0.703374 h -0.128694 q -0.753771,-0.173344 -1.76493,-0.296684 -1.011159,-0.120007 -1.985547,-0.120007 -0.652657,0 -1.25935,0.06667 -0.615891,0.06667 -1.093891,0.233347 -0.404464,0.143342 -0.606693,0.343353 -0.211424,0.200011 -0.211424,0.46336 0,0.256681 0.248191,0.433358 0.239001,0.176677 0.671041,0.283349 0.478004,0.126675 1.167428,0.176677 0.680233,0.05334 1.525931,0.05334 0.808927,0 1.562698,-0.04 0.744579,-0.04 1.28693,-0.08 v 2.556814 h -8.236341 v -0.583367 h 6.462214 v -1.320076 q -0.395268,0.01333 -0.808926,0.02 -0.413652,0.0067 -0.716999,0.0067 -1.112274,0 -1.94878,-0.07 -0.836502,-0.06667 -1.535122,-0.240014 -0.735388,-0.183344 -1.139849,-0.473361 -0.404465,-0.290017 -0.404465,-0.726708 z" />
    <path
       inkscape:connector-curvature="0"
       id="path825"
       style="font-style:normal;font-variant:normal;font-weight:normal;font-stretch:normal;font-size:40px;line-height:1.25;font-family:sans-serif;-inkscape-font-specification:sans-serif;letter-spacing:0px;word-spacing:0px;fill:#ffffff;fill-opacity:1;stroke:none;stroke-width:0.33716816"
       d="M 10.664899,16.634037 9.5987884,16.384534 7.0660237,19.558457 6.1398091,19.341695 8.6725738,16.167772 5.2330406,15.362818 6.623341,13.620569 l 8.555745,-5.5490104 0.887622,0.2077302 -5.500754,6.8932462 1.066111,0.249502 z M 9.6397393,14.955773 13.701835,9.8653756 6.8562742,14.304358 Z" />
    <path
       style="opacity:0.4;vector-effect:none;fill:#000000;fill-opacity:1;fill-rule:evenodd;stroke:none;stroke-width:4;stroke-linecap:round;stroke-linejoin:round;stroke-miterlimit:4;stroke-dasharray:none;stroke-dashoffset:0;stroke-opacity:1;paint-order:stroke fill markers"
       d="M 8 4 C 5.784 4 4 5.784 4 8 L 4 40 C 4 42.216 5.784 44 8 44 L 40 44 C 42.216 44 44 42.216 44 40 L 44 8 C 44 5.784 42.216 4 40 4 L 8 4 z M 8 5 L 40 5 C 41.662 5 43 6.338 43 8 L 43 40 C 43 41.662 41.662 43 40 43 L 8 43 C 6.338 43 5 41.662 5 40 L 5 8 C 5 6.338 6.338 5 8 5 z "
       id="rect826" />
  </g>
</svg>
