<?xml version="1.0" encoding="UTF-8" standalone="no"?>
<!-- Created with Inkscape (http://www.inkscape.org/) -->

<svg
   xmlns:dc="http://purl.org/dc/elements/1.1/"
   xmlns:cc="http://creativecommons.org/ns#"
   xmlns:rdf="http://www.w3.org/1999/02/22-rdf-syntax-ns#"
   xmlns:svg="http://www.w3.org/2000/svg"
   xmlns="http://www.w3.org/2000/svg"
   xmlns:sodipodi="http://sodipodi.sourceforge.net/DTD/sodipodi-0.dtd"
   xmlns:inkscape="http://www.inkscape.org/namespaces/inkscape"
   width="48px"
   height="48px"
   viewBox="0 0 48 48"
   version="1.1"
   id="SVGRoot"
   inkscape:version="0.92.4 (5da689c313, 2019-01-14)"
   sodipodi:docname="samorost-2.svg">
  <defs
     id="defs815">
    <style
       id="style2">.a{fill:none;stroke:#b1b5bd;stroke-linecap:round;stroke-linejoin:round;isolation:isolate;opacity:0.63;}</style>
  </defs>
  <sodipodi:namedview
     id="base"
     pagecolor="#ffffff"
     bordercolor="#666666"
     borderopacity="1.0"
     inkscape:pageopacity="0.0"
     inkscape:pageshadow="2"
     inkscape:zoom="8.0414037"
     inkscape:cx="41.068537"
     inkscape:cy="20.052496"
     inkscape:document-units="px"
     inkscape:current-layer="layer1"
     showgrid="true"
     inkscape:window-width="1920"
     inkscape:window-height="1017"
     inkscape:window-x="-8"
     inkscape:window-y="-8"
     inkscape:window-maximized="1"
     inkscape:grid-bbox="true"
     inkscape:snap-global="false">
    <inkscape:grid
       type="xygrid"
       id="grid1371" />
  </sodipodi:namedview>
  <metadata
     id="metadata818">
    <rdf:RDF>
      <cc:Work
         rdf:about="">
        <dc:format>image/svg+xml</dc:format>
        <dc:type
           rdf:resource="http://purl.org/dc/dcmitype/StillImage" />
        <dc:title></dc:title>
      </cc:Work>
    </rdf:RDF>
  </metadata>
  <g
     inkscape:label="Layer 1"
     inkscape:groupmode="layer"
     id="layer1">
    <rect
       style="opacity:1;vector-effect:none;fill:#979797;fill-opacity:1;fill-rule:evenodd;stroke:none;stroke-width:4;stroke-linecap:round;stroke-linejoin:round;stroke-miterlimit:4;stroke-dasharray:none;stroke-dashoffset:0;stroke-opacity:1;paint-order:stroke fill markers"
       id="rect1373"
       width="40"
       height="40"
       x="4"
       y="4"
       ry="4" />
    <path
       style="fill:#ffffff;stroke:none;stroke-width:0.41552848px;stroke-linecap:butt;stroke-linejoin:miter;stroke-opacity:1"
       d="M 22.148438 6.0625 C 16.854118 6.1999367 14.55501 11.062056 12.154297 11.119141 C 9.9431817 11.171715 7.8585268 8.2507102 6.1328125 8.3320312 C 5.2712176 8.3726321 4.6128241 8.9962351 4 9.7421875 L 4 13.804688 C 4.5478541 13.127044 5.1017019 12.489303 5.8535156 12.568359 C 8.3649169 12.832444 9.4436662 16.143758 10.984375 18.144531 C 12.774071 20.468641 15.722656 25.558594 15.722656 25.558594 L 14.830078 26.619141 C 14.830078 26.619141 10.614284 24.790888 8.4746094 25.169922 C 7.0564395 25.421145 5.425461 26.110026 4 26.964844 L 4 32.570312 C 4.1412082 32.818454 4.3070532 33.032322 4.515625 33.029297 C 4.9490311 33.023036 5.1467569 32.345776 5.1855469 31.914062 C 5.2655465 31.02368 4.2929688 29.628906 4.2929688 29.628906 C 4.2929687 29.628906 7.6203829 26.837264 9.5898438 26.896484 C 11.260623 26.946725 13.994141 29.294922 13.994141 29.294922 C 13.994141 29.294922 11.69317 31.935837 10.035156 36.708984 C 9.486201 38.289336 9.9238281 41.726562 9.9238281 41.726562 C 9.9238281 41.726562 9.6491466 42.900539 9.1445312 44 L 11.96875 44 C 11.96925 43.998629 11.986328 43.957031 11.986328 43.957031 C 11.986328 43.957031 12.060186 43.992896 12.074219 44 L 20.091797 44 C 21.667522 43.230251 22.929245 42.416171 24.251953 42.675781 C 24.851406 42.793438 25.444399 43.351851 25.951172 44 L 29.041016 44 C 28.359791 42.959386 26.900835 40.927265 25.589844 40.445312 C 24.447511 40.025362 21.966797 40.890625 21.966797 40.890625 C 21.966797 40.890625 23.377333 38.259498 23.695312 36.820312 C 24.056354 35.186227 23.861328 31.802734 23.861328 31.802734 C 23.861328 31.802734 27.098193 34.075616 28.935547 33.978516 C 31.594295 33.838008 34.14606 31.01533 35.402344 30.1875 C 36.249174 29.62948 37.734057 29.91669 38.804688 28.792969 C 39.713045 27.839565 40.004501 26.374286 38.970703 25.558594 C 37.752851 24.597682 36.183594 26.619141 36.183594 26.619141 C 36.183594 26.619141 36.294383 25.059483 35.738281 25.001953 C 34.324537 24.855694 33.785156 28.792969 33.785156 28.792969 C 33.785156 28.792969 30.002569 32.299619 28.378906 31.300781 C 25.444476 29.49559 23.703802 28.907653 23.638672 27.621094 C 23.584435 26.549696 29.616818 23.785161 29.548828 17.419922 C 29.502713 13.102498 29.560693 6.6930702 23.248047 6.1015625 C 22.867559 6.06591 22.501392 6.0533376 22.148438 6.0625 z "
       id="path857" />
    <path
       style="fill:#f6a559;stroke:none;stroke-width:0.41552848px;stroke-linecap:butt;stroke-linejoin:miter;stroke-opacity:1"
       d="M 17.716815,17.438344 C 18.038907,13.287635 20.980492,7.0280124 25.1283,7.3855318 c 3.305442,0.2849117 4.178816,6.8989892 4.178816,6.8989892 0,0 1.157905,0.863131 2.781493,1.575453 0.885358,0.388435 2.052191,1.26475 1.75894,2.548855 -0.225578,0.987786 -1.144311,1.945301 -2.631596,1.632878 -1.091229,-0.229227 -2.854984,-0.277418 -2.854984,-0.277418 0,0 -3.396821,6.535918 -6.268224,6.07111 -3.115729,-0.504358 -4.620122,-5.250229 -4.37593,-8.397055 z"
       id="path863"
       inkscape:connector-curvature="0"
       sodipodi:nodetypes="sscssscss" />
    <path
       style="fill:#8b5628;stroke:none;stroke-width:0.41552848px;stroke-linecap:butt;stroke-linejoin:miter;stroke-opacity:1"
       d="m 22.053322,21.144087 c 0.363507,-0.289042 0.817156,0.456381 1.261529,0.591342 0.750437,0.227914 1.266458,0.192131 2.049985,0.157691 0.554038,-0.02435 1.71442,-0.722387 1.892295,-0.197114 0.18541,0.547527 -1.176659,1.442718 -2.168254,1.537489 -0.942037,0.09003 -2.212521,-0.242899 -2.799018,-0.98557 -0.233215,-0.295316 -0.531073,-0.869638 -0.236537,-1.103838 z"
       id="path865"
       inkscape:connector-curvature="0"
       sodipodi:nodetypes="sssssss" />
    <rect
       style="opacity:1;vector-effect:none;fill:#4e4e4e;fill-opacity:1;fill-rule:evenodd;stroke:none;stroke-width:0.41552848;paint-order:stroke fill markers"
       id="rect867"
       width="2.6019044"
       height="2.7990181"
       x="20.555256"
       y="11.643194"
       ry="1.3009522"
       rx="1.3009522" />
    <rect
       style="opacity:1;vector-effect:none;fill:#4e4e4e;fill-opacity:1;fill-rule:evenodd;stroke:none;stroke-width:0.41552848;paint-order:stroke fill markers"
       id="rect869"
       width="1.9711388"
       height="2.2470973"
       x="27.651358"
       y="11.682616"
       rx="0.98556942"
       ry="1.1235486" />
    <rect
       style="opacity:1;vector-effect:none;fill:#ffffff;fill-opacity:1;fill-rule:evenodd;stroke:none;stroke-width:0.41552848;paint-order:stroke fill markers"
       id="rect871"
       width="0.94566852"
       height="0.94566852"
       x="21.071922"
       y="12.10403"
       rx="0.98557121"
       ry="0.94566852" />
    <rect
       style="opacity:1;vector-effect:none;fill:#ffffff;fill-opacity:1;fill-rule:evenodd;stroke:none;stroke-width:0.41552848;paint-order:stroke fill markers"
       id="rect873"
       width="0.78262222"
       height="0.78262222"
       x="27.985085"
       y="12.201859"
       rx="0.98557121"
       ry="0.78262222" />
    <path
       style="fill:#e5b871;stroke:none;stroke-width:0.43888971px;stroke-linecap:butt;stroke-linejoin:miter;stroke-opacity:1"
       d="M 17.451172 30.167969 C 17.090339 30.166724 16.754208 30.289214 16.460938 30.576172 C 15.623795 31.395294 16.364651 32.870439 18.197266 33.630859 C 19.459043 34.154415 21.199219 36.421875 21.199219 36.421875 L 22.251953 38.421875 L 20.724609 38.527344 C 20.724609 38.527344 18.168167 35.648003 16.513672 34.736328 C 14.868774 33.829946 12.059847 31.600782 11.089844 33.208984 C 10.339632 34.452784 11.912841 35.843988 14.089844 36.369141 C 15.007079 36.590403 16.053916 36.389389 16.880859 36.84375 C 17.730383 37.310523 18.830078 39.001953 18.830078 39.001953 C 18.830078 39.001953 15.304452 40.51544 13.511719 40.212891 C 9.9490142 39.611634 8.5609118 35.776332 5.4550781 35.052734 C 5.0529305 34.959042 4.5396904 34.955203 4 34.994141 L 4 40 C 4 42.216 5.784 44 8 44 L 25.251953 44 C 25.127269 43.667026 25.148438 43.423828 25.148438 43.423828 C 25.148438 43.423828 27.954901 44.034309 29.361328 43.898438 C 32.914127 43.555213 37.295534 43.433203 39.576172 40.6875 C 42.496855 37.171234 41.048828 32.050781 41.048828 32.050781 L 37.890625 32.261719 C 37.890625 32.261719 36.799212 36.065865 31.625 38.210938 C 29.398623 39.133927 26.889129 40.441165 24.568359 39.791016 C 23.934862 39.613546 23.146484 38.421875 23.146484 38.421875 C 23.146484 38.421875 22.998442 35.184378 22.09375 33.947266 C 21.044207 32.51208 19.014782 30.173365 17.451172 30.167969 z "
       id="path829" />
    <rect
       style="opacity:1;vector-effect:none;fill:#4e4e4e;fill-opacity:1;fill-rule:evenodd;stroke:none;stroke-width:0.43888971;paint-order:stroke fill markers"
       id="rect831"
       width="3.6331553"
       height="3.6331553"
       x="37.627247"
       y="30.84029"
       ry="1.8165777" />
    <rect
       style="opacity:0.25;vector-effect:none;fill:#ffffff;fill-opacity:1;fill-rule:evenodd;stroke:none;stroke-width:0.43888971;paint-order:stroke fill markers"
       id="rect833"
       width="0.84247077"
       height="0.84247077"
       x="38.259102"
       y="31.314184"
       ry="0.42123538" />
    <rect
       style="opacity:1;vector-effect:none;fill:#4e4e4e;fill-opacity:1;fill-rule:evenodd;stroke:none;stroke-width:0.43888971;paint-order:stroke fill markers"
       id="rect835"
       width="1.8254867"
       height="1.8254867"
       x="22.951378"
       y="39.054699"
       ry="0.91274333" />
    <rect
       style="opacity:1;vector-effect:none;fill:#ffffff;fill-opacity:1;fill-rule:evenodd;stroke:none;stroke-width:0.3448419;paint-order:stroke fill markers"
       id="rect837"
       width="0.64775336"
       height="0.64775336"
       x="23.186928"
       y="39.466908"
       ry="0.32387668" />
    <rect
       style="opacity:1;vector-effect:none;fill:#4e4e4e;fill-opacity:1;fill-rule:evenodd;stroke:none;stroke-width:0.52383614;paint-order:stroke fill markers"
       id="rect835-5"
       width="2.1788065"
       height="2.1788065"
       x="18.534876"
       y="40.055775"
       ry="1.0894033" />
    <rect
       style="opacity:1;vector-effect:none;fill:#ffffff;fill-opacity:1;fill-rule:evenodd;stroke:none;stroke-width:0.41158551;paint-order:stroke fill markers"
       id="rect837-7"
       width="0.77312499"
       height="0.77312499"
       x="18.904352"
       y="40.518318"
       ry="0.3865625" />
    <path
       style="opacity:0.25;vector-effect:none;fill:#000000;fill-opacity:1;fill-rule:evenodd;stroke:none;stroke-width:4;stroke-linecap:round;stroke-linejoin:round;stroke-miterlimit:4;stroke-dasharray:none;stroke-dashoffset:0;stroke-opacity:1;paint-order:stroke fill markers"
       d="M 8 4 C 5.784 4 4 5.784 4 8 L 4 40 C 4 42.216 5.784 44 8 44 L 40 44 C 42.216 44 44 42.216 44 40 L 44 8 C 44 5.784 42.216 4 40 4 L 8 4 z M 8 5 L 40 5 C 41.662 5 43 6.338 43 8 L 43 40 C 43 41.662 41.662 43 40 43 L 8 43 C 6.338 43 5 41.662 5 40 L 5 8 C 5 6.338 6.338 5 8 5 z "
       id="rect826" />
  </g>
</svg>
