<?xml version="1.0" encoding="UTF-8" standalone="no"?>
<!-- Created with Inkscape (http://www.inkscape.org/) -->

<svg
   xmlns:dc="http://purl.org/dc/elements/1.1/"
   xmlns:cc="http://creativecommons.org/ns#"
   xmlns:rdf="http://www.w3.org/1999/02/22-rdf-syntax-ns#"
   xmlns:svg="http://www.w3.org/2000/svg"
   xmlns="http://www.w3.org/2000/svg"
   xmlns:xlink="http://www.w3.org/1999/xlink"
   xmlns:sodipodi="http://sodipodi.sourceforge.net/DTD/sodipodi-0.dtd"
   xmlns:inkscape="http://www.inkscape.org/namespaces/inkscape"
   width="48px"
   height="48px"
   viewBox="0 0 48 48"
   version="1.1"
   id="SVGRoot"
   inkscape:version="0.92.4 (5da689c313, 2019-01-14)"
   sodipodi:docname="sauerbraten.svg">
  <defs
     id="defs815">
    <linearGradient
       inkscape:collect="always"
       id="linearGradient1020">
      <stop
         style="stop-color:#4e4e4e;stop-opacity:1"
         offset="0"
         id="stop1016" />
      <stop
         id="stop1024"
         offset="0.2173913"
         style="stop-color:#927a6a;stop-opacity:1" />
      <stop
         style="stop-color:#4e4e4e;stop-opacity:1"
         offset="1"
         id="stop1018" />
    </linearGradient>
    <linearGradient
       inkscape:collect="always"
       id="linearGradient933">
      <stop
         style="stop-color:#f8a075;stop-opacity:1;"
         offset="0"
         id="stop929" />
      <stop
         style="stop-color:#d35244;stop-opacity:1"
         offset="1"
         id="stop931" />
    </linearGradient>
    <linearGradient
       inkscape:collect="always"
       xlink:href="#linearGradient933"
       id="linearGradient935"
       x1="24"
       y1="19"
       x2="24"
       y2="29"
       gradientUnits="userSpaceOnUse" />
    <linearGradient
       inkscape:collect="always"
       xlink:href="#linearGradient1020"
       id="linearGradient1022"
       x1="24"
       y1="12"
       x2="24"
       y2="35"
       gradientUnits="userSpaceOnUse" />
  </defs>
  <sodipodi:namedview
     id="base"
     pagecolor="#ffffff"
     bordercolor="#666666"
     borderopacity="1.0"
     inkscape:pageopacity="0.0"
     inkscape:pageshadow="2"
     inkscape:zoom="23.111673"
     inkscape:cx="18.637554"
     inkscape:cy="26.263699"
     inkscape:document-units="px"
     inkscape:current-layer="layer1"
     showgrid="true"
     inkscape:window-width="1920"
     inkscape:window-height="1017"
     inkscape:window-x="-8"
     inkscape:window-y="-8"
     inkscape:window-maximized="1"
     inkscape:grid-bbox="true"
     inkscape:snap-global="true">
    <inkscape:grid
       type="xygrid"
       id="grid1371" />
  </sodipodi:namedview>
  <metadata
     id="metadata818">
    <rdf:RDF>
      <cc:Work
         rdf:about="">
        <dc:format>image/svg+xml</dc:format>
        <dc:type
           rdf:resource="http://purl.org/dc/dcmitype/StillImage" />
        <dc:title />
      </cc:Work>
    </rdf:RDF>
  </metadata>
  <g
     inkscape:label="Layer 1"
     inkscape:groupmode="layer"
     id="layer1">
    <rect
       style="opacity:1;vector-effect:none;fill:#e5b871;fill-opacity:1;fill-rule:evenodd;stroke:none;stroke-width:4;stroke-linecap:round;stroke-linejoin:round;stroke-miterlimit:4;stroke-dasharray:none;stroke-dashoffset:0;stroke-opacity:1;paint-order:stroke fill markers"
       id="rect1373"
       width="40"
       height="40"
       x="4"
       y="4"
       ry="4" />
    <path
       style="opacity:0.25;vector-effect:none;fill:#000000;fill-opacity:1;fill-rule:evenodd;stroke:none;stroke-width:4;stroke-linecap:round;stroke-linejoin:round;stroke-miterlimit:4;stroke-dasharray:none;stroke-dashoffset:0;stroke-opacity:1;paint-order:stroke fill markers"
       d="M 8 4 C 5.784 4 4 5.784 4 8 L 4 40 C 4 42.216 5.784 44 8 44 L 40 44 C 42.216 44 44 42.216 44 40 L 44 8 C 44 5.784 42.216 4 40 4 L 8 4 z M 8 5 L 40 5 C 41.662 5 43 6.338 43 8 L 43 40 C 43 41.662 41.662 43 40 43 L 8 43 C 6.338 43 5 41.662 5 40 L 5 8 C 5 6.338 6.338 5 8 5 z "
       id="rect826" />
    <path
       style="fill:#8b5628;stroke:url(#linearGradient1022);stroke-width:6;stroke-linecap:round;stroke-linejoin:round;stroke-miterlimit:4;stroke-dasharray:none;stroke-opacity:1"
       d="m 11,16 2,15 11,6 11,-6 2,-15 -13,-5 z"
       id="path817"
       inkscape:connector-curvature="0"
       sodipodi:nodetypes="ccccccc" />
    <path
       style="fill:#927a6a;stroke:#927a6a;stroke-width:4;stroke-linecap:round;stroke-linejoin:round;stroke-miterlimit:4;stroke-dasharray:none;stroke-opacity:1;fill-opacity:1"
       d="m 15,18 1,10 8,4 8,-4 1,-10 -9,-4 z"
       id="path817-3"
       inkscape:connector-curvature="0"
       sodipodi:nodetypes="ccccccc" />
    <path
       style="fill:#000000;stroke:none;stroke-width:1px;stroke-linecap:butt;stroke-linejoin:miter;stroke-opacity:1;opacity:0.25"
       d="M 24 12.003906 C 23.720395 12.003898 23.443284 12.058257 23.1875 12.171875 L 14.1875 16.171875 C 13.398485 16.522613 12.923604 17.34007 13.009766 18.199219 L 14.009766 28.199219 C 14.033711 28.438499 14.112343 28.661183 14.214844 28.871094 L 24 23 L 24 12.003906 z "
       id="path838" />
    <path
       style="fill:none;stroke:#000000;stroke-width:4;stroke-linecap:round;stroke-linejoin:round;stroke-miterlimit:4;stroke-dasharray:none;stroke-opacity:1;opacity:0.4"
       d="m 19,27 5,3 5,-3 -5,-3 z"
       id="path836-8"
       inkscape:connector-curvature="0"
       sodipodi:nodetypes="ccccc" />
    <path
       style="fill:none;stroke:url(#linearGradient935);stroke-width:6;stroke-linecap:round;stroke-linejoin:round;stroke-miterlimit:4;stroke-dasharray:none;stroke-opacity:1"
       d="m 21,25 3,2 3,-2 V 21.5 L 24,20 21,21.5 Z"
       id="path836"
       inkscape:connector-curvature="0"
       sodipodi:nodetypes="ccccccc" />
    <path
       style="color:#000000;font-style:normal;font-variant:normal;font-weight:normal;font-stretch:normal;font-size:medium;line-height:normal;font-family:sans-serif;font-variant-ligatures:normal;font-variant-position:normal;font-variant-caps:normal;font-variant-numeric:normal;font-variant-alternates:normal;font-feature-settings:normal;text-indent:0;text-align:start;text-decoration:none;text-decoration-line:none;text-decoration-style:solid;text-decoration-color:#000000;letter-spacing:normal;word-spacing:normal;text-transform:none;writing-mode:lr-tb;direction:ltr;text-orientation:mixed;dominant-baseline:auto;baseline-shift:baseline;text-anchor:start;white-space:normal;shape-padding:0;clip-rule:nonzero;display:inline;overflow:visible;visibility:visible;opacity:0.25;isolation:auto;mix-blend-mode:normal;color-interpolation:sRGB;color-interpolation-filters:linearRGB;solid-color:#000000;solid-opacity:1;vector-effect:none;fill:#000000;fill-opacity:1;fill-rule:nonzero;stroke:none;stroke-width:6;stroke-linecap:round;stroke-linejoin:round;stroke-miterlimit:4;stroke-dasharray:none;stroke-dashoffset:0;stroke-opacity:1;color-rendering:auto;image-rendering:auto;shape-rendering:auto;text-rendering:auto;enable-background:accumulate"
       d="M 23.890625 17.001953 A 3.0003 3.0003 0 0 0 22.658203 17.316406 L 19.658203 18.816406 A 3.0003 3.0003 0 0 0 18 21.5 L 18 25 A 3.0003 3.0003 0 0 0 19.335938 27.496094 L 22.335938 29.496094 A 3.0003 3.0003 0 0 0 25.664062 29.496094 L 28.664062 27.496094 A 3.0003 3.0003 0 0 0 30 25 L 30 21.5 A 3.0003 3.0003 0 0 0 28.341797 18.816406 L 25.341797 17.316406 A 3.0003 3.0003 0 0 0 23.890625 17.001953 z M 23.927734 18.001953 C 24.262745 17.989663 24.594656 18.061073 24.894531 18.210938 L 27.894531 19.710938 C 28.574014 20.050782 29.000052 20.740268 29 21.5 L 29 25 C 28.999946 25.669892 28.666745 26.292453 28.109375 26.664062 L 25.109375 28.664062 C 24.435171 29.113453 23.564829 29.113452 22.890625 28.664062 L 19.890625 26.664062 C 19.333255 26.292452 19.000054 25.669892 19 25 L 19 21.5 C 18.999948 20.740268 19.425984 20.050782 20.105469 19.710938 L 23.105469 18.210938 C 23.36124 18.083129 23.641995 18.012312 23.927734 18.001953 z "
       id="path836-5" />
    <path
       style="color:#000000;font-style:normal;font-variant:normal;font-weight:normal;font-stretch:normal;font-size:medium;line-height:normal;font-family:sans-serif;font-variant-ligatures:normal;font-variant-position:normal;font-variant-caps:normal;font-variant-numeric:normal;font-variant-alternates:normal;font-feature-settings:normal;text-indent:0;text-align:start;text-decoration:none;text-decoration-line:none;text-decoration-style:solid;text-decoration-color:#000000;letter-spacing:normal;word-spacing:normal;text-transform:none;writing-mode:lr-tb;direction:ltr;text-orientation:mixed;dominant-baseline:auto;baseline-shift:baseline;text-anchor:start;white-space:normal;shape-padding:0;clip-rule:nonzero;display:inline;overflow:visible;visibility:visible;opacity:0.4;isolation:auto;mix-blend-mode:normal;color-interpolation:sRGB;color-interpolation-filters:linearRGB;solid-color:#000000;solid-opacity:1;vector-effect:none;fill:#000000;fill-opacity:1;fill-rule:nonzero;stroke:none;stroke-width:6;stroke-linecap:round;stroke-linejoin:round;stroke-miterlimit:4;stroke-dasharray:none;stroke-dashoffset:0;stroke-opacity:1;color-rendering:auto;image-rendering:auto;shape-rendering:auto;text-rendering:auto;enable-background:accumulate"
       d="M 23.902344 8.0019531 C 23.567445 8.0126071 23.236697 8.079285 22.923828 8.1992188 L 9.9238281 13.199219 C 8.6272684 13.697109 7.8419026 15.019787 8.0253906 16.396484 L 10.025391 31.396484 C 10.152113 32.344282 10.723033 33.174909 11.5625 33.632812 L 22.5625 39.632812 C 23.458442 40.121862 24.541558 40.121862 25.4375 39.632812 L 36.4375 33.632812 C 37.276967 33.174909 37.847887 32.344282 37.974609 31.396484 L 39.974609 16.396484 C 40.158097 15.019788 39.372731 13.697109 38.076172 13.199219 L 25.076172 8.1992188 C 24.701997 8.0557304 24.302868 7.9886555 23.902344 8.0019531 z M 23.933594 9.0019531 A 1.0001 1.0001 0 0 0 23.935547 9.0019531 C 24.20259 8.9930831 24.469275 9.0371441 24.71875 9.1328125 L 37.716797 14.132812 C 38.586213 14.466677 39.105461 15.34052 38.982422 16.263672 L 36.982422 31.263672 L 36.984375 31.263672 C 36.899765 31.896492 36.519475 32.450129 35.958984 32.755859 L 24.958984 38.755859 C 24.360544 39.082518 23.639456 39.082518 23.041016 38.755859 L 12.041016 32.755859 C 11.480525 32.450129 11.100234 31.896492 11.015625 31.263672 L 11.017578 31.263672 L 9.0175781 16.263672 C 8.894401 15.340518 9.413786 14.466676 10.283203 14.132812 L 23.28125 9.1328125 C 23.489846 9.0528505 23.710312 9.0090563 23.933594 9.0019531 z "
       id="path817-36" />
    <path
       style="color:#000000;font-style:normal;font-variant:normal;font-weight:normal;font-stretch:normal;font-size:medium;line-height:normal;font-family:sans-serif;font-variant-ligatures:normal;font-variant-position:normal;font-variant-caps:normal;font-variant-numeric:normal;font-variant-alternates:normal;font-feature-settings:normal;text-indent:0;text-align:start;text-decoration:none;text-decoration-line:none;text-decoration-style:solid;text-decoration-color:#000000;letter-spacing:normal;word-spacing:normal;text-transform:none;writing-mode:lr-tb;direction:ltr;text-orientation:mixed;dominant-baseline:auto;baseline-shift:baseline;text-anchor:start;white-space:normal;shape-padding:0;clip-rule:nonzero;display:inline;overflow:visible;visibility:visible;opacity:0.25;isolation:auto;mix-blend-mode:normal;color-interpolation:sRGB;color-interpolation-filters:linearRGB;solid-color:#000000;solid-opacity:1;vector-effect:none;fill:#000000;fill-opacity:1;fill-rule:nonzero;stroke:none;stroke-width:4;stroke-linecap:round;stroke-linejoin:round;stroke-miterlimit:4;stroke-dasharray:none;stroke-dashoffset:0;stroke-opacity:1;color-rendering:auto;image-rendering:auto;shape-rendering:auto;text-rendering:auto;enable-background:accumulate"
       d="M 24.037109 12 C 23.744747 11.9945 23.454735 12.05317 23.1875 12.171875 L 14.1875 16.171875 C 13.398485 16.522613 12.923604 17.34007 13.009766 18.199219 L 14.009766 28.199219 C 14.078096 28.882036 14.491695 29.482158 15.105469 29.789062 L 23.105469 33.789062 C 23.668588 34.070628 24.331412 34.070628 24.894531 33.789062 L 32.894531 29.789062 C 33.508305 29.482159 33.921903 28.882036 33.990234 28.199219 L 34.990234 18.199219 C 35.076396 17.34007 34.601515 16.522613 33.8125 16.171875 L 24.8125 12.171875 C 24.568123 12.06333 24.304463 12.004886 24.037109 12 z M 24.017578 13 A 1.0001 1.0001 0 0 0 24.019531 13 C 24.153233 13.0024 24.284035 13.031648 24.40625 13.085938 L 33.40625 17.085938 C 33.804348 17.262902 34.039566 17.666123 33.996094 18.099609 L 32.996094 28.099609 C 32.961794 28.442367 32.755366 28.740472 32.447266 28.894531 L 24.447266 32.894531 C 24.164894 33.03572 23.835106 33.03572 23.552734 32.894531 L 15.552734 28.894531 C 15.244633 28.740472 15.038206 28.442365 15.003906 28.099609 L 14.003906 18.099609 C 13.960436 17.666126 14.195652 17.262902 14.59375 17.085938 L 23.59375 13.085938 C 23.727356 13.026567 23.871363 12.997249 24.017578 13 z "
       id="path817-3-6" />
  </g>
</svg>
