<?xml version="1.0" encoding="UTF-8" standalone="no"?>
<!-- Created with Inkscape (http://www.inkscape.org/) -->

<svg
   xmlns:dc="http://purl.org/dc/elements/1.1/"
   xmlns:cc="http://creativecommons.org/ns#"
   xmlns:rdf="http://www.w3.org/1999/02/22-rdf-syntax-ns#"
   xmlns:svg="http://www.w3.org/2000/svg"
   xmlns="http://www.w3.org/2000/svg"
   xmlns:sodipodi="http://sodipodi.sourceforge.net/DTD/sodipodi-0.dtd"
   xmlns:inkscape="http://www.inkscape.org/namespaces/inkscape"
   width="48px"
   height="48px"
   viewBox="0 0 48 48"
   version="1.1"
   id="SVGRoot"
   inkscape:version="0.92.4 (5da689c313, 2019-01-14)"
   sodipodi:docname="space-invaders-extreme.svg">
  <defs
     id="defs815" />
  <sodipodi:namedview
     id="base"
     pagecolor="#ffffff"
     bordercolor="#666666"
     borderopacity="1.0"
     inkscape:pageopacity="0.0"
     inkscape:pageshadow="2"
     inkscape:zoom="11.555837"
     inkscape:cx="32.427167"
     inkscape:cy="24.343413"
     inkscape:document-units="px"
     inkscape:current-layer="layer1"
     showgrid="true"
     inkscape:window-width="1920"
     inkscape:window-height="1017"
     inkscape:window-x="-8"
     inkscape:window-y="-8"
     inkscape:window-maximized="1"
     inkscape:grid-bbox="true"
     inkscape:snap-global="true">
    <inkscape:grid
       type="xygrid"
       id="grid1371" />
  </sodipodi:namedview>
  <metadata
     id="metadata818">
    <rdf:RDF>
      <cc:Work
         rdf:about="">
        <dc:format>image/svg+xml</dc:format>
        <dc:type
           rdf:resource="http://purl.org/dc/dcmitype/StillImage" />
        <dc:title></dc:title>
      </cc:Work>
    </rdf:RDF>
  </metadata>
  <g
     inkscape:label="Layer 1"
     inkscape:groupmode="layer"
     id="layer1">
    <rect
       style="opacity:1;vector-effect:none;fill:#4e4e4e;fill-opacity:1;fill-rule:evenodd;stroke:none;stroke-width:4;stroke-linecap:round;stroke-linejoin:round;stroke-miterlimit:4;stroke-dasharray:none;stroke-dashoffset:0;stroke-opacity:1;paint-order:stroke fill markers"
       id="rect1373"
       width="40"
       height="40"
       x="4"
       y="4"
       ry="4" />
    <path
       style="opacity:1;vector-effect:none;fill:#96d56b;fill-opacity:1;fill-rule:evenodd;stroke:none;stroke-width:12;stroke-linecap:round;stroke-linejoin:round;stroke-miterlimit:4;stroke-dasharray:none;stroke-opacity:1;paint-order:normal"
       d="m 15,12 v 3 h 3 v -3 z m 3,3 v 3 h -3 v 3 H 12 V 18 H 9 v 6 h 3 v 3 h 3 v 3 h 3 v 3 h 3 v -3 h 6 v 3 h 3 v -3 h 3 v -3 h 3 v -3 h 3 v -6 h -3 v 3 h -3 v -3 h -3 v -3 h -3 v 3 h -6 v -3 z m 12,0 h 3 v -3 h -3 z m 0,18 v 3 h 3 v -3 z m -12,0 h -3 v 3 h 3 z"
       id="rect818"
       inkscape:connector-curvature="0" />
    <path
       style="opacity:1;vector-effect:none;fill:#4e4e4e;fill-opacity:1;fill-rule:evenodd;stroke:none;stroke-width:12;stroke-linecap:round;stroke-linejoin:round;stroke-miterlimit:4;stroke-dasharray:none;stroke-opacity:1;paint-order:normal"
       d="m 18,21 v 3 h 3 v -3 z m 9,0 v 3 h 3 v -3 z"
       id="rect825"
       inkscape:connector-curvature="0" />
    <path
       style="opacity:1;vector-effect:none;fill:#b072dd;fill-opacity:1;fill-rule:evenodd;stroke:none;stroke-width:12;stroke-linecap:round;stroke-linejoin:round;stroke-miterlimit:4;stroke-dasharray:none;stroke-opacity:1;paint-order:normal"
       d="M 21 33 L 21 36 L 24 36 L 24 33 L 21 33 z M 24 36 L 24 39 L 21 39 L 21 42 L 18 42 L 18 39 L 15 39 L 15 44 L 40 44 C 42.216 44 44 42.216 44 40 L 44 39 L 42 39 L 42 42 L 39 42 L 39 39 L 36 39 L 36 36 L 33 36 L 33 39 L 27 39 L 27 36 L 24 36 z M 36 36 L 39 36 L 39 33 L 36 33 L 36 36 z "
       id="rect818-1" />
    <path
       style="opacity:1;vector-effect:none;fill:#d35244;fill-opacity:1;fill-rule:evenodd;stroke:none;stroke-width:12;stroke-linecap:round;stroke-linejoin:round;stroke-miterlimit:4;stroke-dasharray:none;stroke-opacity:1;paint-order:normal"
       d="M 8 4 C 7.2669714 4 6.5895523 4.2093018 6 4.5507812 L 6 6 L 9 6 L 9 9 L 12 9 L 12 12 L 15 12 L 15 9 L 21 9 L 21 12 L 24 12 L 24 9 L 27 9 L 27 6 L 30 6 L 30 4 L 8 4 z M 24 12 L 24 15 L 27 15 L 27 12 L 24 12 z M 12 12 L 9 12 L 9 15 L 12 15 L 12 12 z "
       id="rect818-1-6" />
    <path
       style="opacity:1;vector-effect:none;fill:#ffdd75;fill-opacity:1;fill-rule:evenodd;stroke:none;stroke-width:12;stroke-linecap:round;stroke-linejoin:round;stroke-miterlimit:4;stroke-dasharray:none;stroke-opacity:1;paint-order:normal"
       d="M 42 4.5507812 L 42 6 L 43.449219 6 C 43.09986 5.3968442 42.603156 4.9001401 42 4.5507812 z M 36 9 L 36 15 L 39 15 L 39 18 L 42 18 L 42 21 L 44 21 L 44 9 L 42 9 L 42 12 L 39 12 L 39 9 L 36 9 z M 42 24 L 42 27 L 44 27 L 44 24 L 42 24 z "
       id="rect818-1-6-7" />
    <path
       style="opacity:1;vector-effect:none;fill:#729dec;fill-opacity:1;fill-rule:evenodd;stroke:none;stroke-width:12;stroke-linecap:round;stroke-linejoin:round;stroke-miterlimit:4;stroke-dasharray:none;stroke-opacity:1;paint-order:normal"
       d="M 4 21 L 4 24 L 6 24 L 6 21 L 4 21 z M 4 27 L 4 39 L 6 39 L 6 36 L 9 36 L 9 33 L 12 33 L 12 27 L 9 27 L 9 30 L 6 30 L 6 27 L 4 27 z M 4.5507812 42 C 4.9001401 42.603156 5.3968442 43.09986 6 43.449219 L 6 42 L 4.5507812 42 z "
       id="rect818-1-6-7-5" />
    <path
       style="opacity:0.4;vector-effect:none;fill:#000000;fill-opacity:1;fill-rule:evenodd;stroke:none;stroke-width:4;stroke-linecap:round;stroke-linejoin:round;stroke-miterlimit:4;stroke-dasharray:none;stroke-dashoffset:0;stroke-opacity:1;paint-order:stroke fill markers"
       d="M 8 4 C 5.784 4 4 5.784 4 8 L 4 40 C 4 42.216 5.784 44 8 44 L 40 44 C 42.216 44 44 42.216 44 40 L 44 8 C 44 5.784 42.216 4 40 4 L 8 4 z M 8 5 L 40 5 C 41.662 5 43 6.338 43 8 L 43 40 C 43 41.662 41.662 43 40 43 L 8 43 C 6.338 43 5 41.662 5 40 L 5 8 C 5 6.338 6.338 5 8 5 z "
       id="rect826" />
  </g>
</svg>
