<?xml version="1.0" encoding="UTF-8" standalone="no"?>
<!-- Created with Inkscape (http://www.inkscape.org/) -->

<svg
   xmlns:dc="http://purl.org/dc/elements/1.1/"
   xmlns:cc="http://creativecommons.org/ns#"
   xmlns:rdf="http://www.w3.org/1999/02/22-rdf-syntax-ns#"
   xmlns:svg="http://www.w3.org/2000/svg"
   xmlns="http://www.w3.org/2000/svg"
   xmlns:sodipodi="http://sodipodi.sourceforge.net/DTD/sodipodi-0.dtd"
   xmlns:inkscape="http://www.inkscape.org/namespaces/inkscape"
   width="48px"
   height="48px"
   viewBox="0 0 48 48"
   version="1.1"
   id="SVGRoot"
   inkscape:version="0.92.4 (5da689c313, 2019-01-14)"
   sodipodi:docname="ssbr-icon.svg">
  <defs
     id="defs815" />
  <sodipodi:namedview
     id="base"
     pagecolor="#ffffff"
     bordercolor="#666666"
     borderopacity="1.0"
     inkscape:pageopacity="0.0"
     inkscape:pageshadow="2"
     inkscape:zoom="13.632692"
     inkscape:cx="13.864088"
     inkscape:cy="20.169513"
     inkscape:document-units="px"
     inkscape:current-layer="layer1"
     showgrid="true"
     inkscape:window-width="1920"
     inkscape:window-height="1017"
     inkscape:window-x="-8"
     inkscape:window-y="-8"
     inkscape:window-maximized="1"
     inkscape:grid-bbox="true"
     inkscape:snap-global="false">
    <inkscape:grid
       type="xygrid"
       id="grid1371" />
  </sodipodi:namedview>
  <metadata
     id="metadata818">
    <rdf:RDF>
      <cc:Work
         rdf:about="">
        <dc:format>image/svg+xml</dc:format>
        <dc:type
           rdf:resource="http://purl.org/dc/dcmitype/StillImage" />
        <dc:title></dc:title>
      </cc:Work>
    </rdf:RDF>
  </metadata>
  <g
     inkscape:label="Layer 1"
     inkscape:groupmode="layer"
     id="layer1">
    <rect
       style="opacity:1;vector-effect:none;fill:#d35244;fill-opacity:1;fill-rule:evenodd;stroke:none;stroke-width:4;stroke-linecap:round;stroke-linejoin:round;stroke-miterlimit:4;stroke-dasharray:none;stroke-dashoffset:0;stroke-opacity:1;paint-order:stroke fill markers"
       id="rect1373"
       width="40"
       height="40"
       x="4"
       y="4"
       ry="4" />
    <rect
       style="opacity:1;vector-effect:none;fill:#ffcd4b;fill-opacity:1;fill-rule:evenodd;stroke:none;stroke-width:2;stroke-linecap:round;stroke-linejoin:round;stroke-miterlimit:4;stroke-dasharray:none;stroke-dashoffset:0;stroke-opacity:1;paint-order:stroke fill markers"
       id="rect862"
       width="32"
       height="32"
       x="8"
       y="8"
       ry="2" />
    <path
       style="opacity:0.25;vector-effect:none;fill:#000000;fill-opacity:1;fill-rule:evenodd;stroke:none;stroke-width:4;stroke-linecap:round;stroke-linejoin:round;stroke-miterlimit:4;stroke-dasharray:none;stroke-dashoffset:0;stroke-opacity:1;paint-order:stroke fill markers"
       d="M 8 4 C 5.784 4 4 5.784 4 8 L 4 40 C 4 42.216 5.784 44 8 44 L 40 44 C 42.216 44 44 42.216 44 40 L 44 8 C 44 5.784 42.216 4 40 4 L 8 4 z M 8 5 L 40 5 C 41.662 5 43 6.338 43 8 L 43 40 C 43 41.662 41.662 43 40 43 L 8 43 C 6.338 43 5 41.662 5 40 L 5 8 C 5 6.338 6.338 5 8 5 z "
       id="rect826" />
    <path
       style="opacity:0.25;vector-effect:none;fill:#000000;fill-opacity:1;fill-rule:evenodd;stroke:none;stroke-width:2;stroke-linecap:round;stroke-linejoin:round;stroke-miterlimit:4;stroke-dasharray:none;stroke-opacity:1;paint-order:stroke fill markers"
       d="M 12 12 L 12 36 L 36 36 L 36 12 L 12 12 z M 13 13 L 35 13 L 35 35 L 13 35 L 13 13 z "
       id="rect817" />
    <path
       style="opacity:0.25;vector-effect:none;fill:#000000;fill-opacity:1;fill-rule:evenodd;stroke:none;stroke-width:2;stroke-linecap:round;stroke-linejoin:round;stroke-miterlimit:4;stroke-dasharray:none;stroke-opacity:1;paint-order:stroke fill markers"
       d="M 24 10 C 16.244 10 10 16.244 10 24 C 10 31.756 16.244 38 24 38 C 31.756 38 38 31.756 38 24 C 38 16.244 31.756 10 24 10 z M 24 11 C 31.202 11 37 16.798 37 24 C 37 31.202 31.202 37 24 37 C 16.798 37 11 31.202 11 24 C 11 16.798 16.798 11 24 11 z "
       id="rect822" />
    <rect
       style="opacity:1;vector-effect:none;fill:#4e4e4e;fill-opacity:1;fill-rule:evenodd;stroke:none;stroke-width:2;stroke-linecap:round;stroke-linejoin:round;stroke-miterlimit:4;stroke-dasharray:none;stroke-dashoffset:0;stroke-opacity:1;paint-order:stroke fill markers"
       id="rect864"
       width="28"
       height="28"
       x="10"
       y="10"
       ry="1" />
    <path
       style="fill:#a58858;stroke:none;stroke-width:1px;stroke-linecap:butt;stroke-linejoin:miter;stroke-opacity:1;opacity:0.25"
       d="M 11 10 C 10.446 10 10 10.446 10 11 L 10 12.759766 L 12.873047 15.320312 L 14.339844 12.203125 L 15.294922 12.498047 L 15.550781 11.689453 L 17.384766 11.800781 L 16.285156 10.736328 L 16.308594 10 L 11 10 z M 17.455078 10 L 18.228516 10.773438 L 16.871094 10.443359 L 18.265625 11.873047 L 19.658203 10.845703 L 20.134766 11.212891 L 18.998047 12.533203 L 20.722656 11.580078 L 20.746094 10 L 17.455078 10 z M 31.605469 10 L 29.121094 12.423828 L 30.699219 14.771484 L 35.539062 14.955078 L 32.851562 10 L 31.605469 10 z M 33.597656 10 L 36.162109 14.734375 L 38 13.150391 L 38 11 C 38 10.446 37.554 10 37 10 L 33.597656 10 z M 20.576172 12.314453 L 18.595703 13.560547 L 19.804688 14.367188 L 17.091797 15.798828 L 16.6875 14.990234 L 12.175781 17.558594 L 12.617188 16.091797 L 10 13.617188 L 10 20.724609 L 12.029297 20.236328 L 11.185547 18.402344 L 11.773438 18.21875 L 14.707031 19.355469 L 14.927734 18.474609 L 15.660156 18.474609 L 21.712891 21.373047 L 23.435547 20.308594 L 24.5 16.347656 L 22.921875 12.863281 L 20.576172 12.314453 z M 28.644531 13.560547 L 28.314453 18.769531 L 34.181641 23.574219 L 35.869141 23.5 L 31.835938 18.841797 L 29.304688 18.988281 L 29.011719 17.960938 L 31.689453 17.742188 L 28.644531 13.560547 z M 36.492188 16.164062 L 36.824219 22.765625 L 38 22.820312 L 38 17.722656 L 36.492188 16.164062 z M 31.285156 22.472656 L 28.716797 22.546875 L 33.742188 26.433594 L 38 27.517578 L 38 24.027344 L 34.072266 24.710938 L 31.285156 22.472656 z "
       id="path967" />
    <path
       style="opacity:1;fill:#a58858;stroke:none;stroke-width:1px;stroke-linecap:butt;stroke-linejoin:miter;stroke-opacity:1"
       d="m 15.697266,18.402344 c 0,0 0.04918,0.992655 0.183593,1.466797 0.212982,0.751304 1.027344,1.246093 1.027344,1.246093 L 16.027344,21.005859 14.560547,19.685547 11.333984,19.576172 10,20.253906 v 14.228516 c 0.396176,-0.263709 0.829487,-0.553706 1.230469,-0.824219 0,0 -0.893504,-5.939463 4.693359,-7.935547 -5.122901,2.463282 -3.941406,8.142578 -3.941406,8.142578 1.183336,1.846109 3.076103,2.863522 5.146484,3.388672 0,0 -2.529234,-2.314593 -2.384765,-5.794922 0.144883,-3.490326 3.886718,-5.318359 3.886718,-5.318359 0,0 -2.933593,1.767596 -2.933593,5.097656 0.158384,0.261684 0.651596,0.113259 0.917968,-0.03711 0.659577,-3.597477 3.335938,-5.060547 3.335938,-5.060547 0,0 -2.867002,2.361229 -2.529297,5.978516 0.339457,3.636065 2.049448,5.769997 6.271484,5.867187 C 25.307183,38.023518 27.25,36.996094 27.25,36.996094 L 26.248047,38 h 3.630859 l -0.394733,-3.046615 c 0,0 0.768619,-1.56026 0.676969,-4.509039 -0.05447,-1.752619 -1.516611,-3.350596 -1.516611,-3.350596 l -0.476562,-3.777344 -5.427735,-2.677734 h -2.935546 l -0.878907,-2.015625 z m 9.724609,7.24414 c 0.38074,0 0.6875,0.30676 0.6875,0.6875 v 0.07813 c 0,0.380741 -0.30676,0.6875 -0.6875,0.6875 -0.38074,0 -0.6875,-0.306759 -0.6875,-0.6875 v -0.07813 c 0,-0.38074 0.30676,-0.6875 0.6875,-0.6875 z M 24.242188,26.0625 c 0,0 -0.213778,0.504339 0.103515,1.087891 0.254941,0.468872 0.933594,0.648437 0.933594,0.648437 0,0 -0.713947,0.316704 -1.21875,-0.363281 -0.464086,-0.625138 0.181639,-1.373047 0.181641,-1.373047 z m -8.810547,0.464844 C 13.22126,29.101498 13.875,32.595703 13.875,32.595703 l -1.322266,0.05078 c 0,0 -0.694872,-3.847999 2.878907,-6.11914 z m 6.496093,0.335937 c 0.380741,0 0.6875,0.30676 0.6875,0.6875 v 0.07813 c 0,0.380741 -0.306759,0.6875 -0.6875,0.6875 -0.38074,0 -0.6875,-0.306759 -0.6875,-0.6875 v -0.07813 c 0,-0.38074 0.30676,-0.6875 0.6875,-0.6875 z m -1.179687,0.416016 c 0,0 -0.213777,0.504338 0.103515,1.087891 0.254941,0.468872 0.933594,0.648437 0.933594,0.648437 0,0 -0.713947,0.316704 -1.21875,-0.363281 -0.464086,-0.625138 0.181641,-1.373047 0.181641,-1.373047 z m 7.318359,0.3125 c 0.380741,0 0.6875,0.306759 0.6875,0.6875 v 0.07813 c 0,0.38074 -0.306759,0.6875 -0.6875,0.6875 -0.38074,0 -0.6875,-0.30676 -0.6875,-0.6875 v -0.07813 c 0,-0.380741 0.30676,-0.6875 0.6875,-0.6875 z m -1.179687,0.414062 c 0,0 -0.213778,0.506292 0.103515,1.089844 0.254941,0.468872 0.933594,0.648438 0.933594,0.648438 0,0 -0.713947,0.316703 -1.21875,-0.363282 -0.464086,-0.625138 0.181641,-1.375 0.181641,-1.375 z m -2.421875,1.527344 c 0.679834,0.110495 1.295915,0.976936 1.443359,1.662109 0.1746,0.811367 -0.139123,2.066605 -0.933594,2.306641 -0.791881,0.239253 -1.836263,-0.600932 -2.048828,-1.400391 -0.244398,-0.919181 0.308122,-2.397606 1.244141,-2.566406 0.09853,-0.01777 0.197803,-0.01769 0.294922,-0.002 z M 22.5625,29.767578 c 0,0 -0.554552,1.333283 -0.128906,2.619141 0.54406,1.64358 1.763672,1.791015 1.763672,1.791015 0,0 -1.473241,0.153838 -2.152344,-1.478515 -0.671886,-1.615004 0.517578,-2.931641 0.517578,-2.931641 z m -2.613281,0.314453 c 0.38074,0 0.6875,0.30676 0.6875,0.6875 v 0.07617 c 0,0.380741 -0.30676,0.6875 -0.6875,0.6875 -0.380741,0 -0.6875,-0.306759 -0.6875,-0.6875 v -0.07617 c 0,-0.38074 0.306759,-0.6875 0.6875,-0.6875 z m -1.179688,0.414063 c 0,0 -0.213777,0.506291 0.103516,1.089844 0.254941,0.468871 0.933594,0.648437 0.933594,0.648437 0,0 -0.713947,0.316704 -1.21875,-0.363281 -0.464086,-0.625138 0.18164,-1.375 0.18164,-1.375 z m 10.205078,0.207031 c 0.380741,0 0.6875,0.30676 0.6875,0.6875 v 0.07813 c 0,0.38074 -0.306759,0.6875 -0.6875,0.6875 -0.38074,0 -0.6875,-0.30676 -0.6875,-0.6875 v -0.07813 c 0,-0.38074 0.30676,-0.6875 0.6875,-0.6875 z m -1.179687,0.416016 c 0,0 -0.213779,0.506291 0.103516,1.089843 0.25494,0.468872 0.933593,0.646485 0.933593,0.646485 0,0 -0.713947,0.318657 -1.21875,-0.361328 -0.464086,-0.625138 0.181641,-1.375 0.181641,-1.375 z m -6.833984,2.515625 c 0.380739,0 0.6875,0.306759 0.6875,0.6875 v 0.07813 c 0,0.38074 -0.306761,0.685547 -0.6875,0.685547 -0.380743,0 -0.6875,-0.304807 -0.6875,-0.685547 v -0.07813 c 0,-0.380741 0.306757,-0.6875 0.6875,-0.6875 z m -1.179688,0.414062 c 0,0 -0.213777,0.506292 0.103516,1.089844 0.254941,0.468872 0.933593,0.648437 0.933593,0.648437 0,0 -0.713947,0.316704 -1.21875,-0.363281 -0.464086,-0.625138 0.181641,-1.375 0.181641,-1.375 z m 7.455078,0.02734 c 0.380741,0 0.6875,0.304806 0.6875,0.685547 v 0.07813 c 0,0.38074 -0.306759,0.6875 -0.6875,0.6875 -0.38074,0 -0.6875,-0.30676 -0.6875,-0.6875 v -0.07813 c 0,-0.380741 0.30676,-0.685547 0.6875,-0.685547 z m -15.976562,0.24414 -0.404297,0.953126 c 0,0 1.203087,1.895707 4.402343,2.347656 -2.632759,-1.215926 -3.998046,-3.300782 -3.998046,-3.300782 z m 14.796875,0.169922 c 0,0 -0.213778,0.506292 0.103515,1.089844 0.254941,0.468872 0.933594,0.648438 0.933594,0.648438 0,0 -0.713947,0.316703 -1.21875,-0.363282 -0.464086,-0.625138 0.181641,-1.375 0.181641,-1.375 z m -1.853516,0.751954 c 0.38074,0 0.6875,0.306758 0.6875,0.6875 v 0.07812 c 0,0.380742 -0.30676,0.6875 -0.6875,0.6875 -0.38074,0 -0.6875,-0.306758 -0.6875,-0.6875 v -0.07812 c 0,-0.380742 0.30676,-0.6875 0.6875,-0.6875 z m -1.179687,0.416015 c 0,0 -0.213778,0.504339 0.103515,1.087891 0.254941,0.468872 0.933594,0.648437 0.933594,0.648437 0,0 -0.713947,0.316704 -1.21875,-0.363281 -0.464086,-0.625138 0.18164,-1.373047 0.181641,-1.373047 z"
       id="path870"
       inkscape:connector-curvature="0"
       sodipodi:nodetypes="ccccccccccccsccccsccccccccccccssssssscccscccccssssssscccscssssssscccsccssscccscscssssssscccscssssssscscscssssssscccscssssssscccccccscssssssscccsc" />
    <path
       style="fill:#ffcd4b;stroke:none;stroke-width:1px;stroke-linecap:butt;stroke-linejoin:miter;stroke-opacity:1"
       d="M 28,38 38,28 39,39 Z"
       id="path866"
       inkscape:connector-curvature="0"
       sodipodi:nodetypes="cccc" />
    <path
       style="fill:#4e4e4e;stroke:none;stroke-width:1.15663886px;stroke-linecap:butt;stroke-linejoin:miter;stroke-opacity:1"
       d="m 34.014499,33.02623 v 0.869872 h 2.867342 v 1.056276 h -1.99845 c -0.881454,0 -0.825448,0.885407 -0.825448,0.885407 v 2.159151 h 3.924494 V 36.94066 h -2.780453 v -0.90094 h 1.882598 c 0,0 0.883374,-0.03449 0.883374,-0.947541 v -1.133943 c 0,-0.940752 -0.876133,-0.939774 -0.876133,-0.939774 z"
       id="path868"
       inkscape:connector-curvature="0"
       sodipodi:nodetypes="ccccscccccccsscc" />
    <path
       style="fill:#ffcd4b;stroke:none;stroke-width:1px;stroke-linecap:butt;stroke-linejoin:miter;stroke-opacity:1"
       d="M 22 12 C 20 12 20 14 20 14 L 20 14.5 L 22 14.5 L 22 14 L 27 14 L 29 12 L 22 12 z M 20 15.5 L 20 16 C 20 16 20 18 22 18 L 28 18 L 28 18.5 L 30 18.5 L 30 18 L 35 18 L 37 16 L 22 16 L 22 15.5 L 20 15.5 z M 28 19.5 L 28 20 L 22 20 L 20 22 L 35 22 L 35 22.5 L 37 22.5 L 37 22 C 37 22 37 20 35 20 L 30 20 L 30 19.5 L 28 19.5 z M 35 23.5 L 35 24 L 30 24 L 28 26 L 35 26 C 37 26 37 24 37 24 L 37 23.5 L 35 23.5 z "
       id="path830" />
  </g>
</svg>
