<?xml version="1.0" encoding="UTF-8" standalone="no"?>
<!-- Created with Inkscape (http://www.inkscape.org/) -->

<svg
   xmlns:dc="http://purl.org/dc/elements/1.1/"
   xmlns:cc="http://creativecommons.org/ns#"
   xmlns:rdf="http://www.w3.org/1999/02/22-rdf-syntax-ns#"
   xmlns:svg="http://www.w3.org/2000/svg"
   xmlns="http://www.w3.org/2000/svg"
   xmlns:xlink="http://www.w3.org/1999/xlink"
   xmlns:sodipodi="http://sodipodi.sourceforge.net/DTD/sodipodi-0.dtd"
   xmlns:inkscape="http://www.inkscape.org/namespaces/inkscape"
   width="48px"
   height="48px"
   viewBox="0 0 48 48"
   version="1.1"
   id="SVGRoot"
   inkscape:version="0.92.4 (5da689c313, 2019-01-14)"
   sodipodi:docname="tes-skyrim.svg">
  <defs
     id="defs815">
    <linearGradient
       gradientTransform="matrix(0.9965784,0,0,0.9962666,-89.841948,-62.996045)"
       id="IcecapTip-6"
       xlink:href="#WhiteTransparent-4"
       x1="60"
       y1="20"
       x2="90"
       y2="50"
       gradientUnits="userSpaceOnUse" />
    <linearGradient
       id="WhiteTransparent-4"
       gradientUnits="userSpaceOnUse">
      <stop
         style="stop-color:white;stop-opacity:1"
         offset="0"
         id="stop7606-4" />
      <stop
         style="stop-color:white;stop-opacity:0"
         offset="1"
         id="stop7608-7" />
    </linearGradient>
  </defs>
  <sodipodi:namedview
     id="base"
     pagecolor="#ffffff"
     bordercolor="#666666"
     borderopacity="1.0"
     inkscape:pageopacity="0.0"
     inkscape:pageshadow="2"
     inkscape:zoom="3.943468"
     inkscape:cx="25.048406"
     inkscape:cy="26.393729"
     inkscape:document-units="px"
     inkscape:current-layer="layer1"
     showgrid="true"
     inkscape:window-width="725"
     inkscape:window-height="405"
     inkscape:window-x="936"
     inkscape:window-y="291"
     inkscape:window-maximized="0"
     inkscape:grid-bbox="true"
     inkscape:snap-global="false">
    <inkscape:grid
       type="xygrid"
       id="grid1371" />
  </sodipodi:namedview>
  <metadata
     id="metadata818">
    <rdf:RDF>
      <cc:Work
         rdf:about="">
        <dc:format>image/svg+xml</dc:format>
        <dc:type
           rdf:resource="http://purl.org/dc/dcmitype/StillImage" />
        <dc:title></dc:title>
      </cc:Work>
    </rdf:RDF>
  </metadata>
  <g
     inkscape:label="Layer 1"
     inkscape:groupmode="layer"
     id="layer1">
    <rect
       style="opacity:1;vector-effect:none;fill:#4e4e4e;fill-opacity:1;fill-rule:evenodd;stroke:none;stroke-width:4;stroke-linecap:round;stroke-linejoin:round;stroke-miterlimit:4;stroke-dasharray:none;stroke-dashoffset:0;stroke-opacity:1;paint-order:stroke fill markers"
       id="rect1373"
       width="40"
       height="40"
       x="4"
       y="4"
       ry="4" />
    <path
       style="fill:#ffffff;stroke-width:0.03966366"
       d="M 23.488281 4 C 22.265353 6.6564737 22.068056 7.081185 20.363281 10.787109 C 16.529828 19.120446 13.376869 25.976978 13.355469 26.023438 C 13.322733 26.094126 14.458642 28.601936 20.326172 41.394531 C 20.981789 42.823931 20.919587 42.684358 21.523438 44 L 25.566406 44 C 24.825275 43.433389 24.211591 42.683194 23.636719 41.605469 L 23.392578 41.150391 L 23.59375 39.851562 C 23.989282 37.283683 24.050058 36.620909 24.023438 35.230469 C 24.012744 34.668733 24.008472 34.208984 24.013672 34.208984 C 24.043411 34.208984 24.835302 34.549416 25.003906 34.634766 C 25.563107 34.917864 26.139966 35.400621 26.517578 35.902344 C 26.996741 36.539008 27.30836 37.29776 27.517578 38.333984 L 27.632812 38.910156 L 27.681641 38.730469 C 27.879801 38.000694 27.9359 37.567055 27.9375 36.748047 C 27.93835 36.30084 27.915229 35.749175 27.886719 35.523438 C 27.858139 35.297682 27.845072 35.104147 27.857422 35.091797 C 27.893711 35.055505 28.904091 35.574948 29.269531 35.818359 C 30.21308 36.446848 30.922864 37.228392 31.498047 38.265625 C 31.706179 38.640948 31.75023 38.765873 32.058594 39.900391 C 32.572276 41.790387 32.780199 42.877733 32.824219 43.90625 C 32.825771 43.942524 32.822999 43.965331 32.824219 44 L 35.394531 44 C 35.429318 43.326292 35.375402 42.441835 35.21875 40.951172 C 34.978348 38.663701 34.979675 38.722123 35.21875 37.794922 C 35.414849 37.034414 35.705835 36.509567 36.248047 35.941406 C 36.522596 35.653723 37.341695 35.048726 37.390625 35.097656 C 37.401545 35.108625 37.385439 35.328668 37.355469 35.585938 C 37.325559 35.843198 37.301334 36.383535 37.302734 36.787109 C 37.305066 37.450513 37.317121 37.577863 37.429688 38.117188 C 37.602659 38.945988 37.613181 38.964435 37.675781 38.607422 C 37.704019 38.446573 37.785692 38.079785 37.857422 37.792969 C 38.290768 36.059368 39.310211 34.928533 41.009766 34.298828 L 41.230469 34.216797 L 41.228516 35.492188 C 41.227257 36.966537 41.287416 37.553149 41.728516 40.332031 L 41.855469 41.121094 L 41.705078 41.423828 C 41.159254 42.530681 40.495353 43.36375 39.677734 44 L 40 44 C 42.216 44 44 42.216 44 40 L 44 25.990234 C 43.818901 26.52029 43.497685 26.800483 42.806641 27 C 42.35621 27.130048 41.307573 27.128836 40.658203 26.998047 C 39.680212 26.801104 39.413756 26.586573 39.410156 25.996094 C 39.406133 25.351614 40.191785 24.430842 41.162109 23.939453 C 41.256975 23.891432 41.3243 23.841878 41.3125 23.830078 C 41.272522 23.790068 40.338295 23.900446 40.056641 23.978516 C 39.762048 24.060153 39.264767 24.294373 38.927734 24.509766 C 38.563841 24.742294 37.852841 25.462322 37.570312 25.886719 C 37.263598 26.347438 36.977441 26.969981 36.806641 27.544922 C 36.739438 27.771325 36.679275 27.963303 36.671875 27.970703 C 36.650935 27.991635 36.684636 27.405034 36.728516 26.990234 C 36.793567 26.375079 36.815274 26.310838 37.464844 24.816406 L 37.521484 24.685547 L 37.332031 24.794922 C 36.090961 25.509883 35.50008 26.207524 35.097656 27.433594 C 35.030781 27.637307 34.967158 27.830571 34.955078 27.863281 C 34.943028 27.896 34.898252 27.760549 34.857422 27.5625 C 34.67783 26.691708 34.197831 25.587442 33.625 24.728516 C 33.443015 24.455638 32.998122 23.841064 32.636719 23.361328 C 31.341113 21.641525 31.213991 21.404437 31.212891 20.722656 C 31.211714 19.976306 31.52094 19.426959 32.197266 18.974609 C 32.359789 18.865908 33.011332 18.517245 33.646484 18.199219 C 35.074198 17.484345 35.673847 17.099561 36.232422 16.541016 C 37.092596 15.680889 37.478516 14.753932 37.478516 13.548828 C 37.478516 12.930352 37.398342 12.569407 37.144531 12.056641 C 36.657615 11.072972 35.676074 10.283287 34.445312 9.8847656 C 34.270794 9.8282898 33.971227 9.7348144 33.779297 9.6777344 C 33.274338 9.5275769 33.182628 9.3971968 33.351562 9.0703125 C 33.502279 8.7786856 33.886522 8.4801583 34.662109 8.0527344 C 35.175284 7.7699247 35.344528 7.6542656 35.630859 7.3925781 C 35.974598 7.0783719 36.064405 6.8994292 36.078125 6.4882812 C 36.089215 6.1543663 36.088066 6.1498963 36.035156 6.3085938 C 35.859109 6.8367108 35.533943 7.0757384 34.679688 7.3046875 C 34.303312 7.4058389 34.234386 7.4120924 33.078125 7.4277344 C 31.780176 7.4454894 31.664282 7.4328786 31.449219 7.2519531 C 31.172526 7.0191291 30.555975 5.4640662 30.361328 4.5097656 C 30.325502 4.3341852 30.317557 4.1859365 30.332031 4 L 29.683594 4 C 29.525479 4.4575068 29.49604 4.9931413 29.585938 5.8691406 C 29.648878 6.4834641 29.649281 7.0394084 29.587891 7.3320312 C 29.559118 7.4692251 29.416988 7.8018677 29.240234 8.1445312 C 29.075502 8.4638774 28.847793 8.935317 28.734375 9.1914062 L 28.527344 9.65625 L 28.580078 9.9238281 C 28.725372 10.674517 28.57901 11.208681 28.074219 11.777344 L 27.839844 12.041016 L 27.839844 12.447266 C 27.839844 13.084868 27.999904 13.554312 28.330078 13.894531 C 28.489577 14.058829 28.744011 14.242911 28.769531 14.212891 C 28.776311 14.204949 28.818028 13.984426 28.861328 13.722656 C 28.949996 13.187039 29.059372 12.879977 29.289062 12.533203 C 29.744038 11.846342 30.929162 11.008608 31.767578 10.78125 C 32.149091 10.677824 32.985624 10.685488 33.433594 10.796875 C 34.312275 11.015349 35.172465 11.53346 35.6875 12.152344 C 36.250598 12.829003 36.367741 13.787916 35.984375 14.574219 C 35.879313 14.789713 35.749229 14.964042 35.5 15.222656 C 34.811624 15.936839 34.235395 16.273607 32.9375 16.71875 C 31.209498 17.311411 30.369208 17.756259 29.685547 18.443359 C 28.787637 19.345788 28.340495 20.583877 28.472656 21.798828 C 28.564412 22.642232 28.703255 23.127646 29.501953 25.404297 C 29.683027 25.920422 29.915859 26.712891 29.886719 26.712891 C 29.88049 26.712891 29.791291 26.570911 29.689453 26.398438 C 29.462848 26.01469 29.063915 25.576666 28.693359 25.304688 C 28.325874 25.034976 27.804234 24.713344 27.777344 24.740234 C 27.765544 24.752065 27.864157 25.007871 27.998047 25.306641 C 28.432353 26.275873 28.515403 26.610311 28.570312 27.625 L 28.589844 28.001953 L 28.421875 27.486328 C 28.147068 26.647589 27.780216 25.942677 27.367188 25.462891 C 26.748766 24.74451 25.906293 24.174118 25.171875 23.976562 C 24.904507 23.904639 24.252669 23.816859 24.003906 23.818359 L 23.894531 23.818359 L 24.013672 23.890625 C 24.079115 23.930306 24.266078 24.042372 24.429688 24.138672 C 25.022666 24.487685 25.598482 25.145155 25.779297 25.681641 C 25.906867 26.060043 25.830084 26.42158 25.572266 26.662109 C 25.257248 26.955995 23.616591 27.199049 22.804688 27.072266 C 22.158872 26.971403 21.62624 26.700105 21.412109 26.363281 C 21.20348 26.035063 21.118647 25.684789 21.123047 25.166016 C 21.129172 24.469015 21.242528 23.693446 21.654297 21.537109 C 22.144626 18.969448 22.324551 18.127982 22.394531 18.076172 C 22.536187 17.971288 22.913829 17.857684 23.179688 17.839844 C 23.642193 17.808222 24.226748 18.005071 24.720703 18.359375 C 24.956521 18.52852 25.446167 19.010534 25.75 19.373047 C 25.883838 19.532657 25.89728 19.538742 25.896484 19.451172 C 25.895112 19.299593 25.754779 18.703598 25.662109 18.457031 C 25.50935 18.05062 25.273125 17.750701 24.529297 17.015625 C 24.030312 16.522504 23.758929 16.220959 23.652344 16.042969 L 23.498047 15.785156 L 23.501953 15.230469 C 23.505822 14.778992 23.533827 14.519009 23.654297 13.841797 C 24.033577 11.70972 25.132845 7.2066347 26.005859 4 L 23.488281 4 z M 39.251953 4 C 40.227755 7.6317879 41.240991 11.87789 41.585938 13.791016 C 41.706604 14.460314 41.731628 14.694892 41.736328 15.189453 C 41.741408 15.706387 41.733579 15.80322 41.667969 15.923828 C 41.478251 16.272537 41.176441 16.609438 40.392578 17.351562 C 39.955483 17.765388 39.768063 18.025311 39.605469 18.435547 C 39.492682 18.720108 39.331803 19.384299 39.351562 19.486328 C 39.358697 19.523156 39.452592 19.436689 39.595703 19.261719 C 40.129533 18.609133 40.700187 18.16967 41.294922 17.953125 C 41.53692 17.865169 41.649237 17.84917 41.980469 17.849609 C 42.332531 17.850103 42.405927 17.862238 42.634766 17.964844 C 42.776587 18.028402 42.898497 18.084591 42.904297 18.087891 C 42.9191 18.09673 43.271618 19.860872 43.566406 21.398438 C 43.78109 22.518206 43.909228 23.263042 44 23.875 L 44 8.8710938 C 43.577734 7.9520687 43.153986 7.0276602 42.019531 4.5625 C 41.425593 4.2139415 40.741178 4 40 4 L 39.251953 4 z "
       id="path828" />
    <path
       style="opacity:0.4;vector-effect:none;fill:#000000;fill-opacity:1;fill-rule:evenodd;stroke:none;stroke-width:4;stroke-linecap:round;stroke-linejoin:round;stroke-miterlimit:4;stroke-dasharray:none;stroke-dashoffset:0;stroke-opacity:1;paint-order:stroke fill markers"
       d="M 8 4 C 5.784 4 4 5.784 4 8 L 4 40 C 4 42.216 5.784 44 8 44 L 40 44 C 42.216 44 44 42.216 44 40 L 44 8 C 44 5.784 42.216 4 40 4 L 8 4 z M 8 5 L 40 5 C 41.662 5 43 6.338 43 8 L 43 40 C 43 41.662 41.662 43 40 43 L 8 43 C 6.338 43 5 41.662 5 40 L 5 8 C 5 6.338 6.338 5 8 5 z "
       id="rect826" />
  </g>
</svg>
