<?xml version="1.0" encoding="UTF-8" standalone="no"?>
<!-- Created with Inkscape (http://www.inkscape.org/) -->

<svg
   xmlns:dc="http://purl.org/dc/elements/1.1/"
   xmlns:cc="http://creativecommons.org/ns#"
   xmlns:rdf="http://www.w3.org/1999/02/22-rdf-syntax-ns#"
   xmlns:svg="http://www.w3.org/2000/svg"
   xmlns="http://www.w3.org/2000/svg"
   xmlns:sodipodi="http://sodipodi.sourceforge.net/DTD/sodipodi-0.dtd"
   xmlns:inkscape="http://www.inkscape.org/namespaces/inkscape"
   width="48px"
   height="48px"
   viewBox="0 0 48 48"
   version="1.1"
   id="SVGRoot"
   inkscape:version="0.92.4 (5da689c313, 2019-01-14)"
   sodipodi:docname="uplink.svg">
  <defs
     id="defs815">
    <inkscape:perspective
       id="perspective854"
       inkscape:persp3d-origin="24 : 16 : 1"
       inkscape:vp_z="48 : 24 : 1"
       inkscape:vp_y="0 : 1000 : 0"
       inkscape:vp_x="0 : 24 : 1"
       sodipodi:type="inkscape:persp3d" />
  </defs>
  <sodipodi:namedview
     id="base"
     pagecolor="#ffffff"
     bordercolor="#666666"
     borderopacity="1.0"
     inkscape:pageopacity="0.0"
     inkscape:pageshadow="2"
     inkscape:zoom="13.632692"
     inkscape:cx="11.225963"
     inkscape:cy="26.866715"
     inkscape:document-units="px"
     inkscape:current-layer="layer1"
     showgrid="true"
     inkscape:window-width="1920"
     inkscape:window-height="1017"
     inkscape:window-x="-8"
     inkscape:window-y="-8"
     inkscape:window-maximized="1"
     inkscape:grid-bbox="true"
     inkscape:snap-global="true"
     showguides="false">
    <inkscape:grid
       type="xygrid"
       id="grid1371" />
  </sodipodi:namedview>
  <metadata
     id="metadata818">
    <rdf:RDF>
      <cc:Work
         rdf:about="">
        <dc:format>image/svg+xml</dc:format>
        <dc:type
           rdf:resource="http://purl.org/dc/dcmitype/StillImage" />
        <dc:title />
      </cc:Work>
    </rdf:RDF>
  </metadata>
  <g
     inkscape:label="Layer 1"
     inkscape:groupmode="layer"
     id="layer1">
    <rect
       style="opacity:1;vector-effect:none;fill:#485fa9;fill-opacity:1;fill-rule:evenodd;stroke:none;stroke-width:4;stroke-linecap:round;stroke-linejoin:round;stroke-miterlimit:4;stroke-dasharray:none;stroke-dashoffset:0;stroke-opacity:1;paint-order:stroke fill markers"
       id="rect1373-5"
       width="40"
       height="40"
       x="4"
       y="4"
       ry="4" />
    <path
       inkscape:connector-curvature="0"
       style="opacity:0.25;fill:#000000;fill-opacity:1;stroke:none;stroke-width:1px;stroke-linecap:butt;stroke-linejoin:miter;stroke-opacity:1"
       d="M 8,4 C 5.784,4 4,5.784 4,8 v 11 l 12,12 v 5 c 0,5 6,5 6,5 v 3 h 18 c 2.216,0 4,-1.784 4,-4 0,0 0,-6 -6,-6 h -6 v -6 c 0,0 0,-4 -4,-4 H 15 v -3 h 3 c 4,0 4,-4 4,-4 v -7 h 7 c 3,0 3,-3 3,-3 V 4 Z"
       id="path874" />
    <path
       inkscape:connector-curvature="0"
       style="opacity:0.4;vector-effect:none;fill:#000000;fill-opacity:1;fill-rule:evenodd;stroke:none;stroke-width:4;stroke-linecap:round;stroke-linejoin:round;stroke-miterlimit:4;stroke-dasharray:none;stroke-dashoffset:0;stroke-opacity:1;paint-order:stroke fill markers"
       d="M 8,4 C 5.784,4 4,5.784 4,8 v 32 c 0,2.216 1.784,4 4,4 h 32 c 2.216,0 4,-1.784 4,-4 V 8 C 44,5.784 42.216,4 40,4 Z m 0,1 h 32 c 1.662,0 3,1.338 3,3 v 32 c 0,1.662 -1.338,3 -3,3 H 8 C 6.338,43 5,41.662 5,40 V 8 C 5,6.338 6.338,5 8,5 Z"
       id="rect847" />
    <path
       style="fill:#dfecfc;stroke:none;stroke-width:1px;stroke-linecap:butt;stroke-linejoin:miter;stroke-opacity:1;fill-opacity:1"
       d="m 12,16 h 6 v 10 h 10 c 2,0 2,-1 2,-1 v -9 h 6 v 12 c 0,0 0,4 -7,4 H 12 Z"
       id="path828"
       inkscape:connector-curvature="0"
       sodipodi:nodetypes="cccsccccscc" />
    <rect
       style="opacity:1;vector-effect:none;fill:#dfecfc;fill-opacity:1;fill-rule:evenodd;stroke:none;stroke-width:4;stroke-linecap:round;stroke-linejoin:round;stroke-miterlimit:4;stroke-dasharray:none;stroke-opacity:1;paint-order:stroke fill markers"
       id="rect830"
       width="6"
       height="4"
       x="21"
       y="14" />
  </g>
</svg>
