<?xml version="1.0" encoding="UTF-8" standalone="no"?>
<!-- Created with Inkscape (http://www.inkscape.org/) -->

<svg
   xmlns:dc="http://purl.org/dc/elements/1.1/"
   xmlns:cc="http://creativecommons.org/ns#"
   xmlns:rdf="http://www.w3.org/1999/02/22-rdf-syntax-ns#"
   xmlns:svg="http://www.w3.org/2000/svg"
   xmlns="http://www.w3.org/2000/svg"
   xmlns:sodipodi="http://sodipodi.sourceforge.net/DTD/sodipodi-0.dtd"
   xmlns:inkscape="http://www.inkscape.org/namespaces/inkscape"
   width="48px"
   height="48px"
   viewBox="0 0 48 48"
   version="1.1"
   id="SVGRoot"
   inkscape:version="0.92.4 (5da689c313, 2019-01-14)"
   sodipodi:docname="urban-terror.svg">
  <defs
     id="defs815">
    <linearGradient
       gradientUnits="userSpaceOnUse"
       y2="39"
       y1="7"
       x2="24"
       x1="24"
       id="linearGradient1552">
      <stop
         id="stop823"
         offset="0"
         stop-color="#92b4da" />
      <stop
         id="stop825"
         offset="1"
         stop-color="#547cb1" />
    </linearGradient>
    <linearGradient
       gradientUnits="userSpaceOnUse"
       gradientTransform="translate(0,-1)"
       y2="37"
       y1="11"
       x2="24"
       x1="24"
       id="linearGradient857">
      <stop
         id="stop828"
         offset="0"
         stop-color="#dbe1e9" />
      <stop
         id="stop830"
         offset="1"
         stop-color="#b9c4d4" />
    </linearGradient>
  </defs>
  <sodipodi:namedview
     id="base"
     pagecolor="#ffffff"
     bordercolor="#666666"
     borderopacity="1.0"
     inkscape:pageopacity="0.0"
     inkscape:pageshadow="2"
     inkscape:zoom="19.279538"
     inkscape:cx="10.621412"
     inkscape:cy="20.525482"
     inkscape:document-units="px"
     inkscape:current-layer="layer1"
     showgrid="true"
     inkscape:window-width="1920"
     inkscape:window-height="1017"
     inkscape:window-x="-8"
     inkscape:window-y="-8"
     inkscape:window-maximized="1"
     inkscape:grid-bbox="true"
     inkscape:snap-global="false">
    <inkscape:grid
       type="xygrid"
       id="grid1371" />
  </sodipodi:namedview>
  <metadata
     id="metadata818">
    <rdf:RDF>
      <cc:Work
         rdf:about="">
        <dc:format>image/svg+xml</dc:format>
        <dc:type
           rdf:resource="http://purl.org/dc/dcmitype/StillImage" />
        <dc:title></dc:title>
      </cc:Work>
    </rdf:RDF>
  </metadata>
  <g
     inkscape:label="Layer 1"
     inkscape:groupmode="layer"
     id="layer1">
    <rect
       style="opacity:1;vector-effect:none;fill:#efefef;fill-opacity:1;fill-rule:evenodd;stroke:none;stroke-width:4;stroke-linecap:round;stroke-linejoin:round;stroke-miterlimit:4;stroke-dasharray:none;stroke-dashoffset:0;stroke-opacity:1;paint-order:stroke fill markers"
       id="rect1373"
       width="40"
       height="40"
       x="4"
       y="4"
       ry="4" />
    <path
       style="opacity:0.25;vector-effect:none;fill:#000000;fill-opacity:1;fill-rule:evenodd;stroke:none;stroke-width:4;stroke-linecap:round;stroke-linejoin:round;stroke-miterlimit:4;stroke-dasharray:none;stroke-dashoffset:0;stroke-opacity:1;paint-order:stroke fill markers"
       d="M 8 4 C 5.784 4 4 5.784 4 8 L 4 40 C 4 42.216 5.784 44 8 44 L 40 44 C 42.216 44 44 42.216 44 40 L 44 8 C 44 5.784 42.216 4 40 4 L 8 4 z M 8 5 L 40 5 C 41.662 5 43 6.338 43 8 L 43 40 C 43 41.662 41.662 43 40 43 L 8 43 C 6.338 43 5 41.662 5 40 L 5 8 C 5 6.338 6.338 5 8 5 z "
       id="rect826" />
    <path
       style="opacity:0.25;vector-effect:none;fill:#000000;fill-opacity:1;fill-rule:evenodd;stroke:none;stroke-width:1.69658065;stroke-linecap:round;stroke-linejoin:round;stroke-miterlimit:4;stroke-dasharray:none;stroke-dashoffset:0;stroke-opacity:1;paint-order:stroke fill markers"
       d="m 10.904297,23.818601 c -0.119833,-0.01449 -0.24562,-0.01149 -0.369141,0.01233 L 4,25.090101 v 6.425308 l 3.7207031,9.993211 c 0.1433858,0.385073 0.6563077,0.617738 1.1503907,0.522471 l 7.8769532,-1.518093 c 0.494083,-0.09527 0.776198,-0.482629 0.632812,-0.867702 L 11.685547,24.353402 c -0.107539,-0.288805 -0.421751,-0.491322 -0.78125,-0.534801 z"
       id="rect865-3-6"
       inkscape:connector-curvature="0" />
    <path
       style="opacity:0.25;vector-effect:none;fill:#000000;fill-opacity:1;fill-rule:evenodd;stroke:none;stroke-width:2;stroke-linecap:round;stroke-linejoin:round;stroke-miterlimit:4;stroke-dasharray:none;stroke-opacity:1;paint-order:stroke fill markers"
       d="M 12 12 L 12 36 L 36 36 L 36 12 L 12 12 z M 13 13 L 35 13 L 35 35 L 13 35 L 13 13 z "
       id="rect817" />
    <path
       style="opacity:0.25;vector-effect:none;fill:#000000;fill-opacity:1;fill-rule:evenodd;stroke:none;stroke-width:2;stroke-linecap:round;stroke-linejoin:round;stroke-miterlimit:4;stroke-dasharray:none;stroke-opacity:1;paint-order:stroke fill markers"
       d="M 24 10 C 16.244 10 10 16.244 10 24 C 10 31.756 16.244 38 24 38 C 31.756 38 38 31.756 38 24 C 38 16.244 31.756 10 24 10 z M 24 11 C 31.202 11 37 16.798 37 24 C 37 31.202 31.202 37 24 37 C 16.798 37 11 31.202 11 24 C 11 16.798 16.798 11 24 11 z "
       id="rect822" />
    <rect
       style="opacity:1;vector-effect:none;fill:#425086;fill-opacity:1;fill-rule:evenodd;stroke:none;stroke-width:2;stroke-linecap:round;stroke-linejoin:round;stroke-miterlimit:4;stroke-dasharray:none;stroke-dashoffset:0;stroke-opacity:1;paint-order:stroke fill markers"
       id="rect828"
       width="32"
       height="32"
       x="8"
       y="8"
       ry="1" />
    <path
       style="opacity:0.25;vector-effect:none;fill:#000000;fill-opacity:1;fill-rule:evenodd;stroke:none;stroke-width:1.71486259;stroke-linecap:round;stroke-linejoin:round;stroke-miterlimit:4;stroke-dasharray:none;stroke-dashoffset:0;stroke-opacity:1;paint-order:stroke fill markers"
       d="m 38.144531,14.643412 c -0.366188,-0.0269 -0.745375,0.112701 -0.953125,0.377247 l -11,14.00752 c -0.277,0.352728 -0.139481,0.788343 0.308594,0.978533 l 7.042969,2.989963 c 0.448074,0.19019 1.031593,0.0595 1.308593,-0.293231 L 44,21.053298 v -3.991557 l -5.5,-2.334313 c -0.112019,-0.04755 -0.233406,-0.07505 -0.355469,-0.08402 z"
       id="rect865-8-9"
       inkscape:connector-curvature="0" />
    <rect
       style="opacity:1;vector-effect:none;fill:#efefef;fill-opacity:1;fill-rule:evenodd;stroke:none;stroke-width:2;stroke-linecap:round;stroke-linejoin:round;stroke-miterlimit:4;stroke-dasharray:none;stroke-dashoffset:0;stroke-opacity:1;paint-order:stroke fill markers"
       id="rect865"
       width="10"
       height="24"
       x="16"
       y="10"
       ry="1" />
    <path
       style="opacity:1;vector-effect:none;fill:#a0abaf;fill-opacity:1;fill-rule:evenodd;stroke:none;stroke-width:2;stroke-linecap:round;stroke-linejoin:round;stroke-miterlimit:4;stroke-dasharray:none;stroke-dashoffset:0;stroke-opacity:1;paint-order:stroke fill markers"
       d="M 18 12 L 18 28 L 24 28 L 24 12 L 18 12 z M 18 30 L 18 32 L 24 32 L 24 30 L 18 30 z "
       id="rect867" />
    <path
       style="opacity:0.25;vector-effect:none;fill:#000000;fill-opacity:1;fill-rule:evenodd;stroke:none;stroke-width:2;stroke-linecap:round;stroke-linejoin:round;stroke-miterlimit:4;stroke-dasharray:none;stroke-dashoffset:0;stroke-opacity:1;paint-order:stroke fill markers"
       d="M 17 10 C 16.446 10 16 10.446 16 11 L 16 33 C 16 33.554 16.446 34 17 34 L 25 34 C 25.554 34 26 33.554 26 33 L 26 11 C 26 10.446 25.554 10 25 10 L 17 10 z M 17.5 11 L 24.5 11 C 24.777 11 25 11.223 25 11.5 L 25 32.5 C 25 32.777 24.777 33 24.5 33 L 17.5 33 C 17.223 33 17 32.777 17 32.5 L 17 11.5 C 17 11.223 17.223 11 17.5 11 z "
       id="rect871" />
    <rect
       style="opacity:1;vector-effect:none;fill:#efefef;fill-opacity:1;fill-rule:evenodd;stroke:none;stroke-width:2;stroke-linecap:round;stroke-linejoin:round;stroke-miterlimit:4;stroke-dasharray:none;stroke-dashoffset:0;stroke-opacity:1;paint-order:stroke fill markers"
       id="rect865-8"
       width="10"
       height="24"
       x="36.440258"
       y="-12.265336"
       ry="1"
       transform="rotate(30)" />
    <path
       inkscape:connector-curvature="0"
       style="opacity:1;vector-effect:none;fill:#a0abaf;fill-opacity:1;fill-rule:evenodd;stroke:none;stroke-width:2;stroke-linecap:round;stroke-linejoin:round;stroke-miterlimit:4;stroke-dasharray:none;stroke-dashoffset:0;stroke-opacity:1;paint-order:stroke fill markers"
       d="m 38.422909,10.330089 -8,13.856406 5.196152,3 8,-13.856406 z m -9,15.588457 -1,1.732051 5.196152,3 1,-1.732051 z"
       id="rect867-0" />
    <path
       inkscape:connector-curvature="0"
       style="opacity:0.25;vector-effect:none;fill:#000000;fill-opacity:1;fill-rule:evenodd;stroke:none;stroke-width:2;stroke-linecap:round;stroke-linejoin:round;stroke-miterlimit:4;stroke-dasharray:none;stroke-dashoffset:0;stroke-opacity:1;paint-order:stroke fill markers"
       d="m 38.556883,8.0980381 c -0.479778,-0.277 -1.089025,-0.1137527 -1.366025,0.3660254 l -11,19.0525585 c -0.277,0.479779 -0.113753,1.089026 0.366025,1.366026 l 6.928204,4 c 0.479778,0.277 1.089025,0.113753 1.366025,-0.366026 l 11,-19.052558 c 0.277,-0.479779 0.113753,-1.089026 -0.366025,-1.366026 z m -0.06699,1.1160258 6.062178,3.5000001 c 0.239889,0.1385 0.321513,0.443123 0.183013,0.683012 l -10.5,18.186534 c -0.1385,0.239889 -0.443124,0.321512 -0.683013,0.183012 l -6.062178,-3.5 C 27.250004,28.128122 27.16838,27.823499 27.30688,27.58361 l 10.5,-18.1865341 c 0.1385,-0.239889 0.443124,-0.321512 0.683013,-0.183012 z"
       id="rect871-5" />
    <rect
       style="opacity:1;vector-effect:none;fill:#efefef;fill-opacity:1;fill-rule:evenodd;stroke:none;stroke-width:2;stroke-linecap:round;stroke-linejoin:round;stroke-miterlimit:4;stroke-dasharray:none;stroke-dashoffset:0;stroke-opacity:1;paint-order:stroke fill markers"
       id="rect865-3"
       width="10"
       height="24"
       x="-3.2575245"
       y="18.988922"
       ry="1"
       transform="rotate(-15)" />
    <path
       inkscape:connector-curvature="0"
       style="opacity:1;vector-effect:none;fill:#a0abaf;fill-opacity:1;fill-rule:evenodd;stroke:none;stroke-width:2;stroke-linecap:round;stroke-linejoin:round;stroke-miterlimit:4;stroke-dasharray:none;stroke-dashoffset:0;stroke-opacity:1;paint-order:stroke fill markers"
       d="M 4.2176571,20.599214 8.3587621,36.054027 14.154317,34.501113 10.013212,19.0463 Z m 4.658743,17.386665 0.517638,1.931851 5.7955549,-1.552914 -0.517638,-1.931852 z"
       id="rect867-9" />
    <path
       inkscape:connector-curvature="0"
       style="opacity:0.25;vector-effect:none;fill:#000000;fill-opacity:1;fill-rule:evenodd;stroke:none;stroke-width:2;stroke-linecap:round;stroke-linejoin:round;stroke-miterlimit:4;stroke-dasharray:none;stroke-dashoffset:0;stroke-opacity:1;paint-order:stroke fill markers"
       d="m 2.7340931,18.926181 c -0.535123,0.143386 -0.850492,0.689622 -0.707107,1.224745 l 5.694019,21.250368 c 0.143386,0.535123 0.689622,0.850493 1.224745,0.707107 l 7.7274069,-2.070552 c 0.535123,-0.143386 0.850492,-0.689622 0.707107,-1.224745 L 11.686245,17.562736 C 11.542859,17.027612 10.996623,16.712243 10.4615,16.855629 Z m 0.741782,0.836517 6.7614809,-1.811734 c 0.267561,-0.07169 0.540679,0.08599 0.612372,0.353554 l 5.4352,20.284442 c 0.07169,0.267561 -0.08599,0.54068 -0.353553,0.612372 l -6.7614809,1.811734 c -0.267561,0.07169 -0.540679,-0.08599 -0.612372,-0.353554 l -5.4352,-20.284442 c -0.07169,-0.267561 0.08599,-0.54068 0.353553,-0.612372 z"
       id="rect871-3" />
  </g>
</svg>
