<?xml version="1.0" encoding="UTF-8" standalone="no"?>
<!-- Created with Inkscape (http://www.inkscape.org/) -->

<svg
   xmlns:dc="http://purl.org/dc/elements/1.1/"
   xmlns:cc="http://creativecommons.org/ns#"
   xmlns:rdf="http://www.w3.org/1999/02/22-rdf-syntax-ns#"
   xmlns:svg="http://www.w3.org/2000/svg"
   xmlns="http://www.w3.org/2000/svg"
   xmlns:sodipodi="http://sodipodi.sourceforge.net/DTD/sodipodi-0.dtd"
   xmlns:inkscape="http://www.inkscape.org/namespaces/inkscape"
   width="48px"
   height="48px"
   viewBox="0 0 48 48"
   version="1.1"
   id="SVGRoot"
   inkscape:version="0.92.4 (5da689c313, 2019-01-14)"
   sodipodi:docname="ut2004.svg">
  <defs
     id="defs815" />
  <sodipodi:namedview
     id="base"
     pagecolor="#ffffff"
     bordercolor="#666666"
     borderopacity="1.0"
     inkscape:pageopacity="0.0"
     inkscape:pageshadow="2"
     inkscape:zoom="3.943468"
     inkscape:cx="38.713655"
     inkscape:cy="23.459606"
     inkscape:document-units="px"
     inkscape:current-layer="layer1"
     showgrid="true"
     inkscape:window-width="725"
     inkscape:window-height="405"
     inkscape:window-x="550"
     inkscape:window-y="508"
     inkscape:window-maximized="0"
     inkscape:grid-bbox="true"
     inkscape:snap-global="false">
    <inkscape:grid
       type="xygrid"
       id="grid1371" />
  </sodipodi:namedview>
  <metadata
     id="metadata818">
    <rdf:RDF>
      <cc:Work
         rdf:about="">
        <dc:format>image/svg+xml</dc:format>
        <dc:type
           rdf:resource="http://purl.org/dc/dcmitype/StillImage" />
        <dc:title></dc:title>
      </cc:Work>
    </rdf:RDF>
  </metadata>
  <g
     inkscape:label="Layer 1"
     inkscape:groupmode="layer"
     id="layer1">
    <rect
       style="opacity:1;vector-effect:none;fill:#4848aa;fill-opacity:1;fill-rule:evenodd;stroke:none;stroke-width:4;stroke-linecap:round;stroke-linejoin:round;stroke-miterlimit:4;stroke-dasharray:none;stroke-dashoffset:0;stroke-opacity:1;paint-order:stroke fill markers"
       id="rect1373"
       width="40"
       height="40"
       x="4"
       y="4"
       ry="4" />
    <path
       style="opacity:1;vector-effect:none;fill:#e3d383;fill-opacity:1;fill-rule:evenodd;stroke:none;stroke-width:2.16706467;stroke-linecap:round;stroke-linejoin:round;stroke-miterlimit:4;stroke-dasharray:none;stroke-dashoffset:0;stroke-opacity:1;paint-order:stroke fill markers"
       d="M 16.654297 4 C 13.10476 5.4433739 9.6835095 7.6700062 6.6835938 10.669922 C 5.706985 11.646531 4.8135659 12.668933 4 13.724609 L 4 16.78125 C 5.0911649 15.065874 6.3778105 13.415158 7.9023438 11.890625 C 12.732159 7.0608099 18.745264 4.3913501 24.509766 4 L 16.654297 4 z M 27.255859 4 C 31.666122 4.2692779 35.788726 5.9254447 38.931641 9.0683594 C 42.028485 12.165204 43.694215 16.209772 44 20.546875 L 44 12.71875 C 43.10668 10.849821 41.910764 9.1217015 40.394531 7.6054688 C 38.871258 6.082195 37.129071 4.8943934 35.25 4 L 27.255859 4 z M 44 23.5 C 43.605588 29.261371 40.936007 35.271024 36.109375 40.097656 C 34.584842 41.62219 32.934126 42.908835 31.21875 44 L 34.275391 44 C 35.331067 43.186434 36.353469 42.293015 37.330078 41.316406 C 40.328276 38.318209 42.556272 34.899126 44 31.351562 L 44 23.5 z "
       id="rect854" />
    <path
       style="opacity:0.25;vector-effect:none;fill:#000000;fill-opacity:1;fill-rule:evenodd;stroke:none;stroke-width:4;stroke-linecap:round;stroke-linejoin:round;stroke-miterlimit:4;stroke-dasharray:none;stroke-dashoffset:0;stroke-opacity:1;paint-order:stroke fill markers"
       d="M 8 4 C 5.784 4 4 5.784 4 8 L 4 40 C 4 42.216 5.784 44 8 44 L 40 44 C 42.216 44 44 42.216 44 40 L 44 8 C 44 5.784 42.216 4 40 4 L 8 4 z M 8 5 L 40 5 C 41.662 5 43 6.338 43 8 L 43 40 C 43 41.662 41.662 43 40 43 L 8 43 C 6.338 43 5 41.662 5 40 L 5 8 C 5 6.338 6.338 5 8 5 z "
       id="rect826" />
    <path
       style="fill:#efd75d;stroke:none;stroke-width:1px;stroke-linecap:butt;stroke-linejoin:miter;stroke-opacity:1;fill-opacity:1"
       d="M 8,28 C 8,16 23,10 23,10 c 0,0 -3,3.056349 -3,5 0,2 1,2 1,2 h 1 v 14 c 0,0 0,1 3,1 3,0 3,-2 3,-2 V 19 c 0,-1 -1,-3 -1,-3 0,0 1,0 2,1 3,-4 8,-5 8,-5 0,0 -3,3 -3,5 v 13 c 0,0 0,1 1,1 1.943651,0 5,-3 5,-3 0,0 -4,7 -8,9 -2,-1 -3,-2 -3,-2 0,0 -1,2 -3,3 -8,-1 -13,-5 -13,-5 h 2 c 1,0 1,-1 1,-1 V 21 c 0,0 0,-1 -1,-1 -3,0 -7,8 -7,8 z"
       id="path850"
       inkscape:connector-curvature="0"
       sodipodi:nodetypes="ccscccscscccscscccccsccsc" />
  </g>
</svg>
