<?xml version="1.0" encoding="UTF-8" standalone="no"?>
<!-- Created with Inkscape (http://www.inkscape.org/) -->

<svg
   xmlns:dc="http://purl.org/dc/elements/1.1/"
   xmlns:cc="http://creativecommons.org/ns#"
   xmlns:rdf="http://www.w3.org/1999/02/22-rdf-syntax-ns#"
   xmlns:svg="http://www.w3.org/2000/svg"
   xmlns="http://www.w3.org/2000/svg"
   xmlns:sodipodi="http://sodipodi.sourceforge.net/DTD/sodipodi-0.dtd"
   xmlns:inkscape="http://www.inkscape.org/namespaces/inkscape"
   width="48px"
   height="48px"
   viewBox="0 0 48 48"
   version="1.1"
   id="SVGRoot"
   inkscape:version="0.92.4 (5da689c313, 2019-01-14)"
   sodipodi:docname="vendetta-online.svg">
  <defs
     id="defs815" />
  <sodipodi:namedview
     id="base"
     pagecolor="#ffffff"
     bordercolor="#666666"
     borderopacity="1.0"
     inkscape:pageopacity="0.0"
     inkscape:pageshadow="2"
     inkscape:zoom="16.342421"
     inkscape:cx="9.9828161"
     inkscape:cy="23.275716"
     inkscape:document-units="px"
     inkscape:current-layer="layer1"
     showgrid="true"
     inkscape:window-width="1920"
     inkscape:window-height="1017"
     inkscape:window-x="-8"
     inkscape:window-y="-8"
     inkscape:window-maximized="1"
     inkscape:grid-bbox="true"
     inkscape:snap-global="true">
    <inkscape:grid
       type="xygrid"
       id="grid1371" />
  </sodipodi:namedview>
  <metadata
     id="metadata818">
    <rdf:RDF>
      <cc:Work
         rdf:about="">
        <dc:format>image/svg+xml</dc:format>
        <dc:type
           rdf:resource="http://purl.org/dc/dcmitype/StillImage" />
        <dc:title />
      </cc:Work>
    </rdf:RDF>
  </metadata>
  <g
     inkscape:label="Layer 1"
     inkscape:groupmode="layer"
     id="layer1">
    <rect
       style="opacity:1;vector-effect:none;fill:#7cecd5;fill-opacity:1;fill-rule:evenodd;stroke:none;stroke-width:4;stroke-linecap:round;stroke-linejoin:round;stroke-miterlimit:4;stroke-dasharray:none;stroke-dashoffset:0;stroke-opacity:1;paint-order:stroke fill markers"
       id="rect1373"
       width="40"
       height="40"
       x="4"
       y="4"
       ry="4" />
    <path
       style="opacity:1;vector-effect:none;fill:#374f58;fill-opacity:1;fill-rule:evenodd;stroke:none;stroke-width:4;stroke-linecap:round;stroke-linejoin:round;stroke-miterlimit:4;stroke-dasharray:none;stroke-dashoffset:0;stroke-opacity:1;paint-order:stroke fill markers"
       d="M 30,6 C 9,6 4,27 4,27 v 5 C 4,32 5,42 18,42 39,42 44,21 44,21 V 16 C 44,16 43,6 30,6 Z m -6.09375,4 c 1.63924,-0.01469 2.763672,0.216797 2.763672,0.216797 0,0 -10.166281,-0.01241 -10.439453,8.890625 -0.06847,2.231501 1.355469,3.746094 1.355469,3.746094 0,0 -3.545385,-5.681208 3.158203,-10.791016 -5.985906,6.339177 -2.482422,10.791016 -2.482422,10.791016 0,0 -1.194809,-3.734697 0.185547,-6.773438 1.806473,-3.976801 5.974773,-5.558513 9.011718,-4.910156 12.303707,2.62672 10.439454,15.654297 10.439454,15.654297 -10e-7,0 1.069822,-9.816188 -9.310547,-10.400391 -1.863127,-0.104856 -2.933594,0.783203 -2.933594,0.783203 0,0 9.984869,-2.370077 11.623047,6.988281 -3.008669,-8.462868 -10.890625,-6.429687 -10.890625,-6.429687 0,0 4.195174,-0.320797 6.841797,1.789063 3.676528,2.930887 3.803299,6.579184 2.921875,9.671874 -3.114702,10.928713 -14.615235,8.556641 -14.615235,8.556641 0,0 10.166281,0.01241 10.439453,-8.890625 0.06847,-2.231502 -1.355468,-3.746094 -1.355468,-3.746094 0,0 3.54343,5.679256 -3.160157,10.789063 5.985906,-6.339176 2.484375,-10.789063 2.484375,-10.789063 0,0 1.192856,3.734698 -0.1875,6.773438 -1.806473,3.976801 -5.950265,5.43326 -9.011718,4.910156 C 7.9890146,34.650642 10.136719,22.183594 10.136719,22.183594 c 0,0 -0.7074739,9.282973 9.478515,9.503906 2.085739,0.04524 2.935547,-0.894531 2.935547,-0.894531 0,0 -9.986822,2.368123 -11.625,-6.990235 3.008668,8.462869 10.890625,6.429687 10.890625,6.429688 0,0 -4.193221,0.320796 -6.839844,-1.789063 C 11.300033,25.512471 11.173265,21.864175 12.054688,18.771484 14.196046,11.257994 20.299926,10.03231 23.90625,10 Z"
       id="rect1373-1"
       inkscape:connector-curvature="0" />
    <path
       style="opacity:0.25;vector-effect:none;fill:#000000;fill-opacity:1;fill-rule:evenodd;stroke:none;stroke-width:4;stroke-linecap:round;stroke-linejoin:round;stroke-miterlimit:4;stroke-dasharray:none;stroke-dashoffset:0;stroke-opacity:1;paint-order:stroke fill markers"
       d="M 8 4 C 5.784 4 4 5.784 4 8 L 4 40 C 4 42.216 5.784 44 8 44 L 40 44 C 42.216 44 44 42.216 44 40 L 44 8 C 44 5.784 42.216 4 40 4 L 8 4 z M 8 5 L 40 5 C 41.662 5 43 6.338 43 8 L 43 40 C 43 41.662 41.662 43 40 43 L 8 43 C 6.338 43 5 41.662 5 40 L 5 8 C 5 6.338 6.338 5 8 5 z "
       id="rect826" />
  </g>
</svg>
