<?xml version="1.0" encoding="UTF-8" standalone="no"?>
<!-- Created with Inkscape (http://www.inkscape.org/) -->

<svg
   xmlns:dc="http://purl.org/dc/elements/1.1/"
   xmlns:cc="http://creativecommons.org/ns#"
   xmlns:rdf="http://www.w3.org/1999/02/22-rdf-syntax-ns#"
   xmlns:svg="http://www.w3.org/2000/svg"
   xmlns="http://www.w3.org/2000/svg"
   xmlns:sodipodi="http://sodipodi.sourceforge.net/DTD/sodipodi-0.dtd"
   xmlns:inkscape="http://www.inkscape.org/namespaces/inkscape"
   width="48px"
   height="48px"
   viewBox="0 0 48 48"
   version="1.1"
   id="SVGRoot"
   inkscape:version="0.92.4 (5da689c313, 2019-01-14)"
   sodipodi:docname="vrchat.svg">
  <defs
     id="defs815" />
  <sodipodi:namedview
     id="base"
     pagecolor="#ffffff"
     bordercolor="#666666"
     borderopacity="1.0"
     inkscape:pageopacity="0.0"
     inkscape:pageshadow="2"
     inkscape:zoom="16.606225"
     inkscape:cx="16.188736"
     inkscape:cy="24.900389"
     inkscape:document-units="px"
     inkscape:current-layer="layer1"
     showgrid="true"
     inkscape:window-width="1920"
     inkscape:window-height="1017"
     inkscape:window-x="-8"
     inkscape:window-y="-8"
     inkscape:window-maximized="1"
     inkscape:grid-bbox="true"
     inkscape:snap-global="false">
    <inkscape:grid
       type="xygrid"
       id="grid1371" />
  </sodipodi:namedview>
  <metadata
     id="metadata818">
    <rdf:RDF>
      <cc:Work
         rdf:about="">
        <dc:format>image/svg+xml</dc:format>
        <dc:type
           rdf:resource="http://purl.org/dc/dcmitype/StillImage" />
        <dc:title></dc:title>
      </cc:Work>
    </rdf:RDF>
  </metadata>
  <g
     inkscape:label="Layer 1"
     inkscape:groupmode="layer"
     id="layer1">
    <path
       inkscape:connector-curvature="0"
       style="opacity:1;vector-effect:none;fill:#4e4e4e;fill-opacity:1;fill-rule:evenodd;stroke:none;stroke-width:4;stroke-linecap:round;stroke-linejoin:round;stroke-miterlimit:4;stroke-dasharray:none;stroke-dashoffset:0;stroke-opacity:1;paint-order:stroke fill markers"
       d="M 8,4 C 5.784,4 4,5.784 4,8 v 28 c 0,2.216 1.784,4 4,4 h 12 l 4,4 4,-4 h 12 c 2.216,0 4,-1.784 4,-4 V 8 C 44,5.784 42.216,4 40,4 Z"
       id="rect1373-7" />
    <path
       inkscape:connector-curvature="0"
       style="color:#000000;font-style:normal;font-variant:normal;font-weight:normal;font-stretch:normal;font-size:medium;line-height:normal;font-family:sans-serif;font-variant-ligatures:normal;font-variant-position:normal;font-variant-caps:normal;font-variant-numeric:normal;font-variant-alternates:normal;font-feature-settings:normal;text-indent:0;text-align:start;text-decoration:none;text-decoration-line:none;text-decoration-style:solid;text-decoration-color:#000000;letter-spacing:normal;word-spacing:normal;text-transform:none;writing-mode:lr-tb;direction:ltr;text-orientation:mixed;dominant-baseline:auto;baseline-shift:baseline;text-anchor:start;white-space:normal;shape-padding:0;clip-rule:nonzero;display:inline;overflow:visible;visibility:visible;opacity:0.4;isolation:auto;mix-blend-mode:normal;color-interpolation:sRGB;color-interpolation-filters:linearRGB;solid-color:#000000;solid-opacity:1;vector-effect:none;fill:#000000;fill-opacity:1;fill-rule:evenodd;stroke:none;stroke-width:2;stroke-linecap:round;stroke-linejoin:round;stroke-miterlimit:4;stroke-dasharray:none;stroke-dashoffset:0;stroke-opacity:1;paint-order:stroke fill markers;color-rendering:auto;image-rendering:auto;shape-rendering:auto;text-rendering:auto;enable-background:accumulate"
       d="M 8,4 C 5.784,4 4,5.784 4,8 v 28 c 0,2.216 1.784,4 4,4 h 12 l 4,4 4,-4 h 12 c 2.216,0 4,-1.784 4,-4 V 8 C 44,5.784 42.216,4 40,4 Z m 0,1 h 32 c 1.679297,0 3,1.3207028 3,3 v 28 c 0,1.679297 -1.320703,3 -3,3 H 28 a 1.0001,1.0001 0 0 0 -0.707031,0.292969 L 24,42.585938 20.707031,39.292969 A 1.0001,1.0001 0 0 0 20,39 H 8 C 6.3207028,39 5,37.679297 5,36 V 8 C 5,6.3207028 6.3207028,5 8,5 Z"
       id="rect1373-2" />
    <rect
       style="opacity:1;vector-effect:none;fill:#ffffff;fill-opacity:1;fill-rule:evenodd;stroke:none;stroke-width:2;stroke-linecap:square;stroke-linejoin:round;stroke-miterlimit:4;stroke-dasharray:none;stroke-opacity:1;paint-order:normal"
       id="rect817"
       width="32"
       height="28"
       x="8"
       y="8"
       ry="1" />
    <path
       style="fill:#ffffff;stroke:none;stroke-width:1px;stroke-linecap:butt;stroke-linejoin:miter;stroke-opacity:1"
       d="m 20,35 4,4 4,-4 z"
       id="path819"
       inkscape:connector-curvature="0"
       sodipodi:nodetypes="cccc" />
    <path
       style="fill:#4e4e4e;stroke-width:0.09179321"
       d="M 17.033778,29.867983 C 16.6003,29.70336 16.298246,29.438132 16.16588,29.105881 16.11267,28.972292 15.115137,25.76582 13.94915,21.980354 c -1.682923,-5.463728 -2.102666,-6.927333 -2.035993,-7.099349 0.207323,-0.534916 0.919907,-0.905265 1.733234,-0.90081 0.550737,0.0031 0.758796,0.09606 0.915244,0.409306 0.05032,0.10077 0.833188,2.808161 1.739692,6.016436 0.906506,3.208274 1.674669,5.784655 1.707031,5.725281 0.03235,-0.05936 0.70748,-2.416377 1.500263,-5.237795 1.880305,-6.691798 1.853556,-6.605358 2.096399,-6.774751 0.123919,-0.08643 0.402176,-0.141404 0.716061,-0.141404 0.976884,0 1.843176,0.642991 1.714079,1.27225 -0.107192,0.522496 -4.208934,13.811703 -4.32906,14.025706 -0.0707,0.125957 -0.305829,0.329014 -0.522504,0.451243 -0.498532,0.281225 -1.59232,0.353223 -2.149818,0.141501 z"
       id="path838"
       inkscape:connector-curvature="0" />
    <path
       style="fill:#4e4e4e;stroke-width:0.08949798"
       d="m 26.51919,13.978204 -0.255845,0.265797 -0.253712,0.268029 v 7.368596 7.368597 l 0.223865,0.236761 c 0.509871,0.53415 1.821715,0.510735 2.264225,-0.04021 l 0.221732,-0.276965 v -2.925997 -2.92823 l 0.886928,0.0268 0.886928,0.02457 1.496692,3.037676 c 1.494056,3.03356 1.690395,3.376969 2.01904,3.517896 0.09619,0.04126 0.274197,0.07766 0.394427,0.08041 0.351448,0.0078 1.094425,-0.406576 1.343186,-0.74825 0.451018,-0.619483 0.456249,-0.595114 -1.044701,-3.504496 -0.753774,-1.461092 -1.38787,-2.705191 -1.409277,-2.762943 -0.02143,-0.05783 0.179391,-0.208573 0.447728,-0.337272 0.267859,-0.128471 0.6987,-0.442787 0.955154,-0.696878 0.880385,-0.872292 1.228823,-1.885738 1.217394,-3.5313 -0.014,-1.998194 -0.690555,-3.243568 -2.1427,-3.940042 -0.916917,-0.439785 -1.45108,-0.500727 -4.466619,-0.502557 z m 2.200265,2.472577 h 1.419936 c 0.781497,2.87e-4 1.563641,0.04318 1.737613,0.09381 0.891165,0.259332 1.331607,0.962568 1.338922,2.137543 0.0076,1.232848 -0.420481,2.014026 -1.236583,2.251454 -0.181658,0.05285 -0.989636,0.09577 -1.795177,0.09605 l -1.464711,0.0024 v -2.291657 z"
       id="path836"
       inkscape:connector-curvature="0" />
  </g>
</svg>
