<?xml version="1.0" encoding="UTF-8" standalone="no"?>
<!-- Created with Inkscape (http://www.inkscape.org/) -->

<svg
   xmlns:dc="http://purl.org/dc/elements/1.1/"
   xmlns:cc="http://creativecommons.org/ns#"
   xmlns:rdf="http://www.w3.org/1999/02/22-rdf-syntax-ns#"
   xmlns:svg="http://www.w3.org/2000/svg"
   xmlns="http://www.w3.org/2000/svg"
   xmlns:sodipodi="http://sodipodi.sourceforge.net/DTD/sodipodi-0.dtd"
   xmlns:inkscape="http://www.inkscape.org/namespaces/inkscape"
   width="48px"
   height="48px"
   viewBox="0 0 48 48"
   version="1.1"
   id="SVGRoot"
   inkscape:version="0.92.4 (5da689c313, 2019-01-14)"
   sodipodi:docname="x-thebindingofisaac.svg">
  <defs
     id="defs815" />
  <sodipodi:namedview
     id="base"
     pagecolor="#ffffff"
     bordercolor="#666666"
     borderopacity="1.0"
     inkscape:pageopacity="0.0"
     inkscape:pageshadow="2"
     inkscape:zoom="6.816346"
     inkscape:cx="36.846114"
     inkscape:cy="21.028898"
     inkscape:document-units="px"
     inkscape:current-layer="layer1"
     showgrid="true"
     inkscape:window-width="1920"
     inkscape:window-height="1017"
     inkscape:window-x="-8"
     inkscape:window-y="-8"
     inkscape:window-maximized="1"
     inkscape:grid-bbox="true"
     inkscape:snap-global="false">
    <inkscape:grid
       type="xygrid"
       id="grid1371" />
  </sodipodi:namedview>
  <metadata
     id="metadata818">
    <rdf:RDF>
      <cc:Work
         rdf:about="">
        <dc:format>image/svg+xml</dc:format>
        <dc:type
           rdf:resource="http://purl.org/dc/dcmitype/StillImage" />
        <dc:title></dc:title>
      </cc:Work>
    </rdf:RDF>
  </metadata>
  <g
     inkscape:label="Layer 1"
     inkscape:groupmode="layer"
     id="layer1">
    <rect
       style="opacity:1;vector-effect:none;fill:#453333;fill-opacity:1;fill-rule:evenodd;stroke:none;stroke-width:4;stroke-linecap:round;stroke-linejoin:round;stroke-miterlimit:4;stroke-dasharray:none;stroke-dashoffset:0;stroke-opacity:1;paint-order:stroke fill markers"
       id="rect1373"
       width="40"
       height="40"
       x="4"
       y="4"
       ry="4" />
    <rect
       style="opacity:1;vector-effect:none;fill:#8e6f60;fill-opacity:1;fill-rule:evenodd;stroke:none;stroke-width:1;stroke-linecap:round;stroke-linejoin:round;stroke-miterlimit:4;stroke-dasharray:none;stroke-dashoffset:0;stroke-opacity:1;paint-order:stroke fill markers"
       id="rect832"
       width="28"
       height="10"
       x="9"
       y="26"
       ry="5"
       rx="14" />
    <path
       style="fill:#84695f;stroke:none;stroke-width:1px;stroke-linecap:butt;stroke-linejoin:miter;stroke-opacity:1;fill-opacity:1"
       d="M 41,29 30,4 H 17 L 7,29 Z"
       id="path830"
       inkscape:connector-curvature="0"
       sodipodi:nodetypes="ccccc" />
    <path
       style="fill:#6a544c;stroke:none;stroke-width:1px;stroke-linecap:butt;stroke-linejoin:miter;stroke-opacity:1;fill-opacity:1"
       d="m 4,30 c 0,0 6,-6 19,-6 13,0 21,7 21,7 v 5 c 0,0 -4,4 -10,4 -2.027588,0 -3.984156,-1.217907 -6,-1 -1.784658,0.192916 -3.204945,2 -5,2 C 12,41 4,34 4,34 Z"
       id="path828"
       inkscape:connector-curvature="0"
       sodipodi:nodetypes="czccssscc" />
    <path
       style="fill:#96e1d9;stroke:none;stroke-width:1.23770332px;stroke-linecap:butt;stroke-linejoin:miter;stroke-opacity:1;fill-opacity:1"
       d="m 22.825873,31.961728 c 0,0 -2.733673,1.463927 -2.492972,2.823646 0.30243,1.708428 4.209445,1.3614 4.209445,1.3614 0,0 0.669285,1.790342 3.759893,1.815203 6.078369,0.04891 5.925917,-5.243914 5.925917,-5.243914 z"
       id="path848"
       inkscape:connector-curvature="0"
       sodipodi:nodetypes="cscscc" />
    <rect
       style="opacity:0.25;vector-effect:none;fill:#000000;fill-opacity:1;fill-rule:evenodd;stroke:none;stroke-width:1.11429262;stroke-linecap:round;stroke-linejoin:round;stroke-miterlimit:4;stroke-dasharray:none;stroke-dashoffset:0;stroke-opacity:1;paint-order:stroke fill markers"
       id="rect850"
       width="32"
       height="8"
       x="8"
       y="28"
       rx="14.485804"
       ry="4" />
    <path
       style="opacity:1;fill:#453333;stroke:none;stroke-width:1.11429262px;stroke-linecap:butt;stroke-linejoin:miter;stroke-opacity:1;fill-opacity:1"
       d="m 9.9931958,24.407358 c 0.5819142,-2.228966 2.0868122,-2.942781 3.6781572,-3.555552 1.144793,-0.440818 3.678155,0.122607 3.678155,0.122607 0,0 0.842955,-0.843441 1.389525,-1.021712 0.730987,-0.238418 1.675605,-0.04087 1.675605,-0.04087 0,0 2.59184,-4.420732 7.805865,-4.250313 5.795466,0.189425 10.011561,5.396147 9.849282,10.094494 -0.175849,5.091272 -4.111116,10.145272 -11.402283,10.176231 -2.852658,0.01212 -5.026811,-2.860788 -5.026811,-2.860788 0,0 -1.832776,1.973541 -3.473815,1.920815 -1.166279,-0.03747 -1.471262,-0.980841 -1.471262,-0.980841 0,0 -2.134714,0.852277 -3.06513,0.408684 -1.310999,-0.625042 -1.639695,-3.055215 -1.639695,-3.055215 0,0 -1.461294,-0.804694 -1.598824,-2.094203 -0.170181,-1.595627 0.422706,-2.399265 0.422706,-2.399265 0,0 -1.0553966,-1.568052 -0.8214752,-2.46407 z"
       id="path834"
       inkscape:connector-curvature="0"
       sodipodi:nodetypes="sscscssscscscscs" />
    <path
       style="fill:#e0a59e;stroke:none;stroke-width:1.11429262px;stroke-linecap:butt;stroke-linejoin:miter;stroke-opacity:1;fill-opacity:1"
       d="M 27.578125 16.65625 C 22.770737 16.579377 21.277344 21.048828 21.277344 21.048828 C 21.277344 21.048828 20.248989 20.397335 19.716797 20.529297 C 18.539709 20.821169 17.473532 21.016694 17.203125 23.158203 C 17.056318 24.32085 17.647649 25.627003 17.636719 26.798828 C 17.618775 28.719314 18.493256 28.019639 19.167969 28.158203 C 19.91531 28.311681 20.826134 27.840738 21.248047 27.205078 C 21.765025 26.426207 21.466756 25.326018 21.335938 24.400391 C 21.208475 23.498508 20.498047 21.800781 20.498047 21.800781 C 20.498047 21.800781 21.309873 22.577627 21.480469 23.101562 C 21.959396 24.572459 21.985574 25.361234 21.884766 26.798828 C 21.862827 27.11168 22.330389 27.295985 22.318359 27.609375 C 22.302667 28.017985 21.421875 28.038354 21.421875 28.447266 C 21.421875 28.856176 22.240129 28.883798 22.318359 29.285156 C 22.635471 30.912146 22.173828 32.492188 22.173828 32.492188 C 22.173828 32.492188 24.167059 34.874212 27.923828 34.919922 C 33.81585 34.991612 37.037414 29.749039 36.912109 25.382812 C 36.777489 20.691939 33.108763 16.74469 27.578125 16.65625 z M 15.09375 21.912109 C 14.82594 21.930428 14.548726 21.980424 14.285156 22.078125 C 10.78689 23.374875 11.341797 25.673828 11.341797 25.673828 C 11.341797 25.673828 12.389047 24.631625 14.203125 24.734375 C 13.084188 25.336665 12.585559 25.203401 12.363281 27.023438 C 12.271927 27.771456 12.299366 28.719789 12.853516 29.230469 C 13.440042 29.770986 14.464282 29.797625 15.224609 29.556641 C 16.023969 29.303287 16.784901 28.631111 17.0625 27.839844 C 17.46813 26.683639 16.50983 26.235833 16.53125 24.203125 C 16.53872 23.494255 16.613281 22.078125 16.613281 22.078125 C 16.613281 22.078125 15.89718 21.857152 15.09375 21.912109 z M 11.742188 28.476562 C 11.742188 28.476563 11.275168 29.097305 11.597656 29.892578 C 11.900438 30.639259 12.462891 30.787109 12.462891 30.787109 C 12.462891 30.787109 12.49913 30.352821 12.636719 29.833984 C 12.123538 29.360414 11.742188 28.476562 11.742188 28.476562 z M 18.294922 28.867188 C 17.881158 28.882606 17.484137 29.030922 17.173828 29.341797 C 16.641934 29.874663 16.740234 30.74771 16.740234 31.625 C 16.740234 33.333334 17.230979 33.946652 18.15625 34.023438 C 19.334991 34.121265 20.439453 33.205021 20.439453 31.308594 C 20.439453 30.540807 20.171816 29.595901 19.515625 29.197266 C 19.140225 28.969211 18.708686 28.851769 18.294922 28.867188 z M 20.554688 29.486328 C 20.554688 29.486328 20.825229 30.202399 20.830078 30.990234 C 20.834978 31.77807 20.728516 32.435547 20.728516 32.435547 C 20.728516 32.435547 21.420524 31.928837 21.421875 31.019531 C 21.423575 29.913927 20.554687 29.486328 20.554688 29.486328 z M 16.076172 29.978516 C 16.076172 29.978516 15.13541 30.535399 13.533203 30.152344 C 12.976098 30.019151 12.845881 31.20723 12.955078 31.769531 C 13.087754 32.452732 13.668703 33.153131 14.341797 33.330078 C 15.222016 33.561475 16.162109 33.214844 16.162109 33.214844 L 16.076172 29.978516 z "
       id="path836" />
    <path
       style="fill:#96e1d9;fill-opacity:1;stroke:none;stroke-width:1.11429262px;stroke-linecap:butt;stroke-linejoin:miter;stroke-opacity:1"
       d="m 27.404242,18.794812 c -0.297241,-0.384809 -0.727947,-0.830234 -1.21373,-0.809153 -0.677841,0.02942 -1.087643,0.814837 -1.589408,1.271526 -0.604564,0.550252 -1.734079,0.945834 -1.705,1.762798 0.01335,0.374946 0.469056,0.81923 0.83805,0.751356 0.682183,-0.125483 0.287813,-1.655107 0.953646,-1.849493 0.459928,-0.134273 0.926214,0.362673 1.242627,0.722458 0.393433,0.447363 0.397018,1.130498 0.69356,1.647204 0.215765,0.37596 0.627497,0.634672 0.780255,1.04034 0.265561,0.705233 -0.425873,1.797164 0.173389,2.25407 0.241875,0.184415 0.719656,0.07454 0.895848,-0.173391 0.389046,-0.547446 -0.215266,-1.326437 -0.288983,-1.993984 -0.11134,-1.008244 -0.284702,-2.041053 -0.490529,-3.034324 -0.113738,-0.548863 0.05292,-1.14581 -0.289725,-1.589407 z"
       id="path864"
       inkscape:connector-curvature="0"
       sodipodi:nodetypes="ssssssssssssss" />
    <path
       style="fill:#453333;stroke:none;stroke-width:1.11429262px;stroke-linecap:butt;stroke-linejoin:miter;stroke-opacity:1"
       d="m 27.43314,21.973627 -0.549068,-2.571951 0.838051,-0.722457 0.288983,2.976526 z"
       id="path852"
       inkscape:connector-curvature="0" />
    <path
       style="fill:#96e1d9;stroke:none;stroke-width:1.11429262px;stroke-linecap:butt;stroke-linejoin:miter;stroke-opacity:1;fill-opacity:1"
       d="m 27.345579,29.602186 c -0.508983,-0.0026 -0.316766,1.063953 -0.750841,1.329751 -0.386457,0.236639 -1.151975,-0.344822 -1.358044,0.05876 -0.309812,0.606756 0.962022,1.043173 1.12735,1.704082 0.156516,0.625689 -0.328914,1.345311 -0.343864,1.967425 0.340622,0.08339 0.701726,0.143267 1.086,0.184989 -0.113608,-0.591043 -0.504925,-1.34409 -0.04788,-1.545211 0.150146,-0.06607 0.298641,0.172215 0.374332,0.317749 0.180601,0.34724 -0.05651,0.875383 -0.02394,1.253579 0.174404,0.01273 0.333021,0.04348 0.515796,0.0457 0.07692,9.35e-4 0.148151,-0.0078 0.224164,-0.0087 0.184263,-1.584474 0.246414,-2.027147 0.0076,-3.139984 -0.154691,-0.720858 -0.07342,-2.164494 -0.81068,-2.16814 z"
       id="path866"
       inkscape:connector-curvature="0"
       sodipodi:nodetypes="scscccscccccs" />
    <path
       style="fill:#453333;stroke:none;stroke-width:1.11429262px;stroke-linecap:butt;stroke-linejoin:miter;stroke-opacity:1"
       d="m 27.375343,29.689478 0.0289,3.034325 0.83805,-0.722458 -0.375678,-2.196273 z"
       id="path854"
       inkscape:connector-curvature="0" />
    <path
       style="fill:#453333;stroke:none;stroke-width:1.11429262px;stroke-linecap:butt;stroke-linejoin:miter;stroke-opacity:1"
       d="m 27.953309,33.648548 1.849493,-1.993984 0.462373,0.173391 -1.387119,1.791695 z"
       id="path856"
       inkscape:connector-curvature="0" />
    <path
       style="fill:#453333;stroke:none;stroke-width:1.11429262px;stroke-linecap:butt;stroke-linejoin:miter;stroke-opacity:1"
       d="m 27.924411,18.274641 1.849493,1.791696 -0.17339,-0.953643 -1.502713,-1.56051 z"
       id="path858"
       inkscape:connector-curvature="0" />
    <path
       style="fill:#453333;stroke:none;stroke-width:1.11429262px;stroke-linecap:butt;stroke-linejoin:miter;stroke-opacity:1"
       d="m 23.185087,30.70092 -0.69356,-7.715853 c 0,0 3.840442,-1.377784 4.537037,2.94763 0.737384,4.578693 -3.843477,4.768223 -3.843477,4.768223 z"
       id="path860"
       inkscape:connector-curvature="0"
       sodipodi:nodetypes="ccsc" />
    <path
       style="fill:#ffffff;stroke:none;stroke-width:1.11429262px;stroke-linecap:butt;stroke-linejoin:miter;stroke-opacity:1"
       d="m 22.982799,23.505238 c 0,0 0.4594,-0.112842 0.664661,-0.02889 0.18294,0.07481 0.397105,0.235968 0.404576,0.433474 0.07781,2.057018 0.139436,2.964983 0.317883,5.664071 0.01995,0.301663 -0.818047,0.648439 -0.838053,0.34678 -0.302029,-4.554402 -0.549067,-6.415427 -0.549067,-6.415427 z"
       id="path862"
       inkscape:connector-curvature="0"
       sodipodi:nodetypes="cssssc" />
    <path
       style="opacity:0.4;vector-effect:none;fill:#000000;fill-opacity:1;fill-rule:evenodd;stroke:none;stroke-width:4;stroke-linecap:round;stroke-linejoin:round;stroke-miterlimit:4;stroke-dasharray:none;stroke-dashoffset:0;stroke-opacity:1;paint-order:stroke fill markers"
       d="M 8 4 C 5.784 4 4 5.784 4 8 L 4 40 C 4 42.216 5.784 44 8 44 L 40 44 C 42.216 44 44 42.216 44 40 L 44 8 C 44 5.784 42.216 4 40 4 L 8 4 z M 8 5 L 40 5 C 41.662 5 43 6.338 43 8 L 43 40 C 43 41.662 41.662 43 40 43 L 8 43 C 6.338 43 5 41.662 5 40 L 5 8 C 5 6.338 6.338 5 8 5 z "
       id="rect826" />
  </g>
</svg>
