<?xml version="1.0" encoding="UTF-8" standalone="no"?>
<!-- Created with Inkscape (http://www.inkscape.org/) -->

<svg
   xmlns:dc="http://purl.org/dc/elements/1.1/"
   xmlns:cc="http://creativecommons.org/ns#"
   xmlns:rdf="http://www.w3.org/1999/02/22-rdf-syntax-ns#"
   xmlns:svg="http://www.w3.org/2000/svg"
   xmlns="http://www.w3.org/2000/svg"
   xmlns:xlink="http://www.w3.org/1999/xlink"
   xmlns:sodipodi="http://sodipodi.sourceforge.net/DTD/sodipodi-0.dtd"
   xmlns:inkscape="http://www.inkscape.org/namespaces/inkscape"
   width="48px"
   height="48px"
   viewBox="0 0 48 48"
   version="1.1"
   id="SVGRoot"
   inkscape:version="0.92.4 (5da689c313, 2019-01-14)"
   sodipodi:docname="xonotic.svg">
  <defs
     id="defs815">
    <linearGradient
       id="linearGradient1037"
       inkscape:collect="always">
      <stop
         id="stop1033"
         offset="0"
         style="stop-color:#4e4e4e;stop-opacity:1;" />
      <stop
         id="stop1035"
         offset="1"
         style="stop-color:#2b3661;stop-opacity:1" />
    </linearGradient>
    <linearGradient
       inkscape:collect="always"
       id="linearGradient1021">
      <stop
         style="stop-color:#4e4e4e;stop-opacity:1;"
         offset="0"
         id="stop1017" />
      <stop
         style="stop-color:#46589d;stop-opacity:1"
         offset="1"
         id="stop1019" />
    </linearGradient>
    <linearGradient
       inkscape:collect="always"
       id="linearGradient990">
      <stop
         style="stop-color:#4e4e4e;stop-opacity:1;"
         offset="0"
         id="stop986" />
      <stop
         style="stop-color:#943657;stop-opacity:1"
         offset="1"
         id="stop988" />
    </linearGradient>
    <linearGradient
       inkscape:collect="always"
       xlink:href="#linearGradient990"
       id="linearGradient992"
       x1="9.0831089"
       y1="33.469059"
       x2="20.95426"
       y2="14.277727"
       gradientUnits="userSpaceOnUse" />
    <linearGradient
       inkscape:collect="always"
       xlink:href="#linearGradient1021"
       id="linearGradient1023"
       x1="18.351015"
       y1="41.946487"
       x2="20.996084"
       y2="21.925261"
       gradientUnits="userSpaceOnUse" />
    <linearGradient
       inkscape:collect="always"
       xlink:href="#linearGradient1037"
       id="linearGradient1031"
       x1="4"
       y1="24"
       x2="44"
       y2="24"
       gradientUnits="userSpaceOnUse" />
  </defs>
  <sodipodi:namedview
     id="base"
     pagecolor="#ffffff"
     bordercolor="#666666"
     borderopacity="1.0"
     inkscape:pageopacity="0.0"
     inkscape:pageshadow="2"
     inkscape:zoom="19.279538"
     inkscape:cx="25.048406"
     inkscape:cy="23.103637"
     inkscape:document-units="px"
     inkscape:current-layer="layer1"
     showgrid="false"
     inkscape:window-width="1920"
     inkscape:window-height="1017"
     inkscape:window-x="-8"
     inkscape:window-y="-8"
     inkscape:window-maximized="1"
     inkscape:grid-bbox="true"
     inkscape:snap-global="true"
     showguides="false">
    <inkscape:grid
       type="xygrid"
       id="grid1371" />
  </sodipodi:namedview>
  <metadata
     id="metadata818">
    <rdf:RDF>
      <cc:Work
         rdf:about="">
        <dc:format>image/svg+xml</dc:format>
        <dc:type
           rdf:resource="http://purl.org/dc/dcmitype/StillImage" />
        <dc:title></dc:title>
      </cc:Work>
    </rdf:RDF>
  </metadata>
  <g
     inkscape:label="Layer 1"
     inkscape:groupmode="layer"
     id="layer1">
    <rect
       style="opacity:1;vector-effect:none;fill:url(#linearGradient1031);fill-opacity:1.0;fill-rule:evenodd;stroke:none;stroke-width:4;stroke-linecap:round;stroke-linejoin:round;stroke-miterlimit:4;stroke-dasharray:none;stroke-dashoffset:0;stroke-opacity:1;paint-order:stroke fill markers"
       id="rect1373"
       width="40"
       height="40"
       x="4"
       y="4"
       ry="4" />
    <path
       style="fill:url(#linearGradient992);stroke:none;stroke-width:1px;stroke-linecap:butt;stroke-linejoin:miter;stroke-opacity:1;fill-opacity:1"
       d="m 25,31 c 0,0 -8,-1 -8,-5 0,-5 7,-8 7,-8 h -5 c 0,0 0.472954,-1.472954 1,-2 2,-2 5,-1 5,-1 0,0 -1,-3 -3,-3 -1.054093,0 -3,1 -3,1 0,0 -1.254644,-1 -2,-1 C 13,12 5,22 5,22 l 3,-1 -3,4 3,-1 -4,8 10,8 z"
       id="path830"
       inkscape:connector-curvature="0"
       sodipodi:nodetypes="csccscscsccccccc" />
    <path
       style="color:#000000;font-style:normal;font-variant:normal;font-weight:normal;font-stretch:normal;font-size:medium;line-height:normal;font-family:sans-serif;font-variant-ligatures:normal;font-variant-position:normal;font-variant-caps:normal;font-variant-numeric:normal;font-variant-alternates:normal;font-feature-settings:normal;text-indent:0;text-align:start;text-decoration:none;text-decoration-line:none;text-decoration-style:solid;text-decoration-color:#000000;letter-spacing:normal;word-spacing:normal;text-transform:none;writing-mode:lr-tb;direction:ltr;text-orientation:mixed;dominant-baseline:auto;baseline-shift:baseline;text-anchor:start;white-space:normal;shape-padding:0;clip-rule:nonzero;display:inline;overflow:visible;visibility:visible;opacity:1;isolation:auto;mix-blend-mode:normal;color-interpolation:sRGB;color-interpolation-filters:linearRGB;solid-color:#000000;solid-opacity:1;vector-effect:none;fill:#f68d59;fill-opacity:1;fill-rule:nonzero;stroke:none;stroke-width:2;stroke-linecap:round;stroke-linejoin:round;stroke-miterlimit:4;stroke-dasharray:none;stroke-dashoffset:0;stroke-opacity:1;color-rendering:auto;image-rendering:auto;shape-rendering:auto;text-rendering:auto;enable-background:accumulate"
       d="M 17 12 C 13 12 5 22 5 22 L 8 21 L 5 25 L 8 24 L 4 32 L 4.7714844 32.617188 L 5.2558594 31.724609 L 8.8945312 24.447266 A 1.0001 1.0001 0 0 0 7.7207031 23.039062 L 8.8007812 21.599609 A 1.0001 1.0001 0 0 0 8.1347656 20.009766 C 8.9196692 19.110295 9.0585354 18.855528 10.207031 17.707031 C 11.433461 16.480601 12.780341 15.262089 14.019531 14.376953 C 15.258722 13.491817 16.416667 13 17 13 C 16.92546 13 17.407052 13.13722 17.755859 13.351562 C 18.104667 13.565907 18.376953 13.78125 18.376953 13.78125 A 1.0001 1.0001 0 0 0 19.457031 13.888672 C 19.457031 13.888672 19.908009 13.659223 20.480469 13.427734 C 21.052928 13.196246 21.789181 13 22 13 C 22.367706 13 22.708264 13.404165 23.042969 13.775391 C 21.876535 13.806361 20.469383 14.116555 19.292969 15.292969 C 18.805839 15.780099 18.584259 16.327061 18.380859 16.806641 C 18.177459 17.28622 18.048828 17.693359 18.048828 17.693359 A 1.0001 1.0001 0 0 0 19 19 L 20.439453 19 C 20.166939 19.1887 20.161858 19.11864 19.882812 19.337891 C 18.017056 20.803842 16 23.033333 16 26 C 16 27.333333 16.699717 28.440134 17.591797 29.220703 C 18.483876 30.001273 19.58003 30.534894 20.648438 30.935547 C 21.752509 31.349574 22.034723 31.319998 22.832031 31.482422 L 24.228516 31.630859 L 25 31 C 25 31 17 30 17 26 C 17 21 24 18 24 18 L 19 18 C 19 18 19.472954 16.527046 20 16 C 22 14 25 15 25 15 C 25 15 24 12 22 12 C 20.945907 12 19 13 19 13 C 19 13 17.745356 12 17 12 z "
       id="path830-8" />
    <path
       style="fill:#f68d59;stroke:none;stroke-width:1px;stroke-linecap:butt;stroke-linejoin:miter;stroke-opacity:1"
       d="m 14,16 c 0,0 1.069365,-1.848979 2,-2 0.735732,-0.119393 2,1 2,1 0,0 -1.069365,1.019084 -2,1.170105 C 15.264268,16.289498 14,16 14,16 Z"
       id="path832"
       inkscape:connector-curvature="0"
       sodipodi:nodetypes="cscsc" />
    <path
       style="fill:url(#linearGradient1023);stroke:none;stroke-width:1px;stroke-linecap:butt;stroke-linejoin:miter;stroke-opacity:1;fill-opacity:1"
       d="M 23 6 C 23 6 31.386235 12.261942 29 23 C 27 32 16 36 16 36 L 14 40 L 12 36 C 12 36 7.7092593 34.438753 4 31.074219 L 4 38.640625 C 9.0242163 41.919306 14 42 14 42 C 14 42 22.986551 41.863741 29 34 C 42 17 23 6 23 6 z "
       id="path828" />
    <path
       style="fill:#729dec;stroke:none;stroke-width:2;stroke-linecap:round;stroke-linejoin:round;stroke-miterlimit:4;stroke-dasharray:none;stroke-opacity:1"
       d="M 23 6 C 23 6 31.386235 12.261942 29 23 C 27 32 16 36 16 36 L 14 40 L 12 36 C 12 36 7.7092593 34.438753 4 31.074219 L 4 32.490234 C 7.2484541 35.209666 10.652713 36.544356 11.267578 36.773438 L 13.105469 40.447266 A 1.0001 1.0001 0 0 0 13.794922 40.978516 C 13.323246 40.963572 8.63784 40.736271 4 37.451172 L 4 38.640625 C 9.0242164 41.919306 14 42 14 42 C 14 42 22.986551 41.863741 29 34 C 42 17 23 6 23 6 z M 29.263672 13.183594 C 29.515802 13.525452 29.798046 13.797218 30.033203 14.164062 C 33.001953 18.795313 34.499058 25.161989 28.205078 33.392578 C 22.693094 40.600558 14.788537 40.962148 14.195312 40.980469 A 1.0001 1.0001 0 0 0 14.894531 40.447266 L 16.732422 36.773438 C 17.836709 36.362012 27.936789 32.395778 29.976562 23.216797 C 30.853832 19.269084 30.303545 15.921424 29.263672 13.183594 z "
       id="path828-3-7" />
    <path
       style="opacity:0.25;vector-effect:none;fill:#000000;fill-opacity:1;fill-rule:evenodd;stroke:none;stroke-width:4;stroke-linecap:round;stroke-linejoin:round;stroke-miterlimit:4;stroke-dasharray:none;stroke-dashoffset:0;stroke-opacity:1;paint-order:stroke fill markers"
       d="M 8 4 C 5.784 4 4 5.784 4 8 L 4 40 C 4 42.216 5.784 44 8 44 L 40 44 C 42.216 44 44 42.216 44 40 L 44 8 C 44 5.784 42.216 4 40 4 L 8 4 z M 8 5 L 40 5 C 41.662 5 43 6.338 43 8 L 43 40 C 43 41.662 41.662 43 40 43 L 8 43 C 6.338 43 5 41.662 5 40 L 5 8 C 5 6.338 6.338 5 8 5 z "
       id="rect826" />
  </g>
</svg>
