<?xml version="1.0" encoding="UTF-8" standalone="no"?>
<!-- Created with Inkscape (http://www.inkscape.org/) -->

<svg
   xmlns:dc="http://purl.org/dc/elements/1.1/"
   xmlns:cc="http://creativecommons.org/ns#"
   xmlns:rdf="http://www.w3.org/1999/02/22-rdf-syntax-ns#"
   xmlns:svg="http://www.w3.org/2000/svg"
   xmlns="http://www.w3.org/2000/svg"
   xmlns:sodipodi="http://sodipodi.sourceforge.net/DTD/sodipodi-0.dtd"
   xmlns:inkscape="http://www.inkscape.org/namespaces/inkscape"
   width="48px"
   height="48px"
   viewBox="0 0 48 48"
   version="1.1"
   id="SVGRoot"
   inkscape:version="0.92.4 (5da689c313, 2019-01-14)"
   sodipodi:docname="application-x-wii-rom.svg">
  <defs
     id="defs815" />
  <sodipodi:namedview
     id="base"
     pagecolor="#ffffff"
     bordercolor="#666666"
     borderopacity="1.0"
     inkscape:pageopacity="0.0"
     inkscape:pageshadow="2"
     inkscape:zoom="24.254902"
     inkscape:cx="14.587424"
     inkscape:cy="21.836083"
     inkscape:document-units="px"
     inkscape:current-layer="layer1"
     showgrid="true"
     inkscape:window-width="1920"
     inkscape:window-height="1017"
     inkscape:window-x="-8"
     inkscape:window-y="-8"
     inkscape:window-maximized="1"
     inkscape:grid-bbox="true"
     inkscape:snap-global="true">
    <inkscape:grid
       type="xygrid"
       id="grid1371" />
  </sodipodi:namedview>
  <metadata
     id="metadata818">
    <rdf:RDF>
      <cc:Work
         rdf:about="">
        <dc:format>image/svg+xml</dc:format>
        <dc:type
           rdf:resource="http://purl.org/dc/dcmitype/StillImage" />
        <dc:title></dc:title>
      </cc:Work>
    </rdf:RDF>
  </metadata>
  <g
     inkscape:label="Layer 1"
     inkscape:groupmode="layer"
     id="layer1">
    <path
       style="opacity:1;vector-effect:none;fill:#71b9e3;fill-opacity:1;fill-rule:evenodd;stroke:none;paint-order:normal"
       d="M 24 2 C 11.812 2 2 11.812 2 24 C 2 36.188 11.812 46 24 46 C 36.188 46 46 36.188 46 24 C 46 11.812 36.188 2 24 2 z M 24 19 C 26.77 19 29 21.23 29 24 C 29 26.77 26.77 29 24 29 C 21.23 29 19 26.77 19 24 C 19 21.23 21.23 19 24 19 z "
       id="rect830" />
    <path
       style="opacity:0.4;vector-effect:none;fill:#000000;fill-opacity:1;fill-rule:evenodd;stroke:none;paint-order:normal"
       d="M 24 2 C 11.812 2 2 11.812 2 24 C 2 36.188 11.812 46 24 46 C 36.188 46 46 36.188 46 24 C 46 11.812 36.188 2 24 2 z M 24 3 C 35.634 3 45 12.366 45 24 C 45 35.634 35.634 45 24 45 C 12.366 45 3 35.634 3 24 C 3 12.366 12.366 3 24 3 z "
       id="rect832" />
    <path
       style="opacity:0.25;vector-effect:none;fill:#000000;fill-opacity:1;fill-rule:evenodd;stroke:none;paint-order:normal"
       d="M 24 15 C 19.014 15 15 19.014 15 24 C 15 28.986 19.014 33 24 33 C 28.986 33 33 28.986 33 24 C 33 19.014 28.986 15 24 15 z M 24 21 C 25.662 21 27 22.338 27 24 C 27 25.662 25.662 27 24 27 C 22.338 27 21 25.662 21 24 C 21 22.338 22.338 21 24 21 z "
       id="rect944" />
    <path
       style="opacity:1;vector-effect:none;fill:#ffffff;fill-opacity:1;fill-rule:evenodd;stroke:none;stroke-width:1.33333325;paint-order:normal"
       d="M 24 16 C 19.568 16 16 19.568 16 24 C 16 28.432 19.568 32 24 32 C 28.432 32 32 28.432 32 24 C 32 19.568 28.432 16 24 16 z M 24 20 C 26.216 20 28 21.784 28 24 C 28 26.216 26.216 28 24 28 C 21.784 28 20 26.216 20 24 C 20 21.784 21.784 20 24 20 z "
       id="path932" />
    <path
       style="fill:none;stroke:#ffffff;stroke-width:2;stroke-linecap:round;stroke-linejoin:round;stroke-miterlimit:4;stroke-dasharray:none;stroke-opacity:1"
       d="m 5,22 2,6 2,-5 2,5 2,-6"
       id="path845"
       inkscape:connector-curvature="0"
       sodipodi:nodetypes="ccccc" />
  </g>
</svg>
