<?xml version="1.0" encoding="UTF-8" standalone="no"?>
<!-- Created with Inkscape (http://www.inkscape.org/) -->

<svg
   xmlns:dc="http://purl.org/dc/elements/1.1/"
   xmlns:cc="http://creativecommons.org/ns#"
   xmlns:rdf="http://www.w3.org/1999/02/22-rdf-syntax-ns#"
   xmlns:svg="http://www.w3.org/2000/svg"
   xmlns="http://www.w3.org/2000/svg"
   xmlns:sodipodi="http://sodipodi.sourceforge.net/DTD/sodipodi-0.dtd"
   xmlns:inkscape="http://www.inkscape.org/namespaces/inkscape"
   width="48px"
   height="48px"
   viewBox="0 0 48 48"
   version="1.1"
   id="SVGRoot"
   inkscape:version="0.92.4 (5da689c313, 2019-01-14)"
   sodipodi:docname="application-x-sega-pico-rom.svg">
  <defs
     id="defs815">
    <linearGradient
       id="linearGradient1552"
       x1="24"
       x2="24"
       y1="7"
       y2="39"
       gradientUnits="userSpaceOnUse">
      <stop
         stop-color="#92b4da"
         offset="0"
         id="stop823" />
      <stop
         stop-color="#547cb1"
         offset="1"
         id="stop825" />
    </linearGradient>
    <linearGradient
       id="linearGradient857"
       x1="24"
       x2="24"
       y1="11"
       y2="37"
       gradientTransform="translate(0,-1)"
       gradientUnits="userSpaceOnUse">
      <stop
         stop-color="#dbe1e9"
         offset="0"
         id="stop828" />
      <stop
         stop-color="#b9c4d4"
         offset="1"
         id="stop830" />
    </linearGradient>
  </defs>
  <sodipodi:namedview
     id="base"
     pagecolor="#ffffff"
     bordercolor="#666666"
     borderopacity="1.0"
     inkscape:pageopacity="0.0"
     inkscape:pageshadow="2"
     inkscape:zoom="27.705511"
     inkscape:cx="19.014704"
     inkscape:cy="31.070221"
     inkscape:document-units="px"
     inkscape:current-layer="layer1"
     showgrid="true"
     inkscape:window-width="1920"
     inkscape:window-height="1017"
     inkscape:window-x="-8"
     inkscape:window-y="-8"
     inkscape:window-maximized="1"
     inkscape:grid-bbox="true">
    <inkscape:grid
       type="xygrid"
       id="grid1371" />
  </sodipodi:namedview>
  <metadata
     id="metadata818">
    <rdf:RDF>
      <cc:Work
         rdf:about="">
        <dc:format>image/svg+xml</dc:format>
        <dc:type
           rdf:resource="http://purl.org/dc/dcmitype/StillImage" />
        <dc:title></dc:title>
      </cc:Work>
    </rdf:RDF>
  </metadata>
  <g
     inkscape:label="Layer 1"
     inkscape:groupmode="layer"
     id="layer1">
    <rect
       style="opacity:1;vector-effect:none;fill:#6fb8c9;fill-opacity:1;fill-rule:evenodd;stroke:none;paint-order:normal"
       id="rect818"
       width="24"
       height="7"
       x="12"
       y="39"
       ry="1" />
    <path
       style="opacity:0.25;vector-effect:none;fill:#000000;fill-opacity:1;fill-rule:evenodd;stroke:none;paint-order:normal"
       d="M 13 36 C 12.446 36 12 36.446 12 37 L 12 45 C 12 45.554 12.446 46 13 46 L 35 46 C 35.554 46 36 45.554 36 45 L 36 37 C 36 36.446 35.554 36 35 36 L 34.5 36 C 34.777 36 35 36.223 35 36.5 L 35 44.5 C 35 44.777 34.777 45 34.5 45 L 13.5 45 C 13.223 45 13 44.777 13 44.5 L 13 36.5 C 13 36.223 13.223 36 13.5 36 L 13 36 z "
       id="rect832" />
    <path
       style="opacity:1;vector-effect:none;fill:#6fb8c9;fill-opacity:1;fill-rule:evenodd;stroke:none;paint-order:normal"
       d="M 8 2 C 6.892 2 6 2.892 6 4 L 6 6 L 6 36 L 6 38 C 6 39.108 6.892 40 8 40 L 10 40 L 22 40 L 38 40 C 40.216 40 42 38.216 42 36 L 42 6 C 42 3.784 40.216 2 38 2 L 22 2 L 10 2 L 8 2 z "
       id="rect816" />
    <path
       style="opacity:1;vector-effect:none;fill:#377793;fill-opacity:1;fill-rule:evenodd;stroke:none;paint-order:normal"
       d="M 6 4 L 6 6 L 6 28 L 6 30 L 8 30 L 15 30 L 38 30 C 39.108 30 40 29.108 40 28 L 40 6 C 40 4.892 39.108 4 38 4 L 15 4 L 8 4 L 6 4 z "
       id="rect823" />
    <rect
       style="opacity:0.25;vector-effect:none;fill:#000000;fill-opacity:1;fill-rule:evenodd;stroke:none;paint-order:normal"
       id="rect965"
       width="28"
       height="24"
       x="10"
       y="6"
       ry="1" />
    <path
       style="opacity:0.25;vector-effect:none;fill:#000000;fill-opacity:1;fill-rule:evenodd;stroke:none;paint-order:normal"
       d="M 19 33 C 17.892 33 17 33.892 17 35 C 17 36.108 17.892 37 19 37 L 29 37 C 30.108 37 31 36.108 31 35 C 31 33.892 30.108 33 29 33 L 19 33 z M 19 34 L 29 34 C 29.554 34 30 34.446 30 35 C 30 35.554 29.554 36 29 36 L 19 36 C 18.446 36 18 35.554 18 35 C 18 34.446 18.446 34 19 34 z "
       id="rect825" />
    <rect
       style="opacity:1;vector-effect:none;fill:#71b9e3;fill-opacity:1;fill-rule:evenodd;stroke:none;paint-order:normal"
       id="rect871"
       width="5"
       height="7"
       x="33"
       y="14"
       ry="1" />
    <path
       style="opacity:0.25;vector-effect:none;fill:#000000;fill-opacity:1;fill-rule:evenodd;stroke:none;paint-order:normal"
       d="M 8 2 C 6.892 2 6 2.892 6 4 L 6 6 L 6 36 L 6 38 C 6 39.108 6.892 40 8 40 L 10 40 L 22 40 L 38 40 C 40.216 40 42 38.216 42 36 L 42 6 C 42 3.784 40.216 2 38 2 L 22 2 L 10 2 L 8 2 z M 8 3 L 10 3 L 11 3 L 38 3 C 39.662 3 41 4.338 41 6 L 41 36 C 41 37.662 39.662 39 38 39 L 11 39 L 10 39 L 8 39 C 7.446 39 7 38.554 7 38 L 7 36 L 7 6 L 7 4 C 7 3.446 7.446 3 8 3 z "
       id="rect816-7" />
    <rect
       style="opacity:0.25;vector-effect:none;fill:#000000;fill-opacity:1;fill-rule:evenodd;stroke:none;paint-order:normal"
       id="rect859"
       width="8"
       height="2"
       x="20"
       y="41"
       ry="1" />
    <rect
       style="opacity:1;vector-effect:none;fill:#f97263;fill-opacity:1;fill-rule:evenodd;stroke:none;paint-order:normal"
       id="rect873"
       width="6"
       height="7"
       x="32"
       y="21"
       ry="1" />
    <path
       style="opacity:0.25;vector-effect:none;fill:#000000;fill-opacity:1;fill-rule:evenodd;stroke:none;paint-order:normal"
       d="M 35 14 L 35 15 L 36.5 15 C 36.777 15 37 15.223 37 15.5 L 37 19.5 C 37 19.777 36.777 20 36.5 20 L 35 20 L 35 21 L 36 21 L 37 21 C 37.554 21 38 20.554 38 20 L 38 15 C 38 14.446 37.554 14 37 14 L 35 14 z "
       id="rect901-5" />
    <path
       style="opacity:0.25;vector-effect:none;fill:#000000;fill-opacity:1;fill-rule:evenodd;stroke:none;paint-order:normal"
       d="M 35 21 L 35 22 L 36.5 22 C 36.777 22 37 22.223 37 22.5 L 37 26.5 C 37 26.777 36.777 27 36.5 27 L 35 27 L 35 28 L 36 28 L 37 28 C 37.554 28 38 27.554 38 27 L 38 22 C 38 21.446 37.554 21 37 21 L 35 21 z "
       id="rect901-5-5" />
    <path
       style="opacity:1;vector-effect:none;fill:#7e75df;fill-opacity:1;fill-rule:evenodd;stroke:none;paint-order:normal"
       d="M 11 6 C 10.446 6 10 6.446 10 7 L 10 27 C 10 27.554 10.446 28 11 28 L 35 28 C 35.554 28 36 27.554 36 27 L 36 14 L 37 14 C 37.554 14 38 13.554 38 13 L 38 7 C 38 6.446 37.554 6 37 6 L 35 6 L 33 6 L 11 6 z "
       id="rect867" />
    <rect
       style="opacity:0.25;vector-effect:none;fill:#000000;fill-opacity:1;fill-rule:evenodd;stroke:none;paint-order:normal"
       id="rect967"
       width="7"
       height="4"
       x="7"
       y="7"
       ry="2" />
    <path
       style="opacity:0.25;vector-effect:none;fill:#000000;fill-opacity:1;fill-rule:evenodd;stroke:none;paint-order:normal"
       d="M 11 6 C 10.446 6 10 6.446 10 7 L 10 27 C 10 27.554 10.446 28 11 28 L 35 28 C 35.554 28 36 27.554 36 27 L 36 14 L 37 14 C 37.554 14 38 13.554 38 13 L 38 7 C 38 6.446 37.554 6 37 6 L 35 6 L 33 6 L 11 6 z M 11.5 7 L 34.5 7 L 36.5 7 C 36.777 7 37 7.223 37 7.5 L 37 12.5 C 37 12.777 36.777 13 36.5 13 L 35 13 L 35 26.5 C 35 26.777 34.777 27 34.5 27 L 11.5 27 C 11.223 27 11 26.777 11 26.5 L 11 12.5 L 11 7.5 C 11 7.223 11.223 7 11.5 7 z "
       id="rect901" />
    <rect
       style="opacity:1;vector-effect:none;fill:#6fb8c9;fill-opacity:1;fill-rule:evenodd;stroke:none;paint-order:normal"
       id="rect861"
       width="5"
       height="2"
       x="8"
       y="8"
       ry="1" />
    <rect
       style="opacity:0.25;vector-effect:none;fill:#000000;fill-opacity:1;fill-rule:evenodd;stroke:none;paint-order:normal"
       id="rect969"
       width="7"
       height="4"
       x="7"
       y="15"
       ry="2" />
    <rect
       style="opacity:1;vector-effect:none;fill:#6fb8c9;fill-opacity:1;fill-rule:evenodd;stroke:none;paint-order:normal"
       id="rect863"
       width="5"
       height="2"
       x="8"
       y="16"
       ry="1" />
    <rect
       style="opacity:0.25;vector-effect:none;fill:#000000;fill-opacity:1;fill-rule:evenodd;stroke:none;paint-order:normal"
       id="rect971"
       width="7"
       height="4"
       x="7"
       y="23"
       ry="2" />
    <rect
       style="opacity:1;vector-effect:none;fill:#6fb8c9;fill-opacity:1;fill-rule:evenodd;stroke:none;paint-order:normal"
       id="rect865"
       width="5"
       height="2"
       x="8"
       y="24"
       ry="1" />
    <rect
       style="opacity:1;vector-effect:none;fill:#ffd34e;fill-opacity:1;fill-rule:evenodd;stroke:none;stroke-width:0.66666669;paint-order:normal"
       id="rect1083"
       width="10"
       height="10"
       x="19"
       y="12"
       ry="5" />
    <path
       style="opacity:1;vector-effect:none;fill:#ffd34e;fill-opacity:1;fill-rule:evenodd;stroke:none;paint-order:normal"
       d="m 19.050253,12.050253 c -0.391738,0.391737 -0.391738,1.022476 0,1.414213 l 0.707106,0.707107 c 0.391737,0.391737 1.022477,0.391737 1.414214,0 0.391737,-0.391737 0.391737,-1.022477 0,-1.414214 l -0.707107,-0.707106 c -0.391737,-0.391738 -1.022476,-0.391738 -1.414213,0 z m 0,8.485281 c -0.391738,0.391737 -0.391738,1.022476 0,1.414213 0.391737,0.391738 1.022476,0.391738 1.414213,0 l 0.707107,-0.707106 c 0.391737,-0.391737 0.391737,-1.022477 0,-1.414214 -0.391737,-0.391737 -1.022477,-0.391737 -1.414214,0 z m 7.778174,-7.778175 c -0.391737,0.391737 -0.391737,1.022477 0,1.414214 0.391737,0.391737 1.022477,0.391737 1.414214,0 l 0.707106,-0.707107 c 0.391738,-0.391737 0.391738,-1.022476 0,-1.414213 -0.391737,-0.391738 -1.022476,-0.391738 -1.414213,0 z m 0,7.071068 c -0.391737,0.391737 -0.391737,1.022477 0,1.414214 l 0.707107,0.707106 c 0.391737,0.391738 1.022476,0.391738 1.414213,0 0.391738,-0.391737 0.391738,-1.022476 0,-1.414213 l -0.707106,-0.707107 c -0.391737,-0.391737 -1.022477,-0.391737 -1.414214,0 z"
       id="rect1085"
       inkscape:connector-curvature="0" />
    <path
       inkscape:connector-curvature="0"
       style="opacity:1;vector-effect:none;fill:#ffd34e;fill-opacity:1;fill-rule:evenodd;stroke:none;paint-order:normal"
       d="m 24,10 c -0.554,0 -1,0.446 -1,1 v 1 c 0,0.554 0.446,1 1,1 0.554,0 1,-0.446 1,-1 v -1 c 0,-0.554 -0.446,-1 -1,-1 z m -6,6 c -0.554,0 -1,0.446 -1,1 0,0.554 0.446,1 1,1 h 1 c 0.554,0 1,-0.446 1,-1 0,-0.554 -0.446,-1 -1,-1 z m 11,0 c -0.554,0 -1,0.446 -1,1 0,0.554 0.446,1 1,1 h 1 c 0.554,0 1,-0.446 1,-1 0,-0.554 -0.446,-1 -1,-1 z m -5,5 c -0.554,0 -1,0.446 -1,1 v 1 c 0,0.554 0.446,1 1,1 0.554,0 1,-0.446 1,-1 v -1 c 0,-0.554 -0.446,-1 -1,-1 z"
       id="rect1085-9" />
  </g>
</svg>
