<?xml version="1.0" encoding="UTF-8" standalone="no"?>
<!-- Created with Inkscape (http://www.inkscape.org/) -->

<svg
   xmlns:dc="http://purl.org/dc/elements/1.1/"
   xmlns:cc="http://creativecommons.org/ns#"
   xmlns:rdf="http://www.w3.org/1999/02/22-rdf-syntax-ns#"
   xmlns:svg="http://www.w3.org/2000/svg"
   xmlns="http://www.w3.org/2000/svg"
   xmlns:sodipodi="http://sodipodi.sourceforge.net/DTD/sodipodi-0.dtd"
   xmlns:inkscape="http://www.inkscape.org/namespaces/inkscape"
   width="48px"
   height="48px"
   viewBox="0 0 48 48"
   version="1.1"
   id="SVGRoot"
   inkscape:version="0.92.4 (5da689c313, 2019-01-14)"
   sodipodi:docname="image-x-ico-new.svg">
  <defs
     id="defs815">
    <linearGradient
       gradientUnits="userSpaceOnUse"
       y2="39"
       y1="7"
       x2="24"
       x1="24"
       id="linearGradient1552">
      <stop
         id="stop823"
         offset="0"
         stop-color="#92b4da" />
      <stop
         id="stop825"
         offset="1"
         stop-color="#547cb1" />
    </linearGradient>
    <linearGradient
       gradientUnits="userSpaceOnUse"
       gradientTransform="translate(0,-1)"
       y2="37"
       y1="11"
       x2="24"
       x1="24"
       id="linearGradient857">
      <stop
         id="stop828"
         offset="0"
         stop-color="#dbe1e9" />
      <stop
         id="stop830"
         offset="1"
         stop-color="#b9c4d4" />
    </linearGradient>
  </defs>
  <sodipodi:namedview
     id="base"
     pagecolor="#ffffff"
     bordercolor="#666666"
     borderopacity="1.0"
     inkscape:pageopacity="0.0"
     inkscape:pageshadow="2"
     inkscape:zoom="14.076371"
     inkscape:cx="-5.4555328"
     inkscape:cy="15.823057"
     inkscape:document-units="px"
     inkscape:current-layer="layer1"
     showgrid="true"
     inkscape:window-width="1920"
     inkscape:window-height="1017"
     inkscape:window-x="-8"
     inkscape:window-y="-8"
     inkscape:window-maximized="1"
     inkscape:grid-bbox="true">
    <inkscape:grid
       type="xygrid"
       id="grid1371" />
  </sodipodi:namedview>
  <metadata
     id="metadata818">
    <rdf:RDF>
      <cc:Work
         rdf:about="">
        <dc:format>image/svg+xml</dc:format>
        <dc:type
           rdf:resource="http://purl.org/dc/dcmitype/StillImage" />
        <dc:title></dc:title>
      </cc:Work>
    </rdf:RDF>
  </metadata>
  <g
     inkscape:label="Layer 1"
     inkscape:groupmode="layer"
     id="layer1">
    <rect
       style="opacity:1;vector-effect:none;fill:#efefef;fill-opacity:1;fill-rule:evenodd;stroke:none;stroke-width:1px;stroke-linecap:butt;stroke-linejoin:miter;stroke-miterlimit:4;stroke-dasharray:none;stroke-dashoffset:0;stroke-opacity:1;paint-order:stroke fill markers"
       id="rect820-0"
       width="36"
       height="44"
       x="6"
       y="2"
       ry="2" />
    <path
       inkscape:connector-curvature="0"
       style="opacity:0.25;vector-effect:none;fill:#000000;fill-opacity:1;fill-rule:evenodd;stroke:none;stroke-width:1px;stroke-linecap:butt;stroke-linejoin:miter;stroke-miterlimit:4;stroke-dasharray:none;stroke-dashoffset:0;stroke-opacity:1;paint-order:stroke fill markers"
       d="M 8,2 C 6.892,2 6,2.892 6,4 v 40 c 0,1.108 0.892,2 2,2 h 32 c 1.108,0 2,-0.892 2,-2 V 4 C 42,2.892 41.108,2 40,2 Z m 0,1 h 32 c 0.554,0 1,0.446 1,1 v 40 c 0,0.554 -0.446,1 -1,1 H 8 C 7.446,45 7,44.554 7,44 V 4 C 7,3.446 7.446,3 8,3 Z"
       id="rect815-4" />
    <rect
       style="opacity:1;vector-effect:none;fill:#729dec;fill-opacity:1;fill-rule:evenodd;stroke:none;stroke-width:2;stroke-linecap:round;stroke-linejoin:round;stroke-miterlimit:4;stroke-dasharray:none;paint-order:normal"
       id="rect816"
       width="28"
       height="24"
       x="10"
       y="6"
       ry="1" />
    <path
       inkscape:connector-curvature="0"
       style="opacity:0.5;vector-effect:none;fill:#ffffff;fill-opacity:1;fill-rule:evenodd;stroke:none;stroke-width:2;stroke-linecap:round;stroke-linejoin:round;stroke-miterlimit:4;stroke-dasharray:none;paint-order:normal"
       d="m 12,10 v 16 h 2 2 2 6 2 4 2 2 2 V 10 h -2 v 2 h -2 -2 v 2 h -4 v 2 h -2 v 2 h -6 v -2 h -2 v -2 h -2 v -4 z"
       id="rect847" />
    <path
       style="opacity:1;vector-effect:none;fill:#46589d;fill-opacity:1;fill-rule:evenodd;stroke:none;stroke-width:2;stroke-linecap:round;stroke-linejoin:round;stroke-miterlimit:4;stroke-dasharray:none;paint-order:normal"
       d="M 16 16 L 16 18 L 14 18 L 14 20 L 12 20 L 12 24 L 10 24 L 10 29 C 10 29.554 10.446 30 11 30 L 37 30 C 37.554 30 38 29.554 38 29 L 38 24 L 36 24 L 36 22 L 34 22 L 34 20 L 32 20 L 30 20 L 30 22 L 28 22 L 28 24 L 26 24 L 26 22 L 24 22 L 24 20 L 22 20 L 22 18 L 20 18 L 20 16 L 18 16 L 16 16 z "
       id="rect829" />
    <path
       inkscape:connector-curvature="0"
       style="opacity:1;vector-effect:none;fill:#ffffff;fill-opacity:1;fill-rule:evenodd;stroke:none;stroke-width:2;stroke-linecap:round;stroke-linejoin:round;stroke-miterlimit:4;stroke-dasharray:none;paint-order:normal"
       d="m 26,8 v 2 h -2 v 6 h 2 v 2 h 6 v -2 h 2 V 10 H 32 V 8 Z"
       id="rect886" />
    <path
       style="opacity:0.25;vector-effect:none;fill:#000000;fill-opacity:1;fill-rule:evenodd;stroke:none;stroke-width:2;stroke-linecap:round;stroke-linejoin:round;stroke-miterlimit:4;stroke-dasharray:none;paint-order:normal"
       d="m 11,6 c -0.554,0 -1,0.446 -1,1 v 21.99 c 0,0.554 0.446,1 1,1 h 26 c 0.554,0 1,-0.446 1,-1 V 7 C 38,6.446 37.554,6 37,6 Z m 0.5,1 h 25 C 36.777,7 37,7.223 37,7.5 v 20.99 c 0,0.277 -0.223,0.5 -0.5,0.5 h -25 c -0.277,0 -0.5,-0.223 -0.5,-0.5 V 7.5 C 11,7.223 11.223,7 11.5,7 Z"
       id="rect857"
       inkscape:connector-curvature="0"
       sodipodi:nodetypes="ssssssssssssssssss" />
    <path
       style="opacity:0.5;vector-effect:none;fill:#000000;fill-opacity:1;fill-rule:evenodd;stroke:none;stroke-width:2;stroke-linecap:round;stroke-linejoin:round;stroke-miterlimit:4;stroke-dasharray:none;stroke-dashoffset:0;stroke-opacity:1;paint-order:normal"
       d="M 10 32 L 10 34 L 12 34 L 12 40 L 10 40 L 10 42 L 12 42 L 14 42 L 16 42 L 16 40 L 14 40 L 14 34 L 16 34 L 16 32 L 14 32 L 12 32 L 10 32 z "
       id="rect874" />
  </g>
</svg>
