<?xml version="1.0" encoding="UTF-8" standalone="no"?>
<!-- Created with Inkscape (http://www.inkscape.org/) -->

<svg
   xmlns:dc="http://purl.org/dc/elements/1.1/"
   xmlns:cc="http://creativecommons.org/ns#"
   xmlns:rdf="http://www.w3.org/1999/02/22-rdf-syntax-ns#"
   xmlns:svg="http://www.w3.org/2000/svg"
   xmlns="http://www.w3.org/2000/svg"
   xmlns:sodipodi="http://sodipodi.sourceforge.net/DTD/sodipodi-0.dtd"
   xmlns:inkscape="http://www.inkscape.org/namespaces/inkscape"
   width="48px"
   height="48px"
   viewBox="0 0 48 48"
   version="1.1"
   id="SVGRoot"
   inkscape:version="0.92.4 (5da689c313, 2019-01-14)"
   sodipodi:docname="image-ico.svg">
  <defs
     id="defs815">
    <linearGradient
       id="linearGradient1552"
       x1="24"
       x2="24"
       y1="7"
       y2="39"
       gradientUnits="userSpaceOnUse">
      <stop
         stop-color="#92b4da"
         offset="0"
         id="stop823" />
      <stop
         stop-color="#547cb1"
         offset="1"
         id="stop825" />
    </linearGradient>
    <linearGradient
       id="linearGradient857"
       x1="24"
       x2="24"
       y1="11"
       y2="37"
       gradientTransform="translate(0,-1)"
       gradientUnits="userSpaceOnUse">
      <stop
         stop-color="#dbe1e9"
         offset="0"
         id="stop828" />
      <stop
         stop-color="#b9c4d4"
         offset="1"
         id="stop830" />
    </linearGradient>
  </defs>
  <sodipodi:namedview
     id="base"
     pagecolor="#ffffff"
     bordercolor="#666666"
     borderopacity="1.0"
     inkscape:pageopacity="0.0"
     inkscape:pageshadow="2"
     inkscape:zoom="23.484751"
     inkscape:cx="22.661999"
     inkscape:cy="29.439487"
     inkscape:document-units="px"
     inkscape:current-layer="layer1"
     showgrid="true"
     inkscape:window-width="1920"
     inkscape:window-height="1017"
     inkscape:window-x="-8"
     inkscape:window-y="-8"
     inkscape:window-maximized="1"
     inkscape:grid-bbox="true">
    <inkscape:grid
       type="xygrid"
       id="grid1371" />
  </sodipodi:namedview>
  <metadata
     id="metadata818">
    <rdf:RDF>
      <cc:Work
         rdf:about="">
        <dc:format>image/svg+xml</dc:format>
        <dc:type
           rdf:resource="http://purl.org/dc/dcmitype/StillImage" />
        <dc:title></dc:title>
      </cc:Work>
    </rdf:RDF>
  </metadata>
  <g
     inkscape:label="Layer 1"
     inkscape:groupmode="layer"
     id="layer1">
    <rect
       style="opacity:1;vector-effect:none;fill:#efefef;fill-opacity:1;fill-rule:evenodd;stroke:none;stroke-width:1px;stroke-linecap:butt;stroke-linejoin:miter;stroke-miterlimit:4;stroke-dasharray:none;stroke-dashoffset:0;stroke-opacity:1;paint-order:stroke fill markers"
       id="rect820"
       width="36"
       height="44"
       x="6"
       y="2"
       ry="2" />
    <path
       style="opacity:0.25;vector-effect:none;fill:#000000;fill-opacity:1;fill-rule:evenodd;stroke:none;stroke-width:1px;stroke-linecap:butt;stroke-linejoin:miter;stroke-miterlimit:4;stroke-dasharray:none;stroke-dashoffset:0;stroke-opacity:1;paint-order:stroke fill markers"
       d="M 8 2 C 6.892 2 6 2.892 6 4 L 6 44 C 6 45.108 6.892 46 8 46 L 40 46 C 41.108 46 42 45.108 42 44 L 42 4 C 42 2.892 41.108 2 40 2 L 8 2 z M 8 3 L 40 3 C 40.554 3 41 3.446 41 4 L 41 44 C 41 44.554 40.554 45 40 45 L 8 45 C 7.446 45 7 44.554 7 44 L 7 4 C 7 3.446 7.446 3 8 3 z "
       id="rect815" />
    <rect
       style="opacity:1;vector-effect:none;fill:#729dec;fill-opacity:1;fill-rule:evenodd;stroke:none;stroke-width:2;stroke-linecap:round;stroke-linejoin:round;stroke-miterlimit:4;stroke-dasharray:none;paint-order:normal"
       id="rect816"
       width="28"
       height="28"
       x="10"
       y="6"
       ry="1" />
    <path
       style="opacity:0.5;vector-effect:none;fill:#ffffff;fill-opacity:1;fill-rule:evenodd;stroke:none;stroke-width:2;stroke-linecap:round;stroke-linejoin:round;stroke-miterlimit:4;stroke-dasharray:none;paint-order:normal"
       d="M 12 10 L 12 26 L 14 26 L 16 26 L 18 26 L 24 26 L 26 26 L 30 26 L 32 26 L 34 26 L 36 26 L 36 10 L 34 10 L 34 12 L 32 12 L 30 12 L 30 14 L 26 14 L 26 16 L 24 16 L 24 18 L 18 18 L 18 16 L 16 16 L 16 14 L 14 14 L 14 10 L 12 10 z "
       id="rect847" />
    <path
       style="opacity:1;vector-effect:none;fill:#46589d;fill-opacity:1;fill-rule:evenodd;stroke:none;stroke-width:2;stroke-linecap:round;stroke-linejoin:round;stroke-miterlimit:4;stroke-dasharray:none;paint-order:normal"
       d="M 16 18 L 16 20 L 14 20 L 14 22 L 12 22 L 12 26 L 10 26 L 10 33 C 10 33.554 10.446 34 11 34 L 12 34 L 37 34 C 37.554 34 38 33.554 38 33 L 38 26 L 36 26 L 36 24 L 34 24 L 34 22 L 32 22 L 30 22 L 30 24 L 28 24 L 28 26 L 26 26 L 26 24 L 24 24 L 24 22 L 22 22 L 22 20 L 20 20 L 20 18 L 18 18 L 16 18 z "
       id="rect829" />
    <rect
       style="opacity:0.25;vector-effect:none;fill:#000000;fill-opacity:1;fill-rule:evenodd;stroke:none;stroke-width:2;stroke-linecap:round;stroke-linejoin:round;stroke-miterlimit:4;stroke-dasharray:none;paint-order:normal"
       id="rect832"
       width="2"
       height="8"
       x="10"
       y="36" />
    <path
       style="opacity:0.25;vector-effect:none;fill:#000000;fill-opacity:1;fill-rule:evenodd;stroke:none;stroke-width:2;stroke-linecap:round;stroke-linejoin:round;stroke-miterlimit:4;stroke-dasharray:none;paint-order:normal"
       d="M 17 36 C 15.338 36 14 37.338 14 39 L 14 41 C 14 42.662 15.338 44 17 44 C 18.662 44 20 42.662 20 41 L 18 41 C 18 41.554 17.554 42 17 42 C 16.446 42 16 41.554 16 41 L 16 39 C 16 38.446 16.446 38 17 38 C 17.554 38 18 38.446 18 39 L 20 39 C 20 37.338 18.662 36 17 36 z "
       id="rect834" />
    <path
       style="opacity:0.25;vector-effect:none;fill:#000000;fill-opacity:1;fill-rule:evenodd;stroke:none;stroke-width:2;stroke-linecap:round;stroke-linejoin:round;stroke-miterlimit:4;stroke-dasharray:none;paint-order:normal"
       d="M 25 36 C 23.338 36 22 37.338 22 39 L 22 41 C 22 42.662 23.338 44 25 44 C 26.662 44 28 42.662 28 41 L 28 39 C 28 37.338 26.662 36 25 36 z M 25 38 C 25.554 38 26 38.446 26 39 L 26 41 C 26 41.554 25.554 42 25 42 C 24.446 42 24 41.554 24 41 L 24 39 C 24 38.446 24.446 38 25 38 z "
       id="rect842" />
    <path
       style="opacity:1;vector-effect:none;fill:#ffffff;fill-opacity:1;fill-rule:evenodd;stroke:none;stroke-width:2;stroke-linecap:round;stroke-linejoin:round;stroke-miterlimit:4;stroke-dasharray:none;paint-order:normal"
       d="M 26 8 L 26 10 L 24 10 L 24 16 L 26 16 L 26 18 L 32 18 L 32 16 L 34 16 L 34 10 L 32 10 L 32 8 L 26 8 z "
       id="rect886" />
    <path
       style="opacity:0.25;vector-effect:none;fill:#000000;fill-opacity:1;fill-rule:evenodd;stroke:none;stroke-width:2;stroke-linecap:round;stroke-linejoin:round;stroke-miterlimit:4;stroke-dasharray:none;paint-order:normal"
       d="m 11,6 c -0.554,0 -1,0.446 -1,1 v 26 c 0,0.554 0.446,1 1,1 h 26 c 0.554,0 1,-0.446 1,-1 V 7 C 38,6.446 37.554,6 37,6 Z m 0.5,1 h 25 C 36.777,7 37,7.223 37,7.5 v 25 c 0,0.277 -0.223,0.5 -0.5,0.5 h -25 C 11.223,33 11,32.777 11,32.5 V 7.5 C 11,7.223 11.223,7 11.5,7 Z"
       id="rect857"
       inkscape:connector-curvature="0"
       sodipodi:nodetypes="ssssssssssssssssss" />
  </g>
</svg>
