<?xml version="1.0" encoding="UTF-8" standalone="no"?>
<!-- Created with Inkscape (http://www.inkscape.org/) -->

<svg
   xmlns:dc="http://purl.org/dc/elements/1.1/"
   xmlns:cc="http://creativecommons.org/ns#"
   xmlns:rdf="http://www.w3.org/1999/02/22-rdf-syntax-ns#"
   xmlns:svg="http://www.w3.org/2000/svg"
   xmlns="http://www.w3.org/2000/svg"
   xmlns:sodipodi="http://sodipodi.sourceforge.net/DTD/sodipodi-0.dtd"
   xmlns:inkscape="http://www.inkscape.org/namespaces/inkscape"
   width="48px"
   height="48px"
   viewBox="0 0 48 48"
   version="1.1"
   id="SVGRoot"
   inkscape:version="0.92.4 (5da689c313, 2019-01-14)"
   sodipodi:docname="image-xcf.svg">
  <defs
     id="defs815">
    <linearGradient
       id="linearGradient1552"
       x1="24"
       x2="24"
       y1="7"
       y2="39"
       gradientUnits="userSpaceOnUse">
      <stop
         stop-color="#92b4da"
         offset="0"
         id="stop823" />
      <stop
         stop-color="#547cb1"
         offset="1"
         id="stop825" />
    </linearGradient>
    <linearGradient
       id="linearGradient857"
       x1="24"
       x2="24"
       y1="11"
       y2="37"
       gradientTransform="translate(0,-1)"
       gradientUnits="userSpaceOnUse">
      <stop
         stop-color="#dbe1e9"
         offset="0"
         id="stop828" />
      <stop
         stop-color="#b9c4d4"
         offset="1"
         id="stop830" />
    </linearGradient>
  </defs>
  <sodipodi:namedview
     id="base"
     pagecolor="#ffffff"
     bordercolor="#666666"
     borderopacity="1.0"
     inkscape:pageopacity="0.0"
     inkscape:pageshadow="2"
     inkscape:zoom="28.152743"
     inkscape:cx="15.179398"
     inkscape:cy="15.314455"
     inkscape:document-units="px"
     inkscape:current-layer="layer1"
     showgrid="true"
     inkscape:window-width="1920"
     inkscape:window-height="1017"
     inkscape:window-x="-8"
     inkscape:window-y="-8"
     inkscape:window-maximized="1"
     inkscape:grid-bbox="true">
    <inkscape:grid
       type="xygrid"
       id="grid1371" />
  </sodipodi:namedview>
  <metadata
     id="metadata818">
    <rdf:RDF>
      <cc:Work
         rdf:about="">
        <dc:format>image/svg+xml</dc:format>
        <dc:type
           rdf:resource="http://purl.org/dc/dcmitype/StillImage" />
        <dc:title></dc:title>
      </cc:Work>
    </rdf:RDF>
  </metadata>
  <g
     inkscape:label="Layer 1"
     inkscape:groupmode="layer"
     id="layer1">
    <rect
       style="opacity:1;vector-effect:none;fill:#efefef;fill-opacity:1;fill-rule:evenodd;stroke:none;stroke-width:1px;stroke-linecap:butt;stroke-linejoin:miter;stroke-miterlimit:4;stroke-dasharray:none;stroke-dashoffset:0;stroke-opacity:1;paint-order:stroke fill markers"
       id="rect820"
       width="36"
       height="44"
       x="6"
       y="2"
       ry="2" />
    <path
       style="opacity:0.25;vector-effect:none;fill:#000000;fill-opacity:1;fill-rule:evenodd;stroke:none;stroke-width:1px;stroke-linecap:butt;stroke-linejoin:miter;stroke-miterlimit:4;stroke-dasharray:none;stroke-dashoffset:0;stroke-opacity:1;paint-order:stroke fill markers"
       d="M 8 2 C 6.892 2 6 2.892 6 4 L 6 44 C 6 45.108 6.892 46 8 46 L 40 46 C 41.108 46 42 45.108 42 44 L 42 4 C 42 2.892 41.108 2 40 2 L 8 2 z M 8 3 L 40 3 C 40.554 3 41 3.446 41 4 L 41 44 C 41 44.554 40.554 45 40 45 L 8 45 C 7.446 45 7 44.554 7 44 L 7 4 C 7 3.446 7.446 3 8 3 z "
       id="rect815" />
    <rect
       style="opacity:1;vector-effect:none;fill:#cf953e;fill-opacity:1;fill-rule:evenodd;stroke:none;stroke-width:2;stroke-linecap:round;stroke-linejoin:round;stroke-miterlimit:4;stroke-dasharray:none;paint-order:normal"
       id="rect816"
       width="28"
       height="28"
       x="10"
       y="6"
       ry="1" />
    <path
       style="opacity:0.5;fill:#ffffff;stroke:none;stroke-width:1px;stroke-linecap:butt;stroke-linejoin:miter;stroke-opacity:1"
       d="m 12,10 c 0,0 2.857447,6.25175 8,7 5.142553,0.74825 16,-6 16,-6 v 21 c 0,0 -11.098718,-5.26876 -16,-5 -4.901282,0.26876 -8,4 -8,4 z"
       id="path837"
       inkscape:connector-curvature="0"
       sodipodi:nodetypes="czcczcc" />
    <path
       style="fill:#886229;stroke:none;stroke-width:1px;stroke-linecap:butt;stroke-linejoin:miter;stroke-opacity:1;fill-opacity:1"
       d="m 18,18 c -3,0 -8,8 -8,8 v 7 c 0,0.554 0.446,1 1,1 h 26 c 0.554,0 1,-0.446 1,-1 v -7 c 0,0 -4,-5 -6,-5 -2,0 -4,5 -5,5 -1,0 -6,-8 -9,-8 z"
       id="path835"
       inkscape:connector-curvature="0" />
    <rect
       style="opacity:1;vector-effect:none;fill:#ffffff;fill-opacity:1;fill-rule:evenodd;stroke:none;stroke-width:2.5;stroke-linecap:round;stroke-linejoin:round;stroke-miterlimit:4;stroke-dasharray:none;paint-order:normal"
       id="rect839"
       width="10"
       height="10"
       x="24"
       y="8"
       ry="5" />
    <path
       style="opacity:0.25;vector-effect:none;fill:#000000;fill-opacity:1;fill-rule:evenodd;stroke:none;stroke-width:2;stroke-linecap:round;stroke-linejoin:round;stroke-miterlimit:4;stroke-dasharray:none;paint-order:normal"
       d="m 11,6 c -0.554,0 -1,0.446 -1,1 v 26 c 0,0.554 0.446,1 1,1 h 26 c 0.554,0 1,-0.446 1,-1 V 7 C 38,6.446 37.554,6 37,6 Z m 0.5,1 h 25 C 36.777,7 37,7.223 37,7.5 v 25 c 0,0.277 -0.223,0.5 -0.5,0.5 h -25 C 11.223,33 11,32.777 11,32.5 V 7.5 C 11,7.223 11.223,7 11.5,7 Z"
       id="rect857"
       inkscape:connector-curvature="0"
       sodipodi:nodetypes="ssssssssssssssssss" />
    <path
       style="opacity:0.25;vector-effect:none;fill:#000000;fill-opacity:1;fill-rule:evenodd;stroke:none;stroke-width:2;stroke-linecap:round;stroke-linejoin:round;stroke-miterlimit:4;stroke-dasharray:none;paint-order:normal"
       d="m 26,36 v 8 h 2 v -2 h 4 v -2 h -4 v -2 h 4 v -2 h -4 z"
       id="rect908"
       inkscape:connector-curvature="0" />
    <path
       inkscape:connector-curvature="0"
       style="opacity:0.25;vector-effect:none;fill:#000000;fill-opacity:1;fill-rule:evenodd;stroke:none;stroke-width:2;stroke-linecap:round;stroke-linejoin:round;stroke-miterlimit:4;stroke-dasharray:none;paint-order:normal"
       d="m 21,36 c -1.662,0 -3,1.338 -3,3 v 2 c 0,1.662 1.338,3 3,3 1.662,0 3,-1.338 3,-3 h -2 c 0,0.554 -0.446,1 -1,1 -0.554,0 -1,-0.446 -1,-1 v -2 c 0,-0.554 0.446,-1 1,-1 0.554,0 1,0.446 1,1 h 2 c 0,-1.662 -1.338,-3 -3,-3 z"
       id="rect834" />
    <path
       style="fill:#000000;stroke:none;stroke-width:1px;stroke-linecap:butt;stroke-linejoin:miter;stroke-opacity:1;opacity:0.25"
       d="M 10 36 L 12 40 L 10 44 L 12 44 L 13 42 L 14 44 L 16 44 L 14 40 L 16 36 L 14 36 L 13 38 L 12 36 L 10 36 z "
       id="path899" />
  </g>
</svg>
