<?xml version="1.0" encoding="UTF-8" standalone="no"?>
<!-- Created with Inkscape (http://www.inkscape.org/) -->

<svg
   xmlns:dc="http://purl.org/dc/elements/1.1/"
   xmlns:cc="http://creativecommons.org/ns#"
   xmlns:rdf="http://www.w3.org/1999/02/22-rdf-syntax-ns#"
   xmlns:svg="http://www.w3.org/2000/svg"
   xmlns="http://www.w3.org/2000/svg"
   xmlns:sodipodi="http://sodipodi.sourceforge.net/DTD/sodipodi-0.dtd"
   xmlns:inkscape="http://www.inkscape.org/namespaces/inkscape"
   width="48px"
   height="48px"
   viewBox="0 0 48 48"
   version="1.1"
   id="SVGRoot"
   inkscape:version="0.92.4 (5da689c313, 2019-01-14)"
   sodipodi:docname="text-x-css.svg">
  <defs
     id="defs815" />
  <sodipodi:namedview
     id="base"
     pagecolor="#ffffff"
     bordercolor="#666666"
     borderopacity="1.0"
     inkscape:pageopacity="0.0"
     inkscape:pageshadow="2"
     inkscape:zoom="8.4371443"
     inkscape:cx="7.7976864"
     inkscape:cy="25.247307"
     inkscape:document-units="px"
     inkscape:current-layer="layer1"
     showgrid="true"
     inkscape:window-width="1920"
     inkscape:window-height="1017"
     inkscape:window-x="-8"
     inkscape:window-y="-8"
     inkscape:window-maximized="1"
     inkscape:grid-bbox="true">
    <inkscape:grid
       type="xygrid"
       id="grid1371" />
  </sodipodi:namedview>
  <metadata
     id="metadata818">
    <rdf:RDF>
      <cc:Work
         rdf:about="">
        <dc:format>image/svg+xml</dc:format>
        <dc:type
           rdf:resource="http://purl.org/dc/dcmitype/StillImage" />
        <dc:title></dc:title>
      </cc:Work>
    </rdf:RDF>
  </metadata>
  <g
     inkscape:label="Layer 1"
     inkscape:groupmode="layer"
     id="layer1">
    <path
       style="opacity:1;vector-effect:none;fill:#efefef;fill-opacity:1;fill-rule:evenodd;stroke:none;stroke-width:1px;stroke-linecap:butt;stroke-linejoin:miter;stroke-miterlimit:4;stroke-dasharray:none;stroke-dashoffset:0;stroke-opacity:1;paint-order:stroke fill markers"
       d="M 8 2 C 6.892 2 6 2.892 6 4 L 6 44 C 6 45.108 6.892 46 8 46 L 40 46 C 41.108 46 42 45.108 42 44 L 42 14 L 34 10 L 30 2 L 8 2 z "
       id="rect820" />
    <path
       style="opacity:0.25;vector-effect:none;fill:#000000;fill-opacity:1;fill-rule:evenodd;stroke:none;stroke-width:1px;stroke-linecap:butt;stroke-linejoin:miter;stroke-miterlimit:4;stroke-dasharray:none;stroke-dashoffset:0;stroke-opacity:1;paint-order:stroke fill markers"
       d="M 8 2 C 6.892 2 6 2.892 6 4 L 6 44 C 6 45.108 6.892 46 8 46 L 40 46 C 41.108 46 42 45.108 42 44 L 42 14 L 41 13.5 L 41 44 C 41 44.554 40.554 45 40 45 L 8 45 C 7.446 45 7 44.554 7 44 L 7 4 C 7 3.446 7.446 3 8 3 L 30.5 3 L 30 2 L 8 2 z "
       id="rect815" />
    <path
       inkscape:connector-curvature="0"
       style="opacity:0.15;fill:#000000;stroke:none;stroke-width:1px;stroke-linecap:butt;stroke-linejoin:miter;stroke-opacity:1"
       d="m 42,18 -4,-4 h 4 z M 30,6 26,2 h 4 z"
       id="path957" />
    <path
       style="opacity:1;vector-effect:none;fill:#efefef;fill-opacity:1;fill-rule:evenodd;paint-order:stroke fill markers"
       d="m 34,14 c -2.216,0 -4,-1.784 -4,-4 V 2 l 12,12 z"
       id="rect879"
       inkscape:connector-curvature="0" />
    <path
       inkscape:connector-curvature="0"
       style="opacity:0.25;vector-effect:none;fill:#000000;fill-opacity:1;fill-rule:evenodd;stroke:none;stroke-width:4;stroke-linecap:round;stroke-linejoin:round;stroke-miterlimit:4;stroke-dasharray:none;stroke-dashoffset:0;stroke-opacity:1;paint-order:stroke fill markers"
       d="m 34,14 c -2.216,0 -4,-1.784 -4,-4 V 3 2 l 1,1 10,10 1,1 h -1 z m 0,-1 h 5.5 L 31,4.5 V 10 c 0,1.662 1.338,3 3,3 z"
       id="rect819-9"
       sodipodi:nodetypes="ssccccccssccss" />
    <rect
       style="opacity:1;vector-effect:none;fill:#f68d59;fill-opacity:1;fill-rule:evenodd;stroke:none;stroke-width:2;stroke-linecap:round;stroke-linejoin:round;stroke-miterlimit:4;stroke-dasharray:none;stroke-opacity:1;paint-order:normal"
       id="rect821"
       width="6"
       height="6"
       x="13"
       y="17"
       ry="1" />
    <rect
       style="opacity:1;vector-effect:none;fill:#ffdd75;fill-opacity:1;fill-rule:evenodd;stroke:none;stroke-width:2;stroke-linecap:round;stroke-linejoin:round;stroke-miterlimit:4;stroke-dasharray:none;stroke-opacity:1;paint-order:normal"
       id="rect821-9"
       width="6"
       height="6"
       x="13"
       y="25"
       ry="1" />
    <rect
       style="opacity:1;vector-effect:none;fill:#f280a3;fill-opacity:1;fill-rule:evenodd;stroke:none;stroke-width:2;stroke-linecap:round;stroke-linejoin:round;stroke-miterlimit:4;stroke-dasharray:none;stroke-opacity:1;paint-order:normal"
       id="rect823-4"
       width="6"
       height="6"
       x="21"
       y="25"
       ry="1" />
    <rect
       style="opacity:1;vector-effect:none;fill:#96d56b;fill-opacity:1;fill-rule:evenodd;stroke:none;stroke-width:2;stroke-linecap:round;stroke-linejoin:round;stroke-miterlimit:4;stroke-dasharray:none;stroke-opacity:1;paint-order:normal"
       id="rect821-3"
       width="6"
       height="6"
       x="13"
       y="33"
       ry="1" />
    <rect
       style="opacity:1;vector-effect:none;fill:#96dfd3;fill-opacity:1;fill-rule:evenodd;stroke:none;stroke-width:2;stroke-linecap:round;stroke-linejoin:round;stroke-miterlimit:4;stroke-dasharray:none;stroke-opacity:1;paint-order:normal"
       id="rect823-9"
       width="6"
       height="6"
       x="21"
       y="33"
       ry="1" />
    <rect
       style="opacity:1;vector-effect:none;fill:#729dec;fill-opacity:1;fill-rule:evenodd;stroke:none;stroke-width:2;stroke-linecap:round;stroke-linejoin:round;stroke-miterlimit:4;stroke-dasharray:none;stroke-opacity:1;paint-order:normal"
       id="rect825-5"
       width="6"
       height="6"
       x="29"
       y="33"
       ry="1" />
    <path
       style="opacity:0.25;vector-effect:none;fill:#000000;fill-opacity:1;fill-rule:evenodd;stroke:none;stroke-width:2;stroke-linecap:round;stroke-linejoin:round;stroke-miterlimit:4;stroke-dasharray:none;stroke-opacity:1;paint-order:normal"
       d="M 14 17 C 13.446 17 13 17.446 13 18 L 13 22 C 13 22.554 13.446 23 14 23 L 18 23 C 18.554 23 19 22.554 19 22 L 19 18 C 19 17.446 18.554 17 18 17 L 14 17 z M 14.5 18 L 17.5 18 C 17.777 18 18 18.223 18 18.5 L 18 21.5 C 18 21.777 17.777 22 17.5 22 L 14.5 22 C 14.223 22 14 21.777 14 21.5 L 14 18.5 C 14 18.223 14.223 18 14.5 18 z "
       id="rect894" />
    <path
       inkscape:connector-curvature="0"
       style="opacity:0.25;vector-effect:none;fill:#000000;fill-opacity:1;fill-rule:evenodd;stroke:none;stroke-width:2;stroke-linecap:round;stroke-linejoin:round;stroke-miterlimit:4;stroke-dasharray:none;stroke-opacity:1;paint-order:normal"
       d="m 14,25 c -0.554,0 -1,0.446 -1,1 v 4 c 0,0.554 0.446,1 1,1 h 4 c 0.554,0 1,-0.446 1,-1 v -4 c 0,-0.554 -0.446,-1 -1,-1 z m 0.5,1 h 3 c 0.277,0 0.5,0.223 0.5,0.5 v 3 c 0,0.277 -0.223,0.5 -0.5,0.5 h -3 C 14.223,30 14,29.777 14,29.5 v -3 C 14,26.223 14.223,26 14.5,26 Z"
       id="rect894-1" />
    <path
       inkscape:connector-curvature="0"
       style="opacity:0.25;vector-effect:none;fill:#000000;fill-opacity:1;fill-rule:evenodd;stroke:none;stroke-width:2;stroke-linecap:round;stroke-linejoin:round;stroke-miterlimit:4;stroke-dasharray:none;stroke-opacity:1;paint-order:normal"
       d="m 14,33 c -0.554,0 -1,0.446 -1,1 v 4 c 0,0.554 0.446,1 1,1 h 4 c 0.554,0 1,-0.446 1,-1 v -4 c 0,-0.554 -0.446,-1 -1,-1 z m 0.5,1 h 3 c 0.277,0 0.5,0.223 0.5,0.5 v 3 c 0,0.277 -0.223,0.5 -0.5,0.5 h -3 C 14.223,38 14,37.777 14,37.5 v -3 C 14,34.223 14.223,34 14.5,34 Z"
       id="rect894-12" />
    <path
       inkscape:connector-curvature="0"
       style="opacity:0.25;vector-effect:none;fill:#000000;fill-opacity:1;fill-rule:evenodd;stroke:none;stroke-width:2;stroke-linecap:round;stroke-linejoin:round;stroke-miterlimit:4;stroke-dasharray:none;stroke-opacity:1;paint-order:normal"
       d="m 22,25 c -0.554,0 -1,0.446 -1,1 v 4 c 0,0.554 0.446,1 1,1 h 4 c 0.554,0 1,-0.446 1,-1 v -4 c 0,-0.554 -0.446,-1 -1,-1 z m 0.5,1 h 3 c 0.277,0 0.5,0.223 0.5,0.5 v 3 c 0,0.277 -0.223,0.5 -0.5,0.5 h -3 C 22.223,30 22,29.777 22,29.5 v -3 C 22,26.223 22.223,26 22.5,26 Z"
       id="rect894-7" />
    <path
       inkscape:connector-curvature="0"
       style="opacity:0.25;vector-effect:none;fill:#000000;fill-opacity:1;fill-rule:evenodd;stroke:none;stroke-width:2;stroke-linecap:round;stroke-linejoin:round;stroke-miterlimit:4;stroke-dasharray:none;stroke-opacity:1;paint-order:normal"
       d="m 30,33 c -0.554,0 -1,0.446 -1,1 v 4 c 0,0.554 0.446,1 1,1 h 4 c 0.554,0 1,-0.446 1,-1 v -4 c 0,-0.554 -0.446,-1 -1,-1 z m 0.5,1 h 3 c 0.277,0 0.5,0.223 0.5,0.5 v 3 c 0,0.277 -0.223,0.5 -0.5,0.5 h -3 C 30.223,38 30,37.777 30,37.5 v -3 C 30,34.223 30.223,34 30.5,34 Z"
       id="rect894-7-1" />
    <path
       inkscape:connector-curvature="0"
       style="opacity:0.25;vector-effect:none;fill:#000000;fill-opacity:1;fill-rule:evenodd;stroke:none;stroke-width:2;stroke-linecap:round;stroke-linejoin:round;stroke-miterlimit:4;stroke-dasharray:none;stroke-opacity:1;paint-order:normal"
       d="m 22,33 c -0.554,0 -1,0.446 -1,1 v 4 c 0,0.554 0.446,1 1,1 h 4 c 0.554,0 1,-0.446 1,-1 v -4 c 0,-0.554 -0.446,-1 -1,-1 z m 0.5,1 h 3 c 0.277,0 0.5,0.223 0.5,0.5 v 3 c 0,0.277 -0.223,0.5 -0.5,0.5 h -3 C 22.223,38 22,37.777 22,37.5 v -3 C 22,34.223 22.223,34 22.5,34 Z"
       id="rect894-7-4" />
  </g>
</svg>
