<?xml version="1.0" encoding="UTF-8" standalone="no"?>
<!-- Created with Inkscape (http://www.inkscape.org/) -->

<svg
   xmlns:dc="http://purl.org/dc/elements/1.1/"
   xmlns:cc="http://creativecommons.org/ns#"
   xmlns:rdf="http://www.w3.org/1999/02/22-rdf-syntax-ns#"
   xmlns:svg="http://www.w3.org/2000/svg"
   xmlns="http://www.w3.org/2000/svg"
   xmlns:sodipodi="http://sodipodi.sourceforge.net/DTD/sodipodi-0.dtd"
   xmlns:inkscape="http://www.inkscape.org/namespaces/inkscape"
   width="48px"
   height="48px"
   viewBox="0 0 48 48"
   version="1.1"
   id="SVGRoot"
   inkscape:version="0.92.4 (5da689c313, 2019-01-14)"
   sodipodi:docname="video-x-generic.svg">
  <defs
     id="defs815" />
  <sodipodi:namedview
     id="base"
     pagecolor="#ffffff"
     bordercolor="#666666"
     borderopacity="1.0"
     inkscape:pageopacity="0.0"
     inkscape:pageshadow="2"
     inkscape:zoom="13.852756"
     inkscape:cx="17.39274"
     inkscape:cy="24.09915"
     inkscape:document-units="px"
     inkscape:current-layer="layer1"
     showgrid="true"
     inkscape:window-width="1920"
     inkscape:window-height="1017"
     inkscape:window-x="-8"
     inkscape:window-y="-8"
     inkscape:window-maximized="1"
     inkscape:grid-bbox="true">
    <inkscape:grid
       type="xygrid"
       id="grid1371" />
  </sodipodi:namedview>
  <metadata
     id="metadata818">
    <rdf:RDF>
      <cc:Work
         rdf:about="">
        <dc:format>image/svg+xml</dc:format>
        <dc:type
           rdf:resource="http://purl.org/dc/dcmitype/StillImage" />
        <dc:title></dc:title>
      </cc:Work>
    </rdf:RDF>
  </metadata>
  <g
     inkscape:label="Layer 1"
     inkscape:groupmode="layer"
     id="layer1">
    <rect
       style="opacity:1;vector-effect:none;fill:#4e4e4e;fill-opacity:1;fill-rule:evenodd;stroke:none;stroke-width:1px;stroke-linecap:butt;stroke-linejoin:miter;stroke-miterlimit:4;stroke-dasharray:none;stroke-dashoffset:0;stroke-opacity:1;paint-order:stroke fill markers"
       id="rect820"
       width="36"
       height="44"
       x="6"
       y="2"
       ry="2" />
    <path
       style="opacity:1;vector-effect:none;fill:#f6af59;fill-opacity:1;fill-rule:evenodd;stroke:none;stroke-width:2;stroke-linecap:round;stroke-linejoin:round;stroke-miterlimit:4;stroke-dasharray:none;stroke-opacity:1;paint-order:normal"
       d="M 12 2 L 12 11 C 12 11.554 12.446 12 13 12 L 35 12 C 35.554 12 36 11.554 36 11 L 36 2 L 12 2 z M 13 14 C 12.446 14 12 14.446 12 15 L 12 33 C 12 33.554 12.446 34 13 34 L 35 34 C 35.554 34 36 33.554 36 33 L 36 15 C 36 14.446 35.554 14 35 14 L 13 14 z M 13 36 C 12.446 36 12 36.446 12 37 L 12 46 L 36 46 L 36 37 C 36 36.446 35.554 36 35 36 L 13 36 z "
       id="rect826" />
    <path
       style="fill:#ffffff;stroke:none;stroke-width:1px;stroke-linecap:butt;stroke-linejoin:miter;stroke-opacity:1"
       d="m 20,19 v 10 l 9,-5 z"
       id="path862"
       inkscape:connector-curvature="0"
       sodipodi:nodetypes="cccc" />
    <path
       style="opacity:0.4;vector-effect:none;fill:#000000;fill-opacity:1;fill-rule:evenodd;stroke:none;stroke-width:1px;stroke-linecap:butt;stroke-linejoin:miter;stroke-miterlimit:4;stroke-dasharray:none;stroke-dashoffset:0;stroke-opacity:1;paint-order:stroke fill markers"
       d="M 8 2 C 6.892 2 6 2.892 6 4 L 6 44 C 6 45.108 6.892 46 8 46 L 40 46 C 41.108 46 42 45.108 42 44 L 42 4 C 42 2.892 41.108 2 40 2 L 8 2 z M 8 3 L 40 3 C 40.554 3 41 3.446 41 4 L 41 44 C 41 44.554 40.554 45 40 45 L 8 45 C 7.446 45 7 44.554 7 44 L 7 4 C 7 3.446 7.446 3 8 3 z "
       id="rect815" />
    <path
       style="opacity:0.4;vector-effect:none;fill:#000000;fill-opacity:1;fill-rule:evenodd;stroke:none;stroke-width:2;stroke-linecap:round;stroke-linejoin:round;stroke-miterlimit:4;stroke-dasharray:none;stroke-opacity:1;paint-order:normal"
       d="M 8 3 L 8 5 L 10 5 L 10 3 L 8 3 z M 8 7 L 8 9 L 10 9 L 10 7 L 8 7 z M 8 11 L 8 13 L 10 13 L 10 11 L 8 11 z M 8 15 L 8 17 L 10 17 L 10 15 L 8 15 z M 8 19 L 8 21 L 10 21 L 10 19 L 8 19 z M 8 23 L 8 25 L 10 25 L 10 23 L 8 23 z M 8 27 L 8 29 L 10 29 L 10 27 L 8 27 z M 8 31 L 8 33 L 10 33 L 10 31 L 8 31 z M 8 35 L 8 37 L 10 37 L 10 35 L 8 35 z M 8 39 L 8 41 L 10 41 L 10 39 L 8 39 z M 8 43 L 8 45 L 10 45 L 10 43 L 8 43 z "
       id="rect910" />
    <path
       inkscape:connector-curvature="0"
       style="opacity:0.4;vector-effect:none;fill:#000000;fill-opacity:1;fill-rule:evenodd;stroke:none;stroke-width:2;stroke-linecap:round;stroke-linejoin:round;stroke-miterlimit:4;stroke-dasharray:none;stroke-opacity:1;paint-order:normal"
       d="m 38,3 v 2 h 2 V 3 Z m 0,4 v 2 h 2 V 7 Z m 0,4 v 2 h 2 v -2 z m 0,4 v 2 h 2 v -2 z m 0,4 v 2 h 2 v -2 z m 0,4 v 2 h 2 v -2 z m 0,4 v 2 h 2 v -2 z m 0,4 v 2 h 2 v -2 z m 0,4 v 2 h 2 v -2 z m 0,4 v 2 h 2 v -2 z m 0,4 v 2 h 2 v -2 z"
       id="rect910-7" />
  </g>
</svg>
