<?xml version="1.0" encoding="UTF-8" standalone="no"?>
<!-- Created with Inkscape (http://www.inkscape.org/) -->

<svg
   xmlns:dc="http://purl.org/dc/elements/1.1/"
   xmlns:cc="http://creativecommons.org/ns#"
   xmlns:rdf="http://www.w3.org/1999/02/22-rdf-syntax-ns#"
   xmlns:svg="http://www.w3.org/2000/svg"
   xmlns="http://www.w3.org/2000/svg"
   xmlns:sodipodi="http://sodipodi.sourceforge.net/DTD/sodipodi-0.dtd"
   xmlns:inkscape="http://www.inkscape.org/namespaces/inkscape"
   width="48px"
   height="48px"
   viewBox="0 0 48 48"
   version="1.1"
   id="SVGRoot"
   inkscape:version="0.92.4 (5da689c313, 2019-01-14)"
   sodipodi:docname="x-office-spreadsheet.svg">
  <defs
     id="defs815" />
  <sodipodi:namedview
     id="base"
     pagecolor="#ffffff"
     bordercolor="#666666"
     borderopacity="1.0"
     inkscape:pageopacity="0.0"
     inkscape:pageshadow="2"
     inkscape:zoom="16.874289"
     inkscape:cx="8.8225246"
     inkscape:cy="23.075801"
     inkscape:document-units="px"
     inkscape:current-layer="layer1"
     showgrid="true"
     inkscape:window-width="1920"
     inkscape:window-height="1017"
     inkscape:window-x="-8"
     inkscape:window-y="-8"
     inkscape:window-maximized="1"
     inkscape:grid-bbox="true">
    <inkscape:grid
       type="xygrid"
       id="grid1371" />
  </sodipodi:namedview>
  <metadata
     id="metadata818">
    <rdf:RDF>
      <cc:Work
         rdf:about="">
        <dc:format>image/svg+xml</dc:format>
        <dc:type
           rdf:resource="http://purl.org/dc/dcmitype/StillImage" />
        <dc:title></dc:title>
      </cc:Work>
    </rdf:RDF>
  </metadata>
  <g
     inkscape:label="Layer 1"
     inkscape:groupmode="layer"
     id="layer1">
    <path
       style="opacity:1;vector-effect:none;fill:#efefef;fill-opacity:1;fill-rule:evenodd;stroke:none;stroke-width:1px;stroke-linecap:butt;stroke-linejoin:miter;stroke-miterlimit:4;stroke-dasharray:none;stroke-dashoffset:0;stroke-opacity:1;paint-order:stroke fill markers"
       d="M 8 2 C 6.892 2 6 2.892 6 4 L 6 44 C 6 45.108 6.892 46 8 46 L 40 46 C 41.108 46 42 45.108 42 44 L 42 14 L 34 10 L 30 2 L 8 2 z "
       id="rect820" />
    <path
       style="opacity:1;vector-effect:none;fill:#96d56b;fill-opacity:1;fill-rule:evenodd;stroke:none;stroke-width:4;stroke-linecap:round;stroke-linejoin:round;stroke-miterlimit:4;stroke-dasharray:none;stroke-opacity:1;paint-order:stroke fill markers"
       d="M 8,2 C 6.892,2 6,2.892 6,4 v 2 1 5 H 8 35 L 30,6 V 4 2 h -2 z"
       id="rect854"
       inkscape:connector-curvature="0"
       sodipodi:nodetypes="sscccccccccs" />
    <path
       style="opacity:0.25;vector-effect:none;fill:#000000;fill-opacity:1;fill-rule:evenodd;stroke:none;stroke-width:1px;stroke-linecap:butt;stroke-linejoin:miter;stroke-miterlimit:4;stroke-dasharray:none;stroke-dashoffset:0;stroke-opacity:1;paint-order:stroke fill markers"
       d="M 8 2 C 6.892 2 6 2.892 6 4 L 6 44 C 6 45.108 6.892 46 8 46 L 40 46 C 41.108 46 42 45.108 42 44 L 42 14 L 41 13.5 L 41 44 C 41 44.554 40.554 45 40 45 L 8 45 C 7.446 45 7 44.554 7 44 L 7 4 C 7 3.446 7.446 3 8 3 L 30.5 3 L 30 2 L 8 2 z "
       id="rect815" />
    <path
       inkscape:connector-curvature="0"
       style="opacity:0.1;fill:#000000;stroke:none;stroke-width:1px;stroke-linecap:butt;stroke-linejoin:miter;stroke-opacity:1"
       d="m 42,18 -4,-4 h 4 z M 30,6 26,2 h 4 z"
       id="path957" />
    <path
       style="opacity:1;vector-effect:none;fill:#96d56b;fill-opacity:1;fill-rule:evenodd;paint-order:stroke fill markers"
       d="m 34,14 c -2.216,0 -4,-1.784 -4,-4 V 2 l 12,12 z"
       id="rect879"
       inkscape:connector-curvature="0" />
    <path
       inkscape:connector-curvature="0"
       style="opacity:0.25;vector-effect:none;fill:#000000;fill-opacity:1;fill-rule:evenodd;stroke:none;stroke-width:4;stroke-linecap:round;stroke-linejoin:round;stroke-miterlimit:4;stroke-dasharray:none;stroke-dashoffset:0;stroke-opacity:1;paint-order:stroke fill markers"
       d="m 34,14 c -2.216,0 -4,-1.784 -4,-4 V 3 2 l 1,1 10,10 1,1 h -1 z m 0,-1 h 5.5 L 31,4.5 V 10 c 0,1.662 1.338,3 3,3 z"
       id="rect819-9"
       sodipodi:nodetypes="ssccccccssccss" />
    <rect
       style="opacity:1;vector-effect:none;fill:#7ebc53;fill-opacity:1;fill-rule:evenodd;stroke:none;stroke-width:2;stroke-linecap:round;stroke-linejoin:round;stroke-miterlimit:4;stroke-dasharray:none;paint-order:normal"
       id="rect865"
       width="24"
       height="20"
       x="12"
       y="20"
       ry="2" />
    <rect
       style="opacity:1;vector-effect:none;fill:#efefef;fill-opacity:1;fill-rule:evenodd;stroke:none;stroke-width:2;stroke-linecap:round;stroke-linejoin:round;stroke-miterlimit:4;stroke-dasharray:none;paint-order:normal"
       id="rect867"
       width="20"
       height="16"
       x="14"
       y="22"
       ry="1" />
    <rect
       style="opacity:1;vector-effect:none;fill:#7ebc53;fill-opacity:1;fill-rule:evenodd;stroke:none;stroke-width:2.12132025;stroke-linecap:round;stroke-linejoin:round;stroke-miterlimit:4;stroke-dasharray:none;paint-order:normal"
       id="rect869"
       width="2"
       height="18"
       x="23"
       y="21" />
    <rect
       style="opacity:1;vector-effect:none;fill:#7ebc53;fill-opacity:1;fill-rule:evenodd;stroke:none;stroke-width:1.91485417;stroke-linecap:round;stroke-linejoin:round;stroke-miterlimit:4;stroke-dasharray:none;paint-order:normal"
       id="rect871"
       width="22"
       height="2"
       x="13"
       y="26" />
    <rect
       style="opacity:1;vector-effect:none;fill:#7ebc53;fill-opacity:1;fill-rule:evenodd;stroke:none;stroke-width:1.91485417;stroke-linecap:round;stroke-linejoin:round;stroke-miterlimit:4;stroke-dasharray:none;paint-order:normal"
       id="rect873"
       width="22"
       height="2"
       x="13"
       y="32" />
  </g>
</svg>
