<?xml version="1.0" encoding="UTF-8" standalone="no"?>
<!-- Created with Inkscape (http://www.inkscape.org/) -->

<svg
   xmlns:dc="http://purl.org/dc/elements/1.1/"
   xmlns:cc="http://creativecommons.org/ns#"
   xmlns:rdf="http://www.w3.org/1999/02/22-rdf-syntax-ns#"
   xmlns:svg="http://www.w3.org/2000/svg"
   xmlns="http://www.w3.org/2000/svg"
   xmlns:sodipodi="http://sodipodi.sourceforge.net/DTD/sodipodi-0.dtd"
   xmlns:inkscape="http://www.inkscape.org/namespaces/inkscape"
   width="48px"
   height="48px"
   viewBox="0 0 48 48"
   version="1.1"
   id="SVGRoot"
   inkscape:version="0.92.4 (5da689c313, 2019-01-14)"
   sodipodi:docname="folder-apple.svg">
  <defs
     id="defs815" />
  <sodipodi:namedview
     id="base"
     pagecolor="#ffffff"
     bordercolor="#666666"
     borderopacity="1.0"
     inkscape:pageopacity="0.0"
     inkscape:pageshadow="2"
     inkscape:zoom="24.249067"
     inkscape:cx="17.443341"
     inkscape:cy="24.474261"
     inkscape:document-units="px"
     inkscape:current-layer="layer1"
     showgrid="true"
     inkscape:window-width="1920"
     inkscape:window-height="1017"
     inkscape:window-x="-8"
     inkscape:window-y="-8"
     inkscape:window-maximized="1"
     inkscape:grid-bbox="true"
     inkscape:snap-global="true">
    <inkscape:grid
       type="xygrid"
       id="grid1371" />
  </sodipodi:namedview>
  <metadata
     id="metadata818">
    <rdf:RDF>
      <cc:Work
         rdf:about="">
        <dc:format>image/svg+xml</dc:format>
        <dc:type
           rdf:resource="http://purl.org/dc/dcmitype/StillImage" />
        <dc:title></dc:title>
      </cc:Work>
    </rdf:RDF>
  </metadata>
  <g
     inkscape:label="Layer 1"
     inkscape:groupmode="layer"
     id="layer1">
    <path
       style="opacity:1;vector-effect:none;fill:#e9bf73;fill-opacity:1;fill-rule:evenodd;stroke:none;stroke-width:4;stroke-linecap:round;stroke-linejoin:round;stroke-miterlimit:4;stroke-dasharray:none;stroke-dashoffset:0;stroke-opacity:1;paint-order:stroke fill markers"
       d="M 6 6 C 4.892 6 4.0231407 6.8922417 4 8 L 4 10 C 2.892 10 2 10.892 2 12 L 2 40 C 2 41.108 2.892 42 4 42 L 44 42 C 45.108 42 46 41.108 46 40 L 46 12 C 46 10.892 45.108 10 44 10 C 44 8.892 43.108 8 42 8 L 18 8 C 18 6.892 17.108 6 16 6 L 6 6 z "
       id="rect823-4-4" />
    <path
       style="opacity:0.25;vector-effect:none;fill:#000000;fill-opacity:1;fill-rule:evenodd;stroke:none;stroke-width:4;stroke-linecap:round;stroke-linejoin:round;stroke-miterlimit:4;stroke-dasharray:none;stroke-dashoffset:0;stroke-opacity:1;paint-order:stroke fill markers"
       d="M 6 6 C 4.892 6 4 6.892 4 8 L 4 10 L 5 10 L 5 8 C 5 7.446 5.446 7 6 7 L 16 7 C 16.554 7 17 7.446 17 8 L 17 9 L 42 9 C 42.554 9 43 9.446 43 10 L 44 10 C 44 8.892 43.108 8 42 8 L 18 8 C 18 6.892 17.108 6 16 6 L 6 6 z "
       id="rect823-4" />
    <path
       style="opacity:0.4;vector-effect:none;fill:#000000;fill-opacity:1;fill-rule:evenodd;stroke:none;stroke-width:2;stroke-linecap:round;stroke-linejoin:round;stroke-miterlimit:4;stroke-dasharray:none;stroke-opacity:1;paint-order:normal"
       d="M 4 10 C 2.892 10 2 10.892 2 12 L 2 40 C 2 41.108 2.892 42 4 42 L 44 42 C 45.108 42 46 41.108 46 40 L 46 12 C 46 10.892 45.108 10 44 10 L 4 10 z M 4 11 L 44 11 C 44.554 11 45 11.446 45 12 L 45 40 C 45 40.554 44.554 41 44 41 L 4 41 C 3.446 41 3 40.554 3 40 L 3 12 C 3 11.446 3.446 11 4 11 z "
       id="rect834" />
    <path
       style="opacity:0.25;vector-effect:none;fill:#000000;fill-opacity:1;fill-rule:evenodd;stroke:none;stroke-width:4;stroke-linecap:round;stroke-linejoin:round;stroke-miterlimit:4;stroke-dasharray:none;stroke-dashoffset:0;stroke-opacity:1;paint-order:stroke fill markers"
       d="M 6,6 C 4.892,6 4.023141,6.8922417 4,8 v 2 c 3,0 39,0 40,0 C 44,8.892 43.108,8 42,8 H 18 C 18,6.892 17.108,6 16,6 Z"
       id="rect823-4-4-3"
       inkscape:connector-curvature="0"
       sodipodi:nodetypes="scccscss" />
    <path
       style="fill:#000000;stroke:none;stroke-width:1.06005478px;stroke-linecap:butt;stroke-linejoin:miter;stroke-opacity:1;opacity:0.3"
       d="M 19 18 C 16 18 14 23.456529 14 26.990234 C 14 30.523939 16 35.978516 19 35.978516 C 20.699673 35.978516 22 34.855469 24 34.855469 C 26 34.855469 27.300327 35.978516 29 35.978516 C 31.042318 35.978516 32.602434 33.446096 33.402344 30.716797 C 31.42569 30.05027 30 28.207123 30 26 C 30 24.034059 31.134963 22.358779 32.777344 21.541016 C 31.897948 19.56027 30.597864 18 29 18 C 27 18 26 19.041016 24 19.041016 C 22 19.041016 21 18 19 18 z "
       id="path822" />
    <path
       style="fill:#000000;stroke:none;stroke-width:1px;stroke-linecap:butt;stroke-linejoin:miter;stroke-opacity:1;opacity:0.3"
       d="m 24,18 c 0,0 0.07524,-1.866779 0.990652,-2.661051 1.401023,-1.21562 3.092903,-1.360877 3.092903,-1.360877 0,0 0.02021,2.068984 -1.072206,2.886709 C 25.563062,17.94889 24,18 24,18 Z"
       id="path840"
       inkscape:connector-curvature="0"
       sodipodi:nodetypes="cscsc" />
  </g>
</svg>
