<?xml version="1.0" encoding="UTF-8" standalone="no"?>
<!-- Created with Inkscape (http://www.inkscape.org/) -->

<svg
   xmlns:dc="http://purl.org/dc/elements/1.1/"
   xmlns:cc="http://creativecommons.org/ns#"
   xmlns:rdf="http://www.w3.org/1999/02/22-rdf-syntax-ns#"
   xmlns:svg="http://www.w3.org/2000/svg"
   xmlns="http://www.w3.org/2000/svg"
   xmlns:sodipodi="http://sodipodi.sourceforge.net/DTD/sodipodi-0.dtd"
   xmlns:inkscape="http://www.inkscape.org/namespaces/inkscape"
   width="48px"
   height="48px"
   viewBox="0 0 48 48"
   version="1.1"
   id="SVGRoot"
   inkscape:version="0.92.4 (5da689c313, 2019-01-14)"
   sodipodi:docname="folder-recenta.svg">
  <defs
     id="defs815" />
  <sodipodi:namedview
     id="base"
     pagecolor="#ffffff"
     bordercolor="#666666"
     borderopacity="1.0"
     inkscape:pageopacity="0.0"
     inkscape:pageshadow="2"
     inkscape:zoom="23.863848"
     inkscape:cx="22.367791"
     inkscape:cy="29.062478"
     inkscape:document-units="px"
     inkscape:current-layer="layer1"
     showgrid="true"
     inkscape:window-width="1920"
     inkscape:window-height="1017"
     inkscape:window-x="-8"
     inkscape:window-y="-8"
     inkscape:window-maximized="1"
     inkscape:grid-bbox="true">
    <inkscape:grid
       type="xygrid"
       id="grid1371" />
  </sodipodi:namedview>
  <metadata
     id="metadata818">
    <rdf:RDF>
      <cc:Work
         rdf:about="">
        <dc:format>image/svg+xml</dc:format>
        <dc:type
           rdf:resource="http://purl.org/dc/dcmitype/StillImage" />
        <dc:title></dc:title>
      </cc:Work>
    </rdf:RDF>
  </metadata>
  <g
     inkscape:label="Layer 1"
     inkscape:groupmode="layer"
     id="layer1">
    <path
       inkscape:connector-curvature="0"
       style="opacity:1;vector-effect:none;fill:#e9bf73;fill-opacity:1;fill-rule:evenodd;stroke:none;stroke-width:4;stroke-linecap:round;stroke-linejoin:round;stroke-miterlimit:4;stroke-dasharray:none;stroke-dashoffset:0;stroke-opacity:1;paint-order:stroke fill markers"
       d="M 6,6 C 4.892,6 4.0231407,6.8922417 4,8 v 2 c -1.108,0 -2,0.892 -2,2 v 28 c 0,1.108 0.892,2 2,2 h 40 c 1.108,0 2,-0.892 2,-2 V 12 C 46,10.892 45.108,10 44,10 44,8.892 43.108,8 42,8 H 18 C 18,6.892 17.108,6 16,6 Z"
       id="rect823-4-4-1" />
    <path
       inkscape:connector-curvature="0"
       style="opacity:0.25;vector-effect:none;fill:#000000;fill-opacity:1;fill-rule:evenodd;stroke:none;stroke-width:4;stroke-linecap:round;stroke-linejoin:round;stroke-miterlimit:4;stroke-dasharray:none;stroke-dashoffset:0;stroke-opacity:1;paint-order:stroke fill markers"
       d="M 6,6 C 4.892,6 4,6.892 4,8 v 2 H 5 V 8 C 5,7.446 5.446,7 6,7 h 10 c 0.554,0 1,0.446 1,1 v 1 h 25 c 0.554,0 1,0.446 1,1 h 1 C 44,8.892 43.108,8 42,8 H 18 C 18,6.892 17.108,6 16,6 Z"
       id="rect823-4-9" />
    <path
       inkscape:connector-curvature="0"
       style="opacity:0.4;vector-effect:none;fill:#000000;fill-opacity:1;fill-rule:evenodd;stroke:none;stroke-width:2;stroke-linecap:round;stroke-linejoin:round;stroke-miterlimit:4;stroke-dasharray:none;stroke-opacity:1;paint-order:normal"
       d="m 4,10 c -1.108,0 -2,0.892 -2,2 v 28 c 0,1.108 0.892,2 2,2 h 40 c 1.108,0 2,-0.892 2,-2 V 12 c 0,-1.108 -0.892,-2 -2,-2 z m 0,1 h 40 c 0.554,0 1,0.446 1,1 v 28 c 0,0.554 -0.446,1 -1,1 H 4 C 3.446,41 3,40.554 3,40 V 12 c 0,-0.554 0.446,-1 1,-1 z"
       id="rect834-6" />
    <path
       style="opacity:0.25;vector-effect:none;fill:#000000;fill-opacity:1;fill-rule:evenodd;stroke:none;stroke-width:4;stroke-linecap:round;stroke-linejoin:round;stroke-miterlimit:4;stroke-dasharray:none;stroke-dashoffset:0;stroke-opacity:1;paint-order:stroke fill markers"
       d="M 6,6 C 4.892,6 4.023141,6.8922417 4,8 v 2 c 3,0 39,0 40,0 C 44,8.892 43.108,8 42,8 H 18 C 18,6.892 17.108,6 16,6 Z"
       id="rect823-4-4-3"
       inkscape:connector-curvature="0"
       sodipodi:nodetypes="scccscss" />
    <path
       style="opacity:0.3;vector-effect:none;fill:#000000;fill-opacity:1;fill-rule:evenodd;stroke:none;stroke-width:4;stroke-linecap:round;stroke-linejoin:round;stroke-miterlimit:4;stroke-dasharray:none;stroke-opacity:1;paint-order:stroke fill markers"
       d="M 24 16 C 18.46 16 14 20.46 14 26 L 12 26 L 15 30 L 18 26 L 16 26 L 16 25.8125 C 16 21.48384 19.48384 18 23.8125 18 L 24.1875 18 C 28.51616 18 32 21.48384 32 25.8125 L 32 26.1875 C 32 30.51616 28.51616 34 24.1875 34 L 23.8125 34 C 21.964554 34 20.274131 33.361418 18.939453 32.296875 L 17.916016 33.933594 C 19.600555 35.225511 21.703594 36 24 36 C 29.54 36 34 31.54 34 26 C 34 20.46 29.54 16 24 16 z "
       id="rect828" />
    <path
       style="fill:none;stroke:#000000;stroke-width:2;stroke-linecap:round;stroke-linejoin:round;stroke-miterlimit:4;stroke-dasharray:none;stroke-opacity:1;opacity:0.3"
       d="m 24,21 v 5 l 3,3"
       id="path833"
       inkscape:connector-curvature="0"
       sodipodi:nodetypes="ccc" />
  </g>
</svg>
