<?xml version="1.0" encoding="UTF-8" standalone="no"?>
<!-- Created with Inkscape (http://www.inkscape.org/) -->

<svg
   xmlns:dc="http://purl.org/dc/elements/1.1/"
   xmlns:cc="http://creativecommons.org/ns#"
   xmlns:rdf="http://www.w3.org/1999/02/22-rdf-syntax-ns#"
   xmlns:svg="http://www.w3.org/2000/svg"
   xmlns="http://www.w3.org/2000/svg"
   xmlns:sodipodi="http://sodipodi.sourceforge.net/DTD/sodipodi-0.dtd"
   xmlns:inkscape="http://www.inkscape.org/namespaces/inkscape"
   width="48px"
   height="48px"
   viewBox="0 0 48 48"
   version="1.1"
   id="SVGRoot"
   inkscape:version="0.92.4 (5da689c313, 2019-01-14)"
   sodipodi:docname="folder-winea.svg">
  <defs
     id="defs815" />
  <sodipodi:namedview
     id="base"
     pagecolor="#ffffff"
     bordercolor="#666666"
     borderopacity="1.0"
     inkscape:pageopacity="0.0"
     inkscape:pageshadow="2"
     inkscape:zoom="14.303597"
     inkscape:cx="17.83118"
     inkscape:cy="23.440562"
     inkscape:document-units="px"
     inkscape:current-layer="layer1"
     showgrid="true"
     inkscape:window-width="1920"
     inkscape:window-height="1017"
     inkscape:window-x="-8"
     inkscape:window-y="-8"
     inkscape:window-maximized="1"
     inkscape:grid-bbox="true">
    <inkscape:grid
       type="xygrid"
       id="grid1371" />
  </sodipodi:namedview>
  <metadata
     id="metadata818">
    <rdf:RDF>
      <cc:Work
         rdf:about="">
        <dc:format>image/svg+xml</dc:format>
        <dc:type
           rdf:resource="http://purl.org/dc/dcmitype/StillImage" />
        <dc:title></dc:title>
      </cc:Work>
    </rdf:RDF>
  </metadata>
  <g
     inkscape:label="Layer 1"
     inkscape:groupmode="layer"
     id="layer1">
    <path
       inkscape:connector-curvature="0"
       style="opacity:1;vector-effect:none;fill:#e9bf73;fill-opacity:1;fill-rule:evenodd;stroke:none;stroke-width:4;stroke-linecap:round;stroke-linejoin:round;stroke-miterlimit:4;stroke-dasharray:none;stroke-dashoffset:0;stroke-opacity:1;paint-order:stroke fill markers"
       d="M 6,6 C 4.892,6 4.0231407,6.8922417 4,8 v 2 c -1.108,0 -2,0.892 -2,2 v 28 c 0,1.108 0.892,2 2,2 h 40 c 1.108,0 2,-0.892 2,-2 V 12 C 46,10.892 45.108,10 44,10 44,8.892 43.108,8 42,8 H 18 C 18,6.892 17.108,6 16,6 Z"
       id="rect823-4-4-1" />
    <path
       inkscape:connector-curvature="0"
       style="opacity:0.25;vector-effect:none;fill:#000000;fill-opacity:1;fill-rule:evenodd;stroke:none;stroke-width:4;stroke-linecap:round;stroke-linejoin:round;stroke-miterlimit:4;stroke-dasharray:none;stroke-dashoffset:0;stroke-opacity:1;paint-order:stroke fill markers"
       d="M 6,6 C 4.892,6 4,6.892 4,8 v 2 H 5 V 8 C 5,7.446 5.446,7 6,7 h 10 c 0.554,0 1,0.446 1,1 v 1 h 25 c 0.554,0 1,0.446 1,1 h 1 C 44,8.892 43.108,8 42,8 H 18 C 18,6.892 17.108,6 16,6 Z"
       id="rect823-4-9" />
    <path
       inkscape:connector-curvature="0"
       style="opacity:0.4;vector-effect:none;fill:#000000;fill-opacity:1;fill-rule:evenodd;stroke:none;stroke-width:2;stroke-linecap:round;stroke-linejoin:round;stroke-miterlimit:4;stroke-dasharray:none;stroke-opacity:1;paint-order:normal"
       d="m 4,10 c -1.108,0 -2,0.892 -2,2 v 28 c 0,1.108 0.892,2 2,2 h 40 c 1.108,0 2,-0.892 2,-2 V 12 c 0,-1.108 -0.892,-2 -2,-2 z m 0,1 h 40 c 0.554,0 1,0.446 1,1 v 28 c 0,0.554 -0.446,1 -1,1 H 4 C 3.446,41 3,40.554 3,40 V 12 c 0,-0.554 0.446,-1 1,-1 z"
       id="rect834-6" />
    <path
       style="opacity:0.25;vector-effect:none;fill:#000000;fill-opacity:1;fill-rule:evenodd;stroke:none;stroke-width:4;stroke-linecap:round;stroke-linejoin:round;stroke-miterlimit:4;stroke-dasharray:none;stroke-dashoffset:0;stroke-opacity:1;paint-order:stroke fill markers"
       d="M 6,6 C 4.892,6 4.023141,6.8922417 4,8 v 2 c 3,0 39,0 40,0 C 44,8.892 43.108,8 42,8 H 18 C 18,6.892 17.108,6 16,6 Z"
       id="rect823-4-4-3"
       inkscape:connector-curvature="0"
       sodipodi:nodetypes="scccscss" />
    <path
       style="color:#000000;font-style:normal;font-variant:normal;font-weight:normal;font-stretch:normal;font-size:medium;line-height:normal;font-family:sans-serif;font-variant-ligatures:normal;font-variant-position:normal;font-variant-caps:normal;font-variant-numeric:normal;font-variant-alternates:normal;font-feature-settings:normal;text-indent:0;text-align:start;text-decoration:none;text-decoration-line:none;text-decoration-style:solid;text-decoration-color:#000000;letter-spacing:normal;word-spacing:normal;text-transform:none;writing-mode:lr-tb;direction:ltr;text-orientation:mixed;dominant-baseline:auto;baseline-shift:baseline;text-anchor:start;white-space:normal;shape-padding:0;clip-rule:nonzero;display:inline;overflow:visible;visibility:visible;opacity:0.3;isolation:auto;mix-blend-mode:normal;color-interpolation:sRGB;color-interpolation-filters:linearRGB;solid-color:#000000;solid-opacity:1;vector-effect:none;fill:#000000;fill-opacity:1;fill-rule:nonzero;stroke:none;stroke-width:2;stroke-linecap:round;stroke-linejoin:round;stroke-miterlimit:4;stroke-dasharray:none;stroke-dashoffset:0;stroke-opacity:1;color-rendering:auto;image-rendering:auto;shape-rendering:auto;text-rendering:auto;enable-background:accumulate"
       d="m 23.984375,16 c -0.259774,0.0041 -0.50774,0.109213 -0.691406,0.292969 l -3,3 c -0.390368,0.39053 -0.390368,1.023532 0,1.414062 l 3,3 c 0.39053,0.390368 1.023532,0.390368 1.414062,0 l 3,-3 c 0.390368,-0.39053 0.390368,-1.023532 0,-1.414062 l -3,-3 C 24.515708,16.101557 24.254978,15.995856 23.984375,16 Z m -6,6 c -0.259774,0.0041 -0.50774,0.109213 -0.691406,0.292969 l -3,3 c -0.390368,0.39053 -0.390368,1.023532 0,1.414062 l 3,3 c 0.39053,0.390368 1.023532,0.390368 1.414062,0 l 3,-3 c 0.390368,-0.39053 0.390368,-1.023532 0,-1.414062 l -3,-3 C 18.515708,22.101557 18.254978,21.995856 17.984375,22 Z m 12,0 c -0.259774,0.0041 -0.50774,0.109213 -0.691406,0.292969 l -3,3 c -0.390368,0.39053 -0.390368,1.023532 0,1.414062 l 3,3 c 0.39053,0.390368 1.023532,0.390368 1.414062,0 l 3,-3 c 0.390368,-0.39053 0.390368,-1.023532 0,-1.414062 l -3,-3 C 30.515708,22.101557 30.254978,21.995856 29.984375,22 Z m -6,6 c -0.259774,0.0041 -0.50774,0.109213 -0.691406,0.292969 l -3,3 c -0.390368,0.39053 -0.390368,1.023532 0,1.414062 l 3,3 c 0.39053,0.390368 1.023532,0.390368 1.414062,0 l 3,-3 c 0.390368,-0.39053 0.390368,-1.023532 0,-1.414062 l -3,-3 C 24.515708,28.101557 24.254978,27.995856 23.984375,28 Z"
       id="path821"
       inkscape:connector-curvature="0"
       sodipodi:nodetypes="cccccccccccccccccccccccccccccccccccccccc" />
  </g>
</svg>
