<?xml version="1.0" encoding="UTF-8" standalone="no"?>
<!-- Created with Inkscape (http://www.inkscape.org/) -->

<svg
   xmlns:dc="http://purl.org/dc/elements/1.1/"
   xmlns:cc="http://creativecommons.org/ns#"
   xmlns:rdf="http://www.w3.org/1999/02/22-rdf-syntax-ns#"
   xmlns:svg="http://www.w3.org/2000/svg"
   xmlns="http://www.w3.org/2000/svg"
   xmlns:sodipodi="http://sodipodi.sourceforge.net/DTD/sodipodi-0.dtd"
   xmlns:inkscape="http://www.inkscape.org/namespaces/inkscape"
   width="48px"
   height="48px"
   viewBox="0 0 48 48"
   version="1.1"
   id="SVGRoot"
   inkscape:version="0.92.4 (5da689c313, 2019-01-14)"
   sodipodi:docname="folder-templates.svg">
  <defs
     id="defs815" />
  <sodipodi:namedview
     id="base"
     pagecolor="#ffffff"
     bordercolor="#666666"
     borderopacity="1.0"
     inkscape:pageopacity="0.0"
     inkscape:pageshadow="2"
     inkscape:zoom="8.5733398"
     inkscape:cx="21.601835"
     inkscape:cy="25.274755"
     inkscape:document-units="px"
     inkscape:current-layer="layer1"
     showgrid="true"
     inkscape:window-width="1920"
     inkscape:window-height="1017"
     inkscape:window-x="-8"
     inkscape:window-y="-8"
     inkscape:window-maximized="1"
     inkscape:grid-bbox="true"
     inkscape:snap-global="true">
    <inkscape:grid
       type="xygrid"
       id="grid1371" />
  </sodipodi:namedview>
  <metadata
     id="metadata818">
    <rdf:RDF>
      <cc:Work
         rdf:about="">
        <dc:format>image/svg+xml</dc:format>
        <dc:type
           rdf:resource="http://purl.org/dc/dcmitype/StillImage" />
        <dc:title></dc:title>
      </cc:Work>
    </rdf:RDF>
  </metadata>
  <g
     inkscape:label="Layer 1"
     inkscape:groupmode="layer"
     id="layer1">
    <path
       style="opacity:1;vector-effect:none;fill:#e9bf73;fill-opacity:1;fill-rule:evenodd;stroke:none;stroke-width:4;stroke-linecap:round;stroke-linejoin:round;stroke-miterlimit:4;stroke-dasharray:none;stroke-dashoffset:0;stroke-opacity:1;paint-order:stroke fill markers"
       d="M 6 6 C 4.892 6 4.0231407 6.8922417 4 8 L 4 10 C 2.892 10 2 10.892 2 12 L 2 40 C 2 41.108 2.892 42 4 42 L 44 42 C 45.108 42 46 41.108 46 40 L 46 12 C 46 10.892 45.108 10 44 10 C 44 8.892 43.108 8 42 8 L 18 8 C 18 6.892 17.108 6 16 6 L 6 6 z "
       id="rect823-4-4" />
    <path
       style="opacity:0.25;vector-effect:none;fill:#000000;fill-opacity:1;fill-rule:evenodd;stroke:none;stroke-width:4;stroke-linecap:round;stroke-linejoin:round;stroke-miterlimit:4;stroke-dasharray:none;stroke-dashoffset:0;stroke-opacity:1;paint-order:stroke fill markers"
       d="M 6 6 C 4.892 6 4 6.892 4 8 L 4 10 L 5 10 L 5 8 C 5 7.446 5.446 7 6 7 L 16 7 C 16.554 7 17 7.446 17 8 L 17 9 L 42 9 C 42.554 9 43 9.446 43 10 L 44 10 C 44 8.892 43.108 8 42 8 L 18 8 C 18 6.892 17.108 6 16 6 L 6 6 z "
       id="rect823-4" />
    <path
       style="opacity:0.4;vector-effect:none;fill:#000000;fill-opacity:1;fill-rule:evenodd;stroke:none;stroke-width:2;stroke-linecap:round;stroke-linejoin:round;stroke-miterlimit:4;stroke-dasharray:none;stroke-opacity:1;paint-order:normal"
       d="M 4 10 C 2.892 10 2 10.892 2 12 L 2 40 C 2 41.108 2.892 42 4 42 L 44 42 C 45.108 42 46 41.108 46 40 L 46 12 C 46 10.892 45.108 10 44 10 L 4 10 z M 4 11 L 44 11 C 44.554 11 45 11.446 45 12 L 45 40 C 45 40.554 44.554 41 44 41 L 4 41 C 3.446 41 3 40.554 3 40 L 3 12 C 3 11.446 3.446 11 4 11 z "
       id="rect834" />
    <path
       style="opacity:0.25;vector-effect:none;fill:#000000;fill-opacity:1;fill-rule:evenodd;stroke:none;stroke-width:4;stroke-linecap:round;stroke-linejoin:round;stroke-miterlimit:4;stroke-dasharray:none;stroke-dashoffset:0;stroke-opacity:1;paint-order:stroke fill markers"
       d="M 6,6 C 4.892,6 4.023141,6.8922417 4,8 v 2 c 3,0 39,0 40,0 C 44,8.892 43.108,8 42,8 H 18 C 18,6.892 17.108,6 16,6 Z"
       id="rect823-4-4-3"
       inkscape:connector-curvature="0"
       sodipodi:nodetypes="scccscss" />
    <path
       style="opacity:0.3;vector-effect:none;fill:#000000;fill-opacity:1;fill-rule:evenodd;stroke:none;stroke-width:2;stroke-linecap:round;stroke-linejoin:round;stroke-miterlimit:4;stroke-dasharray:none;stroke-opacity:1;paint-order:normal"
       d="M 24 14 C 23.446 14 23 14.446 23 15 L 23 18.181641 C 21.835311 18.593201 21 19.690917 21 21 C 21 21.57381 21.168065 22.103755 21.445312 22.558594 C 21.132675 23.422628 20.864162 24.165942 20.232422 26 L 17.958984 26 C 17.427831 26 17 26.427831 17 26.958984 L 17 27.041016 C 17 27.572169 17.427831 28 17.958984 28 L 19.558594 28 C 18.954355 29.809477 18.370336 31.617888 18 33 C 17 36.732051 19 38 19 38 L 22.125 28 L 25.875 28 L 29 38 C 29 38 31 36.732051 30 33 C 29.629664 31.617888 29.045645 29.809477 28.441406 28 L 30.041016 28 C 30.572169 28 31 27.572169 31 27.041016 L 31 26.958984 C 31 26.427831 30.572169 26 30.041016 26 L 27.767578 26 C 27.135838 24.165942 26.867325 23.422628 26.554688 22.558594 C 26.831935 22.103755 27 21.57381 27 21 C 27 19.690917 26.164689 18.593201 25 18.181641 L 25 15 C 25 14.446 24.554 14 24 14 z M 24 20 C 24.554 20 25 20.446 25 21 C 25 21.554 24.554 22 24 22 C 23.446 22 23 21.554 23 21 C 23 20.446 23.446 20 24 20 z M 23.394531 23.939453 C 23.590176 23.979285 23.79225 24 24 24 C 24.20775 24 24.409824 23.979285 24.605469 23.939453 L 25.25 26 L 22.75 26 L 23.394531 23.939453 z "
       id="rect835" />
  </g>
</svg>
