<?xml version="1.0" encoding="UTF-8" standalone="no"?>
<!-- Created with Inkscape (http://www.inkscape.org/) -->

<svg
   xmlns:dc="http://purl.org/dc/elements/1.1/"
   xmlns:cc="http://creativecommons.org/ns#"
   xmlns:rdf="http://www.w3.org/1999/02/22-rdf-syntax-ns#"
   xmlns:svg="http://www.w3.org/2000/svg"
   xmlns="http://www.w3.org/2000/svg"
   xmlns:sodipodi="http://sodipodi.sourceforge.net/DTD/sodipodi-0.dtd"
   xmlns:inkscape="http://www.inkscape.org/namespaces/inkscape"
   width="48px"
   height="48px"
   viewBox="0 0 48 48"
   version="1.1"
   id="SVGRoot"
   inkscape:version="0.92.4 (5da689c313, 2019-01-14)"
   sodipodi:docname="atomic-game-engine.svg">
  <defs
     id="defs815" />
  <sodipodi:namedview
     id="base"
     pagecolor="#ffffff"
     bordercolor="#666666"
     borderopacity="1.0"
     inkscape:pageopacity="0.0"
     inkscape:pageshadow="2"
     inkscape:zoom="19.279538"
     inkscape:cx="25.048406"
     inkscape:cy="23.459606"
     inkscape:document-units="px"
     inkscape:current-layer="layer1"
     showgrid="true"
     inkscape:window-width="1920"
     inkscape:window-height="1017"
     inkscape:window-x="-8"
     inkscape:window-y="-8"
     inkscape:window-maximized="1"
     inkscape:grid-bbox="true"
     inkscape:snap-global="false">
    <inkscape:grid
       type="xygrid"
       id="grid1371" />
  </sodipodi:namedview>
  <metadata
     id="metadata818">
    <rdf:RDF>
      <cc:Work
         rdf:about="">
        <dc:format>image/svg+xml</dc:format>
        <dc:type
           rdf:resource="http://purl.org/dc/dcmitype/StillImage" />
        <dc:title></dc:title>
      </cc:Work>
    </rdf:RDF>
  </metadata>
  <g
     inkscape:label="Layer 1"
     inkscape:groupmode="layer"
     id="layer1">
    <rect
       style="opacity:1;vector-effect:none;fill:#4e4e4e;fill-opacity:1;fill-rule:evenodd;stroke:none;stroke-width:4;stroke-linecap:round;stroke-linejoin:round;stroke-miterlimit:4;stroke-dasharray:none;stroke-dashoffset:0;stroke-opacity:1;paint-order:stroke fill markers"
       id="rect1373"
       width="40"
       height="40"
       x="4"
       y="4"
       ry="4" />
    <path
       style="opacity:0.25;vector-effect:none;fill:#000000;fill-opacity:1;fill-rule:evenodd;stroke:none;stroke-width:4;stroke-linecap:round;stroke-linejoin:round;stroke-miterlimit:4;stroke-dasharray:none;stroke-dashoffset:0;stroke-opacity:1;paint-order:stroke fill markers"
       d="M 8 4 C 5.784 4 4 5.784 4 8 L 4 40 C 4 42.216 5.784 44 8 44 L 40 44 C 42.216 44 44 42.216 44 40 L 44 8 C 44 5.784 42.216 4 40 4 L 8 4 z M 8 5 L 40 5 C 41.662 5 43 6.338 43 8 L 43 40 C 43 41.662 41.662 43 40 43 L 8 43 C 6.338 43 5 41.662 5 40 L 5 8 C 5 6.338 6.338 5 8 5 z "
       id="rect826" />
    <rect
       style="opacity:1;vector-effect:none;fill:#bfea83;fill-opacity:1;fill-rule:evenodd;stroke:none;stroke-width:4;stroke-linecap:round;stroke-linejoin:round;stroke-miterlimit:4;stroke-dasharray:none;paint-order:stroke fill markers"
       id="rect844"
       width="4"
       height="4"
       x="22"
       y="22"
       ry="2" />
    <path
       style="opacity:1;vector-effect:none;fill:#bfea83;fill-opacity:1;fill-rule:evenodd;stroke:none;stroke-width:2;stroke-linecap:square;stroke-linejoin:round;stroke-miterlimit:4;stroke-dasharray:none;stroke-opacity:1;paint-order:normal"
       d="M 24 10 C 20.676 10 18 16.244 18 24 C 18 31.756 20.676 38 24 38 C 27.324 38 30 31.756 30 24 C 30 16.244 27.324 10 24 10 z M 24 12 C 26.216 12 28 17.352 28 24 C 28 30.648 26.216 36 24 36 C 21.784 36 20 30.648 20 24 C 20 17.352 21.784 12 24 12 z "
       id="rect836" />
    <path
       inkscape:connector-curvature="0"
       style="opacity:1;vector-effect:none;fill:#bfea83;fill-opacity:1;fill-rule:evenodd;stroke:none;stroke-width:2;stroke-linecap:square;stroke-linejoin:round;stroke-miterlimit:4;stroke-dasharray:none;stroke-opacity:1;paint-order:normal"
       d="m 35.904972,16.633072 c 1.74912,2.82658 -2.152363,8.387781 -8.747718,12.469059 -6.595354,4.081277 -13.313107,5.091377 -15.062226,2.264797 -1.74912,-2.82658 2.152363,-8.387781 8.747718,-12.469059 6.595354,-4.081277 13.313107,-5.091377 15.062226,-2.264797 z m -1.70071,1.052418 c -1.166079,-1.884388 -6.655937,-0.58515 -12.309098,2.91309 -5.653162,3.498238 -9.265505,7.831542 -8.099426,9.71593 1.166079,1.884388 6.655937,0.58515 12.309098,-2.91309 5.653162,-3.498238 9.265505,-7.831542 8.099426,-9.71593 z"
       id="rect836-9-1" />
    <path
       inkscape:connector-curvature="0"
       style="opacity:1;vector-effect:none;fill:#bfea83;fill-opacity:1;fill-rule:evenodd;stroke:none;stroke-width:2;stroke-linecap:square;stroke-linejoin:round;stroke-miterlimit:4;stroke-dasharray:none;stroke-opacity:1;paint-order:normal"
       d="m 12.095028,16.633072 c -1.74912,2.82658 2.152363,8.387781 8.747718,12.469059 6.595354,4.081277 13.313107,5.091377 15.062226,2.264797 1.74912,-2.82658 -2.152363,-8.387781 -8.747718,-12.469059 C 20.5619,14.816592 13.844147,13.806492 12.095028,16.633072 Z m 1.70071,1.052418 c 1.166079,-1.884388 6.655937,-0.58515 12.309098,2.91309 5.653162,3.498238 9.265505,7.831542 8.099426,9.71593 -1.166079,1.884388 -6.655937,0.58515 -12.309098,-2.91309 -5.653162,-3.498238 -9.265505,-7.831542 -8.099426,-9.71593 z"
       id="rect836-9-1-0" />
  </g>
</svg>
