<?xml version="1.0" encoding="UTF-8" standalone="no"?>
<!-- Created with Inkscape (http://www.inkscape.org/) -->

<svg
   xmlns:dc="http://purl.org/dc/elements/1.1/"
   xmlns:cc="http://creativecommons.org/ns#"
   xmlns:rdf="http://www.w3.org/1999/02/22-rdf-syntax-ns#"
   xmlns:svg="http://www.w3.org/2000/svg"
   xmlns="http://www.w3.org/2000/svg"
   xmlns:sodipodi="http://sodipodi.sourceforge.net/DTD/sodipodi-0.dtd"
   xmlns:inkscape="http://www.inkscape.org/namespaces/inkscape"
   width="48px"
   height="48px"
   viewBox="0 0 48 48"
   version="1.1"
   id="SVGRoot"
   inkscape:version="0.92.4 (5da689c313, 2019-01-14)"
   sodipodi:docname="audacity.svg">
  <defs
     id="defs815" />
  <sodipodi:namedview
     id="base"
     pagecolor="#ffffff"
     bordercolor="#666666"
     borderopacity="1.0"
     inkscape:pageopacity="0.0"
     inkscape:pageshadow="2"
     inkscape:zoom="16.082807"
     inkscape:cx="21.835721"
     inkscape:cy="26.056954"
     inkscape:document-units="px"
     inkscape:current-layer="layer1"
     showgrid="true"
     inkscape:window-width="1920"
     inkscape:window-height="1017"
     inkscape:window-x="-8"
     inkscape:window-y="-8"
     inkscape:window-maximized="1"
     inkscape:grid-bbox="true"
     inkscape:snap-global="true">
    <inkscape:grid
       type="xygrid"
       id="grid1371" />
  </sodipodi:namedview>
  <metadata
     id="metadata818">
    <rdf:RDF>
      <cc:Work
         rdf:about="">
        <dc:format>image/svg+xml</dc:format>
        <dc:type
           rdf:resource="http://purl.org/dc/dcmitype/StillImage" />
        <dc:title></dc:title>
      </cc:Work>
    </rdf:RDF>
  </metadata>
  <g
     inkscape:label="Layer 1"
     inkscape:groupmode="layer"
     id="layer1">
    <rect
       style="opacity:1;vector-effect:none;fill:#46589d;fill-opacity:1;fill-rule:evenodd;stroke:none;stroke-width:4;stroke-linecap:round;stroke-linejoin:round;stroke-miterlimit:4;stroke-dasharray:none;stroke-dashoffset:0;stroke-opacity:1;paint-order:stroke fill markers"
       id="rect1373"
       width="40"
       height="40"
       x="4"
       y="4"
       ry="4" />
    <path
       style="opacity:1;vector-effect:none;fill:#ffdd75;fill-opacity:1;fill-rule:evenodd;stroke:none;stroke-width:8;stroke-linecap:round;stroke-linejoin:round;stroke-miterlimit:4;stroke-dasharray:none;stroke-opacity:1;paint-order:stroke fill markers"
       d="M 20 19 C 18.892 19 18 19.892 18 21 C 18 22.108 17.108 23 16 23 C 14.892 23 14 22.108 14 21 L 14 36 C 14 34.892 14.892 34 16 34 C 17.108 34 18 34.892 18 36 C 18 37.108 18.892 38 20 38 C 21.108 38 22 37.108 22 36 C 22 35.8615 22.014461 35.726133 22.041016 35.595703 C 22.226898 34.682695 23.0305 34 24 34 C 25.108 34 26 34.892 26 36 C 26 37.108 26.892 38 28 38 C 29.108 38 30 37.108 30 36 C 30 34.892 30.892 34 32 34 C 33.108 34 34 34.892 34 36 L 34 21 C 34 22.108 33.108 23 32 23 C 30.892 23 30 22.108 30 21 C 30 19.892 29.108 19 28 19 C 26.892 19 26 19.892 26 21 C 26 22.108 25.108 23 24 23 C 22.892 23 22 22.108 22 21 C 22 19.892 21.108 19 20 19 z "
       id="rect835" />
    <path
       style="opacity:0.4;vector-effect:none;fill:#000000;fill-opacity:1;fill-rule:evenodd;stroke:none;stroke-width:4;stroke-linecap:round;stroke-linejoin:round;stroke-miterlimit:4;stroke-dasharray:none;stroke-dashoffset:0;stroke-opacity:1;paint-order:stroke fill markers"
       d="M 8 4 C 5.784 4 4 5.784 4 8 L 4 40 C 4 42.216 5.784 44 8 44 L 40 44 C 42.216 44 44 42.216 44 40 L 44 8 C 44 5.784 42.216 4 40 4 L 8 4 z M 8 5 L 40 5 C 41.662 5 43 6.338 43 8 L 43 40 C 43 41.662 41.662 43 40 43 L 8 43 C 6.338 43 5 41.662 5 40 L 5 8 C 5 6.338 6.338 5 8 5 z "
       id="rect826" />
    <path
       style="opacity:1;vector-effect:none;fill:#d35244;fill-opacity:1;fill-rule:evenodd;stroke:none;stroke-width:8;stroke-linecap:round;stroke-linejoin:round;stroke-miterlimit:4;stroke-dasharray:none;stroke-opacity:1;paint-order:stroke fill markers"
       d="M 20 23 C 19.446 23 19 23.446 19 24 L 19 26 C 19 26 19 27 18 27 C 17 27 17 26 17 26 C 17 25.446 16.554 25 16 25 C 15.446 25 15 25.446 15 26 L 15 31 C 15 31.554 15.446 32 16 32 C 16.554 32 17 31.554 17 31 C 17 31 17 30 18 30 C 19 30 19 31 19 31 L 19 33 C 19 33.554 19.446 34 20 34 C 20.554 34 21 33.554 21 33 L 21 31 C 21 31 21 30 22 30 C 23 30 23 31 23 31 C 23 31.554 23.446 32 24 32 C 24.554 32 25 31.554 25 31 C 25 31 25 30 26 30 C 27 30 27 31 27 31 L 27 33 C 27 33.554 27.446 34 28 34 C 28.554 34 29 33.554 29 33 L 29 31 C 29 31 29 30 30 30 C 31 30 31 31 31 31 C 31 31.554 31.446 32 32 32 C 32.554 32 33 31.554 33 31 L 33 26 C 33 25.446 32.554 25 32 25 C 31.446 25 31 25.446 31 26 C 31 26 31 27 30 27 C 29 27 29 26 29 26 L 29 24 C 29 23.446 28.554 23 28 23 C 27.446 23 27 23.446 27 24 L 27 26 C 27 26 27 27 26 27 C 25 27 25 26 25 26 C 25 25.446 24.554 25 24 25 C 23.446 25 23 25.446 23 26 C 23 26 23 27 22 27 C 21 27 21 26 21 26 L 21 24 C 21 23.446 20.554 23 20 23 z "
       id="rect915" />
    <path
       style="opacity:1;vector-effect:none;fill:#729dec;fill-opacity:1;fill-rule:evenodd;stroke:none;stroke-width:8;stroke-linecap:round;stroke-linejoin:round;stroke-miterlimit:4;stroke-dasharray:none;stroke-opacity:1;paint-order:stroke fill markers"
       d="M 22 11 C 17.014 11 13 15.014 13 20 L 13 21.072266 C 11.205465 22.452065 10 25.028594 10 28 C 10 32.432 12.676 36 16 36 L 16 20 C 16 16.676 18.676 14 22 14 L 26 14 C 29.324 14 32 16.676 32 20 L 32 36 C 35.324 36 38 32.432 38 28 C 38 25.028594 36.794535 22.452065 35 21.072266 L 35 20 C 35 15.014 30.986 11 26 11 L 22 11 z "
       id="rect818" />
  </g>
</svg>
