<?xml version="1.0" encoding="UTF-8" standalone="no"?>
<!-- Created with Inkscape (http://www.inkscape.org/) -->

<svg
   xmlns:dc="http://purl.org/dc/elements/1.1/"
   xmlns:cc="http://creativecommons.org/ns#"
   xmlns:rdf="http://www.w3.org/1999/02/22-rdf-syntax-ns#"
   xmlns:svg="http://www.w3.org/2000/svg"
   xmlns="http://www.w3.org/2000/svg"
   xmlns:sodipodi="http://sodipodi.sourceforge.net/DTD/sodipodi-0.dtd"
   xmlns:inkscape="http://www.inkscape.org/namespaces/inkscape"
   width="48px"
   height="48px"
   viewBox="0 0 48 48"
   version="1.1"
   id="SVGRoot"
   inkscape:version="0.92.4 (5da689c313, 2019-01-14)"
   sodipodi:docname="audacious.svg">
  <defs
     id="defs815" />
  <sodipodi:namedview
     id="base"
     pagecolor="#ffffff"
     bordercolor="#666666"
     borderopacity="1.0"
     inkscape:pageopacity="0.0"
     inkscape:pageshadow="2"
     inkscape:zoom="11.372262"
     inkscape:cx="12.967454"
     inkscape:cy="23.569826"
     inkscape:document-units="px"
     inkscape:current-layer="layer1"
     showgrid="true"
     inkscape:window-width="1920"
     inkscape:window-height="1017"
     inkscape:window-x="-8"
     inkscape:window-y="-8"
     inkscape:window-maximized="1"
     inkscape:grid-bbox="true"
     inkscape:snap-global="true">
    <inkscape:grid
       type="xygrid"
       id="grid1371" />
  </sodipodi:namedview>
  <metadata
     id="metadata818">
    <rdf:RDF>
      <cc:Work
         rdf:about="">
        <dc:format>image/svg+xml</dc:format>
        <dc:type
           rdf:resource="http://purl.org/dc/dcmitype/StillImage" />
        <dc:title></dc:title>
      </cc:Work>
    </rdf:RDF>
  </metadata>
  <g
     inkscape:label="Layer 1"
     inkscape:groupmode="layer"
     id="layer1">
    <rect
       style="opacity:1;vector-effect:none;fill:#4e4e4e;fill-opacity:1;fill-rule:evenodd;stroke:none;stroke-width:4;stroke-linecap:round;stroke-linejoin:round;stroke-miterlimit:4;stroke-dasharray:none;stroke-dashoffset:0;stroke-opacity:1;paint-order:stroke fill markers"
       id="rect1373-0"
       width="40"
       height="40"
       x="4"
       y="4"
       ry="4" />
    <path
       style="opacity:0.4;vector-effect:none;fill:#000000;fill-opacity:1;fill-rule:evenodd;stroke:none;stroke-width:4;stroke-linecap:round;stroke-linejoin:round;stroke-miterlimit:4;stroke-dasharray:none;stroke-dashoffset:0;stroke-opacity:1;paint-order:stroke fill markers"
       d="M 8 4 C 5.784 4 4 5.784 4 8 L 4 40 C 4 42.216 5.784 44 8 44 L 40 44 C 42.216 44 44 42.216 44 40 L 44 8 C 44 5.784 42.216 4 40 4 L 8 4 z M 8 5 L 40 5 C 41.662 5 43 6.338 43 8 L 43 40 C 43 41.662 41.662 43 40 43 L 8 43 C 6.338 43 5 41.662 5 40 L 5 8 C 5 6.338 6.338 5 8 5 z "
       id="rect826" />
    <path
       style="opacity:1;vector-effect:none;fill:#b7bfc2;fill-opacity:1;fill-rule:evenodd;stroke:none;stroke-width:1.40869486;paint-order:normal"
       d="m 24.572266,14.017578 c -0.314534,-0.0084 -0.630779,-0.007 -0.945313,0.0039 -2.812112,0.0976 -7.88386,0.980745 -7.626953,2.898438 0.157452,1.175331 1.158352,2.906784 2.363281,2.716797 3.820779,-0.602443 4.51266,-0.641411 5.638672,-0.542969 0.545363,0.04768 1.368414,0.256843 1.429688,0.785156 0.06957,0.599813 -0.759245,1.227215 -1.38086,1.21875 -2.504894,-0.03437 -9.699653,0.91031 -10.005859,6.941406 -0.150918,2.97252 2.84871,5.572941 7.158203,5.603516 3.139456,0.02228 4.274707,-1.504759 5.470703,-1.507812 0.881659,-0.0022 3.232422,1.871093 3.232422,1.871093 l 4.042969,-3.017578 c 0,0 -1.244149,-1.432741 -1.244141,-2.296875 1.5e-5,-1.924149 1.366499,-2.771392 1.306641,-5.492187 -0.147013,-6.681598 -4.721455,-9.055051 -9.439453,-9.181641 z M 24,25 c 1.108,0 2,0.892 2,2 0,1.108 -0.892,2 -2,2 -1.108,0 -2,-0.892 -2,-2 0,-1.108 0.892,-2 2,-2 z"
       id="path827"
       inkscape:connector-curvature="0"
       sodipodi:nodetypes="cccscccscccccccsssss" />
  </g>
</svg>
