<?xml version="1.0" encoding="UTF-8" standalone="no"?>
<!-- Created with Inkscape (http://www.inkscape.org/) -->

<svg
   xmlns:dc="http://purl.org/dc/elements/1.1/"
   xmlns:cc="http://creativecommons.org/ns#"
   xmlns:rdf="http://www.w3.org/1999/02/22-rdf-syntax-ns#"
   xmlns:svg="http://www.w3.org/2000/svg"
   xmlns="http://www.w3.org/2000/svg"
   xmlns:sodipodi="http://sodipodi.sourceforge.net/DTD/sodipodi-0.dtd"
   xmlns:inkscape="http://www.inkscape.org/namespaces/inkscape"
   width="48px"
   height="48px"
   viewBox="0 0 48 48"
   version="1.1"
   id="SVGRoot"
   inkscape:version="0.92.4 (5da689c313, 2019-01-14)"
   sodipodi:docname="autoplus.svg">
  <defs
     id="defs815" />
  <sodipodi:namedview
     id="base"
     pagecolor="#ffffff"
     bordercolor="#666666"
     borderopacity="1.0"
     inkscape:pageopacity="0.0"
     inkscape:pageshadow="2"
     inkscape:zoom="16.342421"
     inkscape:cx="24.371544"
     inkscape:cy="29.064002"
     inkscape:document-units="px"
     inkscape:current-layer="layer1"
     showgrid="true"
     inkscape:window-width="1920"
     inkscape:window-height="1017"
     inkscape:window-x="-8"
     inkscape:window-y="-8"
     inkscape:window-maximized="1"
     inkscape:grid-bbox="true"
     showguides="true"
     inkscape:guide-bbox="true"
     inkscape:snap-global="false">
    <inkscape:grid
       type="xygrid"
       id="grid1371" />
  </sodipodi:namedview>
  <metadata
     id="metadata818">
    <rdf:RDF>
      <cc:Work
         rdf:about="">
        <dc:format>image/svg+xml</dc:format>
        <dc:type
           rdf:resource="http://purl.org/dc/dcmitype/StillImage" />
        <dc:title />
      </cc:Work>
    </rdf:RDF>
  </metadata>
  <g
     inkscape:label="Layer 1"
     inkscape:groupmode="layer"
     id="layer1">
    <rect
       style="opacity:1;vector-effect:none;fill:#71b9e3;fill-opacity:1;fill-rule:evenodd;stroke:none;stroke-width:4;stroke-linecap:round;stroke-linejoin:round;stroke-miterlimit:4;stroke-dasharray:none;stroke-dashoffset:0;stroke-opacity:1;paint-order:stroke fill markers"
       id="rect1373"
       width="40"
       height="40"
       x="4"
       y="4"
       ry="4" />
    <path
       style="fill:#3772ae;stroke:none;stroke-width:1.12640882px;stroke-linecap:butt;stroke-linejoin:miter;stroke-opacity:1"
       d="m 20.620774,5.9774604 -6.758453,3.3792263 c 0,0 -0.341002,1.9118153 -1.46741,3.0382243 -1.126409,1.126408 -3.0382243,1.46741 -3.0382243,1.46741 l -3.3792263,6.758453 c 0,0 1.1264087,1.126409 1.1264087,3.379226 0,2.252817 -1.1264087,3.379226 -1.1264087,3.379226 l 3.3792263,6.758452 c 0,0 1.9118153,0.341003 3.0382243,1.467411 1.126408,1.126409 1.46741,3.038224 1.46741,3.038224 l 6.758453,3.379227 c 0,0 1.126409,-1.126409 3.379226,-1.126409 2.252817,0 3.379226,1.126409 3.379226,1.126409 l 6.758452,-3.379227 c 0,0 0.341003,-1.911815 1.467411,-3.038224 1.126409,-1.126408 3.038224,-1.467411 3.038224,-1.467411 l 3.379227,-6.758452 c 0,0 -1.126409,-1.126409 -1.126409,-3.379226 0,-2.252817 1.126409,-3.379226 1.126409,-3.379226 l -3.379227,-6.758453 c 0,0 -1.911815,-0.341002 -3.038224,-1.46741 C 34.478681,11.268502 34.137678,9.3566867 34.137678,9.3566867 L 27.379226,5.9774604 c 0,0 -1.126409,1.1264087 -3.379226,1.1264087 -2.252817,0 -3.379226,-1.1264087 -3.379226,-1.1264087 z"
       id="path832"
       inkscape:connector-curvature="0" />
    <path
       inkscape:connector-curvature="0"
       style="opacity:0.25;vector-effect:none;fill:#000000;fill-opacity:1;fill-rule:evenodd;stroke:none;stroke-width:8;stroke-linecap:round;stroke-linejoin:round;stroke-miterlimit:4;stroke-dasharray:none;stroke-opacity:1;paint-order:stroke fill markers"
       d="M 8,4 C 5.784,4 4,5.784 4,8 v 32 c 0,2.216 1.784,4 4,4 h 32 c 2.216,0 4,-1.784 4,-4 V 8 C 44,5.784 42.216,4 40,4 Z m 0,1 h 32 c 1.662,0 3,1.338 3,3 v 32 c 0,1.662 -1.338,3 -3,3 H 8 C 6.338,43 5,41.662 5,40 V 8 C 5,6.338 6.338,5 8,5 Z"
       id="rect832" />
    <path
       style="opacity:1;vector-effect:none;fill:#ffffff;fill-opacity:1;fill-rule:evenodd;stroke:none;stroke-width:2;stroke-linecap:round;stroke-linejoin:round;stroke-miterlimit:4;stroke-dasharray:none;stroke-dashoffset:0;stroke-opacity:1;paint-order:stroke fill markers"
       d="m 29,12 c -3.878,0 -7,3.122 -7,7 V 21 22.677734 29 c 0,1.662 -1.338,3 -3,3 -1.662,0 -3,-1.338 -3,-3 0,-1.662 1.338,-3 3,-3 h 1 v -4 h -1 c -3.878,0 -7,3.122 -7,7 0,3.878 3.122,7 7,7 3.878,0 7,-3.122 7,-7 v -3 h 2 c 1.108,0 2,-0.892 2,-2 0,-1.108 -0.892,-2 -2,-2 h -2 v -3 c 0,-1.662 1.338,-3 3,-3 1.662,0 3,1.338 3,3 0,1.108 0.892,2 2,2 1.108,0 2,-0.892 2,-2 0,-3.878 -3.122,-7 -7,-7 z"
       id="rect815"
       inkscape:connector-curvature="0" />
  </g>
</svg>
