<?xml version="1.0" encoding="UTF-8" standalone="no"?>
<!-- Created with Inkscape (http://www.inkscape.org/) -->

<svg
   xmlns:dc="http://purl.org/dc/elements/1.1/"
   xmlns:cc="http://creativecommons.org/ns#"
   xmlns:rdf="http://www.w3.org/1999/02/22-rdf-syntax-ns#"
   xmlns:svg="http://www.w3.org/2000/svg"
   xmlns="http://www.w3.org/2000/svg"
   xmlns:sodipodi="http://sodipodi.sourceforge.net/DTD/sodipodi-0.dtd"
   xmlns:inkscape="http://www.inkscape.org/namespaces/inkscape"
   width="48px"
   height="48px"
   viewBox="0 0 48 48"
   version="1.1"
   id="SVGRoot"
   inkscape:version="0.92.4 (5da689c313, 2019-01-14)"
   sodipodi:docname="battle-net.svg">
  <defs
     id="defs815" />
  <sodipodi:namedview
     id="base"
     pagecolor="#ffffff"
     bordercolor="#666666"
     borderopacity="1.0"
     inkscape:pageopacity="0.0"
     inkscape:pageshadow="2"
     inkscape:zoom="19.279538"
     inkscape:cx="16.506001"
     inkscape:cy="23.459606"
     inkscape:document-units="px"
     inkscape:current-layer="layer1"
     showgrid="true"
     inkscape:window-width="1920"
     inkscape:window-height="1017"
     inkscape:window-x="-8"
     inkscape:window-y="-8"
     inkscape:window-maximized="1"
     inkscape:grid-bbox="true"
     inkscape:snap-global="false">
    <inkscape:grid
       type="xygrid"
       id="grid1371" />
  </sodipodi:namedview>
  <metadata
     id="metadata818">
    <rdf:RDF>
      <cc:Work
         rdf:about="">
        <dc:format>image/svg+xml</dc:format>
        <dc:type
           rdf:resource="http://purl.org/dc/dcmitype/StillImage" />
        <dc:title></dc:title>
      </cc:Work>
    </rdf:RDF>
  </metadata>
  <g
     inkscape:label="Layer 1"
     inkscape:groupmode="layer"
     id="layer1">
    <rect
       style="opacity:1;vector-effect:none;fill:#627ad4;fill-opacity:1;fill-rule:evenodd;stroke:none;stroke-width:4;stroke-linecap:round;stroke-linejoin:round;stroke-miterlimit:4;stroke-dasharray:none;stroke-dashoffset:0;stroke-opacity:1;paint-order:stroke fill markers"
       id="rect1373"
       width="40"
       height="40"
       x="4"
       y="4"
       ry="4" />
    <path
       style="opacity:0.25;vector-effect:none;fill:#000000;fill-opacity:1;fill-rule:evenodd;stroke:none;stroke-width:4;stroke-linecap:round;stroke-linejoin:round;stroke-miterlimit:4;stroke-dasharray:none;stroke-dashoffset:0;stroke-opacity:1;paint-order:stroke fill markers"
       d="M 8 4 C 5.784 4 4 5.784 4 8 L 4 40 C 4 42.216 5.784 44 8 44 L 40 44 C 42.216 44 44 42.216 44 40 L 44 8 C 44 5.784 42.216 4 40 4 L 8 4 z M 8 5 L 40 5 C 41.662 5 43 6.338 43 8 L 43 40 C 43 41.662 41.662 43 40 43 L 8 43 C 6.338 43 5 41.662 5 40 L 5 8 C 5 6.338 6.338 5 8 5 z "
       id="rect826" />
    <path
       style="opacity:1;vector-effect:none;fill:#ffffff;fill-opacity:1;fill-rule:evenodd;stroke:none;stroke-width:0.05434371;stroke-opacity:1;paint-order:stroke fill markers"
       d="m 20.209285,10.93355 c -1.503341,0.0036 -2.733446,1.117022 -3.326956,3.011511 -0.290173,0.926176 -0.416674,1.722217 -0.462665,2.911314 l -0.04278,1.105128 -0.296964,0.07376 c -1.922561,0.477873 -3.578909,1.255349 -4.672603,2.193171 -0.899773,0.771538 -0.964479,1.234022 -0.09385,0.670803 0.665043,-0.430213 1.504375,-0.787611 2.577081,-1.097489 0.843598,-0.243695 2.492295,-0.576426 2.553412,-0.515309 0.01707,0.01707 0.09273,0.45225 0.168343,0.967254 0.522656,3.561087 1.906593,7.339342 3.808835,10.398537 l 0.532184,0.85602 -0.483998,0.153907 c -0.286509,0.09118 -0.764711,0.168555 -1.172211,0.189678 -0.651458,0.03377 -0.709419,0.02454 -1.079868,-0.170902 -1.122282,-0.592184 -1.415434,-2.18717 -0.794352,-4.321491 L 17.566061,26.867055 17.3538,26.30876 c -0.116787,-0.307098 -0.316879,-0.876312 -0.444728,-1.26487 -0.127836,-0.388557 -0.254827,-0.706467 -0.282243,-0.706467 -0.07165,0 -0.810594,1.349206 -1.249374,2.281265 -0.468363,0.9949 -0.952709,2.464464 -1.116383,3.387034 -0.09332,0.525927 -0.116814,0.958227 -0.09256,1.702804 0.02809,0.86371 0.0587,1.065557 0.227763,1.501353 0.604526,1.558343 1.933766,2.267292 3.855327,2.056146 1.1244,-0.12358 2.226547,-0.517373 3.677857,-1.314226 l 0.63981,-0.351336 0.773125,0.753275 c 1.334801,1.300492 2.543259,2.092368 3.852566,2.524539 0.472648,0.156005 0.942061,0.180399 0.941675,0.04883 -1.52e-4,-0.04983 -0.203868,-0.19626 -0.452795,-0.325415 -0.990149,-0.513716 -2.378287,-1.735289 -3.514722,-3.093024 L 23.6277,32.86184 23.834662,32.711634 c 1.2,-0.870441 3.635907,-3.247729 4.654662,-4.542688 1.273143,-1.618317 2.132814,-2.92747 2.913862,-4.437075 l 0.481981,-0.931593 0.430825,0.424457 c 1.048672,1.033233 1.337258,1.890352 0.930635,2.763778 -0.425067,0.913036 -1.764344,1.718037 -3.451886,2.07472 -0.104484,0.02204 -0.283415,0.162829 -0.397599,0.312788 -0.114198,0.149994 -0.493404,0.605807 -0.842647,1.012895 -0.349238,0.407088 -0.634929,0.757535 -0.634929,0.778857 0,0.06697 1.906636,0.04218 2.691393,-0.03521 3.377925,-0.332276 5.657595,-1.448448 6.486001,-3.175712 0.259131,-0.540317 0.320506,-1.515917 0.135451,-2.152519 -0.427084,-1.469122 -1.679058,-2.827201 -3.771793,-4.091272 l -0.602732,-0.363832 0.140534,-0.487504 c 0.589818,-2.045642 0.695531,-4.291573 0.262791,-5.585935 -0.259876,-0.777335 -0.355568,-0.651645 -0.37807,0.497158 -0.02418,1.233487 -0.208029,2.178047 -0.737248,3.786015 -0.219693,0.667523 -0.412913,1.213607 -0.429339,1.213607 -0.01635,0 -0.342126,-0.129866 -0.723766,-0.288716 C 27.88954,18.192319 23.798219,17.449992 20.288986,17.54181 l -1.290556,0.03378 0.04958,-0.296358 c 0.149566,-0.893416 0.657273,-1.874759 1.134847,-2.193703 1.01122,-0.675329 2.56318,-0.144943 4.021117,1.374408 0.396201,0.412887 0.492499,0.475751 0.797007,0.519874 0.190496,0.02774 0.765668,0.131145 1.278138,0.230113 0.512467,0.09892 0.948748,0.162866 0.96959,0.142027 0.02097,-0.02097 -0.133814,-0.340596 -0.343691,-0.710606 -1.394344,-2.458281 -3.188773,-4.396935 -4.843383,-5.232597 -0.494374,-0.24967 -1.377613,-0.476299 -1.852356,-0.475189 z m -1.370478,8.092009 1.442762,0.04524 c 2.631733,0.08253 4.843143,0.515961 7.311985,1.433209 0.773215,0.287259 2.688737,1.194884 2.95982,1.402429 0.12717,0.09737 0.112731,0.138612 -0.283592,0.813989 -1.107653,1.887484 -2.132674,3.216783 -3.651539,4.735649 -1.359366,1.359366 -2.631967,2.373678 -4.074818,3.247567 l -0.267913,0.162191 -0.332524,-0.565089 C 20.188224,27.319008 19.053183,23.496809 18.885734,20.005266 Z"
       id="rect830"
       inkscape:connector-curvature="0" />
  </g>
</svg>
