<?xml version="1.0" encoding="UTF-8" standalone="no"?>
<!-- Created with Inkscape (http://www.inkscape.org/) -->

<svg
   xmlns:dc="http://purl.org/dc/elements/1.1/"
   xmlns:cc="http://creativecommons.org/ns#"
   xmlns:rdf="http://www.w3.org/1999/02/22-rdf-syntax-ns#"
   xmlns:svg="http://www.w3.org/2000/svg"
   xmlns="http://www.w3.org/2000/svg"
   xmlns:sodipodi="http://sodipodi.sourceforge.net/DTD/sodipodi-0.dtd"
   xmlns:inkscape="http://www.inkscape.org/namespaces/inkscape"
   width="48px"
   height="48px"
   viewBox="0 0 48 48"
   version="1.1"
   id="SVGRoot"
   inkscape:version="0.92.4 (5da689c313, 2019-01-14)"
   sodipodi:docname="bluefish.svg">
  <defs
     id="defs815">
    <linearGradient
       gradientUnits="userSpaceOnUse"
       y2="39"
       y1="7"
       x2="24"
       x1="24"
       id="linearGradient1552">
      <stop
         id="stop823"
         offset="0"
         stop-color="#92b4da" />
      <stop
         id="stop825"
         offset="1"
         stop-color="#547cb1" />
    </linearGradient>
    <linearGradient
       gradientUnits="userSpaceOnUse"
       gradientTransform="translate(0,-1)"
       y2="37"
       y1="11"
       x2="24"
       x1="24"
       id="linearGradient857">
      <stop
         id="stop828"
         offset="0"
         stop-color="#dbe1e9" />
      <stop
         id="stop830"
         offset="1"
         stop-color="#b9c4d4" />
    </linearGradient>
  </defs>
  <sodipodi:namedview
     id="base"
     pagecolor="#ffffff"
     bordercolor="#666666"
     borderopacity="1.0"
     inkscape:pageopacity="0.0"
     inkscape:pageshadow="2"
     inkscape:zoom="23.111673"
     inkscape:cx="21.733587"
     inkscape:cy="22.253719"
     inkscape:document-units="px"
     inkscape:current-layer="layer1"
     showgrid="true"
     inkscape:window-width="1920"
     inkscape:window-height="1017"
     inkscape:window-x="-8"
     inkscape:window-y="-8"
     inkscape:window-maximized="1"
     inkscape:grid-bbox="true"
     inkscape:snap-global="true"
     showguides="true"
     inkscape:guide-bbox="true">
    <inkscape:grid
       type="xygrid"
       id="grid1371" />
  </sodipodi:namedview>
  <metadata
     id="metadata818">
    <rdf:RDF>
      <cc:Work
         rdf:about="">
        <dc:format>image/svg+xml</dc:format>
        <dc:type
           rdf:resource="http://purl.org/dc/dcmitype/StillImage" />
        <dc:title />
      </cc:Work>
    </rdf:RDF>
  </metadata>
  <g
     inkscape:label="Layer 1"
     inkscape:groupmode="layer"
     id="layer1">
    <rect
       style="opacity:1;vector-effect:none;fill:#8fb7a6;fill-opacity:1;fill-rule:evenodd;stroke:none;stroke-width:4;stroke-linecap:round;stroke-linejoin:round;stroke-miterlimit:4;stroke-dasharray:none;stroke-dashoffset:0;stroke-opacity:1;paint-order:stroke fill markers"
       id="rect1373"
       width="40"
       height="40"
       x="4"
       y="4"
       ry="4" />
    <path
       inkscape:connector-curvature="0"
       style="opacity:0.25;fill:#ffffff;stroke:none;stroke-width:1px;stroke-linecap:butt;stroke-linejoin:miter;stroke-opacity:1"
       d="M 8,4 C 5.784,4 4,5.784 4,8 v 3 L 24,24 11.115234,4 Z M 24,24 29,4 H 19 Z m 0,0 20,-13 V 8 C 44,5.784 42.216,4 40,4 h -3.115234 z m 0,0 20,5 V 19 Z m 0,0 12.884766,20 H 40 c 2.216,0 4,-1.784 4,-4 v -3 z m 0,0 -5,20 h 10 z m 0,0 -20,13 v 3 c 0,2.216 1.784,4 4,4 h 3.115234 z m 0,0 -20,-5 v 10 z"
       id="path819" />
    <path
       style="opacity:0.25;vector-effect:none;fill:#000000;fill-opacity:1;fill-rule:evenodd;stroke:none;stroke-width:4;stroke-linecap:round;stroke-linejoin:round;stroke-miterlimit:4;stroke-dasharray:none;stroke-dashoffset:0;stroke-opacity:1;paint-order:stroke fill markers"
       d="M 8 4 C 5.784 4 4 5.784 4 8 L 4 40 C 4 42.216 5.784 44 8 44 L 40 44 C 42.216 44 44 42.216 44 40 L 44 8 C 44 5.784 42.216 4 40 4 L 8 4 z M 8 5 L 40 5 C 41.662 5 43 6.338 43 8 L 43 40 C 43 41.662 41.662 43 40 43 L 8 43 C 6.338 43 5 41.662 5 40 L 5 8 C 5 6.338 6.338 5 8 5 z "
       id="rect826" />
    <path
       style="fill:#729dec;stroke:#729dec;stroke-width:2;stroke-linecap:butt;stroke-linejoin:round;stroke-miterlimit:4;stroke-dasharray:none;stroke-opacity:1"
       d="m 31,26 c 0,-7 6,-13 6,-13 0,0 -1.439908,3.482598 -1,5.124356 C 37,21.856407 35.055528,23.838264 35.114059,27 35.166772,29.847513 36,35 36,35 c 0,0 -5,-3 -5,-9 z"
       id="path830"
       inkscape:connector-curvature="0"
       sodipodi:nodetypes="scsscs" />
    <path
       style="color:#000000;font-style:normal;font-variant:normal;font-weight:normal;font-stretch:normal;font-size:medium;line-height:normal;font-family:sans-serif;font-variant-ligatures:normal;font-variant-position:normal;font-variant-caps:normal;font-variant-numeric:normal;font-variant-alternates:normal;font-feature-settings:normal;text-indent:0;text-align:start;text-decoration:none;text-decoration-line:none;text-decoration-style:solid;text-decoration-color:#000000;letter-spacing:normal;word-spacing:normal;text-transform:none;writing-mode:lr-tb;direction:ltr;text-orientation:mixed;dominant-baseline:auto;baseline-shift:baseline;text-anchor:start;white-space:normal;shape-padding:0;clip-rule:nonzero;display:inline;overflow:visible;visibility:visible;opacity:0.25;isolation:auto;mix-blend-mode:normal;color-interpolation:sRGB;color-interpolation-filters:linearRGB;solid-color:#000000;solid-opacity:1;vector-effect:none;fill:#000000;fill-opacity:1;fill-rule:nonzero;stroke:none;stroke-width:2;stroke-linecap:butt;stroke-linejoin:round;stroke-miterlimit:4;stroke-dasharray:none;stroke-dashoffset:0;stroke-opacity:1;color-rendering:auto;image-rendering:auto;shape-rendering:auto;text-rendering:auto;enable-background:accumulate"
       d="M 36.962891 12.001953 C 36.71088 12.011053 36.4716 12.114973 36.292969 12.292969 C 36.292969 12.292969 30 18.428571 30 26 C 30 32.555556 35.486328 35.857422 35.486328 35.857422 C 36.215571 36.292712 37.121205 35.678343 36.986328 34.839844 C 36.986328 34.839844 36.162798 29.657277 36.113281 26.982422 C 36.087881 25.610315 36.507341 24.445181 36.876953 23.027344 C 37.246565 21.609506 37.520193 19.930523 36.966797 17.865234 C 36.863192 17.478577 37.009587 16.232173 37.296875 15.21875 C 37.584161 14.205327 37.923828 13.382813 37.923828 13.382812 C 38.201414 12.709988 37.690245 11.975442 36.962891 12.001953 z M 36.998047 13.001953 A 1.0001 1.0001 0 0 0 37 13.001953 C 37 13.001953 36.638957 13.8695 36.333984 14.945312 C 36.173157 15.512638 36.058187 16.117022 35.992188 16.65625 C 35.926187 17.195478 35.848206 17.558456 36 18.125 C 36.496999 19.979813 36.261543 21.427451 35.910156 22.775391 C 35.553354 24.143924 35.083917 25.41372 35.113281 27 C 35.166151 29.856103 35.998047 34.996094 35.998047 34.996094 C 35.989856 34.991172 31 31.992706 31 26 C 31 18.982669 36.990234 13.009766 36.990234 13.009766 A 1.0001 1.0001 0 0 0 36.998047 13.001953 z "
       id="path830-2-3" />
    <rect
       style="opacity:1;vector-effect:none;fill:#729dec;fill-opacity:1;fill-rule:evenodd;stroke:none;stroke-width:2;stroke-linecap:butt;stroke-linejoin:round;stroke-miterlimit:4;stroke-dasharray:none;stroke-opacity:1;paint-order:stroke fill markers"
       id="rect832"
       width="10"
       height="10"
       x="10"
       y="16"
       ry="5" />
    <path
       style="opacity:1;vector-effect:none;fill:#ffffff;fill-opacity:1;fill-rule:evenodd;stroke:none;stroke-width:2;stroke-linecap:butt;stroke-linejoin:round;stroke-miterlimit:4;stroke-dasharray:none;stroke-opacity:1;paint-order:stroke fill markers"
       d="M 10.099609,20 C 10.034495,20.323084 10,20.657168 10,21 c 0,2.77 2.23,5 5,5 2.77,0 5,-2.23 5,-5 0,-0.342832 -0.03449,-0.676916 -0.09961,-1 z"
       id="rect849"
       inkscape:connector-curvature="0" />
    <path
       style="opacity:0.25;vector-effect:none;fill:#000000;fill-opacity:1;fill-rule:evenodd;stroke:none;stroke-width:2;stroke-linecap:round;stroke-linejoin:round;stroke-miterlimit:4;stroke-dasharray:none;stroke-opacity:1;paint-order:stroke fill markers"
       d="M 15 16 C 12.23 16 10 18.23 10 21 C 10 23.77 12.23 26 15 26 C 17.77 26 20 23.77 20 21 C 20 18.23 17.77 16 15 16 z M 15 17 C 17.216 17 19 18.784 19 21 C 19 23.216 17.216 25 15 25 C 12.784 25 11 23.216 11 21 C 11 18.784 12.784 17 15 17 z "
       id="rect869" />
    <path
       style="fill:#729dec;stroke:none;stroke-width:0.95742708px;stroke-linecap:butt;stroke-linejoin:miter;stroke-opacity:1"
       d="M 12,23 C 12,16 15.907239,12 20.25,12 31.25,12 34,23 34,23 34,23 31.25,36 21.166667,36 16.393736,36 12,30 12,23 Z"
       id="path828"
       inkscape:connector-curvature="0"
       sodipodi:nodetypes="zscsz" />
    <rect
       style="opacity:0.25;vector-effect:none;fill:#000000;fill-opacity:1;fill-rule:evenodd;stroke:none;stroke-width:2;stroke-linecap:round;stroke-linejoin:round;stroke-miterlimit:4;stroke-dasharray:none;stroke-opacity:1;paint-order:stroke fill markers"
       id="rect834"
       width="12"
       height="12"
       x="17"
       y="15"
       ry="6" />
    <rect
       style="opacity:1;vector-effect:none;fill:#729dec;fill-opacity:1;fill-rule:evenodd;stroke:none;stroke-width:2;stroke-linecap:butt;stroke-linejoin:round;stroke-miterlimit:4;stroke-dasharray:none;stroke-opacity:1;paint-order:stroke fill markers"
       id="rect832-1"
       width="10"
       height="10"
       x="18"
       y="16"
       ry="5" />
    <path
       inkscape:connector-curvature="0"
       style="opacity:1;vector-effect:none;fill:#ffffff;fill-opacity:1;fill-rule:evenodd;stroke:none;stroke-width:2;stroke-linecap:butt;stroke-linejoin:round;stroke-miterlimit:4;stroke-dasharray:none;stroke-opacity:1;paint-order:stroke fill markers"
       d="m 18.074863,20 c -0.06511,0.323084 -0.09961,0.657168 -0.09961,1 0,2.77 2.23,5 5,5 2.77,0 5,-2.23 5,-5 0,-0.342832 -0.03449,-0.676916 -0.09961,-1 z"
       id="rect849-6" />
    <path
       style="opacity:1;vector-effect:none;fill:#56595b;fill-opacity:1;fill-rule:evenodd;stroke:none;stroke-width:2;stroke-linecap:butt;stroke-linejoin:round;stroke-miterlimit:4;stroke-dasharray:none;stroke-opacity:1;paint-order:stroke fill markers"
       d="M 22.275391,20 C 22.104291,20.295001 22,20.63307 22,21 c 0,1.108 0.892,2 2,2 1.108,0 2,-0.892 2,-2 0,-0.36693 -0.104291,-0.704999 -0.275391,-1 z"
       id="rect882"
       inkscape:connector-curvature="0" />
    <path
       style="color:#000000;font-style:normal;font-variant:normal;font-weight:normal;font-stretch:normal;font-size:medium;line-height:normal;font-family:sans-serif;font-variant-ligatures:normal;font-variant-position:normal;font-variant-caps:normal;font-variant-numeric:normal;font-variant-alternates:normal;font-feature-settings:normal;text-indent:0;text-align:start;text-decoration:none;text-decoration-line:none;text-decoration-style:solid;text-decoration-color:#000000;letter-spacing:normal;word-spacing:normal;text-transform:none;writing-mode:lr-tb;direction:ltr;text-orientation:mixed;dominant-baseline:auto;baseline-shift:baseline;text-anchor:start;white-space:normal;shape-padding:0;clip-rule:nonzero;display:inline;overflow:visible;visibility:visible;opacity:1;isolation:auto;mix-blend-mode:normal;color-interpolation:sRGB;color-interpolation-filters:linearRGB;solid-color:#000000;solid-opacity:1;vector-effect:none;fill:#000000;fill-opacity:1;fill-rule:nonzero;stroke:none;stroke-width:2;stroke-linecap:round;stroke-linejoin:round;stroke-miterlimit:4;stroke-dasharray:none;stroke-dashoffset:0;stroke-opacity:1;color-rendering:auto;image-rendering:auto;shape-rendering:auto;text-rendering:auto;enable-background:accumulate"
       d="m 34.251953,20.769578 c -0.0012,0.01211 -0.0066,0.02501 -0.0078,0.03711 -0.0027,-0.0067 -0.0012,-0.007 -0.0039,-0.01367 0.0037,-0.0083 0.008,-0.01511 0.01172,-0.02344 z"
       id="path1007" />
    <path
       style="color:#000000;font-style:normal;font-variant:normal;font-weight:normal;font-stretch:normal;font-size:medium;line-height:normal;font-family:sans-serif;font-variant-ligatures:normal;font-variant-position:normal;font-variant-caps:normal;font-variant-numeric:normal;font-variant-alternates:normal;font-feature-settings:normal;text-indent:0;text-align:start;text-decoration:none;text-decoration-line:none;text-decoration-style:solid;text-decoration-color:#000000;letter-spacing:normal;word-spacing:normal;text-transform:none;writing-mode:lr-tb;direction:ltr;text-orientation:mixed;dominant-baseline:auto;baseline-shift:baseline;text-anchor:start;white-space:normal;shape-padding:0;clip-rule:nonzero;display:inline;overflow:visible;visibility:visible;opacity:0.25;isolation:auto;mix-blend-mode:normal;color-interpolation:sRGB;color-interpolation-filters:linearRGB;solid-color:#000000;solid-opacity:1;vector-effect:none;fill:#000000;fill-opacity:1;fill-rule:nonzero;stroke:none;stroke-width:2;stroke-linecap:round;stroke-linejoin:round;stroke-miterlimit:4;stroke-dasharray:none;stroke-dashoffset:0;stroke-opacity:1;color-rendering:auto;image-rendering:auto;shape-rendering:auto;text-rendering:auto;enable-background:accumulate"
       d="M 20.25 12 C 15.907239 12 12 16 12 23 C 12 30 16.393085 36 21.166016 36 C 31.249349 36 34 23 34 23 C 34 23 31.25 12 20.25 12 z M 20.25 13 C 25.416667 13 28.514719 15.520276 30.449219 18.099609 C 32.254021 20.506012 32.869691 22.71737 32.953125 23.027344 C 32.875835 23.369429 32.246102 26.086081 30.507812 28.986328 C 28.657684 32.073173 25.77793 35 21.166016 35 C 19.19858 35 17.170549 33.735079 15.607422 31.544922 C 14.044295 29.354765 13 26.290774 13 23 C 13 16.372118 16.521288 13 20.25 13 z "
       id="path828-8-6" />
  </g>
</svg>
