<?xml version="1.0" encoding="UTF-8" standalone="no"?>
<!-- Created with Inkscape (http://www.inkscape.org/) -->

<svg
   xmlns:dc="http://purl.org/dc/elements/1.1/"
   xmlns:cc="http://creativecommons.org/ns#"
   xmlns:rdf="http://www.w3.org/1999/02/22-rdf-syntax-ns#"
   xmlns:svg="http://www.w3.org/2000/svg"
   xmlns="http://www.w3.org/2000/svg"
   xmlns:sodipodi="http://sodipodi.sourceforge.net/DTD/sodipodi-0.dtd"
   xmlns:inkscape="http://www.inkscape.org/namespaces/inkscape"
   width="48px"
   height="48px"
   viewBox="0 0 48 48"
   version="1.1"
   id="SVGRoot"
   inkscape:version="0.92.4 (5da689c313, 2019-01-14)"
   sodipodi:docname="bluegriffon.svg">
  <defs
     id="defs815" />
  <sodipodi:namedview
     id="base"
     pagecolor="#ffffff"
     bordercolor="#666666"
     borderopacity="1.0"
     inkscape:pageopacity="0.0"
     inkscape:pageshadow="2"
     inkscape:zoom="16.082807"
     inkscape:cx="30.216698"
     inkscape:cy="20.052496"
     inkscape:document-units="px"
     inkscape:current-layer="layer1"
     showgrid="true"
     inkscape:window-width="1920"
     inkscape:window-height="1017"
     inkscape:window-x="-8"
     inkscape:window-y="-8"
     inkscape:window-maximized="1"
     inkscape:grid-bbox="true"
     inkscape:snap-global="false">
    <inkscape:grid
       type="xygrid"
       id="grid1371" />
  </sodipodi:namedview>
  <metadata
     id="metadata818">
    <rdf:RDF>
      <cc:Work
         rdf:about="">
        <dc:format>image/svg+xml</dc:format>
        <dc:type
           rdf:resource="http://purl.org/dc/dcmitype/StillImage" />
        <dc:title></dc:title>
      </cc:Work>
    </rdf:RDF>
  </metadata>
  <g
     inkscape:label="Layer 1"
     inkscape:groupmode="layer"
     id="layer1">
    <rect
       style="opacity:1;vector-effect:none;fill:#cfe0f6;fill-opacity:1;fill-rule:evenodd;stroke:none;stroke-width:4;stroke-linecap:round;stroke-linejoin:round;stroke-miterlimit:4;stroke-dasharray:none;stroke-dashoffset:0;stroke-opacity:1;paint-order:stroke fill markers"
       id="rect1373"
       width="40"
       height="40"
       x="4"
       y="4"
       ry="4" />
    <g
       id="g919"
       transform="matrix(0.62321109,0,0,0.62321109,3.6213007,5.9184661)">
      <path
         style="fill:#46589d;fill-opacity:1;stroke-width:0.50812608"
         id="path4333"
         inkscape:connector-curvature="0"
         d="m 45.273449,5.7686546 c -0.356573,0.025879 -0.672689,0.2027434 -0.952737,0.5398841 -0.316247,0.3807215 -0.475174,0.8939808 -0.42873,1.3497098 0.0686,0.6733984 0.267787,1.2284645 1.079767,2.8423295 0.446281,0.887021 0.59249,1.242293 0.74631,1.95311 0.21723,1.003859 0.303224,1.883289 0.3017,3.048757 -0.0017,1.073277 -0.06743,1.854743 -0.238184,2.874088 -0.149915,0.894972 -0.406551,1.971087 -0.460489,1.953108 -0.08231,-0.02743 -0.180055,-0.862411 -0.254063,-2.080141 -0.08714,-1.433787 -0.160604,-2.007297 -0.285821,-2.572388 -0.333148,-1.503483 -1.074093,-2.138931 -2.302446,-1.953108 -0.344647,0.05214 -0.900989,0.221241 -0.952737,0.285819 -0.02215,0.02763 0.101798,0.464189 0.44461,1.444984 0.269332,0.770602 0.492227,1.415127 0.492247,1.429105 6.6e-5,0.04851 -0.196111,0.114307 -0.238183,0.07939 -0.02167,-0.01799 -0.216066,-0.294491 -0.428731,-0.6034 -0.448793,-0.651879 -0.67713,-0.968881 -0.984495,-1.333831 -0.826828,-0.981738 -1.722125,-1.451332 -2.651783,-1.397346 -0.339251,0.01969 -0.849653,0.131369 -0.936858,0.206426 -0.06048,0.05206 -0.04567,0.140256 1.111526,4.35083 l 1.190921,4.303191 -0.269943,2.635905 c -0.14616,1.453632 -0.287624,2.675893 -0.301699,2.715298 -0.02506,0.07006 -0.02998,0.0794 -0.508126,0.0794 -0.268875,0 -0.814099,-0.01952 -1.206799,-0.04762 -0.867707,-0.06217 -1.949548,-0.06924 -2.318327,-0.0159 -0.374879,0.05424 -0.919987,0.190608 -1.429103,0.365214 -1.590039,0.545326 -2.981669,1.509211 -4.144404,2.889966 -1.071704,1.27266 -1.98035,2.893206 -2.874088,5.128899 -0.26824,0.671011 -0.847797,2.279551 -0.984494,2.715299 -0.338183,1.078035 -0.525326,2.222334 -0.555763,3.461609 -0.02709,1.103755 0.05677,2.012001 0.28582,2.937604 0.268693,1.085775 0.668928,1.926657 1.222679,2.635903 0.132564,0.169791 0.275389,0.319754 0.428733,0.476368 0.0053,0.0054 0.01059,0.01046 0.0159,0.0159 0.0045,0.0051 0.01105,0.01105 0.01591,0.01591 0.003,0.003 -0.003,0.01272 0,0.01591 0.712833,0.714714 1.488615,1.13239 2.477114,1.33383 0.706498,0.143981 1.93723,0.167459 1.93723,0.03176 0,-0.02266 -0.213769,-0.661246 -0.476368,-1.413227 -0.2626,-0.751981 -0.476276,-1.378265 -0.476367,-1.397347 -1.9e-4,-0.03338 0.131823,-0.111156 0.190547,-0.111156 0.01566,0 0.181655,0.229109 0.365214,0.508125 0.738939,1.123223 1.307033,1.766531 1.95311,2.207174 0.38361,0.261639 0.886502,0.462699 1.286195,0.524005 0.246852,0.03785 0.836523,0.03522 1.079767,-0.01591 0.300288,-0.06304 0.598267,-0.16196 0.635157,-0.206426 0.0045,-0.0058 -0.02094,-0.03638 -0.03176,-0.06351 0.0053,0.01997 -0.02307,0.03176 -0.04761,0.04761 -0.03156,0.02037 -0.0756,0.04762 -0.190548,0.07939 -0.06526,0.01803 -0.121149,0.03008 -0.190547,0.04762 0.01004,-0.0026 0.02206,-0.01333 0.03176,-0.01591 0.170308,-0.04462 0.323116,-0.09648 0.349335,-0.111157 0.02758,-0.01545 -0.151232,-0.334657 -0.508126,-0.905099 0.167662,0.26757 0.4005,0.606138 0.444611,0.682794 -0.0088,0 -0.003,0.02851 0.01591,0.06352 0.01874,0.03501 0.03887,0.06351 0.04761,0.06351 0.0067,0 -0.0056,-0.02409 -0.01591,-0.04761 0.0035,0.007 0.06303,0.0934 0.06351,0.09527 -0.05108,-0.127947 -0.273636,-0.505682 -0.873341,-1.444984 -0.979454,-1.534068 -1.0208,-1.599209 -1.000374,-1.619651 0.007,-0.007 0.173699,0.10498 0.365217,0.254062 1.249999,0.973041 2.524502,1.659306 3.683913,1.984867 1.452002,0.407711 2.820182,0.209883 3.858583,-0.57164 0.328595,-0.247312 0.668261,-0.582867 0.651036,-0.635159 -0.0078,-0.02403 -1.214238,-0.536165 -2.683542,-1.143283 -1.469297,-0.607114 -2.676681,-1.122629 -2.68354,-1.143284 -0.01971,-0.05916 1.139534,0.0088 2.397721,0.142905 0.402812,0.04293 1.058045,0.115684 1.460861,0.15879 1.295342,0.138651 1.585567,0.159267 2.477115,0.15879 0.946502,-5.08e-4 1.361032,-0.03907 2.080141,-0.190547 1.120164,-0.235964 2.320567,-0.800915 3.30282,-1.540258 0.399911,-0.301018 0.595116,-0.486006 0.571642,-0.524005 -0.01286,-0.02083 -1.587487,-0.01535 -4.63665,0 -3.139071,0.0158 -4.567611,0.0061 -4.620772,-0.01591 -0.0088,-0.0015 -0.02672,0.002 -0.03176,0 -0.02023,-0.03272 0.314608,-0.948189 0.365215,-1.000373 0.01454,-0.01499 0.131929,0.02271 0.254064,0.09527 2.114434,1.256163 6.669017,0.932558 9.971974,-0.714553 0.947778,-0.472639 1.571934,-0.9186 2.191294,-1.540258 0.740863,-0.743612 1.178039,-1.556024 1.238558,-2.334204 0.01783,-0.229514 0.0097,-0.238184 -0.04765,-0.238184 -0.07053,0 -1.22461,0.316335 -1.841957,0.508126 -0.227676,0.07073 -0.811685,0.257681 -1.302073,0.412852 -3.203104,1.01355 -4.532078,1.285459 -6.272181,1.317954 -0.994606,0.0186 -1.886443,-0.04126 -1.857836,-0.127039 0.03234,-0.09702 1.385,-0.561678 2.302446,-0.793947 0.783205,-0.198281 1.195407,-0.283188 3.016999,-0.651035 2.692783,-0.543772 3.668624,-0.796093 4.858956,-1.270316 2.510437,-1.000155 3.934323,-2.629797 4.382586,-5.001867 0.116684,-0.617119 0.186051,-1.699046 0.111157,-1.699046 -0.01566,0 -1.304186,0.727478 -2.874088,1.603772 -1.570012,0.876294 -2.870963,1.583765 -2.889966,1.572016 -0.04345,-0.02683 -0.227819,-0.439112 -0.206427,-0.46049 0.0087,-0.0087 0.209817,-0.119136 0.460491,-0.254062 1.203973,-0.648055 2.119062,-1.328688 3.112271,-2.318327 1.856159,-1.849481 2.942472,-3.985347 3.207547,-6.27218 0.07132,-0.615579 0.04858,-1.73838 -0.04764,-2.302445 -0.113958,-0.668105 -0.380017,-1.656345 -0.46049,-1.683168 -0.01821,-0.0061 -1.140605,1.613326 -2.477115,3.58864 -2.814397,4.159592 -2.963086,4.372983 -2.98524,4.350829 -0.05058,-0.05055 0.619833,-1.237348 1.746683,-3.112273 0.487838,-0.811685 1.012431,-1.690403 1.159164,-1.953108 0.361017,-0.646347 0.869738,-1.718214 1.063888,-2.223052 0.682063,-1.773528 0.777784,-3.278909 0.3017,-4.716045 -0.138258,-0.41733 -0.471013,-1.097323 -0.730431,-1.492621 -0.257209,-0.391932 -0.642754,-0.88669 -0.682794,-0.873341 -0.01809,0.0061 -0.789639,1.8285 -1.714926,4.04913 l -1.683168,4.03325 -2.334204,3.985614 c -2.334449,3.990837 -2.436998,4.184515 -2.461236,4.160283 -0.01942,-0.01941 0.193932,-0.617476 0.412852,-1.159164 0.547629,-1.35505 1.110079,-2.434269 2.651783,-5.08126 0.984633,-1.690531 1.427937,-2.482302 1.82608,-3.271061 1.240298,-2.457137 1.837433,-4.440382 1.984866,-6.60564 0.02983,-0.440084 0.02987,-0.650266 0,-0.936858 -0.155799,-1.494927 -0.682189,-3.3567 -1.238525,-4.398439 -0.323229,-0.6052441 -0.741727,-1.0887424 -1.111527,-1.2703151 -0.167351,-0.08217 -0.222939,-0.095274 -0.492246,-0.095274 -0.277594,0 -0.327568,0.011643 -0.539884,0.1111524 -0.518151,0.2428473 -0.667236,0.6237753 -0.666915,1.6037724 1.53e-4,0.5255553 0.04053,0.9364413 0.206426,2.1119003 l 0.111157,0.825704 -0.01589,0.936857 c -0.01779,0.929428 -0.03113,1.228707 -0.127039,2.096021 -0.210933,1.907596 -0.728135,4.101996 -1.49262,6.43097 -0.288398,0.878591 -0.714832,2.101595 -0.762189,2.175415 -0.110643,0.172422 0.16234,-1.087699 0.714552,-3.350456 0.905652,-3.711002 1.121663,-5.035473 1.159162,-6.907339 0.02591,-1.295384 -0.06112,-2.190208 -0.301751,-3.239304 C 49.210092,9.776466 49.153301,9.6123359 48.941484,9.1826763 48.347672,7.9781351 47.311283,6.7029459 46.46437,6.1497998 46.027805,5.8646664 45.63002,5.7428274 45.273449,5.7687053 Z" />
      <path
         sodipodi:nodetypes="cccccccccscccccccccsccccccccsccccscccsscccccssccccccccccccsccc"
         inkscape:connector-curvature="0"
         id="path4323"
         d="m 33.825094,15.899401 c -0.307492,0.0037 -0.635775,0.02998 -0.825005,0.06208 -1.191171,0.202199 -2.142842,0.641075 -2.63765,1.238987 -0.387467,0.468208 -0.496576,1.054557 -0.301614,1.620439 0.02577,0.07517 0.04507,0.147098 0.03252,0.159678 -0.01257,0.01257 -1.180091,0.135805 -2.58738,0.283873 -1.148771,0.120861 -1.780676,0.207631 -2.11426,0.254303 -0.157831,0.0245 -0.317551,0.03158 -0.476078,0.04736 0.05643,0.333501 0.150051,0.634498 0.206993,0.875269 0.226497,0.791672 0.274528,0.952156 0.239518,0.952156 -0.0077,0 -0.126131,-0.08251 -0.254304,-0.174463 -0.52963,-0.379926 -1.010555,-0.564369 -1.525814,-0.588445 -0.568908,-0.02656 -0.92866,0.127554 -1.333611,0.52339 -0.0088,0.0085 -0.02372,0.0089 -0.03252,0.01775 -0.203138,0.203414 -0.277861,0.297098 -0.411025,0.570702 -0.194028,0.398656 -0.292832,0.75421 -0.319356,1.2242 -0.03099,0.548996 0.0909,1.241857 0.28683,1.697322 l 0.06505,0.159679 h 0.269087 c 0.122028,0.0095 0.174969,-0.02208 0.254303,-0.04732 0.09821,-0.03125 0.140786,-0.150853 0.206991,-0.221774 0.278942,-0.427527 0.780287,-0.756549 1.380922,-0.904845 0.408736,-0.100909 1.160621,-0.100605 1.667752,0 1.82741,0.362511 3.194595,1.602348 3.125555,2.841684 -0.0184,0.330469 -0.132792,0.545356 -0.425809,0.839789 -0.244246,0.245431 -0.563648,0.463727 -1.111835,0.762907 -0.192645,0.105146 -0.514185,0.285951 -0.715595,0.396239 -0.201406,0.110294 -0.489334,0.284493 -0.635756,0.381454 -0.290109,0.192121 -0.650542,0.512042 -0.650542,0.588444 0,0.06583 0.179469,0.06444 0.952156,-0.01484 0.331405,-0.03399 0.604402,-0.08636 0.890059,-0.127144 1.385559,-0.197793 2.3112,-0.466613 3.033888,-0.937372 0.6869,-0.447445 1.20181,-1.159693 1.395706,-1.907267 0.03146,-0.121332 0.06088,-0.204034 0.07983,-0.204034 0.01895,0 0.143405,0.06373 0.269088,0.141936 0.815708,0.507633 1.487304,0.689594 2.049205,0.570702 0.502202,-0.106252 0.986588,-0.407523 1.874742,-1.173931 0.235517,-0.20323 0.437908,-0.381455 0.458335,-0.381455 0.02043,0 0.206605,0.405927 0.413981,0.890059 0.207377,0.484133 0.401733,0.904994 0.428766,0.937372 0.04762,0.05699 0.08759,0.06119 0.842746,-0.06506 0.429088,-0.07173 0.789988,-0.158131 0.807264,-0.174463 0.04411,-0.04167 -0.119166,-0.596865 -0.269089,-0.952157 -0.241582,-0.572506 -0.658383,-1.089506 -1.159146,-1.413448 -0.300136,-0.194153 -0.749885,-0.405773 -1.475546,-0.683068 -0.790024,-0.301889 -1.199466,-0.494807 -1.573127,-0.745166 -0.370166,-0.248017 -0.728545,-0.578431 -0.683069,-0.620971 0.01753,-0.01641 0.146721,-0.0608 0.286831,-0.109416 1.115998,-0.387253 1.878869,-1.122688 2.380389,-2.303507 0.206365,-0.48588 0.37658,-1.105767 0.653499,-2.333078 0.125646,-0.55683 0.287972,-1.186941 0.348927,-1.398664 0.06097,-0.211725 0.103921,-0.404574 0.09462,-0.428766 -10e-4,-0.0027 -0.03698,0.01256 -0.04732,0.01484 -0.110944,0.02415 -0.747412,0.318944 -2.303508,1.097049 -1.280671,0.640384 -2.348685,1.164786 -2.365604,1.159146 -0.01692,-0.0056 0.391439,-0.375845 0.904843,-0.825006 0.513413,-0.44916 0.977779,-0.852909 1.017211,-0.890057 0.02536,-0.02389 0.02179,-0.04847 0.03252,-0.07984 0.01606,-0.04709 0.02957,-0.110914 0.02957,-0.254303 0,-0.264678 -0.0089,-0.280575 -0.09462,-0.316399 -0.06946,-0.029 -0.343049,-0.03622 -0.650541,-0.03252 z"
         style="fill:#4e4e4e;stroke-width:0.50812608" />
      <path
         sodipodi:nodetypes="cccccccsccccc"
         inkscape:connector-curvature="0"
         id="path4223"
         d="m 28.310278,20.805074 c -0.638959,-0.02597 -1.345439,0.467208 -1.345439,0.467208 0,0 0.933426,1.235108 2.581467,0.218818 0,0 -0.491298,-0.655761 -1.236028,-0.686026 z m -0.01181,4.890889 c -0.252675,0.01961 -0.781971,0.106085 -1.348395,0.221774 -2.578744,0.526729 -4.641701,1.438407 -5.843043,2.590339 -0.242752,0.232767 -0.573659,0.618152 -0.573659,0.665326 0,0.0106 0.01059,0.01723 0.03252,0.01774 C 24.777656,27.9541 25.30899,27.842937 28.440396,27 c 0.05959,-0.05977 0.0595,-1.254762 0,-1.304039 -0.01166,-0.0095 -0.05771,-0.0065 -0.141936,0 z"
         style="fill:#d35244;fill-opacity:1;stroke-width:0.50812608" />
      <path
         inkscape:connector-curvature="0"
         id="path4217"
         d="m 11.990561,25.982792 c -0.02957,-0.02953 -0.641358,0.0501 -0.890059,0.112368 -0.706586,0.176934 -1.1308128,0.596989 -1.3809228,1.363179 -0.04486,0.137501 -0.07983,0.268825 -0.07983,0.301615 0,0.07455 0.02492,0.07666 0.301615,0 0.5761628,-0.159664 1.0316188,-0.429429 1.3986638,-0.81022 0.300304,-0.311546 0.707904,-0.909578 0.650542,-0.966941 z m 4.82879,2.492756 0.01484,0.112368 c 0.01997,0.214139 0.131597,0.719508 0.221777,0.966941 0.284689,0.78104 0.778615,1.260578 1.587912,1.525815 0.192331,0.06303 0.28058,0.06603 0.301615,0.02957 0.03008,-0.05213 -0.04663,-0.794114 -0.109416,-1.061566 -0.186065,-0.792529 -0.664281,-1.272459 -1.478503,-1.478503 -0.158844,-0.04019 -0.340968,-0.07368 -0.411024,-0.07983 z M 5.766062,31.778523 c -0.033383,0.01302 -0.040862,0.0432 -0.062103,0.09462 -0.057425,0.138954 -0.1448885,0.67023 -0.1448885,0.875274 0,0.539253 0.2472204,0.984479 0.7155966,1.301082 0.1813741,0.122604 0.2080066,0.124889 0.2069893,0.04732 -0.00152,-0.138288 -0.2511508,-2.256748 -0.269087,-2.285766 -0.011052,-0.01794 -0.1170615,-0.03252 -0.2395173,-0.03252 -0.110612,0 -0.1735969,-0.01302 -0.2069909,0 z m 16.990957,7.002191 c -0.05484,0 -0.340276,0.29372 -0.476077,0.49382 -0.374484,0.551785 -0.667627,1.371542 -0.842747,2.38039 -0.06217,0.358015 -0.06109,0.524168 -0.06211,1.301084 -0.001,0.982079 0.02124,1.204212 0.206991,1.762374 0.204678,0.615088 0.543728,1.026865 0.952155,1.176889 0.06545,0.02405 0.181522,0.04649 0.269088,0.04732 0.512746,0.0051 0.987035,-0.56324 1.20646,-1.428235 0.186542,-0.735384 0.04659,-1.353822 -0.635758,-2.79437 -0.436707,-0.921974 -0.549614,-1.285958 -0.618013,-1.842215 -0.03308,-0.269056 -0.03537,-0.536428 0.01484,-0.93737 0.01408,-0.112337 0.0085,-0.159679 -0.01484,-0.159679 z M 9.9265702,44.830749 c -0.04275,0 -0.03954,0.08979 0.03252,0.443552 0.1175448,0.577021 0.3274128,0.926492 0.7155968,1.129575 0.238426,0.124737 0.387722,0.160877 0.745164,0.221776 0.131354,0.02236 0.25542,0.04553 0.269088,0.04732 0.09329,0.01227 0.01952,-0.360651 -0.141936,-0.697854 -0.149339,-0.311931 -0.504276,-0.654349 -0.872315,-0.84275 -0.267825,-0.137091 -0.6846738,-0.301614 -0.7481238,-0.301614 z"
         style="opacity:0.3;fill:#000000;fill-opacity:1;stroke-width:0.50812608" />
      <path
         style="fill:#582621;fill-opacity:0.95169079;stroke-width:0.50812608"
         id="path4209"
         inkscape:connector-curvature="0"
         d="m 14.230122,26.236608 c -0.379109,0.02357 -0.867711,0.139876 -1.175042,0.28582 -0.877,0.416487 -1.392291,1.172375 -1.635532,2.365963 -0.142329,0.69844 -0.166335,1.081222 -0.174668,2.937604 -0.0045,0.968436 -0.01915,1.766115 -0.03176,1.778441 -0.01256,0.01241 -0.0583,-0.01809 -0.111156,-0.07939 -0.197976,-0.229623 -0.452364,-0.638994 -0.80983,-1.349715 -0.131672,-0.261791 -0.237961,-0.43558 -0.3493378,-0.635158 -0.06,-0.107508 -0.143344,-0.301871 -0.174668,-0.349336 C 9.5741552,30.896948 9.216802,30.527442 8.9741806,30.365132 8.7666936,30.226315 8.4537433,30.111068 8.2437503,30.111068 c -0.6065153,0 -1.1411708,0.555617 -1.3020728,1.349711 -0.1546386,0.763175 0.1462361,1.396026 0.7780683,1.635531 0.1034352,0.03923 0.2638032,0.05743 0.5716406,0.06352 0.234556,0.0045 0.4482431,0.01763 0.4604897,0.03176 0.012263,0.01408 0.063088,0.145706 0.1111567,0.285821 0.1405741,0.409855 0.4815362,1.082711 1.0003734,1.95311 0.5482168,0.919688 0.8982498,1.589358 1.0480108,2.000746 0.160567,0.441078 0.913828,3.349979 1.016253,3.922099 0.08913,0.497852 0.112338,0.95233 0.06351,1.19092 -0.02149,0.105086 -0.119862,0.405093 -0.222305,0.651037 -0.284235,0.682342 -0.30574,0.938047 -0.111156,1.476742 0.38709,1.071643 1.067893,1.799681 2.048383,2.207172 0.248046,0.103084 0.289733,0.109068 0.349336,-0.03176 0.133518,-0.31549 0.306182,-1.001608 0.365216,-1.476741 0.09664,-0.777836 0.02567,-1.331209 -0.381095,-3.128152 -0.188194,-0.831386 -0.336029,-1.841957 -0.269941,-1.841957 0.01539,2.1e-5 0.138681,0.08327 0.269941,0.190547 0.131263,0.107281 0.565712,0.455017 0.968617,0.76219 1.05153,0.801675 1.181727,0.910251 2.38184,2.096019 0.453518,0.448101 0.781309,0.750279 1.063889,1.000373 0.561992,0.497384 0.897996,0.712134 1.365588,0.873342 0.251935,0.08686 0.355999,0.110839 0.571642,0.111157 0.526342,5.08e-4 0.766153,-0.219372 0.793947,-0.730431 0.01961,-0.360743 -0.09049,-0.775928 -0.381095,-1.365589 -0.284154,-0.576576 -0.511947,-0.878951 -0.952735,-1.302072 -0.512958,-0.492401 -0.9889,-0.840796 -2.524752,-1.826079 -1.307587,-0.838845 -1.890483,-1.269264 -2.39772,-1.77844 -0.668516,-0.671067 -0.952431,-1.227821 -0.984494,-1.95311 -0.02642,-0.597074 0.122148,-0.977964 0.508126,-1.365589 0.395733,-0.397426 0.832469,-0.618607 2.111899,-1.06389 1.351814,-0.470468 1.855905,-0.766056 2.08014,-1.222678 0.07803,-0.158931 0.07946,-0.209865 0.07939,-0.476368 -7.6e-5,-0.256095 1.11e-4,-0.323299 -0.06351,-0.444611 -0.294517,-0.561483 -1.180897,-0.899713 -2.620027,-0.984492 l -0.365209,-0.01591 -1.222678,1.222678 c -0.671885,0.671046 -1.228447,1.201022 -1.238557,1.19092 -0.01015,-0.01015 0.282477,-1.576979 0.651035,-3.493367 0.368555,-1.916387 0.682796,-3.50858 0.682796,-3.541004 0,-0.05467 -0.02967,-0.06556 -0.317579,-0.04761 z" />
    </g>
    <path
       style="opacity:0.25;vector-effect:none;fill:#000000;fill-opacity:1;fill-rule:evenodd;stroke:none;stroke-width:4;stroke-linecap:round;stroke-linejoin:round;stroke-miterlimit:4;stroke-dasharray:none;stroke-dashoffset:0;stroke-opacity:1;paint-order:stroke fill markers"
       d="M 8 4 C 5.784 4 4 5.784 4 8 L 4 40 C 4 42.216 5.784 44 8 44 L 40 44 C 42.216 44 44 42.216 44 40 L 44 8 C 44 5.784 42.216 4 40 4 L 8 4 z M 8 5 L 40 5 C 41.662 5 43 6.338 43 8 L 43 40 C 43 41.662 41.662 43 40 43 L 8 43 C 6.338 43 5 41.662 5 40 L 5 8 C 5 6.338 6.338 5 8 5 z "
       id="rect826" />
  </g>
</svg>
