<?xml version="1.0" encoding="UTF-8" standalone="no"?>
<!-- Created with Inkscape (http://www.inkscape.org/) -->

<svg
   xmlns:dc="http://purl.org/dc/elements/1.1/"
   xmlns:cc="http://creativecommons.org/ns#"
   xmlns:rdf="http://www.w3.org/1999/02/22-rdf-syntax-ns#"
   xmlns:svg="http://www.w3.org/2000/svg"
   xmlns="http://www.w3.org/2000/svg"
   xmlns:sodipodi="http://sodipodi.sourceforge.net/DTD/sodipodi-0.dtd"
   xmlns:inkscape="http://www.inkscape.org/namespaces/inkscape"
   width="48px"
   height="48px"
   viewBox="0 0 48 48"
   version="1.1"
   id="SVGRoot"
   inkscape:version="0.92.4 (5da689c313, 2019-01-14)"
   sodipodi:docname="caffeine.svg">
  <defs
     id="defs815">
    <linearGradient
       gradientUnits="userSpaceOnUse"
       y2="39"
       y1="7"
       x2="24"
       x1="24"
       id="linearGradient1552">
      <stop
         id="stop823"
         offset="0"
         stop-color="#92b4da" />
      <stop
         id="stop825"
         offset="1"
         stop-color="#547cb1" />
    </linearGradient>
    <linearGradient
       gradientUnits="userSpaceOnUse"
       gradientTransform="translate(0,-1)"
       y2="37"
       y1="11"
       x2="24"
       x1="24"
       id="linearGradient857">
      <stop
         id="stop828"
         offset="0"
         stop-color="#dbe1e9" />
      <stop
         id="stop830"
         offset="1"
         stop-color="#b9c4d4" />
    </linearGradient>
  </defs>
  <sodipodi:namedview
     id="base"
     pagecolor="#ffffff"
     bordercolor="#666666"
     borderopacity="1.0"
     inkscape:pageopacity="0.0"
     inkscape:pageshadow="2"
     inkscape:zoom="22.744524"
     inkscape:cx="13.738243"
     inkscape:cy="17.138644"
     inkscape:document-units="px"
     inkscape:current-layer="layer1"
     showgrid="true"
     inkscape:window-width="1920"
     inkscape:window-height="1017"
     inkscape:window-x="-8"
     inkscape:window-y="-8"
     inkscape:window-maximized="1"
     inkscape:grid-bbox="true"
     inkscape:snap-global="true">
    <inkscape:grid
       type="xygrid"
       id="grid1371" />
  </sodipodi:namedview>
  <metadata
     id="metadata818">
    <rdf:RDF>
      <cc:Work
         rdf:about="">
        <dc:format>image/svg+xml</dc:format>
        <dc:type
           rdf:resource="http://purl.org/dc/dcmitype/StillImage" />
        <dc:title></dc:title>
      </cc:Work>
    </rdf:RDF>
  </metadata>
  <g
     inkscape:label="Layer 1"
     inkscape:groupmode="layer"
     id="layer1">
    <rect
       style="opacity:1;vector-effect:none;fill:#8b5628;fill-opacity:1;fill-rule:evenodd;stroke:none;stroke-width:4;stroke-linecap:round;stroke-linejoin:round;stroke-miterlimit:4;stroke-dasharray:none;stroke-dashoffset:0;stroke-opacity:1;paint-order:stroke fill markers"
       id="rect1373"
       width="40"
       height="40"
       x="4"
       y="4"
       ry="4" />
    <path
       style="opacity:0.4;vector-effect:none;fill:#000000;fill-opacity:1;fill-rule:evenodd;stroke:none;stroke-width:4;stroke-linecap:round;stroke-linejoin:round;stroke-miterlimit:4;stroke-dasharray:none;stroke-dashoffset:0;stroke-opacity:1;paint-order:stroke fill markers"
       d="M 8 4 C 5.784 4 4 5.784 4 8 L 4 40 C 4 42.216 5.784 44 8 44 L 40 44 C 42.216 44 44 42.216 44 40 L 44 8 C 44 5.784 42.216 4 40 4 L 8 4 z M 8 5 L 40 5 C 41.662 5 43 6.338 43 8 L 43 40 C 43 41.662 41.662 43 40 43 L 8 43 C 6.338 43 5 41.662 5 40 L 5 8 C 5 6.338 6.338 5 8 5 z "
       id="rect826" />
    <path
       style="fill:#f8d8a8;stroke:none;stroke-width:1px;stroke-linecap:butt;stroke-linejoin:miter;stroke-opacity:1;fill-opacity:1"
       d="m 10,38 h 28 c 0,0 0,2.010298 -4,2.010298 H 15 C 10,40.010298 10,38 10,38 Z"
       id="path828"
       inkscape:connector-curvature="0"
       sodipodi:nodetypes="ccssc" />
    <path
       style="fill:#f8d8a8;fill-opacity:1;stroke:none;stroke-width:1px;stroke-linecap:butt;stroke-linejoin:miter;stroke-opacity:1"
       d="m 14,24 v 6 c 0,0 0,6 5,6 h 9 c 4,0 4,-4 4,-4 h 2 c 0,0 2,0 2,-2 v -4 c 0,-2 -2,-2 -2,-2 z m 18,2 h 1 c 0.554,0 1,0.446 1,1 v 2 c 0,0.554 -0.446,1 -1,1 h -1 v -1 -2 z"
       id="path830"
       inkscape:connector-curvature="0"
       sodipodi:nodetypes="ccssccsscccsssscccc" />
    <path
       style="fill:#f8d8a8;stroke:none;stroke-width:1.08673322px;stroke-linecap:butt;stroke-linejoin:miter;stroke-opacity:1;fill-opacity:1"
       d="m 24.645267,7.9430535 c 0,0 -2.6279,1.8847689 -2.6279,4.7779995 0,2.322728 2.115912,4.23924 2.389,6.545859 0.114972,0.971119 -0.334461,2.914579 -0.334461,2.914579 0,0 1.938186,-3.3205 1.95898,-5.16024 0.02158,-1.909019 -1.911199,-2.888805 -1.911199,-5.399138 0,-1.226457 0.52558,-3.6790595 0.52558,-3.6790595 z"
       id="path838"
       inkscape:connector-curvature="0"
       sodipodi:nodetypes="csscssc" />
    <path
       style="fill:#f8d8a8;stroke:none;stroke-width:0.7469579px;stroke-linecap:butt;stroke-linejoin:miter;stroke-opacity:1;fill-opacity:1"
       d="m 20.852444,12.394807 c 0,0 -1.806267,1.295483 -1.806267,3.284123 0,1.59651 1.454356,2.91381 1.642062,4.499247 0.07903,0.667491 -0.229889,2.003314 -0.229889,2.003314 0,0 1.332197,-2.282321 1.34649,-3.546852 0.01483,-1.312151 -1.313649,-1.985599 -1.313649,-3.711057 0,-0.842996 0.361253,-2.528775 0.361253,-2.528775 z"
       id="path838-9"
       inkscape:connector-curvature="0"
       sodipodi:nodetypes="csscssc" />
    <path
       style="fill:#f8d8a8;stroke:none;stroke-width:0.7469579px;stroke-linecap:butt;stroke-linejoin:miter;stroke-opacity:1;fill-opacity:1"
       d="m 28.796431,10 c 0,0 -1.806268,1.295483 -1.806268,3.284123 0,1.596509 1.454356,2.913809 1.642062,4.499246 0.07903,0.667492 -0.229889,2.003315 -0.229889,2.003315 0,0 1.332197,-2.282321 1.34649,-3.546853 0.01483,-1.31215 -1.313649,-1.985598 -1.313649,-3.711057 C 28.435177,11.685779 28.796431,10 28.796431,10 Z"
       id="path838-9-5"
       inkscape:connector-curvature="0"
       sodipodi:nodetypes="csscssc" />
    <path
       style="fill:#8b5628;stroke:none;stroke-width:1px;stroke-linecap:butt;stroke-linejoin:miter;stroke-opacity:1"
       d="m 16,26 h 2 v 4 c 0,3 1,4 1,4 0,0 -3,0 -3,-4 z"
       id="path946"
       inkscape:connector-curvature="0"
       sodipodi:nodetypes="ccscsc" />
  </g>
</svg>
