<?xml version="1.0" encoding="UTF-8" standalone="no"?>
<!-- Created with Inkscape (http://www.inkscape.org/) -->

<svg
   xmlns:dc="http://purl.org/dc/elements/1.1/"
   xmlns:cc="http://creativecommons.org/ns#"
   xmlns:rdf="http://www.w3.org/1999/02/22-rdf-syntax-ns#"
   xmlns:svg="http://www.w3.org/2000/svg"
   xmlns="http://www.w3.org/2000/svg"
   xmlns:sodipodi="http://sodipodi.sourceforge.net/DTD/sodipodi-0.dtd"
   xmlns:inkscape="http://www.inkscape.org/namespaces/inkscape"
   width="48px"
   height="48px"
   viewBox="0 0 48 48"
   version="1.1"
   id="SVGRoot"
   inkscape:version="0.92.4 (5da689c313, 2019-01-14)"
   sodipodi:docname="catfish.svg">
  <defs
     id="defs815">
    <linearGradient
       gradientUnits="userSpaceOnUse"
       y2="39"
       y1="7"
       x2="24"
       x1="24"
       id="linearGradient1552">
      <stop
         id="stop823"
         offset="0"
         stop-color="#92b4da" />
      <stop
         id="stop825"
         offset="1"
         stop-color="#547cb1" />
    </linearGradient>
    <linearGradient
       gradientUnits="userSpaceOnUse"
       gradientTransform="translate(0,-1)"
       y2="37"
       y1="11"
       x2="24"
       x1="24"
       id="linearGradient857">
      <stop
         id="stop828"
         offset="0"
         stop-color="#dbe1e9" />
      <stop
         id="stop830"
         offset="1"
         stop-color="#b9c4d4" />
    </linearGradient>
  </defs>
  <sodipodi:namedview
     id="base"
     pagecolor="#ffffff"
     bordercolor="#666666"
     borderopacity="1.0"
     inkscape:pageopacity="0.0"
     inkscape:pageshadow="2"
     inkscape:zoom="27.265384"
     inkscape:cx="26.096551"
     inkscape:cy="33.328846"
     inkscape:document-units="px"
     inkscape:current-layer="layer1"
     showgrid="true"
     inkscape:window-width="1920"
     inkscape:window-height="1017"
     inkscape:window-x="-8"
     inkscape:window-y="-8"
     inkscape:window-maximized="1"
     inkscape:grid-bbox="true"
     inkscape:snap-global="false">
    <inkscape:grid
       type="xygrid"
       id="grid1371" />
  </sodipodi:namedview>
  <metadata
     id="metadata818">
    <rdf:RDF>
      <cc:Work
         rdf:about="">
        <dc:format>image/svg+xml</dc:format>
        <dc:type
           rdf:resource="http://purl.org/dc/dcmitype/StillImage" />
        <dc:title></dc:title>
      </cc:Work>
    </rdf:RDF>
  </metadata>
  <g
     inkscape:label="Layer 1"
     inkscape:groupmode="layer"
     id="layer1">
    <rect
       style="opacity:1;vector-effect:none;fill:#c6a798;fill-opacity:1;fill-rule:evenodd;stroke:none;stroke-width:4;stroke-linecap:round;stroke-linejoin:round;stroke-miterlimit:4;stroke-dasharray:none;stroke-dashoffset:0;stroke-opacity:1;paint-order:stroke fill markers"
       id="rect1373"
       width="40"
       height="40"
       x="4"
       y="4"
       ry="4" />
    <path
       style="fill:#000000;stroke:none;stroke-width:1px;stroke-linecap:butt;stroke-linejoin:miter;stroke-opacity:1;opacity:0.25"
       d="M 8 4 C 8 4 8 10 27 18 C 32.258619 20.214155 44 20 44 20 L 44 8 C 44 5.784 42.216 4 40 4 L 8 4 z "
       id="path1025" />
    <path
       style="opacity:0.25;vector-effect:none;fill:#000000;fill-opacity:1;fill-rule:evenodd;stroke:none;stroke-width:4;stroke-linecap:round;stroke-linejoin:round;stroke-miterlimit:4;stroke-dasharray:none;stroke-dashoffset:0;stroke-opacity:1;paint-order:stroke fill markers"
       d="M 8 4 C 5.784 4 4 5.784 4 8 L 4 40 C 4 42.216 5.784 44 8 44 L 40 44 C 42.216 44 44 42.216 44 40 L 44 8 C 44 5.784 42.216 4 40 4 L 8 4 z M 8 5 L 40 5 C 41.662 5 43 6.338 43 8 L 43 40 C 43 41.662 41.662 43 40 43 L 8 43 C 6.338 43 5 41.662 5 40 L 5 8 C 5 6.338 6.338 5 8 5 z "
       id="rect826" />
    <rect
       style="opacity:1;vector-effect:none;fill:#b3907f;fill-opacity:1;fill-rule:evenodd;stroke:none;stroke-width:2;stroke-linecap:round;stroke-linejoin:round;stroke-miterlimit:4;stroke-dasharray:none;stroke-dashoffset:0;stroke-opacity:1;paint-order:stroke fill markers"
       id="rect834"
       width="8"
       height="8"
       x="20"
       y="33"
       ry="4" />
    <path
       style="opacity:0.25;vector-effect:none;fill:#000000;fill-opacity:1;fill-rule:evenodd;stroke:none;stroke-width:2;stroke-linecap:round;stroke-linejoin:round;stroke-miterlimit:4;stroke-dasharray:none;stroke-dashoffset:0;stroke-opacity:1;paint-order:stroke fill markers"
       d="M 24 33 C 21.784 33 20 34.784 20 37 C 20 39.216 21.784 41 24 41 C 26.216 41 28 39.216 28 37 C 28 34.784 26.216 33 24 33 z M 24 34 C 25.662 34 27 35.338 27 37 C 27 38.662 25.662 40 24 40 C 22.338 40 21 38.662 21 37 C 21 35.338 22.338 34 24 34 z "
       id="rect1020" />
    <rect
       style="opacity:1;vector-effect:none;fill:#4e4e4e;fill-opacity:1;fill-rule:evenodd;stroke:none;stroke-width:2;stroke-linecap:round;stroke-linejoin:round;stroke-miterlimit:4;stroke-dasharray:none;stroke-dashoffset:0;stroke-opacity:1;paint-order:stroke fill markers"
       id="rect828"
       width="10"
       height="10"
       x="19"
       y="27"
       ry="5" />
    <path
       style="fill:#7d4836;stroke:none;stroke-width:1px;stroke-linecap:butt;stroke-linejoin:miter;stroke-opacity:1"
       d="M 19.5,28 19,31 c 0,0 -7,0 -8,4 -0.51131,2.04524 2.806768,4.052291 2,6 -0.285235,0.688619 -1.254644,1 -2,1 -0.745356,0 -2,-0.254644 -2,-1 0,-0.745356 1.735115,-0.3033 2,-1 0.637928,-1.677877 -2,-2 -2,-5 0,-8.062258 10.5,-7 10.5,-7 z"
       id="path836"
       inkscape:connector-curvature="0"
       sodipodi:nodetypes="ccssssssc" />
    <rect
       style="opacity:1;vector-effect:none;fill:#bd7a66;fill-opacity:1;fill-rule:evenodd;stroke:none;stroke-width:2;stroke-linecap:round;stroke-linejoin:round;stroke-miterlimit:4;stroke-dasharray:none;stroke-dashoffset:0;stroke-opacity:1;paint-order:stroke fill markers"
       id="rect830"
       width="9"
       height="9"
       x="15"
       y="28"
       ry="4.5" />
    <path
       style="fill:#7d4836;stroke:none;stroke-width:1px;stroke-linecap:butt;stroke-linejoin:miter;stroke-opacity:1"
       d="m 28.5,28 0.5,3 c 0,0 7,0 8,4 0.51131,2.04524 -2.806768,4.052291 -2,6 0.285235,0.688619 1.254644,1 2,1 0.745356,0 2,-0.254644 2,-1 0,-0.745356 -1.735115,-0.3033 -2,-1 -0.637928,-1.677877 2,-2 2,-5 0,-8.062258 -10.5,-7 -10.5,-7 z"
       id="path836-3"
       inkscape:connector-curvature="0"
       sodipodi:nodetypes="ccssssssc" />
    <rect
       style="opacity:1;vector-effect:none;fill:#bd7a66;fill-opacity:1;fill-rule:evenodd;stroke:none;stroke-width:2;stroke-linecap:round;stroke-linejoin:round;stroke-miterlimit:4;stroke-dasharray:none;stroke-dashoffset:0;stroke-opacity:1;paint-order:stroke fill markers"
       id="rect832"
       width="9"
       height="9"
       x="24"
       y="28"
       ry="4.5" />
    <path
       style="fill:#d7fdb2;stroke:none;stroke-width:1px;stroke-linecap:butt;stroke-linejoin:miter;stroke-opacity:1"
       d="m 26,24 c 0,0 0.684112,-2.787765 3,-4 2.08824,-1.093074 7,-1 7,-1 0,0 -1.375056,6.100403 -5,7 -2.644838,0.656366 -5,-2 -5,-2 z"
       id="path853"
       inkscape:connector-curvature="0"
       sodipodi:nodetypes="cscsc" />
    <path
       style="fill:#4e4e4e;stroke:none;stroke-width:1px;stroke-linecap:butt;stroke-linejoin:miter;stroke-opacity:1"
       d="m 29.688789,23.155605 c -0.315356,-1.104362 0.03184,-2.282811 0.03184,-2.282811 0,0 0.838128,0.419382 1.141106,1.34858 0.302979,0.929199 0.155606,2.230344 0.155606,2.230344 0,0 -1.013196,-0.19175 -1.328552,-1.296113 z"
       id="path855"
       inkscape:connector-curvature="0"
       sodipodi:nodetypes="zczcz" />
    <path
       style="color:#000000;font-style:normal;font-variant:normal;font-weight:normal;font-stretch:normal;font-size:medium;line-height:normal;font-family:sans-serif;font-variant-ligatures:normal;font-variant-position:normal;font-variant-caps:normal;font-variant-numeric:normal;font-variant-alternates:normal;font-feature-settings:normal;text-indent:0;text-align:start;text-decoration:none;text-decoration-line:none;text-decoration-style:solid;text-decoration-color:#000000;letter-spacing:normal;word-spacing:normal;text-transform:none;writing-mode:lr-tb;direction:ltr;text-orientation:mixed;dominant-baseline:auto;baseline-shift:baseline;text-anchor:start;white-space:normal;shape-padding:0;clip-rule:nonzero;display:inline;overflow:visible;visibility:visible;opacity:1;isolation:auto;mix-blend-mode:normal;color-interpolation:sRGB;color-interpolation-filters:linearRGB;solid-color:#000000;solid-opacity:1;vector-effect:none;fill:#24738b;fill-opacity:1;fill-rule:nonzero;stroke:none;stroke-width:2;stroke-linecap:round;stroke-linejoin:round;stroke-miterlimit:4;stroke-dasharray:none;stroke-dashoffset:0;stroke-opacity:1;color-rendering:auto;image-rendering:auto;shape-rendering:auto;text-rendering:auto;enable-background:accumulate"
       d="m 7.5898438,16.992188 c -0.1909515,0.0044 -0.3766567,0.06334 -0.5351563,0.169921 l -4.6015625,3 c -0.605439,0.394541 -0.605439,1.281241 0,1.675782 l 4.6015625,3 c 1.1216636,0.749385 2.2304793,-0.952518 1.0917969,-1.675782 L 8,21 8.1464844,18.837891 C 9.0047041,18.296522 8.6042767,16.968789 7.5898438,16.992188 Z"
       id="path881"
       inkscape:connector-curvature="0"
       sodipodi:nodetypes="ccccccccc" />
    <path
       style="color:#000000;font-style:normal;font-variant:normal;font-weight:normal;font-stretch:normal;font-size:medium;line-height:normal;font-family:sans-serif;font-variant-ligatures:normal;font-variant-position:normal;font-variant-caps:normal;font-variant-numeric:normal;font-variant-alternates:normal;font-feature-settings:normal;text-indent:0;text-align:start;text-decoration:none;text-decoration-line:none;text-decoration-style:solid;text-decoration-color:#000000;letter-spacing:normal;word-spacing:normal;text-transform:none;writing-mode:lr-tb;direction:ltr;text-orientation:mixed;dominant-baseline:auto;baseline-shift:baseline;text-anchor:start;white-space:normal;shape-padding:0;clip-rule:nonzero;display:inline;overflow:visible;visibility:visible;opacity:0.45;isolation:auto;mix-blend-mode:normal;color-interpolation:sRGB;color-interpolation-filters:linearRGB;solid-color:#000000;solid-opacity:1;vector-effect:none;fill:#000000;fill-opacity:1;fill-rule:nonzero;stroke:none;stroke-width:2;stroke-linecap:round;stroke-linejoin:round;stroke-miterlimit:4;stroke-dasharray:none;stroke-dashoffset:0;stroke-opacity:1;color-rendering:auto;image-rendering:auto;shape-rendering:auto;text-rendering:auto;enable-background:accumulate"
       d="M 7.5898438 16.992188 C 7.3988923 16.996588 7.2131871 17.055528 7.0546875 17.162109 L 2.453125 20.162109 C 1.8476859 20.55665 1.8476859 21.44335 2.453125 21.837891 L 7.0546875 24.837891 C 8.1763511 25.587276 9.2851668 23.885373 8.1464844 23.162109 L 8 21 L 8.1464844 18.837891 C 9.0047041 18.296522 8.6042767 16.968789 7.5898438 16.992188 z M 7.6015625 18 A 1.0001 1.0001 0 0 0 7.1484375 18.769531 L 7.0019531 20.931641 A 1.0001 1.0001 0 0 0 7.0019531 21.068359 L 7.1484375 23.230469 A 1.0001 1.0001 0 0 0 7.5761719 23.984375 L 3 21 L 7.6015625 18 z "
       id="path881-3" />
    <rect
       style="opacity:1;vector-effect:none;fill:#bdd1e9;fill-opacity:1;fill-rule:evenodd;stroke:none;stroke-width:2.28571439;stroke-linecap:round;stroke-linejoin:round;stroke-miterlimit:4;stroke-dasharray:none;stroke-dashoffset:0;stroke-opacity:1;paint-order:stroke fill markers"
       id="rect884"
       width="16"
       height="16"
       x="7"
       y="13"
       ry="8" />
    <path
       style="fill:#c3ecd8;stroke:none;stroke-width:1px;stroke-linecap:butt;stroke-linejoin:miter;stroke-opacity:1;fill-opacity:1"
       d="m 22,24 c 0,0 -0.684112,-2.787765 -3,-4 -2.08824,-1.093074 -7,-1 -7,-1 0,0 1.375056,6.100403 5,7 2.644838,0.656366 5,-2 5,-2 z"
       id="path853-3"
       inkscape:connector-curvature="0"
       sodipodi:nodetypes="cscsc" />
    <path
       style="fill:#79a38e;stroke:none;stroke-width:1px;stroke-linecap:butt;stroke-linejoin:miter;stroke-opacity:1;fill-opacity:1"
       d="m 18.311211,23.155605 c 0.315356,-1.104362 -0.03184,-2.282811 -0.03184,-2.282811 0,0 -0.838128,0.419382 -1.141106,1.34858 -0.302979,0.929199 -0.155606,2.230344 -0.155606,2.230344 0,0 1.013196,-0.19175 1.328552,-1.296113 z"
       id="path855-3"
       inkscape:connector-curvature="0"
       sodipodi:nodetypes="zczcz" />
    <path
       style="opacity:1;vector-effect:none;fill:#65b0c8;fill-opacity:1;fill-rule:evenodd;stroke:none;stroke-width:2;stroke-linecap:round;stroke-linejoin:round;stroke-miterlimit:4;stroke-dasharray:none;stroke-dashoffset:0;stroke-opacity:1;paint-order:stroke fill markers"
       d="M 15 12 C 10.014 12 6 16.014 6 21 C 6 25.986 10.014 30 15 30 C 19.986 30 24 25.986 24 21 C 24 16.014 19.986 12 15 12 z M 15 14 C 18.878 14 22 17.122 22 21 C 22 24.878 18.878 28 15 28 C 11.122 28 8 24.878 8 21 C 8 17.122 11.122 14 15 14 z "
       id="rect875" />
    <path
       style="opacity:0.25;vector-effect:none;fill:#000000;fill-opacity:1;fill-rule:evenodd;stroke:none;stroke-width:2;stroke-linecap:round;stroke-linejoin:round;stroke-miterlimit:4;stroke-dasharray:none;stroke-dashoffset:0;stroke-opacity:1;paint-order:stroke fill markers"
       d="M 15 12 C 10.014 12 6 16.014 6 21 C 6 25.986 10.014 30 15 30 C 19.986 30 24 25.986 24 21 C 24 16.014 19.986 12 15 12 z M 15 13 C 19.432 13 23 16.568 23 21 C 23 25.432 19.432 29 15 29 C 10.568 29 7 25.432 7 21 C 7 16.568 10.568 13 15 13 z "
       id="rect948" />
    <path
       style="fill:#4e4e4e;stroke:none;stroke-width:1px;stroke-linecap:butt;stroke-linejoin:miter;stroke-opacity:1"
       d="m 11,8 c 1,-2 12.933278,-1.060633 19,1 6.066722,2.060633 16.803848,8 16,11 -0.803848,3 -13.016239,0.06121 -19,-2 C 21.016239,15.938786 10,10 11,8 Z"
       id="path886"
       inkscape:connector-curvature="0"
       sodipodi:nodetypes="zzzzz" />
    <path
       style="color:#000000;font-style:normal;font-variant:normal;font-weight:normal;font-stretch:normal;font-size:medium;line-height:normal;font-family:sans-serif;font-variant-ligatures:normal;font-variant-position:normal;font-variant-caps:normal;font-variant-numeric:normal;font-variant-alternates:normal;font-feature-settings:normal;text-indent:0;text-align:start;text-decoration:none;text-decoration-line:none;text-decoration-style:solid;text-decoration-color:#000000;letter-spacing:normal;word-spacing:normal;text-transform:none;writing-mode:lr-tb;direction:ltr;text-orientation:mixed;dominant-baseline:auto;baseline-shift:baseline;text-anchor:start;white-space:normal;shape-padding:0;clip-rule:nonzero;display:inline;overflow:visible;visibility:visible;opacity:0.4;isolation:auto;mix-blend-mode:normal;color-interpolation:sRGB;color-interpolation-filters:linearRGB;solid-color:#000000;solid-opacity:1;vector-effect:none;fill:#000000;fill-opacity:1;fill-rule:nonzero;stroke:none;stroke-width:2;stroke-linecap:round;stroke-linejoin:round;stroke-miterlimit:4;stroke-dasharray:none;stroke-dashoffset:0;stroke-opacity:1;color-rendering:auto;image-rendering:auto;shape-rendering:auto;text-rendering:auto;enable-background:accumulate"
       d="M 15.851562 6.8945312 C 13.287507 6.9137107 11.375 7.25 11 8 C 9.9999996 10 21.016239 15.938786 27 18 C 32.983761 20.06121 45.196152 23 46 20 C 46.803848 17 36.066722 11.060633 30 9 C 26.208299 7.7121044 20.124989 6.8625655 15.851562 6.8945312 z M 15.857422 7.8945312 C 16.684085 7.8880927 17.590493 7.9152611 18.537109 7.9746094 C 22.323575 8.2120024 26.789619 8.9662834 29.677734 9.9472656 C 32.60417 10.941263 36.778417 12.925161 40.041016 14.992188 C 41.672315 16.0257 43.080737 17.087658 43.976562 18.003906 C 44.424476 18.46203 44.739677 18.886075 44.898438 19.201172 C 45.057197 19.516269 45.050986 19.673867 45.033203 19.740234 C 45.019923 19.789794 45.016493 19.838624 44.765625 19.958984 C 44.514761 20.079341 44.051338 20.195233 43.449219 20.246094 C 42.24498 20.347816 40.506735 20.211924 38.599609 19.910156 C 34.785358 19.306621 30.258353 18.064728 27.326172 17.054688 C 24.435238 16.058853 20.201708 14.069828 16.888672 12.115234 C 15.232154 11.137937 13.797509 10.160972 12.898438 9.3671875 C 12.4489 8.9702954 12.137703 8.6111484 12.009766 8.4003906 C 12.038346 8.3820886 12.005366 8.3940005 12.203125 8.3203125 C 12.518369 8.2028217 13.028659 8.0902349 13.65625 8.015625 C 14.283841 7.9410151 15.030759 7.9009698 15.857422 7.8945312 z "
       id="path886-0" />
    <path
       style="fill:#4e4e4e;stroke:none;stroke-width:0.96022189px;stroke-linecap:butt;stroke-linejoin:miter;stroke-opacity:1"
       d="m 21.933632,10.178642 2.852585,-7.7573951 c 0,0 2.852584,-1.46072572 9.508614,0.9696744 C 39.606041,5.3302701 40,7.269619 40,7.269619 l -2.852584,7.757395 c 0,0 -2.623494,1.939349 -8.557753,0 -5.93426,-1.939349 -6.656031,-4.848372 -6.656031,-4.848372 z"
       id="path888"
       inkscape:connector-curvature="0"
       sodipodi:nodetypes="ccsccsc" />
    <path
       style="opacity:0.25;vector-effect:none;fill:#ffffff;fill-opacity:1;fill-rule:evenodd;stroke:none;stroke-width:1.1757555;stroke-linecap:round;stroke-linejoin:round;stroke-miterlimit:4;stroke-dasharray:none;stroke-opacity:1;paint-order:normal"
       d="m 15.278755,16.010797 c -2.931159,0 -5.2908998,2.359741 -5.2908998,5.2909 0,0.356402 0.035633,0.703976 0.1021888,1.040268 0.543402,0.08061 1.094924,0.135488 1.661444,0.135488 3.264914,0 6.184652,-1.395429 8.2234,-3.61453 -0.879318,-1.696413 -2.646339,-2.852126 -4.696133,-2.852126 z"
       id="rect895"
       inkscape:connector-curvature="0" />
    <path
       style="opacity:0.25;vector-effect:none;fill:#000000;fill-opacity:1;fill-rule:evenodd;stroke:none;stroke-width:2;stroke-linecap:round;stroke-linejoin:round;stroke-miterlimit:4;stroke-dasharray:none;stroke-dashoffset:0;stroke-opacity:1;paint-order:stroke fill markers"
       d="M 15 14 C 11.122 14 8 17.122 8 21 C 8 24.878 11.122 28 15 28 C 18.878 28 22 24.878 22 21 C 22 17.122 18.878 14 15 14 z M 15 15 C 18.324 15 21 17.676 21 21 C 21 24.324 18.324 27 15 27 C 11.676 27 9 24.324 9 21 C 9 17.676 11.676 15 15 15 z "
       id="rect953" />
    <path
       style="color:#000000;font-style:normal;font-variant:normal;font-weight:normal;font-stretch:normal;font-size:medium;line-height:normal;font-family:sans-serif;font-variant-ligatures:normal;font-variant-position:normal;font-variant-caps:normal;font-variant-numeric:normal;font-variant-alternates:normal;font-feature-settings:normal;text-indent:0;text-align:start;text-decoration:none;text-decoration-line:none;text-decoration-style:solid;text-decoration-color:#000000;letter-spacing:normal;word-spacing:normal;text-transform:none;writing-mode:lr-tb;direction:ltr;text-orientation:mixed;dominant-baseline:auto;baseline-shift:baseline;text-anchor:start;white-space:normal;shape-padding:0;clip-rule:nonzero;display:inline;overflow:visible;visibility:visible;opacity:0.4;isolation:auto;mix-blend-mode:normal;color-interpolation:sRGB;color-interpolation-filters:linearRGB;solid-color:#000000;solid-opacity:1;vector-effect:none;fill:#000000;fill-opacity:1;fill-rule:nonzero;stroke:none;stroke-width:1.93475592;stroke-linecap:round;stroke-linejoin:round;stroke-miterlimit:4;stroke-dasharray:none;stroke-dashoffset:0;stroke-opacity:1;color-rendering:auto;image-rendering:auto;shape-rendering:auto;text-rendering:auto;enable-background:accumulate"
       d="m 27.044922,1.9940089 c -1.54515,0.061381 -2.257813,0.4276991 -2.257813,0.4276991 l -2.853515,7.757071 c 0,0 0.72199,2.909735 6.65625,4.849084 5.934259,1.939349 8.55664,0 8.55664,0 L 40,7.2689636 c 0,0 -0.393868,-1.9391868 -5.705078,-3.8785357 -3.328015,-1.2152001 -5.70485,-1.4578004 -7.25,-1.396419 z m 0.04297,0.9358201 c 1.390264,-0.055228 3.624002,0.15678 6.84375,1.332447 2.558249,0.9341257 3.857193,1.8434513 4.49414,2.4510444 0.292087,0.2786259 0.420266,0.4719604 0.5,0.6049931 L 36.335938,14.35707 c -0.08836,0.06342 -0.35025,0.29084 -1.423829,0.477049 -1.21786,0.211233 -3.166314,0.232613 -5.992187,-0.690898 -2.832116,-0.925553 -4.336513,-2.048335 -5.136719,-2.889711 -0.400103,-0.420688 -0.625172,-0.773128 -0.748047,-1.005275 -0.03687,-0.06966 -0.02041,-0.04378 -0.03906,-0.08408 L 25.58008,3.140021 c 0.02171,-0.00605 0.0041,-0.00243 0.0293,-0.00914 0.296709,-0.079059 0.783384,-0.1734408 1.478516,-0.2010551 z"
       id="path888-1"
       inkscape:connector-curvature="0" />
    <path
       style="fill:#7c8487;fill-opacity:1;stroke:none;stroke-width:0.96022189px;stroke-linecap:butt;stroke-linejoin:miter;stroke-opacity:1"
       d="m 22.759766,7.936101 -0.826172,2.242678 c 0,0 0.72199,2.909735 6.65625,4.849084 5.934259,1.939349 8.55664,0 8.55664,0 l 0.824219,-2.242678 c -0.0098,0.0072 -2.631543,1.933889 -8.554687,-0.0018 -5.93426,-1.939348 -6.65625,-4.847255 -6.65625,-4.847255 z"
       id="path888-4"
       inkscape:connector-curvature="0" />
  </g>
</svg>
