<?xml version="1.0" encoding="UTF-8" standalone="no"?>
<!-- Created with Inkscape (http://www.inkscape.org/) -->

<svg
   xmlns:dc="http://purl.org/dc/elements/1.1/"
   xmlns:cc="http://creativecommons.org/ns#"
   xmlns:rdf="http://www.w3.org/1999/02/22-rdf-syntax-ns#"
   xmlns:svg="http://www.w3.org/2000/svg"
   xmlns="http://www.w3.org/2000/svg"
   xmlns:sodipodi="http://sodipodi.sourceforge.net/DTD/sodipodi-0.dtd"
   xmlns:inkscape="http://www.inkscape.org/namespaces/inkscape"
   width="48px"
   height="48px"
   viewBox="0 0 48 48"
   version="1.1"
   id="SVGRoot"
   inkscape:version="0.92.4 (5da689c313, 2019-01-14)"
   sodipodi:docname="cheese.svg">
  <defs
     id="defs815" />
  <sodipodi:namedview
     id="base"
     pagecolor="#ffffff"
     bordercolor="#666666"
     borderopacity="1.0"
     inkscape:pageopacity="0.0"
     inkscape:pageshadow="2"
     inkscape:zoom="16.342421"
     inkscape:cx="39.119094"
     inkscape:cy="32.20923"
     inkscape:document-units="px"
     inkscape:current-layer="layer1"
     showgrid="true"
     inkscape:window-width="1920"
     inkscape:window-height="1017"
     inkscape:window-x="-8"
     inkscape:window-y="-8"
     inkscape:window-maximized="1"
     inkscape:grid-bbox="true"
     inkscape:snap-global="true">
    <inkscape:grid
       type="xygrid"
       id="grid1371" />
  </sodipodi:namedview>
  <metadata
     id="metadata818">
    <rdf:RDF>
      <cc:Work
         rdf:about="">
        <dc:format>image/svg+xml</dc:format>
        <dc:type
           rdf:resource="http://purl.org/dc/dcmitype/StillImage" />
        <dc:title></dc:title>
      </cc:Work>
    </rdf:RDF>
  </metadata>
  <g
     inkscape:label="Layer 1"
     inkscape:groupmode="layer"
     id="layer1">
    <path
       inkscape:connector-curvature="0"
       style="opacity:1;vector-effect:none;fill:#efefef;fill-opacity:1;fill-rule:evenodd;stroke:none;stroke-width:4;stroke-linecap:round;stroke-linejoin:round;stroke-miterlimit:4;stroke-dasharray:none;stroke-dashoffset:0;stroke-opacity:1;paint-order:stroke fill markers"
       d="M 8,4 C 5.784,4 4,5.784 4,8 v 32 c 0,2.216 1.784,4 4,4 h 24 l 4,-8 8,-4 V 8 C 44,5.784 42.216,4 40,4 Z"
       id="rect1373" />
    <path
       inkscape:connector-curvature="0"
       style="opacity:1;vector-effect:none;fill:#c184ed;fill-opacity:1;fill-rule:evenodd;stroke:none;stroke-width:2;stroke-linecap:round;stroke-linejoin:round;stroke-miterlimit:4;stroke-dasharray:none;stroke-dashoffset:0;stroke-opacity:1;paint-order:stroke fill markers"
       d="M 9,8 C 8.446,8 8,8.446 8,9 v 30 c 0,0.554 0.446,1 1,1 H 34.5 L 37,36 40,34.285156 V 9 C 40,8.446 39.554,8 39,8 Z"
       id="rect815" />
    <path
       style="fill:#ffffff;stroke:none;stroke-width:1px;stroke-linecap:butt;stroke-linejoin:miter;stroke-opacity:1"
       d="m 8,21 c 0,0 6,3 16,3 10,0 16,-3 16,-3 v 2 c 0,0 -2,9 -16,9 C 10,32 8,23 8,23 Z"
       id="path817"
       inkscape:connector-curvature="0"
       sodipodi:nodetypes="czcczcc" />
    <path
       style="opacity:1;vector-effect:none;fill:#b7bfc2;fill-opacity:1;fill-rule:evenodd;stroke:none;stroke-width:2.21108317;stroke-linecap:round;stroke-linejoin:round;stroke-miterlimit:4;stroke-dasharray:none;stroke-dashoffset:0;stroke-opacity:1;paint-order:stroke fill markers"
       d="M 14 22.919922 L 14 29.861328 C 14.601946 30.178012 15.275879 30.465147 16 30.728516 L 16 23.306641 C 15.294317 23.183615 14.618596 23.058852 14 22.919922 z M 34 22.919922 C 33.381404 23.058852 32.705683 23.183615 32 23.306641 L 32 30.728516 C 32.724121 30.465147 33.398054 30.178012 34 29.861328 L 34 22.919922 z M 23 23.982422 L 23 31.980469 C 23.328287 31.990979 23.657495 32 24 32 C 24.342505 32 24.671713 31.990999 25 31.980469 L 25 23.982422 C 24.667554 23.989195 24.341877 24 24 24 C 23.658123 24 23.332446 23.989192 23 23.982422 z "
       id="rect819-4" />
    <path
       style="opacity:1;vector-effect:none;fill:#4e4e4e;fill-opacity:1;fill-rule:evenodd;stroke:none;stroke-width:2;stroke-linecap:round;stroke-linejoin:round;stroke-miterlimit:4;stroke-dasharray:none;stroke-dashoffset:0;stroke-opacity:1;paint-order:stroke fill markers"
       d="m 17,14 c -2.77,0 -5,2.23 -5,5 0,0.554 0.446,1 1,1 0.554,0 1,-0.446 1,-1 0,-1.662 1.338,-3 3,-3 1.662,0 3,1.338 3,3 0,0.554 0.446,1 1,1 0.554,0 1,-0.446 1,-1 0,-2.77 -2.23,-5 -5,-5 z m 14,0 c -2.77,0 -5,2.23 -5,5 0,0.554 0.446,1 1,1 0.554,0 1,-0.446 1,-1 0,-1.662 1.338,-3 3,-3 1.662,0 3,1.338 3,3 0,0.554 0.446,1 1,1 0.554,0 1,-0.446 1,-1 0,-2.77 -2.23,-5 -5,-5 z"
       id="rect889"
       inkscape:connector-curvature="0" />
    <path
       inkscape:connector-curvature="0"
       style="opacity:0.1;fill:#000000;stroke:none;stroke-width:1px;stroke-linecap:butt;stroke-linejoin:miter;stroke-opacity:1"
       d="m 44,28 -4,4 h 4 z m -12,12 -4,4 h 4 z"
       id="path957" />
    <path
       style="opacity:0.25;vector-effect:none;fill:#000000;fill-opacity:1;fill-rule:evenodd;stroke:none;stroke-width:4;stroke-linecap:round;stroke-linejoin:round;stroke-miterlimit:4;stroke-dasharray:none;stroke-dashoffset:0;stroke-opacity:1;paint-order:stroke fill markers"
       d="M 8 4 C 5.784 4 4 5.784 4 8 L 4 40 C 4 42.216 5.784 44 8 44 L 32 44 L 32.5 43 L 8 43 C 6.338 43 5 41.662 5 40 L 5 8 C 5 6.338 6.338 5 8 5 L 40 5 C 41.662 5 43 6.338 43 8 L 43 32.5 L 44 32 L 44 8 C 44 5.784 42.216 4 40 4 L 8 4 z "
       id="rect819" />
    <path
       style="opacity:0.25;vector-effect:none;fill:#000000;fill-opacity:1;fill-rule:evenodd;paint-order:stroke fill markers"
       d="M 9 8 C 8.446 8 8 8.446 8 9 L 8 39 C 8 39.554 8.446 40 9 40 L 32 40 L 33 39 L 9.5 39 C 9.223 39 9 38.777 9 38.5 L 9 9.5 C 9 9.223 9.223 9 9.5 9 L 38.5 9 C 38.777 9 39 9.223 39 9.5 L 39 33 L 40 32 L 40 9 C 40 8.446 39.554 8 39 8 L 9 8 z "
       id="rect910" />
    <path
       style="opacity:1;vector-effect:none;fill:#efefef;fill-opacity:1;fill-rule:evenodd;paint-order:stroke fill markers"
       d="m 36,32 c -2.216,0 -4,1.784 -4,4 v 8 L 44,32 Z"
       id="rect879"
       inkscape:connector-curvature="0" />
    <path
       style="opacity:0.25;vector-effect:none;fill:#000000;fill-opacity:1;fill-rule:evenodd;stroke:none;stroke-width:4;stroke-linecap:round;stroke-linejoin:round;stroke-miterlimit:4;stroke-dasharray:none;stroke-dashoffset:0;stroke-opacity:1;paint-order:stroke fill markers"
       d="M 36 32 C 33.784 32 32 33.784 32 36 L 32 43 L 32 44 L 33 43 L 43 33 L 44 32 L 43 32 L 36 32 z M 36 33 L 42 33 L 33 42 L 33 36 C 33 34.338 34.338 33 36 33 z "
       id="rect819-9" />
  </g>
</svg>
