<?xml version="1.0" encoding="UTF-8" standalone="no"?>
<!-- Created with Inkscape (http://www.inkscape.org/) -->

<svg
   xmlns:dc="http://purl.org/dc/elements/1.1/"
   xmlns:cc="http://creativecommons.org/ns#"
   xmlns:rdf="http://www.w3.org/1999/02/22-rdf-syntax-ns#"
   xmlns:svg="http://www.w3.org/2000/svg"
   xmlns="http://www.w3.org/2000/svg"
   xmlns:xlink="http://www.w3.org/1999/xlink"
   xmlns:sodipodi="http://sodipodi.sourceforge.net/DTD/sodipodi-0.dtd"
   xmlns:inkscape="http://www.inkscape.org/namespaces/inkscape"
   width="48px"
   height="48px"
   viewBox="0 0 48 48"
   version="1.1"
   id="SVGRoot"
   inkscape:version="0.92.4 (5da689c313, 2019-01-14)"
   sodipodi:docname="cinema4d.svg">
  <defs
     id="defs815">
    <linearGradient
       inkscape:collect="always"
       id="linearGradient911">
      <stop
         style="stop-color:#848eda;stop-opacity:1"
         offset="0"
         id="stop907" />
      <stop
         id="stop915"
         offset="0.33333334"
         style="stop-color:#45498f;stop-opacity:1" />
      <stop
         style="stop-color:#45498f;stop-opacity:1"
         offset="0.53333336"
         id="stop917" />
      <stop
         style="stop-color:#c0c9fc;stop-opacity:1"
         offset="1"
         id="stop909" />
    </linearGradient>
    <linearGradient
       inkscape:collect="always"
       xlink:href="#linearGradient911"
       id="linearGradient913"
       x1="21"
       y1="27"
       x2="36"
       y2="13"
       gradientUnits="userSpaceOnUse" />
  </defs>
  <sodipodi:namedview
     id="base"
     pagecolor="#ffffff"
     bordercolor="#666666"
     borderopacity="1.0"
     inkscape:pageopacity="0.0"
     inkscape:pageshadow="2"
     inkscape:zoom="19.590754"
     inkscape:cx="33.494265"
     inkscape:cy="24.370916"
     inkscape:document-units="px"
     inkscape:current-layer="layer1"
     showgrid="true"
     inkscape:window-width="1920"
     inkscape:window-height="1017"
     inkscape:window-x="-8"
     inkscape:window-y="-8"
     inkscape:window-maximized="1"
     inkscape:grid-bbox="true"
     inkscape:snap-global="true">
    <inkscape:grid
       type="xygrid"
       id="grid1371" />
  </sodipodi:namedview>
  <metadata
     id="metadata818">
    <rdf:RDF>
      <cc:Work
         rdf:about="">
        <dc:format>image/svg+xml</dc:format>
        <dc:type
           rdf:resource="http://purl.org/dc/dcmitype/StillImage" />
        <dc:title />
      </cc:Work>
    </rdf:RDF>
  </metadata>
  <g
     inkscape:label="Layer 1"
     inkscape:groupmode="layer"
     id="layer1">
    <rect
       style="opacity:1;vector-effect:none;fill:#81849c;fill-opacity:1;fill-rule:evenodd;stroke:none;stroke-width:4;stroke-linecap:round;stroke-linejoin:round;stroke-miterlimit:4;stroke-dasharray:none;stroke-opacity:1;paint-order:normal"
       id="rect849"
       width="28"
       height="30"
       x="7"
       y="11"
       ry="4" />
    <rect
       style="opacity:1;vector-effect:none;fill:#45498f;fill-opacity:1;fill-rule:evenodd;stroke:none;stroke-width:4.44444418;stroke-linecap:round;stroke-linejoin:round;stroke-miterlimit:4;stroke-dasharray:none;stroke-opacity:1;paint-order:normal"
       id="rect828"
       width="30"
       height="30"
       x="12"
       y="6"
       ry="15" />
    <path
       style="opacity:0.4;vector-effect:none;fill:#000000;fill-opacity:1;fill-rule:evenodd;stroke:none;stroke-width:2;stroke-linecap:round;stroke-linejoin:round;stroke-miterlimit:4;stroke-dasharray:none;stroke-opacity:1;paint-order:normal"
       d="M 26.890625 6 C 18.641581 6 12 12.641581 12 20.890625 L 12 21.109375 C 12 29.358419 18.641581 36 26.890625 36 L 27.109375 36 C 35.358419 36 42 29.358419 42 21.109375 L 42 20.890625 C 42 12.641581 35.358419 6 27.109375 6 L 26.890625 6 z M 27 7 C 34.756 7 41 13.244 41 21 C 41 28.756 34.756 35 27 35 C 19.244 35 13 28.756 13 21 C 13 13.244 19.244 7 27 7 z "
       id="rect964" />
    <path
       style="opacity:1;vector-effect:none;fill:#efefef;fill-opacity:1;fill-rule:evenodd;stroke:none;stroke-width:4;stroke-linecap:round;stroke-linejoin:round;stroke-miterlimit:4;stroke-dasharray:none;stroke-dashoffset:0;stroke-opacity:1;paint-order:stroke fill markers"
       d="M 8,4 C 5.784,4 4,5.784 4,8 v 32 c 0,2.216 1.784,4 4,4 h 32 c 2.216,0 4,-1.784 4,-4 V 18 c 0,0 0,-2 -3,-2 -1.666667,0 -3,4 -3,4 0,0 -1.173649,9.47916 -7,15.699219 -4.329667,4.622239 -11.5,7 -18.5,0 -7,-7 -4.8654014,-14.644718 0,-18.699219 6,-5 15.5,-7 15.5,-7 0,0 4,-1 4,-3 0,-3 -2,-3 -2,-3 z"
       id="rect1373"
       inkscape:connector-curvature="0"
       sodipodi:nodetypes="sssssscscssscscs" />
    <path
       style="fill:url(#linearGradient913);stroke:none;stroke-width:0.99657297px;stroke-linecap:butt;stroke-linejoin:miter;stroke-opacity:1;fill-opacity:1"
       d="m 32.07767,9.0532798 c 5.763211,2.4130192 6.506052,7.6756782 6.506052,7.6756782 0,0 -2.650028,1.804687 -3.43578,3.143374 -1.410963,2.403861 -2.299091,7.291932 -4.970916,9.795628 -2.78572,2.610423 -8.808197,2.366025 -11.184561,-0.511711 -2.477296,-2.999964 -2.636419,-8.412812 1.681339,-11.55007 2.762989,-2.007573 6.383921,-2.75473 8.918408,-5.044018 1.063658,-0.960754 2.485458,-3.5088812 2.485458,-3.5088812 z"
       id="path857"
       inkscape:connector-curvature="0"
       sodipodi:nodetypes="ccsssssc" />
    <rect
       style="opacity:1;vector-effect:none;fill:#848eda;fill-opacity:1;fill-rule:evenodd;stroke:none;stroke-width:4;stroke-linecap:round;stroke-linejoin:round;stroke-miterlimit:4;stroke-dasharray:none;stroke-opacity:1;paint-order:normal"
       id="rect919"
       width="8"
       height="8"
       x="18"
       y="22"
       ry="4" />
    <rect
       style="opacity:0.5;vector-effect:none;fill:#ffffff;fill-opacity:1;fill-rule:evenodd;stroke:none;stroke-width:8;stroke-linecap:round;stroke-linejoin:round;stroke-miterlimit:4;stroke-dasharray:none;stroke-opacity:1;paint-order:normal"
       id="rect905"
       width="4"
       height="4"
       x="20"
       y="24"
       ry="2" />
    <path
       style="color:#000000;font-style:normal;font-variant:normal;font-weight:normal;font-stretch:normal;font-size:medium;line-height:normal;font-family:sans-serif;font-variant-ligatures:normal;font-variant-position:normal;font-variant-caps:normal;font-variant-numeric:normal;font-variant-alternates:normal;font-feature-settings:normal;text-indent:0;text-align:start;text-decoration:none;text-decoration-line:none;text-decoration-style:solid;text-decoration-color:#000000;letter-spacing:normal;word-spacing:normal;text-transform:none;writing-mode:lr-tb;direction:ltr;text-orientation:mixed;dominant-baseline:auto;baseline-shift:baseline;text-anchor:start;white-space:normal;shape-padding:0;clip-rule:nonzero;display:inline;overflow:visible;visibility:visible;opacity:0.2;isolation:auto;mix-blend-mode:normal;color-interpolation:sRGB;color-interpolation-filters:linearRGB;solid-color:#000000;solid-opacity:1;vector-effect:none;fill:#000000;fill-opacity:1;fill-rule:evenodd;stroke:none;stroke-width:2;stroke-linecap:round;stroke-linejoin:round;stroke-miterlimit:4;stroke-dasharray:none;stroke-dashoffset:0;stroke-opacity:1;paint-order:stroke fill markers;color-rendering:auto;image-rendering:auto;shape-rendering:auto;text-rendering:auto;enable-background:accumulate"
       d="M 8 4 C 5.784 4 4 5.784 4 8 L 4 40 C 4 42.216 5.784 44 8 44 L 40 44 C 42.216 44 44 42.216 44 40 L 44 18 C 44 18 44 16 41 16 C 39.333333 16 38 20 38 20 C 38 20 36.826351 29.47916 31 35.699219 C 26.670333 40.321458 19.5 42.699219 12.5 35.699219 C 5.5 28.699219 7.6345986 21.054501 12.5 17 C 18.5 12 28 10 28 10 C 28 10 32 9 32 7 C 32 4 30 4 30 4 L 8 4 z M 8 5 L 30 5 C 30 5 30.156391 4.9927801 30.400391 5.1757812 C 30.644391 5.3587812 31 5.7222222 31 7 C 31 7.1666667 30.92512 7.3483198 30.667969 7.6054688 C 30.41082 7.8626176 29.993106 8.135283 29.552734 8.3554688 C 28.671991 8.7958402 27.757812 9.0292969 27.757812 9.0292969 C 27.648169 9.0517544 18.121256 11.014188 11.859375 16.232422 C 9.2444725 18.411507 7.3460895 21.567754 7.0546875 25.164062 C 6.7632855 28.760372 8.1283252 32.741607 11.792969 36.40625 C 15.453719 40.067001 19.330627 41.378144 22.84375 41.052734 C 26.356873 40.727325 29.435832 38.832507 31.730469 36.382812 C 37.721129 29.987342 38.917479 20.68447 38.96875 20.267578 C 38.967631 20.270865 38.949219 20.316406 38.949219 20.316406 L 38.992188 20.123047 C 38.992188 20.123047 38.969918 20.258085 38.96875 20.267578 C 38.994028 20.19336 39.284185 19.343741 39.753906 18.476562 C 39.999167 18.023774 40.291592 17.586865 40.550781 17.316406 C 40.809972 17.045946 40.983333 17 41 17 C 42.277778 17 42.641219 17.355609 42.824219 17.599609 C 43.007219 17.843609 43 18 43 18 L 43 40 C 43 41.679297 41.679297 43 40 43 L 8 43 C 6.3207028 43 5 41.679297 5 40 L 5 8 C 5 6.3207028 6.3207028 5 8 5 z "
       id="rect1373-7" />
  </g>
</svg>
