<?xml version="1.0" encoding="UTF-8" standalone="no"?>
<!-- Created with Inkscape (http://www.inkscape.org/) -->

<svg
   xmlns:dc="http://purl.org/dc/elements/1.1/"
   xmlns:cc="http://creativecommons.org/ns#"
   xmlns:rdf="http://www.w3.org/1999/02/22-rdf-syntax-ns#"
   xmlns:svg="http://www.w3.org/2000/svg"
   xmlns="http://www.w3.org/2000/svg"
   xmlns:sodipodi="http://sodipodi.sourceforge.net/DTD/sodipodi-0.dtd"
   xmlns:inkscape="http://www.inkscape.org/namespaces/inkscape"
   width="48px"
   height="48px"
   viewBox="0 0 48 48"
   version="1.1"
   id="SVGRoot"
   inkscape:version="0.92.4 (5da689c313, 2019-01-14)"
   sodipodi:docname="computer-janitor.svg">
  <defs
     id="defs815" />
  <sodipodi:namedview
     id="base"
     pagecolor="#ffffff"
     bordercolor="#666666"
     borderopacity="1.0"
     inkscape:pageopacity="0.0"
     inkscape:pageshadow="2"
     inkscape:zoom="5.6861311"
     inkscape:cx="21.775508"
     inkscape:cy="24.26235"
     inkscape:document-units="px"
     inkscape:current-layer="layer1"
     showgrid="true"
     inkscape:window-width="1920"
     inkscape:window-height="1017"
     inkscape:window-x="-8"
     inkscape:window-y="-8"
     inkscape:window-maximized="1"
     inkscape:grid-bbox="true"
     inkscape:snap-global="true">
    <inkscape:grid
       type="xygrid"
       id="grid1371" />
  </sodipodi:namedview>
  <metadata
     id="metadata818">
    <rdf:RDF>
      <cc:Work
         rdf:about="">
        <dc:format>image/svg+xml</dc:format>
        <dc:type
           rdf:resource="http://purl.org/dc/dcmitype/StillImage" />
        <dc:title></dc:title>
      </cc:Work>
    </rdf:RDF>
  </metadata>
  <g
     inkscape:label="Layer 1"
     inkscape:groupmode="layer"
     id="layer1">
    <rect
       style="opacity:1;vector-effect:none;fill:#4696ba;fill-opacity:1;fill-rule:evenodd;stroke:none;stroke-width:4;stroke-linecap:round;stroke-linejoin:round;stroke-miterlimit:4;stroke-dasharray:none;stroke-dashoffset:0;stroke-opacity:1;paint-order:stroke fill markers"
       id="rect1373"
       width="40"
       height="40"
       x="4"
       y="4"
       ry="4" />
    <path
       style="opacity:0.25;vector-effect:none;fill:#000000;fill-opacity:1;fill-rule:evenodd;stroke:none;stroke-width:4;stroke-linecap:round;stroke-linejoin:round;stroke-miterlimit:4;stroke-dasharray:none;stroke-dashoffset:0;stroke-opacity:1;paint-order:stroke fill markers"
       d="M 8 4 C 5.784 4 4 5.784 4 8 L 4 40 C 4 42.216 5.784 44 8 44 L 40 44 C 42.216 44 44 42.216 44 40 L 44 8 C 44 5.784 42.216 4 40 4 L 8 4 z M 8 5 L 40 5 C 41.662 5 43 6.338 43 8 L 43 40 C 43 41.662 41.662 43 40 43 L 8 43 C 6.338 43 5 41.662 5 40 L 5 8 C 5 6.338 6.338 5 8 5 z "
       id="rect826" />
    <path
       style="fill:none;stroke:#ffffff;stroke-width:2;stroke-linecap:round;stroke-linejoin:round;stroke-miterlimit:4;stroke-dasharray:none;stroke-opacity:1"
       d="m 24,13 c -9,0 -13,3 -13,3 l 4,11 c 0,0 4,-2 9,-2 5,0 9,2 9,2 l 4,-11 c 0,0 -4,-3 -13,-3 z"
       id="path828"
       inkscape:connector-curvature="0"
       sodipodi:nodetypes="zcczccz" />
    <rect
       style="opacity:1;vector-effect:none;fill:#ffffff;fill-opacity:1;fill-rule:evenodd;stroke:none;stroke-width:2;stroke-linecap:round;stroke-linejoin:round;stroke-miterlimit:4;stroke-dasharray:none;stroke-opacity:1;paint-order:stroke fill markers"
       id="rect846"
       width="6"
       height="6"
       x="21"
       y="30"
       ry="3" />
    <path
       style="fill:none;stroke:#ffffff;stroke-width:2;stroke-linecap:round;stroke-linejoin:round;stroke-opacity:1;stroke-miterlimit:4;stroke-dasharray:none"
       d="m 20,19 4,14"
       id="path848"
       inkscape:connector-curvature="0" />
    <path
       style="opacity:0.25;vector-effect:none;fill:#ffffff;fill-opacity:1;fill-rule:evenodd;stroke:none;stroke-width:2;stroke-linecap:round;stroke-linejoin:round;stroke-miterlimit:4;stroke-dasharray:none;stroke-opacity:1;paint-order:stroke fill markers"
       d="M 12.5 8 C 11.669 8 11 8.669 11 9.5 C 11 10.331 11.669 11 12.5 11 C 13.331 11 14 10.331 14 9.5 C 14 8.669 13.331 8 12.5 8 z M 41 8 C 39.892 8 39 8.892 39 10 C 39 11.108 39.892 12 41 12 C 42.108 12 43 11.108 43 10 C 43 8.892 42.108 8 41 8 z M 8 11 C 6.892 11 6 11.892 6 13 C 6 14.108 6.892 15 8 15 C 9.108 15 10 14.108 10 13 C 10 11.892 9.108 11 8 11 z M 38 12 C 37.446 12 37 12.446 37 13 C 37 13.554 37.446 14 38 14 C 38.554 14 39 13.554 39 13 C 39 12.446 38.554 12 38 12 z M 10 24 C 9.446 24 9 24.446 9 25 C 9 25.554 9.446 26 10 26 C 10.554 26 11 25.554 11 25 C 11 24.446 10.554 24 10 24 z M 40 27 C 39.446 27 39 27.446 39 28 C 39 28.554 39.446 29 40 29 C 40.554 29 41 28.554 41 28 C 41 27.446 40.554 27 40 27 z M 11.5 32 C 10.115 32 9 33.115 9 34.5 C 9 35.885 10.115 37 11.5 37 C 12.885 37 14 35.885 14 34.5 C 14 33.115 12.885 32 11.5 32 z M 40 34 C 39.446 34 39 34.446 39 35 C 39 35.554 39.446 36 40 36 C 40.554 36 41 35.554 41 35 C 41 34.446 40.554 34 40 34 z M 34.5 35 C 33.115 35 32 36.115 32 37.5 C 32 38.885 33.115 40 34.5 40 C 35.885 40 37 38.885 37 37.5 C 37 36.115 35.885 35 34.5 35 z M 7 36 C 6.446 36 6 36.446 6 37 C 6 37.554 6.446 38 7 38 C 7.554 38 8 37.554 8 37 C 8 36.446 7.554 36 7 36 z M 29 39 C 27.892 39 27 39.892 27 41 C 27 42.108 27.892 43 29 43 C 30.108 43 31 42.108 31 41 C 31 39.892 30.108 39 29 39 z "
       id="rect867" />
  </g>
</svg>
