<?xml version="1.0" encoding="UTF-8" standalone="no"?>
<!-- Created with Inkscape (http://www.inkscape.org/) -->

<svg
   xmlns:dc="http://purl.org/dc/elements/1.1/"
   xmlns:cc="http://creativecommons.org/ns#"
   xmlns:rdf="http://www.w3.org/1999/02/22-rdf-syntax-ns#"
   xmlns:svg="http://www.w3.org/2000/svg"
   xmlns="http://www.w3.org/2000/svg"
   xmlns:sodipodi="http://sodipodi.sourceforge.net/DTD/sodipodi-0.dtd"
   xmlns:inkscape="http://www.inkscape.org/namespaces/inkscape"
   width="48px"
   height="48px"
   viewBox="0 0 48 48"
   version="1.1"
   id="SVGRoot"
   inkscape:version="0.92.4 (5da689c313, 2019-01-14)"
   sodipodi:docname="config-users.svg">
  <defs
     id="defs815" />
  <sodipodi:namedview
     id="base"
     pagecolor="#ffffff"
     bordercolor="#666666"
     borderopacity="1.0"
     inkscape:pageopacity="0.0"
     inkscape:pageshadow="2"
     inkscape:zoom="27.705511"
     inkscape:cx="29.325393"
     inkscape:cy="25.807518"
     inkscape:document-units="px"
     inkscape:current-layer="layer1"
     showgrid="true"
     inkscape:window-width="1920"
     inkscape:window-height="1017"
     inkscape:window-x="-8"
     inkscape:window-y="-8"
     inkscape:window-maximized="1"
     inkscape:grid-bbox="true"
     inkscape:snap-global="false">
    <inkscape:grid
       type="xygrid"
       id="grid1371" />
  </sodipodi:namedview>
  <metadata
     id="metadata818">
    <rdf:RDF>
      <cc:Work
         rdf:about="">
        <dc:format>image/svg+xml</dc:format>
        <dc:type
           rdf:resource="http://purl.org/dc/dcmitype/StillImage" />
        <dc:title />
      </cc:Work>
    </rdf:RDF>
  </metadata>
  <g
     inkscape:label="Layer 1"
     inkscape:groupmode="layer"
     id="layer1">
    <rect
       style="opacity:1;vector-effect:none;fill:#ffdd75;fill-opacity:1;fill-rule:evenodd;stroke:none;stroke-width:4;stroke-linecap:round;stroke-linejoin:round;stroke-miterlimit:4;stroke-dasharray:none;stroke-dashoffset:0;stroke-opacity:1;paint-order:stroke fill markers"
       id="rect1373"
       width="40"
       height="40"
       x="4"
       y="4"
       ry="4" />
    <path
       style="opacity:0.25;vector-effect:none;fill:#000000;fill-opacity:1;fill-rule:evenodd;stroke:none;stroke-width:4;stroke-linecap:round;stroke-linejoin:round;stroke-miterlimit:4;stroke-dasharray:none;stroke-dashoffset:0;stroke-opacity:1;paint-order:stroke fill markers"
       d="M 8 4 C 5.784 4 4 5.784 4 8 L 4 40 C 4 42.216 5.784 44 8 44 L 40 44 C 42.216 44 44 42.216 44 40 L 44 8 C 44 5.784 42.216 4 40 4 L 8 4 z M 8 5 L 40 5 C 41.662 5 43 6.338 43 8 L 43 40 C 43 41.662 41.662 43 40 43 L 8 43 C 6.338 43 5 41.662 5 40 L 5 8 C 5 6.338 6.338 5 8 5 z "
       id="rect826" />
    <path
       inkscape:connector-curvature="0"
       style="opacity:0.25;fill:#000000;stroke:none;stroke-width:0.62516207px;stroke-linecap:butt;stroke-linejoin:miter;stroke-opacity:1"
       d="m 14.774941,19.331837 c -2.077354,0 -3.749736,1.673484 -3.749736,3.752208 v 0.625368 c 0,1.393627 0.753414,2.601806 1.874867,3.248982 v 1.128594 c 0,0 -3.7497364,0.625369 -4.3746923,1.250737 -0.5770856,0.577466 -0.6191289,2.77649 -0.6225149,3.024944 -1.4e-4,0.0051 -0.00238,0.0095 -0.00238,0.01466 v 0.07817 0.07818 c -6.39e-5,0.303365 0.2436026,0.547192 0.5467725,0.547192 H 21.102622 c 0.303169,0 0.546836,-0.243827 0.546836,-0.547196 v -0.07818 -0.07817 c 0,-0.0051 -0.0023,-0.0095 -0.0024,-0.01466 -0.0033,-0.248458 -0.04543,-2.447481 -0.622519,-3.024947 -0.624957,-0.625369 -4.374693,-1.250737 -4.374693,-1.250737 v -1.128594 c 1.121453,-0.647175 1.874867,-1.855354 1.874867,-3.248982 v -0.625369 c 6.3e-5,-2.078733 -1.67232,-3.752217 -3.749673,-3.752217 z"
       id="path828-9-7"
       sodipodi:nodetypes="sssccscscsssscscsccsss" />
    <path
       inkscape:connector-curvature="0"
       style="opacity:0.25;fill:#000000;stroke:none;stroke-width:0.61572784px;stroke-linecap:butt;stroke-linejoin:miter;stroke-opacity:1"
       d="m 33.240119,19.539322 c -2.046005,0 -3.693149,1.648229 -3.693149,3.695583 v 0.615931 c 0,1.372597 0.742044,2.562543 1.846574,3.199952 v 1.111563 c 0,0 -3.69315,0.615931 -4.308675,1.231862 -0.568377,0.568752 -0.609786,2.73459 -0.613121,2.979295 -1.38e-4,0.005 -0.0023,0.0094 -0.0023,0.01444 v 0.07699 0.07699 c -6.2e-5,0.298787 0.239927,0.538934 0.538521,0.538934 H 39.47231 c 0.298594,0 0.538584,-0.240147 0.538584,-0.538938 v -0.07699 -0.07699 c 0,-0.005 -0.0023,-0.0094 -0.0024,-0.01443 -0.0033,-0.244708 -0.04475,-2.410546 -0.613125,-2.979298 -0.615525,-0.615931 -4.308674,-1.231862 -4.308674,-1.231862 v -1.111563 c 1.104529,-0.637408 1.846573,-1.827354 1.846573,-3.199952 v -0.615931 c 6.2e-5,-2.047363 -1.647082,-3.695593 -3.693088,-3.695593 z"
       id="path828-9-7-8"
       sodipodi:nodetypes="sssccscscsssscscsccsss" />
    <path
       inkscape:connector-curvature="0"
       style="fill:#4e4e4e;stroke:none;stroke-width:1.00032973px;stroke-linecap:butt;stroke-linejoin:miter;stroke-opacity:1"
       d="m 24,13 c -3.324,0 -6,2.677765 -6,6.003957 v 1.000659 c 0,2.229962 1.205548,4.163185 3,5.198739 v 1.805878 c 0,0 -5.027254,1.000659 -6.027254,2.001319 -0.923402,0.924011 -0.990676,3.469949 -0.996094,3.867507 -2.25e-4,0.0082 -0.0039,0.01519 -0.0039,0.02345 v 0.125083 0.125082 c 0,0.485427 0.389893,0.875577 0.875,0.875577 H 33.15226 c 0.485107,0 0.875,-0.39015 0.875,-0.875577 v -0.125082 -0.125083 c 0,-0.0083 -0.0037,-0.01524 -0.0039,-0.02345 -0.0054,-0.397561 -0.0727,-2.943499 -0.9961,-3.86751 C 32.027254,28.009892 27,27.009233 27,27.009233 v -1.805878 c 1.794452,-1.035554 3,-2.968777 3,-5.198739 V 19.003957 C 30,15.677765 27.324,13 24,13 Z"
       id="path828-9-9"
       sodipodi:nodetypes="sssccscscsssscscsccsss" />
  </g>
</svg>
