<?xml version="1.0" encoding="UTF-8" standalone="no"?>
<!-- Created with Inkscape (http://www.inkscape.org/) -->

<svg
   xmlns:dc="http://purl.org/dc/elements/1.1/"
   xmlns:cc="http://creativecommons.org/ns#"
   xmlns:rdf="http://www.w3.org/1999/02/22-rdf-syntax-ns#"
   xmlns:svg="http://www.w3.org/2000/svg"
   xmlns="http://www.w3.org/2000/svg"
   xmlns:sodipodi="http://sodipodi.sourceforge.net/DTD/sodipodi-0.dtd"
   xmlns:inkscape="http://www.inkscape.org/namespaces/inkscape"
   width="48px"
   height="48px"
   viewBox="0 0 48 48"
   version="1.1"
   id="SVGRoot"
   inkscape:version="0.92.4 (5da689c313, 2019-01-14)"
   sodipodi:docname="crocotile-3d.svg">
  <defs
     id="defs815" />
  <sodipodi:namedview
     id="base"
     pagecolor="#ffffff"
     bordercolor="#666666"
     borderopacity="1.0"
     inkscape:pageopacity="0.0"
     inkscape:pageshadow="2"
     inkscape:zoom="13.632692"
     inkscape:cx="25.048406"
     inkscape:cy="23.459606"
     inkscape:document-units="px"
     inkscape:current-layer="layer1"
     showgrid="true"
     inkscape:window-width="1920"
     inkscape:window-height="1017"
     inkscape:window-x="-8"
     inkscape:window-y="-8"
     inkscape:window-maximized="1"
     inkscape:grid-bbox="true"
     inkscape:snap-global="false">
    <inkscape:grid
       type="xygrid"
       id="grid1371" />
  </sodipodi:namedview>
  <metadata
     id="metadata818">
    <rdf:RDF>
      <cc:Work
         rdf:about="">
        <dc:format>image/svg+xml</dc:format>
        <dc:type
           rdf:resource="http://purl.org/dc/dcmitype/StillImage" />
        <dc:title></dc:title>
      </cc:Work>
    </rdf:RDF>
  </metadata>
  <g
     inkscape:label="Layer 1"
     inkscape:groupmode="layer"
     id="layer1">
    <rect
       style="opacity:1;vector-effect:none;fill:#afd56b;fill-opacity:1;fill-rule:evenodd;stroke:none;stroke-width:4;stroke-linecap:round;stroke-linejoin:round;stroke-miterlimit:4;stroke-dasharray:none;stroke-dashoffset:0;stroke-opacity:1;paint-order:stroke fill markers"
       id="rect1373"
       width="40"
       height="40"
       x="4"
       y="4"
       ry="4" />
    <path
       style="fill:#377059;fill-opacity:1;stroke-width:0.25193888;opacity:1"
       d="M 20.183594 10 C 19.767804 9.979772 19.353843 10.232832 18.912109 10.757812 C 18.553375 11.18414 18.257812 11.693407 18.257812 11.890625 C 18.257812 12.339784 18.130141 12.340355 17.431641 11.890625 C 17.124742 11.693036 16.470427 11.457305 15.976562 11.367188 C 14.909026 11.172363 14.580533 11.469643 14.285156 12.900391 C 14.082394 13.882553 14.072608 13.888451 12.705078 14.013672 C 11.4425 14.129287 11.322825 14.194611 11.251953 14.806641 C 11.209493 15.173419 11.353401 15.901985 11.572266 16.425781 C 12.023065 17.504697 11.935318 17.664042 10.701172 17.978516 C 10.159077 18.116656 9.6783521 18.457007 9.4492188 18.865234 C 9.1035349 19.48111 9.1199617 19.574764 9.6699219 20.160156 C 10.294692 20.825199 10.242932 21.572266 9.5742188 21.572266 C 9.0510177 21.572266 9.0612764 23.027269 9.5878906 23.609375 C 9.9531531 24.012985 9.9416881 24.093469 9.4609375 24.574219 C 8.8812328 25.153923 8.784553 25.852908 9.2226562 26.291016 C 9.4353881 26.503746 9.3267794 26.733933 8.7949219 27.191406 C 8.0984217 27.790509 8.0899185 27.819234 8.5078125 28.457031 C 9.0926639 29.349636 9.0629355 29.823543 8.4550781 29.273438 C 8.1893707 29.032982 7.7060144 28.874153 7.3828125 28.919922 C 6.9039918 28.987749 6.7805098 29.177447 6.7167969 29.947266 C 6.6250889 31.055419 6.384513 31.143128 5.9023438 30.242188 C 5.6220035 29.718412 5.4219345 29.620693 4.8730469 29.730469 C 4.2404973 29.856987 4.1781161 29.790033 4.0175781 28.839844 C 4.0088396 28.788124 4.0077434 28.655487 4 28.589844 L 4 34.740234 C 4.0023407 34.743297 4.0034867 34.742965 4.0058594 34.746094 C 4.3199517 35.160208 4.3928307 35.103171 4.9003906 34.054688 C 5.4383368 32.943433 6.1793004 32.110298 5.8378906 33 C 5.7024912 33.352813 5.753153 33.380504 6.1503906 33.167969 C 6.4135975 33.027127 6.8256826 32.717286 7.0644531 32.478516 C 7.3032185 32.239751 7.6819218 32.031193 7.9042969 32.015625 C 8.1266628 32.000075 8.4916254 31.967059 8.7167969 31.943359 C 8.9538201 31.918499 9.1900395 31.583025 9.2773438 31.146484 C 9.3814149 30.626072 9.5680637 30.403372 9.8769531 30.429688 C 10.796875 30.508028 11.148156 30.375902 11.271484 29.904297 C 11.360864 29.562538 11.295093 29.45943 11.046875 29.554688 C 10.803906 29.647938 10.74412 29.563414 10.851562 29.283203 C 10.937252 29.059916 11.162097 28.876953 11.351562 28.876953 C 11.541026 28.876953 11.870945 28.540884 12.083984 28.128906 C 12.427073 27.465418 12.427227 27.395929 12.089844 27.525391 C 11.880368 27.605771 11.707031 27.548054 11.707031 27.394531 C 11.707031 27.241155 11.866463 27.113281 12.058594 27.113281 C 12.252723 27.113286 12.455064 26.785682 12.515625 26.373047 C 12.575565 25.964666 12.533382 25.685723 12.419922 25.755859 C 12.306426 25.825989 12.212891 25.721358 12.212891 25.521484 C 12.212891 25.088142 12.781398 24.911585 14.0625 24.947266 C 14.873773 24.969836 15.024864 24.883588 15.142578 24.341797 C 15.217848 23.995382 15.304142 23.6064 15.335938 23.474609 C 15.383218 23.278636 13.874497 22.326172 13.515625 22.326172 C 13.459485 22.326172 13.466973 22.610616 13.533203 22.957031 C 13.599413 23.303447 13.55672 23.587891 13.4375 23.587891 C 13.318134 23.587891 13.220703 23.263364 13.220703 22.869141 C 13.220703 22.230149 12.578303 21.320313 12.128906 21.320312 C 12.035896 21.320312 11.958984 21.625868 11.958984 22 C 11.958984 22.404519 11.871906 22.581786 11.740234 22.439453 C 11.427608 22.101452 11.118219 20.229447 11.404297 20.40625 C 11.531455 20.48484 11.767627 20.254487 11.931641 19.894531 C 12.095666 19.534555 12.291863 19.299676 12.367188 19.375 C 12.442538 19.45035 12.380842 19.745028 12.228516 20.029297 C 11.994775 20.466067 12.051259 20.611334 12.59375 20.966797 C 12.946835 21.198156 13.267068 21.344423 13.304688 21.291016 C 14.110435 20.146861 14.25967 19.7322 13.939453 19.529297 C 13.75164 19.410301 13.435297 19.310696 13.234375 19.308594 C 12.959311 19.305494 12.938338 19.231568 13.15625 19.013672 C 13.374156 18.795767 13.609355 18.834485 14.109375 19.162109 C 14.687822 19.541113 14.827883 19.549361 15.193359 19.236328 C 15.424129 19.038658 15.840059 18.785619 16.117188 18.673828 C 16.571558 18.490542 16.576126 18.460847 16.175781 18.365234 C 15.931532 18.306914 15.795095 18.158881 15.869141 18.039062 C 15.943181 17.919269 16.347179 17.944597 16.769531 18.091797 C 17.191883 18.239032 17.954934 18.287232 18.464844 18.201172 C 18.974754 18.115122 20.242 17.903837 21.28125 17.730469 C 23.064739 17.432947 23.176706 17.374651 23.251953 16.720703 C 23.299363 16.308693 23.209358 16.029297 23.03125 16.029297 C 22.804964 16.029297 22.808053 15.93736 23.042969 15.654297 C 23.215255 15.44672 23.285547 15.01009 23.201172 14.673828 C 23.034949 14.011566 23.501244 13.661394 24.195312 13.927734 C 24.433231 14.019014 24.879618 13.79883 25.328125 13.369141 C 25.638995 13.071309 25.860568 12.915643 25.974609 12.882812 C 26.164696 12.828112 26.05567 13.11176 25.5625 13.636719 C 25.144766 14.081375 25.10163 14.303829 25.306641 14.912109 C 25.443264 15.317513 25.595149 16.079001 25.644531 16.601562 C 25.740851 17.620814 26.857553 19.049746 27.564453 19.056641 C 27.910575 19.059941 27.912271 19.089726 27.580078 19.302734 C 27.372242 19.436015 27.004207 19.483648 26.761719 19.408203 C 26.262306 19.252807 25.3125 19.494577 25.3125 19.777344 C 25.3125 19.880112 25.455709 20.154853 25.628906 20.386719 C 25.90189 20.752156 26.061808 20.766944 26.826172 20.496094 C 27.311156 20.324236 27.853925 20.089341 28.033203 19.974609 C 28.213923 19.858935 28.495576 19.875722 28.664062 20.013672 C 28.831197 20.150508 30.067915 20.276829 31.414062 20.292969 C 32.760216 20.309109 34.048505 20.392643 34.277344 20.480469 C 34.636061 20.618122 34.652169 20.565616 34.396484 20.087891 C 34.233371 19.783115 33.824318 19.427334 33.486328 19.298828 C 33.148338 19.170329 32.871094 18.971214 32.871094 18.857422 C 32.871094 18.570013 33.85497 18.652528 34.759766 19.015625 C 35.175466 19.18243 35.658823 19.368859 35.832031 19.429688 C 36.00525 19.490517 36.148438 19.660804 36.148438 19.808594 C 36.148438 19.996174 35.99842 20.000391 35.658203 19.818359 C 35.004151 19.468319 34.886719 19.48522 34.886719 19.945312 C 34.886719 20.160249 35.281186 20.502345 35.761719 20.703125 C 36.902918 21.179949 37.169271 21.163292 37 20.626953 C 36.90209 20.316729 37.020743 20.367724 37.400391 20.798828 C 37.697094 21.135795 38.130709 21.566027 38.365234 21.755859 C 38.748281 22.065918 38.731826 22.085581 38.191406 21.935547 C 37.649935 21.785204 37.601655 21.833658 37.714844 22.425781 C 37.784004 22.787596 37.74437 23.083984 37.625 23.083984 C 37.505633 23.083984 37.40625 22.792939 37.40625 22.439453 C 37.40625 21.939407 37.205291 21.713474 36.498047 21.417969 C 35.435231 20.973896 35.309358 21.037733 35.527344 21.90625 C 35.639694 22.353883 35.913924 22.598944 36.423828 22.710938 C 37.314803 22.90663 37.176294 23.316379 36.277344 23.144531 C 35.759486 23.045551 35.642578 23.124344 35.642578 23.558594 C 35.642578 23.851881 35.529159 24.091797 35.390625 24.091797 C 35.252058 24.091797 35.138672 23.817922 35.138672 23.486328 C 35.138672 22.841815 34.7229 22.578125 33.710938 22.578125 C 33.138242 22.578125 33.092698 22.658849 33.199219 23.449219 C 33.364897 24.678637 33.050683 24.827604 32.724609 23.673828 C 32.462687 22.74703 32.402239 22.702424 31.277344 22.628906 C 30.104854 22.552276 30.102951 22.551929 30.353516 23.210938 C 30.661162 24.020107 30.670949 24.341797 30.388672 24.341797 C 30.270142 24.341797 30.067817 23.973777 29.939453 23.523438 C 29.734536 22.804538 29.587977 22.695392 28.736328 22.625 C 27.562306 22.52794 27.176048 22.83012 27.558594 23.544922 C 27.7343 23.87324 27.744026 24.114429 27.587891 24.210938 C 27.452996 24.294287 27.267935 24.064431 27.175781 23.697266 C 27.02431 23.093778 26.923887 23.043237 26.119141 23.173828 C 25.62953 23.253298 25.146525 23.450099 25.046875 23.611328 C 24.944339 23.777238 24.725741 23.818029 24.542969 23.705078 C 24.319861 23.567192 24.264893 23.621315 24.365234 23.882812 C 24.552775 24.371572 23.816338 25.89932 23.451172 25.779297 C 23.29768 25.728827 23.136718 25.143894 23.09375 24.478516 C 23.02771 23.455731 23.079545 23.295174 23.419922 23.425781 C 24.017641 23.655141 24.154751 22.971532 23.664062 22.222656 C 23.388124 21.801526 23.004193 21.569594 22.574219 21.564453 C 21.92702 21.556853 21.924792 21.544694 22.416016 21.171875 C 22.914669 20.793347 22.914332 20.786966 22.291016 20.294922 C 21.787853 19.897727 21.431083 19.828934 20.525391 19.953125 C 19.168179 20.139228 19.102458 20.186922 19.519531 20.689453 C 20.12206 21.415453 19.549072 21.383761 18.919922 20.65625 L 18.296875 19.933594 L 19.669922 19.591797 C 20.793955 19.310599 20.990882 19.182019 20.753906 18.896484 C 20.462309 18.545131 18.881075 18.422431 18.169922 18.695312 C 17.936769 18.784762 17.847561 19.005761 17.943359 19.261719 C 18.084996 19.640071 18.056432 19.64507 17.638672 19.304688 C 16.759468 18.588306 14.857212 19.464637 15.625 20.232422 C 16.277701 20.885124 16.014437 21.175757 15.341797 20.544922 L 14.689453 19.933594 L 14.205078 20.529297 C 13.536601 21.35337 13.599809 21.700862 14.527344 22.361328 C 15.116319 22.780716 15.357588 22.845188 15.4375 22.605469 C 15.787719 21.554807 17.755859 20.034365 17.755859 20.814453 C 17.755859 20.952146 18.223625 21.404512 18.794922 21.818359 L 19.833984 22.570312 L 20.566406 21.556641 C 21.460959 20.321746 21.868055 20.467769 21.646484 21.945312 C 21.514914 22.822755 21.578463 23.127288 21.96875 23.517578 C 22.234551 23.783379 22.597709 24.53113 22.779297 25.179688 C 22.960891 25.828249 23.20203 26.359375 23.3125 26.359375 C 23.422965 26.359375 23.835923 25.963444 24.232422 25.482422 C 24.882972 24.693196 25.044895 24.624792 25.888672 24.761719 C 28.950956 25.258658 23.546445 27.833095 20.066406 27.535156 C 18.808818 27.42749 18.503432 27.459387 18.855469 27.660156 C 19.114203 27.807701 20.158004 27.934841 21.173828 27.941406 C 23.308572 27.955396 23.337023 28.100768 21.513672 29.748047 C 20.460648 30.699392 20.449563 30.702681 18.664062 30.582031 C 16.903181 30.463035 16.888979 30.468691 17.755859 30.832031 C 18.768838 31.256628 21.322425 31.130947 21.929688 30.626953 C 22.236473 30.372354 22.370929 30.403142 22.666016 30.792969 C 23.479186 31.867266 22.992396 32.943264 21.486328 33.396484 C 19.313254 34.050424 17.861862 34.695707 17.123047 35.333984 L 16.369141 35.984375 L 17.082031 35.5625 C 18.416182 34.770517 21.038501 33.916016 22.138672 33.916016 C 23.665445 33.916016 24.797189 34.453688 26.142578 35.818359 C 27.661648 37.359192 28.083984 38.316458 28.083984 40.201172 C 28.083984 41.69835 28.044642 41.790605 26.886719 43.037109 C 26.5665 43.381826 26.205921 43.70318 25.814453 44 L 27.525391 44 C 27.536291 43.999628 27.539472 43.994141 27.550781 43.994141 C 27.5616 43.994141 27.571164 43.999659 27.582031 44 L 30.578125 44 C 31.656787 43.186749 32.43191 42.440786 32.527344 42.060547 C 32.730568 41.250833 34.313835 40.466797 35.744141 40.466797 C 36.910319 40.466795 37.481774 40.860534 36.873047 41.246094 C 36.682105 41.367034 36.22324 41.468731 35.853516 41.470703 C 34.923759 41.476103 34.382812 41.717268 34.382812 42.126953 C 34.382812 42.388309 34.644643 42.438389 35.453125 42.332031 C 36.194807 42.234451 36.678591 42.307303 37.027344 42.568359 C 37.304258 42.775733 37.475314 42.995637 37.40625 43.056641 C 37.130199 43.300452 35.390625 43.443679 35.390625 43.222656 C 35.390625 43.092796 35.296206 42.986328 35.181641 42.986328 C 35.067115 42.986328 35.019794 43.301373 35.076172 43.685547 C 35.092333 43.795649 35.092972 43.898887 35.087891 44 L 36.726562 44 C 36.721771 43.887478 36.789299 43.808908 36.931641 43.71875 C 37.123263 43.597384 37.420542 43.496113 37.59375 43.494141 C 38.032476 43.488741 37.988151 42.849485 37.515625 42.376953 C 37.082631 41.94396 37.230001 41.474609 37.798828 41.474609 C 38.338462 41.474609 38.239095 40.809462 37.611328 40.224609 C 36.947434 39.606097 35.269209 39.549797 33.753906 40.095703 C 33.199641 40.295392 32.72943 40.462873 32.710938 40.464844 C 32.692478 40.466744 32.61707 40.154494 32.541016 39.773438 C 32.438539 39.260151 32.53905 38.974793 32.931641 38.669922 C 33.383281 38.319222 33.471865 37.948439 33.529297 36.158203 C 33.566377 35.002829 33.482457 33.921028 33.34375 33.753906 C 32.93805 33.265066 29.590866 31.748391 28.083984 31.371094 C 27.32187 31.180263 26.082087 30.654833 25.328125 30.203125 C 24.574158 29.751415 23.810265 29.380859 23.628906 29.380859 C 23.103017 29.380859 23.244321 28.509081 23.863281 27.945312 C 24.533071 27.335252 25.368471 26.883498 26.337891 26.605469 C 26.881731 26.449489 27.136837 26.513472 27.474609 26.886719 C 27.900611 27.357448 27.922368 27.348937 28.382812 26.591797 C 28.934134 25.685228 29.228321 25.71845 29.804688 26.744141 C 30.036226 27.156193 30.25191 27.535451 30.283203 27.589844 C 30.436248 27.855861 31.132563 26.958487 31.3125 26.263672 C 31.50383 25.524856 31.607761 25.464774 33.011719 25.287109 C 34.566782 25.090307 34.695447 25.146047 35.384766 26.345703 C 35.682604 26.864051 36.315442 26.29986 36.529297 25.326172 C 36.652841 24.763782 36.980074 24.434243 37.867188 23.984375 C 40.217883 22.792304 40.389601 22.026727 38.654297 20.458984 C 38.105949 19.963585 37.658203 19.393624 37.658203 19.195312 C 37.658203 18.49857 36.881835 18.025158 35.804688 18.064453 C 34.785022 18.101633 32.389827 17.738396 31.589844 17.423828 C 31.366584 17.336028 31.04537 17.437493 30.865234 17.654297 C 30.42899 18.179935 29.939282 18.143031 29.066406 17.521484 C 28.538844 17.145828 28.335938 16.791586 28.335938 16.25 C 28.335938 15.836858 28.16159 15.162637 27.949219 14.751953 C 27.670836 14.213634 27.612273 13.655701 27.732422 12.75 C 27.886458 11.588954 27.857916 11.494141 27.369141 11.494141 C 27.078264 11.494141 26.214149 11.780983 25.449219 12.130859 L 24.058594 12.767578 L 23.111328 12.273438 C 22.590439 12.002762 21.84595 11.377762 21.458984 10.882812 C 21.014642 10.31448 20.599384 10.020348 20.183594 10 z M 20.470703 10.871094 C 20.506793 10.870508 20.525391 10.888524 20.525391 10.927734 C 20.525391 11.084045 20.423456 11.276496 20.298828 11.353516 C 20.174215 11.430536 19.823964 11.917432 19.517578 12.4375 C 19.022695 13.277525 19.015199 13.335039 19.449219 12.943359 C 19.717926 12.70088 20.047219 12.501953 20.183594 12.501953 C 20.678743 12.501953 21.745477 13.91446 22.138672 15.091797 C 22.710985 16.805469 22.670828 17.037109 21.787109 17.037109 C 21.141588 17.037109 21.029297 16.940911 21.029297 16.382812 C 21.029297 15.941261 20.865876 15.688655 20.525391 15.599609 C 20.248259 15.527139 20.023438 15.303382 20.023438 15.103516 C 20.023438 14.903624 19.902066 14.814693 19.753906 14.90625 C 19.605778 14.9978 19.517183 15.539828 19.558594 16.113281 C 19.618144 16.938183 19.544058 17.175797 19.199219 17.242188 C 18.823002 17.314657 18.759103 17.089572 18.730469 15.605469 C 18.703129 14.188785 18.662716 14.042851 18.509766 14.769531 L 18.324219 15.650391 L 18.300781 14.769531 C 18.287371 14.284548 18.428832 13.616057 18.613281 13.283203 C 18.797732 12.950351 18.889605 12.439131 18.818359 12.148438 C 18.747089 11.857745 18.781714 11.706637 18.896484 11.8125 C 19.011263 11.918358 19.425738 11.698505 19.816406 11.324219 C 20.109404 11.043513 20.362494 10.872855 20.470703 10.871094 z M 15.820312 12.015625 C 16.192808 11.973915 16.625957 12.04926 17.015625 12.257812 C 17.704719 12.626603 17.621454 12.919071 16.777344 13.087891 C 16.37781 13.167781 15.753205 13.307439 15.390625 13.398438 C 14.670353 13.579196 14.551902 13.307056 14.992188 12.484375 C 15.135749 12.216134 15.447816 12.057328 15.820312 12.015625 z M 16.826172 13.777344 L 17.376953 13.794922 L 16.810547 14.068359 C 16.498771 14.21872 16.242188 14.434358 16.242188 14.546875 C 16.242188 14.845706 17.072333 15.223429 17.439453 15.091797 C 17.63579 15.021407 17.702006 15.121111 17.611328 15.357422 C 17.531278 15.566028 17.604206 16.001618 17.773438 16.324219 C 18.079543 16.907172 18.076694 16.909566 17.544922 16.4375 C 17.017927 15.969677 16.997975 15.971068 16.140625 16.625 C 15.661872 16.990162 15.23334 17.280238 15.189453 17.271484 C 15.145543 17.262684 14.852943 17.154671 14.541016 17.029297 C 14.229085 16.903925 13.792172 16.871165 13.568359 16.957031 C 12.98686 17.180164 13.454825 16.371703 14.458984 15.416016 C 14.886611 15.009037 15.236328 14.51316 15.236328 14.316406 C 15.236328 14.105419 15.387321 14.017867 15.605469 14.101562 C 15.808873 14.179612 16.043098 14.134463 16.125 14.001953 C 16.20688 13.869431 16.522577 13.767915 16.826172 13.777344 z M 24.044922 14.265625 C 23.694295 14.265625 23.548828 14.437127 23.548828 14.853516 C 23.548828 15.176836 23.626394 15.517003 23.71875 15.609375 C 23.990876 15.881498 25.060547 15.80225 25.060547 15.509766 C 25.060547 14.933708 24.516017 14.265625 24.044922 14.265625 z M 13.4375 14.523438 C 13.78088 14.518038 13.705654 14.63291 13.40625 15.089844 C 13.185908 15.426119 12.969128 16.087635 12.923828 16.558594 L 12.839844 17.416016 L 12.384766 16.578125 C 11.70683 15.334246 11.895388 14.660862 12.947266 14.560547 C 13.16156 14.540047 13.323039 14.525198 13.4375 14.523438 z M 26.882812 14.632812 C 26.997514 14.611282 27.120255 14.706975 27.333984 14.900391 C 27.93988 15.448723 28.279887 17.767471 27.798828 18.072266 C 27.374027 18.341417 26.833981 18.360114 26.802734 18.107422 C 26.790104 18.003487 26.799859 17.420703 26.824219 16.8125 C 26.861099 15.896851 26.799156 15.732568 26.46875 15.859375 C 25.960452 16.05442 25.961286 15.7903 26.472656 15.060547 C 26.661091 14.7915 26.76813 14.654376 26.882812 14.632812 z M 15.744141 14.912109 C 15.577879 14.953759 15.364442 15.118091 14.994141 15.429688 C 14.225558 16.076403 14.202399 16.14073 14.626953 16.451172 C 15.237004 16.897249 15.307142 16.883751 15.996094 16.150391 C 16.533657 15.578183 16.55519 15.477062 16.205078 15.126953 C 16.030032 14.95187 15.910418 14.870469 15.744141 14.912109 z M 24.164062 16.099609 C 23.738204 16.097309 23.548828 16.317213 23.548828 16.783203 C 23.548828 17.071844 23.768217 17.294483 24.115234 17.361328 C 25.207907 17.571778 25.3125 17.537721 25.3125 16.939453 C 25.3125 16.503964 25.135488 16.290187 24.671875 16.173828 C 24.475842 16.124638 24.306018 16.100449 24.164062 16.099609 z M 23.927734 17.716797 L 24.539062 18.386719 C 24.927045 18.810525 25.413247 19.052734 25.871094 19.052734 C 26.513789 19.052734 26.562722 18.998102 26.322266 18.548828 C 26.173943 18.271693 25.858709 18.042876 25.621094 18.041016 C 25.383482 18.039216 24.905013 17.964863 24.558594 17.876953 L 23.927734 17.716797 z M 22.125 18.042969 C 20.666106 18.042969 20.461094 18.263788 21.345703 18.880859 C 22.001637 19.338415 22.092701 19.351255 23.367188 19.140625 C 24.278281 18.990067 24.302867 18.962733 23.896484 18.513672 C 23.582806 18.167062 23.118902 18.042969 22.125 18.042969 z M 11.582031 18.191406 C 11.724582 18.198706 11.864022 18.227144 11.994141 18.277344 C 12.269414 18.383552 12.084604 18.640076 11.302734 19.226562 C 10.388305 19.912475 10.187509 19.975116 9.9277344 19.662109 C 9.4148982 19.044171 10.584224 18.13855 11.582031 18.191406 z M 22.203125 19.556641 L 22.792969 20.185547 C 23.224147 20.644513 23.647266 20.816406 24.349609 20.816406 C 25.398059 20.816406 25.440933 20.77029 25.052734 20.044922 C 24.846819 19.660175 24.51832 19.556641 23.496094 19.556641 L 22.203125 19.556641 z M 28.886719 20.564453 L 29.535156 21.304688 C 30.059854 21.902636 30.37153 22.036922 31.150391 22.005859 C 32.168029 21.965279 32.312977 21.727524 31.763672 21.003906 C 31.522653 20.686404 31.074338 20.564453 30.158203 20.564453 L 28.886719 20.564453 z M 27.626953 20.580078 C 27.370739 20.585801 27.101309 20.66758 26.808594 20.824219 C 26.351883 21.068644 26.34615 21.124508 26.726562 21.705078 C 27.084685 22.25164 27.25578 22.304816 28.175781 22.164062 C 28.749291 22.076313 29.265933 21.964614 29.324219 21.914062 C 29.382519 21.863492 29.162793 21.537277 28.837891 21.191406 C 28.521337 20.85445 28.209984 20.659599 27.878906 20.599609 C 27.796138 20.584609 27.712358 20.57817 27.626953 20.580078 z M 32.185547 20.689453 L 32.574219 21.28125 C 32.787822 21.606699 33.195546 21.969832 33.482422 22.085938 C 34.403304 22.458648 35.212751 22.377224 35.041016 21.929688 C 34.956896 21.7105 34.886719 21.379002 34.886719 21.195312 C 34.886719 20.970205 34.445609 20.833557 33.535156 20.775391 L 32.185547 20.689453 z M 24.679688 21.257812 C 24.520889 21.248812 24.385402 21.269062 24.292969 21.326172 C 24.003775 21.504949 24.005046 21.640681 24.296875 22.185547 C 24.660283 22.864576 25.590333 23.048775 26.322266 22.585938 C 26.658184 22.373515 26.658184 22.308544 26.322266 22.005859 C 25.855887 21.585618 25.156054 21.285127 24.679688 21.257812 z M 10.109375 21.886719 C 10.287315 21.852809 10.49732 22.023727 10.84375 22.453125 C 11.179134 22.868825 11.454324 23.407898 11.455078 23.650391 C 11.45577 23.892872 11.429191 24.08103 11.394531 24.068359 C 10.203597 23.632831 9.4112852 22.501502 9.9375 21.986328 C 9.993509 21.931478 10.050061 21.898003 10.109375 21.886719 z M 11.251953 24.591797 C 11.53509 24.619097 11.69984 24.758398 11.609375 24.994141 C 11.525255 25.213329 11.455078 25.778308 11.455078 26.251953 C 11.455078 27.279174 11.298344 27.302475 10.384766 26.404297 C 9.5667325 25.600053 9.5155604 25.210906 10.179688 24.855469 C 10.566783 24.648299 10.968815 24.564513 11.251953 24.591797 z M 27.935547 24.59375 C 28.518283 24.59375 28.663673 25.063762 28.330078 25.869141 C 27.954634 26.775536 27.640933 26.814367 27.431641 25.980469 C 27.233768 25.192062 27.451211 24.593752 27.935547 24.59375 z M 35.953125 24.628906 C 36.100172 24.672908 36.148438 24.896439 36.148438 25.335938 C 36.148438 26.323031 35.799547 26.489089 35.378906 25.703125 C 35.087878 25.159337 35.089928 25.031578 35.402344 24.833984 C 35.551852 24.739394 35.673685 24.674353 35.771484 24.642578 C 35.844834 24.618761 35.904109 24.614239 35.953125 24.628906 z M 29.390625 25.097656 L 30.363281 25.097656 L 31.332031 25.097656 L 31.060547 25.916016 C 30.629639 27.207383 30.428958 27.246912 29.892578 26.136719 L 29.390625 25.097656 z M 14.472656 25.34375 C 14.407946 25.36398 14.33016 25.439662 14.242188 25.582031 C 14.063099 25.871828 14.05962 26.3125 14.230469 26.861328 C 14.251999 26.930618 14.385296 26.669024 14.527344 26.279297 C 14.734182 25.711874 14.666811 25.282948 14.472656 25.34375 z M 13.414062 25.408203 C 13.251164 25.432033 13.071726 25.697084 13.013672 26.1875 C 12.957172 26.664741 13.050389 26.861328 13.330078 26.861328 C 13.602978 26.861328 13.722656 26.623119 13.722656 26.085938 C 13.722656 25.603987 13.576937 25.384465 13.414062 25.408203 z M 10.166016 27.351562 L 10.167969 27.351562 C 10.857773 27.373352 11.088674 27.932358 10.564453 28.732422 C 10.044247 29.526359 9.9376792 29.528229 9.3789062 28.759766 C 8.8335885 28.009864 8.8229737 27.716377 9.3359375 27.519531 C 9.656394 27.39655 9.9360864 27.344294 10.166016 27.351562 z M 13.607422 27.365234 C 13.025438 27.365234 12.464844 27.976179 12.464844 28.609375 C 12.464844 29.178203 13.642502 28.879496 13.935547 28.236328 C 14.326133 27.379089 14.321812 27.365234 13.607422 27.365234 z M 12.748047 29.128906 C 12.245144 29.128906 11.962077 29.305175 11.765625 29.736328 C 11.52043 30.274467 11.555595 30.359076 12.09375 30.494141 C 12.427356 30.577891 12.819663 30.865191 12.962891 31.132812 C 13.209803 31.594199 13.18739 31.601102 12.529297 31.257812 C 11.582145 30.763738 11.455078 30.795474 11.455078 31.523438 C 11.455078 31.869853 11.34366 32.152344 11.205078 32.152344 C 11.066491 32.152344 10.953125 31.869852 10.953125 31.523438 C 10.953125 30.602103 9.9778336 30.740716 9.6191406 31.712891 C 9.5127762 32.001203 9.5802652 32.152344 9.8125 32.152344 C 10.007829 32.152344 10.24658 32.282962 10.345703 32.443359 C 10.469869 32.644259 10.355233 32.692345 9.9707031 32.591797 C 9.4881164 32.46563 9.4229526 32.533995 9.4902344 33.101562 C 9.5461814 33.573659 9.7595741 33.809228 10.257812 33.941406 C 10.773556 34.078244 10.953125 34.034632 10.953125 33.769531 C 10.953125 33.573658 11.066542 33.412109 11.205078 33.412109 C 11.343644 33.412109 11.455078 33.638896 11.455078 33.916016 C 11.455078 34.193149 11.608557 34.419922 11.794922 34.419922 C 12.138323 34.419922 12.968789 35.196542 12.96875 35.517578 C 12.96875 35.613798 12.68082 35.503082 12.330078 35.273438 C 11.578047 34.780687 11.595493 34.766955 11.263672 36.056641 L 11.003906 37.066406 L 10.978516 35.910156 C 10.956516 34.928131 10.855526 34.709249 10.310547 34.460938 C 9.9576106 34.300118 9.3608623 34.15938 8.9863281 34.148438 C 8.6117367 34.137363 8.4478833 34.071837 8.6210938 34.001953 C 8.9032393 33.888107 9.0936611 32.404297 8.8261719 32.404297 C 8.7658869 32.404297 8.427702 32.515251 8.0722656 32.650391 C 7.5533325 32.847698 7.4257812 33.065602 7.4257812 33.753906 C 7.4257812 34.247525 7.2475895 34.757907 7.0058594 34.957031 C 6.6240352 35.271541 6.5983214 35.218833 6.734375 34.373047 C 6.8622917 33.577904 6.8242827 33.464777 6.4628906 33.589844 C 5.8495215 33.802116 5.4101563 34.430116 5.4101562 35.097656 C 5.4101562 35.715836 5.0269503 35.892769 4.8300781 35.365234 C 4.7654351 35.192016 4.4758274 35.560033 4.1855469 36.183594 L 4 36.582031 L 4 39.230469 C 4.1567661 39.01679 4.3499598 38.856679 4.5566406 38.820312 C 4.7165265 38.792192 4.8804416 38.829426 5.0273438 38.951172 C 5.2377946 39.125829 5.4101562 39.415452 5.4101562 39.595703 C 5.4101562 39.775956 5.693698 40.261434 6.0390625 40.671875 L 6.6660156 41.417969 L 6.0996094 41.568359 C 5.3390765 41.772189 4.6770688 41.662647 4.2382812 41.322266 C 4.4008151 41.78685 4.6460555 42.206579 4.9570312 42.574219 C 5.1891458 42.58551 5.4327655 42.595886 5.7167969 42.578125 C 6.76687 42.512475 6.883535 42.53918 6.2695312 42.701172 C 5.8444474 42.813306 5.5799429 42.909208 5.3828125 43.005859 C 5.7365977 43.31385 6.1383719 43.563608 6.5859375 43.732422 C 7.1515748 43.430639 7.3753732 43.533933 7.0703125 43.882812 C 7.3695611 43.953817 7.6784254 44 8 44 L 9.7695312 44 C 9.7483929 43.893342 9.8065941 43.782739 9.9375 43.625 C 10.136503 43.385235 10.158693 43.238281 9.9921875 43.238281 C 9.8448178 43.238281 9.6520501 43.351683 9.5664062 43.490234 C 9.3375577 43.860543 8.1816406 43.798811 8.1816406 43.416016 C 8.1816406 42.781129 8.9897738 42.443836 9.9921875 42.482422 L 9.9921875 42.484375 C 10.593637 42.507445 11.265894 42.664739 11.875 42.972656 C 12.407718 43.241969 13.365326 43.680736 14.003906 43.949219 C 14.03925 43.964079 14.070664 43.984337 14.105469 44 L 16.75 44 C 16.749855 43.981478 16.746094 43.967993 16.746094 43.949219 C 16.746094 42.303594 15.945708 40.322665 14.810547 39.160156 C 14.019172 38.349712 13.87886 38.043614 13.931641 37.251953 C 13.966221 36.733571 13.883922 35.74361 13.75 35.050781 C 13.600123 34.275379 13.598228 33.698107 13.742188 33.550781 C 14.098773 33.185996 14.021078 31.743001 13.589844 30.710938 C 13.377652 30.203087 13.260805 29.639519 13.330078 29.458984 C 13.415158 29.23731 13.225809 29.128906 12.748047 29.128906 z M 7.5410156 29.380859 C 7.976199 29.380859 8.7682452 30.30658 8.5859375 30.601562 C 8.5033225 30.735212 8.0936873 30.96242 7.6777344 31.107422 C 6.9761201 31.352004 6.9199219 31.32845 6.9199219 30.775391 C 6.9199219 29.944602 7.1726303 29.380859 7.5410156 29.380859 z M 5.3222656 30.392578 C 5.5182386 30.410268 5.7098641 30.614597 5.8183594 31.046875 C 5.9275028 31.481719 5.8657981 31.777506 5.6347656 31.923828 C 5.0599453 32.287786 4.6523437 32.183415 4.6523438 31.669922 C 4.6523438 30.852527 4.9956601 30.3633 5.3222656 30.392578 z M 24.902344 30.71875 C 24.939504 30.71235 24.969144 30.717241 24.990234 30.738281 C 25.056944 30.804991 24.875061 31.115311 24.583984 31.427734 C 24.292918 31.740161 24.054688 31.869642 24.054688 31.714844 C 24.054688 31.413717 24.642305 30.763717 24.902344 30.71875 z M 26.113281 31.6875 C 26.156731 31.6811 26.193518 31.689354 26.21875 31.714844 C 26.319745 31.815839 26.209242 32.109994 25.974609 32.369141 C 25.571042 32.815075 25.581443 32.861656 26.15625 33.238281 C 26.727584 33.612635 26.795776 33.601189 27.318359 33.044922 C 27.849707 32.479325 27.855918 32.441554 27.414062 32.162109 C 27.018715 31.912094 27.054546 31.892286 27.669922 32.023438 C 28.065414 32.107748 28.681989 32.368274 29.041016 32.603516 C 29.400047 32.838771 29.915271 32.992719 30.183594 32.947266 C 30.532652 32.888126 30.373648 33.147011 29.628906 33.855469 C 28.210948 35.204339 28.213788 35.215897 30.289062 36.845703 C 30.739404 37.19938 31.109375 37.592504 31.109375 37.71875 C 31.109375 37.98424 31.049066 37.980242 29.785156 37.644531 C 29.179507 37.483654 28.838453 37.245106 28.835938 36.978516 C 28.834038 36.749796 28.720438 36.391444 28.583984 36.183594 C 28.363463 35.847676 28.308409 35.847676 28.087891 36.183594 C 27.889131 36.486387 27.838988 36.441873 27.835938 35.953125 C 27.831038 35.170946 27.148719 34.406748 26.630859 34.605469 C 26.337227 34.71815 26.276249 34.650059 26.394531 34.341797 C 26.579274 33.860333 25.739626 33.292355 25.167969 33.511719 C 24.970946 33.587339 24.810547 33.522822 24.810547 33.369141 C 24.810547 33.215551 24.609674 32.929238 24.367188 32.730469 C 23.962463 32.398717 23.980408 32.380092 24.558594 32.507812 C 25.018723 32.609471 25.301826 32.497254 25.611328 32.089844 C 25.786081 31.859844 25.982886 31.70659 26.113281 31.6875 z M 28.541016 32.980469 C 28.276816 32.978969 28.025053 33.107759 27.755859 33.376953 C 27.245448 33.887357 27.245194 33.909605 27.707031 34.419922 L 28.177734 34.941406 L 28.751953 34.240234 C 29.468037 33.365365 29.474197 33.236023 28.810547 33.025391 C 28.718697 32.996251 28.629087 32.980979 28.541016 32.980469 z M 31.392578 33.638672 C 31.797935 33.661232 32.25087 33.820746 32.638672 34.134766 L 33.216797 34.601562 L 32.712891 35.396484 C 32.169674 36.254438 31.863281 36.203599 31.863281 35.251953 C 31.863279 34.740063 31.793048 34.692291 31.375 34.916016 C 30.640103 35.309321 30.422509 35.236242 30.292969 34.558594 C 30.174614 33.939404 30.716985 33.601112 31.392578 33.638672 z M 8.875 35.228516 C 9.2632802 35.201136 9.6238779 35.44111 9.8730469 35.933594 C 10.259135 36.696707 10.291467 38.307609 9.9355469 38.972656 C 9.618393 39.565258 9.1875 39.609547 9.1875 39.050781 C 9.1875 38.826571 8.8492936 38.254704 8.4335938 37.78125 C 7.556922 36.782774 7.4828444 36.185038 8.1621094 35.570312 C 8.3981059 35.356735 8.6420315 35.244951 8.875 35.228516 z M 30.306641 35.386719 L 30.896484 35.46875 C 31.220704 35.51467 31.598004 35.808327 31.734375 36.119141 C 31.902599 36.502564 32.125888 36.638764 32.427734 36.542969 C 32.894931 36.394686 32.972611 36.664102 32.726562 37.580078 C 32.650262 37.864078 32.367843 38.23678 32.099609 38.404297 C 31.673542 38.670376 31.613281 38.637916 31.613281 38.160156 C 31.613281 37.859381 31.317847 37.112348 30.958984 36.5 L 30.306641 35.386719 z M 6.5957031 36 C 6.7600784 36.0073 6.8569542 36.077682 6.9433594 36.216797 C 7.1944236 36.621076 7.6777344 38.763903 7.6777344 39.472656 C 7.6777344 40.565008 5.8007611 39.571434 5.1601562 38.140625 C 4.5922891 36.872251 4.7064322 36.540075 5.8398438 36.166016 C 6.1992186 36.047409 6.4313216 35.992402 6.5957031 36 z M 11.683594 37.697266 C 12.943416 37.697266 13.298863 38.592186 12.583984 39.974609 C 12.094492 40.921202 11.792252 40.916112 11.582031 39.958984 C 11.490431 39.541862 11.254724 39.04183 11.058594 38.845703 C 10.543212 38.33032 10.887532 37.697265 11.683594 37.697266 z M 29.125 38.470703 C 29.58764 38.494303 30.397173 38.821528 30.353516 38.966797 C 30.221071 39.407466 30.75261 39.964844 31.304688 39.964844 L 31.953125 39.964844 L 31.402344 40.544922 C 31.092438 40.874807 30.855469 41.455326 30.855469 41.880859 C 30.855469 42.294553 30.719016 42.77122 30.552734 42.9375 C 30.189913 43.300317 28.335938 43.344321 28.335938 42.990234 C 28.335938 42.8533 28.534853 42.757 28.777344 42.777344 C 30.128966 42.890607 30.351563 42.758832 30.351562 41.847656 C 30.351562 41.012563 30.312753 40.970033 29.660156 41.109375 C 28.996958 41.250974 28.988896 41.239507 29.457031 40.861328 C 29.726006 40.644038 30.041246 40.466797 30.158203 40.466797 C 30.275159 40.466793 30.240284 40.227551 30.083984 39.935547 C 29.876199 39.547277 29.727464 39.479585 29.523438 39.683594 C 29.103247 40.103826 28.733532 40.019973 29.09375 39.585938 C 29.34397 39.284439 29.34397 39.131576 29.09375 38.830078 C 28.840765 38.525231 28.84607 38.456412 29.125 38.470703 z M 14.074219 40.320312 C 14.617275 40.271592 14.93887 40.33727 14.851562 40.478516 C 14.769782 40.610845 14.491781 40.71875 14.234375 40.71875 C 13.661783 40.71875 13.461269 41.194695 13.775391 41.804688 C 13.904221 42.054854 13.956809 42.393069 13.892578 42.558594 C 13.828348 42.724117 13.638795 42.491374 13.472656 42.041016 C 13.306512 41.590677 13.061587 41.222656 12.929688 41.222656 C 12.782239 41.222656 12.779024 41.064278 12.919922 40.8125 C 13.049315 40.581269 13.552019 40.367167 14.074219 40.320312 z M 15.558594 42.242188 C 15.804661 42.242188 15.9666 42.321579 15.867188 42.482422 C 15.781538 42.621008 15.40413 42.734394 15.03125 42.732422 C 14.500978 42.729322 14.436839 42.673461 14.732422 42.482422 C 14.981308 42.321584 15.312531 42.242188 15.558594 42.242188 z "
       id="path829" />
    <path
       style="opacity:0.25;vector-effect:none;fill:#000000;fill-opacity:1;fill-rule:evenodd;stroke:none;stroke-width:4;stroke-linecap:round;stroke-linejoin:round;stroke-miterlimit:4;stroke-dasharray:none;stroke-dashoffset:0;stroke-opacity:1;paint-order:stroke fill markers"
       d="M 8 4 C 5.784 4 4 5.784 4 8 L 4 40 C 4 42.216 5.784 44 8 44 L 40 44 C 42.216 44 44 42.216 44 40 L 44 8 C 44 5.784 42.216 4 40 4 L 8 4 z M 8 5 L 40 5 C 41.662 5 43 6.338 43 8 L 43 40 C 43 41.662 41.662 43 40 43 L 8 43 C 6.338 43 5 41.662 5 40 L 5 8 C 5 6.338 6.338 5 8 5 z "
       id="rect826" />
  </g>
</svg>
