<?xml version="1.0" encoding="UTF-8" standalone="no"?>
<!-- Created with Inkscape (http://www.inkscape.org/) -->

<svg
   xmlns:dc="http://purl.org/dc/elements/1.1/"
   xmlns:cc="http://creativecommons.org/ns#"
   xmlns:rdf="http://www.w3.org/1999/02/22-rdf-syntax-ns#"
   xmlns:svg="http://www.w3.org/2000/svg"
   xmlns="http://www.w3.org/2000/svg"
   xmlns:sodipodi="http://sodipodi.sourceforge.net/DTD/sodipodi-0.dtd"
   xmlns:inkscape="http://www.inkscape.org/namespaces/inkscape"
   width="48px"
   height="48px"
   viewBox="0 0 48 48"
   version="1.1"
   id="SVGRoot"
   inkscape:version="0.92.4 (5da689c313, 2019-01-14)"
   sodipodi:docname="desktop-effects.svg">
  <defs
     id="defs815" />
  <sodipodi:namedview
     id="base"
     pagecolor="#ffffff"
     bordercolor="#666666"
     borderopacity="1.0"
     inkscape:pageopacity="0.0"
     inkscape:pageshadow="2"
     inkscape:zoom="16.082808"
     inkscape:cx="26.143689"
     inkscape:cy="23.557957"
     inkscape:document-units="px"
     inkscape:current-layer="layer1"
     showgrid="true"
     inkscape:window-width="1920"
     inkscape:window-height="1017"
     inkscape:window-x="-8"
     inkscape:window-y="-8"
     inkscape:window-maximized="1"
     inkscape:grid-bbox="true"
     inkscape:snap-global="true">
    <inkscape:grid
       type="xygrid"
       id="grid1371" />
  </sodipodi:namedview>
  <metadata
     id="metadata818">
    <rdf:RDF>
      <cc:Work
         rdf:about="">
        <dc:format>image/svg+xml</dc:format>
        <dc:type
           rdf:resource="http://purl.org/dc/dcmitype/StillImage" />
        <dc:title />
      </cc:Work>
    </rdf:RDF>
  </metadata>
  <g
     inkscape:label="Layer 1"
     inkscape:groupmode="layer"
     id="layer1">
    <rect
       style="opacity:1;vector-effect:none;fill:#729dec;fill-opacity:1;fill-rule:evenodd;stroke:none;stroke-width:4;stroke-linecap:round;stroke-linejoin:round;stroke-miterlimit:4;stroke-dasharray:none;stroke-dashoffset:0;stroke-opacity:1;paint-order:stroke fill markers"
       id="rect1373"
       width="40"
       height="40"
       x="4"
       y="4"
       ry="4" />
    <path
       style="fill:#ffffff;stroke:none;stroke-width:1px;stroke-linecap:butt;stroke-linejoin:miter;stroke-opacity:1;opacity:0.4"
       d="M 43 7 C 43 7 13.287187 8 9 24 C 4.6000762 40.420739 20 44 20 44 L 40 44 C 40.525295 44 41.023685 43.893418 41.482422 43.710938 C 38.987387 42.317394 25.191798 34.293368 25 27 C 24.579239 11 43 7 43 7 z "
       id="path856" />
    <path
       style="opacity:0.25;vector-effect:none;fill:#000000;fill-opacity:1;fill-rule:evenodd;stroke:none;stroke-width:4;stroke-linecap:round;stroke-linejoin:round;stroke-miterlimit:4;stroke-dasharray:none;stroke-dashoffset:0;stroke-opacity:1;paint-order:stroke fill markers"
       d="M 8 4 C 5.784 4 4 5.784 4 8 L 4 40 C 4 42.216 5.784 44 8 44 L 40 44 C 42.216 44 44 42.216 44 40 L 44 8 C 44 5.784 42.216 4 40 4 L 8 4 z M 8 5 L 40 5 C 41.662 5 43 6.338 43 8 L 43 40 C 43 41.662 41.662 43 40 43 L 8 43 C 6.338 43 5 41.662 5 40 L 5 8 C 5 6.338 6.338 5 8 5 z "
       id="rect826" />
    <path
       style="fill:#000000;stroke:none;stroke-width:1px;stroke-linecap:butt;stroke-linejoin:miter;stroke-opacity:1;opacity:0.25"
       d="M 44 11 L 34.294922 44 L 40 44 C 42.216 44 44 42.216 44 40 L 44 11 z "
       id="path823" />
    <rect
       style="opacity:1;vector-effect:none;fill:#4e4e4e;fill-opacity:1;fill-rule:evenodd;stroke:none;stroke-width:2;stroke-linecap:round;stroke-linejoin:round;stroke-miterlimit:4;stroke-dasharray:none;stroke-opacity:1;paint-order:stroke fill markers"
       id="rect828"
       width="4"
       height="38"
       x="42.733456"
       y="-3.5430293"
       ry="1"
       transform="rotate(15.11418)" />
    <path
       style="opacity:1;vector-effect:none;fill:#efefef;fill-opacity:1;fill-rule:evenodd;stroke:none;stroke-width:2;stroke-linecap:round;stroke-linejoin:round;stroke-miterlimit:4;stroke-dasharray:none;stroke-opacity:1;paint-order:stroke fill markers"
       d="m 43.405198,7.017334 c -0.534837,-0.1444518 -1.0817,0.1698286 -1.226152,0.7046647 l -1.303717,4.8270403 -0.521487,1.930817 3.861632,1.042973 0.521487,-1.930815 1.303718,-4.8270415 C 46.18513,8.2301364 45.87085,7.6832728 45.336014,7.5388209 Z"
       id="rect830"
       inkscape:connector-curvature="0" />
    <path
       inkscape:connector-curvature="0"
       style="opacity:1;vector-effect:none;fill:#efefef;fill-opacity:1;fill-rule:evenodd;stroke:none;stroke-width:2;stroke-linecap:round;stroke-linejoin:round;stroke-miterlimit:4;stroke-dasharray:none;stroke-opacity:1;paint-order:stroke fill markers"
       d="m 32.97546,45.633659 c -0.534836,-0.144451 -0.849116,-0.691315 -0.704665,-1.226151 l 1.303718,-4.827042 0.521487,-1.930815 3.861632,1.042973 -0.521487,1.930817 -1.303717,4.827041 c -0.144452,0.534836 -0.691315,0.849116 -1.226152,0.704664 z"
       id="rect830-6" />
    <path
       style="opacity:0.25;vector-effect:none;fill:#000000;fill-opacity:1;fill-rule:evenodd;stroke:none;stroke-width:2;stroke-linecap:round;stroke-linejoin:round;stroke-miterlimit:4;stroke-dasharray:none;stroke-opacity:1;paint-order:stroke fill markers"
       d="m 43.405198,7.017334 c -0.534837,-0.1444518 -1.0817,0.1698286 -1.226152,0.7046647 L 32.270795,44.407508 c -0.144451,0.534836 0.169829,1.0817 0.704665,1.226151 l 1.930816,0.521487 c 0.534837,0.144452 1.0817,-0.169828 1.226152,-0.704664 L 46.040679,8.7649725 C 46.18513,8.2301364 45.87085,7.6832728 45.336014,7.5388209 Z m 0.22196,1.0957799 0.965409,0.2607434 c 0.267417,0.072226 0.424558,0.3456578 0.352332,0.6130759 L 35.297391,44.707034 c -0.07222,0.267418 -0.345657,0.424558 -0.613075,0.352332 L 33.718907,44.798623 C 33.45149,44.7264 33.294349,44.452965 33.366575,44.185547 L 43.014083,8.4654463 C 43.086306,8.1980282 43.35974,8.040888 43.627158,8.1131139 Z"
       id="rect850"
       inkscape:connector-curvature="0" />
    <path
       style="color:#000000;font-style:normal;font-variant:normal;font-weight:normal;font-stretch:normal;font-size:medium;line-height:normal;font-family:sans-serif;font-variant-ligatures:normal;font-variant-position:normal;font-variant-caps:normal;font-variant-numeric:normal;font-variant-alternates:normal;font-feature-settings:normal;text-indent:0;text-align:start;text-decoration:none;text-decoration-line:none;text-decoration-style:solid;text-decoration-color:#000000;letter-spacing:normal;word-spacing:normal;text-transform:none;writing-mode:lr-tb;direction:ltr;text-orientation:mixed;dominant-baseline:auto;baseline-shift:baseline;text-anchor:start;white-space:normal;shape-padding:0;clip-rule:nonzero;display:inline;overflow:visible;visibility:visible;opacity:1;isolation:auto;mix-blend-mode:normal;color-interpolation:sRGB;color-interpolation-filters:linearRGB;solid-color:#000000;solid-opacity:1;vector-effect:none;fill:#ffdd75;fill-opacity:1;fill-rule:nonzero;stroke:none;stroke-width:1.70686901;stroke-linecap:round;stroke-linejoin:round;stroke-miterlimit:4;stroke-dasharray:none;stroke-dashoffset:0;stroke-opacity:1;color-rendering:auto;image-rendering:auto;shape-rendering:auto;text-rendering:auto;enable-background:accumulate"
       d="m 24.984375,25.990234 c -0.324542,-0.0018 -0.622019,0.18063 -0.767578,0.470704 l -1.580078,3.160156 -3.160157,1.580078 c -0.62718,0.31506 -0.62718,1.21033 0,1.52539 l 3.160157,1.580079 1.580078,3.160156 c 0.315059,0.627181 1.210332,0.627181 1.525391,0 l 1.580078,-3.160156 3.160156,-1.580079 c 0.62718,-0.31506 0.62718,-1.21033 0,-1.52539 L 27.322266,29.621094 25.742188,26.460938 C 25.598207,26.174006 25.3054,25.992133 24.984375,25.990234 Z"
       id="path874"
       inkscape:connector-curvature="0"
       sodipodi:nodetypes="cccccccccccccc" />
    <path
       style="color:#000000;font-style:normal;font-variant:normal;font-weight:normal;font-stretch:normal;font-size:medium;line-height:normal;font-family:sans-serif;font-variant-ligatures:normal;font-variant-position:normal;font-variant-caps:normal;font-variant-numeric:normal;font-variant-alternates:normal;font-feature-settings:normal;text-indent:0;text-align:start;text-decoration:none;text-decoration-line:none;text-decoration-style:solid;text-decoration-color:#000000;letter-spacing:normal;word-spacing:normal;text-transform:none;writing-mode:lr-tb;direction:ltr;text-orientation:mixed;dominant-baseline:auto;baseline-shift:baseline;text-anchor:start;white-space:normal;shape-padding:0;clip-rule:nonzero;display:inline;overflow:visible;visibility:visible;opacity:1;isolation:auto;mix-blend-mode:normal;color-interpolation:sRGB;color-interpolation-filters:linearRGB;solid-color:#000000;solid-opacity:1;vector-effect:none;fill:#ffdd75;fill-opacity:1;fill-rule:nonzero;stroke:none;stroke-width:1.14283907;stroke-linecap:round;stroke-linejoin:round;stroke-miterlimit:4;stroke-dasharray:none;stroke-dashoffset:0;stroke-opacity:1;color-rendering:auto;image-rendering:auto;shape-rendering:auto;text-rendering:auto;enable-background:accumulate"
       d="m 32.025708,15.984664 a 0.5714745,0.57147884 0 0 0 -0.515614,0.315844 l -1.058015,2.114931 -2.114915,1.058023 a 0.5714745,0.57147884 0 0 0 0,1.022309 l 2.114915,1.058023 1.058015,2.114931 a 0.5714745,0.57147884 0 0 0 1.022301,0 l 1.058015,-2.114931 2.114914,-1.058023 a 0.5714745,0.57147884 0 0 0 0,-1.022309 L 33.59041,18.415439 32.532395,16.300508 a 0.5714745,0.57147884 0 0 0 -0.506687,-0.315844 z"
       id="path895"
       inkscape:connector-curvature="0" />
    <path
       style="color:#000000;font-style:normal;font-variant:normal;font-weight:normal;font-stretch:normal;font-size:medium;line-height:normal;font-family:sans-serif;font-variant-ligatures:normal;font-variant-position:normal;font-variant-caps:normal;font-variant-numeric:normal;font-variant-alternates:normal;font-feature-settings:normal;text-indent:0;text-align:start;text-decoration:none;text-decoration-line:none;text-decoration-style:solid;text-decoration-color:#000000;letter-spacing:normal;word-spacing:normal;text-transform:none;writing-mode:lr-tb;direction:ltr;text-orientation:mixed;dominant-baseline:auto;baseline-shift:baseline;text-anchor:start;white-space:normal;shape-padding:0;clip-rule:nonzero;display:inline;overflow:visible;visibility:visible;opacity:1;isolation:auto;mix-blend-mode:normal;color-interpolation:sRGB;color-interpolation-filters:linearRGB;solid-color:#000000;solid-opacity:1;vector-effect:none;fill:#ffdd75;fill-opacity:1;fill-rule:nonzero;stroke:none;stroke-width:2.57138801;stroke-linecap:round;stroke-linejoin:round;stroke-miterlimit:4;stroke-dasharray:none;stroke-dashoffset:0;stroke-opacity:1;color-rendering:auto;image-rendering:auto;shape-rendering:auto;text-rendering:auto;enable-background:accumulate"
       d="m 17.044174,8.033332 a 1.2858178,1.2858274 0 0 0 -1.160133,0.7106494 l -2.380534,4.7585926 -4.7585572,2.380552 a 1.2858178,1.2858274 0 0 0 0,2.300196 l 4.7585572,2.380551 2.380534,4.758594 a 1.2858178,1.2858274 0 0 0 2.300178,0 l 2.380534,-4.758594 4.758557,-2.380551 a 1.2858178,1.2858274 0 0 0 0,-2.300196 L 20.564753,13.502574 18.184219,8.7439814 A 1.2858178,1.2858274 0 0 0 17.044174,8.033332 Z"
       id="path895-2"
       inkscape:connector-curvature="0" />
  </g>
</svg>
