<?xml version="1.0" encoding="UTF-8" standalone="no"?>
<!-- Created with Inkscape (http://www.inkscape.org/) -->

<svg
   xmlns:dc="http://purl.org/dc/elements/1.1/"
   xmlns:cc="http://creativecommons.org/ns#"
   xmlns:rdf="http://www.w3.org/1999/02/22-rdf-syntax-ns#"
   xmlns:svg="http://www.w3.org/2000/svg"
   xmlns="http://www.w3.org/2000/svg"
   xmlns:sodipodi="http://sodipodi.sourceforge.net/DTD/sodipodi-0.dtd"
   xmlns:inkscape="http://www.inkscape.org/namespaces/inkscape"
   width="48px"
   height="48px"
   viewBox="0 0 48 48"
   version="1.1"
   id="SVGRoot"
   inkscape:version="0.92.4 (5da689c313, 2019-01-14)"
   sodipodi:docname="dvdrip.svg">
  <defs
     id="defs815" />
  <sodipodi:namedview
     id="base"
     pagecolor="#ffffff"
     bordercolor="#666666"
     borderopacity="1.0"
     inkscape:pageopacity="0.0"
     inkscape:pageshadow="2"
     inkscape:zoom="11.934796"
     inkscape:cx="22.156906"
     inkscape:cy="19.185685"
     inkscape:document-units="px"
     inkscape:current-layer="layer1"
     showgrid="true"
     inkscape:window-width="1920"
     inkscape:window-height="1017"
     inkscape:window-x="-8"
     inkscape:window-y="-8"
     inkscape:window-maximized="1"
     inkscape:grid-bbox="true"
     inkscape:snap-global="true">
    <inkscape:grid
       type="xygrid"
       id="grid1371" />
  </sodipodi:namedview>
  <metadata
     id="metadata818">
    <rdf:RDF>
      <cc:Work
         rdf:about="">
        <dc:format>image/svg+xml</dc:format>
        <dc:type
           rdf:resource="http://purl.org/dc/dcmitype/StillImage" />
        <dc:title></dc:title>
      </cc:Work>
    </rdf:RDF>
  </metadata>
  <g
     inkscape:label="Layer 1"
     inkscape:groupmode="layer"
     id="layer1">
    <rect
       style="opacity:0.5;vector-effect:none;fill:#ffffff;fill-opacity:1;fill-rule:evenodd;stroke:none;stroke-width:2;stroke-linecap:round;stroke-linejoin:round;stroke-miterlimit:4;stroke-dasharray:none;stroke-opacity:1;paint-order:stroke fill markers"
       id="rect832"
       width="40"
       height="40"
       x="4"
       y="4"
       ry="4" />
    <path
       style="opacity:0.25;vector-effect:none;fill:#000000;fill-opacity:1;fill-rule:evenodd;stroke:none;stroke-width:2;stroke-linecap:round;stroke-linejoin:miter;stroke-miterlimit:4;stroke-dasharray:none;stroke-opacity:1;paint-order:stroke fill markers"
       d="M 24 9 C 15.69 9 9 15.69 9 24 C 9 32.31 15.69 39 24 39 C 32.31 39 39 32.31 39 24 C 39 15.69 32.31 9 24 9 z M 24 23 C 24.554 23 25 23.446 25 24 C 25 24.554 24.554 25 24 25 C 23.446 25 23 24.554 23 24 C 23 23.446 23.446 23 24 23 z "
       id="rect936" />
    <path
       style="opacity:1;vector-effect:none;fill:#efefef;fill-opacity:1;fill-rule:evenodd;stroke:none;stroke-width:2;stroke-linecap:round;stroke-linejoin:miter;stroke-miterlimit:4;stroke-dasharray:none;stroke-opacity:1;paint-order:stroke fill markers"
       d="M 24 10 C 16.244 10 10 16.244 10 24 C 10 31.756 16.244 38 24 38 C 31.756 38 38 31.756 38 24 C 38 16.244 31.756 10 24 10 z M 24 22 C 25.108 22 26 22.892 26 24 C 26 25.108 25.108 26 24 26 C 22.892 26 22 25.108 22 24 C 22 22.892 22.892 22 24 22 z "
       id="rect945" />
    <path
       style="fill:#ffffff;stroke:none;stroke-width:1px;stroke-linecap:butt;stroke-linejoin:miter;stroke-opacity:1"
       d="M 18.482422 11.125 C 15.178127 12.536166 12.536166 15.178127 11.125 18.482422 L 22.160156 23.210938 C 22.361709 22.739827 22.739827 22.361709 23.210938 22.160156 L 18.482422 11.125 z M 25.839844 24.789062 C 25.638291 25.260173 25.260173 25.638291 24.789062 25.839844 L 29.517578 36.875 C 32.821873 35.463834 35.463834 32.821873 36.875 29.517578 L 25.839844 24.789062 z "
       id="path860" />
    <path
       style="opacity:0.25;vector-effect:none;fill:#000000;fill-opacity:1;fill-rule:evenodd;stroke:none;stroke-width:2;stroke-linecap:round;stroke-linejoin:miter;stroke-miterlimit:4;stroke-dasharray:none;stroke-opacity:1;paint-order:stroke fill markers"
       d="M 24 19 C 21.23 19 19 21.23 19 24 C 19 26.77 21.23 29 24 29 C 26.77 29 29 26.77 29 24 C 29 21.23 26.77 19 24 19 z M 24 22 C 25.108 22 26 22.892 26 24 C 26 25.108 25.108 26 24 26 C 22.892 26 22 25.108 22 24 C 22 22.892 22.892 22 24 22 z "
       id="rect949" />
    <path
       style="opacity:1;vector-effect:none;fill:#ffffff;fill-opacity:1;fill-rule:evenodd;stroke:none;stroke-width:2;stroke-linecap:round;stroke-linejoin:miter;stroke-miterlimit:4;stroke-dasharray:none;stroke-opacity:1;paint-order:stroke fill markers"
       d="M 24 20 C 21.784 20 20 21.784 20 24 C 20 26.216 21.784 28 24 28 C 26.216 28 28 26.216 28 24 C 28 21.784 26.216 20 24 20 z M 24 22 C 25.108 22 26 22.892 26 24 C 26 25.108 25.108 26 24 26 C 22.892 26 22 25.108 22 24 C 22 22.892 22.892 22 24 22 z "
       id="rect947" />
    <path
       style="opacity:0.25;vector-effect:none;fill:#000000;fill-opacity:1;fill-rule:evenodd;stroke:none;stroke-width:2;stroke-linecap:round;stroke-linejoin:miter;stroke-miterlimit:4;stroke-dasharray:none;stroke-opacity:1;paint-order:stroke fill markers"
       d="M 8 4 C 5.784 4 4 5.784 4 8 L 4 40 C 4 42.216 5.784 44 8 44 L 40 44 C 42.216 44 44 42.216 44 40 L 44 8 C 44 5.784 42.216 4 40 4 L 8 4 z M 8 5 L 40 5 C 41.662 5 43 6.338 43 8 L 43 40 C 43 41.662 41.662 43 40 43 L 8 43 C 6.338 43 5 41.662 5 40 L 5 8 C 5 6.338 6.338 5 8 5 z "
       id="rect841" />
    <path
       style="opacity:1;vector-effect:none;fill:#627ad4;fill-opacity:1;fill-rule:evenodd;stroke:none;stroke-width:2;stroke-linecap:round;stroke-linejoin:round;stroke-miterlimit:4;stroke-dasharray:none;stroke-dashoffset:0;stroke-opacity:1;paint-order:stroke fill markers"
       d="m 4,40 c 0,2.216 1.784,4 4,4 h 32 c 2.216,0 4,-1.784 4,-4 V 30 H 40 8 4 Z"
       id="rect875"
       inkscape:connector-curvature="0"
       sodipodi:nodetypes="ssssccccs" />
    <path
       style="opacity:0.25;vector-effect:none;fill:#000000;fill-opacity:1;fill-rule:evenodd;stroke:none;stroke-width:8;stroke-linecap:round;stroke-linejoin:round;stroke-miterlimit:4;stroke-dasharray:none;stroke-opacity:1;paint-order:stroke fill markers"
       d="m 4,40 c 0,2.216 1.784,4 4,4 h 32 c 2.216,0 4,-1.784 4,-4 V 30 H 43 5 4 Z m 1,0 v -9 h 38 v 9 c 0,1.662 -1.338,3 -3,3 H 8 C 6.338,43 5,41.662 5,40 Z"
       id="rect832-9"
       inkscape:connector-curvature="0"
       sodipodi:nodetypes="ssssccccssccssss" />
    <rect
       style="opacity:1;vector-effect:none;fill:#ffffff;fill-opacity:1;fill-rule:evenodd;stroke:none;stroke-width:2;stroke-linecap:round;stroke-linejoin:round;stroke-miterlimit:4;stroke-dasharray:none;stroke-opacity:1;paint-order:stroke fill markers"
       id="rect898"
       width="3"
       height="3"
       x="11"
       y="33" />
    <rect
       style="opacity:1;vector-effect:none;fill:#ffffff;fill-opacity:1;fill-rule:evenodd;stroke:none;stroke-width:2;stroke-linecap:round;stroke-linejoin:round;stroke-miterlimit:4;stroke-dasharray:none;stroke-opacity:1;paint-order:stroke fill markers"
       id="rect900"
       width="3"
       height="3"
       x="11"
       y="37" />
    <rect
       style="opacity:1;vector-effect:none;fill:#ffffff;fill-opacity:1;fill-rule:evenodd;stroke:none;stroke-width:2;stroke-linecap:round;stroke-linejoin:round;stroke-miterlimit:4;stroke-dasharray:none;stroke-opacity:1;paint-order:stroke fill markers"
       id="rect902"
       width="3"
       height="3"
       x="15"
       y="33" />
    <rect
       style="opacity:1;vector-effect:none;fill:#ffffff;fill-opacity:1;fill-rule:evenodd;stroke:none;stroke-width:2;stroke-linecap:round;stroke-linejoin:round;stroke-miterlimit:4;stroke-dasharray:none;stroke-opacity:1;paint-order:stroke fill markers"
       id="rect904"
       width="3"
       height="3"
       x="15"
       y="37" />
    <path
       style="fill:#ffffff;stroke:none;stroke-width:1px;stroke-linecap:butt;stroke-linejoin:miter;stroke-opacity:1"
       d="m 22,40.534816 v -6.487601 h 1.911129 v 0.94796 c 0,0 0.511028,-0.879314 1.362693,-0.94796 1.02132,-0.08232 1.42194,0.622098 1.42194,0.622098 l -0.740594,1.392316 c 0,0 -0.306568,-0.462286 -1.036831,-0.266613 C 24.103259,36.013415 24,36.861471 24,36.861471 v 3.673345 z"
       id="path906"
       inkscape:connector-curvature="0"
       sodipodi:nodetypes="ccccsccsccc" />
    <rect
       style="opacity:1;vector-effect:none;fill:#ffffff;fill-opacity:1;fill-rule:evenodd;stroke:none;stroke-width:2;stroke-linecap:round;stroke-linejoin:round;stroke-miterlimit:4;stroke-dasharray:none;stroke-opacity:1;paint-order:stroke fill markers"
       id="rect908"
       width="2"
       height="2"
       x="28"
       y="32" />
    <rect
       style="opacity:1;vector-effect:none;fill:#ffffff;fill-opacity:1;fill-rule:evenodd;stroke:none;stroke-width:1.80790603;stroke-linecap:round;stroke-linejoin:round;stroke-miterlimit:4;stroke-dasharray:none;stroke-opacity:1;paint-order:stroke fill markers"
       id="rect910"
       width="2"
       height="5.4459457"
       x="28"
       y="35" />
    <path
       style="fill:#ffffff;stroke:none;stroke-width:1px;stroke-linecap:butt;stroke-linejoin:miter;stroke-opacity:1"
       d="M 35.748049,34.107422 C 34.605472,34.107422 34,34.787109 34,34.787109 V 34 h -2 l -0.0293,8 H 34 v -1.96875 c 0,0 1.198755,0.41895 1.867187,0.385084 1.82643,-0.09254 2.053964,-1.785621 2.042969,-3.0511 -0.01519,-1.747905 -0.858478,-3.257812 -2.16211,-3.257812 z m -0.84375,1.865234 c 0.549787,0 0.992188,0.628654 0.992188,1.408203 0,0.779549 -0.442401,1.40625 -0.992188,1.40625 -0.549787,0 -0.992187,-0.626701 -0.992187,-1.40625 0,-0.779549 0.4424,-1.408203 0.992187,-1.408203 z"
       id="path912"
       inkscape:connector-curvature="0"
       sodipodi:nodetypes="cccccccccccsssss" />
  </g>
</svg>
