<?xml version="1.0" encoding="UTF-8" standalone="no"?>
<!-- Created with Inkscape (http://www.inkscape.org/) -->

<svg
   xmlns:dc="http://purl.org/dc/elements/1.1/"
   xmlns:cc="http://creativecommons.org/ns#"
   xmlns:rdf="http://www.w3.org/1999/02/22-rdf-syntax-ns#"
   xmlns:svg="http://www.w3.org/2000/svg"
   xmlns="http://www.w3.org/2000/svg"
   xmlns:sodipodi="http://sodipodi.sourceforge.net/DTD/sodipodi-0.dtd"
   xmlns:inkscape="http://www.inkscape.org/namespaces/inkscape"
   width="48px"
   height="48px"
   viewBox="0 0 48 48"
   version="1.1"
   id="SVGRoot"
   inkscape:version="0.92.4 (5da689c313, 2019-01-14)"
   sodipodi:docname="emacs.svg">
  <defs
     id="defs815" />
  <sodipodi:namedview
     id="base"
     pagecolor="#ffffff"
     bordercolor="#666666"
     borderopacity="1.0"
     inkscape:pageopacity="0.0"
     inkscape:pageshadow="2"
     inkscape:zoom="13.416125"
     inkscape:cx="-10.084003"
     inkscape:cy="20.239354"
     inkscape:document-units="px"
     inkscape:current-layer="layer1"
     showgrid="true"
     inkscape:window-width="1920"
     inkscape:window-height="1017"
     inkscape:window-x="-8"
     inkscape:window-y="-8"
     inkscape:window-maximized="1"
     inkscape:grid-bbox="true"
     inkscape:snap-global="false">
    <inkscape:grid
       type="xygrid"
       id="grid1371" />
  </sodipodi:namedview>
  <metadata
     id="metadata818">
    <rdf:RDF>
      <cc:Work
         rdf:about="">
        <dc:format>image/svg+xml</dc:format>
        <dc:type
           rdf:resource="http://purl.org/dc/dcmitype/StillImage" />
        <dc:title></dc:title>
      </cc:Work>
    </rdf:RDF>
  </metadata>
  <g
     inkscape:label="Layer 1"
     inkscape:groupmode="layer"
     id="layer1">
    <rect
       style="opacity:1;vector-effect:none;fill:#7e75df;fill-opacity:1;fill-rule:evenodd;stroke:none;stroke-width:4;stroke-linecap:round;stroke-linejoin:round;stroke-miterlimit:4;stroke-dasharray:none;stroke-dashoffset:0;stroke-opacity:1;paint-order:stroke fill markers"
       id="rect1373"
       width="40"
       height="40"
       x="4"
       y="4"
       ry="4" />
    <path
       style="opacity:0.25;vector-effect:none;fill:#000000;fill-opacity:1;fill-rule:evenodd;stroke:none;stroke-width:4;stroke-linecap:round;stroke-linejoin:round;stroke-miterlimit:4;stroke-dasharray:none;stroke-dashoffset:0;stroke-opacity:1;paint-order:stroke fill markers"
       d="M 8 4 C 5.784 4 4 5.784 4 8 L 4 40 C 4 42.216 5.784 44 8 44 L 40 44 C 42.216 44 44 42.216 44 40 L 44 8 C 44 5.784 42.216 4 40 4 L 8 4 z M 8 5 L 40 5 C 41.662 5 43 6.338 43 8 L 43 40 C 43 41.662 41.662 43 40 43 L 8 43 C 6.338 43 5 41.662 5 40 L 5 8 C 5 6.338 6.338 5 8 5 z "
       id="rect826" />
    <path
       style="fill:#ffffff;stroke:none;stroke-width:1.02461004px;stroke-linecap:butt;stroke-linejoin:miter;stroke-opacity:1"
       d="m 16.121897,36.575259 c 0,0 4.822827,1.664872 10.044528,1.512079 3.739281,-0.109417 8.554126,-0.168731 8.753792,-1.674088 0.355922,-2.683434 -16.237494,-4.929278 -16.149915,-7.992419 0.125145,-4.377063 14.848513,-2.970156 14.848513,-2.970156 0,0 -11.252362,-7.275667 -10.422547,-9.072475 0.469486,-1.016584 3.22118,-0.979607 7.908015,-0.434289 1.872234,0.217836 5.014438,0.684587 4.968261,-2.103845 -0.05257,-3.17482 -3.510183,-3.672192 -3.510183,-3.672192 l -7.776408,-0.07454 c 0,0 7.99717,1.942424 7.128374,2.774679 -1.296344,1.24182 -12.114104,-1.58382 -13.794324,0.216011 -2.724744,2.918713 7.506393,9.34249 7.506393,9.34249 0,0 -12.454205,-1.934681 -13.552444,3.186167 -1.803819,8.410808 16.684513,9.783099 16.090577,10.260538 -1.236335,0.993835 -12.042632,0.702037 -12.042632,0.702037 z"
       id="path838"
       inkscape:connector-curvature="0"
       sodipodi:nodetypes="cssscsssccsscsscc" />
  </g>
</svg>
