<?xml version="1.0" encoding="UTF-8" standalone="no"?>
<!-- Created with Inkscape (http://www.inkscape.org/) -->

<svg
   xmlns:dc="http://purl.org/dc/elements/1.1/"
   xmlns:cc="http://creativecommons.org/ns#"
   xmlns:rdf="http://www.w3.org/1999/02/22-rdf-syntax-ns#"
   xmlns:svg="http://www.w3.org/2000/svg"
   xmlns="http://www.w3.org/2000/svg"
   xmlns:sodipodi="http://sodipodi.sourceforge.net/DTD/sodipodi-0.dtd"
   xmlns:inkscape="http://www.inkscape.org/namespaces/inkscape"
   width="48px"
   height="48px"
   viewBox="0 0 48 48"
   version="1.1"
   id="SVGRoot"
   inkscape:version="0.92.4 (5da689c313, 2019-01-14)"
   sodipodi:docname="emesene.svg">
  <defs
     id="defs815" />
  <sodipodi:namedview
     id="base"
     pagecolor="#ffffff"
     bordercolor="#666666"
     borderopacity="1.0"
     inkscape:pageopacity="0.0"
     inkscape:pageshadow="2"
     inkscape:zoom="11.555836"
     inkscape:cx="29.889829"
     inkscape:cy="25.423674"
     inkscape:document-units="px"
     inkscape:current-layer="layer1"
     showgrid="true"
     inkscape:window-width="1920"
     inkscape:window-height="1017"
     inkscape:window-x="-8"
     inkscape:window-y="-8"
     inkscape:window-maximized="1"
     inkscape:grid-bbox="true"
     inkscape:snap-global="true">
    <inkscape:grid
       type="xygrid"
       id="grid1371" />
  </sodipodi:namedview>
  <metadata
     id="metadata818">
    <rdf:RDF>
      <cc:Work
         rdf:about="">
        <dc:format>image/svg+xml</dc:format>
        <dc:type
           rdf:resource="http://purl.org/dc/dcmitype/StillImage" />
        <dc:title />
      </cc:Work>
    </rdf:RDF>
  </metadata>
  <g
     inkscape:label="Layer 1"
     inkscape:groupmode="layer"
     id="layer1">
    <rect
       style="opacity:1;vector-effect:none;fill:#cfe0f6;fill-opacity:1;fill-rule:evenodd;stroke:none;stroke-width:2;stroke-linecap:round;stroke-linejoin:round;stroke-miterlimit:4;stroke-dasharray:none;stroke-opacity:1;paint-order:stroke fill markers"
       id="rect832"
       width="40"
       height="40"
       x="4"
       y="4"
       ry="4" />
    <path
       style="fill:#bfea83;stroke:none;stroke-width:1px;stroke-linecap:butt;stroke-linejoin:miter;stroke-opacity:1"
       d="m 24,22 c 0,0 -2,2 -2,5 0,1.333333 0,4 0,4 v 3 c 0,0 0,2 2,2 h 8 c 2,0 2,-2 2,-2 v -3 c 0,0 2,0 2,-2 0,-3 -4,-7 -4,-7 z"
       id="path822-6"
       inkscape:connector-curvature="0"
       sodipodi:nodetypes="csccssccscc" />
    <path
       style="color:#000000;font-style:normal;font-variant:normal;font-weight:normal;font-stretch:normal;font-size:medium;line-height:normal;font-family:sans-serif;font-variant-ligatures:normal;font-variant-position:normal;font-variant-caps:normal;font-variant-numeric:normal;font-variant-alternates:normal;font-feature-settings:normal;text-indent:0;text-align:start;text-decoration:none;text-decoration-line:none;text-decoration-style:solid;text-decoration-color:#000000;letter-spacing:normal;word-spacing:normal;text-transform:none;writing-mode:lr-tb;direction:ltr;text-orientation:mixed;dominant-baseline:auto;baseline-shift:baseline;text-anchor:start;white-space:normal;shape-padding:0;clip-rule:nonzero;display:inline;overflow:visible;visibility:visible;opacity:0.4;isolation:auto;mix-blend-mode:normal;color-interpolation:sRGB;color-interpolation-filters:linearRGB;solid-color:#000000;solid-opacity:1;vector-effect:none;fill:#000000;fill-opacity:1;fill-rule:nonzero;stroke:none;stroke-width:2;stroke-linecap:butt;stroke-linejoin:miter;stroke-miterlimit:4;stroke-dasharray:none;stroke-dashoffset:0;stroke-opacity:1;color-rendering:auto;image-rendering:auto;shape-rendering:auto;text-rendering:auto;enable-background:accumulate"
       d="m 24,22 c 0,0 -2,2 -2,5 v 4 3 c 0,0 0,2 2,2 h 8 c 2,0 2,-2 2,-2 v -3 c 0,0 2,0 2,-2 0,-3 -4,-7 -4,-7 z m 0.496094,1 h 7.042968 c 0.200483,0.206047 0.826382,0.827193 1.652344,1.962891 C 34.140537,26.267946 35,27.944444 35,29 35,29.666667 34.81422,29.724726 34.552734,29.855469 34.291248,29.98621 34,30 34,30 V 28.5 C 34,28.223 33.777,28 33.5,28 33.223,28 33,28.223 33,28.5 V 30 30.5 34 c 0,0 -0.01379,0.291248 -0.144531,0.552734 C 32.724726,34.81422 32.666667,35 32,35 H 24 C 23.333333,35 23.275274,34.81422 23.144531,34.552734 23.01379,34.291248 23,34 23,34 v -3 -4 c 0,-2.240128 1.172291,-3.636336 1.496094,-4 z"
       id="path822-4-4"
       inkscape:connector-curvature="0" />
    <path
       style="fill:#729dec;stroke:none;stroke-width:1px;stroke-linecap:butt;stroke-linejoin:miter;stroke-opacity:1"
       d="m 16,22 c 0,0 -4,4 -4,7 0,2 2,2 2,2 v 3 c 0,0 0,2 2,2 h 8 c 2,0 2,-2 2,-2 v -3 c 0,0 0,-2.666667 0,-4 0,-3 -2,-5 -2,-5 z"
       id="path822"
       inkscape:connector-curvature="0"
       sodipodi:nodetypes="csccssccscc" />
    <path
       style="color:#000000;font-style:normal;font-variant:normal;font-weight:normal;font-stretch:normal;font-size:medium;line-height:normal;font-family:sans-serif;font-variant-ligatures:normal;font-variant-position:normal;font-variant-caps:normal;font-variant-numeric:normal;font-variant-alternates:normal;font-feature-settings:normal;text-indent:0;text-align:start;text-decoration:none;text-decoration-line:none;text-decoration-style:solid;text-decoration-color:#000000;letter-spacing:normal;word-spacing:normal;text-transform:none;writing-mode:lr-tb;direction:ltr;text-orientation:mixed;dominant-baseline:auto;baseline-shift:baseline;text-anchor:start;white-space:normal;shape-padding:0;clip-rule:nonzero;display:inline;overflow:visible;visibility:visible;opacity:0.4;isolation:auto;mix-blend-mode:normal;color-interpolation:sRGB;color-interpolation-filters:linearRGB;solid-color:#000000;solid-opacity:1;vector-effect:none;fill:#000000;fill-opacity:1;fill-rule:nonzero;stroke:none;stroke-width:2;stroke-linecap:butt;stroke-linejoin:miter;stroke-miterlimit:4;stroke-dasharray:none;stroke-dashoffset:0;stroke-opacity:1;color-rendering:auto;image-rendering:auto;shape-rendering:auto;text-rendering:auto;enable-background:accumulate"
       d="m 16,22 c 0,0 -4,4 -4,7 0,2 2,2 2,2 v 3 c 0,0 0,2 2,2 h 8 c 2,0 2,-2 2,-2 v -3 -4 c 0,-3 -2,-5 -2,-5 z m 0.460938,1 h 7.042968 C 23.827709,23.363664 25,24.759872 25,27 v 4 3 c 0,0 -0.01379,0.291248 -0.144531,0.552734 C 24.724726,34.81422 24.666667,35 24,35 H 16 C 15.333333,35 15.275274,34.81422 15.144531,34.552734 15.013788,34.291248 15,34 15,34 V 30.5 30 28.5 C 15,28.223 14.777,28 14.5,28 14.223,28 14,28.223 14,28.5 V 30 C 14,30 13.708752,29.98621 13.447266,29.855469 13.18578,29.724726 13,29.666667 13,29 13,27.944444 13.859463,26.267946 14.808594,24.962891 15.634556,23.827193 16.260455,23.206047 16.460938,23 Z"
       id="path822-4"
       inkscape:connector-curvature="0" />
    <rect
       style="opacity:1;vector-effect:none;fill:#729dec;fill-opacity:1;fill-rule:evenodd;stroke:none;stroke-width:2;stroke-linecap:round;stroke-linejoin:round;stroke-miterlimit:4;stroke-dasharray:none;stroke-opacity:1;paint-order:stroke fill markers"
       id="rect818"
       width="12"
       height="12"
       x="14"
       y="12"
       ry="6" />
    <path
       style="opacity:0.4;vector-effect:none;fill:#000000;fill-opacity:1;fill-rule:evenodd;stroke:none;stroke-width:2;stroke-linecap:round;stroke-linejoin:round;stroke-miterlimit:4;stroke-dasharray:none;stroke-opacity:1;paint-order:stroke fill markers"
       d="m 20,12 c -3.324,0 -6,2.676 -6,6 0,3.324 2.676,6 6,6 3.324,0 6,-2.676 6,-6 0,-3.324 -2.676,-6 -6,-6 z m 0,1 c 2.77,0 5,2.23 5,5 0,2.77 -2.23,5 -5,5 -2.77,0 -5,-2.23 -5,-5 0,-2.77 2.23,-5 5,-5 z"
       id="rect970"
       inkscape:connector-curvature="0" />
    <rect
       style="opacity:1;vector-effect:none;fill:#bfea83;fill-opacity:1;fill-rule:evenodd;stroke:none;stroke-width:2;stroke-linecap:round;stroke-linejoin:round;stroke-miterlimit:4;stroke-dasharray:none;stroke-opacity:1;paint-order:stroke fill markers"
       id="rect820"
       width="12"
       height="12"
       x="22"
       y="12"
       ry="6" />
    <path
       style="fill:#bfea83;stroke:none;stroke-width:1px;stroke-linecap:butt;stroke-linejoin:miter;stroke-opacity:1"
       d="m 16,22 c 1.281904,0.495593 1.707107,2.821489 1,4 -0.707107,1.178511 -2.916715,1.845803 -4,1 -0.788205,-0.615412 -0.471858,-2.118325 0,-3 0.567103,-1.059641 1.879008,-2.433383 3,-2 z"
       id="path839"
       inkscape:connector-curvature="0"
       sodipodi:nodetypes="sssss" />
    <path
       style="opacity:0.4;vector-effect:none;fill:#000000;fill-opacity:1;fill-rule:evenodd;stroke:none;stroke-width:2;stroke-linecap:round;stroke-linejoin:round;stroke-miterlimit:4;stroke-dasharray:none;stroke-opacity:1;paint-order:stroke fill markers"
       d="m 28,12 c -3.324,0 -6,2.676 -6,6 0,3.324 2.676,6 6,6 3.324,0 6,-2.676 6,-6 0,-3.324 -2.676,-6 -6,-6 z m 0,1 c 2.77,0 5,2.23 5,5 0,2.77 -2.23,5 -5,5 -2.77,0 -5,-2.23 -5,-5 0,-2.77 2.23,-5 5,-5 z"
       id="rect975"
       inkscape:connector-curvature="0" />
    <path
       style="fill:#729dec;stroke:none;stroke-width:1px;stroke-linecap:butt;stroke-linejoin:miter;stroke-opacity:1"
       d="m 32,22 c -1.281904,0.495593 -1.707107,2.821489 -1,4 0.707107,1.178511 2.916715,1.845803 4,1 0.788205,-0.615412 0.471858,-2.118325 0,-3 -0.567103,-1.059641 -1.879008,-2.433383 -3,-2 z"
       id="path839-4"
       inkscape:connector-curvature="0"
       sodipodi:nodetypes="sssss" />
    <path
       style="color:#000000;font-style:normal;font-variant:normal;font-weight:normal;font-stretch:normal;font-size:medium;line-height:normal;font-family:sans-serif;font-variant-ligatures:normal;font-variant-position:normal;font-variant-caps:normal;font-variant-numeric:normal;font-variant-alternates:normal;font-feature-settings:normal;text-indent:0;text-align:start;text-decoration:none;text-decoration-line:none;text-decoration-style:solid;text-decoration-color:#000000;letter-spacing:normal;word-spacing:normal;text-transform:none;writing-mode:lr-tb;direction:ltr;text-orientation:mixed;dominant-baseline:auto;baseline-shift:baseline;text-anchor:start;white-space:normal;shape-padding:0;clip-rule:nonzero;display:inline;overflow:visible;visibility:visible;opacity:0.4;isolation:auto;mix-blend-mode:normal;color-interpolation:sRGB;color-interpolation-filters:linearRGB;solid-color:#000000;solid-opacity:1;vector-effect:none;fill:#000000;fill-opacity:1;fill-rule:nonzero;stroke:none;stroke-width:2;stroke-linecap:round;stroke-linejoin:round;stroke-miterlimit:4;stroke-dasharray:none;stroke-dashoffset:0;stroke-opacity:1;color-rendering:auto;image-rendering:auto;shape-rendering:auto;text-rendering:auto;enable-background:accumulate"
       d="M 15.572266,21.917969 C 14.562428,21.905066 13.496215,23.072814 13,24 c -0.471858,0.881675 -0.788205,2.384588 0,3 1.083285,0.845803 3.292893,0.178511 4,-1 0.707107,-1.178511 0.281904,-3.504407 -1,-4 -0.140124,-0.05417 -0.283472,-0.08019 -0.427734,-0.08203 z m 0.06641,1.015625 c 0.184876,0.07147 0.499946,0.448226 0.630859,1.029297 0.130914,0.581071 0.03178,1.258884 -0.126953,1.523437 -0.159964,0.266606 -0.691069,0.65342 -1.261719,0.806641 -0.57065,0.15322 -1.084483,0.0594 -1.265625,-0.08203 -0.03171,-0.02476 -0.116573,-0.160585 -0.08984,-0.541016 0.02673,-0.380431 0.187211,-0.882874 0.355468,-1.197266 0.21701,-0.405485 0.633856,-0.936265 1.027344,-1.24414 0.393488,-0.307875 0.623816,-0.336155 0.730469,-0.294922 z"
       id="path839-7"
       inkscape:connector-curvature="0" />
    <path
       style="color:#000000;font-style:normal;font-variant:normal;font-weight:normal;font-stretch:normal;font-size:medium;line-height:normal;font-family:sans-serif;font-variant-ligatures:normal;font-variant-position:normal;font-variant-caps:normal;font-variant-numeric:normal;font-variant-alternates:normal;font-feature-settings:normal;text-indent:0;text-align:start;text-decoration:none;text-decoration-line:none;text-decoration-style:solid;text-decoration-color:#000000;letter-spacing:normal;word-spacing:normal;text-transform:none;writing-mode:lr-tb;direction:ltr;text-orientation:mixed;dominant-baseline:auto;baseline-shift:baseline;text-anchor:start;white-space:normal;shape-padding:0;clip-rule:nonzero;display:inline;overflow:visible;visibility:visible;opacity:0.4;isolation:auto;mix-blend-mode:normal;color-interpolation:sRGB;color-interpolation-filters:linearRGB;solid-color:#000000;solid-opacity:1;vector-effect:none;fill:#000000;fill-opacity:1;fill-rule:nonzero;stroke:none;stroke-width:2;stroke-linecap:round;stroke-linejoin:round;stroke-miterlimit:4;stroke-dasharray:none;stroke-dashoffset:0;stroke-opacity:1;color-rendering:auto;image-rendering:auto;shape-rendering:auto;text-rendering:auto;enable-background:accumulate"
       d="M 32.427734,21.917969 C 32.283472,21.919812 32.140124,21.945827 32,22 c -1.281904,0.495593 -1.707107,2.821489 -1,4 0.707107,1.178511 2.916715,1.845803 4,1 0.788205,-0.615412 0.471858,-2.118325 0,-3 -0.496215,-0.927186 -1.562428,-2.094934 -2.572266,-2.082031 z m -0.06641,1.015625 c 0.106653,-0.04123 0.336981,-0.01295 0.730469,0.294922 0.393488,0.307875 0.810334,0.838655 1.027344,1.24414 0.168257,0.314392 0.328742,0.816835 0.355468,1.197266 0.02673,0.380431 -0.05813,0.516252 -0.08984,0.541016 -0.181142,0.141429 -0.694975,0.235252 -1.265625,0.08203 -0.57065,-0.153221 -1.101755,-0.540035 -1.261719,-0.806641 -0.158732,-0.264553 -0.257867,-0.942366 -0.126953,-1.523437 0.130913,-0.581071 0.445983,-0.957823 0.630859,-1.029297 z"
       id="path839-4-3"
       inkscape:connector-curvature="0" />
    <path
       style="opacity:0.25;vector-effect:none;fill:#000000;fill-opacity:1;fill-rule:evenodd;stroke:none;stroke-width:2;stroke-linecap:round;stroke-linejoin:round;stroke-miterlimit:4;stroke-dasharray:none;stroke-opacity:1;paint-order:stroke fill markers"
       d="M 8 4 C 5.784 4 4 5.784 4 8 L 4 40 C 4 42.216 5.784 44 8 44 L 40 44 C 42.216 44 44 42.216 44 40 L 44 8 C 44 5.784 42.216 4 40 4 L 8 4 z M 8 5 L 40 5 C 41.662 5 43 6.338 43 8 L 43 40 C 43 41.662 41.662 43 40 43 L 8 43 C 6.338 43 5 41.662 5 40 L 5 8 C 5 6.338 6.338 5 8 5 z "
       id="rect827" />
  </g>
</svg>
