<?xml version="1.0" encoding="UTF-8" standalone="no"?>
<!-- Created with Inkscape (http://www.inkscape.org/) -->

<svg
   xmlns:dc="http://purl.org/dc/elements/1.1/"
   xmlns:cc="http://creativecommons.org/ns#"
   xmlns:rdf="http://www.w3.org/1999/02/22-rdf-syntax-ns#"
   xmlns:svg="http://www.w3.org/2000/svg"
   xmlns="http://www.w3.org/2000/svg"
   xmlns:sodipodi="http://sodipodi.sourceforge.net/DTD/sodipodi-0.dtd"
   xmlns:inkscape="http://www.inkscape.org/namespaces/inkscape"
   width="48px"
   height="48px"
   viewBox="0 0 48 48"
   version="1.1"
   id="SVGRoot"
   inkscape:version="0.92.4 (5da689c313, 2019-01-14)"
   sodipodi:docname="evince.svg">
  <defs
     id="defs815" />
  <sodipodi:namedview
     id="base"
     pagecolor="#ffffff"
     bordercolor="#666666"
     borderopacity="1.0"
     inkscape:pageopacity="0.0"
     inkscape:pageshadow="2"
     inkscape:zoom="16.082807"
     inkscape:cx="16.643584"
     inkscape:cy="23.143102"
     inkscape:document-units="px"
     inkscape:current-layer="layer1"
     showgrid="true"
     inkscape:window-width="1920"
     inkscape:window-height="1017"
     inkscape:window-x="-8"
     inkscape:window-y="-8"
     inkscape:window-maximized="1"
     inkscape:grid-bbox="true"
     inkscape:snap-global="true">
    <inkscape:grid
       type="xygrid"
       id="grid1371" />
  </sodipodi:namedview>
  <metadata
     id="metadata818">
    <rdf:RDF>
      <cc:Work
         rdf:about="">
        <dc:format>image/svg+xml</dc:format>
        <dc:type
           rdf:resource="http://purl.org/dc/dcmitype/StillImage" />
        <dc:title></dc:title>
      </cc:Work>
    </rdf:RDF>
  </metadata>
  <g
     inkscape:label="Layer 1"
     inkscape:groupmode="layer"
     id="layer1">
    <rect
       style="opacity:1;vector-effect:none;fill:#efefef;fill-opacity:1;fill-rule:evenodd;stroke:none;stroke-width:4;stroke-linecap:round;stroke-linejoin:round;stroke-miterlimit:4;stroke-dasharray:none;stroke-dashoffset:0;stroke-opacity:1;paint-order:stroke fill markers"
       id="rect1373"
       width="40"
       height="40"
       x="4"
       y="4"
       ry="4" />
    <path
       style="fill:#000000;stroke:none;stroke-width:1px;stroke-linecap:butt;stroke-linejoin:miter;stroke-opacity:1;opacity:0.25"
       d="M 28 35 L 14 36 L 12 39 L 12 40 C 12 44 16 44 16 44 L 40 44 C 42.216 44 44 42.216 44 40 L 44 35.875 L 30 35 C 30 35 30 36 29 36 C 28 36 28 35 28 35 z "
       id="path1208" />
    <path
       style="opacity:0.25;vector-effect:none;fill:#000000;fill-opacity:1;fill-rule:evenodd;stroke:none;stroke-width:4;stroke-linecap:round;stroke-linejoin:round;stroke-miterlimit:4;stroke-dasharray:none;stroke-dashoffset:0;stroke-opacity:1;paint-order:stroke fill markers"
       d="M 8 4 C 5.784 4 4 5.784 4 8 L 4 40 C 4 42.216 5.784 44 8 44 L 40 44 C 42.216 44 44 42.216 44 40 L 44 8 C 44 5.784 42.216 4 40 4 L 8 4 z M 8 5 L 40 5 C 41.662 5 43 6.338 43 8 L 43 40 C 43 41.662 41.662 43 40 43 L 8 43 C 6.338 43 5 41.662 5 40 L 5 8 C 5 6.338 6.338 5 8 5 z "
       id="rect826" />
    <g
       id="g1065"
       transform="translate(0,-2)">
      <path
         sodipodi:nodetypes="ccc"
         inkscape:connector-curvature="0"
         id="path883"
         d="m 19,47 5,-6 h 21"
         style="fill:none;stroke:#979797;stroke-width:2;stroke-linecap:round;stroke-linejoin:round;stroke-miterlimit:4;stroke-dasharray:none;stroke-opacity:1" />
      <path
         sodipodi:nodetypes="ccc"
         inkscape:connector-curvature="0"
         id="path883-1"
         d="M 39,47 34,41 H 13"
         style="fill:none;stroke:#979797;stroke-width:2;stroke-linecap:round;stroke-linejoin:round;stroke-miterlimit:4;stroke-dasharray:none;stroke-opacity:1" />
      <rect
         y="38"
         x="32"
         height="6"
         width="10"
         id="rect900-9"
         style="opacity:0.5;vector-effect:none;fill:#ffffff;fill-opacity:1;fill-rule:evenodd;stroke:none;stroke-width:2;stroke-linecap:round;stroke-linejoin:round;stroke-miterlimit:4;stroke-dasharray:none;stroke-opacity:1;paint-order:stroke fill markers" />
      <rect
         y="38"
         x="16"
         height="6"
         width="10"
         id="rect958"
         style="opacity:0.5;vector-effect:none;fill:#ffffff;fill-opacity:1;fill-rule:evenodd;stroke:none;stroke-width:2;stroke-linecap:round;stroke-linejoin:round;stroke-miterlimit:4;stroke-dasharray:none;stroke-opacity:1;paint-order:stroke fill markers" />
      <path
         sodipodi:nodetypes="scccssssccsssscccsccssccssccccssccssccsssssssccsssssscss"
         inkscape:connector-curvature="0"
         id="rect818"
         d="M 14.5,36 C 13.115,36 12,37.115 12,38.5 12,39 12,40 12,41 h 2 v 1 c 0,2.216 1.784,4 4,4 h 6 c 2.216,0 4,-1.784 4,-4 v -2 h 2 v 2 c 0,2.216 1.784,4 4,4 h 6 c 2.216,0 4,-1.784 4,-4 v -1 h 2 c 0,-1 0,-2 0,-2.5 C 46,37.115 44.885,36 43.5,36 H 40 35 31 c -0.554,0 -1,0.446 -1,1 v 1 h -2 v -1 c 0,-0.554 -0.446,-1 -1,-1 H 24 23 19.5 18 Z m 3.5,2 h 5 1 1 c 0.554,0 1,0.446 1,1 v 1 1 1 c 0,1.108 -0.892,2 -2,2 h -6 c -1.108,0 -2,-0.892 -2,-2 v -2 c 0,-1.108 0.892,-2 2,-2 z m 15,0 h 1 1 5 c 1.108,0 2,0.892 2,2 v 2 c 0,1.108 -0.892,2 -2,2 h -6 c -1.108,0 -2,-0.892 -2,-2 v -2 -1 c 0,-0.554 0.446,-1 1,-1 z"
         style="opacity:1;vector-effect:none;fill:#627ad4;fill-opacity:1;fill-rule:evenodd;stroke:none;stroke-width:2;stroke-linecap:round;stroke-linejoin:round;stroke-miterlimit:4;stroke-dasharray:none;stroke-opacity:1;paint-order:stroke fill markers" />
      <path
         id="rect818-8"
         d="M 14.5,36 C 13.115,36 12,37.115 12,38.5 V 41 h 2 v 1 c 0,2.216 1.784,4 4,4 h 6 c 2.216,0 4,-1.784 4,-4 v -2 h 2 v 2 c 0,2.216 1.784,4 4,4 h 6 c 2.216,0 4,-1.784 4,-4 v -1 h 2 V 38.5 C 46,37.115 44.885,36 43.5,36 H 40 35 31 c -0.554,0 -1,0.446 -1,1 v 1 h -2 v -1 c 0,-0.554 -0.446,-1 -1,-1 H 24 23 19.5 18 Z m 0,1 h 3.5 1.5 3.5 1 3 v 2 3 c 0,1.679297 -1.320703,3 -3,3 h -6 c -1.679297,0 -3,-1.320703 -3,-3 V 40 H 13 V 38.5 C 13,37.651703 13.651703,37 14.5,37 Z M 31,37 h 4 5 3.5 c 0.848297,0 1.5,0.651703 1.5,1.5 V 40 h -2 v 2 c 0,1.679297 -1.320703,3 -3,3 h -6 c -1.679297,0 -3,-1.320703 -3,-3 v -3 z"
         style="color:#000000;font-style:normal;font-variant:normal;font-weight:normal;font-stretch:normal;font-size:medium;line-height:normal;font-family:sans-serif;font-variant-ligatures:normal;font-variant-position:normal;font-variant-caps:normal;font-variant-numeric:normal;font-variant-alternates:normal;font-feature-settings:normal;text-indent:0;text-align:start;text-decoration:none;text-decoration-line:none;text-decoration-style:solid;text-decoration-color:#000000;letter-spacing:normal;word-spacing:normal;text-transform:none;writing-mode:lr-tb;direction:ltr;text-orientation:mixed;dominant-baseline:auto;baseline-shift:baseline;text-anchor:start;white-space:normal;shape-padding:0;clip-rule:nonzero;display:inline;overflow:visible;visibility:visible;opacity:0.25;isolation:auto;mix-blend-mode:normal;color-interpolation:sRGB;color-interpolation-filters:linearRGB;solid-color:#000000;solid-opacity:1;vector-effect:none;fill:#000000;fill-opacity:1;fill-rule:evenodd;stroke:none;stroke-width:2;stroke-linecap:round;stroke-linejoin:miter;stroke-miterlimit:4;stroke-dasharray:none;stroke-dashoffset:0;stroke-opacity:1;paint-order:normal;color-rendering:auto;image-rendering:auto;shape-rendering:auto;text-rendering:auto;enable-background:accumulate"
         inkscape:connector-curvature="0" />
      <path
         id="rect1030"
         d="m 18,38 c -1.108,0 -2,0.892 -2,2 v 2 c 0,1.108 0.892,2 2,2 h 6 c 1.108,0 2,-0.892 2,-2 v -1 -1 -1 c 0,-0.554 -0.446,-1 -1,-1 h -1 -1 z m 0,1 h 4.5 1.5 0.5 c 0.277,0 0.5,0.223 0.5,0.5 V 40 41.5 42 c 0,0.554 -0.446,1 -1,1 h -6 c -0.554,0 -1,-0.446 -1,-1 v -2 c 0,-0.554 0.446,-1 1,-1 z"
         style="opacity:0.5;vector-effect:none;fill:#ffffff;fill-opacity:1;fill-rule:evenodd;stroke:none;stroke-width:2;stroke-linecap:round;stroke-linejoin:miter;stroke-miterlimit:4;stroke-dasharray:none;stroke-opacity:1;paint-order:normal"
         inkscape:connector-curvature="0" />
      <path
         id="rect1030-2"
         d="m 40,38 c 1.108,0 2,0.892 2,2 v 2 c 0,1.108 -0.892,2 -2,2 h -6 c -1.108,0 -2,-0.892 -2,-2 v -1 -1 -1 c 0,-0.554 0.446,-1 1,-1 h 1 1 z m 0,1 H 35.5 34 33.5 C 33.223,39 33,39.223 33,39.5 V 40 41.5 42 c 0,0.554 0.446,1 1,1 h 6 c 0.554,0 1,-0.446 1,-1 v -2 c 0,-0.554 -0.446,-1 -1,-1 z"
         style="opacity:0.5;vector-effect:none;fill:#ffffff;fill-opacity:1;fill-rule:evenodd;stroke:none;stroke-width:2;stroke-linecap:round;stroke-linejoin:miter;stroke-miterlimit:4;stroke-dasharray:none;stroke-opacity:1;paint-order:normal"
         inkscape:connector-curvature="0" />
    </g>
    <rect
       style="opacity:1;vector-effect:none;fill:#f97263;fill-opacity:1;fill-rule:evenodd;stroke:none;stroke-width:2;stroke-linecap:round;stroke-linejoin:miter;stroke-miterlimit:4;stroke-dasharray:none;stroke-opacity:1;paint-order:normal"
       id="rect1067"
       width="18"
       height="18"
       x="8"
       y="8"
       ry="1" />
    <rect
       style="opacity:1;vector-effect:none;fill:#7c8487;fill-opacity:1;fill-rule:evenodd;stroke:none;stroke-width:2;stroke-linecap:round;stroke-linejoin:miter;stroke-miterlimit:4;stroke-dasharray:none;stroke-opacity:1;paint-order:normal"
       id="rect1069"
       width="12"
       height="2"
       x="28"
       y="8"
       ry="1" />
    <rect
       style="opacity:1;vector-effect:none;fill:#b7bfc2;fill-opacity:1;fill-rule:evenodd;stroke:none;stroke-width:2;stroke-linecap:round;stroke-linejoin:miter;stroke-miterlimit:4;stroke-dasharray:none;stroke-opacity:1;paint-order:normal"
       id="rect1071"
       width="12"
       height="10"
       x="28"
       y="12"
       ry="1" />
    <rect
       style="opacity:1;vector-effect:none;fill:#b7bfc2;fill-opacity:1;fill-rule:evenodd;stroke:none;stroke-width:2;stroke-linecap:round;stroke-linejoin:miter;stroke-miterlimit:4;stroke-dasharray:none;stroke-opacity:1;paint-order:normal"
       id="rect1073"
       width="12"
       height="6"
       x="28"
       y="24"
       ry="1" />
    <rect
       style="opacity:1;vector-effect:none;fill:#b7bfc2;fill-opacity:1;fill-rule:evenodd;stroke:none;stroke-width:2;stroke-linecap:round;stroke-linejoin:miter;stroke-miterlimit:4;stroke-dasharray:none;stroke-opacity:1;paint-order:normal"
       id="rect1075"
       width="32"
       height="4"
       x="8"
       y="28"
       ry="1" />
    <path
       style="fill:#ffffff;stroke:none;stroke-width:1px;stroke-linecap:butt;stroke-linejoin:miter;stroke-opacity:1"
       d="m 10,23 c 0,0 10,-3 10,-7 0.176663,-2.837607 -2.114382,-4 -4,-4 -1.885618,0 -4.090333,1.287003 -4,4 0.09033,2.712997 5.174216,6 8,6 4,0 6,-2 6,-2 v -3 c 0,0 -3,3 -6,3 -4,0 -6,-2.226887 -6,-4 0,-1 1.057191,-2 2,-2 1,0 2,1 2,2 0,3 -8,7 -8,7 z"
       id="path1245"
       inkscape:connector-curvature="0"
       sodipodi:nodetypes="ccccsccscccc" />
  </g>
</svg>
