<?xml version="1.0" encoding="UTF-8" standalone="no"?>
<!-- Created with Inkscape (http://www.inkscape.org/) -->

<svg
   xmlns:dc="http://purl.org/dc/elements/1.1/"
   xmlns:cc="http://creativecommons.org/ns#"
   xmlns:rdf="http://www.w3.org/1999/02/22-rdf-syntax-ns#"
   xmlns:svg="http://www.w3.org/2000/svg"
   xmlns="http://www.w3.org/2000/svg"
   xmlns:sodipodi="http://sodipodi.sourceforge.net/DTD/sodipodi-0.dtd"
   xmlns:inkscape="http://www.inkscape.org/namespaces/inkscape"
   width="48px"
   height="48px"
   viewBox="0 0 48 48"
   version="1.1"
   id="SVGRoot"
   inkscape:version="0.92.4 (5da689c313, 2019-01-14)"
   sodipodi:docname="evolution-calendar.svg">
  <defs
     id="defs815" />
  <sodipodi:namedview
     id="base"
     pagecolor="#ffffff"
     bordercolor="#666666"
     borderopacity="1.0"
     inkscape:pageopacity="0.0"
     inkscape:pageshadow="2"
     inkscape:zoom="32.165615"
     inkscape:cx="17.237161"
     inkscape:cy="39.096072"
     inkscape:document-units="px"
     inkscape:current-layer="layer1"
     showgrid="true"
     inkscape:window-width="1920"
     inkscape:window-height="1017"
     inkscape:window-x="-8"
     inkscape:window-y="-8"
     inkscape:window-maximized="1"
     inkscape:grid-bbox="true"
     inkscape:snap-global="true">
    <inkscape:grid
       type="xygrid"
       id="grid1371" />
  </sodipodi:namedview>
  <metadata
     id="metadata818">
    <rdf:RDF>
      <cc:Work
         rdf:about="">
        <dc:format>image/svg+xml</dc:format>
        <dc:type
           rdf:resource="http://purl.org/dc/dcmitype/StillImage" />
        <dc:title></dc:title>
      </cc:Work>
    </rdf:RDF>
  </metadata>
  <g
     inkscape:label="Layer 1"
     inkscape:groupmode="layer"
     id="layer1">
    <rect
       style="opacity:1;vector-effect:none;fill:#efefef;fill-opacity:1;fill-rule:evenodd;stroke:none;stroke-width:4;stroke-linecap:round;stroke-linejoin:round;stroke-miterlimit:4;stroke-dasharray:none;stroke-dashoffset:0;stroke-opacity:1;paint-order:stroke fill markers"
       id="rect1373"
       width="40"
       height="33"
       x="4"
       y="11"
       ry="4" />
    <path
       style="opacity:1;vector-effect:none;fill:#f97263;fill-opacity:1;fill-rule:evenodd;stroke:none;stroke-width:2;stroke-linecap:round;stroke-linejoin:round;stroke-miterlimit:4;stroke-dasharray:none;stroke-opacity:1;paint-order:normal"
       d="M 8 4 C 5.784 4 4 5.784 4 8 L 4 14 L 44 14 L 44 8 C 44 5.784 42.216 4 40 4 L 35 4 L 35 6.2753906 C 35.595799 6.6209515 36 7.2589301 36 8 C 36 9.108 35.108 10 34 10 C 32.892 10 32 9.108 32 8 C 32 7.2589301 32.404201 6.6209515 33 6.2753906 L 33 4 L 15 4 L 15 6.2753906 C 15.595799 6.6209515 16 7.2589301 16 8 C 16 9.108 15.108 10 14 10 C 12.892 10 12 9.108 12 8 C 12 7.2589301 12.404201 6.6209515 13 6.2753906 L 13 4 L 8 4 z "
       id="rect838" />
    <path
       style="opacity:0.25;vector-effect:none;fill:#000000;fill-opacity:1;fill-rule:evenodd;stroke:none;stroke-width:4;stroke-linecap:round;stroke-linejoin:round;stroke-miterlimit:4;stroke-dasharray:none;stroke-dashoffset:0;stroke-opacity:1;paint-order:stroke fill markers"
       d="M 8 4 C 5.784 4 4 5.784 4 8 L 4 40 C 4 42.216 5.784 44 8 44 L 40 44 C 42.216 44 44 42.216 44 40 L 44 8 C 44 5.784 42.216 4 40 4 L 36 4 L 35 4 L 35 5 L 35 6.2753906 C 35.595799 6.6209515 36 7.2589301 36 8 C 36 9.108 35.108 10 34 10 C 32.892 10 32 9.108 32 8 C 32 7.2589301 32.404201 6.6209515 33 6.2753906 L 33 5 L 33 4 L 32 4 L 16 4 L 15 4 L 15 5 L 15 6.2753906 C 15.595799 6.6209515 16 7.2589301 16 8 C 16 9.108 15.108 10 14 10 C 12.892 10 12 9.108 12 8 C 12 7.2589301 12.404201 6.6209515 13 6.2753906 L 13 5 L 13 4 L 12 4 L 8 4 z M 8 5 L 12 5 L 12 5.7753906 C 11.389896 6.3237849 11 7.111297 11 8 C 11 9.662 12.338 11 14 11 C 15.662 11 17 9.662 17 8 C 17 7.111297 16.610104 6.3237849 16 5.7753906 L 16 5 L 32 5 L 32 5.7753906 C 31.389896 6.3237849 31 7.111297 31 8 C 31 9.662 32.338 11 34 11 C 35.662 11 37 9.662 37 8 C 37 7.111297 36.610104 6.3237849 36 5.7753906 L 36 5 L 40 5 C 41.662 5 43 6.338 43 8 L 43 40 C 43 41.662 41.662 43 40 43 L 8 43 C 6.338 43 5 41.662 5 40 L 5 8 C 5 6.338 6.338 5 8 5 z "
       id="rect826" />
    <rect
       style="opacity:1;vector-effect:none;fill:#4e4e4e;fill-opacity:1;fill-rule:evenodd;stroke:none;stroke-width:2;stroke-linecap:round;stroke-linejoin:round;stroke-miterlimit:4;stroke-dasharray:none;stroke-opacity:1;paint-order:normal"
       id="rect848"
       width="12"
       height="18"
       x="12"
       y="18"
       ry="6" />
    <rect
       style="opacity:1;vector-effect:none;fill:#efefef;fill-opacity:1;fill-rule:evenodd;stroke:none;stroke-width:1.42857146;stroke-linecap:round;stroke-linejoin:round;stroke-miterlimit:4;stroke-dasharray:none;stroke-opacity:1;paint-order:normal"
       id="rect850"
       width="4"
       height="10"
       x="16"
       y="22"
       ry="2" />
    <path
       style="opacity:1;vector-effect:none;fill:#4e4e4e;fill-opacity:1;fill-rule:evenodd;stroke:none;stroke-width:2;stroke-linecap:round;stroke-linejoin:round;stroke-miterlimit:4;stroke-dasharray:none;stroke-opacity:1;paint-order:normal"
       d="m 26,21 v 5 l 3,-3 v 9 h -3 v 4 H 36 V 32 H 33 V 18 h -4 z"
       id="rect872"
       inkscape:connector-curvature="0"
       sodipodi:nodetypes="cccccccccccc" />
    <rect
       style="opacity:0.25;vector-effect:none;fill:#000000;fill-opacity:1;fill-rule:evenodd;stroke:none;stroke-width:2;stroke-linecap:round;stroke-linejoin:round;stroke-miterlimit:4;stroke-dasharray:none;stroke-opacity:1;paint-order:normal"
       id="rect943"
       width="38"
       height="1"
       x="5"
       y="13" />
    <rect
       style="opacity:0.5;vector-effect:none;fill:#ffffff;fill-opacity:1;fill-rule:evenodd;stroke:none;stroke-width:2;stroke-linecap:round;stroke-linejoin:round;stroke-miterlimit:4;stroke-dasharray:none;stroke-opacity:1;paint-order:normal"
       id="rect1006"
       width="2"
       height="2"
       x="19"
       y="8" />
    <rect
       style="opacity:0.5;vector-effect:none;fill:#ffffff;fill-opacity:1;fill-rule:evenodd;stroke:none;stroke-width:2;stroke-linecap:round;stroke-linejoin:round;stroke-miterlimit:4;stroke-dasharray:none;stroke-opacity:1;paint-order:normal"
       id="rect1008"
       width="2"
       height="2"
       x="27"
       y="8" />
    <rect
       style="opacity:0.5;vector-effect:none;fill:#ffffff;fill-opacity:1;fill-rule:evenodd;stroke:none;stroke-width:2;stroke-linecap:round;stroke-linejoin:round;stroke-miterlimit:4;stroke-dasharray:none;stroke-opacity:1;paint-order:normal"
       id="rect1010"
       width="2"
       height="2"
       x="23"
       y="8" />
  </g>
</svg>
