<?xml version="1.0" encoding="UTF-8" standalone="no"?>
<!-- Created with Inkscape (http://www.inkscape.org/) -->

<svg
   xmlns:dc="http://purl.org/dc/elements/1.1/"
   xmlns:cc="http://creativecommons.org/ns#"
   xmlns:rdf="http://www.w3.org/1999/02/22-rdf-syntax-ns#"
   xmlns:svg="http://www.w3.org/2000/svg"
   xmlns="http://www.w3.org/2000/svg"
   xmlns:sodipodi="http://sodipodi.sourceforge.net/DTD/sodipodi-0.dtd"
   xmlns:inkscape="http://www.inkscape.org/namespaces/inkscape"
   width="48px"
   height="48px"
   viewBox="0 0 48 48"
   version="1.1"
   id="SVGRoot"
   inkscape:version="0.92.4 (5da689c313, 2019-01-14)"
   sodipodi:docname="firefox-developer.svg">
  <defs
     id="defs815" />
  <sodipodi:namedview
     id="base"
     pagecolor="#ffffff"
     bordercolor="#666666"
     borderopacity="1.0"
     inkscape:pageopacity="0.0"
     inkscape:pageshadow="2"
     inkscape:zoom="19.180271"
     inkscape:cx="16.486713"
     inkscape:cy="21.097622"
     inkscape:document-units="px"
     inkscape:current-layer="layer1"
     showgrid="true"
     inkscape:window-width="1920"
     inkscape:window-height="1017"
     inkscape:window-x="-8"
     inkscape:window-y="-8"
     inkscape:window-maximized="1"
     inkscape:grid-bbox="true"
     showguides="false"
     inkscape:snap-global="true">
    <inkscape:grid
       type="xygrid"
       id="grid1371" />
  </sodipodi:namedview>
  <metadata
     id="metadata818">
    <rdf:RDF>
      <cc:Work
         rdf:about="">
        <dc:format>image/svg+xml</dc:format>
        <dc:type
           rdf:resource="http://purl.org/dc/dcmitype/StillImage" />
        <dc:title />
      </cc:Work>
    </rdf:RDF>
  </metadata>
  <g
     inkscape:label="Layer 1"
     inkscape:groupmode="layer"
     id="layer1">
    <rect
       style="opacity:1;vector-effect:none;fill:#4d4fac;fill-opacity:1;fill-rule:evenodd;stroke:none;stroke-width:4;stroke-linecap:round;stroke-linejoin:round;stroke-miterlimit:4;stroke-dasharray:none;stroke-dashoffset:0;stroke-opacity:1;paint-order:stroke fill markers"
       id="rect1373"
       width="40"
       height="40"
       x="4"
       y="4"
       ry="4" />
    <path
       style="opacity:0.1;vector-effect:none;fill:#000000;fill-opacity:1;fill-rule:evenodd;stroke:none;stroke-width:2;stroke-linecap:round;stroke-linejoin:round;stroke-miterlimit:4;stroke-dasharray:none;stroke-opacity:1;paint-order:normal"
       d="M 7 5 L 7 7 L 5 7 L 5 8 L 7 8 L 7 11 L 5 11 L 5 12 L 7 12 L 7 15 L 5 15 L 5 16 L 7 16 L 7 19 L 5 19 L 5 20 L 7 20 L 7 23 L 5 23 L 5 24 L 7 24 L 7 27 L 5 27 L 5 28 L 7 28 L 7 31 L 5 31 L 5 32 L 7 32 L 7 35 L 5 35 L 5 36 L 7 36 L 7 39 L 5 39 L 5 40 L 7 40 L 7 43 L 8 43 L 8 40 L 11 40 L 11 43 L 12 43 L 12 40 L 15 40 L 15 43 L 16 43 L 16 40 L 19 40 L 19 43 L 20 43 L 20 40 L 23 40 L 23 43 L 24 43 L 24 40 L 27 40 L 27 43 L 28 43 L 28 40 L 31 40 L 31 43 L 32 43 L 32 40 L 35 40 L 35 43 L 36 43 L 36 40 L 39 40 L 39 43 L 40 43 L 40 40 L 43 40 L 43 39 L 40 39 L 40 36 L 43 36 L 43 35 L 40 35 L 40 32 L 43 32 L 43 31 L 40 31 L 40 28 L 43 28 L 43 27 L 40 27 L 40 24 L 43 24 L 43 23 L 40 23 L 40 20 L 43 20 L 43 19 L 40 19 L 40 16 L 43 16 L 43 15 L 40 15 L 40 12 L 43 12 L 43 11 L 40 11 L 40 8 L 43 8 L 43 7 L 40 7 L 40 5 L 39 5 L 39 7 L 36 7 L 36 5 L 35 5 L 35 7 L 32 7 L 32 5 L 31 5 L 31 7 L 28 7 L 28 5 L 27 5 L 27 7 L 24 7 L 24 5 L 23 5 L 23 7 L 20 7 L 20 5 L 19 5 L 19 7 L 16 7 L 16 5 L 15 5 L 15 7 L 12 7 L 12 5 L 11 5 L 11 7 L 8 7 L 8 5 L 7 5 z M 8 8 L 11 8 L 11 11 L 8 11 L 8 8 z M 12 8 L 15 8 L 15 11 L 12 11 L 12 8 z M 16 8 L 19 8 L 19 11 L 16 11 L 16 8 z M 20 8 L 23 8 L 23 11 L 20 11 L 20 8 z M 24 8 L 27 8 L 27 11 L 24 11 L 24 8 z M 28 8 L 31 8 L 31 11 L 28 11 L 28 8 z M 32 8 L 35 8 L 35 11 L 32 11 L 32 8 z M 36 8 L 39 8 L 39 11 L 36 11 L 36 8 z M 8 12 L 11 12 L 11 15 L 8 15 L 8 12 z M 12 12 L 15 12 L 15 15 L 12 15 L 12 12 z M 16 12 L 19 12 L 19 15 L 16 15 L 16 12 z M 20 12 L 23 12 L 23 15 L 20 15 L 20 12 z M 24 12 L 27 12 L 27 15 L 24 15 L 24 12 z M 28 12 L 31 12 L 31 15 L 28 15 L 28 12 z M 32 12 L 35 12 L 35 15 L 32 15 L 32 12 z M 36 12 L 39 12 L 39 15 L 36 15 L 36 12 z M 8 16 L 11 16 L 11 19 L 8 19 L 8 16 z M 12 16 L 15 16 L 15 19 L 12 19 L 12 16 z M 16 16 L 19 16 L 19 19 L 16 19 L 16 16 z M 20 16 L 23 16 L 23 19 L 20 19 L 20 16 z M 24 16 L 27 16 L 27 19 L 24 19 L 24 16 z M 28 16 L 31 16 L 31 19 L 28 19 L 28 16 z M 32 16 L 35 16 L 35 19 L 32 19 L 32 16 z M 36 16 L 39 16 L 39 19 L 36 19 L 36 16 z M 8 20 L 11 20 L 11 23 L 8 23 L 8 20 z M 12 20 L 15 20 L 15 23 L 12 23 L 12 20 z M 16 20 L 19 20 L 19 23 L 16 23 L 16 20 z M 20 20 L 23 20 L 23 23 L 20 23 L 20 20 z M 24 20 L 27 20 L 27 23 L 24 23 L 24 20 z M 28 20 L 31 20 L 31 23 L 28 23 L 28 20 z M 32 20 L 35 20 L 35 23 L 32 23 L 32 20 z M 36 20 L 39 20 L 39 23 L 36 23 L 36 20 z M 8 24 L 11 24 L 11 27 L 8 27 L 8 24 z M 12 24 L 15 24 L 15 27 L 12 27 L 12 24 z M 16 24 L 19 24 L 19 27 L 16 27 L 16 24 z M 20 24 L 23 24 L 23 27 L 20 27 L 20 24 z M 24 24 L 27 24 L 27 27 L 24 27 L 24 24 z M 28 24 L 31 24 L 31 27 L 28 27 L 28 24 z M 32 24 L 35 24 L 35 27 L 32 27 L 32 24 z M 36 24 L 39 24 L 39 27 L 36 27 L 36 24 z M 8 28 L 11 28 L 11 31 L 8 31 L 8 28 z M 12 28 L 15 28 L 15 31 L 12 31 L 12 28 z M 16 28 L 19 28 L 19 31 L 16 31 L 16 28 z M 20 28 L 23 28 L 23 31 L 20 31 L 20 28 z M 24 28 L 27 28 L 27 31 L 24 31 L 24 28 z M 28 28 L 31 28 L 31 31 L 28 31 L 28 28 z M 32 28 L 35 28 L 35 31 L 32 31 L 32 28 z M 36 28 L 39 28 L 39 31 L 36 31 L 36 28 z M 8 32 L 11 32 L 11 35 L 8 35 L 8 32 z M 12 32 L 15 32 L 15 35 L 12 35 L 12 32 z M 16 32 L 19 32 L 19 35 L 16 35 L 16 32 z M 20 32 L 23 32 L 23 35 L 20 35 L 20 32 z M 24 32 L 27 32 L 27 35 L 24 35 L 24 32 z M 28 32 L 31 32 L 31 35 L 28 35 L 28 32 z M 32 32 L 35 32 L 35 35 L 32 35 L 32 32 z M 36 32 L 39 32 L 39 35 L 36 35 L 36 32 z M 8 36 L 11 36 L 11 39 L 8 39 L 8 36 z M 12 36 L 15 36 L 15 39 L 12 39 L 12 36 z M 16 36 L 19 36 L 19 39 L 16 39 L 16 36 z M 20 36 L 23 36 L 23 39 L 20 39 L 20 36 z M 24 36 L 27 36 L 27 39 L 24 39 L 24 36 z M 28 36 L 31 36 L 31 39 L 28 39 L 28 36 z M 32 36 L 35 36 L 35 39 L 32 39 L 32 36 z M 36 36 L 39 36 L 39 39 L 36 39 L 36 36 z "
       id="rect1215" />
    <path
       style="opacity:0.1;vector-effect:none;fill:#000000;fill-opacity:1;fill-rule:evenodd;stroke:none;stroke-width:2;stroke-linecap:round;stroke-linejoin:round;stroke-miterlimit:4;stroke-dasharray:none;stroke-opacity:1;paint-order:normal"
       d="m 11,5 v 6 H 5 v 1 h 6 v 7 H 5 v 1 h 6 v 7 H 5 v 1 h 6 v 7 H 5 v 1 h 6 v 7 h 1 v -7 h 7 v 7 h 1 v -7 h 7 v 7 h 1 v -7 h 7 v 7 h 1 v -7 h 7 v -1 h -7 v -7 h 7 v -1 h -7 v -7 h 7 v -1 h -7 v -7 h 7 V 11 H 36 V 5 h -1 v 6 H 28 V 5 h -1 v 6 H 20 V 5 h -1 v 6 H 12 V 5 Z m 1,7 h 7 v 7 h -7 z m 8,0 h 7 v 7 h -7 z m 8,0 h 7 v 7 h -7 z m -16,8 h 7 v 7 h -7 z m 8,0 h 7 v 7 h -7 z m 8,0 h 7 v 7 h -7 z m -16,8 h 7 v 7 h -7 z m 8,0 h 7 v 7 h -7 z m 8,0 h 7 v 7 h -7 z"
       id="rect1131"
       inkscape:connector-curvature="0"
       sodipodi:nodetypes="cccccccccccccccccccccccccccccccccccccccccccccccccccccccccccccccccccccccccccccccccccccccccccccccccccccccccc" />
    <path
       style="opacity:0.4;vector-effect:none;fill:#000000;fill-opacity:1;fill-rule:evenodd;stroke:none;stroke-width:2.16666651;stroke-linecap:round;stroke-linejoin:miter;stroke-miterlimit:4;stroke-dasharray:none;stroke-opacity:1;paint-order:stroke fill markers"
       d="M 24 18 C 16.798 18 11 23.798 11 31 C 11 38.202 16.798 44 24 44 C 31.202 44 37 38.202 37 31 C 37 23.798 31.202 18 24 18 z M 24 19 C 30.648 19 36 24.352 36 31 C 36 37.648 30.648 43 24 43 C 17.352 43 12 37.648 12 31 C 12 24.352 17.352 19 24 19 z "
       id="rect825" />
    <path
       style="fill:#5bd6d1;fill-opacity:1;stroke:none;stroke-width:1px;stroke-linecap:butt;stroke-linejoin:miter;stroke-opacity:1"
       d="m 23,18 c 0,0 2,-5 8,-10 2,7 13.000219,8.980616 13.000219,15.980616 C 44.000219,32.980616 37.4,40 37.4,40 37.4,40 41,18 23,18 Z"
       id="path853"
       inkscape:connector-curvature="0"
       sodipodi:nodetypes="ccscc" />
    <path
       style="color:#000000;font-style:normal;font-variant:normal;font-weight:normal;font-stretch:normal;font-size:medium;line-height:normal;font-family:sans-serif;font-variant-ligatures:normal;font-variant-position:normal;font-variant-caps:normal;font-variant-numeric:normal;font-variant-alternates:normal;font-feature-settings:normal;text-indent:0;text-align:start;text-decoration:none;text-decoration-line:none;text-decoration-style:solid;text-decoration-color:#000000;letter-spacing:normal;word-spacing:normal;text-transform:none;writing-mode:lr-tb;direction:ltr;text-orientation:mixed;dominant-baseline:auto;baseline-shift:baseline;text-anchor:start;white-space:normal;shape-padding:0;clip-rule:nonzero;display:inline;overflow:visible;visibility:visible;opacity:1;isolation:auto;mix-blend-mode:normal;color-interpolation:sRGB;color-interpolation-filters:linearRGB;solid-color:#000000;solid-opacity:1;vector-effect:none;fill:#95fff7;fill-opacity:1;fill-rule:nonzero;stroke:none;stroke-width:2;stroke-linecap:round;stroke-linejoin:round;stroke-miterlimit:4;stroke-dasharray:none;stroke-dashoffset:0;stroke-opacity:1;color-rendering:auto;image-rendering:auto;shape-rendering:auto;text-rendering:auto;enable-background:accumulate"
       d="M 31 8 C 25 13 23 18 23 18 C 23.402947 18 23.782482 18.023372 24.164062 18.044922 L 24.623047 17.130859 C 25.214406 15.928181 26.635927 13.537941 29.960938 10.378906 C 29.947394 10.753483 29.929416 11.019034 29.933594 11.791016 C 29.939894 12.956993 29.984794 14.301068 30.232422 15.207031 C 30.673256 16.819888 31.629762 18.084651 32.544922 19.294922 C 33.460081 20.505193 34.335276 21.661562 34.744141 23.039062 C 34.833613 23.340505 34.905121 23.693301 34.964844 24.072266 C 35.449251 24.86579 35.84438 25.704998 36.177734 26.5625 C 36.1395 25.249184 36.023696 23.84248 35.701172 22.755859 C 35.226251 21.155806 34.256823 19.898918 33.34375 18.691406 C 32.430677 17.483895 31.575328 16.326555 31.197266 14.943359 C 31.013538 14.271167 30.939745 12.920515 30.933594 11.785156 C 30.928764 10.900802 30.952414 10.46358 30.964844 10.167969 C 32.507127 12.98298 35.220822 14.962034 37.677734 16.792969 C 39.173483 17.907627 40.557983 18.996544 41.525391 20.15625 C 42.314326 21.102008 43.462529 22.482624 43.878906 23.810547 C 43.911376 23.914108 43.992188 24.130859 43.992188 24.130859 C 43.99261 24.080069 44 24.031379 44 23.980469 C 44.000012 16.980471 33 15 31 8 z "
       id="path853-8" />
    <path
       style="fill:#5b81de;fill-opacity:1;stroke:none;stroke-width:1px;stroke-linecap:butt;stroke-linejoin:miter;stroke-opacity:1"
       d="m 9,21 c 0,0 2,-4 5,-5 0,2 1,6 1,6 z"
       id="path859"
       inkscape:connector-curvature="0"
       sodipodi:nodetypes="cccc" />
    <path
       style="color:#000000;font-style:normal;font-variant:normal;font-weight:normal;font-stretch:normal;font-size:medium;line-height:normal;font-family:sans-serif;font-variant-ligatures:normal;font-variant-position:normal;font-variant-caps:normal;font-variant-numeric:normal;font-variant-alternates:normal;font-feature-settings:normal;text-indent:0;text-align:start;text-decoration:none;text-decoration-line:none;text-decoration-style:solid;text-decoration-color:#000000;letter-spacing:normal;word-spacing:normal;text-transform:none;writing-mode:lr-tb;direction:ltr;text-orientation:mixed;dominant-baseline:auto;baseline-shift:baseline;text-anchor:start;white-space:normal;shape-padding:0;clip-rule:nonzero;display:inline;overflow:visible;visibility:visible;opacity:1;isolation:auto;mix-blend-mode:normal;color-interpolation:sRGB;color-interpolation-filters:linearRGB;solid-color:#000000;solid-opacity:1;vector-effect:none;fill:#95fff7;fill-opacity:1;fill-rule:nonzero;stroke:none;stroke-width:2;stroke-linecap:round;stroke-linejoin:round;stroke-miterlimit:4;stroke-dasharray:none;stroke-dashoffset:0;stroke-opacity:1;color-rendering:auto;image-rendering:auto;shape-rendering:auto;text-rendering:auto;enable-background:accumulate"
       d="M 14 16 C 11 17 9 21 9 21 L 15 22 C 15 22 14 18 14 16 z M 13.212891 17.609375 C 13.313632 18.407348 13.368542 19.190367 13.519531 19.945312 C 13.611061 20.402969 13.623321 20.412757 13.703125 20.769531 L 10.662109 20.263672 C 10.866098 19.939803 10.842753 19.901394 11.164062 19.488281 C 11.714789 18.780206 12.444356 18.131901 13.212891 17.609375 z "
       id="path859-0-8" />
    <path
       style="fill:#65b1ef;fill-opacity:1;stroke:none;stroke-width:1px;stroke-linecap:butt;stroke-linejoin:miter;stroke-opacity:1"
       d="M 9 14 C 9 14 6.4039014 15.739509 4 19.050781 L 4 40 C 4 42.216 5.784 44 8 44 L 40 44 C 42.216 44 44 42.216 44 40 L 44 24 C 44 24 44 43 24 43 C 18.90098 43 12.822375 38.734226 13 34 C 13.152553 29.934009 24 27 24 27 C 18 24 16 20 13 20 L 10 20 L 9 14 z "
       id="path855" />
    <path
       style="color:#000000;font-style:normal;font-variant:normal;font-weight:normal;font-stretch:normal;font-size:medium;line-height:normal;font-family:sans-serif;font-variant-ligatures:normal;font-variant-position:normal;font-variant-caps:normal;font-variant-numeric:normal;font-variant-alternates:normal;font-feature-settings:normal;text-indent:0;text-align:start;text-decoration:none;text-decoration-line:none;text-decoration-style:solid;text-decoration-color:#000000;letter-spacing:normal;word-spacing:normal;text-transform:none;writing-mode:lr-tb;direction:ltr;text-orientation:mixed;dominant-baseline:auto;baseline-shift:baseline;text-anchor:start;white-space:normal;shape-padding:0;clip-rule:nonzero;display:inline;overflow:visible;visibility:visible;opacity:1;isolation:auto;mix-blend-mode:normal;color-interpolation:sRGB;color-interpolation-filters:linearRGB;solid-color:#000000;solid-opacity:1;vector-effect:none;fill:#95fff7;fill-opacity:1;fill-rule:nonzero;stroke:none;stroke-width:2;stroke-linecap:round;stroke-linejoin:round;stroke-miterlimit:4;stroke-dasharray:none;stroke-dashoffset:0;stroke-opacity:1;color-rendering:auto;image-rendering:auto;shape-rendering:auto;text-rendering:auto;enable-background:accumulate"
       d="M 9 14 C 9 14 6.4039014 15.739509 4 19.050781 L 4 21 C 5 19 7.4152014 16.59166 8.2949219 15.845703 L 9.0136719 20.164062 C 9.0939238 20.646338 9.511093 20.999899 10 21 L 13 21 C 14.055556 21 15.114045 21.772581 16.728516 23.138672 C 17.971408 24.19035 19.663466 25.498998 21.722656 26.765625 L 22.986328 27.509766 C 23.736414 27.270216 24 27 24 27 C 18 24 16 20 13 20 L 10 20 L 9 14 z M 44 24 C 44 24 43.992617 41.984663 25.564453 42.953125 L 25.564453 44 L 27.832031 44 L 37 40.167969 C 39.468125 38.387327 41.218155 36.181403 42.384766 33.964844 C 42.651074 33.458859 42.785168 32.980879 43 32.480469 L 44 30.292969 L 44 24 z "
       id="path855-2-5" />
    <path
       style="fill:#95fff7;fill-opacity:1;stroke:none;stroke-width:1px;stroke-linecap:butt;stroke-linejoin:miter;stroke-opacity:1"
       d="m 30,24 c 0,0 5,3 5,9 0,8 -14,11 -14,11 h 15 c 0,0 3,-4 3,-10 0,-9 -9,-10 -9,-10 z"
       id="path857"
       inkscape:connector-curvature="0"
       sodipodi:nodetypes="csccsc" />
    <path
       style="fill:#95fff7;fill-opacity:1;stroke:none;stroke-width:1px;stroke-linecap:butt;stroke-linejoin:miter;stroke-opacity:1"
       d="m 6,27 c 0,0 3.205051,-0.991243 5,-1.010751 2.847833,-0.03095 5.161265,1.781202 8,2.010751 1.694143,0.136994 5,-1 5,-1 0,0 -1,2 -3,3 0,0 -5.985862,0 -6.985862,4 C 13.205686,37.233808 19,41.9 19,41.9 19,41.9 12,39 12,31 7,30 6,27 6,27 Z"
       id="path863"
       inkscape:connector-curvature="0"
       sodipodi:nodetypes="csscssccc" />
    <path
       style="color:#000000;font-style:normal;font-variant:normal;font-weight:normal;font-stretch:normal;font-size:medium;line-height:normal;font-family:sans-serif;font-variant-ligatures:normal;font-variant-position:normal;font-variant-caps:normal;font-variant-numeric:normal;font-variant-alternates:normal;font-feature-settings:normal;text-indent:0;text-align:start;text-decoration:none;text-decoration-line:none;text-decoration-style:solid;text-decoration-color:#000000;letter-spacing:normal;word-spacing:normal;text-transform:none;writing-mode:lr-tb;direction:ltr;text-orientation:mixed;dominant-baseline:auto;baseline-shift:baseline;text-anchor:start;white-space:normal;shape-padding:0;clip-rule:nonzero;display:inline;overflow:visible;visibility:visible;opacity:0.5;isolation:auto;mix-blend-mode:normal;color-interpolation:sRGB;color-interpolation-filters:linearRGB;solid-color:#000000;solid-opacity:1;vector-effect:none;fill:#ffffff;fill-opacity:1;fill-rule:nonzero;stroke:none;stroke-width:2;stroke-linecap:round;stroke-linejoin:round;stroke-miterlimit:4;stroke-dasharray:none;stroke-dashoffset:0;stroke-opacity:1;color-rendering:auto;image-rendering:auto;shape-rendering:auto;text-rendering:auto;enable-background:accumulate"
       d="M 30 24 C 30 24 35 27 35 33 C 35 41 21 44 21 44 L 24.685547 44 L 26.917969 43 C 27.461491 42.76953 27.889208 42.67356 28.447266 42.394531 C 30.265412 41.485458 32.109456 40.311297 33.542969 38.775391 C 34.976482 37.239484 36 35.291667 36 33 C 36 30.123277 34.904312 27.986762 33.71875 26.367188 C 33.81289 26.420597 33.884186 26.420868 33.978516 26.478516 C 36.021427 27.726961 38 29.833333 38 34 C 38 39.226701 35.785911 42.475299 35.416016 43 L 34.492188 44 L 36 44 C 36 44 39 40 39 34 C 39 25 30 24 30 24 z "
       id="path857-0" />
    <path
       style="opacity:0.4;vector-effect:none;fill:#000000;fill-opacity:1;fill-rule:evenodd;stroke:none;stroke-width:2;stroke-linecap:round;stroke-linejoin:miter;stroke-miterlimit:4;stroke-dasharray:none;stroke-opacity:1;paint-order:stroke fill markers"
       d="M 8 4 C 5.784 4 4 5.784 4 8 L 4 40 C 4 42.216 5.784 44 8 44 L 40 44 C 42.216 44 44 42.216 44 40 L 44 8 C 44 5.784 42.216 4 40 4 L 8 4 z M 8 5 L 40 5 C 41.662 5 43 6.338 43 8 L 43 40 C 43 41.662 41.662 43 40 43 L 8 43 C 6.338 43 5 41.662 5 40 L 5 8 C 5 6.338 6.338 5 8 5 z "
       id="rect841" />
    <path
       style="fill:#ffffff;fill-opacity:1;stroke:none;stroke-width:1px;stroke-linecap:butt;stroke-linejoin:miter;stroke-opacity:1;opacity:0.5"
       d="M 11 25.988281 C 9.205051 26.007789 6 27 6 27 C 6 27 6.5260633 28.469168 8.5429688 29.695312 C 7.0205391 28.577401 7 27.337891 7 27.337891 C 7 27.337891 10.205051 27.025367 12 27.005859 C 14.847833 26.974909 15.997323 28.949219 20 28.949219 C 20.95989 28.949219 22.380371 28.342227 23.478516 27.800781 C 23.795858 27.35571 24 27 24 27 C 24 27 20.694143 28.136994 19 28 C 16.161265 27.770451 13.847833 25.957331 11 25.988281 z M 12.003906 31.082031 C 12.053332 39.017475 19 41.900391 19 41.900391 C 19 41.900391 17.264206 40.476949 15.822266 38.671875 C 14.182977 36.922525 12.564154 34.426252 12.027344 31.087891 C 12.019001 31.086222 12.012221 31.083709 12.003906 31.082031 z "
       id="path863-0" />
  </g>
</svg>
