<?xml version="1.0" encoding="UTF-8" standalone="no"?>
<!-- Created with Inkscape (http://www.inkscape.org/) -->

<svg
   xmlns:dc="http://purl.org/dc/elements/1.1/"
   xmlns:cc="http://creativecommons.org/ns#"
   xmlns:rdf="http://www.w3.org/1999/02/22-rdf-syntax-ns#"
   xmlns:svg="http://www.w3.org/2000/svg"
   xmlns="http://www.w3.org/2000/svg"
   xmlns:sodipodi="http://sodipodi.sourceforge.net/DTD/sodipodi-0.dtd"
   xmlns:inkscape="http://www.inkscape.org/namespaces/inkscape"
   width="48px"
   height="48px"
   viewBox="0 0 48 48"
   version="1.1"
   id="SVGRoot"
   inkscape:version="0.92.4 (5da689c313, 2019-01-14)"
   sodipodi:docname="gajim.svg">
  <defs
     id="defs815" />
  <sodipodi:namedview
     id="base"
     pagecolor="#ffffff"
     bordercolor="#666666"
     borderopacity="1.0"
     inkscape:pageopacity="0.0"
     inkscape:pageshadow="2"
     inkscape:zoom="13.852754"
     inkscape:cx="4.1002318"
     inkscape:cy="22.527867"
     inkscape:document-units="px"
     inkscape:current-layer="layer1"
     showgrid="true"
     inkscape:window-width="1920"
     inkscape:window-height="1017"
     inkscape:window-x="-8"
     inkscape:window-y="-8"
     inkscape:window-maximized="1"
     inkscape:grid-bbox="true"
     inkscape:snap-global="false">
    <inkscape:grid
       type="xygrid"
       id="grid1371" />
  </sodipodi:namedview>
  <metadata
     id="metadata818">
    <rdf:RDF>
      <cc:Work
         rdf:about="">
        <dc:format>image/svg+xml</dc:format>
        <dc:type
           rdf:resource="http://purl.org/dc/dcmitype/StillImage" />
        <dc:title></dc:title>
      </cc:Work>
    </rdf:RDF>
  </metadata>
  <g
     inkscape:label="Layer 1"
     inkscape:groupmode="layer"
     id="layer1">
    <path
       style="opacity:1;vector-effect:none;fill:#96d56b;fill-opacity:1;fill-rule:evenodd;stroke:none;stroke-width:4;stroke-linecap:round;stroke-linejoin:round;stroke-miterlimit:4;stroke-dasharray:none;stroke-dashoffset:0;stroke-opacity:1;paint-order:stroke fill markers"
       d="M 8 4 C 5.784 4 4 5.784 4 8 L 4 36 C 4 38.216 5.784 40 8 40 L 20 40 L 24 44 L 28 40 L 40 40 C 42.216 40 44 38.216 44 36 L 44 8 C 44 5.784 42.216 4 40 4 L 8 4 z "
       id="rect1373" />
    <path
       style="color:#000000;font-style:normal;font-variant:normal;font-weight:normal;font-stretch:normal;font-size:medium;line-height:normal;font-family:sans-serif;font-variant-ligatures:normal;font-variant-position:normal;font-variant-caps:normal;font-variant-numeric:normal;font-variant-alternates:normal;font-feature-settings:normal;text-indent:0;text-align:start;text-decoration:none;text-decoration-line:none;text-decoration-style:solid;text-decoration-color:#000000;letter-spacing:normal;word-spacing:normal;text-transform:none;writing-mode:lr-tb;direction:ltr;text-orientation:mixed;dominant-baseline:auto;baseline-shift:baseline;text-anchor:start;white-space:normal;shape-padding:0;clip-rule:nonzero;display:inline;overflow:visible;visibility:visible;opacity:0.25;isolation:auto;mix-blend-mode:normal;color-interpolation:sRGB;color-interpolation-filters:linearRGB;solid-color:#000000;solid-opacity:1;vector-effect:none;fill:#000000;fill-opacity:1;fill-rule:evenodd;stroke:none;stroke-width:2;stroke-linecap:round;stroke-linejoin:round;stroke-miterlimit:4;stroke-dasharray:none;stroke-dashoffset:0;stroke-opacity:1;paint-order:stroke fill markers;color-rendering:auto;image-rendering:auto;shape-rendering:auto;text-rendering:auto;enable-background:accumulate"
       d="M 8 4 C 5.784 4 4 5.784 4 8 L 4 36 C 4 38.216 5.784 40 8 40 L 20 40 L 24 44 L 28 40 L 40 40 C 42.216 40 44 38.216 44 36 L 44 8 C 44 5.784 42.216 4 40 4 L 8 4 z M 8 5 L 40 5 C 41.679297 5 43 6.3207028 43 8 L 43 36 C 43 37.679297 41.679297 39 40 39 L 28 39 A 1.0001 1.0001 0 0 0 27.292969 39.292969 L 24 42.585938 L 20.707031 39.292969 A 1.0001 1.0001 0 0 0 20 39 L 8 39 C 6.3207028 39 5 37.679297 5 36 L 5 8 C 5 6.3207028 6.3207028 5 8 5 z "
       id="rect1373-2" />
    <path
       style="fill:#ffffff;stroke:none;stroke-width:1px;stroke-linecap:butt;stroke-linejoin:miter;stroke-opacity:1"
       d="m 8,9.9791102 v 2.5303208 c 0,0 0.077086,0.500964 0.6561137,0.656114 0.4195464,0.112417 0.8880164,-1.064194 2.2442453,-1.847213 1.268646,-0.732453 2.721986,-1.3354738 4.186893,-1.3354738 6.167811,0 8.806913,5.7015928 8.806913,9.9360838 0,4.889232 -5.458367,6.418792 -6.172057,9.095664 -0.429919,1.612514 -1.09128,4.966783 0.577501,4.980959 1.4296,0.01214 -0.374213,-3.079207 0.433128,-4.259081 1.93146,-2.822698 7.254874,-4.78356 7.254874,-9.781448 0,-6.454323 -3.955931,-11.921249 -11.008641,-11.921249 C 10.027413,8.033787 8,9.9791102 8,9.9791102 Z"
       id="path872"
       inkscape:connector-curvature="0"
       sodipodi:nodetypes="ccsssssssssc" />
    <path
       style="fill:none;stroke:#ffffff;stroke-width:1px;stroke-linecap:round;stroke-linejoin:round;stroke-opacity:1"
       d="m 11.867844,24.494013 c 0,0 -0.552166,-1.276288 -0.331789,-2.27148 0.155998,-0.704462 0.605704,-1.720427 1.327156,-1.709991 0.821794,0.01189 1.454768,1.990735 1.454768,1.990735 0,0 0.913391,-1.604163 1.914169,-1.225067 0.711584,0.269549 0.566891,1.501729 0.408356,2.245957 -0.231465,1.086594 -1.352679,2.322524 -1.352679,2.322524"
       id="path874"
       inkscape:connector-curvature="0"
       sodipodi:nodetypes="csscssc" />
    <path
       style="fill:none;stroke:#ffffff;stroke-width:1px;stroke-linecap:round;stroke-linejoin:round;stroke-opacity:1"
       d="m 9.3666638,27.454593 c 0,0 1.2449032,1.501679 2.9861022,2.143868 1.741199,0.642189 3.241326,-0.102088 3.241326,-0.102088"
       id="path876"
       inkscape:connector-curvature="0"
       sodipodi:nodetypes="czc" />
    <path
       style="fill:none;stroke:#ffffff;stroke-width:1px;stroke-linecap:round;stroke-linejoin:round;stroke-opacity:1"
       d="m 9.3666638,30.415173 c 0,0 1.4100452,1.411263 3.0116252,1.914169 1.60158,0.502906 3.113714,0.07657 3.113714,0.07657"
       id="path878"
       inkscape:connector-curvature="0"
       sodipodi:nodetypes="czc" />
    <path
       style="fill:none;stroke:#ffffff;stroke-width:1px;stroke-linecap:round;stroke-linejoin:round;stroke-opacity:1"
       d="m 9.3921861,33.503365 c 0,0 1.0905269,1.455448 3.0881919,1.863124 1.997665,0.407676 3.955948,-0.79119 3.955948,-0.79119"
       id="path880"
       inkscape:connector-curvature="0"
       sodipodi:nodetypes="czc" />
  </g>
</svg>
