<?xml version="1.0" encoding="UTF-8" standalone="no"?>
<!-- Created with Inkscape (http://www.inkscape.org/) -->

<svg
   xmlns:dc="http://purl.org/dc/elements/1.1/"
   xmlns:cc="http://creativecommons.org/ns#"
   xmlns:rdf="http://www.w3.org/1999/02/22-rdf-syntax-ns#"
   xmlns:svg="http://www.w3.org/2000/svg"
   xmlns="http://www.w3.org/2000/svg"
   xmlns:sodipodi="http://sodipodi.sourceforge.net/DTD/sodipodi-0.dtd"
   xmlns:inkscape="http://www.inkscape.org/namespaces/inkscape"
   width="48px"
   height="48px"
   viewBox="0 0 48 48"
   version="1.1"
   id="SVGRoot"
   inkscape:version="0.92.4 (5da689c313, 2019-01-14)"
   sodipodi:docname="gaphor.svg">
  <defs
     id="defs815" />
  <sodipodi:namedview
     id="base"
     pagecolor="#ffffff"
     bordercolor="#666666"
     borderopacity="1.0"
     inkscape:pageopacity="0.0"
     inkscape:pageshadow="2"
     inkscape:zoom="16.082807"
     inkscape:cx="23.693699"
     inkscape:cy="25.026752"
     inkscape:document-units="px"
     inkscape:current-layer="layer1"
     showgrid="true"
     inkscape:window-width="1920"
     inkscape:window-height="1017"
     inkscape:window-x="-8"
     inkscape:window-y="-8"
     inkscape:window-maximized="1"
     inkscape:grid-bbox="true"
     inkscape:snap-global="true">
    <inkscape:grid
       type="xygrid"
       id="grid1371" />
  </sodipodi:namedview>
  <metadata
     id="metadata818">
    <rdf:RDF>
      <cc:Work
         rdf:about="">
        <dc:format>image/svg+xml</dc:format>
        <dc:type
           rdf:resource="http://purl.org/dc/dcmitype/StillImage" />
        <dc:title></dc:title>
      </cc:Work>
    </rdf:RDF>
  </metadata>
  <g
     inkscape:label="Layer 1"
     inkscape:groupmode="layer"
     id="layer1">
    <path
       style="fill:none;stroke:#7c8487;stroke-width:2;stroke-linecap:round;stroke-linejoin:round;stroke-miterlimit:4;stroke-dasharray:none;stroke-opacity:1"
       d="m 10,30 v 6 c 0,0 0,3 3,3 2.333333,0 7,0 7,0"
       id="path847"
       inkscape:connector-curvature="0"
       sodipodi:nodetypes="ccsc" />
    <path
       style="fill:#7c8487;stroke:#7c8487;stroke-width:2;stroke-linecap:round;stroke-linejoin:round;stroke-opacity:1;stroke-miterlimit:4;stroke-dasharray:none"
       d="m 17,36 v 6 l 4,-3 z"
       id="path849"
       inkscape:connector-curvature="0" />
    <path
       style="fill:none;stroke:#7c8487;stroke-width:2;stroke-linecap:round;stroke-linejoin:round;stroke-miterlimit:4;stroke-dasharray:none;stroke-opacity:1"
       d="m 20,21 h 13 c 2,0 2,2 2,2 v 2"
       id="path827-6"
       inkscape:connector-curvature="0"
       sodipodi:nodetypes="cscc" />
    <path
       style="fill:none;stroke:#7c8487;stroke-width:2;stroke-linecap:round;stroke-linejoin:round;stroke-miterlimit:4;stroke-dasharray:none;stroke-opacity:1"
       d="m 38,11 h 3 c 2,0 2,2 2,2 v 15"
       id="path827"
       inkscape:connector-curvature="0"
       sodipodi:nodetypes="cscc" />
    <path
       style="color:#000000;font-style:normal;font-variant:normal;font-weight:normal;font-stretch:normal;font-size:medium;line-height:normal;font-family:sans-serif;font-variant-ligatures:normal;font-variant-position:normal;font-variant-caps:normal;font-variant-numeric:normal;font-variant-alternates:normal;font-feature-settings:normal;text-indent:0;text-align:start;text-decoration:none;text-decoration-line:none;text-decoration-style:solid;text-decoration-color:#000000;letter-spacing:normal;word-spacing:normal;text-transform:none;writing-mode:lr-tb;direction:ltr;text-orientation:mixed;dominant-baseline:auto;baseline-shift:baseline;text-anchor:start;white-space:normal;shape-padding:0;clip-rule:nonzero;display:inline;overflow:visible;visibility:visible;opacity:0.25;isolation:auto;mix-blend-mode:normal;color-interpolation:sRGB;color-interpolation-filters:linearRGB;solid-color:#000000;solid-opacity:1;vector-effect:none;fill:#000000;fill-opacity:1;fill-rule:nonzero;stroke:none;stroke-width:2;stroke-linecap:round;stroke-linejoin:miter;stroke-miterlimit:4;stroke-dasharray:none;stroke-dashoffset:0;stroke-opacity:1;color-rendering:auto;image-rendering:auto;shape-rendering:auto;text-rendering:auto;enable-background:accumulate"
       d="M 38 10 A 1.0001 1.0001 0 1 0 38 12 L 41 12 C 41.666667 12 41.724726 12.18578 41.855469 12.447266 C 41.986212 12.708752 42 13 42 13 L 42 28 A 1.0001 1.0001 0 1 0 44 28 L 44 13 C 44 13 44.01379 12.291248 43.644531 11.552734 C 43.275274 10.81422 42.333333 10 41 10 L 38 10 z M 20 20 A 1.0001 1.0001 0 1 0 20 22 L 33 22 C 33.666667 22 33.724726 22.18578 33.855469 22.447266 C 33.986212 22.708752 34 23 34 23 L 34 25 A 1.0001 1.0001 0 1 0 36 25 L 36 23 C 36 23 36.01379 22.291248 35.644531 21.552734 C 35.275274 20.81422 34.333333 20 33 20 L 20 20 z M 9.984375 28.986328 A 1.0001 1.0001 0 0 0 9 30 L 9 36 C 9 36 8.986212 36.958752 9.4804688 37.947266 C 9.9747255 38.93578 11.166667 40 13 40 L 16 40 L 16 42 A 1.0001 1.0001 0 0 0 17.599609 42.800781 L 21.599609 39.800781 A 1.0001 1.0001 0 0 0 21.599609 38.199219 L 17.599609 35.199219 A 1.0001 1.0001 0 0 0 16.943359 35.001953 A 1.0001 1.0001 0 0 0 16 36 L 16 38 L 13 38 C 11.833333 38 11.525274 37.56422 11.269531 37.052734 C 11.013788 36.541248 11 36 11 36 L 11 30 A 1.0001 1.0001 0 0 0 9.984375 28.986328 z M 17 36 L 17.001953 36 L 21 39 L 17 42 L 17 39 L 17 36 z "
       id="path827-6-9-9" />
    <rect
       style="opacity:1;vector-effect:none;fill:#59ca84;fill-opacity:1;fill-rule:evenodd;stroke:none;stroke-width:1px;stroke-linecap:butt;stroke-linejoin:miter;stroke-miterlimit:4;stroke-dasharray:none;stroke-dashoffset:0;stroke-opacity:1;paint-order:normal"
       id="rect818"
       width="22"
       height="20"
       x="22"
       y="24"
       ry="4" />
    <rect
       style="opacity:1;vector-effect:none;fill:#59ca84;fill-opacity:1;fill-rule:evenodd;stroke:none;stroke-width:1px;stroke-linecap:butt;stroke-linejoin:miter;stroke-miterlimit:4;stroke-dasharray:none;stroke-dashoffset:0;stroke-opacity:1;paint-order:normal"
       id="rect823"
       width="16"
       height="14"
       x="20"
       y="4"
       ry="4" />
    <path
       style="color:#000000;font-style:normal;font-variant:normal;font-weight:normal;font-stretch:normal;font-size:medium;line-height:normal;font-family:sans-serif;font-variant-ligatures:normal;font-variant-position:normal;font-variant-caps:normal;font-variant-numeric:normal;font-variant-alternates:normal;font-feature-settings:normal;text-indent:0;text-align:start;text-decoration:none;text-decoration-line:none;text-decoration-style:solid;text-decoration-color:#000000;letter-spacing:normal;word-spacing:normal;text-transform:none;writing-mode:lr-tb;direction:ltr;text-orientation:mixed;dominant-baseline:auto;baseline-shift:baseline;text-anchor:start;white-space:normal;shape-padding:0;clip-rule:nonzero;display:inline;overflow:visible;visibility:visible;opacity:1;isolation:auto;mix-blend-mode:normal;color-interpolation:sRGB;color-interpolation-filters:linearRGB;solid-color:#000000;solid-opacity:1;vector-effect:none;fill:#ffffff;fill-opacity:1;fill-rule:nonzero;stroke:none;stroke-width:2;stroke-linecap:round;stroke-linejoin:round;stroke-miterlimit:4;stroke-dasharray:none;stroke-dashoffset:0;stroke-opacity:1;color-rendering:auto;image-rendering:auto;shape-rendering:auto;text-rendering:auto;enable-background:accumulate"
       d="m 37.984375,9 a 1.0001,1.0001 0 0 0 -0.691406,0.2929688 l -1,1.0000002 a 1.0001,1.0001 0 0 0 0,1.414062 l 1,1 a 1.0001,1.0001 0 0 0 1.414062,0 l 1,-1 a 1.0001,1.0001 0 0 0 0,-1.414062 l -1,-1.0000002 A 1.0001,1.0001 0 0 0 37.984375,9 Z"
       id="path825"
       inkscape:connector-curvature="0" />
    <path
       style="color:#000000;font-style:normal;font-variant:normal;font-weight:normal;font-stretch:normal;font-size:medium;line-height:normal;font-family:sans-serif;font-variant-ligatures:normal;font-variant-position:normal;font-variant-caps:normal;font-variant-numeric:normal;font-variant-alternates:normal;font-feature-settings:normal;text-indent:0;text-align:start;text-decoration:none;text-decoration-line:none;text-decoration-style:solid;text-decoration-color:#000000;letter-spacing:normal;word-spacing:normal;text-transform:none;writing-mode:lr-tb;direction:ltr;text-orientation:mixed;dominant-baseline:auto;baseline-shift:baseline;text-anchor:start;white-space:normal;shape-padding:0;clip-rule:nonzero;display:inline;overflow:visible;visibility:visible;opacity:1;isolation:auto;mix-blend-mode:normal;color-interpolation:sRGB;color-interpolation-filters:linearRGB;solid-color:#000000;solid-opacity:1;vector-effect:none;fill:#ffffff;fill-opacity:1;fill-rule:nonzero;stroke:none;stroke-width:2;stroke-linecap:round;stroke-linejoin:round;stroke-miterlimit:4;stroke-dasharray:none;stroke-dashoffset:0;stroke-opacity:1;color-rendering:auto;image-rendering:auto;shape-rendering:auto;text-rendering:auto;enable-background:accumulate"
       d="m 19.984375,19 a 1.0001,1.0001 0 0 0 -0.691406,0.292969 l -1,1 a 1.0001,1.0001 0 0 0 0,1.414062 l 1,1 a 1.0001,1.0001 0 0 0 1.414062,0 l 1,-1 a 1.0001,1.0001 0 0 0 0,-1.414062 l -1,-1 A 1.0001,1.0001 0 0 0 19.984375,19 Z"
       id="path825-8"
       inkscape:connector-curvature="0" />
    <rect
       style="opacity:1;vector-effect:none;fill:#59ca84;fill-opacity:1;fill-rule:evenodd;stroke:none;stroke-width:1px;stroke-linecap:butt;stroke-linejoin:miter;stroke-miterlimit:4;stroke-dasharray:none;stroke-dashoffset:0;stroke-opacity:1;paint-order:normal"
       id="rect820"
       width="14"
       height="28"
       x="4"
       y="4"
       ry="4" />
    <path
       style="opacity:0.5;vector-effect:none;fill:#ffffff;fill-opacity:1;fill-rule:evenodd;stroke:none;stroke-width:2;stroke-linecap:round;stroke-linejoin:round;stroke-miterlimit:4;stroke-dasharray:none;stroke-dashoffset:0;stroke-opacity:1;paint-order:normal"
       d="M 20 8 L 20 9 L 36 9 L 36 8 L 20 8 z M 4 10 L 4 11 L 18 11 L 18 10 L 4 10 z M 20 13 L 20 14 L 36 14 L 36 13 L 20 13 z M 4 25 L 4 26 L 18 26 L 18 25 L 4 25 z M 22 28 L 22 29 L 44 29 L 44 28 L 22 28 z M 22 38 L 22 39 L 44 39 L 44 38 L 22 38 z "
       id="rect871" />
    <path
       style="opacity:0.5;vector-effect:none;fill:#000000;fill-opacity:1;fill-rule:evenodd;stroke:none;stroke-width:2;stroke-linecap:round;stroke-linejoin:round;stroke-miterlimit:4;stroke-dasharray:none;stroke-dashoffset:0;stroke-opacity:1;paint-order:normal"
       d="M 23 6 L 23 7 L 30 7 L 30 6 L 23 6 z M 7 7 L 7 8 L 13 8 L 13 7 L 7 7 z M 25 26 L 25 27 L 33 27 L 33 26 L 25 26 z "
       id="rect885" />
    <path
       style="opacity:0.25;vector-effect:none;fill:#000000;fill-opacity:1;fill-rule:evenodd;stroke:none;stroke-width:2;stroke-linecap:round;stroke-linejoin:round;stroke-miterlimit:4;stroke-dasharray:none;stroke-dashoffset:0;stroke-opacity:1;paint-order:normal"
       d="M 23 10 L 23 11 L 23 12 L 30 12 L 30 11 L 33 11 L 33 10 L 23 10 z M 6 13 L 6 20 L 6 22 L 13 22 L 13 20 L 16 20 L 16 13 L 6 13 z M 6 28 L 6 29 L 13 29 L 13 28 L 6 28 z M 24 31 L 24 35 L 24 36 L 33 36 L 33 35 L 42 35 L 42 31 L 24 31 z M 25 40 L 25 41 L 35 41 L 35 40 L 25 40 z "
       id="rect889" />
    <path
       style="color:#000000;font-style:normal;font-variant:normal;font-weight:normal;font-stretch:normal;font-size:medium;line-height:normal;font-family:sans-serif;font-variant-ligatures:normal;font-variant-position:normal;font-variant-caps:normal;font-variant-numeric:normal;font-variant-alternates:normal;font-feature-settings:normal;text-indent:0;text-align:start;text-decoration:none;text-decoration-line:none;text-decoration-style:solid;text-decoration-color:#000000;letter-spacing:normal;word-spacing:normal;text-transform:none;writing-mode:lr-tb;direction:ltr;text-orientation:mixed;dominant-baseline:auto;baseline-shift:baseline;text-anchor:start;white-space:normal;shape-padding:0;clip-rule:nonzero;display:inline;overflow:visible;visibility:visible;opacity:0.25;isolation:auto;mix-blend-mode:normal;color-interpolation:sRGB;color-interpolation-filters:linearRGB;solid-color:#000000;solid-opacity:1;vector-effect:none;fill:#000000;fill-opacity:1;fill-rule:nonzero;stroke:none;stroke-width:2;stroke-linecap:round;stroke-linejoin:round;stroke-miterlimit:4;stroke-dasharray:none;stroke-dashoffset:0;stroke-opacity:1;color-rendering:auto;image-rendering:auto;shape-rendering:auto;text-rendering:auto;enable-background:accumulate"
       d="M 37.984375 9 A 1.0001 1.0001 0 0 0 37.292969 9.2929688 L 36.292969 10.292969 A 1.0001 1.0001 0 0 0 36.292969 11.707031 L 37.292969 12.707031 A 1.0001 1.0001 0 0 0 38.707031 12.707031 L 39.707031 11.707031 A 1.0001 1.0001 0 0 0 39.707031 10.292969 L 38.707031 9.2929688 A 1.0001 1.0001 0 0 0 37.984375 9 z M 38 10 L 39 11 L 38 12 L 37 11 L 38 10 z "
       id="path825-82" />
    <path
       style="color:#000000;font-style:normal;font-variant:normal;font-weight:normal;font-stretch:normal;font-size:medium;line-height:normal;font-family:sans-serif;font-variant-ligatures:normal;font-variant-position:normal;font-variant-caps:normal;font-variant-numeric:normal;font-variant-alternates:normal;font-feature-settings:normal;text-indent:0;text-align:start;text-decoration:none;text-decoration-line:none;text-decoration-style:solid;text-decoration-color:#000000;letter-spacing:normal;word-spacing:normal;text-transform:none;writing-mode:lr-tb;direction:ltr;text-orientation:mixed;dominant-baseline:auto;baseline-shift:baseline;text-anchor:start;white-space:normal;shape-padding:0;clip-rule:nonzero;display:inline;overflow:visible;visibility:visible;opacity:0.25;isolation:auto;mix-blend-mode:normal;color-interpolation:sRGB;color-interpolation-filters:linearRGB;solid-color:#000000;solid-opacity:1;vector-effect:none;fill:#000000;fill-opacity:1;fill-rule:nonzero;stroke:none;stroke-width:2;stroke-linecap:round;stroke-linejoin:round;stroke-miterlimit:4;stroke-dasharray:none;stroke-dashoffset:0;stroke-opacity:1;color-rendering:auto;image-rendering:auto;shape-rendering:auto;text-rendering:auto;enable-background:accumulate"
       d="M 19.984375 19 A 1.0001 1.0001 0 0 0 19.292969 19.292969 L 18.292969 20.292969 A 1.0001 1.0001 0 0 0 18.292969 21.707031 L 19.292969 22.707031 A 1.0001 1.0001 0 0 0 20.707031 22.707031 L 21.707031 21.707031 A 1.0001 1.0001 0 0 0 21.707031 20.292969 L 20.707031 19.292969 A 1.0001 1.0001 0 0 0 19.984375 19 z M 20 20 L 21 21 L 20 22 L 19 21 L 20 20 z "
       id="path825-8-5" />
    <path
       style="opacity:0.25;vector-effect:none;fill:#000000;fill-opacity:1;fill-rule:evenodd;stroke:none;stroke-width:2;stroke-linecap:round;stroke-linejoin:round;stroke-miterlimit:4;stroke-dasharray:none;stroke-dashoffset:0;stroke-opacity:1;paint-order:normal"
       d="M 8 4 C 5.784 4 4 5.784 4 8 L 4 28 C 4 30.216 5.784 32 8 32 L 14 32 C 16.216 32 18 30.216 18 28 L 18 8 C 18 5.784 16.216 4 14 4 L 8 4 z M 8 5 L 14 5 C 15.662 5 17 6.338 17 8 L 17 28 C 17 29.662 15.662 31 14 31 L 8 31 C 6.338 31 5 29.662 5 28 L 5 8 C 5 6.338 6.338 5 8 5 z "
       id="rect1033" />
    <path
       style="opacity:0.25;vector-effect:none;fill:#000000;fill-opacity:1;fill-rule:evenodd;stroke:none;stroke-width:2;stroke-linecap:round;stroke-linejoin:round;stroke-miterlimit:4;stroke-dasharray:none;stroke-dashoffset:0;stroke-opacity:1;paint-order:normal"
       d="M 24 4 C 21.784 4 20 5.784 20 8 L 20 14 C 20 16.216 21.784 18 24 18 L 32 18 C 34.216 18 36 16.216 36 14 L 36 8 C 36 5.784 34.216 4 32 4 L 24 4 z M 24 5 L 32 5 C 33.662 5 35 6.338 35 8 L 35 14 C 35 15.662 33.662 17 32 17 L 24 17 C 22.338 17 21 15.662 21 14 L 21 8 C 21 6.338 22.338 5 24 5 z "
       id="rect1038" />
    <path
       style="opacity:0.25;vector-effect:none;fill:#000000;fill-opacity:1;fill-rule:evenodd;stroke:none;stroke-width:2;stroke-linecap:round;stroke-linejoin:round;stroke-miterlimit:4;stroke-dasharray:none;stroke-dashoffset:0;stroke-opacity:1;paint-order:normal"
       d="M 26 24 C 23.784 24 22 25.784 22 28 L 22 40 C 22 42.216 23.784 44 26 44 L 40 44 C 42.216 44 44 42.216 44 40 L 44 28 C 44 25.784 42.216 24 40 24 L 26 24 z M 26 25 L 40 25 C 41.662 25 43 26.338 43 28 L 43 40 C 43 41.662 41.662 43 40 43 L 26 43 C 24.338 43 23 41.662 23 40 L 23 28 C 23 26.338 24.338 25 26 25 z "
       id="rect1043" />
  </g>
</svg>
