<?xml version="1.0" encoding="UTF-8" standalone="no"?>
<!-- Created with Inkscape (http://www.inkscape.org/) -->

<svg
   xmlns:dc="http://purl.org/dc/elements/1.1/"
   xmlns:cc="http://creativecommons.org/ns#"
   xmlns:rdf="http://www.w3.org/1999/02/22-rdf-syntax-ns#"
   xmlns:svg="http://www.w3.org/2000/svg"
   xmlns="http://www.w3.org/2000/svg"
   xmlns:sodipodi="http://sodipodi.sourceforge.net/DTD/sodipodi-0.dtd"
   xmlns:inkscape="http://www.inkscape.org/namespaces/inkscape"
   width="48px"
   height="48px"
   viewBox="0 0 48 48"
   version="1.1"
   id="SVGRoot"
   inkscape:version="0.92.4 (5da689c313, 2019-01-14)"
   sodipodi:docname="glade.svg">
  <defs
     id="defs815" />
  <sodipodi:namedview
     id="base"
     pagecolor="#ffffff"
     bordercolor="#666666"
     borderopacity="1.0"
     inkscape:pageopacity="0.0"
     inkscape:pageshadow="2"
     inkscape:zoom="19.279538"
     inkscape:cx="10.304556"
     inkscape:cy="23.55845"
     inkscape:document-units="px"
     inkscape:current-layer="layer1"
     showgrid="true"
     inkscape:window-width="1920"
     inkscape:window-height="1017"
     inkscape:window-x="-8"
     inkscape:window-y="-8"
     inkscape:window-maximized="1"
     inkscape:grid-bbox="true"
     inkscape:snap-global="true">
    <inkscape:grid
       type="xygrid"
       id="grid1371" />
  </sodipodi:namedview>
  <metadata
     id="metadata818">
    <rdf:RDF>
      <cc:Work
         rdf:about="">
        <dc:format>image/svg+xml</dc:format>
        <dc:type
           rdf:resource="http://purl.org/dc/dcmitype/StillImage" />
        <dc:title></dc:title>
      </cc:Work>
    </rdf:RDF>
  </metadata>
  <g
     inkscape:label="Layer 1"
     inkscape:groupmode="layer"
     id="layer1">
    <rect
       style="opacity:1;vector-effect:none;fill:#efefef;fill-opacity:1;fill-rule:evenodd;stroke:none;stroke-width:4;stroke-linecap:round;stroke-linejoin:round;stroke-miterlimit:4;stroke-dasharray:none;stroke-dashoffset:0;stroke-opacity:1;paint-order:stroke fill markers"
       id="rect1373"
       width="40"
       height="40"
       x="4"
       y="4"
       ry="4" />
    <path
       style="opacity:0.25;vector-effect:none;fill:#000000;fill-opacity:1;fill-rule:evenodd;stroke:none;stroke-width:4;stroke-linecap:round;stroke-linejoin:round;stroke-miterlimit:4;stroke-dasharray:none;stroke-dashoffset:0;stroke-opacity:1;paint-order:stroke fill markers"
       d="M 8 4 C 5.784 4 4 5.784 4 8 L 4 40 C 4 42.216 5.784 44 8 44 L 40 44 C 42.216 44 44 42.216 44 40 L 44 8 C 44 5.784 42.216 4 40 4 L 8 4 z M 8 5 L 40 5 C 41.662 5 43 6.338 43 8 L 43 40 C 43 41.662 41.662 43 40 43 L 8 43 C 6.338 43 5 41.662 5 40 L 5 8 C 5 6.338 6.338 5 8 5 z "
       id="rect826" />
    <path
       style="opacity:0.25;vector-effect:none;fill:#000000;fill-opacity:1;fill-rule:evenodd;paint-order:normal"
       d="M 9.5 9 C 9.223 9 9 9.223 9 9.5 L 9 12 L 7.4472656 12 C 7.1990008 12 7 12.199001 7 12.447266 L 7 12.552734 C 7 12.800999 7.1990008 13 7.4472656 13 L 9 13 L 9 17 L 7.5 17 C 7.223 17 7 17.223 7 17.5 C 7 17.777 7.223 18 7.5 18 L 9 18 L 9 36 L 7.4472656 36 C 7.1990008 36 7 36.199001 7 36.447266 L 7 36.552734 C 7 36.800999 7.1990008 37 7.4472656 37 L 9 37 L 9 40.5 C 9 40.777 9.223 41 9.5 41 C 9.777 41 10 40.777 10 40.5 L 10 37 L 38 37 L 38 40.5 C 38 40.777 38.223 41 38.5 41 C 38.777 41 39 40.777 39 40.5 L 39 37 L 40.552734 37 C 40.800999 37 41 36.800999 41 36.552734 L 41 36.447266 C 41 36.199001 40.800999 36 40.552734 36 L 39 36 L 39 18 L 40.5 18 C 40.777 18 41 17.777 41 17.5 C 41 17.223 40.777 17 40.5 17 L 39 17 L 39 13 L 40.552734 13 C 40.800999 13 41 12.800999 41 12.552734 L 41 12.447266 C 41 12.199001 40.800999 12 40.552734 12 L 39 12 L 39 9.5 C 39 9.223 38.777 9 38.5 9 C 38.223 9 38 9.223 38 9.5 L 38 12 L 10 12 L 10 9.5 C 10 9.223 9.777 9 9.5 9 z M 10 13 L 38 13 L 38 17 L 10 17 L 10 13 z M 10 18 L 38 18 L 38 36 L 10 36 L 10 18 z M 15 20 C 13.338 20 12 21.338 12 23 C 12 24.662 13.338 26 15 26 C 16.662 26 18 24.662 18 23 C 18 21.338 16.662 20 15 20 z M 15 21 C 16.108 21 17 21.892 17 23 C 17 24.108 16.108 25 15 25 C 13.892 25 13 24.108 13 23 C 13 21.892 13.892 21 15 21 z M 15 22 C 14.446 22 14 22.446 14 23 C 14 23.554 14.446 24 15 24 C 15.554 24 16 23.554 16 23 C 16 22.446 15.554 22 15 22 z M 15 28 C 13.338 28 12 29.338 12 31 C 12 32.662 13.338 34 15 34 C 16.662 34 18 32.662 18 31 C 18 29.338 16.662 28 15 28 z M 15 29 C 16.108 29 17 29.892 17 31 C 17 32.108 16.108 33 15 33 C 13.892 33 13 32.108 13 31 C 13 29.892 13.892 29 15 29 z M 22 30 L 22 34 L 36 34 L 36 30 L 22 30 z M 23 31 L 35 31 L 35 33 L 23 33 L 23 31 z "
       id="rect925" />
    <path
       style="color:#000000;font-style:normal;font-variant:normal;font-weight:normal;font-stretch:normal;font-size:medium;line-height:normal;font-family:sans-serif;font-variant-ligatures:normal;font-variant-position:normal;font-variant-caps:normal;font-variant-numeric:normal;font-variant-alternates:normal;font-feature-settings:normal;text-indent:0;text-align:start;text-decoration:none;text-decoration-line:none;text-decoration-style:solid;text-decoration-color:#000000;letter-spacing:normal;word-spacing:normal;text-transform:none;writing-mode:lr-tb;direction:ltr;text-orientation:mixed;dominant-baseline:auto;baseline-shift:baseline;text-anchor:start;white-space:normal;shape-padding:0;clip-rule:nonzero;display:inline;overflow:visible;visibility:visible;opacity:1;isolation:auto;mix-blend-mode:normal;color-interpolation:sRGB;color-interpolation-filters:linearRGB;solid-color:#000000;solid-opacity:1;vector-effect:none;fill:#96d56b;fill-opacity:1;fill-rule:nonzero;stroke:none;stroke-width:2;stroke-linecap:round;stroke-linejoin:round;stroke-miterlimit:4;stroke-dasharray:none;stroke-dashoffset:0;stroke-opacity:1;color-rendering:auto;image-rendering:auto;shape-rendering:auto;text-rendering:auto;enable-background:accumulate"
       d="M 42.970703 16 A 1.0001 1.0001 0 0 0 42.455078 16.162109 L 2.4550781 42.162109 A 1.0001 1.0001 0 0 0 3 44 L 36 44 L 38 44 L 40 44 C 42.216 44 44 42.216 44 40 L 44 38 L 44 36 L 44 17 A 1.0001 1.0001 0 0 0 42.970703 16 z M 38 26 L 38 36 C 38 36 38 38 36 38 L 19 38 L 38 26 z "
       id="path836" />
    <path
       style="color:#000000;font-style:normal;font-variant:normal;font-weight:normal;font-stretch:normal;font-size:medium;line-height:normal;font-family:sans-serif;font-variant-ligatures:normal;font-variant-position:normal;font-variant-caps:normal;font-variant-numeric:normal;font-variant-alternates:normal;font-feature-settings:normal;text-indent:0;text-align:start;text-decoration:none;text-decoration-line:none;text-decoration-style:solid;text-decoration-color:#000000;letter-spacing:normal;word-spacing:normal;text-transform:none;writing-mode:lr-tb;direction:ltr;text-orientation:mixed;dominant-baseline:auto;baseline-shift:baseline;text-anchor:start;white-space:normal;shape-padding:0;clip-rule:nonzero;display:inline;overflow:visible;visibility:visible;opacity:0.25;isolation:auto;mix-blend-mode:normal;color-interpolation:sRGB;color-interpolation-filters:linearRGB;solid-color:#000000;solid-opacity:1;vector-effect:none;fill:#000000;fill-opacity:1;fill-rule:nonzero;stroke:none;stroke-width:2;stroke-linecap:square;stroke-linejoin:miter;stroke-miterlimit:4;stroke-dasharray:none;stroke-dashoffset:0;stroke-opacity:1;color-rendering:auto;image-rendering:auto;shape-rendering:auto;text-rendering:auto;enable-background:accumulate"
       d="M 42.970703 16 A 1.0001 1.0001 0 0 0 42.455078 16.162109 L 2.4550781 42.162109 A 1.0001 1.0001 0 0 0 3 44 L 36 44 L 38 44 L 40 44 C 42.216 44 44 42.216 44 40 L 44 38 L 44 36 L 44 17 A 1.0001 1.0001 0 0 0 42.970703 16 z M 43 17 L 43 36 L 43 38 L 43 40 C 43 41.679297 41.679297 43 40 43 L 38 43 L 36 43 L 3.0019531 43 L 43 17 z M 39 24.185547 L 37.466797 25.154297 L 15.544922 39 L 36 39 C 37.333333 39 38.275274 38.18578 38.644531 37.447266 C 39.013788 36.708752 39 36 39 36 L 39 24.185547 z M 38 26 L 38 36 C 38 36 38 38 36 38 L 19 38 L 38 26 z "
       id="path836-5" />
  </g>
</svg>
