<?xml version="1.0" encoding="UTF-8" standalone="no"?>
<!-- Created with Inkscape (http://www.inkscape.org/) -->

<svg
   xmlns:dc="http://purl.org/dc/elements/1.1/"
   xmlns:cc="http://creativecommons.org/ns#"
   xmlns:rdf="http://www.w3.org/1999/02/22-rdf-syntax-ns#"
   xmlns:svg="http://www.w3.org/2000/svg"
   xmlns="http://www.w3.org/2000/svg"
   xmlns:sodipodi="http://sodipodi.sourceforge.net/DTD/sodipodi-0.dtd"
   xmlns:inkscape="http://www.inkscape.org/namespaces/inkscape"
   width="48px"
   height="48px"
   viewBox="0 0 48 48"
   version="1.1"
   id="SVGRoot"
   inkscape:version="0.92.4 (5da689c313, 2019-01-14)"
   sodipodi:docname="gnome-contacts.svg">
  <defs
     id="defs815" />
  <sodipodi:namedview
     id="base"
     pagecolor="#ffffff"
     bordercolor="#666666"
     borderopacity="1.0"
     inkscape:pageopacity="0.0"
     inkscape:pageshadow="2"
     inkscape:zoom="23.48475"
     inkscape:cx="20.66583"
     inkscape:cy="23.392054"
     inkscape:document-units="px"
     inkscape:current-layer="layer1"
     showgrid="true"
     inkscape:window-width="1920"
     inkscape:window-height="1017"
     inkscape:window-x="-8"
     inkscape:window-y="-8"
     inkscape:window-maximized="1"
     inkscape:grid-bbox="true"
     showguides="true"
     inkscape:guide-bbox="true">
    <inkscape:grid
       type="xygrid"
       id="grid1371" />
  </sodipodi:namedview>
  <metadata
     id="metadata818">
    <rdf:RDF>
      <cc:Work
         rdf:about="">
        <dc:format>image/svg+xml</dc:format>
        <dc:type
           rdf:resource="http://purl.org/dc/dcmitype/StillImage" />
        <dc:title />
      </cc:Work>
    </rdf:RDF>
  </metadata>
  <g
     inkscape:label="Layer 1"
     inkscape:groupmode="layer"
     id="layer1">
    <rect
       style="opacity:1;vector-effect:none;fill:#e5a771;fill-opacity:1;fill-rule:evenodd;stroke:none;stroke-width:4;stroke-linecap:round;stroke-linejoin:round;stroke-miterlimit:4;stroke-dasharray:none;stroke-dashoffset:0;stroke-opacity:1;paint-order:stroke fill markers"
       id="rect1373"
       width="40"
       height="40"
       x="4"
       y="4"
       ry="4" />
    <path
       inkscape:connector-curvature="0"
       style="opacity:0.25;vector-effect:none;fill:#000000;fill-opacity:1;fill-rule:evenodd;stroke:none;stroke-width:8;stroke-linecap:round;stroke-linejoin:round;stroke-miterlimit:4;stroke-dasharray:none;stroke-opacity:1;paint-order:stroke fill markers"
       d="M 8,4 C 5.784,4 4,5.784 4,8 v 32 c 0,2.216 1.784,4 4,4 h 32 c 2.216,0 4,-1.784 4,-4 V 8 C 44,5.784 42.216,4 40,4 Z m 0,1 h 32 c 1.662,0 3,1.338 3,3 v 32 c 0,1.662 -1.338,3 -3,3 H 8 C 6.338,43 5,41.662 5,40 V 8 C 5,6.338 6.338,5 8,5 Z"
       id="rect832" />
    <path
       style="opacity:1;vector-effect:none;fill:#7d4836;fill-opacity:1;fill-rule:evenodd;stroke:none;stroke-width:2;stroke-linecap:round;stroke-linejoin:round;stroke-miterlimit:4;stroke-dasharray:none;stroke-dashoffset:0;stroke-opacity:1;paint-order:stroke fill markers"
       d="M 8,4 C 5.784,4 4,5.784 4,8 v 32 c 0,2.216 1.784,4 4,4 h 2 V 40 8 4 Z"
       id="rect875"
       inkscape:connector-curvature="0"
       sodipodi:nodetypes="ssssccccs" />
    <path
       style="opacity:0.4;vector-effect:none;fill:#000000;fill-opacity:1;fill-rule:evenodd;stroke:none;stroke-width:8;stroke-linecap:round;stroke-linejoin:round;stroke-miterlimit:4;stroke-dasharray:none;stroke-opacity:1;paint-order:stroke fill markers"
       d="M 8,4 C 5.784,4 4,5.784 4,8 v 32 c 0,2.216 1.784,4 4,4 h 2 V 43 5 4 Z M 8,5 H 9 V 43 H 8 C 6.338,43 5,41.662 5,40 V 8 C 5,6.338 6.338,5 8,5 Z"
       id="rect832-9"
       inkscape:connector-curvature="0"
       sodipodi:nodetypes="ssssccccssccssss" />
    <path
       inkscape:connector-curvature="0"
       style="fill:#7d4836;stroke:none;stroke-width:1.00032973px;stroke-linecap:butt;stroke-linejoin:miter;stroke-opacity:1;opacity:1"
       d="m 27,12.796645 c -3.324,0 -6,2.677765 -6,6.003957 v 1.000659 C 21,22.031223 22.205548,23.964446 24,25 v 1.805878 c 0,0 -6,1.000659 -7,2.001319 -0.923402,0.924011 -0.990676,4.442695 -0.996094,4.840253 -2.25e-4,0.0082 -0.0039,0.01519 -0.0039,0.02345 v 0.125083 0.125082 c 0,0.485427 0.389893,0.875577 0.875,0.875577 h 20.25 c 0.485107,0 0.875,-0.39015 0.875,-0.875577 V 33.795983 33.6709 c 0,-0.0083 -0.0037,-0.01524 -0.0039,-0.02345 C 37.9907,33.249892 37.9234,29.731208 37,28.807197 36,27.806537 30,26.805878 30,26.805878 V 25 c 1.794452,-1.035554 3,-2.968777 3,-5.198739 v -1.000659 c 0,-3.326192 -2.676,-6.003957 -6,-6.003957 z"
       id="path828-9"
       sodipodi:nodetypes="sssccscscsssscscsccsss" />
  </g>
</svg>
