<?xml version="1.0" encoding="UTF-8" standalone="no"?>
<!-- Created with Inkscape (http://www.inkscape.org/) -->

<svg
   xmlns:dc="http://purl.org/dc/elements/1.1/"
   xmlns:cc="http://creativecommons.org/ns#"
   xmlns:rdf="http://www.w3.org/1999/02/22-rdf-syntax-ns#"
   xmlns:svg="http://www.w3.org/2000/svg"
   xmlns="http://www.w3.org/2000/svg"
   xmlns:sodipodi="http://sodipodi.sourceforge.net/DTD/sodipodi-0.dtd"
   xmlns:inkscape="http://www.inkscape.org/namespaces/inkscape"
   width="48px"
   height="48px"
   viewBox="0 0 48 48"
   version="1.1"
   id="SVGRoot"
   inkscape:version="0.92.4 (5da689c313, 2019-01-14)"
   sodipodi:docname="gnome-sticky-notes-applet.svg">
  <defs
     id="defs815" />
  <sodipodi:namedview
     id="base"
     pagecolor="#ffffff"
     bordercolor="#666666"
     borderopacity="1.0"
     inkscape:pageopacity="0.0"
     inkscape:pageshadow="2"
     inkscape:zoom="2.7884529"
     inkscape:cx="32.531681"
     inkscape:cy="24.26686"
     inkscape:document-units="px"
     inkscape:current-layer="layer1"
     showgrid="true"
     inkscape:window-width="725"
     inkscape:window-height="405"
     inkscape:window-x="916"
     inkscape:window-y="363"
     inkscape:window-maximized="0"
     inkscape:grid-bbox="true"
     inkscape:snap-global="false">
    <inkscape:grid
       type="xygrid"
       id="grid1371" />
  </sodipodi:namedview>
  <metadata
     id="metadata818">
    <rdf:RDF>
      <cc:Work
         rdf:about="">
        <dc:format>image/svg+xml</dc:format>
        <dc:type
           rdf:resource="http://purl.org/dc/dcmitype/StillImage" />
        <dc:title></dc:title>
      </cc:Work>
    </rdf:RDF>
  </metadata>
  <g
     inkscape:label="Layer 1"
     inkscape:groupmode="layer"
     id="layer1">
    <rect
       style="opacity:1;vector-effect:none;fill:#ffdd75;fill-opacity:1;fill-rule:evenodd;stroke:none;stroke-width:4;stroke-linecap:round;stroke-linejoin:round;stroke-miterlimit:4;stroke-dasharray:none;stroke-dashoffset:0;stroke-opacity:1;paint-order:stroke fill markers"
       id="rect1373"
       width="40"
       height="40"
       x="4"
       y="4"
       ry="4" />
    <path
       style="opacity:0.4;vector-effect:none;fill:#ffffff;fill-opacity:1;fill-rule:evenodd;stroke:none;stroke-width:2;stroke-linecap:round;stroke-linejoin:round;stroke-miterlimit:4;stroke-dasharray:none;stroke-opacity:1;paint-order:normal"
       d="M 8 4 C 5.784 4 4 5.784 4 8 L 4 10 L 44 10 L 44 8 C 44 5.784 42.216 4 40 4 L 8 4 z "
       id="rect875" />
    <path
       style="fill:#d69530;stroke:none;stroke-width:1px;stroke-linecap:butt;stroke-linejoin:miter;stroke-opacity:1;fill-opacity:1"
       d="M 44 21 C 44 21 41 39 40 40 C 39 41 23 44 23 44 L 40 44 C 42.216 44 44 42.216 44 40 L 44 21 z "
       id="path828" />
    <path
       style="opacity:0.25;vector-effect:none;fill:#000000;fill-opacity:1;fill-rule:evenodd;stroke:none;stroke-width:4;stroke-linecap:round;stroke-linejoin:round;stroke-miterlimit:4;stroke-dasharray:none;stroke-dashoffset:0;stroke-opacity:1;paint-order:stroke fill markers"
       d="M 8 4 C 5.784 4 4 5.784 4 8 L 4 40 C 4 42.216 5.784 44 8 44 L 40 44 C 42.216 44 44 42.216 44 40 L 44 8 C 44 5.784 42.216 4 40 4 L 8 4 z M 8 5 L 40 5 C 41.662 5 43 6.338 43 8 L 43 40 C 43 41.662 41.662 43 40 43 L 8 43 C 6.338 43 5 41.662 5 40 L 5 8 C 5 6.338 6.338 5 8 5 z "
       id="rect826" />
    <path
       style="fill:#4e4e4e;stroke:none;stroke-width:1px;stroke-linecap:butt;stroke-linejoin:miter;stroke-opacity:1"
       d="m 9.045757,22.598348 c 0.4200929,0.307407 -0.5198593,1.332236 -0.023328,1.488547 1.131757,0.356285 2.531036,-1.088506 3.410919,-2.090563 0.830502,-0.94582 1.618215,-2.787024 1.540414,-3.447595 -0.110916,-0.941726 -0.924958,-1.487759 -0.403441,-1.833827 0.511572,-0.33947 0.873746,-0.07105 1.503738,0.830211 0.266089,0.380667 1.19809,2.204264 1.79715,4.56124 1.934315,-2.681834 3.936661,-5.045396 6.748484,-5.061362 2.219327,-0.0126 2.659049,1.705459 2.659049,1.705459 0,0 -0.03338,0.644697 -0.275074,0.678516 -0.245831,0.0344 -0.458457,-0.586825 -0.458457,-0.586825 0,0 -0.404378,-1.097557 -1.998871,-1.026943 -1.727803,0.07652 -3.866239,2.252567 -5.496331,4.665364 -0.634832,0.939653 -1.192565,1.915212 -1.618918,2.816651 -0.125669,0.265701 -0.337774,0.692418 -0.623501,0.623501 -0.38712,-0.09337 -0.482745,-0.756014 -0.366766,-1.136973 0.3223,-1.058667 0.262097,-1.557387 0.165584,-2.325814 -0.174149,-1.386551 -0.642379,-1.708606 -0.642379,-1.708606 0,0 -1.077622,1.375932 -1.760474,1.907181 C 11.908252,23.664238 10.4923,25.286659 8.8757231,25.003808 7.925286,24.837511 7.6358353,24.001565 7.7843261,23.338172 7.9192815,22.735249 8.5471519,22.23349 9.045757,22.598348 Z"
       id="path911"
       inkscape:connector-curvature="0"
       sodipodi:nodetypes="sssssscscscsssssscssss" />
    <path
       style="opacity:1;fill:#4e4e4e;stroke:none;stroke-width:1px;stroke-linecap:butt;stroke-linejoin:miter;stroke-opacity:1"
       d="m 29.695312,18.298828 c -0.238808,0.0057 -0.550563,0.246924 -0.726562,0.421875 -0.694441,0.690307 -2.265625,2.269531 -2.265625,2.269531 0,0 -0.924107,0.207181 -1.521484,0.400391 -0.133897,0.04331 0.04451,0.261589 0.3125,0.287109 0.163284,0.01555 0.621093,-0.04687 0.621093,-0.04687 0,0 -0.983226,1.331627 -1.9375,2.03711 -0.307122,0.227048 -1.354023,0.363133 -1.408203,0.162109 -0.08251,-0.306116 -0.07735,-0.6342 -0.18164,-0.933594 -0.08649,-0.248287 -0.09968,-0.675391 -0.361329,-0.701172 -0.275432,-0.02713 -0.652076,0.286968 -0.519531,0.648438 0.125315,0.341752 0.100232,0.77253 -0.07813,1.089844 -0.323949,0.576335 -0.954212,1.008334 -1.607422,0.90625 -0.28989,-0.0453 -0.391461,-0.303647 -0.363281,-0.595703 0.04606,-0.477313 0.528167,-0.573997 0.933594,-0.830079 0.186769,-0.117969 0.556602,-0.115456 0.570312,-0.335937 0.01491,-0.239886 -0.330912,-0.462746 -0.570312,-0.441406 -0.693207,0.06179 -1.49836,0.723627 -1.867188,1.607422 -0.03153,0.59213 0.453864,1.189935 1.03711,1.296875 0.890991,0.163367 1.775011,-0.574508 2.568359,-1.011719 0.36914,-0.203432 1.383872,-0.270966 1.388672,0.210937 0.0042,0.419527 0.436755,0.972612 1.230469,1.033204 1.06863,0.08158 2.8125,-0.933594 2.8125,-0.933594 0,0 0.148989,0.653982 1.699219,0.726562 0.779332,0.03648 2.255859,-0.621094 2.255859,-0.621094 0,10e-7 0.329617,0.837974 1.505859,0.517579 0.66857,-0.182111 1.140625,-1.738282 1.140625,-1.738282 0,0 0.873396,-0.449688 1.478516,-1.009765 0.236869,-0.219241 0.399663,-0.650638 0.162109,-0.869141 -0.07897,-0.07263 -0.587309,0.270584 -0.863281,0.453125 -0.519934,0.343908 -1.009796,0.582067 -1.530707,0.842603 -0.610366,0.305279 -1.865777,0.842944 -1.865777,0.842944 0,0 -0.007,-0.363518 0,-0.544922 0.0073,-0.189505 -0.14627,-0.333227 -0.285157,-0.310547 -0.168054,0.02744 -0.247094,0.284756 -0.208984,0.466797 0.03961,0.189202 0.103516,0.570313 0.103516,0.570313 0,0 -0.959333,0.675847 -1.554688,0.648437 -1.357863,-0.06251 -1.115234,-0.623047 -1.115234,-0.623047 0,0 1.520376,-0.434232 1.660156,-1.037109 0.08398,-0.362216 -0.287347,-0.81756 -0.648438,-0.90625 -0.724617,-0.177986 -1.318895,0.395668 -1.777343,0.984375 -0.217768,0.279643 -0.453125,1.064453 -0.453125,1.064453 0,0 -1.666288,1.063597 -2.308594,0.595703 -0.237981,-0.17336 -0.237645,-0.651737 -0.05273,-0.880859 0.874319,-1.083365 2.333984,-2.439453 2.333984,-2.439453 0,0 10.07754,-0.421074 12.292969,-0.285157 0.4815,0.02954 -0.242783,-0.848268 -1.166016,-0.855468 -3.665576,-0.02867 -10.892578,0.570312 -10.892578,0.570312 0,0 1.205071,-1.291497 1.945313,-2.021484 0.156929,-0.154755 0.433053,-0.434248 0.285156,-0.597657 -0.05551,-0.06133 -0.127429,-0.08587 -0.207032,-0.08398 z m -0.380859,4.63086 c 0.116418,0.02427 0.222911,0.08123 0.289063,0.173828 0.133356,0.186671 -0.292199,0.383259 -0.50586,0.466796 -0.201281,0.0787 -0.634451,0.215667 -0.648437,0 -0.01082,-0.166769 0.262996,-0.538618 0.519531,-0.623046 0.103563,-0.03408 0.229285,-0.04185 0.345703,-0.01758 z m 4.308594,0.822265 c 0,0 0.02008,0.779267 -0.738281,1.050781 -0.420887,0.150688 -0.937879,-0.06797 -0.740235,-0.234375 0.696173,-0.586138 1.478516,-0.816406 1.478516,-0.816406 z"
       id="path913"
       inkscape:connector-curvature="0"
       sodipodi:nodetypes="ssccccccscsscccccccscscccsccccscccccccccsccscsccscscccccccscc" />
  </g>
</svg>
