<?xml version="1.0" encoding="UTF-8" standalone="no"?>
<!-- Created with Inkscape (http://www.inkscape.org/) -->

<svg
   xmlns:dc="http://purl.org/dc/elements/1.1/"
   xmlns:cc="http://creativecommons.org/ns#"
   xmlns:rdf="http://www.w3.org/1999/02/22-rdf-syntax-ns#"
   xmlns:svg="http://www.w3.org/2000/svg"
   xmlns="http://www.w3.org/2000/svg"
   xmlns:sodipodi="http://sodipodi.sourceforge.net/DTD/sodipodi-0.dtd"
   xmlns:inkscape="http://www.inkscape.org/namespaces/inkscape"
   width="48px"
   height="48px"
   viewBox="0 0 48 48"
   version="1.1"
   id="SVGRoot"
   inkscape:version="0.92.4 (5da689c313, 2019-01-14)"
   sodipodi:docname="gnome-session.svg">
  <defs
     id="defs815" />
  <sodipodi:namedview
     id="base"
     pagecolor="#ffffff"
     bordercolor="#666666"
     borderopacity="1.0"
     inkscape:pageopacity="0.0"
     inkscape:pageshadow="2"
     inkscape:zoom="7.7616452"
     inkscape:cx="25.448357"
     inkscape:cy="28.905166"
     inkscape:document-units="px"
     inkscape:current-layer="layer1"
     showgrid="true"
     inkscape:window-width="725"
     inkscape:window-height="405"
     inkscape:window-x="434"
     inkscape:window-y="209"
     inkscape:window-maximized="0"
     inkscape:grid-bbox="true"
     inkscape:snap-global="false">
    <inkscape:grid
       type="xygrid"
       id="grid1371" />
  </sodipodi:namedview>
  <metadata
     id="metadata818">
    <rdf:RDF>
      <cc:Work
         rdf:about="">
        <dc:format>image/svg+xml</dc:format>
        <dc:type
           rdf:resource="http://purl.org/dc/dcmitype/StillImage" />
        <dc:title></dc:title>
      </cc:Work>
    </rdf:RDF>
  </metadata>
  <g
     inkscape:label="Layer 1"
     inkscape:groupmode="layer"
     id="layer1">
    <rect
       style="opacity:1;vector-effect:none;fill:#b7bfc2;fill-opacity:1;fill-rule:evenodd;stroke:none;stroke-width:4;stroke-linecap:round;stroke-linejoin:round;stroke-miterlimit:4;stroke-dasharray:none;stroke-dashoffset:0;stroke-opacity:1;paint-order:stroke fill markers"
       id="rect1373"
       width="40"
       height="40"
       x="4"
       y="4"
       ry="4" />
    <rect
       style="opacity:1;vector-effect:none;fill:#729dec;fill-opacity:1;fill-rule:evenodd;stroke:none;stroke-width:2;stroke-linecap:round;stroke-linejoin:round;stroke-miterlimit:4;stroke-dasharray:none;stroke-dashoffset:0;stroke-opacity:1;paint-order:stroke fill markers"
       id="rect821"
       width="32"
       height="32"
       x="8"
       y="8"
       ry="1" />
    <path
       inkscape:connector-curvature="0"
       style="opacity:0.25;vector-effect:none;fill:#000000;fill-opacity:1;fill-rule:evenodd;paint-order:stroke fill markers"
       d="M 9,8 C 8.446,8 8,8.446 8,9 v 30 c 0,0.554 0.446,1 1,1 h 30 c 0.554,0 1,-0.446 1,-1 V 9 C 40,8.446 39.554,8 39,8 Z m 0.5,1 h 29 C 38.777,9 39,9.223 39,9.5 v 29 C 39,38.777 38.777,39 38.5,39 H 9.5 C 9.223,39 9,38.777 9,38.5 V 9.5 C 9,9.223 9.223,9 9.5,9 Z"
       id="rect910" />
    <path
       inkscape:connector-curvature="0"
       style="opacity:0.25;vector-effect:none;fill:#000000;fill-opacity:1;fill-rule:evenodd;stroke:none;stroke-width:4;stroke-linecap:round;stroke-linejoin:round;stroke-miterlimit:4;stroke-dasharray:none;stroke-dashoffset:0;stroke-opacity:1;paint-order:stroke fill markers"
       d="M 8,4 C 5.784,4 4,5.784 4,8 v 32 c 0,2.216 1.784,4 4,4 h 32 c 2.216,0 4,-1.784 4,-4 V 8 C 44,5.784 42.216,4 40,4 Z m 0,1 h 32 c 1.662,0 3,1.338 3,3 v 32 c 0,1.662 -1.338,3 -3,3 H 8 C 6.338,43 5,41.662 5,40 V 8 C 5,6.338 6.338,5 8,5 Z"
       id="rect822-3" />
    <path
       inkscape:connector-curvature="0"
       style="opacity:0.4;fill:#000000;stroke:none;stroke-width:1.00032973px;stroke-linecap:butt;stroke-linejoin:miter;stroke-opacity:1"
       d="m 24,13 c -3.324,0 -6,2.677765 -6,6.003957 v 1.000659 c 0,2.229962 1.205548,4.163185 3,5.198739 v 1.805878 c 0,0 -4.993748,1.000659 -5.993748,2.001319 -0.923402,0.924011 -0.990676,3.436443 -0.996094,3.834001 -2.25e-4,0.0082 -0.0039,0.01519 -0.0039,0.02345 v 0.125083 0.125082 c 0,0.485427 0.389893,0.875577 0.875,0.875577 H 33.08148 c 0.485107,0 0.736387,-0.410361 0.875,-0.875577 v -0.125082 -0.125083 c 0,-0.0083 -0.0037,-0.01524 -0.0039,-0.02345 -0.0054,-0.397561 -0.0727,-2.909993 -0.9961,-3.834004 C 31.95648,28.009892 27,27.009233 27,27.009233 v -1.805878 c 1.794452,-1.035554 3,-2.968777 3,-5.198739 V 19.003957 C 30,15.677765 27.324,13 24,13 Z"
       id="path828-9"
       sodipodi:nodetypes="sssccscscsssscscsccsss" />
  </g>
</svg>
