<?xml version="1.0" encoding="UTF-8" standalone="no"?>
<!-- Created with Inkscape (http://www.inkscape.org/) -->

<svg
   xmlns:dc="http://purl.org/dc/elements/1.1/"
   xmlns:cc="http://creativecommons.org/ns#"
   xmlns:rdf="http://www.w3.org/1999/02/22-rdf-syntax-ns#"
   xmlns:svg="http://www.w3.org/2000/svg"
   xmlns="http://www.w3.org/2000/svg"
   xmlns:sodipodi="http://sodipodi.sourceforge.net/DTD/sodipodi-0.dtd"
   xmlns:inkscape="http://www.inkscape.org/namespaces/inkscape"
   width="48px"
   height="48px"
   viewBox="0 0 48 48"
   version="1.1"
   id="SVGRoot"
   inkscape:version="0.92.4 (5da689c313, 2019-01-14)"
   sodipodi:docname="goa-panel.svg">
  <defs
     id="defs815">
    <inkscape:perspective
       id="perspective854"
       inkscape:persp3d-origin="24 : 16 : 1"
       inkscape:vp_z="48 : 24 : 1"
       inkscape:vp_y="0 : 1000 : 0"
       inkscape:vp_x="0 : 24 : 1"
       sodipodi:type="inkscape:persp3d" />
  </defs>
  <sodipodi:namedview
     id="base"
     pagecolor="#ffffff"
     bordercolor="#666666"
     borderopacity="1.0"
     inkscape:pageopacity="0.0"
     inkscape:pageshadow="2"
     inkscape:zoom="5.8711872"
     inkscape:cx="-1.8154005"
     inkscape:cy="18.408817"
     inkscape:document-units="px"
     inkscape:current-layer="layer1"
     showgrid="true"
     inkscape:window-width="1920"
     inkscape:window-height="1017"
     inkscape:window-x="-8"
     inkscape:window-y="-8"
     inkscape:window-maximized="1"
     inkscape:grid-bbox="true"
     inkscape:snap-global="true">
    <inkscape:grid
       type="xygrid"
       id="grid1371" />
  </sodipodi:namedview>
  <metadata
     id="metadata818">
    <rdf:RDF>
      <cc:Work
         rdf:about="">
        <dc:format>image/svg+xml</dc:format>
        <dc:type
           rdf:resource="http://purl.org/dc/dcmitype/StillImage" />
        <dc:title />
      </cc:Work>
    </rdf:RDF>
  </metadata>
  <g
     inkscape:label="Layer 1"
     inkscape:groupmode="layer"
     id="layer1">
    <rect
       style="opacity:1;vector-effect:none;fill:#71b9e3;fill-opacity:1;fill-rule:evenodd;stroke:none;stroke-width:4;stroke-linecap:round;stroke-linejoin:round;stroke-miterlimit:4;stroke-dasharray:none;stroke-dashoffset:0;stroke-opacity:1;paint-order:stroke fill markers"
       id="rect1373"
       width="40"
       height="40"
       x="4"
       y="4"
       ry="4" />
    <path
       inkscape:connector-curvature="0"
       style="opacity:0.5;fill:#ffffff;stroke:none;stroke-width:1px;stroke-linecap:butt;stroke-linejoin:miter;stroke-opacity:1"
       d="M 8,4 C 5.784,4 4,5.784 4,8 v 11 l 12,12 v 5 c 0,5 6,5 6,5 v 3 h 18 c 2.216,0 4,-1.784 4,-4 0,0 0,-6 -6,-6 h -6 v -6 c 0,0 0,-4 -4,-4 H 15 v -3 h 3 c 4,0 4,-4 4,-4 v -7 h 7 c 3,0 3,-3 3,-3 V 4 Z"
       id="path874" />
    <path
       style="opacity:0.25;vector-effect:none;fill:#000000;fill-opacity:1;fill-rule:evenodd;stroke:none;stroke-width:4;stroke-linecap:round;stroke-linejoin:round;stroke-miterlimit:4;stroke-dasharray:none;stroke-dashoffset:0;stroke-opacity:1;paint-order:stroke fill markers"
       d="M 8 4 C 5.784 4 4 5.784 4 8 L 4 40 C 4 42.216 5.784 44 8 44 L 40 44 C 42.216 44 44 42.216 44 40 L 44 8 C 44 5.784 42.216 4 40 4 L 8 4 z M 8 5 L 40 5 C 41.662 5 43 6.338 43 8 L 43 40 C 43 41.662 41.662 43 40 43 L 8 43 C 6.338 43 5 41.662 5 40 L 5 8 C 5 6.338 6.338 5 8 5 z "
       id="rect826" />
    <path
       inkscape:connector-curvature="0"
       style="fill:#4e4e4e;stroke:none;stroke-width:1.00032973px;stroke-linecap:butt;stroke-linejoin:miter;stroke-opacity:1"
       d="m 24,13 c -3.324,0 -6,2.677765 -6,6.003957 v 1.000659 c 0,2.229962 1.205548,4.163185 3,5.198739 v 1.805878 c 0,0 -5.027254,1.000659 -6.027254,2.001319 -0.923402,0.924011 -0.990676,3.469949 -0.996094,3.867507 -2.25e-4,0.0082 -0.0039,0.01519 -0.0039,0.02345 v 0.125083 0.125082 c 0,0.485427 0.389893,0.875577 0.875,0.875577 H 33.15226 c 0.485107,0 0.875,-0.39015 0.875,-0.875577 v -0.125082 -0.125083 c 0,-0.0083 -0.0037,-0.01524 -0.0039,-0.02345 -0.0054,-0.397561 -0.0727,-2.943499 -0.9961,-3.86751 C 32.027254,28.009892 27,27.009233 27,27.009233 v -1.805878 c 1.794452,-1.035554 3,-2.968777 3,-5.198739 V 19.003957 C 30,15.677765 27.324,13 24,13 Z"
       id="path828-9"
       sodipodi:nodetypes="sssccscscsssscscsccsss" />
  </g>
</svg>
