<?xml version="1.0" encoding="UTF-8" standalone="no"?>
<!-- Created with Inkscape (http://www.inkscape.org/) -->

<svg
   xmlns:dc="http://purl.org/dc/elements/1.1/"
   xmlns:cc="http://creativecommons.org/ns#"
   xmlns:rdf="http://www.w3.org/1999/02/22-rdf-syntax-ns#"
   xmlns:svg="http://www.w3.org/2000/svg"
   xmlns="http://www.w3.org/2000/svg"
   xmlns:sodipodi="http://sodipodi.sourceforge.net/DTD/sodipodi-0.dtd"
   xmlns:inkscape="http://www.inkscape.org/namespaces/inkscape"
   width="48px"
   height="48px"
   viewBox="0 0 48 48"
   version="1.1"
   id="SVGRoot"
   inkscape:version="0.92.4 (5da689c313, 2019-01-14)"
   sodipodi:docname="googleearth.svg">
  <defs
     id="defs815">
    <linearGradient
       gradientUnits="userSpaceOnUse"
       y2="39"
       y1="7"
       x2="24"
       x1="24"
       id="linearGradient1552">
      <stop
         id="stop823"
         offset="0"
         stop-color="#92b4da" />
      <stop
         id="stop825"
         offset="1"
         stop-color="#547cb1" />
    </linearGradient>
    <linearGradient
       gradientUnits="userSpaceOnUse"
       gradientTransform="translate(0,-1)"
       y2="37"
       y1="11"
       x2="24"
       x1="24"
       id="linearGradient857">
      <stop
         id="stop828"
         offset="0"
         stop-color="#dbe1e9" />
      <stop
         id="stop830"
         offset="1"
         stop-color="#b9c4d4" />
    </linearGradient>
  </defs>
  <sodipodi:namedview
     id="base"
     pagecolor="#ffffff"
     bordercolor="#666666"
     borderopacity="1.0"
     inkscape:pageopacity="0.0"
     inkscape:pageshadow="2"
     inkscape:zoom="19.590755"
     inkscape:cx="36.464356"
     inkscape:cy="23.058777"
     inkscape:document-units="px"
     inkscape:current-layer="layer1"
     showgrid="true"
     inkscape:window-width="1920"
     inkscape:window-height="1017"
     inkscape:window-x="-8"
     inkscape:window-y="-8"
     inkscape:window-maximized="1"
     inkscape:grid-bbox="true"
     inkscape:snap-global="true">
    <inkscape:grid
       type="xygrid"
       id="grid1371" />
  </sodipodi:namedview>
  <metadata
     id="metadata818">
    <rdf:RDF>
      <cc:Work
         rdf:about="">
        <dc:format>image/svg+xml</dc:format>
        <dc:type
           rdf:resource="http://purl.org/dc/dcmitype/StillImage" />
        <dc:title />
      </cc:Work>
    </rdf:RDF>
  </metadata>
  <g
     inkscape:label="Layer 1"
     inkscape:groupmode="layer"
     id="layer1">
    <rect
       style="opacity:1;vector-effect:none;fill:#366fd6;fill-opacity:1;fill-rule:evenodd;stroke:none;stroke-width:4;stroke-linecap:round;stroke-linejoin:round;stroke-miterlimit:4;stroke-dasharray:none;stroke-dashoffset:0;stroke-opacity:1;paint-order:stroke fill markers"
       id="rect1373"
       width="40"
       height="35"
       x="4"
       y="9"
       ry="4" />
    <path
       style="opacity:1;fill:#6599f9;stroke:none;stroke-width:1px;stroke-linecap:butt;stroke-linejoin:miter;stroke-opacity:1;fill-opacity:1"
       d="m 8,8.1077727 c -2.216,0 -4,1.784 -4,4.0000003 V 35 c 0,0 0,-9 6,-9 8.517955,0 10,13 22,13 7,0 12,-7 12,-7 V 12.107773 C 44,9.8917727 42.216,8.1077727 40,8.1077727 Z"
       id="path828"
       inkscape:connector-curvature="0"
       sodipodi:nodetypes="sscsscsss" />
    <path
       style="opacity:1;fill:#9ac4ff;stroke:none;stroke-width:1px;stroke-linecap:butt;stroke-linejoin:miter;stroke-opacity:1"
       d="m 8,7.0074764 c -2.216,0 -4,1.784 -4,3.9999996 V 23 c 0,0 1,-8 8,-8 8,0 14,18 24,18 6,0 8,-6 8,-6 V 11.007476 C 44,8.7914764 42.216,7.0074764 40,7.0074764 Z"
       id="path830"
       inkscape:connector-curvature="0"
       sodipodi:nodetypes="sscsscsss" />
    <path
       style="fill:#c8e3ff;stroke:none;stroke-width:1px;stroke-linecap:butt;stroke-linejoin:miter;stroke-opacity:1"
       d="M 8 4 C 5.784 4 4 5.784 4 8 L 4 13 C 4 13 6.652344 8 14.652344 8 C 24.18591 8 32 25 40 25 C 43 25 44 23 44 23 L 44 8 C 44 5.784 42.216 4 40 4 L 8 4 z "
       id="path832" />
    <path
       style="fill:#f5f5f5;stroke:none;stroke-width:1px;stroke-linecap:butt;stroke-linejoin:miter;stroke-opacity:1"
       d="M 23 4 C 35 8 36 19 41 19 C 44 19 44 18 44 18 L 44 8 C 44 5.784 42.216 4 40 4 L 23 4 z "
       id="path834" />
    <path
       style="opacity:0.25;vector-effect:none;fill:#000000;fill-opacity:1;fill-rule:evenodd;stroke:none;stroke-width:4;stroke-linecap:round;stroke-linejoin:round;stroke-miterlimit:4;stroke-dasharray:none;stroke-dashoffset:0;stroke-opacity:1;paint-order:stroke fill markers"
       d="M 8 4 C 5.784 4 4 5.784 4 8 L 4 40 C 4 42.216 5.784 44 8 44 L 40 44 C 42.216 44 44 42.216 44 40 L 44 8 C 44 5.784 42.216 4 40 4 L 8 4 z M 8 5 L 40 5 C 41.662 5 43 6.338 43 8 L 43 40 C 43 41.662 41.662 43 40 43 L 8 43 C 6.338 43 5 41.662 5 40 L 5 8 C 5 6.338 6.338 5 8 5 z "
       id="rect826" />
  </g>
</svg>
