<?xml version="1.0" encoding="UTF-8" standalone="no"?>
<!-- Created with Inkscape (http://www.inkscape.org/) -->

<svg
   xmlns:dc="http://purl.org/dc/elements/1.1/"
   xmlns:cc="http://creativecommons.org/ns#"
   xmlns:rdf="http://www.w3.org/1999/02/22-rdf-syntax-ns#"
   xmlns:svg="http://www.w3.org/2000/svg"
   xmlns="http://www.w3.org/2000/svg"
   xmlns:sodipodi="http://sodipodi.sourceforge.net/DTD/sodipodi-0.dtd"
   xmlns:inkscape="http://www.inkscape.org/namespaces/inkscape"
   width="48px"
   height="48px"
   viewBox="0 0 48 48"
   version="1.1"
   id="SVGRoot"
   inkscape:version="0.92.4 (5da689c313, 2019-01-14)"
   sodipodi:docname="gwibber.svg">
  <defs
     id="defs815" />
  <sodipodi:namedview
     id="base"
     pagecolor="#ffffff"
     bordercolor="#666666"
     borderopacity="1.0"
     inkscape:pageopacity="0.0"
     inkscape:pageshadow="2"
     inkscape:zoom="6.9263778"
     inkscape:cx="15.676789"
     inkscape:cy="25.916731"
     inkscape:document-units="px"
     inkscape:current-layer="layer1"
     showgrid="true"
     inkscape:window-width="1920"
     inkscape:window-height="1017"
     inkscape:window-x="-8"
     inkscape:window-y="-8"
     inkscape:window-maximized="1"
     inkscape:grid-bbox="true"
     inkscape:snap-global="false">
    <inkscape:grid
       type="xygrid"
       id="grid1371" />
  </sodipodi:namedview>
  <metadata
     id="metadata818">
    <rdf:RDF>
      <cc:Work
         rdf:about="">
        <dc:format>image/svg+xml</dc:format>
        <dc:type
           rdf:resource="http://purl.org/dc/dcmitype/StillImage" />
        <dc:title></dc:title>
      </cc:Work>
    </rdf:RDF>
  </metadata>
  <g
     inkscape:label="Layer 1"
     inkscape:groupmode="layer"
     id="layer1">
    <path
       inkscape:connector-curvature="0"
       style="opacity:1;vector-effect:none;fill:#729dec;fill-opacity:1;fill-rule:evenodd;stroke:none;stroke-width:4;stroke-linecap:round;stroke-linejoin:round;stroke-miterlimit:4;stroke-dasharray:none;stroke-dashoffset:0;stroke-opacity:1;paint-order:stroke fill markers"
       d="M 8,4 C 5.784,4 4,5.784 4,8 v 28 c 0,2.216 1.784,4 4,4 h 12 l 4,4 4,-4 h 12 c 2.216,0 4,-1.784 4,-4 V 8 C 44,5.784 42.216,4 40,4 Z"
       id="rect1373-7" />
    <path
       inkscape:connector-curvature="0"
       style="color:#000000;font-style:normal;font-variant:normal;font-weight:normal;font-stretch:normal;font-size:medium;line-height:normal;font-family:sans-serif;font-variant-ligatures:normal;font-variant-position:normal;font-variant-caps:normal;font-variant-numeric:normal;font-variant-alternates:normal;font-feature-settings:normal;text-indent:0;text-align:start;text-decoration:none;text-decoration-line:none;text-decoration-style:solid;text-decoration-color:#000000;letter-spacing:normal;word-spacing:normal;text-transform:none;writing-mode:lr-tb;direction:ltr;text-orientation:mixed;dominant-baseline:auto;baseline-shift:baseline;text-anchor:start;white-space:normal;shape-padding:0;clip-rule:nonzero;display:inline;overflow:visible;visibility:visible;opacity:0.25;isolation:auto;mix-blend-mode:normal;color-interpolation:sRGB;color-interpolation-filters:linearRGB;solid-color:#000000;solid-opacity:1;vector-effect:none;fill:#000000;fill-opacity:1;fill-rule:evenodd;stroke:none;stroke-width:2;stroke-linecap:round;stroke-linejoin:round;stroke-miterlimit:4;stroke-dasharray:none;stroke-dashoffset:0;stroke-opacity:1;paint-order:stroke fill markers;color-rendering:auto;image-rendering:auto;shape-rendering:auto;text-rendering:auto;enable-background:accumulate"
       d="M 8,4 C 5.784,4 4,5.784 4,8 v 28 c 0,2.216 1.784,4 4,4 h 12 l 4,4 4,-4 h 12 c 2.216,0 4,-1.784 4,-4 V 8 C 44,5.784 42.216,4 40,4 Z m 0,1 h 32 c 1.679297,0 3,1.3207028 3,3 v 28 c 0,1.679297 -1.320703,3 -3,3 H 28 a 1.0001,1.0001 0 0 0 -0.707031,0.292969 L 24,42.585938 20.707031,39.292969 A 1.0001,1.0001 0 0 0 20,39 H 8 C 6.3207028,39 5,37.679297 5,36 V 8 C 5,6.3207028 6.3207028,5 8,5 Z"
       id="rect1373-2" />
    <rect
       style="opacity:1;vector-effect:none;fill:#ffffff;fill-opacity:1;fill-rule:evenodd;stroke:none;stroke-width:6.85714293;stroke-linecap:round;stroke-linejoin:round;stroke-miterlimit:4;stroke-dasharray:none;stroke-opacity:1;paint-order:stroke fill markers"
       id="rect850"
       width="24"
       height="24"
       x="12"
       y="10"
       ry="12" />
    <path
       inkscape:connector-curvature="0"
       style="fill:#729dec;stroke:none;stroke-width:0.83027488px;stroke-linecap:butt;stroke-linejoin:miter;stroke-opacity:1"
       d="m 24.053612,12.036701 c -4.750162,0 -8.695527,3.294676 -9.705458,7.730314 l 5.662366,5.554084 v 1.660551 c 0,0 -0.324845,3.321099 2.996255,3.321099 v 1.618387 c 0.274369,0.02249 0.766473,0.04217 1.046837,0.04217 3.11358,0 5.883262,-1.413881 7.707609,-3.637318 -0.06349,-0.820698 -0.409409,-2.463242 -2.72596,-2.463242 h -1.01086 v -2.202189 c 0,0 0,-1.66055 -1.660549,-1.66055 h -7.291889 v -2.021489 h 3.284776 c 1.660549,0 1.660549,-1.660549 1.660549,-1.660549 v -2.274377 h 1.696874 c 1.660549,-4e-6 1.335704,-1.660554 1.335704,-1.660554 V 12.61076 c -1.039282,-0.365686 -1.828844,-0.574057 -2.996254,-0.574057 z"
       id="path860"
       sodipodi:nodetypes="ccccccscsccsccsccccccc" />
  </g>
</svg>
