<?xml version="1.0" encoding="UTF-8" standalone="no"?>
<!-- Created with Inkscape (http://www.inkscape.org/) -->

<svg
   xmlns:dc="http://purl.org/dc/elements/1.1/"
   xmlns:cc="http://creativecommons.org/ns#"
   xmlns:rdf="http://www.w3.org/1999/02/22-rdf-syntax-ns#"
   xmlns:svg="http://www.w3.org/2000/svg"
   xmlns="http://www.w3.org/2000/svg"
   xmlns:sodipodi="http://sodipodi.sourceforge.net/DTD/sodipodi-0.dtd"
   xmlns:inkscape="http://www.inkscape.org/namespaces/inkscape"
   width="48px"
   height="48px"
   viewBox="0 0 48 48"
   version="1.1"
   id="SVGRoot"
   inkscape:version="0.92.4 (5da689c313, 2019-01-14)"
   sodipodi:docname="hypnotix.svg">
  <defs
     id="defs815" />
  <sodipodi:namedview
     id="base"
     pagecolor="#ffffff"
     bordercolor="#666666"
     borderopacity="1.0"
     inkscape:pageopacity="0.0"
     inkscape:pageshadow="2"
     inkscape:zoom="9.639769"
     inkscape:cx="25.613134"
     inkscape:cy="25.178375"
     inkscape:document-units="px"
     inkscape:current-layer="layer1"
     showgrid="true"
     inkscape:window-width="1920"
     inkscape:window-height="1017"
     inkscape:window-x="-8"
     inkscape:window-y="-8"
     inkscape:window-maximized="1"
     inkscape:grid-bbox="true"
     inkscape:snap-global="true"
     showguides="false">
    <inkscape:grid
       type="xygrid"
       id="grid1371" />
  </sodipodi:namedview>
  <metadata
     id="metadata818">
    <rdf:RDF>
      <cc:Work
         rdf:about="">
        <dc:format>image/svg+xml</dc:format>
        <dc:type
           rdf:resource="http://purl.org/dc/dcmitype/StillImage" />
        <dc:title></dc:title>
      </cc:Work>
    </rdf:RDF>
  </metadata>
  <g
     inkscape:label="Layer 1"
     inkscape:groupmode="layer"
     id="layer1">
    <rect
       style="opacity:1;vector-effect:none;fill:#efefef;fill-opacity:1;fill-rule:evenodd;stroke:none;stroke-width:4;stroke-linecap:round;stroke-linejoin:round;stroke-miterlimit:4;stroke-dasharray:none;stroke-dashoffset:0;stroke-opacity:1;paint-order:stroke fill markers"
       id="rect1373"
       width="40"
       height="40"
       x="4"
       y="4"
       ry="4" />
    <path
       style="fill:#71b9e3;stroke:none;stroke-width:1px;stroke-linecap:butt;stroke-linejoin:miter;stroke-opacity:1"
       d="M 20 4 C 20 4 17.404316 7 17 12 C 16.757411 15 18 17 18 17 L 24 17 C 24 17 23.196152 15 24 12 C 25.061575 8.0381485 30 4 30 4 L 20 4 z M 7.7148438 4.0292969 C 5.6354991 4.1771873 4 5.8817215 4 8 L 4 14 C 4 14 5.4630422 19.103648 8.9121094 22.746094 C 10.98155 24.931561 13.298828 25.34375 13.298828 25.34375 L 17.308594 20.880859 C 17.308594 20.880859 14.572445 20.38504 13.019531 17.695312 C 9.205241 11.088767 10.144531 4.046875 10.144531 4.046875 L 7.7148438 4.0292969 z M 39.779297 10.886719 C 35.705461 10.8826 29.777509 11.465756 27.134766 14.601562 C 25.195165 16.903039 24.537109 18.990234 24.537109 18.990234 L 29 23 C 29 23 28.718476 21.041195 31.408203 19.488281 C 38.014748 15.67399 44 20 44 20 L 44 11.103516 C 44 11.103516 42.223599 10.88919 39.779297 10.886719 z M 34.701172 22.65625 L 30.691406 27.119141 C 30.691406 27.119141 33.427555 27.61496 34.980469 30.304688 C 38.794759 36.911231 37.855469 43.953125 37.855469 43.953125 L 40.285156 43.970703 C 42.364501 43.822813 44 42.118279 44 40 L 44 34 C 44 34 42.536958 28.896352 39.087891 25.253906 C 37.01845 23.068439 34.701172 22.65625 34.701172 22.65625 z M 19 25 C 19 25 19.281524 26.958805 16.591797 28.511719 C 9.9852521 32.32601 4 28 4 28 L 4 36.896484 C 4 36.896484 16.636844 38.415731 20.865234 33.398438 C 22.804835 31.096961 23.462891 29.009766 23.462891 29.009766 L 19 25 z M 24 31 C 24 31 24.803848 33 24 36 C 22.938425 39.961852 18 44 18 44 L 28 44 C 28 44 30.595684 41 31 36 C 31.242589 33 30 31 30 31 L 24 31 z "
       id="path830" />
    <rect
       style="opacity:1;vector-effect:none;fill:#efefef;fill-opacity:1;fill-rule:evenodd;stroke:none;stroke-width:2;stroke-linecap:round;stroke-linejoin:round;stroke-miterlimit:4;stroke-dasharray:none;stroke-opacity:1;paint-order:normal"
       id="rect828"
       width="24"
       height="24"
       x="12"
       y="12"
       ry="12" />
    <path
       style="fill:#71b9e3;stroke:#71b9e3;stroke-width:2;stroke-linecap:round;stroke-linejoin:round;stroke-miterlimit:4;stroke-dasharray:none;stroke-opacity:1"
       d="m 21,20 v 8 l 7,-4 z"
       id="path879"
       inkscape:connector-curvature="0"
       sodipodi:nodetypes="cccc" />
    <path
       style="opacity:0.25;vector-effect:none;fill:#000000;fill-opacity:1;fill-rule:evenodd;stroke:none;stroke-width:4;stroke-linecap:round;stroke-linejoin:round;stroke-miterlimit:4;stroke-dasharray:none;stroke-dashoffset:0;stroke-opacity:1;paint-order:stroke fill markers"
       d="M 8 4 C 5.784 4 4 5.784 4 8 L 4 40 C 4 42.216 5.784 44 8 44 L 40 44 C 42.216 44 44 42.216 44 40 L 44 8 C 44 5.784 42.216 4 40 4 L 8 4 z M 8 5 L 40 5 C 41.662 5 43 6.338 43 8 L 43 40 C 43 41.662 41.662 43 40 43 L 8 43 C 6.338 43 5 41.662 5 40 L 5 8 C 5 6.338 6.338 5 8 5 z "
       id="rect826" />
  </g>
</svg>
