<?xml version="1.0" encoding="UTF-8" standalone="no"?>
<!-- Created with Inkscape (http://www.inkscape.org/) -->

<svg
   xmlns:dc="http://purl.org/dc/elements/1.1/"
   xmlns:cc="http://creativecommons.org/ns#"
   xmlns:rdf="http://www.w3.org/1999/02/22-rdf-syntax-ns#"
   xmlns:svg="http://www.w3.org/2000/svg"
   xmlns="http://www.w3.org/2000/svg"
   xmlns:xlink="http://www.w3.org/1999/xlink"
   xmlns:sodipodi="http://sodipodi.sourceforge.net/DTD/sodipodi-0.dtd"
   xmlns:inkscape="http://www.inkscape.org/namespaces/inkscape"
   width="48px"
   height="48px"
   viewBox="0 0 48 48"
   version="1.1"
   id="SVGRoot"
   inkscape:version="0.92.4 (5da689c313, 2019-01-14)"
   sodipodi:docname="icedove.svg">
  <defs
     id="defs815">
    <linearGradient
       inkscape:collect="always"
       id="linearGradient920">
      <stop
         style="stop-color:#9dd874;stop-opacity:1"
         offset="0"
         id="stop916" />
      <stop
         style="stop-color:#65b132;stop-opacity:1"
         offset="1"
         id="stop918" />
    </linearGradient>
    <linearGradient
       inkscape:collect="always"
       xlink:href="#linearGradient920"
       id="linearGradient922"
       x1="24"
       y1="38"
       x2="24"
       y2="10"
       gradientUnits="userSpaceOnUse" />
    <style
       id="style2">.a{fill:none;stroke:#b1b5bd;stroke-linecap:round;stroke-linejoin:round;isolation:isolate;opacity:0.63;}</style>
    <style
       id="style819">.cls-1{fill:none;stroke:#fff;stroke-linecap:round;stroke-linejoin:round;}</style>
  </defs>
  <sodipodi:namedview
     id="base"
     pagecolor="#ffffff"
     bordercolor="#666666"
     borderopacity="1.0"
     inkscape:pageopacity="0.0"
     inkscape:pageshadow="2"
     inkscape:zoom="16.342421"
     inkscape:cx="15.045042"
     inkscape:cy="23.329576"
     inkscape:document-units="px"
     inkscape:current-layer="layer1"
     showgrid="false"
     inkscape:window-width="1920"
     inkscape:window-height="1017"
     inkscape:window-x="-8"
     inkscape:window-y="-8"
     inkscape:window-maximized="1"
     inkscape:grid-bbox="true"
     inkscape:snap-global="true">
    <inkscape:grid
       type="xygrid"
       id="grid1371" />
  </sodipodi:namedview>
  <metadata
     id="metadata818">
    <rdf:RDF>
      <cc:Work
         rdf:about="">
        <dc:format>image/svg+xml</dc:format>
        <dc:type
           rdf:resource="http://purl.org/dc/dcmitype/StillImage" />
        <dc:title></dc:title>
      </cc:Work>
    </rdf:RDF>
  </metadata>
  <g
     inkscape:label="Layer 1"
     inkscape:groupmode="layer"
     id="layer1">
    <rect
       style="opacity:1;vector-effect:none;fill:url(#linearGradient922);fill-opacity:1;fill-rule:evenodd;stroke:none;stroke-width:4;stroke-linecap:round;stroke-linejoin:round;stroke-miterlimit:4;stroke-dasharray:none;stroke-dashoffset:0;stroke-opacity:1;paint-order:stroke fill markers"
       id="rect1373"
       width="40"
       height="40"
       x="4"
       y="4"
       ry="4" />
    <path
       style="opacity:0.25;vector-effect:none;fill:#000000;fill-opacity:1;fill-rule:evenodd;stroke:none;stroke-width:4;stroke-linecap:round;stroke-linejoin:round;stroke-miterlimit:4;stroke-dasharray:none;stroke-dashoffset:0;stroke-opacity:1;paint-order:stroke fill markers"
       d="M 8 4 C 5.784 4 4 5.784 4 8 L 4 40 C 4 42.216 5.784 44 8 44 L 40 44 C 42.216 44 44 42.216 44 40 L 44 8 C 44 5.784 42.216 4 40 4 L 8 4 z M 8 5 L 40 5 C 41.662 5 43 6.338 43 8 L 43 40 C 43 41.662 41.662 43 40 43 L 8 43 C 6.338 43 5 41.662 5 40 L 5 8 C 5 6.338 6.338 5 8 5 z "
       id="rect826" />
    <g
       id="g875"
       style="opacity:0.5">
      <path
         sodipodi:nodetypes="czczc"
         inkscape:connector-curvature="0"
         id="path817"
         d="M 18,44 C 18,44 10,38 10,24 10,10 18,4 18,4 18,4 8,10 8,24 8,38 18,44 18,44 Z"
         style="fill:#ffffff;stroke:none;stroke-width:1px;stroke-linecap:butt;stroke-linejoin:miter;stroke-opacity:1" />
      <path
         sodipodi:nodetypes="czczc"
         inkscape:connector-curvature="0"
         id="path817-2"
         d="m 30,44 c 0,0 8,-6 8,-20 C 38,10 30,4 30,4 30,4 40,10 40,24 40,38 30,44 30,44 Z"
         style="fill:#ffffff;stroke:none;stroke-width:1px;stroke-linecap:butt;stroke-linejoin:miter;stroke-opacity:1" />
    </g>
    <path
       style="fill:#ffffff;stroke:none;stroke-width:1px;stroke-linecap:butt;stroke-linejoin:miter;stroke-opacity:1;opacity:0.5"
       d="m 4,18 c 0,0 6,-8 20,-8 14,0 20,8 20,8 C 44,18 38,8 24,8 10,8 4,18 4,18 Z"
       id="path817-0"
       inkscape:connector-curvature="0"
       sodipodi:nodetypes="czczc" />
    <path
       style="fill:#ffffff;stroke:none;stroke-width:1px;stroke-linecap:butt;stroke-linejoin:miter;stroke-opacity:1;opacity:0.5"
       d="m 4,30 c 0,0 6,8 20,8 14,0 20,-8 20,-8 0,0 -6,10 -20,10 C 10,40 4,30 4,30 Z"
       id="path817-2-2"
       inkscape:connector-curvature="0"
       sodipodi:nodetypes="czczc" />
    <rect
       style="opacity:0.75;vector-effect:none;fill:#ffffff;fill-opacity:1;fill-rule:evenodd;stroke:none;stroke-width:2;stroke-linecap:round;stroke-linejoin:round;stroke-miterlimit:4;stroke-dasharray:none;stroke-dashoffset:0;stroke-opacity:1;paint-order:normal"
       id="rect908"
       width="4"
       height="4"
       x="10"
       y="10"
       ry="2" />
    <rect
       style="opacity:0.75;vector-effect:none;fill:#ffffff;fill-opacity:1;fill-rule:evenodd;stroke:none;stroke-width:2;stroke-linecap:round;stroke-linejoin:round;stroke-miterlimit:4;stroke-dasharray:none;stroke-dashoffset:0;stroke-opacity:1;paint-order:normal"
       id="rect910"
       width="4"
       height="4"
       x="34"
       y="10"
       ry="2" />
    <rect
       style="opacity:0.75;vector-effect:none;fill:#ffffff;fill-opacity:1;fill-rule:evenodd;stroke:none;stroke-width:2;stroke-linecap:round;stroke-linejoin:round;stroke-miterlimit:4;stroke-dasharray:none;stroke-dashoffset:0;stroke-opacity:1;paint-order:normal"
       id="rect912"
       width="4"
       height="4"
       x="10"
       y="34"
       ry="2" />
    <rect
       style="opacity:0.75;vector-effect:none;fill:#ffffff;fill-opacity:1;fill-rule:evenodd;stroke:none;stroke-width:2;stroke-linecap:round;stroke-linejoin:round;stroke-miterlimit:4;stroke-dasharray:none;stroke-dashoffset:0;stroke-opacity:1;paint-order:normal"
       id="rect914"
       width="4"
       height="4"
       x="34"
       y="34"
       ry="2" />
    <path
       style="fill:#4e4e4e;stroke:none;stroke-width:1px;stroke-linecap:butt;stroke-linejoin:miter;stroke-opacity:1"
       d="m 35.177029,21.346802 c 0,0 0.709836,0.408693 1.341313,0.778827 0.150347,0.08812 0.336504,0.595368 -0.21634,0.47595 -0.503187,-0.108692 -1.514387,-0.302877 -1.514387,-0.302877 z"
       id="path845"
       inkscape:connector-curvature="0"
       sodipodi:nodetypes="csscc" />
    <path
       style="color:#000000;font-style:normal;font-variant:normal;font-weight:normal;font-stretch:normal;font-size:medium;line-height:normal;font-family:sans-serif;font-variant-ligatures:normal;font-variant-position:normal;font-variant-caps:normal;font-variant-numeric:normal;font-variant-alternates:normal;font-feature-settings:normal;text-indent:0;text-align:start;text-decoration:none;text-decoration-line:none;text-decoration-style:solid;text-decoration-color:#000000;letter-spacing:normal;word-spacing:normal;text-transform:none;writing-mode:lr-tb;direction:ltr;text-orientation:mixed;dominant-baseline:auto;baseline-shift:baseline;text-anchor:start;white-space:normal;shape-padding:0;clip-rule:nonzero;display:inline;overflow:visible;visibility:visible;opacity:0.25;isolation:auto;mix-blend-mode:normal;color-interpolation:sRGB;color-interpolation-filters:linearRGB;solid-color:#000000;solid-opacity:1;vector-effect:none;fill:#000000;fill-opacity:1;fill-rule:nonzero;stroke:none;stroke-width:2;stroke-linecap:butt;stroke-linejoin:round;stroke-miterlimit:4;stroke-dasharray:none;stroke-dashoffset:0;stroke-opacity:1;color-rendering:auto;image-rendering:auto;shape-rendering:auto;text-rendering:auto;enable-background:accumulate"
       d="m 29.011719,8.0605469 c -0.51434,-0.032907 -0.863203,0.2448753 -1.054688,0.4453125 -0.01671,-0.00846 -0.02367,-0.019071 -0.04102,-0.027344 C 27.677198,8.3645904 27.341323,8.2358802 26.888672,8.3476562 26.207697,8.5158134 26.069728,8.9354482 25.935547,9.2109375 25.85596,9.3743394 25.81835,9.5265945 25.767578,9.6835938 25.660943,9.6655253 25.566,9.636347 25.416016,9.65625 c -0.23084,0.030632 -0.531308,0.1640672 -0.726563,0.386719 -0.510037,0.581598 -0.516932,1.122585 -0.5,1.603515 -0.125158,0.03636 -0.211991,-0.0248 -0.341797,0.07227 -0.475396,0.355488 -0.60317,0.859424 -0.642578,1.238281 -0.03941,0.378857 7.68e-4,0.716881 0.05273,1.023438 0.01263,0.07448 0.02056,0.06593 0.03516,0.136719 -0.136735,0.08252 -0.269021,0.103914 -0.392578,0.30664 -0.247121,0.405461 -0.225652,0.771928 -0.1875,1.044922 0.0027,0.01935 0.0106,0.03 0.01367,0.04883 -0.221723,0.09312 -0.461614,0.150223 -0.630859,0.462891 -0.241124,0.445458 -0.150353,0.861158 -0.06055,1.115234 0.03933,0.111282 0.09049,0.169803 0.136719,0.255859 -0.04561,0.05422 -0.08954,0.08419 -0.134766,0.150391 -0.13723,0.20089 -0.309298,0.490865 -0.27539,0.935547 0.01759,0.230626 0.125679,0.308165 0.207031,0.445312 C 21.867417,19.019287 21.799721,19.249861 21.75,19.498047 20.956312,19.029204 20.32647,18.71467 19.882812,18.3125 18.349937,16.922967 15.587891,12.833984 15.587891,12.833984 a 1.0001,1.0001 0 0 0 -0.125,-0.154296 c 0,0 -0.161425,-0.166175 -0.394532,-0.330079 -0.116553,-0.08195 -0.251752,-0.173785 -0.466797,-0.25 -0.215044,-0.07621 -0.589769,-0.165013 -1.005859,0.05469 -0.205095,0.108295 -0.20698,0.256056 -0.304687,0.400391 -0.0057,-0.0013 -0.0079,-0.0046 -0.01367,-0.0059 -0.274117,-0.06162 -0.702575,-0.105739 -1.125,0.185547 -0.479386,0.330565 -0.621495,0.81809 -0.673828,1.181641 -0.05233,0.36355 -0.02818,0.686947 0.0098,0.980468 0.008,0.06166 0.01588,0.05415 0.02539,0.113282 -0.08447,0.06133 -0.153894,0.04211 -0.236328,0.15039 -0.29856,0.392172 -0.323532,0.781328 -0.316406,1.083985 0.0071,0.302656 0.06375,0.560586 0.125,0.791015 0.03688,0.13874 0.04829,0.135394 0.08789,0.25 -0.08592,0.138061 -0.175436,0.297939 -0.248047,0.513672 -0.07405,0.220023 -0.158638,0.529978 -0.01367,0.939453 0.08505,0.240216 0.220439,0.302333 0.345703,0.416016 -0.09657,0.236297 -0.148794,0.529236 -0.01172,0.972656 0.194252,0.628377 0.518885,0.786272 0.792968,0.90625 -0.03572,0.248954 -0.131962,0.465637 0.117188,0.898438 0.215942,0.375117 0.40555,0.377993 0.605469,0.46875 -0.04353,0.346361 -0.126463,0.784149 0.386719,1.349609 0.120513,0.132791 0.207763,0.135062 0.3125,0.201172 0.01143,0.225837 0.08155,0.485555 0.359374,0.8125 0.23719,0.27912 0.371487,0.193831 0.560547,0.25 0.0274,0.180526 0.007,0.349693 0.199219,0.558594 0.131477,0.142888 0.240208,0.112717 0.373047,0.169922 5.09e-4,0.0054 -5.52e-4,0.0083 0,0.01367 0.02383,0.233323 0.0749,0.55006 0.373047,0.865235 0.185077,0.195645 0.34237,0.20483 0.505859,0.253906 0.03579,0.147607 0.0046,0.265963 0.144531,0.433594 0.275565,0.330186 0.586789,0.402578 0.794922,0.4375 0.09601,0.01611 0.154715,0.0059 0.232422,0.0078 0.103459,0.226894 0.131745,0.469371 0.626953,0.666016 0.401336,0.159368 0.53096,0.01209 0.751953,-0.04883 0.131597,0.171202 0.359634,0.427694 0.800782,0.498047 0.250737,0.03999 0.361419,-0.0663 0.527344,-0.128907 0.166113,0.167016 0.340894,0.366255 0.71875,0.396485 0.278534,0.02229 0.3951,-0.112508 0.570312,-0.205078 0.145332,0.126187 0.23308,0.276854 0.507812,0.324218 0.117385,0.02024 0.150944,-0.0486 0.25,-0.05664 -0.36269,0.55937 -0.761103,1.174588 -1.027343,1.458984 -0.750132,0.801284 -1.654143,1.348652 -2.851563,2.144531 -0.293925,0.195362 -0.484754,0.532499 -0.548828,0.78125 -0.06407,0.248752 -0.05436,0.426926 -0.04883,0.560547 0.01106,0.267243 -0.02987,0.38535 0.03516,0.199219 -0.02701,0.07731 -0.02166,0.05722 -0.142578,0.226562 -0.12092,0.169346 -0.315496,0.466777 -0.490234,0.892579 -0.192413,0.468869 -0.115602,0.78881 -0.04687,1.089843 0.06873,0.301034 0.180182,0.578846 0.324219,0.845704 0.144036,0.266857 0.307592,0.51981 0.583984,0.753906 0.138196,0.117047 0.311631,0.236956 0.5625,0.308594 0.250869,0.07164 0.601008,0.06444 0.886719,-0.07227 0.566697,-0.271158 1.028308,-0.563312 1.515625,-0.857422 0.09499,0.08474 0.1587,0.182074 0.417968,0.228516 0.371512,0.06655 0.857185,-0.186005 1.019532,-0.394532 0.726636,-0.933327 1.315277,-1.783242 1.787109,-2.396484 0.471832,-0.613242 0.905526,-0.939746 0.847656,-0.917969 1.499458,-0.564263 4.718923,-1.671435 6.892578,-3.867187 1.9452,-1.964975 2.866819,-5.011694 3.410157,-6.279297 -0.05072,0.118321 -0.0527,0.06682 0.185546,-0.09375 0.08986,-0.06056 0.233466,-0.262455 0.359376,-0.363281 0.229944,0.04517 0.448996,0.08483 0.662109,0.130859 0.269781,0.05827 0.606659,0.09624 0.986328,-0.115234 0.379669,-0.211475 0.587381,-0.692842 0.595703,-0.994141 0.0083,-0.301299 -0.06797,-0.497714 -0.160156,-0.675781 -0.09218,-0.178068 -0.169423,-0.343219 -0.490234,-0.53125 -0.487442,-0.285709 -0.831323,-0.482523 -1.03125,-0.597657 -0.102541,-0.295303 -0.127207,-0.598016 -0.375,-0.859374 -0.429915,-0.453449 -1.09197,-0.725664 -1.826172,-0.75586 -0.55552,-0.02285 -1.023915,0.135664 -1.455078,0.341797 0.04158,-0.222609 0.154864,-0.417449 0.164062,-0.642578 0.02124,-0.519878 -0.07091,-1.052718 -0.15625,-1.619141 -0.08534,-0.566422 -0.177334,-1.141256 -0.195312,-1.359375 -0.17271,-2.095315 0.236564,-3.129112 0.349609,-5.626953 C 32.51682,9.7278723 32.418533,9.4096137 32.222656,9.0800781 32.02678,8.7505425 31.636034,8.3183596 30.980469,8.3183594 c -0.4064,-2e-7 -0.612712,0.2287546 -0.839844,0.4179687 -0.221934,-0.2895737 -0.56532,-0.6397236 -1.128906,-0.6757812 z"
       id="path931" />
    <path
       style="fill:#ffffff;stroke:none;stroke-width:1px;stroke-linecap:butt;stroke-linejoin:miter;stroke-opacity:1;opacity:1"
       d="m 23.710962,27.923565 c 0,0 -1.31771,2.422379 -2.249946,3.418186 -0.865435,0.924451 -1.85421,1.512527 -3.028772,2.293214 -0.292253,0.19425 -0.05733,0.707153 -0.173073,1.038436 -0.14693,0.420545 -0.360071,0.464126 -0.649022,1.168241 -0.19421,0.47325 0.490455,1.864987 0.9519,1.644191 0.855702,-0.409443 1.248452,-0.561774 2.076872,-1.168241 0.174563,-0.127793 0.386316,0.603388 0.519218,0.432682 1.412558,-1.814359 2.319392,-3.351297 3.07204,-3.634527 1.517131,-0.570914 4.600396,-1.681775 6.533496,-3.634527 1.674452,-1.691475 2.609163,-4.588287 3.201845,-5.971009 0.261191,-0.609356 1.341872,-0.591803 1.341313,-1.860532 -3.28e-4,-0.744553 -0.34301,-1.550967 -1.557654,-1.600922 -1.299988,-0.05346 -3.33165,2.033604 -3.33165,2.033604 0,0 1.033477,-2.194559 1.081705,-3.374918 0.02599,-0.636196 -0.29384,-2.221124 -0.346146,-2.855699 -0.185208,-2.246943 0.237802,-3.3607 0.346146,-5.754668 0.01411,-0.3116923 -0.207207,-0.7788273 -0.519218,-0.7788274 -0.624023,-2e-7 -1.038437,1.5576544 -1.038437,1.5576544 0,0 -0.305941,-1.7731676 -0.995168,-1.8172635 -0.39154,-0.02505 -0.692291,0.9518995 -0.692291,0.9518995 0,0 -0.697506,-0.7978473 -1.124972,-0.6922904 -0.439453,0.1085168 -0.692291,1.8172634 -0.692291,1.8172634 0,0 -0.771342,-0.687913 -0.995168,-0.432682 -0.458036,0.522301 -0.173073,2.076873 -0.173073,2.076873 0,0 -0.591953,-0.431703 -0.822095,-0.259609 -0.600738,0.449215 0.04327,2.249945 0.04327,2.249945 0,0 -0.60447,-0.04201 -0.735559,0.173073 -0.247588,0.406227 0.346145,1.384581 0.346145,1.384581 0,0 -0.945281,-0.202161 -1.124972,0.129805 -0.184225,0.340341 0.519218,1.038436 0.519218,1.038436 0,0 -0.764343,0.48788 -0.735559,0.865364 0.02177,0.285454 0.649022,0.562486 0.649022,0.562486 0,0 -0.740659,0.421774 -0.735559,0.778827 0.0055,0.3875 0.822096,0.822096 0.822096,0.822096 l -0.692291,0.822095 c 0,0 -2.53894,-1.339298 -3.591259,-2.293213 -1.780715,-1.614197 -4.456622,-5.668132 -4.456622,-5.668132 0,0 -0.464141,-0.466612 -0.692291,-0.346145 -0.283184,0.149527 -0.129805,0.9519 -0.129805,0.9519 0,0 -0.858484,-0.676113 -1.211509,-0.432682 -0.581923,0.40127 -0.04327,2.120141 -0.04327,2.120141 0,0 -0.482203,-0.07575 -0.605754,0.08654 -0.343508,0.451214 0.216341,1.687459 0.216341,1.687459 0,0 -0.549001,0.623342 -0.432682,0.9519 0.09687,0.273611 0.778827,0.389414 0.778827,0.389414 0,0 -0.543433,0.680173 -0.432682,1.038436 0.101609,0.328689 0.865364,0.562486 0.865364,0.562486 0,0 -0.216114,0.738188 -0.04327,1.038437 0.154496,0.268376 0.822095,0.432681 0.822095,0.432681 0,0 -0.2283,0.912274 0.04327,1.211509 0.146678,0.16162 0.649023,0.08654 0.649023,0.08654 0,0 -0.162409,0.70986 0.04327,0.9519 0.181339,0.213396 0.822095,0.173072 0.822095,0.173072 0,0 -0.224649,0.455658 -0.08654,0.605755 0.166305,0.18074 0.735559,-0.04327 0.735559,-0.04327 0,0 -0.247788,0.819768 0,1.081704 0.178682,0.188885 0.778827,0.04327 0.778827,0.04327 0,0 -0.235551,0.513742 -0.08654,0.692291 0.1666,0.199623 0.778827,0.04327 0.778827,0.04327 0,0 0.193181,0.666541 0.47595,0.778827 0.305671,0.12138 0.9519,-0.259609 0.9519,-0.259609 0,0 0.140267,0.60929 0.389414,0.649023 0.28271,0.04509 0.649022,-0.562486 0.649022,-0.562486 0,0 0.196141,0.796248 0.519219,0.822095 0.325944,0.02608 0.649022,-0.735559 0.649022,-0.735559 0,0 0.187716,0.808212 0.519218,0.865364 0.31301,0.05396 0.735559,-0.605755 0.735559,-0.605755 z"
       id="path841"
       inkscape:connector-curvature="0"
       sodipodi:nodetypes="csssssssssssscsssscscscscscscscscsccscscscscscscscscscscscscscscscscc" />
    <rect
       style="opacity:1;vector-effect:none;fill:#4e4e4e;fill-opacity:1;fill-rule:evenodd;stroke:none;stroke-width:1.58620691;stroke-linecap:round;stroke-linejoin:round;stroke-miterlimit:4;stroke-dasharray:none;stroke-dashoffset:0;stroke-opacity:1;paint-order:normal"
       id="rect843"
       width="0.99516815"
       height="0.99516815"
       x="33.576107"
       y="20.611244"
       ry="0.49758407" />
    <path
       style="fill:#d8e9f0;stroke:none;stroke-width:1px;stroke-linecap:butt;stroke-linejoin:miter;stroke-opacity:1;fill-opacity:1"
       d="m 23.710962,27.923565 c 0,0 0.677645,-0.632233 1.101763,-0.63653 0.570535,-0.0058 1.499166,0.826071 1.499166,0.826071 0,0 1.849399,-0.679473 1.376785,-1.590952 -0.281668,-0.543222 -0.918138,-0.834124 -1.46857,-1.101428 -4.816341,-2.338938 -6.639164,-6.057854 -6.639164,-6.057854 0,0 -0.79111,2.574375 -0.0306,3.426665 2.059329,2.307853 6.577973,2.998332 6.577973,2.998332 0,0 -1.429012,0.04196 -2.141666,0 -0.783839,-0.04616 -0.275687,2.135696 -0.275687,2.135696 z"
       id="path847"
       inkscape:connector-curvature="0"
       sodipodi:nodetypes="cscsscscsc" />
    <path
       style="fill:#d8e9f0;stroke:none;stroke-width:1px;stroke-linecap:butt;stroke-linejoin:miter;stroke-opacity:1;fill-opacity:1"
       d="M 28.947266 9.0585938 C 28.555726 9.0335437 28.253906 10.009766 28.253906 10.009766 C 28.253906 10.009766 27.556372 9.2128025 27.128906 9.3183594 C 26.689453 9.4268762 26.4375 11.134766 26.4375 11.134766 C 26.4375 11.134766 25.665232 10.447894 25.441406 10.703125 C 24.98337 11.225426 25.269531 12.779297 25.269531 12.779297 C 25.269531 12.779297 24.677408 12.347437 24.447266 12.519531 C 23.846528 12.968746 24.490234 14.769531 24.490234 14.769531 C 24.490234 14.769531 23.884995 14.728276 23.753906 14.943359 C 23.506318 15.349586 24.099609 16.328125 24.099609 16.328125 C 24.099609 16.328125 23.1543 16.125065 22.974609 16.457031 C 22.790384 16.797372 23.494141 17.496094 23.494141 17.496094 C 23.494141 17.496094 22.730982 17.983844 22.759766 18.361328 C 22.781536 18.646782 23.408203 18.923828 23.408203 18.923828 C 23.408203 18.923828 22.666775 19.346072 22.671875 19.703125 C 22.677375 20.090625 23.494141 20.525391 23.494141 20.525391 L 22.802734 21.347656 L 28.667969 25.144531 C 28.667969 25.144531 27.681497 23.247691 27.597656 22.208984 C 27.470689 20.635981 27.508914 18.79913 28.484375 17.558594 C 29.09373 16.783653 30.591038 17.12766 31.175781 16.333984 C 31.189298 16.315638 31.199686 16.292307 31.212891 16.273438 C 31.195457 16.144292 31.160073 15.945333 31.152344 15.851562 C 30.967136 13.60462 31.391656 12.491624 31.5 10.097656 C 31.51411 9.7859641 31.29248 9.3183595 30.980469 9.3183594 C 30.356446 9.3183592 29.941406 10.875 29.941406 10.875 C 29.941406 10.875 29.636493 9.1026897 28.947266 9.0585938 z "
       id="path849" />
  </g>
</svg>
