<?xml version="1.0" encoding="UTF-8" standalone="no"?>
<!-- Created with Inkscape (http://www.inkscape.org/) -->

<svg
   xmlns:dc="http://purl.org/dc/elements/1.1/"
   xmlns:cc="http://creativecommons.org/ns#"
   xmlns:rdf="http://www.w3.org/1999/02/22-rdf-syntax-ns#"
   xmlns:svg="http://www.w3.org/2000/svg"
   xmlns="http://www.w3.org/2000/svg"
   xmlns:sodipodi="http://sodipodi.sourceforge.net/DTD/sodipodi-0.dtd"
   xmlns:inkscape="http://www.inkscape.org/namespaces/inkscape"
   width="48px"
   height="48px"
   viewBox="0 0 48 48"
   version="1.1"
   id="SVGRoot"
   inkscape:version="0.92.4 (5da689c313, 2019-01-14)"
   sodipodi:docname="kwalletmanager.svg">
  <defs
     id="defs815" />
  <sodipodi:namedview
     id="base"
     pagecolor="#ffffff"
     bordercolor="#666666"
     borderopacity="1.0"
     inkscape:pageopacity="0.0"
     inkscape:pageshadow="2"
     inkscape:zoom="13.632692"
     inkscape:cx="31.02962"
     inkscape:cy="25.608068"
     inkscape:document-units="px"
     inkscape:current-layer="layer1"
     showgrid="true"
     inkscape:window-width="1920"
     inkscape:window-height="1017"
     inkscape:window-x="-8"
     inkscape:window-y="-8"
     inkscape:window-maximized="1"
     inkscape:grid-bbox="true"
     inkscape:snap-global="true">
    <inkscape:grid
       type="xygrid"
       id="grid1371" />
  </sodipodi:namedview>
  <metadata
     id="metadata818">
    <rdf:RDF>
      <cc:Work
         rdf:about="">
        <dc:format>image/svg+xml</dc:format>
        <dc:type
           rdf:resource="http://purl.org/dc/dcmitype/StillImage" />
        <dc:title></dc:title>
      </cc:Work>
    </rdf:RDF>
  </metadata>
  <g
     inkscape:label="Layer 1"
     inkscape:groupmode="layer"
     id="layer1">
    <rect
       style="opacity:1;vector-effect:none;fill:#e5a771;fill-opacity:1;fill-rule:evenodd;stroke:none;stroke-width:4;stroke-linecap:round;stroke-linejoin:round;stroke-miterlimit:4;stroke-dasharray:none;stroke-dashoffset:0;stroke-opacity:1;paint-order:stroke fill markers"
       id="rect1373"
       width="40"
       height="40"
       x="4"
       y="4"
       ry="4" />
    <path
       style="opacity:0.25;vector-effect:none;fill:#000000;fill-opacity:1;fill-rule:evenodd;stroke:none;stroke-width:2;stroke-linecap:round;stroke-linejoin:round;stroke-miterlimit:4;stroke-dasharray:none;stroke-opacity:1;paint-order:stroke fill markers"
       d="M 12 12 L 12 36 L 36 36 L 36 12 L 12 12 z M 13 13 L 35 13 L 35 35 L 13 35 L 13 13 z "
       id="rect817" />
    <path
       style="opacity:0.25;vector-effect:none;fill:#000000;fill-opacity:1;fill-rule:evenodd;stroke:none;stroke-width:2;stroke-linecap:round;stroke-linejoin:round;stroke-miterlimit:4;stroke-dasharray:none;stroke-opacity:1;paint-order:stroke fill markers"
       d="M 24 10 C 16.244 10 10 16.244 10 24 C 10 31.756 16.244 38 24 38 C 31.756 38 38 31.756 38 24 C 38 16.244 31.756 10 24 10 z M 24 11 C 31.202 11 37 16.798 37 24 C 37 31.202 31.202 37 24 37 C 16.798 37 11 31.202 11 24 C 11 16.798 16.798 11 24 11 z "
       id="rect822" />
    <path
       style="opacity:1;vector-effect:none;fill:#7d4836;fill-opacity:1;fill-rule:evenodd;stroke:none;stroke-width:2;stroke-linecap:round;stroke-linejoin:round;stroke-miterlimit:4;stroke-dasharray:none;stroke-opacity:1;paint-order:normal"
       d="M 4 8 L 4 40 L 39 40 C 39.554 40 40 39.554 40 39 L 40 9 C 40 8.446 39.554 8 39 8 L 4 8 z "
       id="rect828" />
    <path
       style="opacity:0.25;vector-effect:none;fill:#000000;fill-opacity:1;fill-rule:evenodd;stroke:none;stroke-width:2;stroke-linecap:round;stroke-linejoin:round;stroke-miterlimit:4;stroke-dasharray:none;stroke-opacity:1;paint-order:normal"
       d="M 4.5507812 6 C 4.3711605 6.310109 4.2302286 6.6437756 4.1386719 7 L 10 7 L 10 6 L 4.5507812 6 z M 14 6 L 14 7 L 18 7 L 18 6 L 14 6 z M 22 6 L 22 7 L 26 7 L 26 6 L 22 6 z M 30 6 L 30 7 L 34 7 L 34 6 L 30 6 z M 38 6 L 38 7 L 40 7 C 40.554 7 41 7.446 41 8 L 41 10 L 42 10 L 42 8 C 42 6.892 41.108 6 40 6 L 38 6 z M 41 14 L 41 18 L 42 18 L 42 14 L 41 14 z M 41 22 L 41 26 L 42 26 L 42 22 L 41 22 z M 41 30 L 41 34 L 42 34 L 42 30 L 41 30 z M 41 38 L 41 40 C 41 40.554 40.554 41 40 41 L 38 41 L 38 42 L 40 42 C 41.108 42 42 41.108 42 40 L 42 38 L 41 38 z M 4.1386719 41 C 4.2302286 41.356224 4.3711605 41.689891 4.5507812 42 L 10 42 L 10 41 L 4.1386719 41 z M 14 41 L 14 42 L 18 42 L 18 41 L 14 41 z M 22 41 L 22 42 L 26 42 L 26 41 L 22 41 z M 30 41 L 30 42 L 34 42 L 34 41 L 30 41 z "
       id="rect860" />
    <path
       style="opacity:0.25;vector-effect:none;fill:#000000;fill-opacity:1;fill-rule:evenodd;stroke:none;stroke-width:4;stroke-linecap:round;stroke-linejoin:round;stroke-miterlimit:4;stroke-dasharray:none;stroke-dashoffset:0;stroke-opacity:1;paint-order:stroke fill markers"
       d="M 8 4 C 5.784 4 4 5.784 4 8 L 4 40 C 4 42.216 5.784 44 8 44 L 40 44 C 42.216 44 44 42.216 44 40 L 44 8 C 44 5.784 42.216 4 40 4 L 8 4 z M 8 5 L 40 5 C 41.662 5 43 6.338 43 8 L 43 40 C 43 41.662 41.662 43 40 43 L 8 43 C 6.338 43 5 41.662 5 40 L 5 8 C 5 6.338 6.338 5 8 5 z "
       id="rect826" />
    <rect
       style="opacity:1;vector-effect:none;fill:#e5a771;fill-opacity:1;fill-rule:evenodd;stroke:none;stroke-width:2;stroke-linecap:round;stroke-linejoin:round;stroke-miterlimit:4;stroke-dasharray:none;stroke-opacity:1;paint-order:normal"
       id="rect830"
       width="16"
       height="12"
       x="30"
       y="18"
       ry="2" />
    <rect
       style="opacity:1;vector-effect:none;fill:#7d4836;fill-opacity:1;fill-rule:evenodd;stroke:none;stroke-width:1.33333337;stroke-linecap:round;stroke-linejoin:round;stroke-miterlimit:4;stroke-dasharray:none;stroke-opacity:1;paint-order:normal"
       id="rect832"
       width="4"
       height="4"
       x="34"
       y="22"
       ry="2" />
    <path
       style="opacity:0.25;vector-effect:none;fill:#000000;fill-opacity:1;fill-rule:evenodd;stroke:none;stroke-width:2;stroke-linecap:round;stroke-linejoin:round;stroke-miterlimit:4;stroke-dasharray:none;stroke-opacity:1;paint-order:normal"
       d="M 33 20 C 32.446 20 32 20.446 32 21 L 32 22 L 33 22 L 33 21.5 C 33 21.223 33.223 21 33.5 21 L 34 21 L 34 20 L 33 20 z M 36 20 L 36 21 L 38 21 L 38 20 L 36 20 z M 40 20 L 40 21 L 42 21 L 42 20 L 40 20 z M 44 20 L 44 21 L 46 21 L 46 20 L 44 20 z M 32 24 L 32 26 L 33 26 L 33 24 L 32 24 z M 34 27 L 34 28 L 36 28 L 36 27 L 34 27 z M 38 27 L 38 28 L 40 28 L 40 27 L 38 27 z M 42 27 L 42 28 L 44 28 L 44 27 L 42 27 z "
       id="rect834" />
    <path
       style="opacity:0.25;vector-effect:none;fill:#000000;fill-opacity:1;fill-rule:evenodd;stroke:none;stroke-width:2;stroke-linecap:round;stroke-linejoin:round;stroke-miterlimit:4;stroke-dasharray:none;stroke-opacity:1;paint-order:normal"
       d="M 32 18 C 30.892 18 30 18.892 30 20 L 30 28 C 30 29.108 30.892 30 32 30 L 44 30 C 45.108 30 46 29.108 46 28 L 46 20 C 46 18.892 45.108 18 44 18 L 32 18 z M 32 19 L 44 19 C 44.554 19 45 19.446 45 20 L 45 28 C 45 28.554 44.554 29 44 29 L 32 29 C 31.446 29 31 28.554 31 28 L 31 20 C 31 19.446 31.446 19 32 19 z "
       id="rect855" />
  </g>
</svg>
