<?xml version="1.0" encoding="UTF-8" standalone="no"?>
<!-- Created with Inkscape (http://www.inkscape.org/) -->

<svg
   xmlns:dc="http://purl.org/dc/elements/1.1/"
   xmlns:cc="http://creativecommons.org/ns#"
   xmlns:rdf="http://www.w3.org/1999/02/22-rdf-syntax-ns#"
   xmlns:svg="http://www.w3.org/2000/svg"
   xmlns="http://www.w3.org/2000/svg"
   xmlns:sodipodi="http://sodipodi.sourceforge.net/DTD/sodipodi-0.dtd"
   xmlns:inkscape="http://www.inkscape.org/namespaces/inkscape"
   width="48px"
   height="48px"
   viewBox="0 0 48 48"
   version="1.1"
   id="SVGRoot"
   inkscape:version="0.92.4 (5da689c313, 2019-01-14)"
   sodipodi:docname="libreoffice-draw.svg">
  <defs
     id="defs815">
    <linearGradient
       id="linearGradient1552"
       x1="24"
       x2="24"
       y1="7"
       y2="39"
       gradientUnits="userSpaceOnUse">
      <stop
         stop-color="#92b4da"
         offset="0"
         id="stop823" />
      <stop
         stop-color="#547cb1"
         offset="1"
         id="stop825" />
    </linearGradient>
    <linearGradient
       id="linearGradient857"
       x1="24"
       x2="24"
       y1="11"
       y2="37"
       gradientTransform="translate(0,-1)"
       gradientUnits="userSpaceOnUse">
      <stop
         stop-color="#dbe1e9"
         offset="0"
         id="stop828" />
      <stop
         stop-color="#b9c4d4"
         offset="1"
         id="stop830" />
    </linearGradient>
  </defs>
  <sodipodi:namedview
     id="base"
     pagecolor="#ffffff"
     bordercolor="#666666"
     borderopacity="1.0"
     inkscape:pageopacity="0.0"
     inkscape:pageshadow="2"
     inkscape:zoom="13.852756"
     inkscape:cx="6.9442304"
     inkscape:cy="25.524591"
     inkscape:document-units="px"
     inkscape:current-layer="layer1"
     showgrid="true"
     inkscape:window-width="1920"
     inkscape:window-height="1017"
     inkscape:window-x="-8"
     inkscape:window-y="-8"
     inkscape:window-maximized="1"
     inkscape:grid-bbox="true"
     inkscape:snap-global="true"
     showguides="false"
     inkscape:guide-bbox="true">
    <inkscape:grid
       type="xygrid"
       id="grid1371" />
  </sodipodi:namedview>
  <metadata
     id="metadata818">
    <rdf:RDF>
      <cc:Work
         rdf:about="">
        <dc:format>image/svg+xml</dc:format>
        <dc:type
           rdf:resource="http://purl.org/dc/dcmitype/StillImage" />
        <dc:title></dc:title>
      </cc:Work>
    </rdf:RDF>
  </metadata>
  <g
     inkscape:label="Layer 1"
     inkscape:groupmode="layer"
     id="layer1">
    <path
       style="opacity:1;vector-effect:none;fill:#f3bd32;fill-opacity:1;fill-rule:evenodd;stroke:none;stroke-width:4;stroke-linecap:round;stroke-linejoin:round;stroke-miterlimit:4;stroke-dasharray:none;stroke-dashoffset:0;stroke-opacity:1;paint-order:stroke fill markers"
       d="M 25.978516 3.9804688 A 2.0002 2.0002 0 0 0 25.716797 4 L 8 4 C 5.784 4 4 5.784 4 8 L 4 40 C 4 42.216 5.784 44 8 44 L 40 44 C 42.216 44 44 42.216 44 40 L 44 22.365234 A 2.0002 2.0002 0 0 0 43.414062 20.585938 L 27.414062 4.5859375 A 2.0002 2.0002 0 0 0 25.978516 3.9804688 z M 33 4 A 1.0001 1.0001 0 0 0 32.292969 5.7070312 L 42.292969 15.707031 A 1.0001 1.0001 0 0 0 44 15 L 44 13 L 44 8 C 44 5.784 42.216 4 40 4 L 35 4 L 33 4 z "
       id="rect1373-1" />
    <path
       style="color:#000000;font-style:normal;font-variant:normal;font-weight:normal;font-stretch:normal;font-size:medium;line-height:normal;font-family:sans-serif;font-variant-ligatures:normal;font-variant-position:normal;font-variant-caps:normal;font-variant-numeric:normal;font-variant-alternates:normal;font-feature-settings:normal;text-indent:0;text-align:start;text-decoration:none;text-decoration-line:none;text-decoration-style:solid;text-decoration-color:#000000;letter-spacing:normal;word-spacing:normal;text-transform:none;writing-mode:lr-tb;direction:ltr;text-orientation:mixed;dominant-baseline:auto;baseline-shift:baseline;text-anchor:start;white-space:normal;shape-padding:0;clip-rule:nonzero;display:inline;overflow:visible;visibility:visible;opacity:0.25;isolation:auto;mix-blend-mode:normal;color-interpolation:sRGB;color-interpolation-filters:linearRGB;solid-color:#000000;solid-opacity:1;vector-effect:none;fill:#000000;fill-opacity:1;fill-rule:evenodd;stroke:none;stroke-width:2;stroke-linecap:round;stroke-linejoin:round;stroke-miterlimit:4;stroke-dasharray:none;stroke-dashoffset:0;stroke-opacity:1;paint-order:stroke fill markers;color-rendering:auto;image-rendering:auto;shape-rendering:auto;text-rendering:auto;enable-background:accumulate"
       d="M 25.978516 3.9804688 A 2.0002 2.0002 0 0 0 25.716797 4 L 8 4 C 5.784 4 4 5.784 4 8 L 4 40 C 4 42.216 5.784 44 8 44 L 40 44 C 42.216 44 44 42.216 44 40 L 44 22.365234 A 2.0002 2.0002 0 0 0 43.414062 20.585938 L 27.414062 4.5859375 A 2.0002 2.0002 0 0 0 25.978516 3.9804688 z M 33 4 A 1.0001 1.0001 0 0 0 32.292969 5.7070312 L 42.292969 15.707031 A 1.0001 1.0001 0 0 0 44 15 L 44 13 L 44 8 C 44 5.784 42.216 4 40 4 L 35 4 L 33 4 z M 25.978516 4.9804688 L 25.980469 4.9804688 C 26.250574 4.9807235 26.508882 5.089554 26.697266 5.2832031 A 1.0001 1.0001 0 0 0 26.707031 5.2929688 L 42.707031 21.292969 A 1.0001 1.0001 0 0 0 42.720703 21.306641 C 42.960607 21.537106 43.069696 21.869349 43.013672 22.197266 A 1.0001 1.0001 0 0 0 43 22.365234 L 43 40 C 43 41.679297 41.679297 43 40 43 L 8 43 C 6.3207028 43 5 41.679297 5 40 L 5 8 C 5 6.3207028 6.3207028 5 8 5 L 25.716797 5 A 1.0001 1.0001 0 0 0 25.857422 4.9902344 C 25.897562 4.9845744 25.937982 4.9812287 25.978516 4.9804688 z M 33 5 L 35 5 L 40 5 C 41.679297 5 43 6.3207028 43 8 L 43 13 L 43 15 L 33 5 z "
       id="rect1373-1-0" />
    <rect
       style="opacity:1;vector-effect:none;fill:#ffffff;fill-opacity:1;fill-rule:evenodd;stroke:none;stroke-width:2;stroke-linecap:round;stroke-linejoin:round;stroke-miterlimit:4;stroke-dasharray:none;stroke-opacity:1;paint-order:normal"
       id="rect965"
       width="10"
       height="2"
       x="12"
       y="22"
       ry="1" />
    <rect
       style="opacity:1;vector-effect:none;fill:#ffffff;fill-opacity:1;fill-rule:evenodd;stroke:none;stroke-width:1.42857146;stroke-linecap:round;stroke-linejoin:miter;stroke-miterlimit:4;stroke-dasharray:none;stroke-opacity:1;paint-order:normal"
       id="rect880"
       width="10"
       height="10"
       x="12"
       y="18"
       ry="5" />
    <path
       style="opacity:1;vector-effect:none;fill:#ffffff;fill-opacity:1;fill-rule:evenodd;stroke:none;stroke-width:2;stroke-linecap:round;stroke-linejoin:miter;stroke-miterlimit:4;stroke-dasharray:none;stroke-opacity:1;paint-order:normal"
       d="M 24,20 V 32 H 36 V 20 Z m 2,2 h 8 v 8 h -8 z"
       id="rect882"
       inkscape:connector-curvature="0" />
    <path
       style="fill:#ffe8a1;stroke:none;stroke-width:1px;stroke-linecap:butt;stroke-linejoin:miter;stroke-opacity:1"
       d="m 15,36 8,-12 8,12 z"
       id="path884"
       inkscape:connector-curvature="0" />
  </g>
</svg>
