<?xml version="1.0" encoding="UTF-8" standalone="no"?>
<!-- Created with Inkscape (http://www.inkscape.org/) -->

<svg
   xmlns:dc="http://purl.org/dc/elements/1.1/"
   xmlns:cc="http://creativecommons.org/ns#"
   xmlns:rdf="http://www.w3.org/1999/02/22-rdf-syntax-ns#"
   xmlns:svg="http://www.w3.org/2000/svg"
   xmlns="http://www.w3.org/2000/svg"
   xmlns:sodipodi="http://sodipodi.sourceforge.net/DTD/sodipodi-0.dtd"
   xmlns:inkscape="http://www.inkscape.org/namespaces/inkscape"
   width="48px"
   height="48px"
   viewBox="0 0 48 48"
   version="1.1"
   id="SVGRoot"
   inkscape:version="0.92.4 (5da689c313, 2019-01-14)"
   sodipodi:docname="luckybackup.svg">
  <defs
     id="defs815" />
  <sodipodi:namedview
     id="base"
     pagecolor="#ffffff"
     bordercolor="#666666"
     borderopacity="1.0"
     inkscape:pageopacity="0.0"
     inkscape:pageshadow="2"
     inkscape:zoom="19.279538"
     inkscape:cx="20.440505"
     inkscape:cy="27.482989"
     inkscape:document-units="px"
     inkscape:current-layer="layer1"
     showgrid="true"
     inkscape:window-width="1920"
     inkscape:window-height="1017"
     inkscape:window-x="-8"
     inkscape:window-y="-8"
     inkscape:window-maximized="1"
     inkscape:grid-bbox="true"
     inkscape:snap-global="true"
     showguides="true"
     inkscape:guide-bbox="true">
    <inkscape:grid
       type="xygrid"
       id="grid1371" />
  </sodipodi:namedview>
  <metadata
     id="metadata818">
    <rdf:RDF>
      <cc:Work
         rdf:about="">
        <dc:format>image/svg+xml</dc:format>
        <dc:type
           rdf:resource="http://purl.org/dc/dcmitype/StillImage" />
        <dc:title />
      </cc:Work>
    </rdf:RDF>
  </metadata>
  <g
     inkscape:label="Layer 1"
     inkscape:groupmode="layer"
     id="layer1">
    <rect
       style="opacity:1;vector-effect:none;fill:#efefef;fill-opacity:1;fill-rule:evenodd;stroke:none;stroke-width:8;stroke-linecap:round;stroke-linejoin:round;stroke-miterlimit:4;stroke-dasharray:none;stroke-opacity:1;paint-order:stroke fill markers"
       id="rect844"
       width="32"
       height="32"
       x="8"
       y="8" />
    <path
       style="opacity:0.25;vector-effect:none;fill:#000000;fill-opacity:1;fill-rule:evenodd;stroke:none;stroke-width:8;stroke-linecap:round;stroke-linejoin:round;stroke-miterlimit:4;stroke-dasharray:none;stroke-opacity:1;paint-order:stroke fill markers"
       d="M 9 8 C 8.446 8 8 8.446 8 9 L 8 39 C 8 39.554 8.446 40 9 40 L 39 40 C 39.554 40 40 39.554 40 39 L 40 9 C 40 8.446 39.554 8 39 8 L 9 8 z M 9.5 9 L 38.5 9 C 38.777 9 39 9.223 39 9.5 L 39 38.5 C 39 38.777 38.777 39 38.5 39 L 9.5 39 C 9.223 39 9 38.777 9 38.5 L 9 9.5 C 9 9.223 9.223 9 9.5 9 z "
       id="rect855" />
    <path
       style="opacity:1;vector-effect:none;fill:#71b9e3;fill-opacity:1;fill-rule:evenodd;stroke:none;stroke-width:4;stroke-linecap:round;stroke-linejoin:round;stroke-miterlimit:4;stroke-dasharray:none;stroke-dashoffset:0;stroke-opacity:1;paint-order:stroke fill markers"
       d="M 8 4 C 5.784 4 4 5.784 4 8 L 4 18 C 4 20 6 20 6 20 L 8 20 L 8 9 C 8 8.446 8.446 8 9 8 L 39 8 C 39.554 8 40 8.446 40 9 L 40 20 L 44 20 L 44 8 C 44 5.784 42.216 4 40 4 L 8 4 z "
       id="rect1373" />
    <path
       style="fill:#71b9e3;stroke:none;stroke-width:1px;stroke-linecap:butt;stroke-linejoin:miter;stroke-opacity:1"
       d="M 44,9 33,20 h 11 z"
       id="path820"
       inkscape:connector-curvature="0"
       sodipodi:nodetypes="cccc" />
    <path
       style="fill:#729dec;stroke:none;stroke-width:1px;stroke-linecap:butt;stroke-linejoin:miter;stroke-opacity:1"
       d="M 4,39 15,28 H 4 Z"
       id="path820-8"
       inkscape:connector-curvature="0"
       sodipodi:nodetypes="cccc" />
    <path
       style="opacity:0.25;vector-effect:none;fill:#000000;fill-opacity:1;fill-rule:evenodd;stroke:none;stroke-width:4;stroke-linecap:round;stroke-linejoin:round;stroke-miterlimit:4;stroke-dasharray:none;stroke-dashoffset:0;stroke-opacity:1;paint-order:stroke fill markers"
       d="M 8,4 C 5.784,4 4,5.784 4,8 v 10 c 0,0 0,2 2,2 H 8 V 19 H 6 C 5,19 5,18 5,18 V 8 C 5,6.338 6.338,5 8,5 h 32 c 1.662,0 3,1.338 3,3 V 19 H 35.5 L 41,13.5 V 12 l -8,8 h 10 1 V 8 C 44,5.784 42.216,4 40,4 Z"
       id="rect826"
       inkscape:connector-curvature="0"
       sodipodi:nodetypes="sscsccscsssscccccccsss" />
    <path
       inkscape:connector-curvature="0"
       style="opacity:1;vector-effect:none;fill:#729dec;fill-opacity:1;fill-rule:evenodd;stroke:none;stroke-width:4;stroke-linecap:round;stroke-linejoin:round;stroke-miterlimit:4;stroke-dasharray:none;stroke-dashoffset:0;stroke-opacity:1;paint-order:stroke fill markers"
       d="m 40,44 c 2.216,0 4,-1.784 4,-4 V 30 c 0,-2 -2,-2 -2,-2 h -2 v 11 c 0,0.554 -0.446,1 -1,1 H 9 C 8.446,40 8,39.554 8,39 V 28 H 4 v 12 c 0,2.216 1.784,4 4,4 z"
       id="rect1373-3" />
    <path
       inkscape:connector-curvature="0"
       style="opacity:0.25;vector-effect:none;fill:#000000;fill-opacity:1;fill-rule:evenodd;stroke:none;stroke-width:4;stroke-linecap:round;stroke-linejoin:round;stroke-miterlimit:4;stroke-dasharray:none;stroke-dashoffset:0;stroke-opacity:1;paint-order:stroke fill markers"
       d="m 40,44 c 2.216,0 4,-1.784 4,-4 V 30 c 0,0 0,-2 -2,-2 h -2 v 1 h 2 c 1,0 1,1 1,1 v 10 c 0,1.662 -1.338,3 -3,3 H 8 C 6.338,43 5,41.662 5,40 V 29 h 7.5 L 7,34.5 V 36 l 8,-8 H 5 4 v 12 c 0,2.216 1.784,4 4,4 z"
       id="rect826-5"
       sodipodi:nodetypes="sscsccscsssscccccccsss" />
  </g>
</svg>
