<?xml version="1.0" encoding="UTF-8" standalone="no"?>
<!-- Created with Inkscape (http://www.inkscape.org/) -->

<svg
   xmlns:dc="http://purl.org/dc/elements/1.1/"
   xmlns:cc="http://creativecommons.org/ns#"
   xmlns:rdf="http://www.w3.org/1999/02/22-rdf-syntax-ns#"
   xmlns:svg="http://www.w3.org/2000/svg"
   xmlns="http://www.w3.org/2000/svg"
   xmlns:sodipodi="http://sodipodi.sourceforge.net/DTD/sodipodi-0.dtd"
   xmlns:inkscape="http://www.inkscape.org/namespaces/inkscape"
   width="48px"
   height="48px"
   viewBox="0 0 48 48"
   version="1.1"
   id="SVGRoot"
   inkscape:version="0.92.4 (5da689c313, 2019-01-14)"
   sodipodi:docname="maverick-model-3d.svg">
  <defs
     id="defs815" />
  <sodipodi:namedview
     id="base"
     pagecolor="#ffffff"
     bordercolor="#666666"
     borderopacity="1.0"
     inkscape:pageopacity="0.0"
     inkscape:pageshadow="2"
     inkscape:zoom="16.082809"
     inkscape:cx="9.4445828"
     inkscape:cy="22.754749"
     inkscape:document-units="px"
     inkscape:current-layer="layer1"
     showgrid="true"
     inkscape:window-width="1920"
     inkscape:window-height="1017"
     inkscape:window-x="-8"
     inkscape:window-y="-8"
     inkscape:window-maximized="1"
     inkscape:grid-bbox="true">
    <inkscape:grid
       type="xygrid"
       id="grid1371" />
  </sodipodi:namedview>
  <metadata
     id="metadata818">
    <rdf:RDF>
      <cc:Work
         rdf:about="">
        <dc:format>image/svg+xml</dc:format>
        <dc:type
           rdf:resource="http://purl.org/dc/dcmitype/StillImage" />
        <dc:title />
      </cc:Work>
    </rdf:RDF>
  </metadata>
  <g
     inkscape:label="Layer 1"
     inkscape:groupmode="layer"
     id="layer1">
    <rect
       style="opacity:1;vector-effect:none;fill:#627ad4;fill-opacity:1;fill-rule:evenodd;stroke:none;stroke-width:2;stroke-linecap:round;stroke-linejoin:round;stroke-miterlimit:4;stroke-dasharray:none;stroke-dashoffset:0;stroke-opacity:1;paint-order:stroke fill markers"
       id="rect851"
       width="36"
       height="36"
       x="6"
       y="6"
       ry="4" />
    <path
       style="opacity:1;vector-effect:none;fill:#627ad4;fill-opacity:1;fill-rule:evenodd;stroke:none;stroke-width:4;stroke-linecap:round;stroke-linejoin:round;stroke-miterlimit:4;stroke-dasharray:none;stroke-dashoffset:0;stroke-opacity:1;paint-order:stroke fill markers"
       d="M 8 4 C 5.784 4 4 5.784 4 8 L 4 40 C 4 42.216 5.784 44 8 44 L 40 44 C 42.216 44 44 42.216 44 40 L 42 38 L 9 39 L 10 6 L 8 4 z "
       id="rect1373" />
    <path
       style="fill:#475ba3;stroke:none;stroke-width:1px;stroke-linecap:butt;stroke-linejoin:miter;stroke-opacity:1;fill-opacity:1"
       d="M 8 4 L 8 6 L 8 38 C 8 39.108 8.892 40 10 40 L 42 40 L 44 40 L 42 38 L 11 38 C 10.446 38 10 37.554 10 37 L 10 6 L 8 4 z "
       id="path819" />
    <path
       style="opacity:0.25;vector-effect:none;fill:#000000;fill-opacity:1;fill-rule:evenodd;stroke:none;stroke-width:4;stroke-linecap:round;stroke-linejoin:round;stroke-miterlimit:4;stroke-dasharray:none;stroke-dashoffset:0;stroke-opacity:1;paint-order:stroke fill markers"
       d="M 8 4 C 5.784 4 4 5.784 4 8 L 4 40 C 4 42.216 5.784 44 8 44 L 40 44 C 42.216 44 44 42.216 44 40 L 42 38 L 42 10 C 42 7.784 40.215939 6.0164941 38 6 L 10 6 L 8 4 z M 8 5 L 10 7 L 38 7 C 39.662 7 41.001179 8.3380004 41 10 L 41 38 L 43 40 C 43 41.662 41.662 43 40 43 L 8 43 C 6.338 43 5 41.662 5 40 L 5 8 C 5 6.338 6.338 5 8 5 z "
       id="rect834" />
    <path
       style="opacity:0.25;vector-effect:none;fill:#000000;fill-opacity:1;fill-rule:evenodd;stroke:none;stroke-width:2.42857146;stroke-linecap:round;stroke-linejoin:round;stroke-miterlimit:4;stroke-dasharray:none;stroke-dashoffset:0;stroke-opacity:1;paint-order:stroke fill markers"
       d="M 22.982422 6 C 17.630032 8.8563388 14 14.486465 14 21 C 14 30.418 21.582 38 31 38 C 35.205319 38 39.038351 36.480593 42 33.96875 L 42 10 C 42 8.7138776 41.388711 7.58625 40.451172 6.8554688 C 40.158849 6.6602508 39.851718 6.4857665 39.546875 6.3085938 C 39.071465 6.1101612 38.548997 6 38 6 L 22.982422 6 z "
       id="rect853-3" />
    <rect
       style="opacity:1;vector-effect:none;fill:#dd5c89;fill-opacity:1;fill-rule:evenodd;stroke:none;stroke-width:2.14285707;stroke-linecap:round;stroke-linejoin:round;stroke-miterlimit:4;stroke-dasharray:none;stroke-dashoffset:0;stroke-opacity:1;paint-order:stroke fill markers"
       id="rect853"
       width="30"
       height="30"
       x="14"
       y="4"
       ry="15" />
    <path
       style="opacity:0.25;vector-effect:none;fill:#000000;fill-opacity:1;fill-rule:evenodd;stroke:none;stroke-width:2.14285707;stroke-linecap:round;stroke-linejoin:round;stroke-miterlimit:4;stroke-dasharray:none;stroke-dashoffset:0;stroke-opacity:1;paint-order:stroke fill markers"
       d="M 14.148438 17 C 14.061543 17.655819 14 18.319683 14 19 C 14 27.31 20.69 34 29 34 C 37.31 34 44 27.31 44 19 C 44 18.319683 43.938457 17.655819 43.851562 17 C 42.877054 24.35495 36.629683 30 29 30 C 21.370317 30 15.122946 24.35495 14.148438 17 z "
       id="rect853-6" />
    <path
       style="opacity:0.25;vector-effect:none;fill:#000000;fill-opacity:1;fill-rule:evenodd;stroke:none;stroke-width:4;stroke-linecap:round;stroke-linejoin:round;stroke-miterlimit:4;stroke-dasharray:none;stroke-dashoffset:0;stroke-opacity:1;paint-order:stroke fill markers"
       d="M 29 4 C 20.69 4 14 10.69 14 19 C 14 27.31 20.69 34 29 34 C 37.31 34 44 27.31 44 19 C 44 10.69 37.31 4 29 4 z M 29 5 C 36.756 5 43 11.244 43 19 C 43 26.756 36.756 33 29 33 C 21.244 33 15 26.756 15 19 C 15 11.244 21.244 5 29 5 z "
       id="rect863" />
  </g>
</svg>
