<?xml version="1.0" encoding="UTF-8" standalone="no"?>
<!-- Created with Inkscape (http://www.inkscape.org/) -->

<svg
   xmlns:dc="http://purl.org/dc/elements/1.1/"
   xmlns:cc="http://creativecommons.org/ns#"
   xmlns:rdf="http://www.w3.org/1999/02/22-rdf-syntax-ns#"
   xmlns:svg="http://www.w3.org/2000/svg"
   xmlns="http://www.w3.org/2000/svg"
   xmlns:sodipodi="http://sodipodi.sourceforge.net/DTD/sodipodi-0.dtd"
   xmlns:inkscape="http://www.inkscape.org/namespaces/inkscape"
   width="48px"
   height="48px"
   viewBox="0 0 48 48"
   version="1.1"
   id="SVGRoot"
   inkscape:version="0.92.4 (5da689c313, 2019-01-14)"
   sodipodi:docname="media-player-banshee.svg">
  <defs
     id="defs815" />
  <sodipodi:namedview
     id="base"
     pagecolor="#ffffff"
     bordercolor="#666666"
     borderopacity="1.0"
     inkscape:pageopacity="0.0"
     inkscape:pageshadow="2"
     inkscape:zoom="9.639769"
     inkscape:cx="25.048406"
     inkscape:cy="26.438661"
     inkscape:document-units="px"
     inkscape:current-layer="layer1"
     showgrid="true"
     inkscape:window-width="1920"
     inkscape:window-height="1017"
     inkscape:window-x="-8"
     inkscape:window-y="-8"
     inkscape:window-maximized="1"
     inkscape:grid-bbox="true"
     inkscape:snap-global="true">
    <inkscape:grid
       type="xygrid"
       id="grid1371" />
  </sodipodi:namedview>
  <metadata
     id="metadata818">
    <rdf:RDF>
      <cc:Work
         rdf:about="">
        <dc:format>image/svg+xml</dc:format>
        <dc:type
           rdf:resource="http://purl.org/dc/dcmitype/StillImage" />
        <dc:title></dc:title>
      </cc:Work>
    </rdf:RDF>
  </metadata>
  <g
     inkscape:label="Layer 1"
     inkscape:groupmode="layer"
     id="layer1">
    <rect
       style="opacity:1;vector-effect:none;fill:#efefef;fill-opacity:1;fill-rule:evenodd;stroke:none;stroke-width:4;stroke-linecap:round;stroke-linejoin:round;stroke-miterlimit:4;stroke-dasharray:none;stroke-dashoffset:0;stroke-opacity:1;paint-order:stroke fill markers"
       id="rect1373"
       width="40"
       height="40"
       x="4"
       y="4"
       ry="4" />
    <path
       style="opacity:0.25;vector-effect:none;fill:#000000;fill-opacity:1;fill-rule:evenodd;stroke:none;stroke-width:4;stroke-linecap:round;stroke-linejoin:round;stroke-miterlimit:4;stroke-dasharray:none;stroke-dashoffset:0;stroke-opacity:1;paint-order:stroke fill markers"
       d="M 8 4 C 5.784 4 4 5.784 4 8 L 4 40 C 4 42.216 5.784 44 8 44 L 40 44 C 42.216 44 44 42.216 44 40 L 44 8 C 44 5.784 42.216 4 40 4 L 8 4 z M 8 5 L 40 5 C 41.662 5 43 6.338 43 8 L 43 40 C 43 41.662 41.662 43 40 43 L 8 43 C 6.338 43 5 41.662 5 40 L 5 8 C 5 6.338 6.338 5 8 5 z "
       id="rect826" />
    <path
       style="fill:#729dec;stroke:none;stroke-width:1px;stroke-linecap:butt;stroke-linejoin:miter;stroke-opacity:1"
       d="M 19.574219,1.8945312 C 17.171875,1.953125 13.5,2.5 11,5 8.4944506,7.5055494 2,12 2,12 2,12 8.5023587,12.264785 11.051868,11.414948 14.051868,10.414948 16,9 16,9 v 29 h 11 c 8,0 11,-5 11,-9 0,-5 -4.666667,-7.037369 -8,-7.037369 C 27,21.962631 22,24 22,24 V 2 C 22,2 21.015625,1.859375 19.574219,1.8945312 Z M 27,28 c 1.374369,0 4,0 4,2 0,2.403701 -3,4 -6,4 h -3 v -5 c 0,0 3,-1 5,-1 z"
       id="path828"
       inkscape:connector-curvature="0"
       sodipodi:nodetypes="sscsccsssccssssccs" />
    <path
       style="color:#000000;font-style:normal;font-variant:normal;font-weight:normal;font-stretch:normal;font-size:medium;line-height:normal;font-family:sans-serif;font-variant-ligatures:normal;font-variant-position:normal;font-variant-caps:normal;font-variant-numeric:normal;font-variant-alternates:normal;font-feature-settings:normal;text-indent:0;text-align:start;text-decoration:none;text-decoration-line:none;text-decoration-style:solid;text-decoration-color:#000000;letter-spacing:normal;word-spacing:normal;text-transform:none;writing-mode:lr-tb;direction:ltr;text-orientation:mixed;dominant-baseline:auto;baseline-shift:baseline;text-anchor:start;white-space:normal;shape-padding:0;clip-rule:nonzero;display:inline;overflow:visible;visibility:visible;opacity:0.25;isolation:auto;mix-blend-mode:normal;color-interpolation:sRGB;color-interpolation-filters:linearRGB;solid-color:#000000;solid-opacity:1;vector-effect:none;fill:#000000;fill-opacity:1;fill-rule:nonzero;stroke:none;stroke-width:2;stroke-linecap:butt;stroke-linejoin:miter;stroke-miterlimit:4;stroke-dasharray:none;stroke-dashoffset:0;stroke-opacity:1;color-rendering:auto;image-rendering:auto;shape-rendering:auto;text-rendering:auto;enable-background:accumulate"
       d="M 19.574219,1.8945312 C 17.171875,1.9531251 13.5,2.5 11,5 8.4944506,7.5055494 2,12 2,12 2,12 8.5032251,12.2639 11.052734,11.414062 14.052734,10.414062 16,9 16,9 v 29 h 11 c 8,0 11,-5 11,-9 0,-5 -4.666667,-7.037109 -8,-7.037109 C 27,21.962891 22,24 22,24 V 2 C 22,2 21.015625,1.859375 19.574219,1.8945312 Z m 0.02344,1 C 20.444193,2.8738842 20.616405,2.9184143 21,2.953125 v 22.535156 l 1.376953,-0.5625 c 0,0 1.213773,-0.494024 2.796875,-0.990234 1.583102,-0.49621 3.552546,-0.972656 4.826172,-0.972656 1.46293,0 3.293519,0.472339 4.667969,1.457031 C 36.042418,25.404614 37,26.811111 37,29 37,30.75 36.340938,32.744999 34.792969,34.292969 33.244999,35.840938 30.791667,37 27,37 H 17 V 6.1679688 c 0,0 -1.034166,1.6228894 -1.777344,2.2050781 -1.299122,1.0177021 -1.821321,1.2054144 -4.486328,2.0937501 -1.0032405,0.334414 -3.2773745,0.521217 -5.1874999,0.560547 -0.2541882,0.0052 -0.2266792,-0.0058 -0.4667969,-0.0039 2.1217379,-1.5239143 4.8822935,-3.5736998 6.6249998,-5.3164068 2.205372,-2.205372 5.615077,-2.7569986 7.890625,-2.8125 z M 27,27 c -2.333333,0 -5.316406,1.050781 -5.316406,1.050781 L 21,28.279297 V 35 h 4 c 1.677367,0 3.333676,-0.430038 4.652344,-1.25 C 30.971011,32.930038 32,31.617876 32,30 32,29.281197 31.725872,28.609235 31.292969,28.154297 30.860065,27.699358 30.325384,27.450145 29.804688,27.292969 28.763293,26.978616 27.687185,27 27,27 Z m 0,1 c 1.374369,0 4,0 4,2 0,2.403701 -3,4 -6,4 h -3 v -5 c 0,0 3,-1 5,-1 z"
       id="path828-8"
       inkscape:connector-curvature="0"
       sodipodi:nodetypes="sscsccsssccsscccssssssccssccssssccsssssssssccss" />
  </g>
</svg>
