<?xml version="1.0" encoding="UTF-8" standalone="no"?>
<!-- Created with Inkscape (http://www.inkscape.org/) -->

<svg
   xmlns:dc="http://purl.org/dc/elements/1.1/"
   xmlns:cc="http://creativecommons.org/ns#"
   xmlns:rdf="http://www.w3.org/1999/02/22-rdf-syntax-ns#"
   xmlns:svg="http://www.w3.org/2000/svg"
   xmlns="http://www.w3.org/2000/svg"
   xmlns:sodipodi="http://sodipodi.sourceforge.net/DTD/sodipodi-0.dtd"
   xmlns:inkscape="http://www.inkscape.org/namespaces/inkscape"
   width="48px"
   height="48px"
   viewBox="0 0 48 48"
   version="1.1"
   id="SVGRoot"
   inkscape:version="0.92.4 (5da689c313, 2019-01-14)"
   sodipodi:docname="midori.svg">
  <defs
     id="defs815" />
  <sodipodi:namedview
     id="base"
     pagecolor="#ffffff"
     bordercolor="#666666"
     borderopacity="1.0"
     inkscape:pageopacity="0.0"
     inkscape:pageshadow="2"
     inkscape:zoom="13.632692"
     inkscape:cx="25.048406"
     inkscape:cy="23.459606"
     inkscape:document-units="px"
     inkscape:current-layer="layer1"
     showgrid="true"
     inkscape:window-width="1920"
     inkscape:window-height="1017"
     inkscape:window-x="-8"
     inkscape:window-y="-8"
     inkscape:window-maximized="1"
     inkscape:grid-bbox="true"
     inkscape:snap-global="false">
    <inkscape:grid
       type="xygrid"
       id="grid1371" />
  </sodipodi:namedview>
  <metadata
     id="metadata818">
    <rdf:RDF>
      <cc:Work
         rdf:about="">
        <dc:format>image/svg+xml</dc:format>
        <dc:type
           rdf:resource="http://purl.org/dc/dcmitype/StillImage" />
        <dc:title></dc:title>
      </cc:Work>
    </rdf:RDF>
  </metadata>
  <g
     inkscape:label="Layer 1"
     inkscape:groupmode="layer"
     id="layer1">
    <rect
       style="opacity:1;vector-effect:none;fill:#efefef;fill-opacity:1;fill-rule:evenodd;stroke:none;stroke-width:4;stroke-linecap:round;stroke-linejoin:round;stroke-miterlimit:4;stroke-dasharray:none;stroke-dashoffset:0;stroke-opacity:1;paint-order:stroke fill markers"
       id="rect1373"
       width="40"
       height="40"
       x="4"
       y="4"
       ry="4" />
    <path
       style="opacity:1;vector-effect:none;fill:#6ba641;fill-opacity:1;fill-rule:evenodd;stroke:none;stroke-width:4;stroke-linecap:round;stroke-linejoin:round;stroke-miterlimit:4;stroke-dasharray:none;stroke-dashoffset:0;stroke-opacity:1;paint-order:stroke fill markers"
       d="M 31.505859 11.025391 C 29.604938 11.083587 27.258952 11.755267 23.789062 13.060547 C 20.332569 14.360788 18.277951 14.937235 14.761719 15.597656 C 13.064198 15.916485 12.625 16.048088 12.625 16.236328 C 12.625 16.312971 12.722967 16.596599 12.841797 16.865234 C 13.272192 17.838213 12.724467 18.243063 10.660156 18.478516 C 9.9647934 18.557828 9.3434749 18.676054 9.2792969 18.740234 C 9.0619376 18.957593 9.300635 19.297252 10.054688 19.845703 C 10.467992 20.146315 10.860174 20.51384 10.927734 20.662109 C 11.034498 20.896429 11.01574 20.966682 10.779297 21.203125 C 10.565831 21.416591 10.337898 21.496969 9.7226562 21.574219 C 8.8932014 21.678369 8.6445312 21.799716 8.6445312 22.101562 C 8.6445312 22.50977 9.0739786 22.716569 10.568359 23.029297 C 11.004261 23.120525 11.45109 23.252686 11.5625 23.322266 C 11.883145 23.522512 11.804451 23.874612 11.345703 24.289062 C 10.957609 24.639684 10.942851 24.671782 11.152344 24.726562 C 11.276975 24.759182 11.820544 24.756223 12.361328 24.720703 C 13.608517 24.638778 14.044296 24.723984 14.443359 25.123047 C 14.781764 25.461452 15.04203 26.350887 14.96875 26.917969 C 14.935111 27.17827 14.908251 27.146286 14.755859 26.664062 C 14.381835 25.480514 14.092532 25.224609 13.121094 25.224609 C 12.070571 25.224609 11.616085 25.539607 11.050781 26.658203 C 10.509801 27.728665 9.7207031 29.692476 9.7207031 29.970703 C 9.7207031 30.272732 10.014703 30.603516 10.28125 30.603516 C 10.887074 30.603516 12.257256 30.994682 13.134766 31.417969 C 14.227052 31.94486 15.341707 32.885402 15.857422 33.712891 L 16.152344 34.183594 L 16.59375 33.240234 C 17.595828 31.101855 19.205899 29.24249 21.083984 28.054688 C 21.257368 27.945033 21.208332 27.924782 20.748047 27.914062 C 20.248917 27.902439 19.21199 27.738737 19.460938 27.710938 C 22.536427 27.367514 23.214006 27.218463 25.568359 26.359375 C 27.973074 25.481911 28.075734 25.455867 27.310547 25.931641 C 25.81835 26.859453 23.445199 27.806641 22.611328 27.806641 C 22.259808 27.806641 21.175275 28.420871 20.333984 29.097656 C 19.41399 29.837752 18.444255 30.991466 17.775391 32.136719 C 17.276494 32.990948 16.610522 34.526916 16.607422 34.833984 C 16.604617 35.113096 17.436126 36.235806 18.267578 37.078125 C 19.01456 37.834873 19.784704 38.289055 20.591797 38.447266 C 21.253637 38.576999 21.205222 38.578617 22 38.410156 C 22.825225 38.235241 23.613097 37.862792 24.484375 37.234375 C 25.001963 36.86106 25.098962 36.736599 25.101562 36.457031 C 25.110648 35.49389 25.795194 33.667427 26.689453 32.21875 C 28.370979 29.494718 32.560389 25.086467 34.679688 23.8125 C 36.620959 22.645549 37.92106 21.614058 38.822266 20.521484 C 39.718663 19.434735 40.186584 18.31572 39.806641 18.169922 C 39.712822 18.13392 39.016316 18.347026 38.259766 18.642578 C 35.446933 19.741432 31.994425 20.740681 29.085938 21.296875 C 28.287158 21.449627 27.432472 21.649708 27.1875 21.742188 C 26.65908 21.941669 26.329522 21.824223 26.222656 21.398438 C 26.097883 20.901303 26.407371 20.716209 27.349609 20.724609 C 28.267731 20.732834 30.726065 20.323335 32.689453 19.833984 C 35.276776 19.189125 39.768903 17.592262 39.992188 17.238281 C 40.430159 16.543953 38.516429 14.001053 36.554688 12.669922 C 34.863885 11.522635 33.406781 10.967195 31.505859 11.025391 z M 25.763672 14.902344 C 26.192477 14.890611 26.645776 14.922655 26.945312 15.005859 C 27.407503 15.134245 28.443215 15.801846 29.005859 16.333984 C 29.434513 16.739396 29.540814 17.08494 29.220703 17.03125 C 29.106859 17.012158 28.824199 17.221764 28.505859 17.5625 C 28.216315 17.872413 27.826668 18.220958 27.640625 18.335938 C 27.189347 18.614839 26.04061 18.714086 25.519531 18.519531 C 24.712644 18.218263 24.194616 17.636409 23.804688 16.59375 L 23.558594 15.9375 L 23.964844 15.585938 C 24.187478 15.393485 24.529886 15.159736 24.726562 15.066406 C 24.93096 14.969414 25.334866 14.914077 25.763672 14.902344 z M 35.621094 15.777344 C 35.8565 15.804421 35.916016 15.866513 35.916016 16.080078 C 35.916016 16.293637 35.856501 16.355732 35.621094 16.382812 C 35.303141 16.419384 35.144275 16.213072 35.259766 15.912109 C 35.30195 15.802174 35.427767 15.755104 35.621094 15.777344 z M 44 18.337891 C 42.960646 18.471917 42.52211 18.626348 41.845703 19.025391 C 40.459776 19.843007 38.761895 21.705362 37.966797 23.277344 C 37.738897 23.727926 37.712221 23.841033 37.847656 23.789062 C 39.15448 23.287587 41.729158 23.018488 44 23.091797 L 44 18.337891 z M 43.792969 23.783203 C 40.97365 23.796825 38.112811 24.134705 37.519531 24.523438 C 37.011501 24.856311 36.231047 27.837471 35.904297 30.697266 C 35.742713 32.111722 35.742157 32.273842 35.898438 32.601562 C 35.992388 32.79858 36.180937 33.032624 36.316406 33.121094 C 36.713077 33.380157 39.651935 33.983652 44 34.705078 L 44 23.783203 C 43.91494 23.783757 43.884126 23.782763 43.792969 23.783203 z M 31.832031 30.283203 C 31.524761 30.196124 30.792552 30.67274 29.849609 31.607422 C 29.457372 31.996223 28.991264 32.557699 28.814453 32.855469 C 28.637641 33.153239 28.451058 33.397238 28.398438 33.398438 C 28.309581 33.40042 28.333675 33.07943 28.507812 31.921875 C 28.569023 31.514982 28.552528 31.464844 28.363281 31.464844 C 27.917616 31.464844 27.764658 31.825137 27.673828 33.082031 C 27.624688 33.762033 27.516102 34.413842 27.419922 34.613281 C 27.139003 35.19583 25.631969 36.958229 24.861328 37.605469 C 23.062055 39.116625 21.053951 39.603782 19.564453 38.890625 C 18.710762 38.481886 17.534754 37.21066 16.330078 35.394531 C 14.943817 33.304652 14.425596 32.799437 12.865234 32.013672 C 12.192441 31.674867 10.420809 31.143116 9.9648438 31.142578 C 9.8326474 31.142429 9.573932 31.275668 9.390625 31.439453 C 9.107035 31.692841 9.013655 31.921617 8.7578125 32.972656 C 8.2801242 34.935072 8.0765151 36.590102 8.0644531 38.619141 C 8.049553 41.125568 8.1585047 42.073592 8.484375 42.287109 C 8.7115175 42.435938 8.8040217 42.42802 9.5058594 42.214844 C 10.166354 42.014226 10.45027 41.988706 11.478516 42.035156 C 13.060874 42.10664 14.270697 42.537491 15.638672 43.517578 C 15.879957 43.690447 16.130097 43.850864 16.384766 44 L 22.863281 44 C 24.222426 43.109333 25.51638 41.586781 27.302734 38.853516 L 28.320312 37.296875 L 29 37.220703 L 29.677734 37.144531 L 30.646484 36.148438 C 31.508272 35.260199 31.675129 35.135064 32.169922 35.019531 C 32.719395 34.89123 32.969709 34.708084 33.099609 34.341797 C 33.178555 34.11918 33.173215 34.117971 32.017578 34.150391 C 31.50082 34.164891 31.128906 34.132816 31.128906 34.072266 C 31.128906 33.861528 31.597051 33.383053 32.212891 32.964844 C 32.92091 32.484038 33.115091 32.212785 33.019531 31.832031 C 32.908034 31.387794 32.625725 31.479329 31.423828 32.353516 C 30.128018 33.296008 30.093229 32.7027 31.371094 31.449219 C 31.811126 31.017584 31.990234 30.762215 31.990234 30.5625 C 31.990234 30.40442 31.934455 30.31223 31.832031 30.283203 z M 35.697266 33.535156 C 35.686067 33.549636 35.620341 34.433008 35.550781 35.498047 C 35.347137 38.616248 35.023618 40.367451 34.439453 41.515625 L 34.224609 41.939453 L 34.585938 42.246094 C 35.085407 42.670609 36.138778 43.365082 37.195312 44 L 40 44 C 42.216 44 44 42.216 44 40 L 44 35.394531 C 41.162855 35.0119 38.540695 34.464948 36.677734 33.833984 C 36.149832 33.65519 35.708466 33.520676 35.697266 33.535156 z M 26.460938 41.052734 C 26.443084 41.074817 26.220479 41.408372 25.964844 41.792969 C 25.709208 42.177567 25.060948 42.932096 24.523438 43.470703 C 24.329888 43.664647 24.133991 43.831249 23.939453 44 L 32.269531 44 C 32.721567 43.545293 33.072229 43.162073 33.044922 43.134766 C 33.013574 43.103417 32.848655 43.133595 32.677734 43.203125 C 32.199162 43.397811 30.637124 43.366136 29.892578 43.146484 C 28.93517 42.864036 27.894825 42.281281 27.152344 41.609375 C 26.790029 41.281498 26.478787 41.030654 26.460938 41.052734 z M 34.068359 42.441406 C 34.020441 42.44292 33.762354 42.793243 33.496094 43.220703 C 33.373148 43.418083 33.152423 43.704095 32.908203 44 L 35.988281 44 C 35.543406 43.665361 35.112315 43.32132 34.712891 42.953125 C 34.405797 42.670042 34.116279 42.439906 34.068359 42.441406 z M 10.683594 42.669922 C 10.443076 42.681041 10.211038 42.705501 9.9902344 42.746094 C 9.2883985 42.875119 8.8224229 43.249566 8.6855469 43.794922 C 8.6745389 43.838781 8.6811117 43.915729 8.6894531 44 L 15.587891 44 C 14.023462 43.100285 12.187622 42.600393 10.683594 42.669922 z "
       id="rect1373-5" />
    <path
       style="opacity:0.25;vector-effect:none;fill:#000000;fill-opacity:1;fill-rule:evenodd;stroke:none;stroke-width:4;stroke-linecap:round;stroke-linejoin:round;stroke-miterlimit:4;stroke-dasharray:none;stroke-dashoffset:0;stroke-opacity:1;paint-order:stroke fill markers"
       d="M 8 4 C 5.784 4 4 5.784 4 8 L 4 40 C 4 42.216 5.784 44 8 44 L 40 44 C 42.216 44 44 42.216 44 40 L 44 8 C 44 5.784 42.216 4 40 4 L 8 4 z M 8 5 L 40 5 C 41.662 5 43 6.338 43 8 L 43 40 C 43 41.662 41.662 43 40 43 L 8 43 C 6.338 43 5 41.662 5 40 L 5 8 C 5 6.338 6.338 5 8 5 z "
       id="rect826" />
  </g>
</svg>
