<?xml version="1.0" encoding="UTF-8" standalone="no"?>
<!-- Created with Inkscape (http://www.inkscape.org/) -->

<svg
   xmlns:dc="http://purl.org/dc/elements/1.1/"
   xmlns:cc="http://creativecommons.org/ns#"
   xmlns:rdf="http://www.w3.org/1999/02/22-rdf-syntax-ns#"
   xmlns:svg="http://www.w3.org/2000/svg"
   xmlns="http://www.w3.org/2000/svg"
   xmlns:sodipodi="http://sodipodi.sourceforge.net/DTD/sodipodi-0.dtd"
   xmlns:inkscape="http://www.inkscape.org/namespaces/inkscape"
   width="48px"
   height="48px"
   viewBox="0 0 48 48"
   version="1.1"
   id="SVGRoot"
   inkscape:version="0.92.4 (5da689c313, 2019-01-14)"
   sodipodi:docname="minigalaxy.svg">
  <defs
     id="defs815" />
  <sodipodi:namedview
     id="base"
     pagecolor="#ffffff"
     bordercolor="#666666"
     borderopacity="1.0"
     inkscape:pageopacity="0.0"
     inkscape:pageshadow="2"
     inkscape:zoom="6.816346"
     inkscape:cx="18.508892"
     inkscape:cy="32.894123"
     inkscape:document-units="px"
     inkscape:current-layer="layer1"
     showgrid="true"
     inkscape:window-width="1920"
     inkscape:window-height="1017"
     inkscape:window-x="-8"
     inkscape:window-y="-8"
     inkscape:window-maximized="1"
     inkscape:grid-bbox="true"
     inkscape:snap-global="true">
    <inkscape:grid
       type="xygrid"
       id="grid1371" />
  </sodipodi:namedview>
  <metadata
     id="metadata818">
    <rdf:RDF>
      <cc:Work
         rdf:about="">
        <dc:format>image/svg+xml</dc:format>
        <dc:type
           rdf:resource="http://purl.org/dc/dcmitype/StillImage" />
        <dc:title />
      </cc:Work>
    </rdf:RDF>
  </metadata>
  <g
     inkscape:label="Layer 1"
     inkscape:groupmode="layer"
     id="layer1">
    <rect
       style="opacity:0.5;vector-effect:none;fill:#ffffff;fill-opacity:1;fill-rule:evenodd;stroke:none;stroke-width:2;stroke-linecap:round;stroke-linejoin:round;stroke-miterlimit:4;stroke-dasharray:none;stroke-dashoffset:0;stroke-opacity:1;paint-order:normal"
       id="rect840"
       width="34"
       height="24"
       x="7"
       y="7" />
    <path
       style="opacity:1;vector-effect:none;fill:#c7e45f;fill-opacity:1;fill-rule:evenodd;stroke:none;stroke-width:2;stroke-linecap:round;stroke-linejoin:round;stroke-miterlimit:4;stroke-dasharray:none;stroke-dashoffset:0;stroke-opacity:1;paint-order:normal"
       d="m 22,10 c -6.648,0 -12,5.352 -12,12 v 12 h 12 4 12 V 22 C 38,15.352 32.648,10 26,10 Z"
       id="rect880"
       inkscape:connector-curvature="0" />
    <path
       style="opacity:0.25;vector-effect:none;fill:#000000;fill-opacity:1;fill-rule:evenodd;stroke:none;stroke-width:2;stroke-linecap:round;stroke-linejoin:round;stroke-miterlimit:4;stroke-dasharray:none;stroke-dashoffset:0;stroke-opacity:1;paint-order:normal"
       d="M 22 10 C 15.352 10 10 15.352 10 22 L 10 34 L 11 34 L 11 22 C 11 15.906 15.906 11 22 11 L 26 11 C 32.094 11 37 15.906 37 22 L 37 34 L 38 34 L 38 22 C 38 15.352 32.648 10 26 10 L 22 10 z "
       id="rect880-0" />
    <path
       style="opacity:1;vector-effect:none;fill:#efefef;fill-opacity:1;fill-rule:evenodd;stroke:none;stroke-width:4;stroke-linecap:round;stroke-linejoin:round;stroke-miterlimit:4;stroke-dasharray:none;stroke-dashoffset:0;stroke-opacity:1;paint-order:stroke fill markers"
       d="M 8 4 C 5.784 4 4 5.784 4 8 L 4 40 C 4 42.216 5.784 44 8 44 L 40 44 C 42.216 44 44 42.216 44 40 L 44 8 C 44 5.784 42.216 4 40 4 L 8 4 z M 9 8 L 39 8 C 39.554 8 40 8.446 40 9 L 40 30 L 8 30 L 8 9 C 8 8.446 8.446 8 9 8 z "
       id="rect1373" />
    <path
       style="opacity:0.25;vector-effect:none;fill:#000000;fill-opacity:1;fill-rule:evenodd;stroke:none;stroke-width:4;stroke-linecap:round;stroke-linejoin:round;stroke-miterlimit:4;stroke-dasharray:none;stroke-dashoffset:0;stroke-opacity:1;paint-order:stroke fill markers"
       d="M 8 4 C 5.784 4 4 5.784 4 8 L 4 40 C 4 42.216 5.784 44 8 44 L 40 44 C 42.216 44 44 42.216 44 40 L 44 8 C 44 5.784 42.216 4 40 4 L 8 4 z M 8 5 L 40 5 C 41.662 5 43 6.338 43 8 L 43 40 C 43 41.662 41.662 43 40 43 L 8 43 C 6.338 43 5 41.662 5 40 L 5 8 C 5 6.338 6.338 5 8 5 z M 9 7 C 7.892 7 7 7.892 7 9 L 7 29 L 7 31 L 9 31 L 39 31 L 41 31 L 41 29 L 41 9 C 41 7.892 40.108 7 39 7 L 9 7 z M 9 8 L 39 8 C 39.554 8 40 8.446 40 9 L 40 30 L 8 30 L 8 9 C 8 8.446 8.446 8 9 8 z "
       id="rect826" />
    <rect
       style="opacity:1;vector-effect:none;fill:#ffffff;fill-opacity:1;fill-rule:evenodd;stroke:none;stroke-width:2;stroke-linecap:round;stroke-linejoin:round;stroke-miterlimit:4;stroke-dasharray:none;stroke-dashoffset:0;stroke-opacity:1;paint-order:normal"
       id="rect909"
       width="12"
       height="12"
       x="18"
       y="14"
       ry="6" />
    <path
       style="fill:none;stroke:#6e8e41;stroke-width:2;stroke-linecap:round;stroke-linejoin:round;stroke-miterlimit:4;stroke-dasharray:none;stroke-opacity:1"
       d="m 18,27 c 0,0 2,2 6,2 4,0 6,-2 6,-2"
       id="path911"
       inkscape:connector-curvature="0"
       sodipodi:nodetypes="czc" />
    <rect
       style="opacity:1;vector-effect:none;fill:#4e4e4e;fill-opacity:1;fill-rule:evenodd;stroke:none;stroke-width:2;stroke-linecap:round;stroke-linejoin:round;stroke-miterlimit:4;stroke-dasharray:none;stroke-dashoffset:0;stroke-opacity:1;paint-order:normal"
       id="rect913"
       width="8"
       height="8"
       x="20"
       y="16"
       ry="4" />
    <rect
       style="opacity:1;vector-effect:none;fill:#ffffff;fill-opacity:1;fill-rule:evenodd;stroke:none;stroke-width:2;stroke-linecap:round;stroke-linejoin:round;stroke-miterlimit:4;stroke-dasharray:none;stroke-dashoffset:0;stroke-opacity:1;paint-order:normal"
       id="rect915"
       width="4"
       height="4"
       x="20"
       y="16"
       ry="2" />
    <path
       style="color:#000000;font-style:normal;font-variant:normal;font-weight:normal;font-stretch:normal;font-size:medium;line-height:normal;font-family:sans-serif;font-variant-ligatures:normal;font-variant-position:normal;font-variant-caps:normal;font-variant-numeric:normal;font-variant-alternates:normal;font-feature-settings:normal;text-indent:0;text-align:start;text-decoration:none;text-decoration-line:none;text-decoration-style:solid;text-decoration-color:#000000;letter-spacing:normal;word-spacing:normal;text-transform:none;writing-mode:lr-tb;direction:ltr;text-orientation:mixed;dominant-baseline:auto;baseline-shift:baseline;text-anchor:start;white-space:normal;shape-padding:0;clip-rule:nonzero;display:inline;overflow:visible;visibility:visible;opacity:0.25;isolation:auto;mix-blend-mode:normal;color-interpolation:sRGB;color-interpolation-filters:linearRGB;solid-color:#000000;solid-opacity:1;vector-effect:none;fill:#000000;fill-opacity:1;fill-rule:nonzero;stroke:none;stroke-width:1px;stroke-linecap:round;stroke-linejoin:round;stroke-miterlimit:4;stroke-dasharray:none;stroke-dashoffset:0;stroke-opacity:1;color-rendering:auto;image-rendering:auto;shape-rendering:auto;text-rendering:auto;enable-background:accumulate"
       d="M 18.509766 33.035156 A 0.50005 0.50005 0 0 0 18.15625 33.181641 L 16.134766 35.203125 A 0.50005 0.50005 0 0 0 16.001953 35.675781 L 16.96875 39.632812 A 0.50005 0.50005 0 0 0 17.222656 39.957031 C 17.222656 39.957031 17.800512 40.253724 18.90625 40.527344 C 20.011988 40.800964 21.678888 41.070312 23.960938 41.070312 C 26.234817 41.070312 27.871241 40.858209 28.947266 40.642578 C 30.02329 40.426947 30.572266 40.193359 30.572266 40.193359 A 0.50005 0.50005 0 0 0 30.857422 39.859375 L 31.957031 35.638672 A 0.50005 0.50005 0 0 0 31.818359 35.152344 L 29.751953 33.173828 A 0.50005 0.50005 0 0 0 29.40625 33.035156 L 18.509766 33.035156 z M 18.716797 34.035156 L 29.205078 34.035156 L 30.519531 35.294922 C 29.326574 35.579458 26.723684 36.116591 24.005859 36.113281 C 21.357848 36.110048 18.753203 35.583583 17.46875 35.283203 L 18.716797 34.035156 z M 17.167969 36.242188 C 18.471513 36.551307 21.195442 37.10986 24.005859 37.113281 C 26.848825 37.116736 29.526384 36.561986 30.759766 36.265625 L 29.960938 39.333984 C 29.851889 39.377714 29.609132 39.490334 28.751953 39.662109 C 27.743687 39.864162 26.172741 40.070312 23.960938 40.070312 C 21.7573 40.070312 20.172854 39.81062 19.146484 39.556641 C 18.25474 39.335975 17.97819 39.184406 17.876953 39.134766 L 17.167969 36.242188 z "
       id="path917" />
    <rect
       style="opacity:0.5;vector-effect:none;fill:#ffffff;fill-opacity:1;fill-rule:evenodd;stroke:none;stroke-width:1.9069252;stroke-linecap:round;stroke-linejoin:round;stroke-miterlimit:4;stroke-dasharray:none;stroke-dashoffset:0;stroke-opacity:1;paint-order:normal"
       id="rect827"
       width="10"
       height="6"
       x="10"
       y="10"
       ry="3" />
    <rect
       style="opacity:0.5;vector-effect:none;fill:#ffffff;fill-opacity:1;fill-rule:evenodd;stroke:none;stroke-width:1.60000002;stroke-linecap:round;stroke-linejoin:round;stroke-miterlimit:4;stroke-dasharray:none;stroke-dashoffset:0;stroke-opacity:1;paint-order:normal"
       id="rect829"
       width="4"
       height="4"
       x="10"
       y="18"
       ry="2" />
  </g>
</svg>
