<?xml version="1.0" encoding="UTF-8" standalone="no"?>
<!-- Created with Inkscape (http://www.inkscape.org/) -->

<svg
   xmlns:dc="http://purl.org/dc/elements/1.1/"
   xmlns:cc="http://creativecommons.org/ns#"
   xmlns:rdf="http://www.w3.org/1999/02/22-rdf-syntax-ns#"
   xmlns:svg="http://www.w3.org/2000/svg"
   xmlns="http://www.w3.org/2000/svg"
   xmlns:sodipodi="http://sodipodi.sourceforge.net/DTD/sodipodi-0.dtd"
   xmlns:inkscape="http://www.inkscape.org/namespaces/inkscape"
   width="48px"
   height="48px"
   viewBox="0 0 48 48"
   version="1.1"
   id="SVGRoot"
   inkscape:version="0.92.4 (5da689c313, 2019-01-14)"
   sodipodi:docname="miro.svg">
  <defs
     id="defs815" />
  <sodipodi:namedview
     id="base"
     pagecolor="#ffffff"
     bordercolor="#666666"
     borderopacity="1.0"
     inkscape:pageopacity="0.0"
     inkscape:pageshadow="2"
     inkscape:zoom="15.827318"
     inkscape:cx="7.2587241"
     inkscape:cy="23.147899"
     inkscape:document-units="px"
     inkscape:current-layer="layer1"
     showgrid="true"
     inkscape:window-width="1920"
     inkscape:window-height="1017"
     inkscape:window-x="-8"
     inkscape:window-y="-8"
     inkscape:window-maximized="1"
     inkscape:grid-bbox="true"
     inkscape:snap-global="true">
    <inkscape:grid
       type="xygrid"
       id="grid1371" />
  </sodipodi:namedview>
  <metadata
     id="metadata818">
    <rdf:RDF>
      <cc:Work
         rdf:about="">
        <dc:format>image/svg+xml</dc:format>
        <dc:type
           rdf:resource="http://purl.org/dc/dcmitype/StillImage" />
        <dc:title></dc:title>
      </cc:Work>
    </rdf:RDF>
  </metadata>
  <g
     inkscape:label="Layer 1"
     inkscape:groupmode="layer"
     id="layer1">
    <rect
       style="opacity:1;vector-effect:none;fill:#d35244;fill-opacity:1;fill-rule:evenodd;stroke:none;stroke-width:4;stroke-linecap:round;stroke-linejoin:round;stroke-miterlimit:4;stroke-dasharray:none;stroke-dashoffset:0;stroke-opacity:1;paint-order:stroke fill markers"
       id="rect1373"
       width="40"
       height="40"
       x="4"
       y="4"
       ry="4" />
    <path
       style="opacity:1;vector-effect:none;fill:#943657;fill-opacity:1;fill-rule:evenodd;stroke:none;stroke-width:4;stroke-linecap:round;stroke-linejoin:round;stroke-miterlimit:4;stroke-dasharray:none;stroke-opacity:1;paint-order:stroke fill markers"
       d="M 8 28 L 8 32 L 12 32 L 12 28 L 8 28 z M 12 32 L 12 36 L 8 36 L 8 32 L 4 32 L 4 36 L 4 40 C 4 42.216 5.784 44 8 44 L 40 44 C 42.216 44 44 42.216 44 40 L 44 36 L 40 36 L 40 32 L 36 32 L 36 36 L 32 36 L 32 32 L 28 32 L 28 36 L 24 36 L 24 32 L 20 32 L 20 36 L 16 36 L 16 32 L 12 32 z M 16 32 L 20 32 L 20 28 L 16 28 L 16 32 z M 24 32 L 28 32 L 28 28 L 24 28 L 24 32 z M 32 32 L 36 32 L 36 28 L 32 28 L 32 32 z M 40 32 L 44 32 L 44 28 L 40 28 L 40 32 z "
       id="rect845" />
    <path
       style="opacity:1;vector-effect:none;fill:#f97263;fill-opacity:1;fill-rule:evenodd;stroke:none;stroke-width:4;stroke-linecap:round;stroke-linejoin:round;stroke-miterlimit:4;stroke-dasharray:none;stroke-opacity:1;paint-order:stroke fill markers"
       d="M 8 4 C 5.784 4 4 5.784 4 8 L 8 8 L 8 12 L 12 12 L 12 8 L 16 8 L 16 12 L 20 12 L 20 8 L 24 8 L 24 12 L 28 12 L 28 8 L 32 8 L 32 12 L 36 12 L 36 8 L 40 8 L 40 12 L 44 12 L 44 8 C 44 5.784 42.216 4 40 4 L 8 4 z M 40 12 L 36 12 L 36 16 L 40 16 L 40 12 z M 32 12 L 28 12 L 28 16 L 32 16 L 32 12 z M 24 12 L 20 12 L 20 16 L 24 16 L 24 12 z M 16 12 L 12 12 L 12 16 L 16 16 L 16 12 z M 8 12 L 4 12 L 4 16 L 8 16 L 8 12 z "
       id="rect845-6" />
    <path
       style="opacity:0.25;vector-effect:none;fill:#000000;fill-opacity:1;fill-rule:evenodd;stroke:none;stroke-width:4;stroke-linecap:round;stroke-linejoin:round;stroke-miterlimit:4;stroke-dasharray:none;stroke-dashoffset:0;stroke-opacity:1;paint-order:stroke fill markers"
       d="M 8 4 C 5.784 4 4 5.784 4 8 L 4 40 C 4 42.216 5.784 44 8 44 L 40 44 C 42.216 44 44 42.216 44 40 L 44 8 C 44 5.784 42.216 4 40 4 L 8 4 z M 8 5 L 40 5 C 41.662 5 43 6.338 43 8 L 43 40 C 43 41.662 41.662 43 40 43 L 8 43 C 6.338 43 5 41.662 5 40 L 5 8 C 5 6.338 6.338 5 8 5 z "
       id="rect822" />
    <path
       style="opacity:1;vector-effect:none;fill:#ffffff;fill-opacity:1;fill-rule:evenodd;stroke:none;stroke-width:4;stroke-linecap:round;stroke-linejoin:round;stroke-miterlimit:4;stroke-dasharray:none;stroke-opacity:1;paint-order:stroke fill markers"
       d="m 14,16 v 16 h 4 c 0,-3.333333 0,-6.666667 0,-10 0,-1.108 0.892,-2 2,-2 1.108,0 2,0.892 2,2 0,3.333333 0,6.666667 0,10 h 4 c 0,-3.333333 0,-6.666667 0,-10 0,-1.108 0.892,-2 2,-2 1.108,0 2,0.892 2,2 0,3.333333 0,6.666667 0,10 h 4 V 20 c 0,0 0,-4 -4,-4 z"
       id="rect830"
       inkscape:connector-curvature="0"
       sodipodi:nodetypes="ccccsccccscccccc" />
  </g>
</svg>
