<?xml version="1.0" encoding="UTF-8" standalone="no"?>
<!-- Created with Inkscape (http://www.inkscape.org/) -->

<svg
   xmlns:dc="http://purl.org/dc/elements/1.1/"
   xmlns:cc="http://creativecommons.org/ns#"
   xmlns:rdf="http://www.w3.org/1999/02/22-rdf-syntax-ns#"
   xmlns:svg="http://www.w3.org/2000/svg"
   xmlns="http://www.w3.org/2000/svg"
   xmlns:sodipodi="http://sodipodi.sourceforge.net/DTD/sodipodi-0.dtd"
   xmlns:inkscape="http://www.inkscape.org/namespaces/inkscape"
   width="48px"
   height="48px"
   viewBox="0 0 48 48"
   version="1.1"
   id="SVGRoot"
   inkscape:version="0.92.4 (5da689c313, 2019-01-14)"
   sodipodi:docname="monodevelop.svg">
  <defs
     id="defs815">
    <linearGradient
       id="linearGradient1552"
       x1="24"
       x2="24"
       y1="7"
       y2="39"
       gradientUnits="userSpaceOnUse">
      <stop
         stop-color="#92b4da"
         offset="0"
         id="stop823" />
      <stop
         stop-color="#547cb1"
         offset="1"
         id="stop825" />
    </linearGradient>
    <linearGradient
       id="linearGradient857"
       x1="24"
       x2="24"
       y1="11"
       y2="37"
       gradientTransform="translate(0,-1)"
       gradientUnits="userSpaceOnUse">
      <stop
         stop-color="#dbe1e9"
         offset="0"
         id="stop828" />
      <stop
         stop-color="#b9c4d4"
         offset="1"
         id="stop830" />
    </linearGradient>
  </defs>
  <sodipodi:namedview
     id="base"
     pagecolor="#ffffff"
     bordercolor="#666666"
     borderopacity="1.0"
     inkscape:pageopacity="0.0"
     inkscape:pageshadow="2"
     inkscape:zoom="13.632692"
     inkscape:cx="25.382419"
     inkscape:cy="23.459606"
     inkscape:document-units="px"
     inkscape:current-layer="layer1"
     showgrid="true"
     inkscape:window-width="1920"
     inkscape:window-height="1017"
     inkscape:window-x="-8"
     inkscape:window-y="-8"
     inkscape:window-maximized="1"
     inkscape:grid-bbox="true"
     inkscape:snap-global="false">
    <inkscape:grid
       type="xygrid"
       id="grid1371" />
  </sodipodi:namedview>
  <metadata
     id="metadata818">
    <rdf:RDF>
      <cc:Work
         rdf:about="">
        <dc:format>image/svg+xml</dc:format>
        <dc:type
           rdf:resource="http://purl.org/dc/dcmitype/StillImage" />
        <dc:title></dc:title>
      </cc:Work>
    </rdf:RDF>
  </metadata>
  <g
     inkscape:label="Layer 1"
     inkscape:groupmode="layer"
     id="layer1">
    <rect
       style="opacity:1;vector-effect:none;fill:#92b4da;fill-opacity:1;fill-rule:evenodd;stroke:none;stroke-width:4;stroke-linecap:round;stroke-linejoin:round;stroke-miterlimit:4;stroke-dasharray:none;stroke-dashoffset:0;stroke-opacity:1;paint-order:stroke fill markers"
       id="rect1373"
       width="40"
       height="40"
       x="4"
       y="4"
       ry="4" />
    <path
       style="opacity:0.25;vector-effect:none;fill:#000000;fill-opacity:1;fill-rule:evenodd;stroke:none;stroke-width:4;stroke-linecap:round;stroke-linejoin:round;stroke-miterlimit:4;stroke-dasharray:none;stroke-dashoffset:0;stroke-opacity:1;paint-order:stroke fill markers"
       d="M 8 4 C 5.784 4 4 5.784 4 8 L 4 40 C 4 42.216 5.784 44 8 44 L 40 44 C 42.216 44 44 42.216 44 40 L 44 8 C 44 5.784 42.216 4 40 4 L 8 4 z M 8 5 L 40 5 C 41.662 5 43 6.338 43 8 L 43 40 C 43 41.662 41.662 43 40 43 L 8 43 C 6.338 43 5 41.662 5 40 L 5 8 C 5 6.338 6.338 5 8 5 z "
       id="rect826" />
    <path
       style="fill:#000000;stroke:none;stroke-width:1px;stroke-linecap:butt;stroke-linejoin:miter;stroke-opacity:1;opacity:0.4"
       d="m 26.297311,15.374737 7.935875,-3.37145 c 0,0 3.392803,6.683728 3.734529,11.929746 0.342998,5.265541 -0.840247,10.501305 -8.921376,12.137221 -3.286656,0.665339 -7.365321,-3.163977 -7.365321,-3.163977 l -7.676533,3.215845 c 0,0 -4.0506984,-8.210065 -3.890135,-12.604037 0.244808,-6.699406 4.049115,-10.012054 8.921376,-10.581166 4.835319,-0.564797 7.261585,2.437818 7.261585,2.437818 z"
       id="path870"
       inkscape:connector-curvature="0"
       sodipodi:nodetypes="ccssccssc" />
    <path
       style="fill:#ffffff;stroke:none;stroke-width:1px;stroke-linecap:butt;stroke-linejoin:miter;stroke-opacity:1"
       d="m 15.103737,33 3.309567,-1.027355 c 0,0 -4.328898,-6.741996 -3.630792,-10.321824 0.574523,-2.946103 2.840784,-4.357717 5.083109,-4.40882 2.31348,-0.05272 5.081067,2.019989 5.446189,4.305083 0.251951,1.576821 -0.231831,3.459063 -2.645292,3.993872 -1.898555,0.420708 -3.959706,-1.261981 -3.838266,-3.112108 0.08681,-1.322594 2.072433,-1.634949 3.112108,-1.971002 0.70875,-0.229087 -0.36029,-1.086742 -1.763528,-0.881764 -1.318643,0.192621 -2.935396,1.526933 -2.800897,2.852766 0.349916,3.449334 3.057553,5.118588 5.446189,4.771898 3.561818,-0.516968 4.615392,-3.440511 4.356951,-5.861136 -0.35121,-3.28952 -4.161083,-6.575252 -7.469059,-6.535426 -2.566915,0.0309 -7.388795,2.858315 -7.780269,7.054111 C 11.571006,25.703256 15.103737,33 15.103737,33 Z"
       id="path853"
       inkscape:connector-curvature="0"
       sodipodi:nodetypes="ccssssssssssssc" />
    <path
       style="fill:#92b4da;stroke:none;stroke-width:1px;stroke-linecap:butt;stroke-linejoin:miter;stroke-opacity:1"
       d="m 32.782381,14.803826 -3.309567,1.027355 c 0,0 4.328898,6.741996 3.630792,10.321824 -0.574523,2.946103 -2.840784,4.357717 -5.083109,4.40882 -2.31348,0.05272 -5.081067,-2.019989 -5.446189,-4.305083 -0.251951,-1.576821 0.231831,-3.459063 2.645292,-3.993872 1.898555,-0.420708 3.959706,1.261981 3.838266,3.112108 -0.08681,1.322594 -2.072433,1.634949 -3.112108,1.971002 -0.70875,0.229087 0.36029,1.086742 1.763528,0.881764 1.318643,-0.192621 2.935396,-1.526933 2.800897,-2.852766 -0.349916,-3.449334 -3.057553,-5.118588 -5.446189,-4.771898 -3.561818,0.516968 -4.615392,3.440511 -4.356951,5.861136 0.35121,3.28952 4.161083,6.575252 7.469059,6.535426 2.566915,-0.0309 7.388795,-2.858315 7.780269,-7.054111 0.358741,-3.844961 -3.17399,-11.141705 -3.17399,-11.141705 z"
       id="path853-8"
       inkscape:connector-curvature="0"
       sodipodi:nodetypes="ccssssssssssssc" />
    <path
       style="fill:#ffffff;stroke:none;stroke-width:1px;stroke-linecap:butt;stroke-linejoin:miter;stroke-opacity:1"
       d="M 25.484375 17.763672 L 23.722656 18.880859 C 24.540977 19.632811 25.155497 20.564281 25.3125 21.546875 C 25.421611 22.229742 25.377109 22.965723 25.113281 23.628906 L 26.925781 23.855469 C 27.186081 23.032903 27.267266 22.160126 27.179688 21.339844 C 27.045715 20.085026 26.405058 18.833007 25.484375 17.763672 z "
       id="path853-89" />
  </g>
</svg>
