<?xml version="1.0" encoding="UTF-8" standalone="no"?>
<!-- Created with Inkscape (http://www.inkscape.org/) -->

<svg
   xmlns:dc="http://purl.org/dc/elements/1.1/"
   xmlns:cc="http://creativecommons.org/ns#"
   xmlns:rdf="http://www.w3.org/1999/02/22-rdf-syntax-ns#"
   xmlns:svg="http://www.w3.org/2000/svg"
   xmlns="http://www.w3.org/2000/svg"
   xmlns:sodipodi="http://sodipodi.sourceforge.net/DTD/sodipodi-0.dtd"
   xmlns:inkscape="http://www.inkscape.org/namespaces/inkscape"
   width="48px"
   height="48px"
   viewBox="0 0 48 48"
   version="1.1"
   id="SVGRoot"
   inkscape:version="0.92.4 (5da689c313, 2019-01-14)"
   sodipodi:docname="mtpaint.svg">
  <defs
     id="defs815" />
  <sodipodi:namedview
     id="base"
     pagecolor="#ffffff"
     bordercolor="#666666"
     borderopacity="1.0"
     inkscape:pageopacity="0.0"
     inkscape:pageshadow="2"
     inkscape:zoom="17.869119"
     inkscape:cx="9.085804"
     inkscape:cy="25.119243"
     inkscape:document-units="px"
     inkscape:current-layer="layer1"
     showgrid="true"
     inkscape:window-width="1920"
     inkscape:window-height="1017"
     inkscape:window-x="-8"
     inkscape:window-y="-8"
     inkscape:window-maximized="1"
     inkscape:grid-bbox="true"
     inkscape:snap-global="true">
    <inkscape:grid
       type="xygrid"
       id="grid1371" />
  </sodipodi:namedview>
  <metadata
     id="metadata818">
    <rdf:RDF>
      <cc:Work
         rdf:about="">
        <dc:format>image/svg+xml</dc:format>
        <dc:type
           rdf:resource="http://purl.org/dc/dcmitype/StillImage" />
        <dc:title />
      </cc:Work>
    </rdf:RDF>
  </metadata>
  <g
     inkscape:label="Layer 1"
     inkscape:groupmode="layer"
     id="layer1">
    <path
       style="opacity:1;vector-effect:none;fill:#e9bf73;fill-opacity:1;fill-rule:evenodd;stroke:none;stroke-width:4;stroke-linecap:round;stroke-linejoin:round;stroke-miterlimit:4;stroke-dasharray:none;stroke-dashoffset:0;stroke-opacity:1;paint-order:stroke fill markers"
       d="M 8 4 C 5.784 4 4 5.784 4 8 L 4 40 C 4 42.216 5.784 44 8 44 L 40 44 C 42.216 44 44 42.216 44 40 L 44 8 C 44 5.784 42.216 4 40 4 L 8 4 z M 33.277344 29.958984 C 34.781679 29.902324 36.520583 30.618239 37.917969 32.015625 C 40.153787 34.251443 40.645581 37.360279 39.019531 38.986328 C 37.393482 40.612378 34.282693 40.122537 32.046875 37.886719 C 29.811057 35.650901 29.321216 32.542065 30.947266 30.916016 C 31.557034 30.306247 32.374742 29.99298 33.277344 29.958984 z "
       id="rect1373" />
    <path
       style="color:#000000;font-style:normal;font-variant:normal;font-weight:normal;font-stretch:normal;font-size:medium;line-height:normal;font-family:sans-serif;font-variant-ligatures:normal;font-variant-position:normal;font-variant-caps:normal;font-variant-numeric:normal;font-variant-alternates:normal;font-feature-settings:normal;text-indent:0;text-align:start;text-decoration:none;text-decoration-line:none;text-decoration-style:solid;text-decoration-color:#000000;letter-spacing:normal;word-spacing:normal;text-transform:none;writing-mode:lr-tb;direction:ltr;text-orientation:mixed;dominant-baseline:auto;baseline-shift:baseline;text-anchor:start;white-space:normal;shape-padding:0;clip-rule:nonzero;display:inline;overflow:visible;visibility:visible;opacity:0.25;isolation:auto;mix-blend-mode:normal;color-interpolation:sRGB;color-interpolation-filters:linearRGB;solid-color:#000000;solid-opacity:1;vector-effect:none;fill:#000000;fill-opacity:1;fill-rule:evenodd;stroke:none;stroke-width:2;stroke-linecap:round;stroke-linejoin:round;stroke-miterlimit:4;stroke-dasharray:none;stroke-dashoffset:0;stroke-opacity:1;paint-order:stroke fill markers;color-rendering:auto;image-rendering:auto;shape-rendering:auto;text-rendering:auto;enable-background:accumulate"
       d="M 8 4 C 5.784 4 4 5.784 4 8 L 4 40 C 4 42.216 5.784 44 8 44 L 40 44 C 42.216 44 44 42.216 44 40 L 44 8 C 44 5.784 42.216 4 40 4 L 8 4 z M 8 5 L 40 5 C 41.679297 5 43 6.3207028 43 8 L 43 40 C 43 41.679297 41.679297 43 40 43 L 8 43 C 6.3207028 43 5 41.679297 5 40 L 5 8 C 5 6.3207028 6.3207028 5 8 5 z M 33.240234 28.958984 C 32.129443 29.000824 31.044991 29.404226 30.240234 30.208984 C 29.166388 31.28283 28.824011 32.828126 29.060547 34.328125 C 29.297083 35.828124 30.083886 37.337792 31.339844 38.59375 C 32.595904 39.849811 34.105065 40.636539 35.605469 40.873047 C 37.105873 41.109555 38.652575 40.767347 39.726562 39.693359 C 40.80055 38.619372 41.141405 37.07416 40.904297 35.574219 C 40.667189 34.074277 39.880855 32.564448 38.625 31.308594 C 37.055063 29.738656 35.090126 28.889309 33.240234 28.958984 z M 33.277344 29.958984 C 34.781679 29.902324 36.520583 30.618239 37.917969 32.015625 C 40.153787 34.251443 40.645581 37.360279 39.019531 38.986328 C 37.393482 40.612378 34.282693 40.122537 32.046875 37.886719 C 29.811057 35.650901 29.321216 32.542065 30.947266 30.916016 C 31.557034 30.306247 32.374742 29.99298 33.277344 29.958984 z "
       id="rect1373-7" />
    <path
       style="fill:#f68d59;stroke:none;stroke-width:1px;stroke-linecap:butt;stroke-linejoin:miter;stroke-opacity:1"
       d="M 14.373047 25.751953 C 13.131906 25.751708 12.911128 27.935153 11.763672 28.408203 C 10.579463 28.896405 8.3113361 27.141078 7.921875 28.361328 C 7.6178034 29.314038 10.083477 29.116008 10.388672 30.068359 C 10.716846 31.092413 9.0527981 32.058181 9.296875 33.105469 C 9.4415513 33.726248 10.540194 33.810345 10.673828 34.433594 C 10.834497 35.18293 10.312592 35.98101 9.8203125 36.568359 C 9.3778065 37.096321 8.3991331 37.056086 8.0644531 37.658203 C 7.8954464 37.96226 7.8184714 38.457143 8.0644531 38.703125 C 8.2768919 38.915564 8.6922111 38.829347 8.9648438 38.703125 C 9.5858458 38.415617 9.6624387 37.402682 10.292969 37.136719 C 10.716481 36.958078 11.321878 36.932188 11.669922 37.232422 C 12.172506 37.665967 12.103384 38.512085 12.095703 39.175781 C 12.088003 39.843046 11.00871 40.855976 11.621094 41.121094 C 12.418001 41.466097 12.239888 39.265043 13.044922 38.939453 C 13.901929 38.592843 14.845793 39.749019 15.75 39.556641 C 16.291315 39.441471 16.572895 38.786441 17.078125 38.560547 C 17.446151 38.395999 17.968968 38.59734 18.263672 38.322266 C 18.659059 37.953208 18.35313 37.18139 18.689453 36.757812 C 19.393361 35.871296 21.046248 36.084012 21.677734 35.144531 C 22.006012 34.656142 22.062139 33.944588 21.869141 33.388672 C 20.699313 30.019069 17.93994 25.752657 14.373047 25.751953 z M 20.445312 36.804688 C 19.900915 36.721517 19.453034 37.537562 19.402344 38.085938 C 19.365868 38.480511 19.576337 39.090256 19.970703 39.128906 C 20.46234 39.17709 20.842632 38.478142 20.919922 37.990234 C 20.986541 37.569719 20.866188 36.868988 20.445312 36.804688 z "
       id="path885" />
    <path
       style="fill:#ffdd75;stroke:none;stroke-width:1px;stroke-linecap:butt;stroke-linejoin:miter;stroke-opacity:1"
       d="M 19.480469 24.873047 C 18.617198 24.859002 17.809322 25.051678 17.125 25.5625 C 15.703946 26.623265 15.820844 29.140447 16.365234 30.828125 C 16.554051 31.413481 17.434579 31.57885 17.646484 32.15625 C 17.903052 32.855348 16.864402 34.003191 17.503906 34.384766 C 18.016316 34.690508 18.427244 33.38346 19.021484 33.4375 C 19.511932 33.4821 19.634106 34.31993 20.113281 34.433594 C 20.624715 34.55491 21.11715 33.894569 21.630859 34.005859 C 22.277893 34.146033 22.486435 35.279809 23.148438 35.287109 C 23.778118 35.294096 23.989429 34.098663 24.619141 34.101562 C 26.113284 34.108511 26.849292 37.791579 28.082031 36.947266 C 29.249537 36.147632 26.009876 34.11972 26.753906 32.916016 C 27.098404 32.358682 28.388302 33.207601 28.699219 32.630859 C 29.07183 31.939677 27.314016 31.178125 27.703125 30.496094 C 28.025912 29.930313 29.476108 30.934814 29.648438 30.306641 C 29.959693 29.172057 27.707516 28.970768 26.802734 28.21875 C 26.252151 27.761128 25.881092 27.059237 25.236328 26.748047 C 23.544387 25.931419 21.379664 24.903946 19.480469 24.873047 z M 15.421875 35.052734 C 14.901545 35.038257 14.358952 35.762877 14.087891 36.257812 C 13.819888 36.747166 13.49689 37.636291 13.972656 37.927734 C 14.545263 38.278499 15.377836 37.482177 15.699219 36.892578 C 15.984137 36.369876 16.178489 35.366629 15.642578 35.107422 C 15.570006 35.072321 15.496208 35.054803 15.421875 35.052734 z "
       id="path881" />
    <path
       style="fill:#000000;stroke:none;stroke-width:1px;stroke-linecap:butt;stroke-linejoin:miter;stroke-opacity:1;opacity:0.25"
       d="M 8.0644531 28.117188 C 8.0057234 28.181216 7.9550995 28.257229 7.921875 28.361328 C 7.6251544 29.291006 9.9604815 29.127543 10.357422 30.003906 C 10.427005 29.794014 10.457155 29.582839 10.388672 29.369141 C 10.146488 28.613412 8.5639533 28.573975 8.0644531 28.117188 z M 9.3496094 32.521484 C 9.2859478 32.714291 9.2508057 32.907794 9.296875 33.105469 C 9.4370148 33.706783 10.464155 33.808879 10.650391 34.380859 C 10.699364 34.164774 10.719751 33.948554 10.673828 33.734375 C 10.549404 33.154078 9.598256 33.035364 9.3496094 32.521484 z M 21.941406 33.716797 C 21.899139 33.979639 21.819105 34.234991 21.677734 34.445312 C 21.046248 35.384794 19.393361 35.172078 18.689453 36.058594 C 18.353132 36.482172 18.659059 37.253989 18.263672 37.623047 C 17.968968 37.898118 17.446151 37.69678 17.078125 37.861328 C 16.572895 38.087222 16.291315 38.742252 15.75 38.857422 C 14.845793 39.0498 13.901929 37.893624 13.044922 38.240234 C 12.239888 38.565824 12.418001 40.766878 11.621094 40.421875 C 11.601957 40.41359 11.597949 40.398384 11.582031 40.388672 C 11.418572 40.718389 11.34087 40.999777 11.621094 41.121094 C 12.418001 41.466097 12.239888 39.265043 13.044922 38.939453 C 13.901929 38.592843 14.845793 39.749019 15.75 39.556641 C 16.291315 39.441471 16.572895 38.786441 17.078125 38.560547 C 17.446151 38.395999 17.968968 38.597337 18.263672 38.322266 C 18.659059 37.953208 18.353132 37.18139 18.689453 36.757812 C 19.393361 35.871296 21.046248 36.084012 21.677734 35.144531 C 21.94476 34.74727 22.02212 34.205501 21.941406 33.716797 z M 11.009766 36.304688 C 10.761972 36.295961 10.504725 36.34818 10.292969 36.4375 C 9.6624384 36.703463 9.5858458 37.716398 8.9648438 38.003906 C 8.6922111 38.130128 8.2768919 38.216345 8.0644531 38.003906 C 8.0248423 37.964295 8.0062477 37.910058 7.9824219 37.859375 C 7.8823284 38.150593 7.8664342 38.505106 8.0644531 38.703125 C 8.2768919 38.915564 8.6922111 38.829347 8.9648438 38.703125 C 9.5858458 38.415617 9.6624384 37.402682 10.292969 37.136719 C 10.716481 36.958078 11.321878 36.932191 11.669922 37.232422 C 12.007416 37.523555 12.080138 38.001325 12.09375 38.484375 C 12.093809 38.481863 12.095674 38.479065 12.095703 38.476562 C 12.103384 37.812866 12.172506 36.966748 11.669922 36.533203 C 11.4959 36.383088 11.257559 36.313414 11.009766 36.304688 z M 20.890625 37.396484 C 20.781277 37.873985 20.429218 38.474622 19.970703 38.429688 C 19.713946 38.404524 19.544393 38.134126 19.460938 37.841797 C 19.439707 37.924345 19.409318 38.010485 19.402344 38.085938 C 19.365864 38.480511 19.576337 39.090256 19.970703 39.128906 C 20.46234 39.177086 20.842632 38.478142 20.919922 37.990234 C 20.947294 37.817458 20.934256 37.600291 20.890625 37.396484 z "
       id="path885-2" />
    <path
       style="fill:#96d56b;stroke:none;stroke-width:1px;stroke-linecap:butt;stroke-linejoin:miter;stroke-opacity:1"
       d="M 11.130859 16.585938 C 11.00503 16.577062 10.881954 16.594082 10.767578 16.644531 C 10.340113 16.833077 10.070474 17.47667 10.199219 17.925781 C 10.393793 18.604529 11.43733 18.631229 11.955078 19.111328 C 12.309994 19.440436 12.883469 19.766789 12.855469 20.25 C 12.821836 20.830438 11.632714 20.901126 11.621094 21.482422 C 11.609911 22.041807 12.939902 22.187092 12.759766 22.716797 C 12.398202 23.780008 9.5575586 22.168376 9.4394531 23.285156 C 9.331989 24.301313 11.884592 23.484621 12.287109 24.423828 C 12.52191 24.971697 11.352229 25.552003 11.621094 26.083984 C 11.989572 26.81306 13.53556 26.025132 13.994141 26.701172 C 14.709788 27.756179 12.344423 30.001814 13.519531 30.496094 C 14.339001 30.840784 14.31684 28.622295 15.179688 28.408203 C 15.715733 28.275198 16.259008 28.736163 16.697266 29.072266 C 17.340002 29.565183 17.4088 31.050513 18.214844 30.970703 C 18.728598 30.919831 18.614025 30.003772 18.927734 29.59375 C 19.084146 29.389317 19.244727 29.016836 19.496094 29.072266 C 19.897574 29.160792 19.642562 29.963262 19.970703 30.210938 C 20.402769 30.537055 21.170148 30.749352 21.583984 30.400391 C 22.043975 30.012511 22.055976 29.065604 21.677734 28.597656 C 21.426074 28.286311 20.539012 28.160199 20.208984 27.933594 C 19.741708 27.612751 19.351189 27.426009 19.638672 26.9375 C 19.917676 26.463396 21.920306 26.426788 23.148438 26.890625 C 23.705272 27.100928 24.080961 27.598716 24.667969 27.697266 C 25.087852 27.767759 25.609223 27.432192 25.757812 27.033203 C 25.920116 26.59739 25.723664 25.955874 25.332031 25.705078 C 24.889389 25.421616 24.190815 26.203555 23.765625 25.894531 C 22.566549 25.023054 23.722605 22.770407 22.912109 21.529297 C 22.53317 20.949029 21.76118 20.757339 21.205078 20.34375 C 20.491727 19.81321 19.99785 18.805156 19.117188 18.683594 C 18.267724 18.566339 17.603332 19.701597 16.746094 19.679688 C 16.272407 19.667584 15.917815 19.201579 15.464844 19.0625 C 14.639679 18.809143 13.59179 19.202969 12.902344 18.683594 C 12.444529 18.338712 12.617394 17.502641 12.191406 17.119141 C 11.912691 16.868224 11.508346 16.612565 11.130859 16.585938 z M 7.5722656 27.355469 C 7.0868627 27.256461 6.3934447 27.600906 6.2753906 28.082031 C 6.1474014 28.603646 6.6301661 29.333453 7.1582031 29.431641 C 7.6818442 29.529012 8.3784128 29.025118 8.4550781 28.498047 C 8.52427 28.022355 8.0432652 27.451539 7.5722656 27.355469 z M 10.212891 27.59375 C 10.120249 27.604136 10.032979 27.628368 9.9589844 27.667969 C 9.7127146 27.799768 9.5328085 28.191049 9.6484375 28.445312 C 9.8000972 28.778803 10.360858 28.978286 10.685547 28.808594 C 10.97181 28.658987 11.11113 28.151004 10.943359 27.875 C 10.812581 27.659853 10.490817 27.562593 10.212891 27.59375 z "
       id="path875" />
    <path
       style="fill:#f280a3;stroke:none;stroke-width:1px;stroke-linecap:butt;stroke-linejoin:miter;stroke-opacity:1"
       d="M 34.486328 7.5839844 C 34.100763 7.5650959 33.616309 7.8702319 33.537109 8.2480469 C 33.449755 8.6647487 33.776283 9.3126239 34.201172 9.3398438 C 34.706377 9.3722088 35.197761 8.6563632 35.150391 8.1523438 C 35.123107 7.8620586 34.777543 7.5982504 34.486328 7.5839844 z M 31.376953 10.441406 C 31.305686 10.440766 31.234977 10.451045 31.166016 10.476562 C 30.709177 10.645607 30.65644 11.446788 30.833984 11.900391 C 31.049781 12.451728 31.756114 13.119215 32.304688 12.896484 C 32.738557 12.720325 32.757873 11.958567 32.589844 11.521484 C 32.405146 11.041043 31.875822 10.445885 31.376953 10.441406 z M 39.941406 10.951172 C 39.413676 10.979164 38.926743 11.657401 38.945312 12.185547 C 38.967327 12.811695 39.602711 13.618457 40.226562 13.560547 C 40.785662 13.508646 41.188823 12.694804 41.126953 12.136719 C 41.065351 11.581073 40.499671 10.921562 39.941406 10.951172 z M 35.105469 13.197266 C 34.562672 13.224934 33.98158 13.547001 33.632812 13.939453 C 33.321751 14.289476 33.784054 15.146605 33.347656 15.316406 C 32.566503 15.62035 32.00682 14.350839 31.212891 14.082031 C 29.624679 13.544295 27.869244 13.17054 26.279297 13.703125 C 24.935224 14.15335 23.226241 14.967323 22.958984 16.359375 C 22.80811 17.145226 24.021312 17.656607 24.144531 18.447266 C 24.380912 19.964055 22.539497 21.566091 23.197266 22.953125 C 23.845757 24.320596 25.718371 24.941118 27.228516 25.041016 C 28.066971 25.096476 28.810587 24.47112 29.601562 24.1875 C 30.265379 23.949475 31.415446 24.156893 31.59375 23.474609 C 31.758106 22.845692 30.342085 22.65327 30.3125 22.003906 C 30.29652 21.65318 30.870158 21.496398 30.929688 21.150391 C 31.044221 20.48467 29.810261 19.598495 30.359375 19.205078 C 31.097545 18.67621 31.687727 20.875316 32.589844 20.771484 C 33.980477 20.611425 34.390773 18.622295 35.388672 17.640625 C 35.940092 17.098172 37.001138 16.883517 37.142578 16.123047 C 37.33919 15.065938 36.623716 13.673763 35.625 13.275391 C 35.462445 13.21055 35.286401 13.188043 35.105469 13.197266 z M 33.630859 24.292969 C 33.582916 24.296255 33.536077 24.306924 33.490234 24.328125 C 33.067889 24.523447 33.035762 25.294056 33.253906 25.705078 C 33.506051 26.180164 34.293065 26.690161 34.724609 26.369141 C 35.108587 26.083505 34.797396 25.344348 34.533203 24.945312 C 34.338022 24.650512 33.96646 24.269963 33.630859 24.292969 z "
       id="path891" />
    <path
       style="fill:#000000;stroke:none;stroke-width:1px;stroke-linecap:butt;stroke-linejoin:miter;stroke-opacity:1;opacity:0.25"
       d="M 35.058594 7.921875 C 34.901012 8.3082545 34.558782 8.6635346 34.201172 8.640625 C 33.940097 8.6238996 33.730791 8.3678504 33.617188 8.0800781 C 33.586425 8.1351574 33.549624 8.1883466 33.537109 8.2480469 C 33.449759 8.6647487 33.776283 9.3126239 34.201172 9.3398438 C 34.706377 9.3722088 35.197761 8.6563632 35.150391 8.1523438 C 35.142776 8.0713135 35.107705 7.9939274 35.058594 7.921875 z M 30.789062 11.003906 C 30.717531 11.301304 30.735993 11.650034 30.833984 11.900391 C 31.049781 12.451728 31.756114 13.119215 32.304688 12.896484 C 32.680386 12.743944 32.735182 12.162357 32.636719 11.722656 C 32.583961 11.936022 32.487053 12.123222 32.304688 12.197266 C 31.756114 12.419997 31.049781 11.752509 30.833984 11.201172 C 30.811556 11.143871 30.803791 11.070325 30.789062 11.003906 z M 39.017578 11.779297 C 38.967744 11.915658 38.940738 12.055438 38.945312 12.185547 C 38.967323 12.811695 39.602711 13.618457 40.226562 13.560547 C 40.785663 13.508647 41.188823 12.694804 41.126953 12.136719 C 41.120077 12.074697 41.087085 12.010773 41.068359 11.947266 C 40.941615 12.392518 40.627231 12.824135 40.226562 12.861328 C 39.696614 12.910522 39.181106 12.337267 39.017578 11.779297 z M 33.535156 14.173828 C 33.522588 14.245048 33.521342 14.322536 33.523438 14.402344 C 33.540661 14.33719 33.536268 14.254235 33.535156 14.173828 z M 37.142578 15.423828 C 37.001138 16.184298 35.940092 16.398953 35.388672 16.941406 C 34.390773 17.923076 33.980477 19.912207 32.589844 20.072266 C 31.687727 20.176098 31.097545 17.976991 30.359375 18.505859 C 30.132527 18.668386 30.214021 18.91683 30.375 19.197266 C 31.105822 18.710613 31.69417 20.874575 32.589844 20.771484 C 33.980477 20.611425 34.390773 18.622295 35.388672 17.640625 C 35.940092 17.098172 37.001138 16.883517 37.142578 16.123047 C 37.18392 15.900766 37.176044 15.663384 37.142578 15.423828 z M 23.033203 16.132812 C 23.008916 16.208485 22.974227 16.279981 22.958984 16.359375 C 22.811727 17.12639 23.957064 17.633627 24.126953 18.392578 C 24.163195 18.176666 24.177784 17.961421 24.144531 17.748047 C 24.047768 17.127144 23.285866 16.677431 23.033203 16.132812 z M 30.824219 20.650391 C 30.643858 20.871723 30.299967 21.029613 30.3125 21.304688 C 30.318867 21.444427 30.396744 21.559694 30.501953 21.666016 C 30.670732 21.507201 30.893071 21.36322 30.929688 21.150391 C 30.956766 20.992996 30.906509 20.823005 30.824219 20.650391 z M 23.095703 21.953125 C 23.035881 22.295222 23.044274 22.630513 23.197266 22.953125 C 23.845757 24.320596 25.718371 24.941118 27.228516 25.041016 C 28.066971 25.096476 28.810588 24.47112 29.601562 24.1875 C 30.26538 23.949475 31.415446 24.15689 31.59375 23.474609 C 31.638707 23.302579 31.556595 23.16406 31.425781 23.039062 C 31.042481 23.394383 30.156031 23.289466 29.601562 23.488281 C 28.810588 23.771901 28.066971 24.397257 27.228516 24.341797 C 25.718371 24.241899 23.845757 23.621377 23.197266 22.253906 C 23.150415 22.155113 23.11885 22.053991 23.095703 21.953125 z M 33.181641 24.777344 C 33.097854 25.082949 33.121302 25.455228 33.253906 25.705078 C 33.506051 26.180164 34.293065 26.690161 34.724609 26.369141 C 34.94966 26.201728 34.925394 25.879755 34.822266 25.560547 C 34.796109 25.600849 34.765972 25.639153 34.724609 25.669922 C 34.293065 25.990942 33.506051 25.480945 33.253906 25.005859 C 33.219443 24.940924 33.203059 24.856543 33.181641 24.777344 z "
       id="path891-6" />
    <path
       style="fill:#ffffff;stroke:none;stroke-width:1px;stroke-linecap:butt;stroke-linejoin:miter;stroke-opacity:1;opacity:0.25"
       d="m 12.713098,24.376407 c -0.157434,-0.872815 0.405725,-1.72976 0.521806,-2.609031 0.0954,-0.722641 -0.447438,-1.75372 0.142311,-2.182099 0.726077,-0.527405 1.742661,0.430137 2.609031,0.664117 1.000204,0.270124 3.070493,-0.178926 2.988527,0.853865 -0.104583,1.317769 -2.703516,-3.06e-4 -3.937265,0.474369 -0.307089,0.11815 -0.616778,0.300365 -0.806428,0.569244 -0.643488,0.912315 0.204052,3.068903 -0.901302,3.225711 -0.386664,0.05485 -0.547356,-0.611843 -0.61668,-0.996176 z"
       id="path930"
       inkscape:connector-curvature="0"
       sodipodi:nodetypes="sssssssss" />
    <path
       style="fill:#729dec;stroke:none;stroke-width:1px;stroke-linecap:butt;stroke-linejoin:miter;stroke-opacity:1"
       d="M 16.365234 7.15625 C 15.982112 7.0538492 15.647621 7.494064 15.275391 7.6308594 C 14.763618 7.8189369 13.748644 7.5616752 13.708984 8.1054688 C 13.644154 8.9943666 15.387742 8.7491467 16.128906 9.2441406 C 16.519865 9.505247 16.726588 10.344174 17.171875 10.193359 C 17.674206 10.023224 17.577545 9.1434402 17.457031 8.6269531 C 17.318338 8.0325563 16.954898 7.3138554 16.365234 7.15625 z M 22.058594 7.3457031 C 20.905307 7.4521743 22.138531 9.7440699 21.205078 10.429688 C 20.745585 10.767183 20.049179 10.480811 19.496094 10.619141 C 18.993613 10.744815 18.676775 11.328831 18.167969 11.425781 C 17.521906 11.548878 16.56362 10.53135 16.222656 11.09375 C 15.707838 11.942913 17.850871 12.489219 18.025391 13.466797 C 18.234606 14.638716 16.850198 15.697777 16.982422 16.880859 C 17.05322 17.51433 17.892761 17.904788 17.931641 18.541016 C 17.964062 19.071565 17.09658 19.526885 17.314453 20.011719 C 17.595252 20.636582 18.590432 20.821712 19.259766 20.675781 C 20.472813 20.411307 20.501472 18.742474 21.726562 18.541016 C 22.620153 18.394071 23.261209 19.744257 24.050781 19.300781 C 24.772438 18.895451 23.942726 17.085293 24.714844 16.787109 C 25.028445 16.665999 25.194682 17.637328 25.474609 17.451172 C 25.724429 17.285038 25.903409 16.737012 26.089844 16.501953 C 26.731249 15.693266 27.665109 17.716134 28.271484 16.880859 C 28.858186 16.072684 26.298496 14.745107 27.085938 14.130859 C 27.619579 13.71459 28.044971 15.536523 28.699219 15.363281 C 29.130746 15.249015 28.882623 14.422364 29.220703 14.130859 C 29.987504 13.469698 32.317442 14.37159 32.162109 13.371094 C 32.030909 12.526037 30.394488 13.833994 29.601562 13.513672 C 28.781978 13.182581 27.871538 12.449298 27.798828 11.568359 C 27.730285 10.737917 29.226238 10.312084 29.173828 9.4804688 C 29.155488 9.1894815 28.89334 8.7845913 28.603516 8.8164062 C 28.336312 8.8457377 27.935221 9.3344852 27.75 9.5292969 C 26.860576 10.464774 26.185437 11.679199 24.904297 11.521484 C 24.105297 11.423123 23.657718 10.472848 23.197266 9.8125 C 22.679297 9.0696652 22.960351 7.2624531 22.058594 7.3457031 z M 25 8.2011719 C 24.651006 8.162862 24.192771 8.4686458 24.144531 8.8164062 C 24.078026 9.2958377 24.577368 9.8374337 25.046875 9.9550781 C 25.431553 10.051467 26.053282 9.8677377 26.138672 9.4804688 C 26.261663 8.9226504 25.567805 8.2635009 25 8.2011719 z M 15.275391 12.517578 C 14.924642 12.460659 14.412427 12.732788 14.373047 13.085938 C 14.330921 13.46375 14.809062 13.807998 15.179688 13.892578 C 15.506346 13.967123 16.038186 13.883087 16.128906 13.560547 C 16.250611 13.127867 15.719058 12.589578 15.275391 12.517578 z "
       id="path889" />
    <path
       style="fill:#ffffff;stroke:none;stroke-width:1px;stroke-linecap:butt;stroke-linejoin:miter;stroke-opacity:1;opacity:0.25"
       d="m 19.117084,14.604399 c -0.645651,-0.299071 -0.344141,-1.511865 0,-2.134662 0.316151,-0.572144 1.101802,-0.703925 1.660293,-1.043612 0.532905,-0.324125 0.997424,-1.050178 1.612855,-0.948739 0.907054,0.149506 2.15761,1.239245 1.802604,2.087225 -0.373284,0.891638 -1.997555,-0.172698 -2.893653,0.189748 -0.884027,0.357564 -1.316818,2.250845 -2.182099,1.85004 z"
       id="path924"
       inkscape:connector-curvature="0"
       sodipodi:nodetypes="sssssss" />
    <path
       style="fill:#ffffff;stroke:none;stroke-width:1px;stroke-linecap:butt;stroke-linejoin:miter;stroke-opacity:1;opacity:0.25"
       d="m 24.619768,21.577628 c -1.082651,-0.520131 0.105373,-2.657205 0.996176,-3.462896 0.524456,-0.474346 1.74268,-0.997028 2.087225,-0.379495 0.414601,0.743095 -1.176505,1.232733 -1.70773,1.897477 -0.495737,0.620337 -0.659902,2.288786 -1.375671,1.944914 z"
       id="path926"
       inkscape:connector-curvature="0"
       sodipodi:nodetypes="sssss" />
    <path
       style="fill:#ffffff;stroke:none;stroke-width:1px;stroke-linecap:butt;stroke-linejoin:miter;stroke-opacity:1;opacity:0.25"
       d="m 29.173714,16.122381 c -0.233315,-0.521394 0.713491,-1.071762 1.280797,-1.138486 0.730703,-0.08594 1.226786,0.883595 1.944914,1.043612 0.571884,0.12743 1.614433,-0.663627 1.755167,-0.09487 0.209032,0.844775 -1.506753,1.185658 -2.371847,1.09105 -0.572166,-0.06257 -0.820498,-0.891719 -1.375671,-1.043613 -0.399177,-0.109213 -1.064323,0.520059 -1.23336,0.142307 z"
       id="path928"
       inkscape:connector-curvature="0"
       sodipodi:nodetypes="sssssss" />
    <path
       style="fill:#ffffff;stroke:none;stroke-width:1px;stroke-linecap:butt;stroke-linejoin:miter;stroke-opacity:1;opacity:0.25"
       d="m 22.437669,27.507245 c 0.630623,-0.621012 1.827447,0.295502 2.514158,0.853865 0.555483,0.451662 1.307322,1.167555 1.091049,1.85004 -0.324953,1.025446 -2.016428,1.877903 -2.94109,1.328234 -0.735984,-0.437508 -0.02553,-1.721285 -0.189747,-2.561594 -0.09878,-0.505492 -0.841354,-1.109154 -0.47437,-1.470545 z"
       id="path932"
       inkscape:connector-curvature="0"
       sodipodi:nodetypes="ssssss" />
    <path
       style="fill:#ffffff;stroke:none;stroke-width:1px;stroke-linecap:butt;stroke-linejoin:miter;stroke-opacity:1;opacity:0.25"
       d="m 11.622049,30.82783 c -0.658837,0.09075 -0.640652,1.232852 -0.61668,1.897478 0.0363,1.006504 0.148656,2.612751 1.138486,2.798779 1.198212,0.225192 2.830905,-1.479143 2.514158,-2.656469 -0.188479,-0.700562 -1.503184,-0.186324 -2.087225,-0.61668 -0.458976,-0.3382 -0.383951,-1.500906 -0.948739,-1.423108 z"
       id="path934"
       inkscape:connector-curvature="0"
       sodipodi:nodetypes="ssssss" />
    <path
       style="fill:#000000;stroke:none;stroke-width:1px;stroke-linecap:butt;stroke-linejoin:miter;stroke-opacity:1;opacity:0.25"
       d="M 16.003906 28.140625 C 15.956033 29.062243 16.109602 30.035631 16.365234 30.828125 C 16.548672 31.396803 17.379284 31.572534 17.621094 32.111328 C 17.684659 31.876368 17.71707 31.649363 17.646484 31.457031 C 17.434579 30.879631 16.554051 30.714262 16.365234 30.128906 C 16.173981 29.535995 16.041484 28.839177 16.003906 28.140625 z M 28.119141 29.617188 C 27.9351 29.612394 27.783822 29.65543 27.703125 29.796875 C 27.590428 29.994411 27.665022 30.199014 27.808594 30.40625 C 28.254412 30.091477 29.489486 30.886045 29.648438 30.306641 C 29.70907 30.085625 29.651881 29.907249 29.546875 29.746094 C 29.278865 29.950975 28.593254 29.629537 28.119141 29.617188 z M 27.160156 32.017578 C 26.985925 32.025379 26.840031 32.077463 26.753906 32.216797 C 26.607814 32.453147 26.619233 32.721494 26.716797 33.005859 C 26.73018 32.976052 26.736051 32.944902 26.753906 32.916016 C 27.098404 32.358682 28.388302 33.207601 28.699219 32.630859 C 28.803549 32.437331 28.727617 32.238381 28.591797 32.037109 C 28.283514 32.272783 27.623504 31.996833 27.160156 32.017578 z M 19.021484 32.738281 C 18.427244 32.684241 18.016316 33.991289 17.503906 33.685547 C 17.444399 33.65004 17.413701 33.600532 17.380859 33.552734 C 17.26955 33.907222 17.226646 34.219332 17.503906 34.384766 C 18.016316 34.690508 18.427244 33.38346 19.021484 33.4375 C 19.511932 33.4821 19.634106 34.31993 20.113281 34.433594 C 20.624715 34.55491 21.11715 33.894569 21.630859 34.005859 C 22.277893 34.146033 22.486435 35.279809 23.148438 35.287109 C 23.778118 35.294109 23.989429 34.098664 24.619141 34.101562 C 26.113284 34.108463 26.849292 37.791579 28.082031 36.947266 C 28.387913 36.737765 28.382625 36.440821 28.234375 36.099609 C 28.19509 36.15203 28.147741 36.203042 28.082031 36.248047 C 26.849292 37.09236 26.113284 33.409244 24.619141 33.402344 C 23.989429 33.399445 23.778118 34.594891 23.148438 34.587891 C 22.486435 34.580591 22.277893 33.446815 21.630859 33.306641 C 21.11715 33.195351 20.624715 33.855691 20.113281 33.734375 C 19.634106 33.620711 19.511932 32.782881 19.021484 32.738281 z M 15.931641 35.476562 C 15.88342 35.739504 15.804637 35.999961 15.699219 36.193359 C 15.377836 36.782958 14.545263 37.579281 13.972656 37.228516 C 13.887185 37.176158 13.833785 37.098826 13.794922 37.013672 C 13.700637 37.389431 13.697267 37.759037 13.972656 37.927734 C 14.545263 38.278499 15.377836 37.482177 15.699219 36.892578 C 15.904278 36.516383 16.058885 35.894062 15.931641 35.476562 z "
       id="path881-0" />
    <path
       style="fill:#000000;stroke:none;stroke-width:1px;stroke-linecap:butt;stroke-linejoin:miter;stroke-opacity:1;opacity:0.25"
       d="M 10.242188 17.314453 C 10.175357 17.521645 10.145717 17.739147 10.199219 17.925781 C 10.393793 18.604529 11.43733 18.631229 11.955078 19.111328 C 12.196906 19.335571 12.529482 19.561809 12.714844 19.833984 C 12.791011 19.752434 12.84896 19.663126 12.855469 19.550781 C 12.883469 19.06757 12.309994 18.741217 11.955078 18.412109 C 11.462497 17.955347 10.502734 17.902386 10.242188 17.314453 z M 11.8125 21.128906 C 11.70008 21.225921 11.62398 21.338043 11.621094 21.482422 C 11.613605 21.857122 12.188257 22.049877 12.527344 22.292969 C 12.634212 22.233074 12.716086 22.146021 12.759766 22.017578 C 12.896005 21.616955 12.17035 21.4352 11.8125 21.128906 z M 23.207031 22.529297 C 23.191536 22.986196 23.17173 23.442502 23.193359 23.867188 C 23.21352 23.417856 23.242639 22.959166 23.207031 22.529297 z M 9.6386719 22.966797 C 9.5300036 23.031041 9.4559599 23.129072 9.4394531 23.285156 C 9.3397021 24.22838 11.528904 23.595005 12.166016 24.25 C 12.28185 24.073559 12.361051 23.897139 12.287109 23.724609 C 11.958196 22.957143 10.21437 23.347465 9.6386719 22.966797 z M 11.751953 25.527344 C 11.622431 25.716286 11.529646 25.903045 11.621094 26.083984 C 11.989572 26.81306 13.53556 26.025134 13.994141 26.701172 C 14.028982 26.752536 14.051266 26.808566 14.072266 26.865234 C 14.147555 26.541168 14.155012 26.239109 13.994141 26.001953 C 13.57509 25.38419 12.258795 25.974823 11.751953 25.527344 z M 21.037109 25.863281 C 20.34806 25.873716 19.778174 26.001229 19.638672 26.238281 C 19.471793 26.521853 19.546312 26.701728 19.71875 26.867188 C 20.15682 26.466 21.989008 26.452731 23.148438 26.890625 C 23.705271 27.100928 24.080961 27.598716 24.667969 27.697266 C 25.087852 27.767756 25.609223 27.432192 25.757812 27.033203 C 25.835199 26.825408 25.825813 26.570658 25.757812 26.333984 C 25.609223 26.732973 25.087852 27.068537 24.667969 26.998047 C 24.080961 26.899497 23.705271 26.401709 23.148438 26.191406 C 22.534372 25.959485 21.726159 25.852846 21.037109 25.863281 z M 15.380859 27.685547 C 15.313847 27.685015 15.246693 27.692359 15.179688 27.708984 C 14.31684 27.923076 14.339001 30.141565 13.519531 29.796875 C 13.400674 29.74688 13.326705 29.674582 13.273438 29.591797 C 13.148548 30.002266 13.149907 30.340621 13.519531 30.496094 C 14.339001 30.840784 14.31684 28.622295 15.179688 28.408203 C 15.715732 28.275198 16.259008 28.736163 16.697266 29.072266 C 17.340002 29.565183 17.4088 31.050513 18.214844 30.970703 C 18.728598 30.919833 18.614025 30.003772 18.927734 29.59375 C 19.084146 29.389317 19.244727 29.016836 19.496094 29.072266 C 19.897574 29.160796 19.642562 29.963262 19.970703 30.210938 C 20.402769 30.537054 21.170148 30.749352 21.583984 30.400391 C 21.914809 30.121428 22.005666 29.555122 21.894531 29.083984 C 21.844177 29.328457 21.754456 29.557424 21.583984 29.701172 C 21.170148 30.050133 20.402769 29.837836 19.970703 29.511719 C 19.642562 29.264043 19.897574 28.461577 19.496094 28.373047 C 19.244727 28.317617 19.084146 28.690098 18.927734 28.894531 C 18.614025 29.304553 18.728598 30.220614 18.214844 30.271484 C 17.4088 30.351294 17.340002 28.865964 16.697266 28.373047 C 16.31379 28.078957 15.849946 27.689271 15.380859 27.685547 z M 10.914062 27.84375 C 10.856843 27.956674 10.784466 28.057678 10.685547 28.109375 C 10.407578 28.25465 9.9711459 28.121367 9.7519531 27.873047 C 9.6329818 28.047174 9.5709543 28.27493 9.6484375 28.445312 C 9.8000972 28.778803 10.360858 28.978286 10.685547 28.808594 C 10.97181 28.658987 11.11113 28.151004 10.943359 27.875 C 10.936014 27.862916 10.922571 27.855088 10.914062 27.84375 z M 6.3515625 27.947266 C 6.3282284 27.993363 6.2874866 28.032734 6.2753906 28.082031 C 6.1474014 28.603646 6.6301661 29.333453 7.1582031 29.431641 C 7.6818442 29.529011 8.3784128 29.025118 8.4550781 28.498047 C 8.4764744 28.350948 8.432497 28.199221 8.3652344 28.050781 C 8.1492956 28.472445 7.5962554 28.813877 7.1582031 28.732422 C 6.809117 28.66751 6.4976865 28.321629 6.3515625 27.947266 z "
       id="path875-6" />
    <path
       style="fill:#000000;stroke:none;stroke-width:1px;stroke-linecap:butt;stroke-linejoin:miter;stroke-opacity:1;opacity:0.25"
       d="M 13.898438 7.828125 C 13.78971 7.8834164 13.718899 7.9695204 13.708984 8.1054688 C 13.644154 8.9943666 15.387742 8.7491467 16.128906 9.2441406 C 16.519865 9.505247 16.726588 10.344174 17.171875 10.193359 C 17.576562 10.056296 17.587735 9.4659639 17.515625 8.96875 C 17.473626 9.2121367 17.383523 9.4224572 17.171875 9.4941406 C 16.726588 9.6449562 16.519865 8.8060283 16.128906 8.5449219 C 15.545232 8.1551092 14.35267 8.2152258 13.898438 7.828125 z M 21.548828 7.9765625 C 21.519911 8.2676298 21.545742 8.6187104 21.568359 8.9804688 C 21.602971 8.6677157 21.572666 8.3131735 21.548828 7.9765625 z M 24.248047 8.5742188 C 24.194897 8.6497585 24.156316 8.7314519 24.144531 8.8164062 C 24.078031 9.2958378 24.577368 9.8374337 25.046875 9.9550781 C 25.431553 10.051467 26.053282 9.8677381 26.138672 9.4804688 C 26.176646 9.3082394 26.11931 9.1319375 26.029297 8.9609375 C 25.821643 9.2166237 25.362452 9.3349337 25.046875 9.2558594 C 24.727079 9.1757281 24.407288 8.8941113 24.248047 8.5742188 z M 29.072266 9.1699219 C 28.754769 9.7662268 27.741873 10.179063 27.798828 10.869141 C 27.808607 10.987624 27.835219 11.102322 27.873047 11.214844 C 28.157995 10.599648 29.218246 10.18527 29.173828 9.4804688 C 29.167601 9.3816622 29.126253 9.2734376 29.072266 9.1699219 z M 16.296875 11.023438 C 16.271777 11.046567 16.243396 11.059542 16.222656 11.09375 C 15.723031 11.917853 17.712016 12.460121 17.990234 13.384766 C 18.03687 13.181216 18.062774 12.976983 18.025391 12.767578 C 17.897457 12.050957 16.718017 11.565743 16.296875 11.023438 z M 14.535156 12.792969 C 14.450651 12.879613 14.385283 12.97621 14.373047 13.085938 C 14.330917 13.46375 14.809061 13.807998 15.179688 13.892578 C 15.506346 13.967128 16.038186 13.883078 16.128906 13.560547 C 16.176611 13.390951 16.10644 13.210576 15.998047 13.042969 C 15.79808 13.209535 15.430881 13.250687 15.179688 13.193359 C 14.952877 13.141599 14.698619 12.987402 14.535156 12.792969 z M 31.896484 13.105469 C 31.754174 13.156969 31.563219 13.174717 31.347656 13.177734 C 30.781429 13.352131 30.055646 13.69711 29.601562 13.513672 C 29.512247 13.477591 29.422303 13.420305 29.332031 13.375 C 29.297329 13.396359 29.250826 13.405668 29.220703 13.431641 C 28.882623 13.723146 29.130746 14.549796 28.699219 14.664062 C 28.044971 14.837305 27.619578 13.015372 27.085938 13.431641 C 26.85573 13.611215 26.925783 13.854294 27.105469 14.125 C 27.629819 13.768537 28.053149 15.534358 28.699219 15.363281 C 29.130746 15.249015 28.882623 14.422364 29.220703 14.130859 C 29.987504 13.469698 32.317442 14.37159 32.162109 13.371094 C 32.13493 13.196034 32.031974 13.129355 31.896484 13.105469 z M 26.34375 15.621094 C 26.255646 15.644806 26.170019 15.701648 26.089844 15.802734 C 25.903409 16.037793 25.724429 16.585819 25.474609 16.751953 C 25.194682 16.938109 25.028445 15.966781 24.714844 16.087891 C 24.262176 16.262706 24.346302 16.945843 24.359375 17.572266 C 24.368413 17.205419 24.434761 16.895275 24.714844 16.787109 C 25.028445 16.665999 25.194682 17.637328 25.474609 17.451172 C 25.724429 17.285038 25.903409 16.737012 26.089844 16.501953 C 26.731249 15.693266 27.665109 17.716134 28.271484 16.880859 C 28.412962 16.685976 28.36581 16.46066 28.232422 16.222656 C 27.703037 16.837443 26.945916 15.459026 26.34375 15.621094 z M 17.025391 16.347656 C 16.98583 16.523563 16.962209 16.700003 16.982422 16.880859 C 17.039849 17.394675 17.596669 17.75019 17.828125 18.205078 C 17.894561 18.086931 17.939288 17.96694 17.931641 17.841797 C 17.896322 17.263847 17.205675 16.886385 17.025391 16.347656 z M 24.357422 17.673828 C 24.358471 18.074776 24.325723 18.447137 24.050781 18.601562 C 23.261209 19.045038 22.620154 17.694852 21.726562 17.841797 C 20.501473 18.043255 20.472813 19.712089 19.259766 19.976562 C 18.659585 20.107416 17.801929 19.96815 17.427734 19.488281 C 17.315247 19.661932 17.235174 19.835299 17.314453 20.011719 C 17.595252 20.636582 18.590432 20.821712 19.259766 20.675781 C 20.472813 20.411307 20.501473 18.742474 21.726562 18.541016 C 22.620154 18.394071 23.261209 19.744257 24.050781 19.300781 C 24.486705 19.055938 24.35864 18.300977 24.357422 17.673828 z "
       id="path889-7" />
  </g>
</svg>
