<?xml version="1.0" encoding="UTF-8" standalone="no"?>
<!-- Created with Inkscape (http://www.inkscape.org/) -->

<svg
   xmlns:dc="http://purl.org/dc/elements/1.1/"
   xmlns:cc="http://creativecommons.org/ns#"
   xmlns:rdf="http://www.w3.org/1999/02/22-rdf-syntax-ns#"
   xmlns:svg="http://www.w3.org/2000/svg"
   xmlns="http://www.w3.org/2000/svg"
   xmlns:sodipodi="http://sodipodi.sourceforge.net/DTD/sodipodi-0.dtd"
   xmlns:inkscape="http://www.inkscape.org/namespaces/inkscape"
   width="48px"
   height="48px"
   viewBox="0 0 48 48"
   version="1.1"
   id="SVGRoot"
   inkscape:version="0.92.4 (5da689c313, 2019-01-14)"
   sodipodi:docname="octopi.svg">
  <defs
     id="defs815" />
  <sodipodi:namedview
     id="base"
     pagecolor="#ffffff"
     bordercolor="#666666"
     borderopacity="1.0"
     inkscape:pageopacity="0.0"
     inkscape:pageshadow="2"
     inkscape:zoom="19.279538"
     inkscape:cx="25.048406"
     inkscape:cy="27.609083"
     inkscape:document-units="px"
     inkscape:current-layer="layer1"
     showgrid="true"
     inkscape:window-width="1920"
     inkscape:window-height="1017"
     inkscape:window-x="-8"
     inkscape:window-y="-8"
     inkscape:window-maximized="1"
     inkscape:grid-bbox="true"
     inkscape:snap-global="true">
    <inkscape:grid
       type="xygrid"
       id="grid1371" />
  </sodipodi:namedview>
  <metadata
     id="metadata818">
    <rdf:RDF>
      <cc:Work
         rdf:about="">
        <dc:format>image/svg+xml</dc:format>
        <dc:type
           rdf:resource="http://purl.org/dc/dcmitype/StillImage" />
        <dc:title></dc:title>
      </cc:Work>
    </rdf:RDF>
  </metadata>
  <g
     inkscape:label="Layer 1"
     inkscape:groupmode="layer"
     id="layer1">
    <path
       style="opacity:1;vector-effect:none;fill:#96d56b;fill-opacity:1;fill-rule:evenodd;stroke:none;stroke-width:4;stroke-linecap:round;stroke-linejoin:round;stroke-miterlimit:4;stroke-dasharray:none;stroke-dashoffset:0;stroke-opacity:1;paint-order:stroke fill markers"
       d="M 8 4 C 5.784 4 4 5.784 4 8 L 4 33 L 4 37 L 4 40 C 4 42.216 5.784 44 8 44 C 10.216 44 12 42.216 12 40 L 12 38 C 12 35.784 13.784 34 16 34 C 18.216 34 20 35.784 20 38 L 20 39 L 20 40 C 20 42.216 21.784 44 24 44 C 26.216 44 28 42.216 28 40 L 28 39 L 28 38 C 28 35.784 29.784 34 32 34 C 34.216 34 36 35.784 36 38 L 36 40 C 36 42.216 37.784 44 40 44 C 42.216 44 44 42.216 44 40 L 44 37 L 44 33 L 44 8 C 44 5.784 42.216 4 40 4 L 8 4 z "
       id="rect1373" />
    <rect
       style="opacity:1;vector-effect:none;fill:#ffffff;fill-opacity:1;fill-rule:evenodd;stroke:none;stroke-width:4;stroke-linecap:round;stroke-linejoin:round;stroke-miterlimit:4;stroke-dasharray:none;stroke-opacity:1;paint-order:normal"
       id="rect853"
       width="12"
       height="12"
       x="10"
       y="12"
       ry="6" />
    <rect
       style="opacity:1;vector-effect:none;fill:#ffffff;fill-opacity:1;fill-rule:evenodd;stroke:none;stroke-width:4;stroke-linecap:round;stroke-linejoin:round;stroke-miterlimit:4;stroke-dasharray:none;stroke-opacity:1;paint-order:normal"
       id="rect855"
       width="12"
       height="12"
       x="26"
       y="12"
       ry="6" />
    <rect
       style="opacity:1;vector-effect:none;fill:#4e4e4e;fill-opacity:1;fill-rule:evenodd;stroke:none;stroke-width:4;stroke-linecap:round;stroke-linejoin:round;stroke-miterlimit:4;stroke-dasharray:none;stroke-opacity:1;paint-order:normal"
       id="rect883"
       width="4"
       height="4"
       x="16"
       y="16"
       ry="2" />
    <rect
       style="opacity:1;vector-effect:none;fill:#4e4e4e;fill-opacity:1;fill-rule:evenodd;stroke:none;stroke-width:4;stroke-linecap:round;stroke-linejoin:round;stroke-miterlimit:4;stroke-dasharray:none;stroke-opacity:1;paint-order:normal"
       id="rect885"
       width="4"
       height="4"
       x="32"
       y="16"
       ry="2" />
    <path
       style="color:#000000;font-style:normal;font-variant:normal;font-weight:normal;font-stretch:normal;font-size:medium;line-height:normal;font-family:sans-serif;font-variant-ligatures:normal;font-variant-position:normal;font-variant-caps:normal;font-variant-numeric:normal;font-variant-alternates:normal;font-feature-settings:normal;text-indent:0;text-align:start;text-decoration:none;text-decoration-line:none;text-decoration-style:solid;text-decoration-color:#000000;letter-spacing:normal;word-spacing:normal;text-transform:none;writing-mode:lr-tb;direction:ltr;text-orientation:mixed;dominant-baseline:auto;baseline-shift:baseline;text-anchor:start;white-space:normal;shape-padding:0;clip-rule:nonzero;display:inline;overflow:visible;visibility:visible;opacity:0.25;isolation:auto;mix-blend-mode:normal;color-interpolation:sRGB;color-interpolation-filters:linearRGB;solid-color:#000000;solid-opacity:1;vector-effect:none;fill:#000000;fill-opacity:1;fill-rule:evenodd;stroke:none;stroke-width:2;stroke-linecap:round;stroke-linejoin:round;stroke-miterlimit:4;stroke-dasharray:none;stroke-dashoffset:0;stroke-opacity:1;paint-order:stroke fill markers;color-rendering:auto;image-rendering:auto;shape-rendering:auto;text-rendering:auto;enable-background:accumulate"
       d="M 8 4 C 5.784 4 4 5.784 4 8 L 4 33 L 4 37 L 4 40 C 4 42.216 5.784 44 8 44 C 10.216 44 12 42.216 12 40 L 12 38 C 12 35.784 13.784 34 16 34 C 18.216 34 20 35.784 20 38 L 20 39 L 20 40 C 20 42.216 21.784 44 24 44 C 26.216 44 28 42.216 28 40 L 28 39 L 28 38 C 28 35.784 29.784 34 32 34 C 34.216 34 36 35.784 36 38 L 36 40 C 36 42.216 37.784 44 40 44 C 42.216 44 44 42.216 44 40 L 44 37 L 44 33 L 44 8 C 44 5.784 42.216 4 40 4 L 8 4 z M 8 5 L 40 5 C 41.679297 5 43 6.3207028 43 8 L 43 33 L 43 37 L 43 40 C 43 41.679297 41.679297 43 40 43 C 38.320703 43 37 41.679297 37 40 L 37 38 C 37 35.247297 34.752703 33 32 33 C 29.247297 33 27 35.247297 27 38 L 27 39 L 27 40 C 27 41.679297 25.679297 43 24 43 C 22.320703 43 21 41.679297 21 40 L 21 39 L 21 38 C 21 35.247297 18.752703 33 16 33 C 13.247297 33 11 35.247297 11 38 L 11 40 C 11 41.679297 9.6792972 43 8 43 C 6.3207028 43 5 41.679297 5 40 L 5 37 L 5 33 L 5 8 C 5 6.3207028 6.3207028 5 8 5 z "
       id="rect1373-2" />
  </g>
</svg>
