<?xml version="1.0" encoding="UTF-8" standalone="no"?>
<!-- Created with Inkscape (http://www.inkscape.org/) -->

<svg
   xmlns:dc="http://purl.org/dc/elements/1.1/"
   xmlns:cc="http://creativecommons.org/ns#"
   xmlns:rdf="http://www.w3.org/1999/02/22-rdf-syntax-ns#"
   xmlns:svg="http://www.w3.org/2000/svg"
   xmlns="http://www.w3.org/2000/svg"
   xmlns:sodipodi="http://sodipodi.sourceforge.net/DTD/sodipodi-0.dtd"
   xmlns:inkscape="http://www.inkscape.org/namespaces/inkscape"
   width="48px"
   height="48px"
   viewBox="0 0 48 48"
   version="1.1"
   id="SVGRoot"
   inkscape:version="0.92.4 (5da689c313, 2019-01-14)"
   sodipodi:docname="onboard.svg">
  <defs
     id="defs815" />
  <sodipodi:namedview
     id="base"
     pagecolor="#ffffff"
     bordercolor="#666666"
     borderopacity="1.0"
     inkscape:pageopacity="0.0"
     inkscape:pageshadow="2"
     inkscape:zoom="15.291184"
     inkscape:cx="11.899177"
     inkscape:cy="26.514107"
     inkscape:document-units="px"
     inkscape:current-layer="layer1"
     showgrid="true"
     inkscape:window-width="1920"
     inkscape:window-height="1017"
     inkscape:window-x="-8"
     inkscape:window-y="-8"
     inkscape:window-maximized="1"
     inkscape:grid-bbox="true"
     inkscape:snap-global="true">
    <inkscape:grid
       type="xygrid"
       id="grid1371" />
  </sodipodi:namedview>
  <metadata
     id="metadata818">
    <rdf:RDF>
      <cc:Work
         rdf:about="">
        <dc:format>image/svg+xml</dc:format>
        <dc:type
           rdf:resource="http://purl.org/dc/dcmitype/StillImage" />
        <dc:title></dc:title>
      </cc:Work>
    </rdf:RDF>
  </metadata>
  <g
     inkscape:label="Layer 1"
     inkscape:groupmode="layer"
     id="layer1">
    <rect
       style="opacity:1;vector-effect:none;fill:#ffdd75;fill-opacity:1;fill-rule:evenodd;stroke:none;stroke-width:4;stroke-linecap:round;stroke-linejoin:round;stroke-miterlimit:4;stroke-dasharray:none;stroke-opacity:1;paint-order:normal"
       id="rect828"
       width="20"
       height="20"
       x="4"
       y="4"
       ry="4" />
    <rect
       style="opacity:1;vector-effect:none;fill:#71b9e3;fill-opacity:1;fill-rule:evenodd;stroke:none;stroke-width:4;stroke-linecap:round;stroke-linejoin:round;stroke-miterlimit:4;stroke-dasharray:none;stroke-opacity:1;paint-order:normal"
       id="rect830"
       width="20"
       height="20"
       x="24"
       y="24"
       ry="4" />
    <rect
       style="opacity:1;vector-effect:none;fill:#efefef;fill-opacity:1;fill-rule:evenodd;stroke:none;stroke-width:4;stroke-linecap:round;stroke-linejoin:round;stroke-miterlimit:4;stroke-dasharray:none;stroke-opacity:1;paint-order:normal"
       id="rect832"
       width="20"
       height="20"
       x="24"
       y="4"
       ry="4" />
    <rect
       style="opacity:1;vector-effect:none;fill:#efefef;fill-opacity:1;fill-rule:evenodd;stroke:none;stroke-width:4;stroke-linecap:round;stroke-linejoin:round;stroke-miterlimit:4;stroke-dasharray:none;stroke-opacity:1;paint-order:normal"
       id="rect834"
       width="20"
       height="20"
       x="4"
       y="24"
       ry="4" />
    <path
       style="opacity:0.25;vector-effect:none;fill:#000000;fill-opacity:1;fill-rule:evenodd;stroke:none;stroke-width:4;stroke-linecap:round;stroke-linejoin:round;stroke-miterlimit:4;stroke-dasharray:none;stroke-opacity:1;paint-order:normal"
       d="M 8 4 C 5.784 4 4 5.784 4 8 L 4 20 C 4 22.216 5.784 24 8 24 L 20 24 C 22.216 24 24 22.216 24 20 L 24 8 C 24 5.784 22.216 4 20 4 L 8 4 z M 8 5 L 20 5 C 21.662 5 23 6.338 23 8 L 23 20 C 23 21.662 21.662 23 20 23 L 8 23 C 6.338 23 5 21.662 5 20 L 5 8 C 5 6.338 6.338 5 8 5 z "
       id="rect836" />
    <path
       inkscape:connector-curvature="0"
       style="opacity:0.25;vector-effect:none;fill:#000000;fill-opacity:1;fill-rule:evenodd;stroke:none;stroke-width:4;stroke-linecap:round;stroke-linejoin:round;stroke-miterlimit:4;stroke-dasharray:none;stroke-opacity:1;paint-order:normal"
       d="m 28,4 c -2.216,0 -4,1.784 -4,4 v 12 c 0,2.216 1.784,4 4,4 h 12 c 2.216,0 4,-1.784 4,-4 V 8 C 44,5.784 42.216,4 40,4 Z m 0,1 h 12 c 1.662,0 3,1.338 3,3 v 12 c 0,1.662 -1.338,3 -3,3 H 28 c -1.662,0 -3,-1.338 -3,-3 V 8 c 0,-1.662 1.338,-3 3,-3 z"
       id="rect836-2" />
    <path
       inkscape:connector-curvature="0"
       style="opacity:0.25;vector-effect:none;fill:#000000;fill-opacity:1;fill-rule:evenodd;stroke:none;stroke-width:4;stroke-linecap:round;stroke-linejoin:round;stroke-miterlimit:4;stroke-dasharray:none;stroke-opacity:1;paint-order:normal"
       d="m 40,24 c 2.216,0 4,1.784 4,4 v 12 c 0,2.216 -1.784,4 -4,4 H 28 c -2.216,0 -4,-1.784 -4,-4 V 28 c 0,-2.216 1.784,-4 4,-4 z m 0,1 H 28 c -1.662,0 -3,1.338 -3,3 v 12 c 0,1.662 1.338,3 3,3 h 12 c 1.662,0 3,-1.338 3,-3 V 28 c 0,-1.662 -1.338,-3 -3,-3 z"
       id="rect836-9" />
    <path
       inkscape:connector-curvature="0"
       style="opacity:0.25;vector-effect:none;fill:#000000;fill-opacity:1;fill-rule:evenodd;stroke:none;stroke-width:4;stroke-linecap:round;stroke-linejoin:round;stroke-miterlimit:4;stroke-dasharray:none;stroke-opacity:1;paint-order:normal"
       d="m 20,24 c 2.216,0 4,1.784 4,4 v 12 c 0,2.216 -1.784,4 -4,4 H 8 C 5.784,44 4,42.216 4,40 V 28 c 0,-2.216 1.784,-4 4,-4 z m 0,1 H 8 c -1.662,0 -3,1.338 -3,3 v 12 c 0,1.662 1.338,3 3,3 h 12 c 1.662,0 3,-1.338 3,-3 V 28 c 0,-1.662 -1.338,-3 -3,-3 z"
       id="rect836-2-8" />
    <path
       style="opacity:0.5;vector-effect:none;fill:#000000;fill-opacity:1;fill-rule:evenodd;stroke:none;stroke-width:4;stroke-linecap:round;stroke-linejoin:round;stroke-miterlimit:4;stroke-dasharray:none;stroke-opacity:1;paint-order:normal"
       d="M 12 8 C 9.784 8 8 9.784 8 12 L 8 16 C 8 18.216 9.784 20 12 20 C 14.216 20 16 18.216 16 16 L 16 12 C 16 9.784 14.216 8 12 8 z M 12 10 C 13.108 10 14 10.892 14 12 L 14 16 C 14 17.108 13.108 18 12 18 C 10.892 18 10 17.108 10 16 L 10 12 C 10 10.892 10.892 10 12 10 z "
       id="rect905" />
    <path
       style="opacity:0.5;vector-effect:none;fill:#000000;fill-opacity:1;fill-rule:evenodd;stroke:none;stroke-width:4;stroke-linecap:round;stroke-linejoin:round;stroke-miterlimit:4;stroke-dasharray:none;stroke-opacity:1;paint-order:normal"
       d="M 28 28 L 28 31.5 L 28 36.5 L 28 40 L 31.5 40 L 32 40 L 32.5 40 C 34.439 40 36 38.439 36 36.5 C 36 35.516959 35.595563 34.634567 34.947266 34 C 35.595563 33.365433 36 32.483041 36 31.5 C 36 29.561 34.439 28 32.5 28 L 32 28 L 31.5 28 L 28 28 z M 30 30 L 31.5 30 L 32 30 L 32.5 30 C 33.331 30 34 30.669 34 31.5 C 34 32.331 33.331 33 32.5 33 L 32 33 L 31.5 33 L 30 33 L 30 31.5 L 30 30 z M 30 35 L 32 35 L 32.5 35 C 33.331 35 34 35.669 34 36.5 C 34 37.331 33.331 38 32.5 38 L 32 38 L 30 38 L 30 35 z "
       id="rect910" />
  </g>
</svg>
