<?xml version="1.0" encoding="UTF-8" standalone="no"?>
<!-- Created with Inkscape (http://www.inkscape.org/) -->

<svg
   xmlns:dc="http://purl.org/dc/elements/1.1/"
   xmlns:cc="http://creativecommons.org/ns#"
   xmlns:rdf="http://www.w3.org/1999/02/22-rdf-syntax-ns#"
   xmlns:svg="http://www.w3.org/2000/svg"
   xmlns="http://www.w3.org/2000/svg"
   xmlns:sodipodi="http://sodipodi.sourceforge.net/DTD/sodipodi-0.dtd"
   xmlns:inkscape="http://www.inkscape.org/namespaces/inkscape"
   width="48px"
   height="48px"
   viewBox="0 0 48 48"
   version="1.1"
   id="SVGRoot"
   inkscape:version="0.92.4 (5da689c313, 2019-01-14)"
   sodipodi:docname="plasticity.svg">
  <defs
     id="defs815">
    <linearGradient
       id="linearGradient1103"
       x1="37"
       x2="37"
       y1="4"
       y2="29"
       gradientUnits="userSpaceOnUse"
       gradientTransform="translate(-1,1)">
      <stop
         stop-color="#aa3b9a"
         offset="0"
         id="stop14"
         style="stop-color:#f97263;stop-opacity:1" />
      <stop
         stop-color="#f7f7f9"
         offset=".13333"
         id="stop16" />
      <stop
         stop-color="#c9c0c8"
         offset=".73333"
         id="stop18"
         style="stop-color:#b7bfc2;stop-opacity:1" />
      <stop
         stop-color="#7ad6ed"
         offset=".86667"
         id="stop20"
         style="stop-color:#96dfd3;stop-opacity:1" />
      <stop
         stop-color="#383d87"
         offset=".93333"
         id="stop22"
         style="stop-color:#4a53da;stop-opacity:1" />
      <stop
         stop-color="#5647d2"
         offset=".96667"
         id="stop24"
         style="stop-color:#613a7c;stop-opacity:1" />
      <stop
         stop-color="#6d4dd2"
         offset="1"
         id="stop26"
         style="stop-color:#926aaf;stop-opacity:1" />
    </linearGradient>
    <linearGradient
       id="linearGradient1206"
       x1="20"
       x2="29"
       y1="40.700001"
       y2="40.700001"
       gradientUnits="userSpaceOnUse"
       gradientTransform="matrix(1,0,0,0.90909091,-1,4)">
      <stop
         stop-color="#4a53da"
         offset="0"
         id="stop34" />
      <stop
         stop-color="#7ad6ed"
         offset=".5"
         id="stop36"
         style="stop-color:#96dfd3;stop-opacity:1" />
      <stop
         stop-color="#7ad6ed"
         stop-opacity="0"
         offset="1"
         id="stop38"
         style="stop-color:#b7bfc2;stop-opacity:1" />
    </linearGradient>
  </defs>
  <sodipodi:namedview
     id="base"
     pagecolor="#ffffff"
     bordercolor="#666666"
     borderopacity="1.0"
     inkscape:pageopacity="0.0"
     inkscape:pageshadow="2"
     inkscape:zoom="16.342421"
     inkscape:cx="16.172884"
     inkscape:cy="21.610806"
     inkscape:document-units="px"
     inkscape:current-layer="layer1"
     showgrid="true"
     inkscape:window-width="1920"
     inkscape:window-height="1017"
     inkscape:window-x="-8"
     inkscape:window-y="-8"
     inkscape:window-maximized="1"
     inkscape:grid-bbox="true"
     inkscape:snap-global="true">
    <inkscape:grid
       type="xygrid"
       id="grid1371" />
  </sodipodi:namedview>
  <metadata
     id="metadata818">
    <rdf:RDF>
      <cc:Work
         rdf:about="">
        <dc:format>image/svg+xml</dc:format>
        <dc:type
           rdf:resource="http://purl.org/dc/dcmitype/StillImage" />
        <dc:title />
      </cc:Work>
    </rdf:RDF>
  </metadata>
  <g
     inkscape:label="Layer 1"
     inkscape:groupmode="layer"
     id="layer1">
    <rect
       style="opacity:1;vector-effect:none;fill:#b7bfc2;fill-opacity:1;fill-rule:evenodd;stroke:none;stroke-width:4;stroke-linecap:round;stroke-linejoin:round;stroke-miterlimit:4;stroke-dasharray:none;stroke-dashoffset:0;stroke-opacity:1;paint-order:stroke fill markers"
       id="rect1373"
       width="40"
       height="40"
       x="4"
       y="4"
       ry="4" />
    <rect
       id="rect55"
       style="fill:url(#linearGradient1206);fill-rule:evenodd;stroke-width:0.9534626;paint-order:normal"
       height="14"
       width="23"
       y="30"
       x="14" />
    <path
       style="fill:url(#linearGradient1103);fill-rule:evenodd;paint-order:normal"
       d="m 14,4 v 26 h 29 c 1,0 1,1 1,1 V 8 C 44,5.784 42.216,4 40,4 Z"
       id="path57"
       inkscape:connector-curvature="0"
       sodipodi:nodetypes="ccscssc" />
    <path
       style="opacity:1;vector-effect:none;fill:#4a53da;fill-opacity:1;fill-rule:evenodd;stroke:none;stroke-width:2;stroke-linecap:round;stroke-linejoin:miter;stroke-miterlimit:4;stroke-dasharray:none;stroke-opacity:1;paint-order:normal"
       d="M 5,29.449219 V 40 c 0,2.216 1.784,4 4,4 h 6 c 2.216,0 4,-1.784 4,-4 v -6 c 0,0 0,-4 4,-4 H 7 C 6.2669714,30 5.5895523,29.790698 5,29.449219 Z"
       id="rect828-7"
       inkscape:connector-curvature="0" />
    <path
       style="opacity:0.25;vector-effect:none;fill:#000000;fill-opacity:1;fill-rule:evenodd;stroke:none;stroke-width:4;stroke-linecap:round;stroke-linejoin:round;stroke-miterlimit:4;stroke-dasharray:none;stroke-dashoffset:0;stroke-opacity:1;paint-order:stroke fill markers"
       d="M 8 4 C 5.784 4 4 5.784 4 8 L 4 40 C 4 42.216 5.784 44 8 44 L 40 44 C 42.216 44 44 42.216 44 40 L 44 8 C 44 5.784 42.216 4 40 4 L 8 4 z M 8 5 L 40 5 C 41.662 5 43 6.338 43 8 L 43 40 C 43 41.662 41.662 43 40 43 L 8 43 C 6.338 43 5 41.662 5 40 L 5 8 C 5 6.338 6.338 5 8 5 z "
       id="rect826" />
    <path
       style="opacity:1;vector-effect:none;fill:#b7bfc2;fill-opacity:1;fill-rule:evenodd;stroke:none;stroke-width:2;stroke-linecap:round;stroke-linejoin:miter;stroke-miterlimit:4;stroke-dasharray:none;stroke-opacity:1;paint-order:normal"
       d="M 8 4 C 5.784 4 4 5.784 4 8 L 4 40 C 4 42.216 5.784 44 8 44 L 14 44 C 16.216 44 18 42.216 18 40 L 18 34 C 18 34 18 30 22 30 L 25 30 C 32.202 30 38 24.202 38 17 C 38 9.798 32.202 4 25 4 L 18 4 L 17 4 L 14 4 L 13 4 L 8 4 z "
       id="rect828" />
    <path
       style="color:#000000;font-style:normal;font-variant:normal;font-weight:normal;font-stretch:normal;font-size:medium;line-height:normal;font-family:sans-serif;font-variant-ligatures:normal;font-variant-position:normal;font-variant-caps:normal;font-variant-numeric:normal;font-variant-alternates:normal;font-feature-settings:normal;text-indent:0;text-align:start;text-decoration:none;text-decoration-line:none;text-decoration-style:solid;text-decoration-color:#000000;letter-spacing:normal;word-spacing:normal;text-transform:none;writing-mode:lr-tb;direction:ltr;text-orientation:mixed;dominant-baseline:auto;baseline-shift:baseline;text-anchor:start;white-space:normal;shape-padding:0;clip-rule:nonzero;display:inline;overflow:visible;visibility:visible;opacity:0.25;isolation:auto;mix-blend-mode:normal;color-interpolation:sRGB;color-interpolation-filters:linearRGB;solid-color:#000000;solid-opacity:1;vector-effect:none;fill:#000000;fill-opacity:1;fill-rule:evenodd;stroke:none;stroke-width:2;stroke-linecap:round;stroke-linejoin:round;stroke-miterlimit:4;stroke-dasharray:none;stroke-dashoffset:0;stroke-opacity:1;paint-order:normal;color-rendering:auto;image-rendering:auto;shape-rendering:auto;text-rendering:auto;enable-background:accumulate"
       d="M 8 4 C 5.784 4 4 5.784 4 8 L 4 40 C 4 42.216 5.784 44 8 44 L 14 44 C 16.216 44 18 42.216 18 40 L 18 34 C 18 34 18 30 22 30 L 25 30 C 32.202 30 38 24.202 38 17 C 38 9.798 32.202 4 25 4 L 18 4 L 17 4 L 14 4 L 13 4 L 8 4 z M 8 5 L 13 5 L 14 5 L 17 5 L 18 5 L 25 5 C 31.665297 5 37 10.334703 37 17 C 37 23.665297 31.665297 29 25 29 L 22 29 C 19.666667 29 18.224726 30.31422 17.605469 31.552734 C 16.986212 32.791248 17 34 17 34 L 17 40 C 17 41.679297 15.679297 43 14 43 L 8 43 C 6.3207028 43 5 41.679297 5 40 L 5 8 C 5 6.3207028 6.3207028 5 8 5 z "
       id="rect828-4" />
  </g>
</svg>
