<?xml version="1.0" encoding="UTF-8" standalone="no"?>
<!-- Created with Inkscape (http://www.inkscape.org/) -->

<svg
   xmlns:dc="http://purl.org/dc/elements/1.1/"
   xmlns:cc="http://creativecommons.org/ns#"
   xmlns:rdf="http://www.w3.org/1999/02/22-rdf-syntax-ns#"
   xmlns:svg="http://www.w3.org/2000/svg"
   xmlns="http://www.w3.org/2000/svg"
   xmlns:sodipodi="http://sodipodi.sourceforge.net/DTD/sodipodi-0.dtd"
   xmlns:inkscape="http://www.inkscape.org/namespaces/inkscape"
   width="48px"
   height="48px"
   viewBox="0 0 48 48"
   version="1.1"
   id="SVGRoot"
   inkscape:version="0.92.4 (5da689c313, 2019-01-14)"
   sodipodi:docname="podcasts.svg">
  <defs
     id="defs815" />
  <sodipodi:namedview
     id="base"
     pagecolor="#ffffff"
     bordercolor="#666666"
     borderopacity="1.0"
     inkscape:pageopacity="0.0"
     inkscape:pageshadow="2"
     inkscape:zoom="7.8869359"
     inkscape:cx="25.048406"
     inkscape:cy="23.459606"
     inkscape:document-units="px"
     inkscape:current-layer="layer1"
     showgrid="true"
     inkscape:window-width="725"
     inkscape:window-height="405"
     inkscape:window-x="868"
     inkscape:window-y="116"
     inkscape:window-maximized="0"
     inkscape:grid-bbox="true"
     inkscape:snap-global="true">
    <inkscape:grid
       type="xygrid"
       id="grid1371" />
  </sodipodi:namedview>
  <metadata
     id="metadata818">
    <rdf:RDF>
      <cc:Work
         rdf:about="">
        <dc:format>image/svg+xml</dc:format>
        <dc:type
           rdf:resource="http://purl.org/dc/dcmitype/StillImage" />
        <dc:title></dc:title>
      </cc:Work>
    </rdf:RDF>
  </metadata>
  <g
     inkscape:label="Layer 1"
     inkscape:groupmode="layer"
     id="layer1">
    <rect
       style="opacity:1;vector-effect:none;fill:#c184ed;fill-opacity:1;fill-rule:evenodd;stroke:none;stroke-width:4;stroke-linecap:round;stroke-linejoin:round;stroke-miterlimit:4;stroke-dasharray:none;stroke-dashoffset:0;stroke-opacity:1;paint-order:stroke fill markers"
       id="rect1373"
       width="40"
       height="40"
       x="4"
       y="4"
       ry="4" />
    <path
       style="opacity:0.25;vector-effect:none;fill:#000000;fill-opacity:1;fill-rule:evenodd;stroke:none;stroke-width:4;stroke-linecap:round;stroke-linejoin:round;stroke-miterlimit:4;stroke-dasharray:none;stroke-dashoffset:0;stroke-opacity:1;paint-order:stroke fill markers"
       d="M 8 4 C 5.784 4 4 5.784 4 8 L 4 40 C 4 42.216 5.784 44 8 44 L 40 44 C 42.216 44 44 42.216 44 40 L 44 8 C 44 5.784 42.216 4 40 4 L 8 4 z M 8 5 L 40 5 C 41.662 5 43 6.338 43 8 L 43 40 C 43 41.662 41.662 43 40 43 L 8 43 C 6.338 43 5 41.662 5 40 L 5 8 C 5 6.338 6.338 5 8 5 z "
       id="rect826" />
    <path
       style="opacity:1;vector-effect:none;fill:#ffffff;fill-opacity:1;fill-rule:evenodd;stroke:none;stroke-width:3;stroke-linecap:round;stroke-linejoin:round;stroke-miterlimit:4;stroke-dasharray:none;stroke-opacity:1;paint-order:normal"
       d="m 24,10 c -6.648,0 -12,5.352 -12,12 0,4.493503 2.450113,8.38851 6.087891,10.445312 C 18.015971,31.12557 18,30 18,30 c 0,0 -2e-6,-0.0039 0,-0.0039 C 15.573018,28.174853 14,25.281346 14,22 c 0,-5.54 4.46,-10 10,-10 5.54,0 10,4.46 10,10 0,3.281346 -1.573018,6.174853 -4,7.996094 2e-6,4e-5 0,0.0039 0,0.0039 0,0 -0.01598,1.12557 -0.08789,2.445312 C 33.549887,30.38851 36,26.493503 36,22 36,15.352 30.648,10 24,10 Z m 0,4 c -4.432,0 -8,3.568 -8,8 0,2.403654 1.055063,4.547671 2.722656,6.011719 0.107406,-0.143721 0.225105,-0.287606 0.363282,-0.425781 0.33119,-0.331191 0.743656,-0.615502 1.226562,-0.853516 C 18.905658,25.63628 18,23.92961 18,22 c 0,-3.324 2.676,-6 6,-6 3.324,0 6,2.676 6,6 0,1.92961 -0.905658,3.63628 -2.3125,4.732422 0.482906,0.238014 0.895372,0.522325 1.226562,0.853516 0.138177,0.138175 0.255876,0.28206 0.363282,0.425781 C 30.944937,26.547671 32,24.403654 32,22 32,17.568 28.432,14 24,14 Z"
       id="rect827-1"
       inkscape:connector-curvature="0"
       sodipodi:nodetypes="sscccssscccsssscccssscccss" />
    <rect
       style="opacity:1;vector-effect:none;fill:#ffffff;fill-opacity:1;fill-rule:evenodd;stroke:none;stroke-width:2.66666675;stroke-linecap:round;stroke-linejoin:round;stroke-miterlimit:4;stroke-dasharray:none;stroke-opacity:1;paint-order:normal"
       id="rect818"
       width="8"
       height="8"
       x="20"
       y="18"
       ry="4" />
    <path
       style="fill:#ffffff;stroke:none;stroke-width:1px;stroke-linecap:butt;stroke-linejoin:miter;stroke-opacity:1"
       d="m 20,30 c 0,0 0,-2 4,-2 4,0 4,2 4,2 0,0 0,6 -1,7 -1,1 -3,1 -3,1 0,0 -2,0 -3,-1 -1,-1 -1,-7 -1,-7 z"
       id="path822"
       inkscape:connector-curvature="0"
       sodipodi:nodetypes="czcscsc" />
  </g>
</svg>
