<?xml version="1.0" encoding="UTF-8" standalone="no"?>
<!-- Created with Inkscape (http://www.inkscape.org/) -->

<svg
   xmlns:dc="http://purl.org/dc/elements/1.1/"
   xmlns:cc="http://creativecommons.org/ns#"
   xmlns:rdf="http://www.w3.org/1999/02/22-rdf-syntax-ns#"
   xmlns:svg="http://www.w3.org/2000/svg"
   xmlns="http://www.w3.org/2000/svg"
   xmlns:sodipodi="http://sodipodi.sourceforge.net/DTD/sodipodi-0.dtd"
   xmlns:inkscape="http://www.inkscape.org/namespaces/inkscape"
   width="48px"
   height="48px"
   viewBox="0 0 48 48"
   version="1.1"
   id="SVGRoot"
   inkscape:version="0.92.4 (5da689c313, 2019-01-14)"
   sodipodi:docname="preferences-color.svg">
  <defs
     id="defs815" />
  <sodipodi:namedview
     id="base"
     pagecolor="#ffffff"
     bordercolor="#666666"
     borderopacity="1.0"
     inkscape:pageopacity="0.0"
     inkscape:pageshadow="2"
     inkscape:zoom="6.816346"
     inkscape:cx="25.048406"
     inkscape:cy="17.591359"
     inkscape:document-units="px"
     inkscape:current-layer="layer1"
     showgrid="true"
     inkscape:window-width="1920"
     inkscape:window-height="1017"
     inkscape:window-x="-8"
     inkscape:window-y="-8"
     inkscape:window-maximized="1"
     inkscape:grid-bbox="true"
     inkscape:snap-global="true">
    <inkscape:grid
       type="xygrid"
       id="grid1371" />
  </sodipodi:namedview>
  <metadata
     id="metadata818">
    <rdf:RDF>
      <cc:Work
         rdf:about="">
        <dc:format>image/svg+xml</dc:format>
        <dc:type
           rdf:resource="http://purl.org/dc/dcmitype/StillImage" />
        <dc:title></dc:title>
      </cc:Work>
    </rdf:RDF>
  </metadata>
  <g
     inkscape:label="Layer 1"
     inkscape:groupmode="layer"
     id="layer1">
    <rect
       style="opacity:1;vector-effect:none;fill:#efefef;fill-opacity:1;fill-rule:evenodd;stroke:none;stroke-width:4;stroke-linecap:round;stroke-linejoin:round;stroke-miterlimit:4;stroke-dasharray:none;stroke-dashoffset:0;stroke-opacity:1;paint-order:stroke fill markers"
       id="rect1373"
       width="40"
       height="40"
       x="4"
       y="4"
       ry="4" />
    <path
       style="opacity:0.25;vector-effect:none;fill:#000000;fill-opacity:1;fill-rule:evenodd;stroke:none;stroke-width:4;stroke-linecap:round;stroke-linejoin:round;stroke-miterlimit:4;stroke-dasharray:none;stroke-dashoffset:0;stroke-opacity:1;paint-order:stroke fill markers"
       d="M 8 4 C 5.784 4 4 5.784 4 8 L 4 40 C 4 42.216 5.784 44 8 44 L 40 44 C 42.216 44 44 42.216 44 40 L 44 8 C 44 5.784 42.216 4 40 4 L 8 4 z M 8 5 L 40 5 C 41.662 5 43 6.338 43 8 L 43 40 C 43 41.662 41.662 43 40 43 L 8 43 C 6.338 43 5 41.662 5 40 L 5 8 C 5 6.338 6.338 5 8 5 z "
       id="rect826" />
    <rect
       style="opacity:1;vector-effect:none;fill:#d35244;fill-opacity:1;fill-rule:evenodd;stroke:none;stroke-width:2;stroke-linecap:round;stroke-linejoin:round;stroke-miterlimit:4;stroke-dasharray:none;stroke-opacity:1;paint-order:normal"
       id="rect838"
       width="16"
       height="16"
       x="16"
       y="10"
       ry="8" />
    <rect
       style="opacity:1;vector-effect:none;fill:#96d56b;fill-opacity:1;fill-rule:evenodd;stroke:none;stroke-width:2.25;stroke-linecap:round;stroke-linejoin:round;stroke-miterlimit:4;stroke-dasharray:none;stroke-opacity:1;paint-order:normal"
       id="rect838-3"
       width="18"
       height="18"
       x="10"
       y="20"
       ry="9" />
    <path
       style="opacity:1;vector-effect:none;fill:#ffd34e;fill-opacity:1;fill-rule:evenodd;stroke:none;stroke-width:2;stroke-linecap:round;stroke-linejoin:round;stroke-miterlimit:4;stroke-dasharray:none;stroke-opacity:1;paint-order:normal"
       d="M 19 20 C 18.080699 20 17.195477 20.136783 16.361328 20.390625 C 17.373055 23.648056 20.401188 26 24 26 C 25.146593 26 26.232679 25.756962 27.216797 25.326172 C 25.815793 22.183377 22.674678 20 19 20 z "
       id="rect838-5" />
    <rect
       style="opacity:1;vector-effect:none;fill:#729dec;fill-opacity:1;fill-rule:evenodd;stroke:none;stroke-width:2.25;stroke-linecap:round;stroke-linejoin:round;stroke-miterlimit:4;stroke-dasharray:none;stroke-opacity:1;paint-order:normal"
       id="rect838-8"
       width="18"
       height="18"
       x="20"
       y="20"
       ry="9" />
    <path
       style="opacity:1;vector-effect:none;fill:#f280a3;fill-opacity:1;fill-rule:evenodd;stroke:none;stroke-width:2;stroke-linecap:round;stroke-linejoin:round;stroke-miterlimit:4;stroke-dasharray:none;stroke-opacity:1;paint-order:normal"
       d="M 29 20 C 25.325322 20 22.184207 22.183377 20.783203 25.326172 C 21.767321 25.756962 22.853407 26 24 26 C 27.598812 26 30.626945 23.648056 31.638672 20.390625 C 30.804523 20.136783 29.919301 20 29 20 z "
       id="rect838-51" />
    <path
       style="opacity:1;vector-effect:none;fill:#96dfd3;fill-opacity:1;fill-rule:evenodd;stroke:none;stroke-width:2.25;stroke-linecap:round;stroke-linejoin:round;stroke-miterlimit:4;stroke-dasharray:none;stroke-opacity:1;paint-order:normal"
       d="M 24 21.509766 C 21.58548 23.120572 20 25.867387 20 29 C 20 32.132613 21.58548 34.879428 24 36.490234 C 26.41452 34.879428 28 32.132613 28 29 C 28 25.867387 26.41452 23.120572 24 21.509766 z "
       id="rect838-3-8" />
    <path
       style="opacity:1;vector-effect:none;fill:#ffffff;fill-opacity:1;fill-rule:evenodd;stroke:none;stroke-width:2;stroke-linecap:round;stroke-linejoin:round;stroke-miterlimit:4;stroke-dasharray:none;stroke-opacity:1;paint-order:normal"
       d="M 24.003906 21.511719 C 23.676915 21.730264 23.364935 21.97003 23.070312 22.228516 C 23.00308 22.287355 22.942385 22.35327 22.876953 22.414062 C 22.648067 22.627276 22.428237 22.849984 22.222656 23.085938 C 22.148593 23.170734 22.080641 23.260084 22.009766 23.347656 C 21.820761 23.581774 21.641709 23.823442 21.476562 24.076172 C 21.422571 24.158636 21.369682 24.24184 21.318359 24.326172 C 21.151737 24.600512 21.000451 24.885032 20.863281 25.177734 C 20.8394 25.228645 20.813967 25.278646 20.791016 25.330078 C 21.773035 25.758704 22.856488 26 24 26 C 25.143288 26 26.227239 25.760388 27.208984 25.332031 C 26.51494 23.775884 25.406305 22.448275 24.003906 21.511719 z "
       id="rect838-51-9" />
    <path
       style="opacity:0.25;vector-effect:none;fill:#000000;fill-opacity:1;fill-rule:evenodd;stroke:none;stroke-width:2;stroke-linecap:round;stroke-linejoin:round;stroke-miterlimit:4;stroke-dasharray:none;stroke-opacity:1;paint-order:normal"
       d="M 24 10 C 19.568 10 16 13.568 16 18 C 16 18.833188 16.127096 19.636473 16.361328 20.390625 C 12.671316 21.513545 10 24.933301 10 29 C 10 33.986 14.014 38 19 38 C 20.853387 38 22.571467 37.443256 24 36.490234 C 25.428533 37.443256 27.146613 38 29 38 C 33.986 38 38 33.986 38 29 C 38 24.933301 35.328684 21.513545 31.638672 20.390625 C 31.872904 19.636473 32 18.833188 32 18 C 32 13.568 28.432 10 24 10 z M 24 11 C 27.878 11 31 14.122 31 18 C 31 19.119735 30.733144 20.172653 30.269531 21.109375 C 34.092692 21.715338 37 25.001157 37 29 C 37 33.432 33.432 37 29 37 C 27.10329 37 25.368292 36.343053 24 35.248047 C 22.631708 36.343053 20.89671 37 19 37 C 14.568 37 11 33.432 11 29 C 11 25.001157 13.907308 21.715338 17.730469 21.109375 C 17.266856 20.172653 17 19.119735 17 18 C 17 14.122 20.122 11 24 11 z "
       id="rect838-7" />
  </g>
</svg>
