<?xml version="1.0" encoding="UTF-8" standalone="no"?>
<!-- Created with Inkscape (http://www.inkscape.org/) -->

<svg
   xmlns:dc="http://purl.org/dc/elements/1.1/"
   xmlns:cc="http://creativecommons.org/ns#"
   xmlns:rdf="http://www.w3.org/1999/02/22-rdf-syntax-ns#"
   xmlns:svg="http://www.w3.org/2000/svg"
   xmlns="http://www.w3.org/2000/svg"
   xmlns:sodipodi="http://sodipodi.sourceforge.net/DTD/sodipodi-0.dtd"
   xmlns:inkscape="http://www.inkscape.org/namespaces/inkscape"
   width="48px"
   height="48px"
   viewBox="0 0 48 48"
   version="1.1"
   id="SVGRoot"
   inkscape:version="0.92.4 (5da689c313, 2019-01-14)"
   sodipodi:docname="qemu.svg">
  <defs
     id="defs815" />
  <sodipodi:namedview
     id="base"
     pagecolor="#ffffff"
     bordercolor="#666666"
     borderopacity="1.0"
     inkscape:pageopacity="0.0"
     inkscape:pageshadow="2"
     inkscape:zoom="19.279538"
     inkscape:cx="25.048406"
     inkscape:cy="23.459606"
     inkscape:document-units="px"
     inkscape:current-layer="layer1"
     showgrid="true"
     inkscape:window-width="1920"
     inkscape:window-height="1017"
     inkscape:window-x="-8"
     inkscape:window-y="-8"
     inkscape:window-maximized="1"
     inkscape:grid-bbox="true"
     inkscape:snap-global="false">
    <inkscape:grid
       type="xygrid"
       id="grid1371" />
  </sodipodi:namedview>
  <metadata
     id="metadata818">
    <rdf:RDF>
      <cc:Work
         rdf:about="">
        <dc:format>image/svg+xml</dc:format>
        <dc:type
           rdf:resource="http://purl.org/dc/dcmitype/StillImage" />
        <dc:title></dc:title>
      </cc:Work>
    </rdf:RDF>
  </metadata>
  <g
     inkscape:label="Layer 1"
     inkscape:groupmode="layer"
     id="layer1">
    <rect
       style="opacity:1;vector-effect:none;fill:#4e4e4e;fill-opacity:1;fill-rule:evenodd;stroke:none;stroke-width:4;stroke-linecap:round;stroke-linejoin:round;stroke-miterlimit:4;stroke-dasharray:none;stroke-dashoffset:0;stroke-opacity:1;paint-order:stroke fill markers"
       id="rect1373"
       width="40"
       height="40"
       x="4"
       y="4"
       ry="4" />
    <path
       style="opacity:0.4;vector-effect:none;fill:#000000;fill-opacity:1;fill-rule:evenodd;stroke:none;stroke-width:4;stroke-linecap:round;stroke-linejoin:round;stroke-miterlimit:4;stroke-dasharray:none;stroke-dashoffset:0;stroke-opacity:1;paint-order:stroke fill markers"
       d="M 8 4 C 5.784 4 4 5.784 4 8 L 4 40 C 4 42.216 5.784 44 8 44 L 40 44 C 42.216 44 44 42.216 44 40 L 44 8 C 44 5.784 42.216 4 40 4 L 8 4 z M 8 5 L 40 5 C 41.662 5 43 6.338 43 8 L 43 40 C 43 41.662 41.662 43 40 43 L 8 43 C 6.338 43 5 41.662 5 40 L 5 8 C 5 6.338 6.338 5 8 5 z "
       id="rect826" />
    <g
       id="layer1-4"
       inkscape:label="Layer 1"
       transform="matrix(1.1838329,0,0,1.156258,-4.9882976,-3.8960448)">
      <path
         inkscape:connector-curvature="0"
         id="path841"
         d="m 20.262471,11.994444 c -0.05665,0.0027 -0.114839,0.03556 -0.206321,0.100059 -0.08299,0.05851 -0.272909,0.123068 -0.422107,0.143568 -0.183334,0.02518 -0.312142,0.08146 -0.397419,0.173475 -0.08619,0.09301 -0.177262,0.132262 -0.287242,0.123877 -0.164055,-0.0125 -0.297031,0.03832 -0.297031,0.113547 0,0.02297 0.0877,0.187425 0.194904,0.365441 0.107193,0.178017 0.1949,0.345056 0.1949,0.371208 0,0.02615 -0.07121,0.03329 -0.158248,0.01588 -0.135345,-0.02708 -0.183817,5.57e-4 -0.334554,0.19088 -0.09693,0.1224 -0.253848,0.394137 -0.348692,0.603849 -0.460178,1.017507 -0.614411,1.313542 -0.819526,1.573032 -0.27418,0.346863 -0.450202,0.866551 -0.871405,2.57191 -0.469601,1.901307 -0.576324,3.008862 -0.39111,4.060322 0.04586,0.260334 0.08338,0.738119 0.08341,1.06174 1.67e-4,1.226408 0.133627,1.534669 0.995286,2.300764 0.639017,0.568144 1.394167,1.380549 2.439217,2.623787 1.484704,1.766271 2.755102,3.552588 3.999852,5.624328 0.331231,0.551296 0.645381,1.039946 0.698146,1.085887 0.05277,0.04594 0.152478,0.258941 0.22155,0.473334 0.157783,0.489742 0.274342,0.722688 0.33053,0.660624 0.02399,-0.0265 -0.0399,-0.747471 -0.14204,-1.60229 -0.102134,-0.854818 -0.226871,-1.756939 -0.277126,-2.00471 -0.146745,-0.723507 -0.482173,-1.83455 -1.104048,-3.656815 -0.658578,-1.929816 -0.940328,-2.994083 -1.06261,-4.01421 -0.267645,-2.232809 0.0955,-3.389334 1.319615,-4.203127 0.217369,-0.144506 0.873701,-0.468372 1.458508,-0.719682 0.584805,-0.251311 1.307959,-0.583226 1.607073,-0.73752 0.830851,-0.428579 1.79525,-0.590961 2.741687,-0.461588 1.810237,0.247449 2.38258,0.267536 2.622918,0.09178 0.101793,-0.07442 0.101737,-0.07899 -0.0012,-0.192728 -0.260636,-0.288002 -0.907253,-0.485782 -2.566035,-0.785049 -0.520667,-0.09393 -1.222318,-0.231856 -1.55922,-0.306384 C 27.3985,17.523358 26.26573,17.298104 24.26993,16.91299 c -0.494566,-0.09543 -0.658633,-0.157304 -0.592321,-0.223615 0.121249,-0.121248 5.572932,0.703101 6.489317,0.981255 0.192164,0.05833 0.517929,0.133428 0.723923,0.166952 0.631265,0.102731 0.904258,0.248056 1.580974,0.841497 0.204128,0.179007 0.398334,0.325524 0.431567,0.325524 0.09998,0 0.06847,-0.210513 -0.07329,-0.4903 -0.335687,-0.662454 -1.138068,-1.125256 -3.012611,-1.73781 -1.165422,-0.380827 -1.602163,-0.73839 -1.729217,-1.415653 -0.09006,-0.48009 -0.887808,-1.423306 -1.559764,-1.844177 -0.434425,-0.272098 -1.593318,-0.679924 -2.852841,-1.003987 -0.866919,-0.223049 -1.095697,-0.238358 -1.180944,-0.07907 -0.03278,0.06125 -0.0865,0.111372 -0.119416,0.111372 -0.03291,0 -0.199329,-0.127529 -0.369793,-0.283327 -0.343134,-0.313603 -0.361816,-0.316392 -1.088169,-0.166297 -0.277945,0.05744 -0.343529,0.05452 -0.457456,-0.02013 -0.08555,-0.05606 -0.140746,-0.08352 -0.197404,-0.08082 z m 4.571073,2.560597 c 0.52781,-0.0073 1.179073,0.210586 1.556066,0.639957 0.295642,0.336717 0.290776,0.652837 -0.01364,0.879455 -0.224675,0.167281 -0.841738,0.182867 -1.302976,0.03295 -0.570271,-0.185351 -1.074792,-0.653197 -1.074792,-0.996699 0,-0.367128 0.369582,-0.549147 0.835295,-0.555669 z"
         style="fill:#f68d59;fill-opacity:1;stroke-width:0.05568643" />
    </g>
  </g>
</svg>
