<?xml version="1.0" encoding="UTF-8" standalone="no"?>
<!-- Created with Inkscape (http://www.inkscape.org/) -->

<svg
   xmlns:dc="http://purl.org/dc/elements/1.1/"
   xmlns:cc="http://creativecommons.org/ns#"
   xmlns:rdf="http://www.w3.org/1999/02/22-rdf-syntax-ns#"
   xmlns:svg="http://www.w3.org/2000/svg"
   xmlns="http://www.w3.org/2000/svg"
   xmlns:sodipodi="http://sodipodi.sourceforge.net/DTD/sodipodi-0.dtd"
   xmlns:inkscape="http://www.inkscape.org/namespaces/inkscape"
   width="48px"
   height="48px"
   viewBox="0 0 48 48"
   version="1.1"
   id="SVGRoot"
   inkscape:version="0.92.4 (5da689c313, 2019-01-14)"
   sodipodi:docname="qt-assistant.svg">
  <defs
     id="defs815" />
  <sodipodi:namedview
     id="base"
     pagecolor="#ffffff"
     bordercolor="#666666"
     borderopacity="1.0"
     inkscape:pageopacity="0.0"
     inkscape:pageshadow="2"
     inkscape:zoom="16.342421"
     inkscape:cx="33.183449"
     inkscape:cy="15.856693"
     inkscape:document-units="px"
     inkscape:current-layer="layer1"
     showgrid="true"
     inkscape:window-width="1920"
     inkscape:window-height="1017"
     inkscape:window-x="-8"
     inkscape:window-y="-8"
     inkscape:window-maximized="1"
     inkscape:grid-bbox="true"
     inkscape:snap-global="true">
    <inkscape:grid
       type="xygrid"
       id="grid1371" />
  </sodipodi:namedview>
  <metadata
     id="metadata818">
    <rdf:RDF>
      <cc:Work
         rdf:about="">
        <dc:format>image/svg+xml</dc:format>
        <dc:type
           rdf:resource="http://purl.org/dc/dcmitype/StillImage" />
        <dc:title></dc:title>
      </cc:Work>
    </rdf:RDF>
  </metadata>
  <g
     inkscape:label="Layer 1"
     inkscape:groupmode="layer"
     id="layer1">
    <rect
       style="opacity:1;vector-effect:none;fill:#59ca84;fill-opacity:1;fill-rule:evenodd;stroke:none;stroke-width:4;stroke-linecap:round;stroke-linejoin:round;stroke-miterlimit:4;stroke-dasharray:none;stroke-dashoffset:0;stroke-opacity:1;paint-order:stroke fill markers"
       id="rect1373"
       width="40"
       height="40"
       x="4"
       y="4"
       ry="4" />
    <path
       style="opacity:0.25;vector-effect:none;fill:#000000;fill-opacity:1;fill-rule:evenodd;stroke:none;stroke-width:4;stroke-linecap:round;stroke-linejoin:round;stroke-miterlimit:4;stroke-dasharray:none;stroke-dashoffset:0;stroke-opacity:1;paint-order:stroke fill markers"
       d="M 8 4 C 5.784 4 4 5.784 4 8 L 4 40 C 4 42.216 5.784 44 8 44 L 40 44 C 42.216 44 44 42.216 44 40 L 44 8 C 44 5.784 42.216 4 40 4 L 8 4 z M 8 5 L 40 5 C 41.662 5 43 6.338 43 8 L 43 40 C 43 41.662 41.662 43 40 43 L 8 43 C 6.338 43 5 41.662 5 40 L 5 8 C 5 6.338 6.338 5 8 5 z "
       id="rect826" />
    <path
       style="opacity:1;vector-effect:none;fill:#ffffff;fill-opacity:1;fill-rule:evenodd;stroke:none;stroke-width:2;stroke-linecap:round;stroke-linejoin:round;stroke-miterlimit:4;stroke-dasharray:none;stroke-opacity:1;paint-order:normal"
       d="M 30 14 L 30 18 L 28 18 L 28 22 L 30 22 L 30 28 C 30 28 30 34 35 34 C 37 34 38 33 38 33 L 38 30 L 35 30 C 34 30 34 28 34 28 L 34 22 L 38 22 L 38 18 L 34 18 L 34 14 L 30 14 z "
       id="rect828" />
    <path
       style="fill:#ffffff;stroke:none;stroke-width:1.02198756px;stroke-linecap:butt;stroke-linejoin:miter;stroke-opacity:1"
       d="M 18 12 C 13.466176 12 10 14.088152 10 23.488281 C 10 32.888409 13.731251 33.933594 18 33.933594 C 18.754805 33.933594 19.491774 33.896747 20.195312 33.791016 L 23 38 L 26 36 L 23.53125 32.296875 C 25.036929 30.875193 26 28.260908 26 23.488281 C 26 14.088152 22.533824 12 18 12 z M 18 16.037109 C 20.266912 16.037109 22 17.371654 22 23.369141 C 22 29.366626 20.134374 30.03125 18 30.03125 C 15.865626 30.03125 14 29.366626 14 23.369141 C 14 17.371654 15.733088 16.037109 18 16.037109 z "
       id="path834" />
    <rect
       style="opacity:1;vector-effect:none;fill:#729dec;fill-opacity:1;fill-rule:evenodd;stroke:none;stroke-width:2;stroke-linecap:round;stroke-linejoin:round;stroke-miterlimit:4;stroke-dasharray:none;stroke-opacity:1;paint-order:normal"
       id="rect881"
       width="26"
       height="26"
       x="20"
       y="20"
       ry="13" />
    <path
       inkscape:connector-curvature="0"
       style="opacity:0.25;vector-effect:none;fill:#000000;fill-opacity:1;fill-rule:evenodd;stroke:none;stroke-width:2;stroke-linecap:round;stroke-linejoin:round;stroke-miterlimit:4;stroke-dasharray:none;stroke-opacity:1;paint-order:normal"
       d="m 33,20 c -7.202,0 -13,5.798 -13,13 0,7.202 5.798,13 13,13 7.202,0 13,-5.798 13,-13 0,-7.202 -5.798,-13 -13,-13 z m 0,1 c 6.648,0 12,5.352 12,12 0,6.648 -5.352,12 -12,12 -6.648,0 -12,-5.352 -12,-12 0,-6.648 5.352,-12 12,-12 z"
       id="rect883" />
    <rect
       style="opacity:1;vector-effect:none;fill:#ffffff;fill-opacity:1;fill-rule:evenodd;stroke:none;stroke-width:2;stroke-linecap:round;stroke-linejoin:miter;stroke-miterlimit:4;stroke-dasharray:none;stroke-opacity:1;paint-order:normal"
       id="rect849"
       width="4"
       height="4"
       x="31"
       y="38"
       ry="2" />
    <path
       style="fill:#ffffff;stroke:none;stroke-width:1px;stroke-linecap:butt;stroke-linejoin:miter;stroke-opacity:1"
       d="m 33,24 c -3.324,0 -6,2.676 -6,6 h 4 v -1 c 0,-1.108 0.892,-2 2,-2 1.108,0 2,0.892 2,2 0,3 -4,3 -4,6.959567 C 33,36 33,36 35,36 c 0,-3 4,-3 4,-6 0,-3.324 -2.676,-6 -6,-6 z"
       id="path849"
       inkscape:connector-curvature="0"
       sodipodi:nodetypes="sccsssccss" />
  </g>
</svg>
