<?xml version="1.0" encoding="UTF-8" standalone="no"?>
<!-- Created with Inkscape (http://www.inkscape.org/) -->

<svg
   xmlns:dc="http://purl.org/dc/elements/1.1/"
   xmlns:cc="http://creativecommons.org/ns#"
   xmlns:rdf="http://www.w3.org/1999/02/22-rdf-syntax-ns#"
   xmlns:svg="http://www.w3.org/2000/svg"
   xmlns="http://www.w3.org/2000/svg"
   xmlns:sodipodi="http://sodipodi.sourceforge.net/DTD/sodipodi-0.dtd"
   xmlns:inkscape="http://www.inkscape.org/namespaces/inkscape"
   width="48px"
   height="48px"
   viewBox="0 0 48 48"
   version="1.1"
   id="SVGRoot"
   inkscape:version="0.92.4 (5da689c313, 2019-01-14)"
   sodipodi:docname="qtlinguist.svg">
  <defs
     id="defs815" />
  <sodipodi:namedview
     id="base"
     pagecolor="#ffffff"
     bordercolor="#666666"
     borderopacity="1.0"
     inkscape:pageopacity="0.0"
     inkscape:pageshadow="2"
     inkscape:zoom="27.705511"
     inkscape:cx="28.577955"
     inkscape:cy="17.766766"
     inkscape:document-units="px"
     inkscape:current-layer="layer1"
     showgrid="true"
     inkscape:window-width="1920"
     inkscape:window-height="1017"
     inkscape:window-x="-8"
     inkscape:window-y="-8"
     inkscape:window-maximized="1"
     inkscape:grid-bbox="true"
     inkscape:snap-global="false">
    <inkscape:grid
       type="xygrid"
       id="grid1371" />
  </sodipodi:namedview>
  <metadata
     id="metadata818">
    <rdf:RDF>
      <cc:Work
         rdf:about="">
        <dc:format>image/svg+xml</dc:format>
        <dc:type
           rdf:resource="http://purl.org/dc/dcmitype/StillImage" />
        <dc:title></dc:title>
      </cc:Work>
    </rdf:RDF>
  </metadata>
  <g
     inkscape:label="Layer 1"
     inkscape:groupmode="layer"
     id="layer1">
    <rect
       style="opacity:1;vector-effect:none;fill:#59ca84;fill-opacity:1;fill-rule:evenodd;stroke:none;stroke-width:4;stroke-linecap:round;stroke-linejoin:round;stroke-miterlimit:4;stroke-dasharray:none;stroke-dashoffset:0;stroke-opacity:1;paint-order:stroke fill markers"
       id="rect1373"
       width="40"
       height="40"
       x="4"
       y="4"
       ry="4" />
    <path
       style="opacity:0.25;vector-effect:none;fill:#000000;fill-opacity:1;fill-rule:evenodd;stroke:none;stroke-width:4;stroke-linecap:round;stroke-linejoin:round;stroke-miterlimit:4;stroke-dasharray:none;stroke-dashoffset:0;stroke-opacity:1;paint-order:stroke fill markers"
       d="M 8 4 C 5.784 4 4 5.784 4 8 L 4 40 C 4 42.216 5.784 44 8 44 L 40 44 C 42.216 44 44 42.216 44 40 L 44 8 C 44 5.784 42.216 4 40 4 L 8 4 z M 8 5 L 40 5 C 41.662 5 43 6.338 43 8 L 43 40 C 43 41.662 41.662 43 40 43 L 8 43 C 6.338 43 5 41.662 5 40 L 5 8 C 5 6.338 6.338 5 8 5 z "
       id="rect826" />
    <path
       style="opacity:1;vector-effect:none;fill:#ffffff;fill-opacity:1;fill-rule:evenodd;stroke:none;stroke-width:2;stroke-linecap:round;stroke-linejoin:round;stroke-miterlimit:4;stroke-dasharray:none;stroke-opacity:1;paint-order:normal"
       d="M 30 14 L 30 18 L 28 18 L 28 22 L 30 22 L 30 28 C 30 28 30 34 35 34 C 37 34 38 33 38 33 L 38 30 L 35 30 C 34 30 34 28 34 28 L 34 22 L 38 22 L 38 18 L 34 18 L 34 14 L 30 14 z "
       id="rect828" />
    <path
       style="fill:#ffffff;stroke:none;stroke-width:1.02198756px;stroke-linecap:butt;stroke-linejoin:miter;stroke-opacity:1"
       d="M 18 12 C 13.466176 12 10 14.088152 10 23.488281 C 10 32.888409 13.731251 33.933594 18 33.933594 C 18.754805 33.933594 19.491774 33.896747 20.195312 33.791016 L 23 38 L 26 36 L 23.53125 32.296875 C 25.036929 30.875193 26 28.260908 26 23.488281 C 26 14.088152 22.533824 12 18 12 z M 18 16.037109 C 20.266912 16.037109 22 17.371654 22 23.369141 C 22 29.366626 20.134374 30.03125 18 30.03125 C 15.865626 30.03125 14 29.366626 14 23.369141 C 14 17.371654 15.733088 16.037109 18 16.037109 z "
       id="path834" />
    <path
       inkscape:connector-curvature="0"
       style="opacity:1;vector-effect:none;fill:#bfea83;fill-opacity:1;fill-rule:evenodd;stroke:none;stroke-width:4.2726388;stroke-linecap:round;stroke-linejoin:round;stroke-miterlimit:4;stroke-dasharray:none;stroke-opacity:1;paint-order:normal;font-variant-east_asian:normal;stroke-dashoffset:0"
       d="m 33.835389,28.976751 c -4.348751,0 -7.849732,3.486224 -7.849732,7.816646 0,3.007926 1.690829,5.605222 4.179927,6.913125 l -1.016457,1.111707 c -0.480365,0.478703 -0.08056,1.291774 0.593747,1.207472 2.908918,-0.362084 4.487969,-0.506642 5.482108,-1.001616 0.0095,-0.0047 0.01435,-0.0092 0.02369,-0.01388 h 2.868388 c 4.348752,0 7.849732,-3.886387 7.849732,-8.21681 0,-4.330422 -3.50098,-7.816646 -7.849732,-7.816646 z"
       id="rect818"
       sodipodi:nodetypes="sscccccssss" />
    <path
       style="color:#000000;font-style:normal;font-variant:normal;font-weight:normal;font-stretch:normal;font-size:medium;line-height:normal;font-family:sans-serif;font-variant-ligatures:normal;font-variant-position:normal;font-variant-caps:normal;font-variant-numeric:normal;font-variant-alternates:normal;font-feature-settings:normal;text-indent:0;text-align:start;text-decoration:none;text-decoration-line:none;text-decoration-style:solid;text-decoration-color:#000000;letter-spacing:normal;word-spacing:normal;text-transform:none;writing-mode:lr-tb;direction:ltr;text-orientation:mixed;dominant-baseline:auto;baseline-shift:baseline;text-anchor:start;white-space:normal;shape-padding:0;clip-rule:nonzero;display:inline;overflow:visible;visibility:visible;opacity:0.25;isolation:auto;mix-blend-mode:normal;color-interpolation:sRGB;color-interpolation-filters:linearRGB;solid-color:#000000;solid-opacity:1;vector-effect:none;fill:#000000;fill-opacity:1;fill-rule:evenodd;stroke:none;stroke-width:2;stroke-linecap:round;stroke-linejoin:round;stroke-miterlimit:4;stroke-dasharray:none;stroke-dashoffset:0;stroke-opacity:1;paint-order:normal;color-rendering:auto;image-rendering:auto;shape-rendering:auto;text-rendering:auto;enable-background:accumulate"
       d="M 33.835938 28.976562 C 29.487186 28.976562 25.986328 32.462547 25.986328 36.792969 C 25.986328 39.800895 27.676918 42.399128 30.166016 43.707031 L 29.148438 44.818359 C 28.668073 45.297062 29.067881 46.109693 29.742188 46.025391 C 32.651105 45.663307 34.23047 45.518412 35.224609 45.023438 C 35.234109 45.018738 35.238707 45.014446 35.248047 45.009766 L 38.117188 45.009766 C 42.465939 45.009766 45.966797 41.123392 45.966797 36.792969 C 45.966797 32.462547 42.46594 28.976563 38.117188 28.976562 L 33.835938 28.976562 z M 33.835938 29.976562 L 38.117188 29.976562 C 41.931499 29.976562 44.966797 33.001521 44.966797 36.792969 C 44.966797 40.584417 41.870154 44.009766 38.117188 44.009766 L 35.248047 44.009766 A 1.0001 1.0001 0 0 0 34.800781 44.115234 C 34.685864 44.172814 34.684608 44.174763 34.78125 44.126953 A 1.0001 1.0001 0 0 0 34.779297 44.128906 C 34.202557 44.41606 32.540517 44.620087 30.4375 44.888672 L 30.904297 44.380859 A 1.0001 1.0001 0 0 0 30.630859 42.820312 C 28.45926 41.67924 26.986328 39.426145 26.986328 36.792969 C 26.986328 33.001521 30.021627 29.976563 33.835938 29.976562 z "
       id="rect818-1" />
  </g>
</svg>
