<?xml version="1.0" encoding="UTF-8" standalone="no"?>
<!-- Created with Inkscape (http://www.inkscape.org/) -->

<svg
   xmlns:dc="http://purl.org/dc/elements/1.1/"
   xmlns:cc="http://creativecommons.org/ns#"
   xmlns:rdf="http://www.w3.org/1999/02/22-rdf-syntax-ns#"
   xmlns:svg="http://www.w3.org/2000/svg"
   xmlns="http://www.w3.org/2000/svg"
   xmlns:xlink="http://www.w3.org/1999/xlink"
   xmlns:sodipodi="http://sodipodi.sourceforge.net/DTD/sodipodi-0.dtd"
   xmlns:inkscape="http://www.inkscape.org/namespaces/inkscape"
   width="48px"
   height="48px"
   viewBox="0 0 48 48"
   version="1.1"
   id="SVGRoot"
   inkscape:version="0.92.4 (5da689c313, 2019-01-14)"
   sodipodi:docname="shotwell.svg">
  <defs
     id="defs815">
    <linearGradient
       inkscape:collect="always"
       id="linearGradient958">
      <stop
         style="stop-color:#3772ae;stop-opacity:1"
         offset="0"
         id="stop954" />
      <stop
         style="stop-color:#71b9e3;stop-opacity:1"
         offset="1"
         id="stop956" />
    </linearGradient>
    <linearGradient
       inkscape:collect="always"
       xlink:href="#linearGradient958"
       id="linearGradient960"
       x1="24"
       y1="8"
       x2="24"
       y2="32"
       gradientUnits="userSpaceOnUse" />
  </defs>
  <sodipodi:namedview
     id="base"
     pagecolor="#ffffff"
     bordercolor="#666666"
     borderopacity="1.0"
     inkscape:pageopacity="0.0"
     inkscape:pageshadow="2"
     inkscape:zoom="9.6397689"
     inkscape:cx="28.435734"
     inkscape:cy="24.870877"
     inkscape:document-units="px"
     inkscape:current-layer="layer1"
     showgrid="true"
     inkscape:window-width="1920"
     inkscape:window-height="1017"
     inkscape:window-x="-8"
     inkscape:window-y="-8"
     inkscape:window-maximized="1"
     inkscape:grid-bbox="true"
     inkscape:snap-global="true">
    <inkscape:grid
       type="xygrid"
       id="grid1371" />
  </sodipodi:namedview>
  <metadata
     id="metadata818">
    <rdf:RDF>
      <cc:Work
         rdf:about="">
        <dc:format>image/svg+xml</dc:format>
        <dc:type
           rdf:resource="http://purl.org/dc/dcmitype/StillImage" />
        <dc:title></dc:title>
      </cc:Work>
    </rdf:RDF>
  </metadata>
  <g
     inkscape:label="Layer 1"
     inkscape:groupmode="layer"
     id="layer1">
    <rect
       style="opacity:1;vector-effect:none;fill:#efefef;fill-opacity:1;fill-rule:evenodd;stroke:none;stroke-width:4;stroke-linecap:round;stroke-linejoin:round;stroke-miterlimit:4;stroke-dasharray:none;stroke-dashoffset:0;stroke-opacity:1;paint-order:stroke fill markers"
       id="rect1373-4"
       width="40"
       height="40"
       x="0.7420215"
       y="6.8657503"
       ry="4"
       transform="rotate(-7.3296382)" />
    <path
       inkscape:connector-curvature="0"
       style="opacity:0.25;vector-effect:none;fill:#000000;fill-opacity:1;fill-rule:evenodd;stroke:none;stroke-width:4;stroke-linecap:round;stroke-linejoin:round;stroke-miterlimit:4;stroke-dasharray:none;stroke-dashoffset:0;stroke-opacity:1;paint-order:stroke fill markers"
       d="M 5.5791891,6.2046713 C 3.3812969,6.4873834 1.8394733,8.4844042 2.1221854,10.682297 l 4.0824859,31.738514 c 0.2827121,2.197892 2.2797329,3.739715 4.4776257,3.457003 l 31.738514,-4.082485 c 2.197892,-0.282712 3.739715,-2.279733 3.457003,-4.477626 L 41.795329,5.5791891 C 41.512617,3.3812969 39.515596,1.8394733 37.317703,2.1221854 Z M 5.7067667,7.1964999 37.445281,3.114014 C 39.0937,2.9019799 40.591466,4.0583477 40.8035,5.7067667 L 44.885986,37.445281 C 45.09802,39.0937 43.941653,40.591466 42.293233,40.8035 L 10.554719,44.885986 C 8.9062996,45.09802 7.4085337,43.941653 7.1964999,42.293233 L 3.114014,10.554719 C 2.9019799,8.9062997 4.0583477,7.4085337 5.7067667,7.1964999 Z"
       id="rect826-3" />
    <rect
       style="opacity:1;vector-effect:none;fill:#efefef;fill-opacity:1;fill-rule:evenodd;stroke:none;stroke-width:4;stroke-linecap:round;stroke-linejoin:round;stroke-miterlimit:4;stroke-dasharray:none;stroke-dashoffset:0;stroke-opacity:1;paint-order:stroke fill markers"
       id="rect1373"
       width="40"
       height="40"
       x="4"
       y="4"
       ry="4" />
    <rect
       style="opacity:1;vector-effect:none;fill:url(#linearGradient960);fill-opacity:1;fill-rule:evenodd;stroke:none;stroke-width:2;stroke-linecap:round;stroke-linejoin:round;stroke-miterlimit:4;stroke-dasharray:none;stroke-opacity:1;paint-order:stroke fill markers"
       id="rect818"
       width="32"
       height="28"
       x="8"
       y="8"
       ry="1" />
    <path
       style="opacity:0.25;vector-effect:none;fill:#000000;fill-opacity:1;fill-rule:evenodd;stroke:none;stroke-width:4;stroke-linecap:round;stroke-linejoin:round;stroke-miterlimit:4;stroke-dasharray:none;stroke-dashoffset:0;stroke-opacity:1;paint-order:stroke fill markers"
       d="M 8 4 C 5.784 4 4 5.784 4 8 L 4 40 C 4 42.216 5.784 44 8 44 L 40 44 C 42.216 44 44 42.216 44 40 L 44 8 C 44 5.784 42.216 4 40 4 L 8 4 z M 8 5 L 40 5 C 41.662 5 43 6.338 43 8 L 43 40 C 43 41.662 41.662 43 40 43 L 8 43 C 6.338 43 5 41.662 5 40 L 5 8 C 5 6.338 6.338 5 8 5 z "
       id="rect826" />
    <rect
       style="opacity:1;vector-effect:none;fill:#ffffff;fill-opacity:1;fill-rule:evenodd;stroke:none;stroke-width:1.16666663px;stroke-linecap:butt;stroke-linejoin:miter;stroke-miterlimit:4;stroke-dasharray:none;stroke-dashoffset:0;stroke-opacity:1;paint-order:normal"
       id="rect912"
       width="14"
       height="14"
       x="12"
       y="22"
       ry="7" />
    <rect
       style="opacity:1;vector-effect:none;fill:#4e4e4e;fill-opacity:1;fill-rule:evenodd;stroke:none;stroke-width:1px;stroke-linecap:butt;stroke-linejoin:miter;stroke-miterlimit:4;stroke-dasharray:none;stroke-dashoffset:0;stroke-opacity:1;paint-order:normal"
       id="rect908"
       width="32"
       height="4"
       x="8"
       y="32"
       ry="1" />
    <rect
       style="opacity:1;vector-effect:none;fill:#4e4e4e;fill-opacity:1;fill-rule:evenodd;stroke:none;stroke-width:1px;stroke-linecap:butt;stroke-linejoin:miter;stroke-miterlimit:4;stroke-dasharray:none;stroke-dashoffset:0;stroke-opacity:1;paint-order:normal"
       id="rect910"
       width="32"
       height="2"
       x="8"
       y="32" />
    <path
       style="fill:#4e4e4e;stroke:none;stroke-width:1px;stroke-linecap:butt;stroke-linejoin:miter;stroke-opacity:1"
       d="m 24,32 v -8 l -7,-5 -2,2 1,-3 -2,-2 3,1 4,3 v -6 l -3,-3 4,2 1,3 3,-3 h 2 l -2,1 -3,4 v 2 l 3,2 4,-3 v -2 l -2,-2 2,1 v -5 l 2,6 2,-1 -2,4 -4,3 v 9 l -2,1 z"
       id="path914"
       inkscape:connector-curvature="0"
       sodipodi:nodetypes="cccccccccccccccccccccccccccccc" />
  </g>
</svg>
