<?xml version="1.0" encoding="UTF-8" standalone="no"?>
<!-- Created with Inkscape (http://www.inkscape.org/) -->

<svg
   xmlns:dc="http://purl.org/dc/elements/1.1/"
   xmlns:cc="http://creativecommons.org/ns#"
   xmlns:rdf="http://www.w3.org/1999/02/22-rdf-syntax-ns#"
   xmlns:svg="http://www.w3.org/2000/svg"
   xmlns="http://www.w3.org/2000/svg"
   xmlns:sodipodi="http://sodipodi.sourceforge.net/DTD/sodipodi-0.dtd"
   xmlns:inkscape="http://www.inkscape.org/namespaces/inkscape"
   width="48px"
   height="48px"
   viewBox="0 0 48 48"
   version="1.1"
   id="SVGRoot"
   inkscape:version="0.92.4 (5da689c313, 2019-01-14)"
   sodipodi:docname="spotify.svg">
  <defs
     id="defs815" />
  <sodipodi:namedview
     id="base"
     pagecolor="#ffffff"
     bordercolor="#666666"
     borderopacity="1.0"
     inkscape:pageopacity="0.0"
     inkscape:pageshadow="2"
     inkscape:zoom="19.279538"
     inkscape:cx="25.048406"
     inkscape:cy="27.609083"
     inkscape:document-units="px"
     inkscape:current-layer="layer1"
     showgrid="true"
     inkscape:window-width="1920"
     inkscape:window-height="1017"
     inkscape:window-x="-8"
     inkscape:window-y="-8"
     inkscape:window-maximized="1"
     inkscape:grid-bbox="true"
     inkscape:snap-global="false">
    <inkscape:grid
       type="xygrid"
       id="grid1371" />
  </sodipodi:namedview>
  <metadata
     id="metadata818">
    <rdf:RDF>
      <cc:Work
         rdf:about="">
        <dc:format>image/svg+xml</dc:format>
        <dc:type
           rdf:resource="http://purl.org/dc/dcmitype/StillImage" />
        <dc:title></dc:title>
      </cc:Work>
    </rdf:RDF>
  </metadata>
  <g
     inkscape:label="Layer 1"
     inkscape:groupmode="layer"
     id="layer1">
    <rect
       style="opacity:1;vector-effect:none;fill:#96d56b;fill-opacity:1;fill-rule:evenodd;stroke:none;stroke-width:4;stroke-linecap:round;stroke-linejoin:round;stroke-miterlimit:4;stroke-dasharray:none;stroke-dashoffset:0;stroke-opacity:1;paint-order:stroke fill markers"
       id="rect1373"
       width="40"
       height="40"
       x="4"
       y="4"
       ry="4" />
    <path
       style="opacity:0.25;vector-effect:none;fill:#000000;fill-opacity:1;fill-rule:evenodd;stroke:none;stroke-width:4;stroke-linecap:round;stroke-linejoin:round;stroke-miterlimit:4;stroke-dasharray:none;stroke-dashoffset:0;stroke-opacity:1;paint-order:stroke fill markers"
       d="M 8 4 C 5.784 4 4 5.784 4 8 L 4 40 C 4 42.216 5.784 44 8 44 L 40 44 C 42.216 44 44 42.216 44 40 L 44 8 C 44 5.784 42.216 4 40 4 L 8 4 z M 8 5 L 40 5 C 41.662 5 43 6.338 43 8 L 43 40 C 43 41.662 41.662 43 40 43 L 8 43 C 6.338 43 5 41.662 5 40 L 5 8 C 5 6.338 6.338 5 8 5 z "
       id="rect826" />
    <path
       style="color:#000000;font-style:normal;font-variant:normal;font-weight:normal;font-stretch:normal;font-size:medium;line-height:normal;font-family:sans-serif;font-variant-ligatures:normal;font-variant-position:normal;font-variant-caps:normal;font-variant-numeric:normal;font-variant-alternates:normal;font-feature-settings:normal;text-indent:0;text-align:start;text-decoration:none;text-decoration-line:none;text-decoration-style:solid;text-decoration-color:#000000;letter-spacing:normal;word-spacing:normal;text-transform:none;writing-mode:lr-tb;direction:ltr;text-orientation:mixed;dominant-baseline:auto;baseline-shift:baseline;text-anchor:start;white-space:normal;shape-padding:0;clip-rule:nonzero;display:inline;overflow:visible;visibility:visible;opacity:1;isolation:auto;mix-blend-mode:normal;color-interpolation:sRGB;color-interpolation-filters:linearRGB;solid-color:#000000;solid-opacity:1;vector-effect:none;fill:#4e4e4e;fill-opacity:1;fill-rule:nonzero;stroke:none;stroke-width:3.96532083;stroke-linecap:round;stroke-linejoin:round;stroke-miterlimit:4;stroke-dasharray:none;stroke-dashoffset:0;stroke-opacity:1;color-rendering:auto;image-rendering:auto;shape-rendering:auto;text-rendering:auto;enable-background:accumulate"
       d="M 21.160156 15.103516 C 20.313035 15.093441 19.509832 15.108282 18.755859 15.140625 C 14.232021 15.334686 11.472656 16.169922 11.472656 16.169922 A 1.9828587 1.9828587 0 1 0 12.636719 19.958984 C 12.636719 19.958984 16.71929 18.684212 23.548828 19.169922 C 30.343426 19.653147 35.166016 21.769531 35.166016 21.769531 A 1.9828587 1.9828587 0 1 0 36.761719 18.140625 C 36.761719 18.140625 31.319094 15.747455 23.830078 15.214844 C 22.898319 15.148578 22.007278 15.11359 21.160156 15.103516 z M 20.970703 21.921875 C 20.176441 21.90828 19.443594 21.917275 18.771484 21.943359 C 17.427266 21.995529 16.322158 22.115827 15.439453 22.255859 C 13.674044 22.535925 12.673828 22.951172 12.673828 22.951172 A 1.5863381 1.5863381 0 1 0 13.9375 25.861328 C 13.9375 25.861328 14.427248 25.628259 15.9375 25.388672 C 17.447752 25.149085 19.856095 24.957032 23.316406 25.203125 C 26.740076 25.446612 29.154402 26.097495 30.689453 26.666016 C 32.224504 27.234536 32.775391 27.646484 32.775391 27.646484 A 1.5862868 1.5862868 0 1 0 34.615234 25.0625 C 34.615234 25.0625 33.604342 24.361035 31.791016 23.689453 C 29.977689 23.017871 27.259152 22.301539 23.541016 22.037109 C 22.620642 21.971654 21.764965 21.93547 20.970703 21.921875 z M 19.435547 28.478516 C 18.285545 28.489469 17.238611 28.550277 16.353516 28.626953 C 14.583326 28.780299 13.460937 28.996094 13.460938 28.996094 A 1.1899614 1.1899614 0 1 0 13.90625 31.333984 C 13.90625 31.333984 18.112078 30.539903 22.90625 31 C 27.690709 31.459165 30.689453 32.972656 30.689453 32.972656 A 1.1897151 1.1897151 0 1 0 31.757812 30.847656 C 31.757812 30.847656 28.329065 29.129357 23.134766 28.630859 C 21.838619 28.506468 20.585549 28.467562 19.435547 28.478516 z "
       id="path830" />
  </g>
</svg>
