<?xml version="1.0" encoding="UTF-8" standalone="no"?>
<!-- Created with Inkscape (http://www.inkscape.org/) -->

<svg
   xmlns:dc="http://purl.org/dc/elements/1.1/"
   xmlns:cc="http://creativecommons.org/ns#"
   xmlns:rdf="http://www.w3.org/1999/02/22-rdf-syntax-ns#"
   xmlns:svg="http://www.w3.org/2000/svg"
   xmlns="http://www.w3.org/2000/svg"
   xmlns:xlink="http://www.w3.org/1999/xlink"
   xmlns:sodipodi="http://sodipodi.sourceforge.net/DTD/sodipodi-0.dtd"
   xmlns:inkscape="http://www.inkscape.org/namespaces/inkscape"
   width="48px"
   height="48px"
   viewBox="0 0 48 48"
   version="1.1"
   id="SVGRoot"
   inkscape:version="0.92.4 (5da689c313, 2019-01-14)"
   sodipodi:docname="synapse.svg">
  <defs
     id="defs815">
    <linearGradient
       inkscape:collect="always"
       id="linearGradient948">
      <stop
         style="stop-color:#4db3a6;stop-opacity:1;"
         offset="0"
         id="stop944" />
      <stop
         style="stop-color:#71e3d4;stop-opacity:1"
         offset="1"
         id="stop946" />
    </linearGradient>
    <linearGradient
       inkscape:collect="always"
       xlink:href="#linearGradient948"
       id="linearGradient950"
       x1="24"
       y1="12"
       x2="24"
       y2="36"
       gradientUnits="userSpaceOnUse" />
  </defs>
  <sodipodi:namedview
     id="base"
     pagecolor="#ffffff"
     bordercolor="#666666"
     borderopacity="1.0"
     inkscape:pageopacity="0.0"
     inkscape:pageshadow="2"
     inkscape:zoom="13.632692"
     inkscape:cx="21.438556"
     inkscape:cy="25.534344"
     inkscape:document-units="px"
     inkscape:current-layer="layer1"
     showgrid="true"
     inkscape:window-width="1920"
     inkscape:window-height="1017"
     inkscape:window-x="-8"
     inkscape:window-y="-8"
     inkscape:window-maximized="1"
     inkscape:grid-bbox="true"
     inkscape:snap-global="true">
    <inkscape:grid
       type="xygrid"
       id="grid1371" />
  </sodipodi:namedview>
  <metadata
     id="metadata818">
    <rdf:RDF>
      <cc:Work
         rdf:about="">
        <dc:format>image/svg+xml</dc:format>
        <dc:type
           rdf:resource="http://purl.org/dc/dcmitype/StillImage" />
        <dc:title></dc:title>
      </cc:Work>
    </rdf:RDF>
  </metadata>
  <g
     inkscape:label="Layer 1"
     inkscape:groupmode="layer"
     id="layer1">
    <rect
       style="opacity:1;vector-effect:none;fill:#b7bfc2;fill-opacity:1;fill-rule:evenodd;stroke:none;stroke-width:4;stroke-linecap:round;stroke-linejoin:round;stroke-miterlimit:4;stroke-dasharray:none;stroke-dashoffset:0;stroke-opacity:1;paint-order:stroke fill markers"
       id="rect1373"
       width="40"
       height="40"
       x="4"
       y="4"
       ry="4" />
    <path
       style="opacity:0.5;vector-effect:none;fill:#ffffff;fill-opacity:1;fill-rule:evenodd;stroke:none;stroke-width:2.14285707;stroke-linecap:round;stroke-linejoin:round;stroke-miterlimit:4;stroke-dasharray:none;stroke-opacity:1;paint-order:normal"
       d="M 21 4 L 21 9.2988281 C 14.137113 10.681194 9 16.717928 9 24 C 9 31.282072 14.137113 37.318806 21 38.701172 L 21 44 L 27 44 L 27 38.701172 C 33.862887 37.318806 39 31.282072 39 24 C 39 16.717928 33.862887 10.681194 27 9.2988281 L 27 4 L 21 4 z "
       id="rect953" />
    <path
       style="opacity:1;vector-effect:none;fill:url(#linearGradient950);fill-opacity:1;fill-rule:evenodd;stroke:none;stroke-width:2;stroke-linecap:round;stroke-linejoin:round;stroke-miterlimit:4;stroke-dasharray:none;stroke-opacity:1;paint-order:normal"
       d="M 22 4 L 22 10.150391 C 16.538655 10.926994 12.112863 14.826037 10.582031 20 L 14.804688 20 C 16.321706 16.464879 19.826465 14 23.929688 14 L 24.070312 14 C 28.173535 14 31.678293 16.464879 33.195312 20 L 37.417969 20 C 35.887137 14.826037 31.461345 10.926994 26 10.150391 L 26 4 L 22 4 z M 24 16 C 19.568 16 16 19.568 16 24 C 16 24.339463 16.027711 24.67189 16.068359 25 L 18 25 L 18.089844 25 L 29.910156 25 C 29.435959 27.843774 26.982464 30 24 30 C 22.218133 30 20.628297 29.225559 19.53125 28 L 17.072266 28 C 18.452079 30.392662 21.028633 32 24 32 C 28.432 32 32 28.432 32 24 C 32 23.660537 31.972289 23.32811 31.931641 23 L 30 23 L 29.910156 23 L 18.089844 23 C 18.564041 20.156226 21.017536 18 24 18 C 25.781867 18 27.371703 18.774441 28.46875 20 L 30.927734 20 C 29.547921 17.607338 26.971367 16 24 16 z M 10.582031 28 C 12.112863 33.173963 16.538655 37.073006 22 37.849609 L 22 44 L 26 44 L 26 37.849609 C 31.461345 37.073006 35.887137 33.173963 37.417969 28 L 33.195312 28 C 31.678293 31.535121 28.173535 34 24.070312 34 L 23.929688 34 C 19.826465 34 16.321705 31.535121 14.804688 28 L 10.582031 28 z "
       id="rect828" />
    <path
       style="opacity:0.25;vector-effect:none;fill:#000000;fill-opacity:1;fill-rule:evenodd;stroke:none;stroke-width:4;stroke-linecap:round;stroke-linejoin:round;stroke-miterlimit:4;stroke-dasharray:none;stroke-dashoffset:0;stroke-opacity:1;paint-order:stroke fill markers"
       d="M 8 4 C 5.784 4 4 5.784 4 8 L 4 40 C 4 42.216 5.784 44 8 44 L 40 44 C 42.216 44 44 42.216 44 40 L 44 8 C 44 5.784 42.216 4 40 4 L 8 4 z M 8 5 L 40 5 C 41.662 5 43 6.338 43 8 L 43 40 C 43 41.662 41.662 43 40 43 L 8 43 C 6.338 43 5 41.662 5 40 L 5 8 C 5 6.338 6.338 5 8 5 z "
       id="rect826" />
  </g>
</svg>
