<?xml version="1.0" encoding="UTF-8" standalone="no"?>
<!-- Created with Inkscape (http://www.inkscape.org/) -->

<svg
   xmlns:dc="http://purl.org/dc/elements/1.1/"
   xmlns:cc="http://creativecommons.org/ns#"
   xmlns:rdf="http://www.w3.org/1999/02/22-rdf-syntax-ns#"
   xmlns:svg="http://www.w3.org/2000/svg"
   xmlns="http://www.w3.org/2000/svg"
   xmlns:sodipodi="http://sodipodi.sourceforge.net/DTD/sodipodi-0.dtd"
   xmlns:inkscape="http://www.inkscape.org/namespaces/inkscape"
   width="48px"
   height="48px"
   viewBox="0 0 48 48"
   version="1.1"
   id="SVGRoot"
   inkscape:version="0.92.4 (5da689c313, 2019-01-14)"
   sodipodi:docname="thunar.svg">
  <defs
     id="defs815" />
  <sodipodi:namedview
     id="base"
     pagecolor="#ffffff"
     bordercolor="#666666"
     borderopacity="1.0"
     inkscape:pageopacity="0.0"
     inkscape:pageshadow="2"
     inkscape:zoom="13.632692"
     inkscape:cx="15.945501"
     inkscape:cy="21.489128"
     inkscape:document-units="px"
     inkscape:current-layer="layer1"
     showgrid="true"
     inkscape:window-width="1920"
     inkscape:window-height="1017"
     inkscape:window-x="-8"
     inkscape:window-y="-8"
     inkscape:window-maximized="1"
     inkscape:grid-bbox="true"
     inkscape:snap-global="true">
    <inkscape:grid
       type="xygrid"
       id="grid1371" />
  </sodipodi:namedview>
  <metadata
     id="metadata818">
    <rdf:RDF>
      <cc:Work
         rdf:about="">
        <dc:format>image/svg+xml</dc:format>
        <dc:type
           rdf:resource="http://purl.org/dc/dcmitype/StillImage" />
        <dc:title></dc:title>
      </cc:Work>
    </rdf:RDF>
  </metadata>
  <g
     inkscape:label="Layer 1"
     inkscape:groupmode="layer"
     id="layer1">
    <rect
       style="opacity:1;vector-effect:none;fill:#8da19e;fill-opacity:1;fill-rule:evenodd;stroke:none;stroke-width:2;stroke-linecap:round;stroke-linejoin:round;stroke-miterlimit:4;stroke-dasharray:none;stroke-opacity:1;paint-order:normal"
       id="rect828-1"
       width="40"
       height="22"
       x="4"
       y="10"
       ry="4" />
    <path
       style="opacity:1;vector-effect:none;fill:#bdcbd3;fill-opacity:1;fill-rule:evenodd;stroke:none;stroke-width:2;stroke-linecap:round;stroke-linejoin:round;stroke-miterlimit:4;stroke-dasharray:none;stroke-opacity:1;paint-order:normal"
       d="M 8 4 C 5.784 4 4 5.784 4 8 L 4 22 C 4 24.216 5.784 26 8 26 L 34 26 L 36 24 L 36 26 L 36 30 L 38 26 L 40 26 C 42.216 26 44 24.216 44 22 L 44 8 C 44 5.784 42.216 4 40 4 L 8 4 z "
       id="rect828" />
    <path
       style="opacity:0.25;vector-effect:none;fill:#000000;fill-opacity:1;fill-rule:evenodd;stroke:none;stroke-width:4;stroke-linecap:round;stroke-linejoin:round;stroke-miterlimit:4;stroke-dasharray:none;stroke-opacity:1;paint-order:normal"
       d="M 8 4 C 5.784 4 4 5.784 4 8 L 4 28 C 4 30.216 5.784 32 8 32 L 40 32 C 42.216 32 44 30.216 44 28 L 44 8 C 44 5.784 42.216 4 40 4 L 8 4 z M 8 5 L 40 5 C 41.662 5 43 6.338 43 8 L 43 28 C 43 29.662 41.662 31 40 31 L 11 31 L 8 27 L 8 31 C 6.338 31 5 29.662 5 28 L 5 8 C 5 6.338 6.338 5 8 5 z "
       id="rect966" />
    <path
       style="fill:#d35244;stroke:#d35244;stroke-width:2;stroke-linecap:round;stroke-linejoin:round;stroke-miterlimit:4;stroke-dasharray:none;stroke-opacity:1"
       d="m 9,43 3,-4 c 0,0 6,-4 12,-4 h 10 c 5,0 5,4 5,4 0,0 0,2 -1,2 C 33,41 24,39 24,39 17.081398,37.9356 9,43 9,43 Z"
       id="path868"
       inkscape:connector-curvature="0"
       sodipodi:nodetypes="cczscssc" />
    <path
       style="color:#000000;font-style:normal;font-variant:normal;font-weight:normal;font-stretch:normal;font-size:medium;line-height:normal;font-family:sans-serif;font-variant-ligatures:normal;font-variant-position:normal;font-variant-caps:normal;font-variant-numeric:normal;font-variant-alternates:normal;font-feature-settings:normal;text-indent:0;text-align:start;text-decoration:none;text-decoration-line:none;text-decoration-style:solid;text-decoration-color:#000000;letter-spacing:normal;word-spacing:normal;text-transform:none;writing-mode:lr-tb;direction:ltr;text-orientation:mixed;dominant-baseline:auto;baseline-shift:baseline;text-anchor:start;white-space:normal;shape-padding:0;clip-rule:nonzero;display:inline;overflow:visible;visibility:visible;opacity:0.25;isolation:auto;mix-blend-mode:normal;color-interpolation:sRGB;color-interpolation-filters:linearRGB;solid-color:#000000;solid-opacity:1;vector-effect:none;fill:#000000;fill-opacity:1;fill-rule:nonzero;stroke:none;stroke-width:2;stroke-linecap:round;stroke-linejoin:round;stroke-miterlimit:4;stroke-dasharray:none;stroke-dashoffset:0;stroke-opacity:1;color-rendering:auto;image-rendering:auto;shape-rendering:auto;text-rendering:auto;enable-background:accumulate"
       d="M 24 34 C 17.555556 34 11.445314 38.167969 11.445312 38.167969 A 1.0001 1.0001 0 0 0 11.199219 38.400391 L 8.1992188 42.400391 A 1.0001 1.0001 0 0 0 9.53125 43.847656 C 9.53125 43.847656 17.512592 39.016665 23.84375 39.988281 L 23.847656 39.988281 C 23.958532 40.013304 32.766304 42 38 42 C 38.583333 42 39.110281 41.645276 39.378906 41.287109 C 39.647531 40.928943 39.764181 40.568277 39.845703 40.242188 C 40.008748 39.590007 40 39 40 39 C 40 39 40.0065 37.724785 39.222656 36.470703 C 38.438855 35.216621 36.766667 34 34 34 L 24 34 z M 24 35 L 34 35 C 36.473505 35 37.775933 36.041493 38.375 37 C 38.99604 37.993609 39 38.994141 39 38.994141 A 1.0001 1.0001 0 0 0 39 39.015625 C 39 39.015625 39.0016 39.493657 38.875 40 C 38.80584 40.276651 38.736785 40.475953 38.578125 40.6875 C 38.495982 40.797028 38.177934 41 38 41 C 33.019369 41 24.173189 39.03733 24.068359 39.013672 A 1.0001 1.0001 0 0 0 23.996094 39 L 23.986328 39 A 1.0001 1.0001 0 0 0 23.886719 38.990234 C 20.444813 38.494892 16.789234 39.514026 13.949219 40.621094 C 11.079298 41.739818 9.0136719 42.992188 9.0136719 42.992188 A 1.0001 1.0001 0 0 0 9 43 L 12 39 A 1.0001 1.0001 0 0 0 12.009766 38.994141 C 12.009732 38.994182 17.986725 35 24 35 z "
       id="path941" />
    <path
       style="opacity:0.25;fill:#000000;stroke:none;stroke-width:1px;stroke-linecap:butt;stroke-linejoin:miter;stroke-opacity:1"
       d="m 28,39 c 0,0 2,-2 6,-2 4,0 4,3 4,3 -5,0 -10,-1 -10,-1 z"
       id="path870"
       inkscape:connector-curvature="0"
       sodipodi:nodetypes="cscc" />
    <rect
       style="opacity:1;vector-effect:none;fill:#e9bf73;fill-opacity:1;fill-rule:evenodd;stroke:none;stroke-width:2;stroke-linecap:round;stroke-linejoin:round;stroke-miterlimit:4;stroke-dasharray:none;stroke-opacity:1;paint-order:normal"
       id="rect845"
       width="12"
       height="16"
       x="18"
       y="28"
       ry="3"
       rx="6" />
    <path
       style="fill:#d35244;stroke:none;stroke-width:1px;stroke-linecap:butt;stroke-linejoin:miter;stroke-opacity:1"
       d="m 30,35 c -9,0 -12,2 -12,2 v 4 c 0,0 3,-2 12,-2 z"
       id="path872-4"
       inkscape:connector-curvature="0"
       sodipodi:nodetypes="ccccc" />
    <rect
       style="opacity:0.25;vector-effect:none;fill:#000000;fill-opacity:1;fill-rule:evenodd;stroke:none;stroke-width:2;stroke-linecap:round;stroke-linejoin:round;stroke-miterlimit:4;stroke-dasharray:none;stroke-opacity:1;paint-order:normal"
       id="rect889"
       width="12"
       height="6"
       x="18"
       y="38"
       rx="5.9266467"
       ry="3" />
    <path
       style="fill:#d35244;stroke:none;stroke-width:1px;stroke-linecap:butt;stroke-linejoin:miter;stroke-opacity:1"
       d="M 18.339844 30.009766 C 18.124058 30.319892 18 30.652204 18 31 L 18 34 C 27 34 30 36 30 36 L 30 32 C 30 32 27.054838 30.063095 18.339844 30.009766 z "
       id="path872" />
    <path
       style="opacity:0.25;vector-effect:none;fill:#000000;fill-opacity:1;fill-rule:evenodd;stroke:none;stroke-width:4;stroke-linecap:round;stroke-linejoin:round;stroke-miterlimit:4;stroke-dasharray:none;stroke-opacity:1;paint-order:normal"
       d="M 23.925781 28 C 20.642417 28 18 29.338 18 31 L 18 41 C 18 42.662 20.642417 44 23.925781 44 L 24.074219 44 C 27.357583 44 30 42.662 30 41 L 30 31 C 30 29.338 27.357583 28 24.074219 28 L 23.925781 28 z M 24 29 C 26.77 29 29 29.892 29 31 L 29 41 C 29 42.108 26.77 43 24 43 C 21.23 43 19 42.108 19 41 L 19 31 C 19 29.892 21.23 29 24 29 z "
       id="rect961" />
    <path
       style="fill:#ffffff;stroke:none;stroke-width:1.43185186px;stroke-linecap:butt;stroke-linejoin:miter;stroke-opacity:1"
       d="m 24.790539,22.023096 c 2.563745,-3.117604 2.320984,-6.502 2.320984,-6.502 0,0 3.270649,-1.947231 5.415628,-6.159788 0,0 -4.025888,-0.01339 -5.995875,0.5133154 -3.265958,0.8731956 -4.351844,3.9924566 -4.351844,3.9924566 l 1.160493,0.399244 c 0,0 0.29767,-2.684793 3.529828,-3.621727 1.008474,-0.292335 2.949584,-0.484798 2.949584,-0.484798 -0.399387,2.272308 -2.611107,4.106528 -2.611107,4.106528 0,0 -0.816188,-0.842316 -1.160492,-2.167335 h -1.063784 c 0.450669,1.993636 1.160491,3.193964 1.160491,3.193964 0,0 -0.0545,3.175584 -1.547321,4.790948 -1.706568,-1.905946 -1.934153,-3.992456 -1.934153,-3.992456 0,0 0.648512,0.323459 2.320983,0.342211 v -1.368843 c -4.142685,0.0755 -5.179203,-1.5011 -6.551942,-4.306149 1.978781,-0.139755 4.134252,0.427759 4.134252,0.427759 l 0.362653,-0.82701 c 0,0 -3.203362,-1.5713282 -6.745359,-1.4543934 2.162193,6.4644994 5.028799,6.9582794 5.028799,6.9582794 0,0 0.680959,3.530722 3.578182,6.159794 z"
       id="path991"
       inkscape:connector-curvature="0"
       sodipodi:nodetypes="cccsccsccccccccccccccc" />
    <path
       style="fill:#ffffff;stroke:none;stroke-width:1.43185186px;stroke-linecap:butt;stroke-linejoin:miter;stroke-opacity:1"
       d="m 9.8024631,12.295414 2.9404529,-0.282308 3.11141,1.976164 2.08567,1.008249 c 0,0 -0.996131,0.700221 -3.077219,0.645276 -1.356347,-0.03581 -4.034575,0.04032 -4.034575,0.04032 0,0 -1.4313989,0.483454 -1.4360352,1.169569 -0.00781,1.156398 1.3446232,1.864187 2.3250092,1.855174 0.594929,-0.0055 1.545441,-0.388816 1.504418,-1.088907 -0.04115,-0.702143 -1.572801,-1.008248 -1.572801,-1.008248 l 2.119862,-0.161319 c 0,0 1.226084,0.775235 1.128313,1.411546 -0.244518,1.591354 -2.405996,2.223015 -3.761044,1.976165 -1.4021214,-0.255424 -3.3053215,-1.67054 -3.008835,-3.30705 0.3412548,-1.883621 4.615827,-1.935836 4.615827,-1.935836 z"
       id="path993"
       inkscape:connector-curvature="0"
       sodipodi:nodetypes="ccccscsssccssscc" />
    <path
       style="fill:#ffffff;stroke:none;stroke-width:1.43185186px;stroke-linecap:butt;stroke-linejoin:miter;stroke-opacity:1"
       d="m 38.28311,12.295414 -2.940453,-0.282308 -3.11141,1.976164 -2.08567,1.008249 c 0,0 0.996132,0.700221 3.077219,0.645276 1.356347,-0.03581 4.034575,0.04032 4.034575,0.04032 0,0 1.431398,0.483454 1.436035,1.169569 0.0078,1.156398 -1.344622,1.864187 -2.32501,1.855174 -0.594927,-0.0055 -1.54544,-0.388816 -1.504417,-1.088907 0.04115,-0.702143 1.572801,-1.008248 1.572801,-1.008248 l -2.119862,-0.161319 c 0,0 -1.226085,0.775235 -1.128313,1.411546 0.244518,1.591354 2.405995,2.223015 3.761044,1.976165 1.402121,-0.255424 3.305322,-1.67054 3.008836,-3.30705 -0.341255,-1.88362 -4.615828,-1.935835 -4.615828,-1.935835 z"
       id="path993-8"
       inkscape:connector-curvature="0"
       sodipodi:nodetypes="ccccscsssccssscc" />
    <path
       style="opacity:0.5;vector-effect:none;fill:#ffffff;fill-opacity:1;fill-rule:evenodd;stroke:none;stroke-width:4;stroke-linecap:round;stroke-linejoin:round;stroke-miterlimit:4;stroke-dasharray:none;stroke-opacity:1;paint-order:normal"
       d="M 23.925781 37 C 21.866087 37 20.061159 37.527333 19 38.330078 L 19 39.330078 C 19.51768 38.938558 20.225607 38.623647 21.041016 38.392578 C 21.141218 38.363043 21.241892 38.335124 21.347656 38.308594 C 21.522357 38.265763 21.698944 38.227513 21.882812 38.193359 C 22.035326 38.16481 22.192976 38.141533 22.353516 38.119141 C 22.535108 38.0939 22.71411 38.067313 22.902344 38.050781 C 23.135551 38.02997 23.378578 38.022986 23.623047 38.015625 C 23.725487 38.012983 23.821999 38 23.925781 38 L 24 38 L 24.074219 38 C 24.178001 38 24.274513 38.012983 24.376953 38.015625 C 24.621422 38.022986 24.864449 38.02997 25.097656 38.050781 C 25.28589 38.067313 25.464892 38.0939 25.646484 38.119141 C 25.807024 38.141533 25.964674 38.16481 26.117188 38.193359 C 26.301056 38.227513 26.477643 38.265763 26.652344 38.308594 C 26.758108 38.335124 26.858782 38.363043 26.958984 38.392578 C 27.774393 38.623647 28.48232 38.938558 29 39.330078 L 29 38.330078 C 27.938841 37.527333 26.133913 37 24.074219 37 L 23.925781 37 z "
       id="rect961-3" />
  </g>
</svg>
