<?xml version="1.0" encoding="UTF-8" standalone="no"?>
<!-- Created with Inkscape (http://www.inkscape.org/) -->

<svg
   xmlns:dc="http://purl.org/dc/elements/1.1/"
   xmlns:cc="http://creativecommons.org/ns#"
   xmlns:rdf="http://www.w3.org/1999/02/22-rdf-syntax-ns#"
   xmlns:svg="http://www.w3.org/2000/svg"
   xmlns="http://www.w3.org/2000/svg"
   xmlns:sodipodi="http://sodipodi.sourceforge.net/DTD/sodipodi-0.dtd"
   xmlns:inkscape="http://www.inkscape.org/namespaces/inkscape"
   width="48px"
   height="48px"
   viewBox="0 0 48 48"
   version="1.1"
   id="SVGRoot"
   inkscape:version="0.92.4 (5da689c313, 2019-01-14)"
   sodipodi:docname="user-info.svg">
  <defs
     id="defs815">
    <inkscape:perspective
       id="perspective854"
       inkscape:persp3d-origin="24 : 16 : 1"
       inkscape:vp_z="48 : 24 : 1"
       inkscape:vp_y="0 : 1000 : 0"
       inkscape:vp_x="0 : 24 : 1"
       sodipodi:type="inkscape:persp3d" />
  </defs>
  <sodipodi:namedview
     id="base"
     pagecolor="#ffffff"
     bordercolor="#666666"
     borderopacity="1.0"
     inkscape:pageopacity="0.0"
     inkscape:pageshadow="2"
     inkscape:zoom="3.943468"
     inkscape:cx="25.048406"
     inkscape:cy="23.459606"
     inkscape:document-units="px"
     inkscape:current-layer="layer1"
     showgrid="true"
     inkscape:window-width="725"
     inkscape:window-height="405"
     inkscape:window-x="243"
     inkscape:window-y="266"
     inkscape:window-maximized="0"
     inkscape:grid-bbox="true"
     inkscape:snap-global="true">
    <inkscape:grid
       type="xygrid"
       id="grid1371" />
  </sodipodi:namedview>
  <metadata
     id="metadata818">
    <rdf:RDF>
      <cc:Work
         rdf:about="">
        <dc:format>image/svg+xml</dc:format>
        <dc:type
           rdf:resource="http://purl.org/dc/dcmitype/StillImage" />
        <dc:title></dc:title>
      </cc:Work>
    </rdf:RDF>
  </metadata>
  <g
     inkscape:label="Layer 1"
     inkscape:groupmode="layer"
     id="layer1">
    <path
       style="opacity:1;vector-effect:none;fill:#efefef;fill-opacity:1;fill-rule:evenodd;stroke:none;stroke-width:4;stroke-linecap:round;stroke-linejoin:round;stroke-miterlimit:4;stroke-dasharray:none;stroke-dashoffset:0;stroke-opacity:1;paint-order:stroke fill markers"
       d="M 8 4 C 5.784 4 4 5.784 4 8 L 4 14 L 4.1386719 14 C 4.0561689 14.320999 4 14.65255 4 15 L 4 40 C 4 42.216 5.784 44 8 44 L 40 44 C 42.216 44 44 42.216 44 40 L 44 15 C 44 14.65255 43.943831 14.320999 43.861328 14 L 44 14 L 44 8 C 44 5.784 42.216 4 40 4 L 35 4 L 35 6.2753906 C 35.595799 6.6209515 36 7.2589301 36 8 C 36 9.108 35.108 10 34 10 C 32.892 10 32 9.108 32 8 C 32 7.2589301 32.404201 6.6209515 33 6.2753906 L 33 4 L 15 4 L 15 6.2753906 C 15.595799 6.6209515 16 7.2589301 16 8 C 16 9.108 15.108 10 14 10 C 12.892 10 12 9.108 12 8 C 12 7.2589301 12.404201 6.6209515 13 6.2753906 L 13 4 L 8 4 z "
       id="rect1373-1" />
    <rect
       style="opacity:1;vector-effect:none;fill:#54629b;fill-opacity:1;fill-rule:evenodd;stroke:none;stroke-width:2;stroke-linecap:round;stroke-linejoin:round;stroke-miterlimit:4;stroke-dasharray:none;stroke-opacity:1;paint-order:normal"
       id="rect893"
       width="24"
       height="24"
       x="12"
       y="14"
       ry="2" />
    <path
       inkscape:connector-curvature="0"
       style="opacity:0.25;vector-effect:none;fill:#000000;fill-opacity:1;fill-rule:evenodd;stroke:none;stroke-width:4;stroke-linecap:round;stroke-linejoin:round;stroke-miterlimit:4;stroke-dasharray:none;stroke-dashoffset:0;stroke-opacity:1;paint-order:stroke fill markers"
       d="M 8,4 C 5.784,4 4,5.784 4,8 v 32 c 0,2.216 1.784,4 4,4 h 32 c 2.216,0 4,-1.784 4,-4 V 8 C 44,5.784 42.216,4 40,4 H 36 35 V 5 6.2753906 C 35.595799,6.6209515 36,7.2589301 36,8 36,9.108 35.108,10 34,10 32.892,10 32,9.108 32,8 32,7.2589301 32.404201,6.6209515 33,6.2753906 V 5 4 H 32 16 15 V 5 6.2753906 C 15.595799,6.6209515 16,7.2589301 16,8 16,9.108 15.108,10 14,10 12.892,10 12,9.108 12,8 12,7.2589301 12.404201,6.6209515 13,6.2753906 V 5 4 h -1 z m 0,1 h 4 V 5.7753906 C 11.389896,6.3237849 11,7.111297 11,8 c 0,1.662 1.338,3 3,3 1.662,0 3,-1.338 3,-3 C 17,7.111297 16.610104,6.3237849 16,5.7753906 V 5 H 32 V 5.7753906 C 31.389896,6.3237849 31,7.111297 31,8 c 0,1.662 1.338,3 3,3 1.662,0 3,-1.338 3,-3 C 37,7.111297 36.610104,6.3237849 36,5.7753906 V 5 h 4 c 1.662,0 3,1.338 3,3 v 32 c 0,1.662 -1.338,3 -3,3 H 8 C 6.338,43 5,41.662 5,40 V 8 C 5,6.338 6.338,5 8,5 Z"
       id="rect826-0" />
    <rect
       style="opacity:1;vector-effect:none;fill:#8babe7;fill-opacity:1;fill-rule:evenodd;stroke:none;stroke-width:2;stroke-linecap:round;stroke-linejoin:round;stroke-miterlimit:4;stroke-dasharray:none;stroke-opacity:1;paint-order:normal"
       id="rect891"
       width="20"
       height="20"
       x="14"
       y="16"
       ry="1" />
    <path
       style="fill:#54629b;stroke:none;stroke-width:1.00032973px;stroke-linecap:butt;stroke-linejoin:miter;stroke-opacity:1;fill-opacity:1"
       d="m 24,16.990234 c -3.324,0 -6,2.677715 -6,6.003907 v 1.001953 c 0,2.229962 1.205548,4.161711 3,5.197265 V 31 c 0,0 -5.027344,1.001293 -6.027344,2.001953 C 14.327902,33.647133 14.08035,35.056798 14,36 l 10,1 10,-1 C 33.919648,35.056797 33.672097,33.647133 33.027344,33.001953 32.027338,32.001296 27,31 27,31 v -1.806641 c 1.794452,-1.035554 3,-2.967303 3,-5.197265 v -1.001953 c 0,-3.326192 -2.676,-6.003907 -6,-6.003907 z"
       id="path828-9"
       inkscape:connector-curvature="0"
       sodipodi:nodetypes="sssccsccccccsss" />
  </g>
</svg>
