<?xml version="1.0" encoding="UTF-8" standalone="no"?>
<!-- Created with Inkscape (http://www.inkscape.org/) -->

<svg
   xmlns:dc="http://purl.org/dc/elements/1.1/"
   xmlns:cc="http://creativecommons.org/ns#"
   xmlns:rdf="http://www.w3.org/1999/02/22-rdf-syntax-ns#"
   xmlns:svg="http://www.w3.org/2000/svg"
   xmlns="http://www.w3.org/2000/svg"
   xmlns:sodipodi="http://sodipodi.sourceforge.net/DTD/sodipodi-0.dtd"
   xmlns:inkscape="http://www.inkscape.org/namespaces/inkscape"
   width="48px"
   height="48px"
   viewBox="0 0 48 48"
   version="1.1"
   id="SVGRoot"
   inkscape:version="0.92.4 (5da689c313, 2019-01-14)"
   sodipodi:docname="utorrent.svg">
  <defs
     id="defs815" />
  <sodipodi:namedview
     id="base"
     pagecolor="#ffffff"
     bordercolor="#666666"
     borderopacity="1.0"
     inkscape:pageopacity="0.0"
     inkscape:pageshadow="2"
     inkscape:zoom="19.279538"
     inkscape:cx="25.048406"
     inkscape:cy="19.310128"
     inkscape:document-units="px"
     inkscape:current-layer="layer1"
     showgrid="true"
     inkscape:window-width="1920"
     inkscape:window-height="1017"
     inkscape:window-x="-8"
     inkscape:window-y="-8"
     inkscape:window-maximized="1"
     inkscape:grid-bbox="true"
     inkscape:snap-global="true">
    <inkscape:grid
       type="xygrid"
       id="grid1371" />
  </sodipodi:namedview>
  <metadata
     id="metadata818">
    <rdf:RDF>
      <cc:Work
         rdf:about="">
        <dc:format>image/svg+xml</dc:format>
        <dc:type
           rdf:resource="http://purl.org/dc/dcmitype/StillImage" />
        <dc:title></dc:title>
      </cc:Work>
    </rdf:RDF>
  </metadata>
  <g
     inkscape:label="Layer 1"
     inkscape:groupmode="layer"
     id="layer1">
    <rect
       style="opacity:1;vector-effect:none;fill:#96d56b;fill-opacity:1;fill-rule:evenodd;stroke:none;stroke-width:4;stroke-linecap:round;stroke-linejoin:round;stroke-miterlimit:4;stroke-dasharray:none;stroke-dashoffset:0;stroke-opacity:1;paint-order:stroke fill markers"
       id="rect1373"
       width="40"
       height="40"
       x="4"
       y="4"
       ry="4" />
    <path
       style="fill:#ffffff;stroke:none;stroke-width:1.80031633px;stroke-linecap:butt;stroke-linejoin:miter;stroke-opacity:1"
       d="M 10.054385,19.062965 19,44 h 8 l -4.129024,-9.972798 c 0,0 2.377139,1.136709 6.165819,-0.346395 4.099832,-1.604907 4.087455,-4.364568 4.087455,-4.364568 0,0 2.10636,1.673088 4.607044,1.662692 C 41.010948,30.965251 44,28.762008 44,28.762008 v -4.087453 c 0,0 -2.122457,2.301274 -3.913225,2.286202 -2.143651,-0.01804 -3.360023,-2.563318 -3.360023,-2.563318 l -4.625759,-9.876105 c 0,0 -0.387293,-0.726629 -1.088594,-0.579444 -1.017056,0.213454 -2.929587,0.574676 -3.945027,0.795686 -0.872403,0.189878 -0.494799,0.985185 -0.494799,0.985185 l 4.0343,9.232925 c 0,0 1.408974,3.184004 -2.498366,4.629323 -4.641939,1.717047 -6.956233,-2.032983 -6.956233,-2.032983 l -4.359893,-9.846499 c 0,0 -0.315418,-1.008197 -1.445134,-0.783802 -1.551681,0.30821 -3.022235,0.590269 -4.653818,0.930763 -0.9737889,0.203219 -0.639044,1.210477 -0.639044,1.210477 z"
       id="path828"
       inkscape:connector-curvature="0"
       sodipodi:nodetypes="ccccscsccsccssccsccssc" />
    <path
       style="opacity:0.25;vector-effect:none;fill:#000000;fill-opacity:1;fill-rule:evenodd;stroke:none;stroke-width:4;stroke-linecap:round;stroke-linejoin:round;stroke-miterlimit:4;stroke-dasharray:none;stroke-dashoffset:0;stroke-opacity:1;paint-order:stroke fill markers"
       d="M 8 4 C 5.784 4 4 5.784 4 8 L 4 40 C 4 42.216 5.784 44 8 44 L 40 44 C 42.216 44 44 42.216 44 40 L 44 8 C 44 5.784 42.216 4 40 4 L 8 4 z M 8 5 L 40 5 C 41.662 5 43 6.338 43 8 L 43 40 C 43 41.662 41.662 43 40 43 L 8 43 C 6.338 43 5 41.662 5 40 L 5 8 C 5 6.338 6.338 5 8 5 z "
       id="rect826" />
  </g>
</svg>
