<?xml version="1.0" encoding="UTF-8" standalone="no"?>
<!-- Created with Inkscape (http://www.inkscape.org/) -->

<svg
   xmlns:dc="http://purl.org/dc/elements/1.1/"
   xmlns:cc="http://creativecommons.org/ns#"
   xmlns:rdf="http://www.w3.org/1999/02/22-rdf-syntax-ns#"
   xmlns:svg="http://www.w3.org/2000/svg"
   xmlns="http://www.w3.org/2000/svg"
   xmlns:sodipodi="http://sodipodi.sourceforge.net/DTD/sodipodi-0.dtd"
   xmlns:inkscape="http://www.inkscape.org/namespaces/inkscape"
   width="48px"
   height="48px"
   viewBox="0 0 48 48"
   version="1.1"
   id="SVGRoot"
   inkscape:version="0.92.4 (5da689c313, 2019-01-14)"
   sodipodi:docname="xbmc.svg">
  <defs
     id="defs815" />
  <sodipodi:namedview
     id="base"
     pagecolor="#ffffff"
     bordercolor="#666666"
     borderopacity="1.0"
     inkscape:pageopacity="0.0"
     inkscape:pageshadow="2"
     inkscape:zoom="19.279538"
     inkscape:cx="41.680109"
     inkscape:cy="22.778205"
     inkscape:document-units="px"
     inkscape:current-layer="layer1"
     showgrid="true"
     inkscape:window-width="1920"
     inkscape:window-height="1017"
     inkscape:window-x="-8"
     inkscape:window-y="-8"
     inkscape:window-maximized="1"
     inkscape:grid-bbox="true"
     inkscape:snap-global="false">
    <inkscape:grid
       type="xygrid"
       id="grid1371" />
  </sodipodi:namedview>
  <metadata
     id="metadata818">
    <rdf:RDF>
      <cc:Work
         rdf:about="">
        <dc:format>image/svg+xml</dc:format>
        <dc:type
           rdf:resource="http://purl.org/dc/dcmitype/StillImage" />
        <dc:title></dc:title>
      </cc:Work>
    </rdf:RDF>
  </metadata>
  <g
     inkscape:label="Layer 1"
     inkscape:groupmode="layer"
     id="layer1">
    <rect
       style="opacity:1;vector-effect:none;fill:#627ad4;fill-opacity:1;fill-rule:evenodd;stroke:none;stroke-width:4;stroke-linecap:round;stroke-linejoin:round;stroke-miterlimit:4;stroke-dasharray:none;stroke-dashoffset:0;stroke-opacity:1;paint-order:stroke fill markers"
       id="rect1373"
       width="40"
       height="40"
       x="4"
       y="4"
       ry="4" />
    <path
       style="fill:#d9822b;fill-opacity:1;fill-rule:evenodd;stroke:none;stroke-width:0.23682302"
       d="M 8 29 C 8.035526 29.07578 8.0753926 29.148825 8.1132812 29.224609 L 10.611328 29.224609 C 24.129194 29.200919 36.729522 29.970997 44 31 L 44 29.009766 C 34.354614 29.137895 20.481566 29.02286 8 29 z "
       id="path22" />
    <path
       style="opacity:0.25;vector-effect:none;fill:#000000;fill-opacity:1;fill-rule:evenodd;stroke:none;stroke-width:4;stroke-linecap:round;stroke-linejoin:round;stroke-miterlimit:4;stroke-dasharray:none;stroke-dashoffset:0;stroke-opacity:1;paint-order:stroke fill markers"
       d="M 8 4 C 5.784 4 4 5.784 4 8 L 4 40 C 4 42.216 5.784 44 8 44 L 40 44 C 42.216 44 44 42.216 44 40 L 44 8 C 44 5.784 42.216 4 40 4 L 8 4 z M 8 5 L 40 5 C 41.662 5 43 6.338 43 8 L 43 40 C 43 41.662 41.662 43 40 43 L 8 43 C 6.338 43 5 41.662 5 40 L 5 8 C 5 6.338 6.338 5 8 5 z "
       id="rect826" />
    <path
       inkscape:connector-curvature="0"
       style="fill:#96d56b;fill-opacity:1;fill-rule:nonzero;stroke:none;stroke-width:0.17933899"
       id="path46"
       d="m 17.261819,18.086483 -0.263627,1.816702 h -1.590731 c -0.966638,0 -1.861539,0.342537 -2.684702,1.025816 -0.217,0.17934 -0.410685,0.365852 -0.582851,0.564916 -0.09683,-0.199064 -0.216999,-0.385576 -0.364057,-0.564916 -0.563124,-0.683279 -1.332485,-1.025816 -2.2991229,-1.025816 H 7.4215095 c -0.073533,0.383785 0,0.710179 0.2169986,0.980982 0.2187929,0.2708 0.5182894,0.408891 0.9038667,0.408891 h 0.6725194 c 0.5756778,0 1.0258168,0.206239 1.3504218,0.622305 0.324602,0.416065 0.433999,0.914629 0.324602,1.490304 -0.109386,0.577472 -0.403513,1.068858 -0.885934,1.479544 -0.4824196,0.408893 -1.0168499,0.616924 -1.5907335,0.616924 H 7.7407321 c -0.38558,0 -0.7370826,0.132712 -1.0598916,0.403514 -0.3228091,0.2708 -0.5218762,0.595403 -0.5936107,0.980983 h 2.0623933 c 0.9666348,0 1.8561559,-0.337158 2.6793209,-1.015058 0.215207,-0.177546 0.410685,-0.367645 0.581056,-0.56671 0.09684,0.199065 0.22238,0.389164 0.371233,0.56671 0.563123,0.6779 1.325311,1.015058 2.291946,1.015058 h 2.062394 c 0.07353,-0.38558 0,-0.710183 -0.218793,-0.980983 -0.218792,-0.270802 -0.523669,-0.403514 -0.907452,-0.403514 h -0.667141 c -0.577471,0 -1.029405,-0.208031 -1.355799,-0.616924 -0.32819,-0.410686 -0.437586,-0.902072 -0.326398,-1.479544 0.109386,-0.575675 0.407099,-1.074239 0.891314,-1.490304 0.484213,-0.416066 1.01685,-0.622305 1.592529,-0.622305 h 0.672519 c 0.374815,0 0.719146,-0.134504 1.036575,-0.392751 l -0.364057,2.48922 c -0.145264,0.982776 0.08429,1.814908 0.694041,2.503567 0.595403,0.699421 1.397049,1.043751 2.365476,1.043751 0.986362,0 1.883057,-0.34433 2.690079,-1.043751 0.807024,-0.688659 1.29124,-1.520791 1.43471,-2.503567 0.14347,-0.98457 -0.08968,-1.816701 -0.681487,-2.50536 -0.609751,-0.683281 -1.416774,-1.031199 -2.403136,-1.031199 h -2.098264 l 0.03587,-0.274387 c 0.07173,-0.405306 -0.01794,-0.760396 -0.286942,-1.054511 -0.233139,-0.294115 -0.568504,-0.437587 -0.977394,-0.437587 z m 1.013263,3.17788 h 2.116197 c 0.573883,0 1.040165,0.20086 1.398841,0.616926 0.322809,0.414271 0.448346,0.925386 0.376612,1.508238 -0.08967,0.582851 -0.358677,1.081413 -0.824959,1.501064 -0.466279,0.42324 -0.986362,0.638448 -1.57818,0.638448 -0.591819,0 -1.058096,-0.215208 -1.398841,-0.638448 -0.340745,-0.419651 -0.466279,-0.918213 -0.394544,-1.501064 z" />
    <path
       inkscape:connector-curvature="0"
       style="fill:#e6eff8;fill-opacity:1;fill-rule:nonzero;stroke:none;stroke-width:0.17933899"
       id="path48"
       d="m 27.636559,19.852968 c -0.986361,0 -1.883055,0.346124 -2.672145,1.03658 -0.807024,0.701212 -1.291238,1.53155 -1.434708,2.516119 l -0.520083,3.531178 c 0.412479,0 0.789089,-0.138091 1.1119,-0.432206 0.340743,-0.288736 0.538015,-0.638446 0.591816,-1.052719 l 0.304877,-2.046253 c 0.08966,-0.588229 0.358678,-1.092171 0.824958,-1.518998 0.466281,-0.416065 1.004296,-0.622306 1.57818,-0.622306 0.591818,0 1.058099,0.206241 1.39884,0.622306 0.340743,0.426827 0.466281,0.930769 0.376612,1.518998 l -0.286942,2.046253 c -0.07173,0.407099 0.03586,0.747843 0.286942,1.041959 0.251075,0.292321 0.573884,0.442966 0.986361,0.442966 l 0.520084,-3.531178 c 0.07173,-0.588229 0.358675,-1.092171 0.824958,-1.518998 0.46628,-0.416065 0.986363,-0.622306 1.578181,-0.622306 0.573883,0 1.040162,0.206241 1.380905,0.622306 0.340744,0.426827 0.484215,0.930769 0.394545,1.518998 l -0.304876,2.046253 c -0.0538,0.407099 0.03586,0.747843 0.286943,1.041959 0.251074,0.292321 0.573882,0.442966 0.986363,0.442966 l 0.251075,-1.653502 c 0.107595,0.217001 0.23314,0.423239 0.412478,0.616925 0.609749,0.690454 1.398839,1.036577 2.367269,1.036577 h 2.098261 c 0.0538,-0.389164 -0.03586,-0.722734 -0.269006,-0.998915 -0.23314,-0.272594 -0.555951,-0.408891 -0.932561,-0.408891 h -0.681488 c -0.591817,0 -1.058097,-0.211623 -1.398842,-0.627687 -0.358676,-0.414272 -0.484211,-0.912834 -0.412476,-1.495685 0.08966,-0.588229 0.37661,-1.092171 0.84289,-1.518998 0.466282,-0.416065 1.004295,-0.622306 1.578182,-0.622306 h 0.681483 c 0.394546,0 0.753225,-0.145262 1.076035,-0.41965 0.304874,-0.274392 0.484213,-0.598991 0.538015,-0.991745 h -2.080328 c -0.986363,0 -1.865121,0.346124 -2.672146,1.03658 -0.394545,0.34433 -0.717354,0.720939 -0.950495,1.131624 -0.107595,-0.412478 -0.322809,-0.790881 -0.609752,-1.131624 -0.609751,-0.690456 -1.398841,-1.03658 -2.385202,-1.03658 -0.538018,0 -1.076033,0.127331 -1.614048,0.37482 -0.538015,0.247486 -1.022231,0.579262 -1.416778,1.015055 -0.28694,-0.435793 -0.66355,-0.77833 -1.111899,-1.025816 -0.466278,-0.240315 -0.968427,-0.364059 -1.524378,-0.364059 z" />
  </g>
</svg>
