<?xml version="1.0" encoding="UTF-8" standalone="no"?>
<!-- Created with Inkscape (http://www.inkscape.org/) -->

<svg
   xmlns:dc="http://purl.org/dc/elements/1.1/"
   xmlns:cc="http://creativecommons.org/ns#"
   xmlns:rdf="http://www.w3.org/1999/02/22-rdf-syntax-ns#"
   xmlns:svg="http://www.w3.org/2000/svg"
   xmlns="http://www.w3.org/2000/svg"
   xmlns:sodipodi="http://sodipodi.sourceforge.net/DTD/sodipodi-0.dtd"
   xmlns:inkscape="http://www.inkscape.org/namespaces/inkscape"
   width="48px"
   height="48px"
   viewBox="0 0 48 48"
   version="1.1"
   id="SVGRoot"
   inkscape:version="0.92.4 (5da689c313, 2019-01-14)"
   sodipodi:docname="xfce4-panel.svg">
  <defs
     id="defs815" />
  <sodipodi:namedview
     id="base"
     pagecolor="#ffffff"
     bordercolor="#666666"
     borderopacity="1.0"
     inkscape:pageopacity="0.0"
     inkscape:pageshadow="2"
     inkscape:zoom="6.6854105"
     inkscape:cx="14.405218"
     inkscape:cy="23.275716"
     inkscape:document-units="px"
     inkscape:current-layer="layer1"
     showgrid="true"
     inkscape:window-width="725"
     inkscape:window-height="405"
     inkscape:window-x="717"
     inkscape:window-y="117"
     inkscape:window-maximized="0"
     inkscape:grid-bbox="true"
     inkscape:snap-global="false">
    <inkscape:grid
       type="xygrid"
       id="grid1371" />
  </sodipodi:namedview>
  <metadata
     id="metadata818">
    <rdf:RDF>
      <cc:Work
         rdf:about="">
        <dc:format>image/svg+xml</dc:format>
        <dc:type
           rdf:resource="http://purl.org/dc/dcmitype/StillImage" />
        <dc:title></dc:title>
      </cc:Work>
    </rdf:RDF>
  </metadata>
  <g
     inkscape:label="Layer 1"
     inkscape:groupmode="layer"
     id="layer1">
    <rect
       style="opacity:1;vector-effect:none;fill:#efefef;fill-opacity:1;fill-rule:evenodd;stroke:none;stroke-width:4;stroke-linecap:round;stroke-linejoin:round;stroke-miterlimit:4;stroke-dasharray:none;stroke-dashoffset:0;stroke-opacity:1;paint-order:stroke fill markers"
       id="rect1373"
       width="40"
       height="40"
       x="4"
       y="4"
       ry="4" />
    <path
       style="opacity:0.25;vector-effect:none;fill:#000000;fill-opacity:1;fill-rule:evenodd;stroke:none;stroke-width:4;stroke-linecap:round;stroke-linejoin:round;stroke-miterlimit:4;stroke-dasharray:none;stroke-dashoffset:0;stroke-opacity:1;paint-order:stroke fill markers"
       d="M 8 4 C 5.784 4 4 5.784 4 8 L 4 40 C 4 42.216 5.784 44 8 44 L 40 44 C 42.216 44 44 42.216 44 40 L 44 8 C 44 5.784 42.216 4 40 4 L 8 4 z M 8 5 L 40 5 C 41.662 5 43 6.338 43 8 L 43 40 C 43 41.662 41.662 43 40 43 L 8 43 C 6.338 43 5 41.662 5 40 L 5 8 C 5 6.338 6.338 5 8 5 z "
       id="rect826" />
    <path
       style="opacity:0.25;vector-effect:none;fill:#000000;fill-opacity:1;fill-rule:evenodd;stroke:none;stroke-width:2;stroke-linecap:round;stroke-linejoin:round;stroke-miterlimit:4;stroke-dasharray:none;stroke-opacity:1;paint-order:normal"
       d="m 11,10 c -1.108,0 -2,0.892 -2,2 v 24.04641 c 0,1.108 0.892,2 2,2 h 4.037369 c 1.108,0 2,-0.892 2,-2 V 12 c 0,-1.108 -0.892,-2 -2,-2 z m 0,1 h 4.037369 c 0.554,0 1,0.446 1,1 v 24.04641 c 0,0.554 -0.446,1 -1,1 H 11 c -0.554,0 -1,-0.446 -1,-1 V 12 c 0,-0.554 0.446,-1 1,-1 z"
       id="rect828"
       inkscape:connector-curvature="0"
       sodipodi:nodetypes="ssssssssssssssssss" />
    <path
       style="fill:#4e4e4e;stroke:none;stroke-width:1px;stroke-linecap:butt;stroke-linejoin:miter;stroke-opacity:1"
       d="m 11,24 4,-3 v 6 z"
       id="path834"
       inkscape:connector-curvature="0"
       sodipodi:nodetypes="cccc" />
    <path
       style="fill:#4e4e4e;stroke:none;stroke-width:1.306916px;stroke-linecap:butt;stroke-linejoin:miter;stroke-opacity:1"
       d="m 21.338546,21.529945 c 0,0 -1.177242,1.993531 -1.266206,3.451186 -0.130391,2.136382 0.454156,4.974481 2.156994,6.271198 1.917732,1.460358 4.282406,1.899401 6.682652,1.677661 1.355334,-0.125203 10.119816,-3.386675 9.730431,-7.325727 -0.39132,-3.958612 -10.928761,-5.464381 -10.928761,-5.464381 0,0 0.890775,-4.321877 -1.773525,-4.218119 -2.038419,0.07938 -1.246264,4.266053 -1.246264,4.266053 l -0.819244,0.273597 c 0,0 -1.209267,-4.158002 -3.255074,-3.245453 -1.939887,0.865302 0.718997,4.313985 0.718997,4.313985 z"
       id="path828"
       inkscape:connector-curvature="0"
       sodipodi:nodetypes="csssscsccsc" />
    <path
       style="fill:none;stroke:#4e4e4e;stroke-width:1.306916px;stroke-linecap:round;stroke-linejoin:round;stroke-opacity:1"
       d="m 36.187211,18.187334 -0.527264,2.013194"
       id="path830"
       inkscape:connector-curvature="0"
       sodipodi:nodetypes="cc" />
    <path
       style="fill:none;stroke:#4e4e4e;stroke-width:1.24427807px;stroke-linecap:round;stroke-linejoin:round;stroke-opacity:1"
       d="m 38.112834,21.265888 1.323439,-1.73416"
       id="path832"
       inkscape:connector-curvature="0" />
  </g>
</svg>
