<?xml version="1.0" encoding="UTF-8" standalone="no"?>
<!-- Created with Inkscape (http://www.inkscape.org/) -->

<svg
   xmlns:dc="http://purl.org/dc/elements/1.1/"
   xmlns:cc="http://creativecommons.org/ns#"
   xmlns:rdf="http://www.w3.org/1999/02/22-rdf-syntax-ns#"
   xmlns:svg="http://www.w3.org/2000/svg"
   xmlns="http://www.w3.org/2000/svg"
   xmlns:sodipodi="http://sodipodi.sourceforge.net/DTD/sodipodi-0.dtd"
   xmlns:inkscape="http://www.inkscape.org/namespaces/inkscape"
   width="48px"
   height="48px"
   viewBox="0 0 48 48"
   version="1.1"
   id="SVGRoot"
   inkscape:version="0.92.4 (5da689c313, 2019-01-14)"
   sodipodi:docname="zim.svg">
  <defs
     id="defs815" />
  <sodipodi:namedview
     id="base"
     pagecolor="#ffffff"
     bordercolor="#666666"
     borderopacity="1.0"
     inkscape:pageopacity="0.0"
     inkscape:pageshadow="2"
     inkscape:zoom="9.639769"
     inkscape:cx="26.441823"
     inkscape:cy="16.805698"
     inkscape:document-units="px"
     inkscape:current-layer="layer1"
     showgrid="true"
     inkscape:window-width="1920"
     inkscape:window-height="1017"
     inkscape:window-x="-8"
     inkscape:window-y="-8"
     inkscape:window-maximized="1"
     inkscape:grid-bbox="true"
     inkscape:snap-global="true">
    <inkscape:grid
       type="xygrid"
       id="grid1371" />
  </sodipodi:namedview>
  <metadata
     id="metadata818">
    <rdf:RDF>
      <cc:Work
         rdf:about="">
        <dc:format>image/svg+xml</dc:format>
        <dc:type
           rdf:resource="http://purl.org/dc/dcmitype/StillImage" />
        <dc:title></dc:title>
      </cc:Work>
    </rdf:RDF>
  </metadata>
  <g
     inkscape:label="Layer 1"
     inkscape:groupmode="layer"
     id="layer1">
    <path
       inkscape:connector-curvature="0"
       style="color:#000000;font-style:normal;font-variant:normal;font-weight:normal;font-stretch:normal;font-size:medium;line-height:normal;font-family:sans-serif;font-variant-ligatures:normal;font-variant-position:normal;font-variant-caps:normal;font-variant-numeric:normal;font-variant-alternates:normal;font-feature-settings:normal;text-indent:0;text-align:start;text-decoration:none;text-decoration-line:none;text-decoration-style:solid;text-decoration-color:#000000;letter-spacing:normal;word-spacing:normal;text-transform:none;writing-mode:lr-tb;direction:ltr;text-orientation:mixed;dominant-baseline:auto;baseline-shift:baseline;text-anchor:start;white-space:normal;shape-padding:0;clip-rule:nonzero;display:inline;overflow:visible;visibility:visible;opacity:1;isolation:auto;mix-blend-mode:normal;color-interpolation:sRGB;color-interpolation-filters:linearRGB;solid-color:#000000;solid-opacity:1;vector-effect:none;fill:#d35244;fill-opacity:1;fill-rule:nonzero;stroke:none;stroke-width:2;stroke-linecap:round;stroke-linejoin:miter;stroke-miterlimit:4;stroke-dasharray:none;stroke-dashoffset:0;stroke-opacity:1;color-rendering:auto;image-rendering:auto;shape-rendering:auto;text-rendering:auto;enable-background:accumulate"
       d="M 8,4 C 5.784,4 4,5.784 4,8 v 4 c 0,2.216 1.784,4 4,4 h 3.220703 l 8.728516,8 -8.728516,8 H 8 c -2.216,0 -4,1.784 -4,4 v 4 c 0,2.216 1.784,4 4,4 h 10 c 2.216,0 4,-1.784 4,-4 v -4 c 0,-2.216 -1.784,-4 -4,-4 h -0.857422 l 5.791016,-5.310547 a 2.0002,2.0002 0 0 0 2.132812,0.002 L 30.857422,32 H 30 c -2.216,0 -4,1.784 -4,4 v 4 c 0,2.216 1.784,4 4,4 h 10 c 2.216,0 4,-1.784 4,-4 v -4 c 0,-2.216 -1.784,-4 -4,-4 h -3.220703 l -8.728516,-8 8.728516,-8 H 40 c 2.216,0 4,-1.784 4,-4 V 8 C 44,5.784 42.216,4 40,4 H 30 c -2.216,0 -4,1.784 -4,4 v 4 c 0,2.216 1.784,4 4,4 h 0.857422 l -5.791016,5.310547 a 2.0002,2.0002 0 0 0 -0.982422,-0.308594 2.0002,2.0002 0 0 0 -1.15039,0.306641 L 17.142578,16 H 18 c 2.216,0 4,-1.784 4,-4 V 8 C 22,5.784 20.216,4 18,4 Z"
       id="path859-7-1" />
    <path
       style="color:#000000;font-style:normal;font-variant:normal;font-weight:normal;font-stretch:normal;font-size:medium;line-height:normal;font-family:sans-serif;font-variant-ligatures:normal;font-variant-position:normal;font-variant-caps:normal;font-variant-numeric:normal;font-variant-alternates:normal;font-feature-settings:normal;text-indent:0;text-align:start;text-decoration:none;text-decoration-line:none;text-decoration-style:solid;text-decoration-color:#000000;letter-spacing:normal;word-spacing:normal;text-transform:none;writing-mode:lr-tb;direction:ltr;text-orientation:mixed;dominant-baseline:auto;baseline-shift:baseline;text-anchor:start;white-space:normal;shape-padding:0;clip-rule:nonzero;display:inline;overflow:visible;visibility:visible;opacity:0.25;isolation:auto;mix-blend-mode:normal;color-interpolation:sRGB;color-interpolation-filters:linearRGB;solid-color:#000000;solid-opacity:1;vector-effect:none;fill:#000000;fill-opacity:1;fill-rule:nonzero;stroke:none;stroke-width:2;stroke-linecap:round;stroke-linejoin:miter;stroke-miterlimit:4;stroke-dasharray:none;stroke-dashoffset:0;stroke-opacity:1;color-rendering:auto;image-rendering:auto;shape-rendering:auto;text-rendering:auto;enable-background:accumulate"
       d="M 8 4 C 5.784 4 4 5.784 4 8 L 4 12 C 4 14.216 5.784 16 8 16 L 11.220703 16 L 19.949219 24 L 11.220703 32 L 8 32 C 5.784 32 4 33.784 4 36 L 4 40 C 4 42.216 5.784 44 8 44 L 18 44 C 20.216 44 22 42.216 22 40 L 22 36 C 22 33.784 20.216 32 18 32 L 17.142578 32 L 22.933594 26.689453 A 2.0002 2.0002 0 0 0 25.066406 26.691406 L 30.857422 32 L 30 32 C 27.784 32 26 33.784 26 36 L 26 40 C 26 42.216 27.784 44 30 44 L 40 44 C 42.216 44 44 42.216 44 40 L 44 36 C 44 33.784 42.216 32 40 32 L 36.779297 32 L 28.050781 24 L 36.779297 16 L 40 16 C 42.216 16 44 14.216 44 12 L 44 8 C 44 5.784 42.216 4 40 4 L 30 4 C 27.784 4 26 5.784 26 8 L 26 12 C 26 14.216 27.784 16 30 16 L 30.857422 16 L 25.066406 21.310547 A 2.0002 2.0002 0 0 0 24.083984 21.001953 A 2.0002 2.0002 0 0 0 22.933594 21.308594 L 17.142578 16 L 18 16 C 20.216 16 22 14.216 22 12 L 22 8 C 22 5.784 20.216 4 18 4 L 8 4 z M 8 5 L 18 5 C 19.679297 5 21 6.3207028 21 8 L 21 12 C 21 13.679297 19.679297 15 18 15 L 14.572266 15 L 22.820312 22.5625 L 23.466797 22.154297 C 23.637538 22.046611 23.837408 21.994319 24.039062 22.001953 C 24.213528 22.009653 24.383729 22.062793 24.53125 22.15625 L 25.177734 22.564453 L 33.427734 15 L 30 15 C 28.320703 15 27 13.679297 27 12 L 27 8 C 27 6.3207028 28.320703 5 30 5 L 40 5 C 41.679297 5 43 6.3207028 43 8 L 43 12 C 43 13.679297 41.679297 15 40 15 L 36.390625 15 L 26.570312 24 L 36.390625 33 L 40 33 C 41.679297 33 43 34.320703 43 36 L 43 40 C 43 41.679297 41.679297 43 40 43 L 30 43 C 28.320703 43 27 41.679297 27 40 L 27 36 C 27 34.320703 28.320703 33 30 33 L 33.427734 33 L 25.179688 25.439453 L 24.533203 25.845703 C 24.205232 26.051966 23.79439 26.050661 23.466797 25.84375 L 22.820312 25.435547 L 14.572266 33 L 18 33 C 19.679297 33 21 34.320703 21 36 L 21 40 C 21 41.679297 19.679297 43 18 43 L 8 43 C 6.3207028 43 5 41.679297 5 40 L 5 36 C 5 34.320703 6.3207028 33 8 33 L 11.609375 33 L 21.429688 24 L 11.609375 15 L 8 15 C 6.3207028 15 5 13.679297 5 12 L 5 8 C 5 6.3207028 6.3207028 5 8 5 z "
       id="path859" />
    <path
       style="fill:#ffdd75;stroke:#ffdd75;stroke-width:2;stroke-linecap:round;stroke-linejoin:round;stroke-miterlimit:4;stroke-dasharray:none;stroke-opacity:1"
       d="m 23.998249,38 c 1.428571,-2.857143 3.012748,-3.571429 3.012748,-5 0,-1.214052 -0.869891,-4.038245 -0.869891,-4.038245 h -4.285714 c 0,0 -0.818023,2.824193 -0.818023,4.038245 0,1.428571 1.532308,2.142857 2.96088,5 z"
       id="path853"
       inkscape:connector-curvature="0"
       sodipodi:nodetypes="csccsc" />
    <path
       style="opacity:0.25;vector-effect:none;fill:#000000;fill-opacity:1;fill-rule:evenodd;stroke:none;stroke-width:4;stroke-linecap:round;stroke-linejoin:round;stroke-miterlimit:4;stroke-dasharray:none;stroke-opacity:1;paint-order:normal"
       d="M 24 31 C 23.446 31 23 31.446 23 32 C 23 32.367633 23.205968 32.673913 23.5 32.847656 L 23.5 38.867188 C 23.653018 38.954304 23.825396 39 23.998047 39 C 24.172137 39 24.346037 38.953809 24.5 38.865234 L 24.5 32.847656 C 24.794032 32.673913 25 32.367633 25 32 C 25 31.446 24.554 31 24 31 z "
       id="rect876" />
    <path
       style="fill:#96d56b;stroke:#96d56b;stroke-width:2;stroke-linecap:round;stroke-linejoin:round;stroke-miterlimit:4;stroke-dasharray:none;stroke-opacity:1"
       d="m 24,29 c 0,0 -4,-2 -4,-4 0,-3.59011 3,-15 4,-15 1,0 4,11 4,15 0,2 -4,4 -4,4 z"
       id="path857"
       inkscape:connector-curvature="0"
       sodipodi:nodetypes="cczcc" />
    <path
       style="color:#000000;font-style:normal;font-variant:normal;font-weight:normal;font-stretch:normal;font-size:medium;line-height:normal;font-family:sans-serif;font-variant-ligatures:normal;font-variant-position:normal;font-variant-caps:normal;font-variant-numeric:normal;font-variant-alternates:normal;font-feature-settings:normal;text-indent:0;text-align:start;text-decoration:none;text-decoration-line:none;text-decoration-style:solid;text-decoration-color:#000000;letter-spacing:normal;word-spacing:normal;text-transform:none;writing-mode:lr-tb;direction:ltr;text-orientation:mixed;dominant-baseline:auto;baseline-shift:baseline;text-anchor:start;white-space:normal;shape-padding:0;clip-rule:nonzero;display:inline;overflow:visible;visibility:visible;opacity:0.25;isolation:auto;mix-blend-mode:normal;color-interpolation:sRGB;color-interpolation-filters:linearRGB;solid-color:#000000;solid-opacity:1;vector-effect:none;fill:#000000;fill-opacity:1;fill-rule:nonzero;stroke:none;stroke-width:2;stroke-linecap:round;stroke-linejoin:round;stroke-miterlimit:4;stroke-dasharray:none;stroke-dashoffset:0;stroke-opacity:1;color-rendering:auto;image-rendering:auto;shape-rendering:auto;text-rendering:auto;enable-background:accumulate"
       d="M 24 9 C 23.462088 9 23.214051 9.2757987 23.050781 9.4550781 C 22.887511 9.6343575 22.778927 9.8106157 22.667969 10.009766 C 22.446053 10.408065 22.238334 10.899195 22.017578 11.488281 C 21.576067 12.666454 21.1016 14.225573 20.658203 15.898438 C 19.77141 19.244167 19 22.926402 19 25 C 19 25.833333 19.387489 26.523424 19.84375 27.09375 C 20.300011 27.664076 20.857724 28.143781 21.400391 28.550781 C 22.485724 29.364781 23.552734 29.894531 23.552734 29.894531 C 23.834294 30.035314 24.165706 30.035314 24.447266 29.894531 C 24.447266 29.894531 25.514276 29.364781 26.599609 28.550781 C 27.142276 28.143781 27.699989 27.664076 28.15625 27.09375 C 28.612511 26.523424 29 25.833333 29 25 C 29 22.75 28.227753 19.038182 27.339844 15.740234 C 26.895889 14.09126 26.423313 12.569991 25.980469 11.421875 C 25.759046 10.847817 25.550265 10.369553 25.326172 9.9804688 C 25.214125 9.7859265 25.102839 9.6128115 24.9375 9.4375 C 24.772161 9.2621885 24.520833 9 24 9 z M 23.884766 9.9960938 C 23.891555 9.9868658 23.901951 10 24 10 C 24.185232 10 24.051199 9.9536709 24.210938 10.123047 C 24.304498 10.222247 24.361809 10.311748 24.458984 10.480469 C 24.640262 10.795215 24.834295 11.230118 25.046875 11.78125 C 25.468946 12.875511 25.937219 14.373959 26.375 16 C 27.251781 19.256617 28 22.978814 28 25 C 28 25.523342 27.757979 25.990026 27.375 26.46875 C 26.996191 26.942261 26.504034 27.371975 26 27.75 C 24.999741 28.500195 24.001953 28.998047 24.001953 28.998047 A 1.0001 1.0001 0 0 0 24 29 A 1.0001 1.0001 0 0 0 23.998047 28.998047 C 23.998047 28.998047 23.000259 28.500195 22 27.75 C 21.496013 27.372022 21.003809 26.942261 20.625 26.46875 C 20.242021 25.990026 20 25.523342 20 25 C 20 23.174412 20.747965 19.46321 21.625 16.154297 C 22.062557 14.503466 22.530732 12.967001 22.953125 11.839844 C 23.165638 11.272754 23.360079 10.820842 23.541016 10.496094 C 23.639066 10.320108 23.698828 10.230134 23.791016 10.128906 C 23.874795 10.036912 23.877977 10.005322 23.884766 9.9960938 z "
       id="path857-7-4" />
    <rect
       style="opacity:1;vector-effect:none;fill:#ffdd75;fill-opacity:1;fill-rule:evenodd;stroke:none;stroke-width:2;stroke-linecap:round;stroke-linejoin:round;stroke-miterlimit:4;stroke-dasharray:none;stroke-opacity:1;paint-order:normal"
       id="rect855"
       width="8"
       height="2"
       x="20"
       y="28"
       ry="1" />
    <path
       style="color:#000000;font-style:normal;font-variant:normal;font-weight:normal;font-stretch:normal;font-size:medium;line-height:normal;font-family:sans-serif;font-variant-ligatures:normal;font-variant-position:normal;font-variant-caps:normal;font-variant-numeric:normal;font-variant-alternates:normal;font-feature-settings:normal;text-indent:0;text-align:start;text-decoration:none;text-decoration-line:none;text-decoration-style:solid;text-decoration-color:#000000;letter-spacing:normal;word-spacing:normal;text-transform:none;writing-mode:lr-tb;direction:ltr;text-orientation:mixed;dominant-baseline:auto;baseline-shift:baseline;text-anchor:start;white-space:normal;shape-padding:0;clip-rule:nonzero;display:inline;overflow:visible;visibility:visible;opacity:0.25;isolation:auto;mix-blend-mode:normal;color-interpolation:sRGB;color-interpolation-filters:linearRGB;solid-color:#000000;solid-opacity:1;vector-effect:none;fill:#000000;fill-opacity:1;fill-rule:nonzero;stroke:none;stroke-width:2;stroke-linecap:round;stroke-linejoin:round;stroke-miterlimit:4;stroke-dasharray:none;stroke-dashoffset:0;stroke-opacity:1;color-rendering:auto;image-rendering:auto;shape-rendering:auto;text-rendering:auto;enable-background:accumulate"
       d="M 21.582031,28 H 21 c -0.554,0 -1,0.446 -1,1 0,0.401182 0.236761,0.740834 0.576172,0.900391 -0.04818,0.188434 -0.0502,0.177135 -0.101563,0.392578 -0.210675,0.883685 -0.4375,1.875406 -0.4375,2.707031 0,1.071824 0.582952,1.850445 1.158203,2.582031 0.575252,0.731586 1.242969,1.534766 1.908204,2.865235 0.368551,0.737161 1.420511,0.737161 1.789062,0 0.663069,-1.326139 1.340717,-2.125767 1.927734,-2.855469 0.58702,-0.729702 1.191407,-1.50787 1.191407,-2.591797 0,-0.845866 -0.24242,-1.835665 -0.466797,-2.720703 C 27.490816,30.065881 27.488328,30.077622 27.4375,29.890625 27.768584,29.727992 28,29.395099 28,29 28,28.446 27.554,28 27,28 H 26.417969 C 25,28 23,28 21.582031,28 Z m 4.835932,1 h 0.564453 c -0.420962,0.215314 -0.633614,0.69602 -0.509766,1.152344 0.05577,0.205191 0.05335,0.175178 0.103516,0.373047 0.222896,0.879195 0.435547,1.819806 0.435547,2.474609 0,0.7122 -0.391201,1.244485 -0.970703,1.964844 C 25.465951,35.679688 24.711086,36.573921 23.998047,38 23.285103,36.574114 22.543131,35.680419 21.980469,34.964844 21.41541,34.24622 21.037109,33.709232 21.037109,33 c 0,-0.649792 0.201072,-1.597595 0.410157,-2.474609 0.04816,-0.202018 0.04544,-0.172726 0.09766,-0.376953 C 21.662698,29.687038 21.438815,29.206587 21.009766,29 h 0.572265 C 23,29 25,29 26.417963,29 Z"
       id="path853-4-7"
       inkscape:connector-curvature="0"
       sodipodi:nodetypes="cssccsscccsccssccccccsscssccccc" />
  </g>
</svg>
